<?xml version="1.0" encoding="UTF-8"?>
<svg xmlns="http://www.w3.org/2000/svg" viewBox="0 0 1000 1000">
  <g id="Layer_2" data-name="Layer 2">
    <g>
      <path d="M678.4614,344.7517v-.0315c.3886-2.8672-.5776-5.871-2.9198-8.8223-3.1298-3.9385-8.6542-7.5934-15.586-10.3241l2.8672-20.4172h0v-.2836c0-.0105-.0105-.021-.021-.0315v-.0315c-.0105-.0315-.042-.0525-.0525-.084-.021-.042-.0525-.0945-.084-.126-.0315-.042-.063-.063-.105-.0945-.0315-.021-.0525-.0525-.084-.0735h0l-5.8815-3.3924s-.021,0-.0315-.0105c-.042-.021-.0945-.0315-.1471-.0525-.042-.0105-.084-.0315-.126-.0315h-.1365c-.0525,0-.0945,0-.1471.021h-.042l-28.8929,10.7968s-.0525.042-.084.0525c-.0315.021-.0735.021-.0945.0525-.0105,0-.021.021-.0315.0315-.042.0315-.063.0735-.0945.105-.021.0315-.0525.0525-.063.0735h0s0,.021-.0105.0315c-.021.042-.0315.0945-.0525.1365,0,.0315-.0315.063-.0315.0945l-1.1868,8.4337c-11.595,1.1658-19.9761,5.2934-22.4653,11.0908-.3256.7667-.5251,1.5439-.6406,2.3316,0,.021-.0105.0315-.021.0525l-.0315.1996c0,.063-.021.1365-.0315.1995l-.9452,6.8793c-.5251,3.823,1.3443,7.772,5.3144,11.4059-.4726,4.9363.2101,10.5972,1.9955,16.4367-1.2708,4.1486-1.9745,8.1921-2.1111,11.9626-6.3331,7.1418-7.4149,19.9656-2.8882,34.3858-.8927,2.8357-1.5754,5.6294-2.0375,8.3601-7.9715,8.4232-9.4209,24.5238-3.802,42.1788-6.5747,20.3647-3.8125,38.902,8.1186,45.7917l5.8815,3.3924s.0735.0105.105.0315c.2311.1365.4621.2836.7037.4096,1.6279.8402,3.3924,1.4389,5.2619,1.796h.1365c.105.0105.2101.0315.3151.0315.5776,0,1.2078-.189,1.8275-.5461h0l16.1111-9.3054,16.0901,9.2844h0c.6197.3571,1.2288.5356,1.8065.5356.1155,0,.2205-.0105.3256-.0315h.1365c2.1741-.4201,4.1906-1.1763,6.0285-2.2266h.021l.084-.0525c.063-.042.1365-.0735.1996-.1155l5.5979-3.2348c11.931-6.8898,14.6827-25.3955,8.1396-45.7392,5.598-17.5815,4.1801-33.6506-3.7075-42.0948-.4726-2.7937-1.1658-5.6715-2.09-8.5702,4.4531-14.2942,3.4029-27.0129-2.8147-34.1758-.1471-3.7915-.8717-7.877-2.1845-12.1096.6407-2.0795,1.1343-4.1486,1.4914-6.1861,6.9003-2.3946,11.4689-6.2701,12.1411-11.1328h0l.9978-7.2679-.021.0105ZM656.1327,302.4679l4.2116,2.4261-27.0864,10.1246-4.2116-2.4261s27.0864-10.1246,27.0864-10.1246ZM627.891,313.6427l4.4846,2.5942-4.1381,29.4705-4.4952-2.5942,4.1381-29.4705h.0105ZM633.867,316.3839l27.307-10.1981-4.075,29.0084-27.3175,10.3241s4.0856-29.1345,4.0856-29.1345ZM625.1708,322.297l-2.8777,20.4592s-.042.0315-.063.0525c-.042.0315-.0735.0735-.105.1155-.021.021-.042.042-.063.0735,0,.0105,0,.021-.0105.0315-.021.0525-.042.105-.0525.1575-.0105.042-.021.084-.0315.126v.1365c0,.0525,0,.0945.021.147v.042c.021.0525.0525.105.084.147,0,.0105.0105.0315.021.042.0525.0735.126.126.1996.1785,0,0,0,.0105.021.0105l5.871,3.3924h.0315c.105.0525.2205.0945.3361.0945h0c.084,0,.1786-.021.2626-.0525l.2836-.105h0l29.145-11.0173s.042-.0315.063-.042c.0315-.021.063-.0315.0945-.0525.0735-.0525.1365-.1155.189-.189.0105-.021.0315-.021.042-.042,0-.0105,0-.021.0105-.0315.021-.042.0315-.0945.0525-.147.0105-.042.0315-.084.0315-.1365v-.1365c0-.0525,0-.105-.021-.1575v-.0315c-.0105-.0315-.042-.0525-.0525-.084-.021-.0315-.0315-.0735-.0525-.105l1.1343-8.0976c6.5326,2.6257,11.721,6.0601,14.6408,9.736,2.6467,3.3399,3.3609,6.7007,2.0586,9.7255-2.3106,5.3879-10.4712,9.2319-21.8246,10.2611-18.8523,1.7119-40.5089-4.8417-48.2599-14.6302-2.6467-3.3399-3.3609-6.7007-2.0585-9.7255,2.2476-5.2408,10.0196-9.0008,20.8794-10.1561v.0105ZM607.9779,354.1306c.8717.7037,1.817,1.3864,2.8462,2.0585.8507.5566,1.754,1.0923,2.6887,1.6069-1.6594,3.0038-3.0248,6.0496-4.096,9.0743-1.1868-4.5057-1.6699-8.8433-1.4389-12.7398ZM606.4445,383.7587c.168,5.7765,1.754,10.7232,4.8417,14.0526h0c.1365.147.1471.8402-.3151,1.6069h0c-2.7412,4.5267-4.9363,9.1899-6.5852,13.811-3.3294-11.9941-2.5521-22.9064,2.0585-29.4705ZM601.1301,426.8933c-.9873,8.5597.2626,16.2161,3.949,21.5725h0c.1365.1996.126.8507-.2626,1.5544h0c-2.5521,4.6002-4.6317,9.2214-6.2596,13.79-4.4006-15.1659-3.4239-28.8719,2.5627-36.9275l.0105.0105ZM606.1189,450.7659h0c.6091-1.0923.6827-2.2266.2521-2.9828-.021-.0525-.0315-.105-.063-.147-3.8335-5.5664-4.8733-13.8005-3.3714-22.9484.042-.0945.0525-.1996.042-.2941,1.3128-7.7615,4.4321-16.1741,9.2739-24.1877h0c.7667-1.2603.8087-2.6467.126-3.3819h0c-6.8477-7.3624-5.787-23.379,2.4471-38.2928,1.5334.7877,3.1508,1.5124,4.8522,2.1846-8.8118,15.6385-9.904,32.5688-2.5102,40.5194h0c.1365.147.1471.8402-.3151,1.6069h0c-10.9123,18.0646-13.3489,38.2403-5.9025,49.0476h0c.1365.1996.126.8507-.2626,1.5544h0c-9.4314,16.9724-12.8343,35.5831-8.8958,48.5749.9767,3.2243,2.3946,6.0285,4.1906,8.3601-13.5064-8.5702-13.5275-35.0475.126-59.6133h.0105ZM603.2412,501.5884c-3.8335-12.6242-.4726-30.7939,8.7698-47.4197h0c.6091-1.0923.6827-2.2266.2521-2.9828-.021-.0525-.0315-.105-.063-.147-7.1208-10.3452-4.6737-29.8591,5.955-47.4406h0c.7667-1.2603.8087-2.6467.126-3.3819h0c-6.9948-7.5199-5.7765-23.8306,2.8252-38.965,4.7997,1.775,10.1456,3.0983,15.754,3.865,3.6339.5041,7.1733.7352,10.5762.7352,2.1215,0,4.1696-.0945,6.1546-.2731,6.5957,14.0316,6.8583,27.9162.6197,34.6694h0c-.6827.7352-.6406,2.1215.1155,3.3819h0c10.6392,17.5815,13.0863,37.085,5.955,47.4302-.021.0315-.021.063-.042.0945-.0105.021-.021.042-.0315.0735-.4411.7352-.3991,1.8275.1575,2.9092h0v.0105c1.4599,2.6257,2.7937,5.3354,3.9805,8.0661,7.2678,16.7833,8.3602,33.6926,2.8357,44.1428-1.7644,3.3504-4.1696,5.934-7.0788,7.667l-.042.021c-1.7435,1.0293-3.6654,1.7539-5.7555,2.1636-.3466.063-.7877-.0525-1.2498-.3256h0l-16.0901-9.2949v-77.0582c0-.4096-.3361-.7457-.7457-.7457s-.7457.3361-.7457.7457v77.0582l-16.1111,9.3054h0c-.4621.2731-.9137.3886-1.2603.3256-1.7225-.3256-3.3504-.8927-4.8522-1.6594-4.6947-2.4051-8.1501-6.9003-9.9881-12.9813l-.021.0105ZM665.8162,449.4635c.0315.189.0735.3886.1365.5881l-4.5582,2.6257c-.063-.3151-.042-.5566.0105-.6722l4.4006-2.5416h.0105ZM666.2993,510.3896c.7982-1.0293,1.5334-2.132,2.1741-3.3504,5.808-10.9963,4.7682-27.9792-2.7937-45.4241-1.1028-2.5521-2.3526-5.0833-3.6969-7.5514l4.5897-2.6467c13.2964,24.4083,13.1494,50.5179-.2836,58.9726h.0104ZM673.8087,463.8522c-1.6279-4.5687-3.7075-9.2109-6.2701-13.8215h0c-.3991-.7667-.3361-1.3548-.2206-1.5019h0s.0105-.021.021-.0315h0c3.6759-5.3354,4.9468-12.9498,3.9805-21.457,5.9025,8.0871,6.8478,21.7406,2.4681,36.8224l.021-.0105ZM668.0112,413.1347c-1.6489-4.5792-3.8335-9.2004-6.5537-13.685-.4621-.7772-.4411-1.4494-.3046-1.5964h0c3.0668-3.3189,4.6842-8.2026,4.8627-13.9476,4.5056,6.5642,5.2513,17.3819,1.985,29.2395l.0105-.0105ZM660.0607,396.8346v.0105c-.6827.7352-.6302,2.1215.126,3.3714h0c4.8627,8.0451,7.9926,16.4787,9.3054,24.2612,0,.105,0,.2101.0525.3046,1.4599,9.0428.4411,17.1824-3.3188,22.7278l-3.2979,1.9115c5.6294-11.2169,2.8252-29.7961-7.3309-46.5794-.4621-.7772-.4411-1.4494-.3046-1.6069h0c6.5747-7.1103,6.4802-21.4255-.1575-35.8457,1.8695-.2206,3.6654-.5146,5.3669-.8927,5.5034,13.1389,5.3564,26.0782-.4201,32.3273l-.021.0105ZM662.991,366.8389c-.3256-.8927-.6722-1.7855-1.0398-2.6782.5987-.147,1.1868-.3151,1.7644-.4831-.1996,1.0398-.4411,2.1005-.7247,3.1613ZM664.5873,361.9341c-.1155.0105-.2206.042-.3151.105-1.0503.3361-2.1426.6407-3.2873.9137-.105,0-.2101.0105-.3151.0525-.0105,0-.021.021-.0315.021-2.048.4621-4.2536.8087-6.5747,1.0293-.0525,0-.0945,0-.1471.0105-5.1568.4831-10.8913.3781-16.8673-.4516-9.8725-1.3548-18.8943-4.4426-25.406-8.6752-6.3436-4.1276-9.5049-8.8223-8.8958-13.2124l.3046-2.2056c.5041,1.1973,1.1973,2.3946,2.1426,3.5814,7.1838,9.0533,25.7211,15.46,43.3551,15.46,2.09,0,4.1696-.0945,6.2071-.2731,10.1561-.9242,17.9071-4.1066,21.541-8.6857l-.3046,2.2056h0c-.6092,4.4216-4.8942,7.94-11.4059,10.1141v.0105Z"/>
      <path d="M525.7963,404.4099h0c-.0841-.3574-.3048-.6306-.6201-.7988-.0105,0-.021-.021-.0421-.0315l-5.9175-2.7118c-.8724-.3994-2.449,0-7.3155,3.2163l-.2102.1366h0c-1.2613.8303-2.3649,1.5661-3.4475,2.2808-.3574.2417-.7252.4835-1.0826.7252.1997-.3994.4099-.7778.6412-1.1562.2733-.4099.5571-.8409.8514-1.2718,2.964-4.383,7.0317-10.3741,8.1878-21.4734.6306-6.0016-.2838-13.1909-1.8078-14.242-.042-.0315-.0946-.042-.1366-.0736-.021,0-.0315-.021-.042-.0315l-5.9175-2.7118c-.3258-.1471-.6937-.1261-.9985.0631-.4204.2628-1.3979.8724-1.6186,8.8605-.2943,10.311-2.0496,14.221-3.6472,16.6384-.4099-1.3033-.7568-2.6382-.988-3.7838-.2312-1.1352-.8409-2.8484-1.8078-3.4896-.0631-.0526-.1261-.1051-.1997-.1471l-5.9175-2.7118h0c-.3889-.1787-.7988-.1577-1.1562.042-.7042.3994-1.1141,1.4505-1.3454,3.4055h0c-.6096,5.2659.5781,10.0377,3.5631,14.1894h0c1.8183,2.5226-1.2928,6.6428-3.7944,9.9536l-.3469.452h0l-.1156.1577c-1.7553,2.3229-4.8349,6.422-7.7989,8.871.3784-6.0857,3.4475-16.7961,5.1608-22.7872.7673-2.6907,1.44-5.0136,1.7763-6.4851h0c.9985-4.2884.7463-5.434.3258-6.0437-.1261-.1787-.2838-.3048-.4625-.3994-.021-.0105-.042-.0315-.0631-.042l-5.9175-2.7118h0c-.0946-.042-.1997-.0736-.3048-.0841-.0105,0-.021,0-.0315-.0105h-.1261c-2.7643-.0315-7.0211,11.6564-10.2584,22.1671-.3784-.3994-.7883-.7042-1.2087-.9039h-.0105l-5.9175-2.7118c-.8934-.4099-1.7973-.2943-2.4805.3048-1.5451,1.3454-1.6292,4.7298-.2417,9.2704h0c1.1667,3.8574,2.5856,7.0106,3.7208,9.5437,1.1352,2.5331,2.0391,4.5301,2.3229,6.2959.7357,4.5511-2.5751,11.7404-5.4971,18.0784-1.4084,3.0481-2.7328,5.9385-3.5947,8.4401-.8619,2.5121-2.1862,3.2793-2.7013,3.2583h-.021c-1.1036-.0946-2.3124.1682-3.4896.7568,0,0-.0105.0105-.021.0105h-.021c-1.0616.6201-2.0811,1.524-3.0061,2.5961-.3784-.3258-.7778-.6622-1.1772-.988-3.4896-2.922-7.0947-5.9385-6.8845-10.8996.0841-2.0181.7357-4.9085,1.5661-8.5662.8093-3.5842,1.8078-8.0302,2.5121-12.8756.7568-5.2343.473-8.1037-.8724-8.7344h-.042s-.0105-.021-.021-.021l-5.8755-2.6907c-.2838-.1261-.7463-.2207-1.3138.0736-1.461.7463-2.985,3.8469-3.7103,7.5467h0c-.3258,1.6607-.6937,3.1532-1.0826,4.404-2.5226-3.3844-4.6983-5.5286-6.4536-6.3379-.0105,0-.021-.021-.0315-.021l-5.9175-2.7118c-1.8183-.8303-2.7328,0-3.0481.4099h0c-.967,1.2508-.7988,3.0586.5571,6.0542h0c.4835,1.0406,1.3559,2.5331,2.3649,4.2568,3.5211,6.0016,9.4071,16.0498,6.6217,21.4208h0c-2.6802,5.1713-7.9566,5.1818-12.4131,4.4881-.1366-.7042-.0315-1.5976.3364-2.7012h0c2.3334-6.9686,2.964-12.6864,1.8499-16.9853-.1366-.515-.452-1.6922-1.1877-2.1021-.021-.0105-.042-.0315-.0631-.0526l-5.9175-2.7118h0c-.3469-.1577-.7252-.1366-1.0616.0736-1.3243.7778-1.8919,4.4776-1.9865,5.7073h0c-.3048,3.931-1.461,11.3831-3.0481,14.0948-.7252-1.6922-1.4084-4.2568-1.9655-8.2194h0c-.8934-6.2854-1.7553-6.8214-2.2493-7.0001l-5.8965-2.7012c-.3679-.1682-.7988-.1156-1.1247.1577-1.5556,1.2823-1.8394,9.9641-.5045,15.4717,1.8183,7.4836,5.1082,9.7539,7.4311,10.8155l5.2238,2.3964c.2943.3258.5571.6937.7883,1.1141,0,0,.0105.0105.021.021,0,.0105,0,.021.0105.0315.3994.6096.8934,1.5346.5781,2.5961h0c-.2312.8093-.7252,1.6607-4.2568,3.2898h0c-1.8919.8724-3.4055,1.5346-4.9505,2.2072-1.1772.515-2.3544,1.0301-3.7208,1.6397h0l-.2102.0946c-3.7628,1.6607-5.907,2.9745-6.7479,4.1727-7.883-4.9611-13.6744-9.2494-19.2766-13.3906-5.9911-4.4355-11.6564-8.6293-18.8141-12.7179h0c-11.3831-6.7058-22.5244-10.4161-33.1192-11.0152h0c-3.458-.2207-7.4626-.1787-10.9416,1.7343l-5.8439,3.2163h-.0105c-.7883.4309-1.5451.9565-2.2808,1.5976-6.2854,5.4866-7.5887,15.0723-6.4536,17.6475h0c.2417.5571.6096,1.1982,1.2823,1.2403h.0736c.1787,0,.3363-.0526.4835-.1261h.021l.7988-.4414c.1787,1.0511.3574,2.7958.5255,4.5091.3784,3.8049.8934,9.0077,2.0286,14.6729h0c.6832,3.416,1.8604,7.1157,3.4055,10.7419-6.6533,7.2524-12.287,15.2931-15.6714,22.7767h0l-33.6763,74.1845h0c-.1366.3048-.2523.5991-.3574.8829h0c-.6622,1.9235-.1787,2.9009.3363,3.3844l5.6127,5.2553s.0105,0,.021.0105c.021.021.042.042.0526.0526.3784.3153.8724.4835,1.44.4835.7778,0,1.7238-.2943,2.7643-.8724,2.7118-1.4925,5.6548-4.6247,6.9791-7.4416h0l26.529-54.6031h0c4.2043-8.6713,12.739-18.2571,21.3472-24.0169,2.964,2.0916,6.1382,3.6682,9.3861,4.6773l-5.8439,36.0202h0c-.2417,1.3454.1787,2.0706.5781,2.449h0l5.6127,5.2553h.021c.0841.0736.1577.1366.2312.1892.3574.2312.7883.3469,1.2718.3469,1.0195,0,2.2913-.494,3.7208-1.461,2.8169-1.9024,5.5181-5.1923,6.4115-7.82h0c.0946-.2943.1787-.5676.2207-.8303h0v-.0105h0l6.6428-31.4795c6.7584,2.1862,12.0558,6.8845,17.185,11.4356l1.009.8934h0c7.5782,6.7058,16.4913,14.4207,26.6026,21.5049-2.4805,6.2118-4.0571,12.7705-4.4355,19.1715l-5.5076,93.5872h0v.0316c-.021.3784-.0315.7463-.0105,1.1036.1156,2.2177,1.0616,3.889,2.5856,4.5932h0l5.9175,2.7117h.0315c.494.2207,1.0195.3364,1.5661.3364.8198,0,1.6817-.2418,2.5541-.7147,2.7958-1.5346,5.0346-5.2764,5.3184-8.892h0l6.3379-68.5718c.988-10.7419,6.9896-21.9463,14.9567-28.0215,3.458,1.0616,6.3169,1.5976,8.7239,1.5976,2.1232,0,3.8995-.4309,5.4445-1.2718.0105,0,.0315,0,.042-.0105l1.0195-.5676c.6096,1.2508,1.0931,2.6277,1.44,4.1412l13.0228,57.8824h0v.0105c.3364,1.6397,1.2087,2.8484,2.4385,3.416l5.9175,2.7117h.042c.0631.0315.1261.0631.1997.0946.4309.1577.8829.2418,1.3559.2418,1.1352,0,2.3754-.4625,3.5316-1.3559,2.7118-2.0811,4.5406-6.0647,4.3619-9.4806h0c-.021-.3679-.0631-.7252-.1261-1.0721h0l-14.5468-80.8693c1.6817-3.3634,3.5211-6.6848,5.5812-9.5542h0c4.3199-5.9596,10.9837-19.4658,13.8216-25.8563,2.8484,1.8709,6.0121,3.7733,8.9551,4.6247h0c3.5842,1.0511,7.3365,3.2373,10.8681,6.3274h.0105v.0105c1.7343,1.3979,3.5421,2.1337,5.1818,2.1337.2733,0,.536-.0315.7883-.0736h0c.042,0,.0841,0,.1261-.0105h.0631c.515-.1471.9355-.3364,1.3138-.536.021,0,.042,0,.0631-.021l5.8439-3.2163c1.4505-.7988,2.2388-2.0916,2.2913-3.7523h0v-.0946c.0736-2.9009-2.0496-6.2013-3.0796-7.7989h0c-11.9927-18.7301-18.7616-29.3143-24.8683-36.3355,8.8395-4.2463,16.8381-13.0753,17.3742-17.6685.1577-1.3454-.3784-2.0496-.8514-2.407-.1682-.1261-.3679-.2207-.5571-.3153-.042-.0315-.0736-.0631-.1156-.0841l-5.9175-2.7118h0c-2.9745-1.3664-7.7569,1.1352-11.2044,3.437,1.0195-2.6382,2.5541-5.4235,4.6142-8.3035h0c3.0481-4.2884,6.8109-7.6097,14.8937-13.1804h0c4.9716-3.4265,7.7043-4.7403,10.3425-6.0121,2.5541-1.2297,4.9716-2.3859,9.1128-5.2974h0c11.0362-7.7779,12.0663-10.5527,11.7299-12.1083l.1052-.0526ZM509.0632,407.7523c1.0826-.7252,2.1757-1.4505,3.437-2.2808h0l.2207-.1471c4.5932-3.0376,5.6758-3.1532,5.8755-3.1112l3.931,1.7973c-1.0826.494-2.5751,1.3664-4.7088,2.7748l-.2102.1366h0c-1.2508.8198-2.3439,1.5556-3.416,2.2703-1.6186,1.0826-3.1847,2.1337-5.1608,3.395h0c-2.964,1.9129-3.5842,1.8184-3.7313,1.6922h0c-.1471-.2523-.3048-.9985.3679-3.1427v-.021c.1261-.4625.2733-.9249.4309-1.3874,1.0406-.6832,1.997-1.3243,2.9745-1.976h-.0105ZM507.802,375.2532c.1471-5.2553.6096-6.9476.8409-7.4626l4.5722,2.0916c-.4204.967-.8409,3.0901-.9775,8.0407-.3469,12.2239-2.7118,15.4297-4.8034,18.2571-.2523.3469-.5045.6832-.7463,1.03-.2207.3048-.536.6622-.8198.6096-.7883-.1682-1.7658-1.997-2.5961-4.2253,2.2388-3.1217,4.2253-7.0737,4.5406-18.3412h-.0105ZM491.7416,410.8109l.1156-.1577h0l.3364-.452c2.7958-3.6998,6.2749-8.3035,3.8154-11.7194h0c-2.7538-3.8364-3.8574-8.2614-3.2899-13.1489h0c.1682-1.4715.4204-2.0181.536-2.1967l4.5722,2.0916c-.3784.7042-.5571,1.7132-.6727,2.6487-.6096,5.2659.5781,10.0377,3.5631,14.1894h0c1.8183,2.5226-1.2928,6.6428-3.7944,9.9431l-.3469.4625h0l-.1156.1577c-2.6066,3.4685-9.5437,12.6759-12.8441,10.5212h0c-.5466-.3574-.8198-1.2297-.8934-2.4805,3.416-2.428,7.0317-7.2419,9.0077-9.8695l.0105.0105ZM483.0282,381.7173l4.5406,2.0811c-1.8394,1.997-4.898,8.0407-9.7434,24.3638h0c-.2312.7778-.5045,1.0721-.6306,1.0721-.2733.042-1.3979-.7463-2.7853-4.2779-.1471-.3784-.3153-.7252-.4835-1.0511,5.8124-19.1295,8.6188-21.8517,9.1023-22.1881ZM461.3236,451.1615c.8409-2.4385,2.1547-5.2869,3.5421-8.3035,3.1532-6.853,6.422-13.9372,5.6127-18.9403-.3153-1.955-1.2508-4.0361-2.428-6.6638s-2.5121-5.5917-3.6577-9.365h0c-1.503-4.919-.8303-7.1683-.1997-7.7149.1471-.1366.4099-.2838.8829-.0631l3.9205,1.7973c-1.1667,1.1982-1.6502,4.0361-.1051,9.1338h0c1.1667,3.8574,2.5856,7.0106,3.7208,9.5437,1.1352,2.5331,2.0391,4.5301,2.3229,6.2959h0c.7357,4.5511-2.5751,11.7404-5.4971,18.0784-1.4084,3.0481-2.7328,5.9385-3.5947,8.4401-.5571,1.6186-1.2823,2.4385-1.7658,2.8274-.1682-.0946-.3153-.1682-.473-.2417h0c-.1787-.0736-.3574-.1471-.5255-.2207h-.0315c-.0526-.021-.1051-.021-.1577-.021-.042,0-.0841-.0105-.1261-.0105s-.0841.021-.1366.0315-.0946.021-.1471.042h-.0315l-.4625.2523-2.9535-1.3559c.8619-.6727,1.7027-1.8184,2.3018-3.5421h-.0105ZM457.0143,455.4183l3.3529,1.5346-.4835.2628-3.8154-1.7448c.3258-.0526.6412-.0736.946-.0526h0ZM454.1028,456.2066l4.1517,1.9024-1.6397.9039s-.0526.042-.0841.0631c-.0315.0315-.0736.0526-.1051.0841,0,0-.0105.021-.021.0315-.0315.0315-.0526.0736-.0736.1156v.0105c-.0105.0315-.042.0526-.0526.0841h0v.0315c-.0105.0526-.021.0946-.021.1471,0,.042-.021.0736-.021.1156h0l-4.0676-1.8604c.6201-.6622,1.2718-1.2087,1.9445-1.6397l-.0105.0105ZM455.4797,461.0205c-.2207.1051-.4309.1787-.6412.1577-.3679,0-.7147-.2312-1.0195-.6412h0c-.1051-.1471-.2417-.2838-.3679-.4309l2.0181.9249.0105-.0105ZM436.2977,420.4282h0c.8198-4.1727,2.47-6.4746,2.943-6.5482l4.446,2.0391c-1.2823,1.3349-2.3859,4.1517-2.9325,6.9371h0c-1.1457,5.8019-2.3334,7.7043-2.7643,8.0197-.021-.0315-.0526-.0736-.0946-.1366h0c-1.0721-1.7343-2.0916-3.3004-3.0691-4.6983.5255-1.4925,1.03-3.4055,1.4715-5.6127ZM419.0496,453.9258c3.458,0,7.7148-.9985,10.1113-5.6232h0c3.1637-6.0962-2.7433-16.1865-6.6533-22.8608-.988-1.6922-1.8499-3.1532-2.2913-4.1307-1.5766-3.4475-.946-4.2568-.7357-4.5196h0c.2523-.3258.8198-.1682,1.2508.0315l3.6052,1.6502s-.0736.0736-.1156.1156h0c-.967,1.2508-.7988,3.0586.5676,6.0437h0c.4835,1.0406,1.3559,2.5331,2.3649,4.2568,3.5211,6.0016,9.4071,16.0498,6.6217,21.4208h0c-3.1532,6.0857-10.0798,4.898-13.4957,4.3094h0l-.3784-.0631c-1.0511-.1682-2.1862-.3574-3.0481-.7778.6832.0736,1.419.1261,2.2178.1261l-.021.021ZM408.8753,433.4404h0c.1471-1.955.7673-3.9205,1.1667-4.4355l4.5616,2.0916c-1.009,1.6397-1.2928,4.8875-1.2928,4.94h0c-.3469,4.5196-1.7973,13.5483-3.7208,14.9357-.1997.1471-.3153.1156-.3679.1051h0c-.2733-.0736-.5571-.1261-.8514-.1787-1.0616-.1997-2.1862-.4204-3.2478-1.997,2.7538-3.3844,3.7418-15.3141,3.7523-15.4507v-.0105ZM400.6454,454.588c-2.2073-1.009-4.9611-3.0376-6.6007-9.817-1.3033-5.3605-.7883-12.3396-.1051-13.769l4.5932,2.1021c-1.1036,2.5226-1.1877,9.9011-.021,14.7255.7883,3.2373,1.8499,5.5181,3.0376,7.1683l-.9144-.4204.0105.0105ZM387.8013,474.7054c.0315-.2943.5571-1.4715,6.2959-4.0046l.2207-.0946h0c1.3664-.6096,2.5436-1.1246,3.7103-1.6397,1.5556-.6727,3.0796-1.3454,4.9821-2.2178h0c3.7313-1.7132,4.6562-2.8064,5.0662-4.2253h0c.2102-.7042.1892-1.3664.0736-1.934l3.952,1.8078c.3679.5991.7463,1.4505.4625,2.4175h0c-.2312.8093-.7252,1.6607-4.2568,3.2898h0c-1.8919.8724-3.416,1.5346-4.9611,2.2072-1.1667.515-2.3544,1.0301-3.7208,1.6397h0l-.2102.0946c-4.6668,2.0601-6.832,3.5842-7.1473,5.0241l-4.2779-1.955c-.1366-.0631-.2207-.1261-.1997-.4099h.0105ZM305.3239,439.4315c2.5015-1.3769,5.5286-1.8394,10.1323-1.5556h0c10.2059.5886,21.4313,4.3304,32.457,10.826h0c7.0842,4.0466,12.7074,8.2089,18.667,12.6233,5.4445,4.0256,11.6143,8.5872,19.7496,13.6954.0736.6517.4309,1.1772,1.0406,1.4505l5.5707,2.5541c14.2105,8.2929,25.1311,12.3816,33.1613,12.3816.5991,0,1.1772-.0315,1.7553-.0736-7.8094,4.3199-20.8112.8829-40.3506-10.5738h0c-11.4041-6.6848-19.0979-12.3816-25.8773-17.4057-5.9911-4.4355-11.6564-8.6293-18.8141-12.7179h0c-11.3831-6.7058-22.5244-10.4161-33.1192-11.0152h0c-1.5556-.0946-3.1322-.1366-4.6878,0l.3153-.1682v-.021ZM427.2585,486.9399l-3.1847-1.461c-.6201-.2838-1.03-.6622-1.1877-1.1352-.1787-.5045-.0946-1.1247.2523-1.8394,2.964-6.1277,11.9927-10.0377,19.119-11.0783h0c.3994-.0631.7252-.3048.9144-.6832.2628-.536.1997-1.3769-.021-2.3229,0-.0105,0-.0315-.0105-.042-.452-1.8709-1.5451-4.0992-2.0706-5.0346h0c-.042-.0841-.1051-.1577-.1471-.2312,2.2388.7042,3.8364,1.934,4.7718,3.6682h0c1.3243,2.3544,2.2178,5.1292,2.0916,5.907-7.4731,1.1352-16.8907,5.3079-20.0649,11.8666-.4099.8409-.5466,1.6502-.452,2.3754l-.0105.0105ZM441.6266,468.4831c-.2312.3889-.4414.7673-.6306,1.0931l-.0946.1682h0c-.0841.1471-.1682.2943-.2417.4414-7.2524,1.3769-15.8501,5.4551-18.8562,11.6669-.5255,1.0931-.6306,2.1021-.3153,2.9956.3048.8409.988,1.5346,1.976,1.9865l5.9175,2.7118s.0315,0,.0526.0105c.042.021.0841.0315.1261.042-7.4205,1.4084-18.2886-1.9655-33.0982-10.3005,1.8289-.3048,4.5616-1.1141,8.7554-2.7958h0c4.2148-1.6922,6.6112-3.1847,9.1548-4.7613,2.6277-1.6292,5.3394-3.3214,10.3741-5.413h0c7.0422-2.922,10.9626-3.9836,13.9897-3.6893.3994.4309.7568.8934,1.03,1.4189h0c.8514,1.503,1.5135,3.1847,1.8604,4.404v.021ZM254.9776,593.4027h0c-.1366.3048-.2523.5991-.3574.8829h0c-.1051.2943-.1682.5676-.2207.8198l-4.0466-3.7839c-.1997-.1787-.2943-.7673.0631-1.8078h0c.0841-.2417.1892-.494.3048-.7463h0l33.6132-74.1845h0c6.1908-13.6744,20.0124-29.2828,33.7498-38.1749l4.4986,4.2043c-13.8531,9.0602-27.7377,24.7947-33.9916,38.5953h0l-33.6132,74.195ZM313.0598,509.8953v.0315c-.0105.0526-.021.1051-.021.1577,0,.042-.0105.0841,0,.1156-8.7239,5.9175-17.3532,15.6399-21.6205,24.4374h0l-26.529,54.6136h0c-1.1877,2.5226-3.9205,5.434-6.359,6.7794-1.3349.7357-2.2388.8093-2.5331.5571-.2102-.1787-.3153-.7568.042-1.8183h0c.0841-.2417.1892-.494.3048-.7568h0l33.6132-74.1845h0c5.9911-13.233,19.119-28.2633,32.415-37.2814l-4.3514,12.7285h0l-4.94,14.6099-.021.0105ZM323.4759,555.8585l-4.3094-4.0256,5.7599-35.4631c.9144.2312,1.8184.4414,2.7328.5781h0c.7357.1156,1.4189.1787,2.0916.2312l-6.2854,38.6794h.0105ZM334.2703,549.8044h0c-.042.2102-.0946.4204-.1787.6517h0c-.7883,2.3124-3.3004,5.3499-5.8439,7.0632-1.7027,1.1457-2.9325,1.3769-3.3529,1.1036-.3153-.2102-.2312-.8724-.1787-1.1562h0l6.5271-40.2139c.6517.021,1.2928.0315,1.9235.042,2.3859.0315,4.6668.0526,7.7674.8934l-6.6743,31.6162h.0105ZM384.2277,571.7087c1.0195-17.2165,10.805-35.5892,23.8488-44.8491l4.383,2.0075c-13.0438,9.6593-22.7662,28.1266-23.7857,45.4693l-5.4445,92.5047-4.467-2.0496,5.4761-93.0827h-.0105ZM380.4333,669.5843h0c-.9775-.4415-1.5871-1.5976-1.7027-3.1637l4.425,2.0286c0,.1997-.021.4099,0,.6096.0315.7042.1682,1.3454.3679,1.934l-3.0796-1.4084h-.0105ZM415.2132,566.9053c-8.0932,6.38-14.1369,17.8051-15.1459,28.7678l-6.3379,68.5718h0c-.2417,3.1007-2.1967,6.422-4.5511,7.7148-1.1036.6096-2.1652.6937-2.964.2522-.9144-.5045-1.482-1.6922-1.5661-3.2373-.021-.3048-.0105-.6306.0105-.9565h0l5.5076-93.5978c.9985-16.8802,10.4266-34.843,23.0815-44.2816l.9355,17.5949h0l1.0406,19.14v.0315h-.0105ZM434.637,571.3618c-.3679-1.6502-.9144-3.1637-1.5871-4.5406l1.4295-.7883c2.2178,1.9024,3.8154,4.7718,4.6247,8.3665l12.6969,56.4319-4.2148-1.934-12.9492-57.5356h0ZM449.2679,631.6512c-.3469-.1577-.6306-.4204-.8829-.7463l3.8469,1.7553c.0315.1366.0736.2628.1156.3889l-3.0691-1.4084-.0105.0105ZM462.4693,624.4093h0c.0526.2733.0841.5676.1051.8724h0c.1577,2.922-1.4715,6.4536-3.7839,8.2299-1.2192.9355-2.4805,1.2613-3.458.9039-.8724-.3258-1.4925-1.1877-1.7448-2.4385h0l-13.0228-57.9034c-.8303-3.6892-2.4385-6.7058-4.6878-8.808l.6832-.3784c.7357-.4099,1.4505-.9249,2.1021-1.5451h0c2.3544-2.2283,4.6352-7.1368,7.2629-12.8336.7463-1.6186,1.5346-3.3004,2.3439-4.9926l14.1894,78.8933h.0105ZM453.7454,532.8401h0c-3.6262,5.0662-6.5692,11.4251-9.1758,17.0484-2.5646,5.5496-4.7824,10.3425-6.9371,12.3711-.5781.5466-1.1667.9775-1.7973,1.3243l-1.1141.6201c1.7132-2.5856,3.4475-6.3169,5.371-10.4687,2.5751-5.5602,5.4866-11.8561,9.0287-16.7961h0c4.9926-6.8845,13.1279-23.8698,14.8726-28.3158l3.3109-1.8183c.0841.0631.1577.1261.2417.1997-2.7538,6.2328-9.4701,19.8967-13.79,25.8458l-.0105-.0105ZM497.0075,516.496c-.0315,1.1141-.515,1.934-1.4715,2.4805h-.0105c-.3048.1787-.6622.3258-1.0721.4414-1.419.2417-3.1952-.3889-4.877-1.7448-3.6892-3.2268-7.6308-5.5181-11.4146-6.6217h0c-3.0901-.9039-6.5587-3.1112-9.5647-5.1082-.6517-.6096-1.3454-1.0195-2.0181-1.1982h0c-.4414-.1156-.8724-.1366-1.2823-.042-.7988.1787-1.419.7357-1.7448,1.5766l-.021.0526c-.3153.452-.5886.946-.8093,1.4925h0c-1.503,3.9625-9.7644,21.3052-14.7886,28.2317h0c-3.6262,5.0662-6.5692,11.4251-9.1758,17.0378-2.5646,5.5496-4.7824,10.3425-6.9371,12.3711h0c-3.1112,2.943-7.5257,3.1742-15.1354.8093l-1.0195-18.6144h0l-1.009-18.9928s-.0105-.0315-.0105-.0526c0-.042-.0105-.0736-.021-.1156,0-.0315-.021-.0631-.0315-.0946,0-.021-.021-.042-.0315-.0631s-.0105-.042-.0315-.0631c0-.0105-.021-.021-.0315-.0315-.021-.0315-.0526-.0526-.0736-.0841h0s-.021-.0105-.021-.021c-.042-.0315-.0736-.0631-.1156-.0841-.0105,0-.021-.021-.042-.0315l-5.9175-2.7118s-.0526-.0105-.0841-.021c-.0526-.021-.0946-.0315-.1471-.0315h-.1366c-.0526,0-.0946,0-.1366.021-.0526.0105-.0946.0315-.1366.0631-.0315.0105-.0526.021-.0841.0315-8.3034,5.7809-15.3456,15.1564-19.8021,25.6461-9.9326-6.9896-18.7195-14.5889-26.2032-21.2106h0l-1.009-.8934c-5.0241-4.4565-10.7209-9.5122-17.8367-11.772h0c-.2417-.0736-.4625-.1366-.6937-.1997-.021,0-.0315-.021-.0526-.021h-.0315c-3.6052-1.0511-6.2223-1.0931-8.7554-1.1247-1.6397-.021-3.3319-.042-5.2974-.3469h0c-4.5616-.7042-9.1233-2.6487-13.2435-5.6232l4.7613-14.0843h0l5.0556-14.7885h0v-.021s0-.0315.0105-.042c.0105-.042.0105-.0841.021-.1366,0-.0315.0105-.0736.0105-.1051v-.0526c0-.042-.021-.0841-.0315-.1156s-.0105-.0736-.0315-.1051c0-.021-.021-.0315-.0315-.0526,0-.0105,0-.021-.0105-.042-.021-.0315-.042-.042-.0631-.0631s-.0315-.0526-.0526-.0736l-5.6127-5.2553s-.0315-.021-.0526-.0315c-.042-.0315-.0736-.0526-.1261-.0736-.042-.021-.0841-.042-.1366-.0631-.042-.0105-.0841-.021-.1261-.021h-.1471c-.042,0-.0841.021-.1261.0315-.0526.0105-.1051.0315-.1471.0526-.0105,0-.0315,0-.0526.021-6.1908,3.931-12.4131,9.2389-17.9943,15.1459-1.3664-3.3109-2.449-6.7479-3.0691-9.8275h0c-1.1141-5.5917-1.6292-10.7524-2.0075-14.5258-.4309-4.3619-.5991-5.7704-1.1877-6.3274h0c-.3574-.3363-.7252-.3469-.9144-.3153-.5886.0841-.9144.6201-1.1772,1.0511h0s0-.021-.0105-.0315h0c-.8724-1.976.3363-10.9311,6.0752-15.9237,3.5106-3.0691,7.9146-3.2373,12.1609-2.9745h0c10.2059.5886,21.4313,4.3304,32.457,10.8155h0c7.0842,4.0466,12.7074,8.2089,18.667,12.6233,6.8214,5.0451,14.5468,10.763,26.014,17.5003h0c14.3366,8.4086,25.3203,12.5708,33.4556,12.5708,4.5511,0,8.2089-1.3243,11.0573-3.9205.0631-.042.1261-.1051.1682-.1682.1366-.1261.2733-.2523.4099-.3889.3679.0315.7357.0631,1.1352.0631,4.1412,0,10.0903-1.8919,16.2706-6.6112.2102.1366.4204.2628.6412.3574l5.9175,2.7118h0c.5676.2628,1.2192.4204,1.976.4204h.2102c.2207-.0105.4414-.0736.6622-.1682h.0105c.0631-.0315.1051-.0631.1577-.1051.0315-.021.0631-.042.0841-.0631.0315-.042.0526-.0841.0841-.1366.021-.042.0526-.0736.0631-.1051.0105-.042.0105-.0841.021-.1261.0105-.0526.021-.1051.021-.1682v-.0105l-.7042-13.254c-.021-.4099-.3679-.7357-.7883-.7042-.4099.021-.7252.3679-.7042.7883l.6622,12.5498c-1.9865-.1156-2.9535-1.7973-3.8049-3.3109-.6096-1.0826-1.0931-1.9235-1.9445-2.0706-.452-.0841-.8934.0736-1.3138.4414h0c-9.5017,8.3034-18.6775,9.1023-21.137,7.2208-.7988-.6096-.9144-1.4715-.3574-2.6277,2.964-6.1277,11.9927-10.0377,19.119-11.0783h0c.3994-.0631.7252-.3048.9144-.6832.7778-1.5976-1.3138-5.9911-2.1021-7.3995h0c-1.2718-2.3439-3.6052-3.9625-6.7689-4.6773h0c-3.5421-.8093-7.7464.1366-16.0498,3.5842h0c-5.1502,2.1337-7.9146,3.8574-10.5948,5.5181-2.4805,1.5451-4.8244,3.0061-8.9236,4.6457h0c-8.0617,3.2268-10.1849,2.964-10.7209,2.7012h-.021s-.0526-.042-.0736-.0526c-.042-.0315-.1261-.0946-.0946-.3469.0315-.2943.5571-1.4715,6.2959-4.0046l.2207-.0946h0c1.3559-.6096,2.5436-1.1246,3.6998-1.6397,1.5556-.6727,3.0901-1.3454,4.9926-2.2283h0c3.7313-1.7132,4.6562-2.8064,5.0662-4.2253h0c.536-1.8394-.4414-3.3319-.7673-3.8259h0c-.7147-1.2928-1.7343-2.2703-2.943-2.8274h-.042c-.0105,0-.021-.021-.042-.021-.3258-.1051-.6622-.2102-1.009-.3048-3.1847-.946-7.1473-2.1232-9.2389-10.7419-1.2192-5.0346-.8409-11.4987-.2312-13.4642.2628.6517.6937,2.1232,1.1562,5.3815h0c1.5661,11.0152,4.0782,12.3501,7.1893,12.9492.2523.0526.5045.0946.7463.1577h0c.1577.042.3048.0631.4625.0631.3994,0,.7883-.1366,1.1562-.3889,3.2058-2.3018,4.3304-15.8922,4.3409-16.0288.1366-1.7973.6727-3.6157,1.0721-4.2884.0841.1787.1892.4625.3153.9249,1.0406,4.0151.4309,9.4491-1.8183,16.1444h0c-.536,1.6186-.6201,2.9325-.2523,3.9941,0,.0105,0,.0315.0105.042.0841.2312.1787.4414.2943.6517,1.0616,1.7553,3.3739,2.1232,5.2238,2.428l.3784.0631h.0841c1.1877.1997,2.9325.5045,4.8559.5045,3.5736,0,7.7569-1.0301,10.1218-5.6127h0c3.1637-6.0962-2.7433-16.1865-6.6533-22.8608-.988-1.6922-1.8499-3.1532-2.2913-4.1307-1.5766-3.4475-.946-4.2568-.7357-4.5196h0c.0736-.1051.1892-.1997.4835-.1892.5676.0315,3.7208.7673,10.7314,12.1924h0c.4414.7252.967.8829,1.3349.8829.0841,0,.1682,0,.2312-.021,1.8814-.3363,3.2268-5.2028,4.0256-9.2389h0c.8198-4.1622,2.47-6.4746,2.9325-6.5587h0s.946.9565.042,7.1788c-.6937,4.7929-1.6502,9.0287-2.491,12.7705-.8409,3.7313-1.503,6.6743-1.5976,8.829-.2523,5.6968,3.8259,9.1023,7.41,12.1083,1.5976,1.3349,3.1007,2.5961,4.1097,3.952h0c.7357.9985,1.5871,1.2297,2.1652,1.2403h.0631c.8934,0,1.8289-.494,2.5331-1.3244l.021-.021.0105-.0105h0l.1682-.2102c.0526-.0631.0841-.1366.1156-.2102,1.2297.8409,3.5421,3.2583,11.0888,11.7089h0c6.1908,6.9266,12.9912,17.5529,25.3413,36.8505h0c.8829,1.3769,2.9535,4.5932,2.8484,7.0527h.042ZM450.5292,482.5885c.3364-.2733.6622-.5466.9985-.8409h0c.0526-.042.0841-.0736.0946-.0841.2207.1471.6201.8514.8829,1.3243.1261.2207.2523.452.3994.6937l-2.3754-1.0931h0ZM501.3274,515.7812l-2.943,1.6186c.0315-.1471.0526-.2838.0736-.4204l3.9415-2.1757c-.2523.3889-.5991.7147-1.0721.9775h0ZM499.9925,506.2165h0c.8409,1.3033,2.7223,4.2568,2.8274,6.6533l-4.404,2.428c-.3889-2.5856-2.1021-5.2764-3.0061-6.6743h0c-12.3921-19.3607-19.2136-30.0185-25.4779-37.0397-7.6938-8.6083-10.0062-11.0257-11.3621-11.9507l4.2884-2.3649s.0946.042.1471.0631h0c1.1352.494,2.7958,2.1337,11.5933,11.9717h0c.021.021.0315.0315.042.0526h0c6.1908,6.9266,12.9912,17.5634,25.3413,36.8505l.0105.0105ZM485.6875,447.2305h0l2.7013,1.2403c-4.3725,1.0301-10.2795,5.2028-15.4612,10.1113.1156-1.44.6306-4.1727,1.3769-6.895,5.0977-3.7208,9.3335-5.3815,11.3726-4.446l.0105-.0105ZM513.2045,415.3095h0c-4.0466,2.8379-6.401,3.973-8.9026,5.1713-2.6907,1.2928-5.4761,2.6277-10.5422,6.1277h0c-8.1458,5.6127-12.1399,9.1548-15.2615,13.5483h0c-2.7538,3.8574-4.6352,7.5677-5.5917,11.0362h0c-.8829,3.1953-2.1862,8.6608-.9249,9.4071.0736.042.2417.1261.4625.1261s.494-.0841.7883-.3679h0c8.0302-7.82,16.1024-12.1924,18.7826-10.1849.2312.1787.3258.5255.2628,1.0406-.4309,3.7523-7.841,12.4867-16.9117,16.6805-5.9596-6.6638-8.5767-9.4806-10.0587-10.784.6412-.5991,1.3874-1.5871,1.9655-3.2478.8409-2.4385,2.1547-5.2869,3.5421-8.3035,3.1532-6.853,6.422-13.9372,5.6127-18.9403h0c-.3153-1.955-1.2508-4.0361-2.428-6.6638s-2.5121-5.5917-3.6577-9.365h0c-1.5766-5.1713-.8198-7.5677.0315-7.862.5781-.1997,1.7868.5255,2.6697,2.7643,1.3664,3.4685,2.7643,5.2238,4.1622,5.2238h.0736c.6201-.0315,1.4715-.4204,1.9865-2.1337h0c5.9175-19.9073,8.9026-23.4809,9.6068-24.08.0841.3994.1051,1.5346-.6201,4.6667h0c-.3258,1.4295-.988,3.7418-1.7553,6.4115-2.8379,9.9116-5.3184,19.1925-5.1923,24.532-.021.1156-.021.2417.0105.3574.0946,1.934.5571,3.3109,1.5135,3.931h0c.5886.3784,1.2192.5571,1.8709.5571,4.3725,0,10.0482-7.5467,12.9702-11.4356l.1156-.1577h0l.3469-.452c2.7958-3.6998,6.2644-8.3035,3.8154-11.7194h0c-2.7538-3.8364-3.8574-8.2614-3.2899-13.1489.1682-1.3979.3994-1.955.5255-2.1757.2943.2943.7988,1.2192,1.0511,2.4805.021.1051,2.0811,10.2479,5.3394,10.9311.1156.021.2417.042.3784.042.5676,0,1.2718-.2628,1.9655-1.2508.2312-.3363.473-.6622.7252-.9985,2.2178-3.0061,4.7403-6.4115,5.0977-19.0979.1261-4.5091.4835-6.3905.7357-7.1683.6622,1.6186,1.4925,6.7374.9039,12.3816-1.1247,10.7209-4.9085,16.3021-7.9461,20.7902-.3048.4414-.5991.8829-.8724,1.3033v.021c0,.0105,0,0-.0105.0105-.7147,1.1877-1.3138,2.47-1.7868,3.7838h0c-.1892.536-.3679,1.0721-.515,1.6081h0c-.6727,2.1337-.7357,3.479-.2312,4.3409h0c.2417.4099.5781.6727.9985.7673.1261.0315.2733.0526.4204.0526.7673,0,1.955-.452,4.404-2.0181h0c1.9865-1.2718,3.5631-2.3229,5.1923-3.4055,1.0721-.7147,2.1652-1.44,3.4055-2.2598h0l.2207-.1471c3.8154-2.5226,5.2133-3.0166,5.7073-3.0901-.0841.8724-1.4294,3.5106-11.1413,10.353l-.021.0105ZM464.6976,474.3165c-.0946-.021-.1997-.0315-.2943-.0105-.4309,0-.8724,0-1.3349.0631l-.2838.0315h-.021c-.042,0-.0841.0315-.1261.042-.0526.021-.0946.0315-.1471.0526-.042.021-.0736.0631-.1051.0946s-.0736.0631-.1051.0946c-.0315.042-.042.0841-.0631.1261s-.0526.0841-.0631.1261,0,.0946,0,.1471c0,.042-.0105.0946,0,.1366v.021l.0631.3994c.3258,1.997.946,3.6787,1.8499,5.0241,1.1457,1.6922,2.6592,2.6382,4.1622,2.6382.3889,0,.7883-.0631,1.1667-.1997.0105,0,.021-.021.042-.021h.042c.0315-.021.0526-.042.0841-.0631.042-.0315.0841-.0526.1156-.0841s.0631-.0736.0841-.1156c.0315-.042.0526-.0736.0736-.1156s.0315-.0946.042-.1366c0-.042.021-.0946.021-.1366,0-.0526,0-.0946-.021-.1471,0-.0315,0-.0736-.0105-.1051,0-.0105-.0105-.021-.021-.0315v-.042l-.2628-.5466s-.042-.0526-.0631-.0841c-.0315-.042-.0526-.0841-.0946-.1261-.0315-.0315-.0736-.0526-.1051-.0841-.042-.0315-.0841-.0526-.1261-.0736s-.0841-.0315-.1366-.0315c-.042,0-.0946-.021-.1366-.021-.0526,0-.0946,0-.1471.021-.0315,0-.0736,0-.1051.0105-.5676.1997-1.1562.1156-1.7448-.2312-1.1877-.7042-2.1442-2.3964-2.6382-4.5932,3.5631-.0946,5.6442,2.449,6.7163,8.1668,0,.0526.0315.1051.0526.1471,0,.021,0,.0526.021.0736h0v.021l.0105.021c.042.0736.1051.1366.1682.1892.021.0105.042.021.0526.0315.021.0105.042.021.0631.0315.042.021.0841.042.1261.0526.0105,0,.021.0105.0315.0105l.4204.1051c.0526.0105.1156.021.1682.021h0c.042,0,.0946,0,.1366-.0105.0105,0,.0315-.0105.042-.021.0631-.0105.1156-.042.1787-.0736.021-.0105.0526-.021.0736-.042.0631-.042.1156-.0946.1577-.1577,0-.0105.021-.021.0315-.0315.0526-.0736.0841-.1471.1051-.2417h0c.0105-.042,0-.0946,0-.1366,0-.0526.0105-.1051,0-.1577h0c-.4204-2.2493-1.1247-5.1187-2.8589-7.2734-1.3664-1.7027-3.1742-2.6172-5.3079-2.7328l.021-.021Z"/>
    </g>
  </g>
  <g id="Layer_3" data-name="Layer 3">
    <path d="M379.16,639.13c-22.54.68-43.46,1.31-47.51,1.38-8.92.17-27.58,4.71-32.12,8s-2.28,13,8.11,14.61,67.17,6.4,70,6.71c.6188.0676,1.2268.2121,1.81.43.1044.0697.2148.1299.33.18l.63.29c3.22,2,2.37,6.22-6.91,5.92-17.39-.58-94.53-6.32-107.66-7.31-1.2688-.092-2.5443-.0079-3.79.25l-25.71,5.35c-1.05.2132-1.7284,1.2372-1.5152,2.2872.1077.5306.4323.992.8952,1.2728,5.47,3.36,14.68,9,17.26,10.66,3.73,2.35,3.49,6.9-10.39,3.73s-38.37-9.73-48.6-14.19c-5.34-2.09-11.56,2.39-15.21,1.9s-4.26-1.22-11.32,3-11.33,5.4001-19.12,5.4001-2.56-5.36,1.09-8,2.56-1.83-7.3-1.71-31.52,12.29-36.51,14.72-23.73,10.3901-29.69,12.34-.37-3.16,6.08-5.84.37-3.89-8.52-1.46-34.19,3.89-43.2,2.56,19.6-4.39,24.71-4.75,14-.49,9.25-2.68-4.14-6,3.52-2.8c9.23,3.29,32.13-3.3799,37.73-5.3799s11-2.92,8.52-4.38-44.78,3.16-53.91,3.28,1.34-3.65,10.22-4.26,27.67-1.43,21.18-3.74-3.05-5.48,1.94-3.65c27.51,6.94,46,1.46,55.62,0,7.7231-1.1012,15.1369-3.7801,21.78-7.87-2.92-12.13-29.45-5.88-42.35-4.42s-18.74-1.71-14.12-3.41,17.77-2.92,14.36-5.6-15.33-13.63,1.71-5.11,28.72,5.84,32.61,5.11,10-4.62,10.47-8.27-28.6,2.26-24.95-1.88,28.11-4.94,27.63-7.66-17.28.53-18-2.39,11-3.89,11-3.89c-19.95-7.12-56.63-28.89-62.15-36.09s6.17-10.16,16.07-13.08c17.8705.5928,35.6661,2.5991,53.22,6,7.46-3.74,20.28-7.31,40.08-11.2,8.62-1.7,25.54-4.6,43-7.59l-3.53,7.81h0l-17.55,3.67-39.46,13.42c-.9168.306-1.412,1.2972-1.106,2.214.1742.5221.5839.9318,1.106,1.106l10.65,3.57c2.1808.729,4.5132.8806,6.77.44l32.77-6.37,5.59,5.23h0l-23.91,7c-1.62.47-3.25.92-4.9,1.28-1.1041.2495-2.1873.5838-3.24,1-2.0271.8781-2.9586,3.2332-2.0806,5.2603.4292.991,1.241,1.7663,2.2506,2.1497,13.18,4.59,32.42,12.63,45.34,18.27,4.4724,1.9469,9.4451,2.4333,14.21,1.39,11.63-2.55,28.87-3.44,41-3.38,6.45,0,30.91-.08,56.36-.22l-.5399,9.39ZM196.65,653.33c7.63-5.84,1.14-5.35-8.27-5.84s-12.5,10.87-8.77,15.58l7.47-1.46c.65-1.95,1.92-2.44,9.57-8.28h0Z"/>
    <path d="M441,637.35c-4.09,0-23.26.61-44.48,1.25l.82-8.88,49.42-.29c.1595,1.2354.9039,2.3184,2,2.91l3.91,1.79h0c-1.79,1.2701-2.16,3.1-11.67,3.22Z"/>
    <path d="M317,561.38c-3.92.57-23.85,4.63-42.67,8.52l3.47-7.14c15.91-2.74,29.88-5.2,35.39-6.46,3.57-.81,6-.75,7.52-.25l1.72,1.61c.23,1.42-1.72,3.1801-5.43,3.72Z"/>
    <path d="M636.58,507.39l16.53,9.54c-8.74,10-30.19,19.57-68.81,8.76-16.55,5-49.83,5.6-66.22-2-17.45,4.72-35.55,4.72-56.78-1.33l-.57-.3c3.14-5.92,6.14-12.23,7.64-15.69,3.15,2.1,6.46,4.15,9.52,5,4.1536,1.3425,7.9699,3.5627,11.19,6.51,1.89,1.52,3.87,2.2,5.53,1.9.428-.1185.8407-.2863,1.23-.5l.1-.06,5.76-3.16c1.1791-.6064,1.9174-1.8241,1.91-3.15.11-2.65-1.9-5.83-3-7.51-4.22-6.59-7.74-12.09-10.8-16.76l.35-.23c8.44-.06,12.47,0,22.85,3.11,29.24-7.83,46.77-8.28,66.24-2.52,6.08-3.13,11.43-3.13,16-3.13-.24,11.84,3.51,21.44,11.21,25.89l5.91,3.41.78.42c1.6015.8197,3.3123,1.4056,5.08,1.74.6103.0933,1.2342-.023,1.7698-.33l16.54-9.55.04-.06Z"/>
  </g>
</svg>