<?xml version="1.0" encoding="UTF-8"?>
<svg xmlns="http://www.w3.org/2000/svg" viewBox="0 0 1000 1000">
  <g id="Layer_2" data-name="Layer 2">
    <path d="M871.452,563.0148c-4.0262-8.74-10.4142-16.9816-18.9748-24.5058-8.5207-7.4942-19.0047-14.1015-31.1629-19.6425-12.1183-5.521-25.612-9.8561-40.1121-12.8957-14.4902-3.0296-29.6381-4.6839-45.0252-4.9131-15.3971-.2292-30.6745.9567-45.4139,3.5378-14.7593,2.5911-28.6415,6.5076-41.2382,11.6599-12.6266,5.1623-23.6886,11.4307-32.867,18.6359-9.1585,7.1953-16.2342,15.1579-21.0476,23.6686-4.7935,8.4808-7.2252,17.3304-7.2252,26.2697v43.062c0,45.962,64.5979,83.3535,144.0049,83.3535s144.005-37.3915,144.005-83.3535v-43.062c0-7.3647-1.6643-14.7094-4.943-21.815ZM732.39,502.2238c78.261,0,141.9321,36.664,141.9321,81.739s-63.6711,81.729-141.9321,81.729-141.9321-36.664-141.9321-81.739,63.6711-81.729,141.9321-81.729ZM875.3984,627.8918c0,45.4139-64.1495,82.3569-143.0084,82.3569s-143.0084-36.943-143.0084-82.3569v-33.2756c8.3912,41.3678,69.3217,73.5671,143.0084,73.5671s134.6172-32.1993,143.0084-73.5671c0,0,0,33.2756,0,33.2756ZM732.39,667.1867c-78.8589,0-143.0084-36.943-143.0084-82.3569,0-1.3952.0797-2.7904.1993-4.1856-.0797,1.0962-.1196,2.2024-.1196,3.3086,0,45.6132,64.1196,82.7256,142.9287,82.7256s142.9286-37.1124,142.9286-82.7256c0-1.156-.0498-2.2921-.1296-3.4382.1296,1.4351.2093,2.8801.2093,4.3152,0,45.4139-64.1495,82.3569-143.0084,82.3569h0ZM613.7678,601.642h0c1.8536,4.3251,4.4547,8.5606,7.7334,12.5967,3.0595,3.7471,6.7269,7.3547,10.9125,10.7231h0c3.9664,3.2987,8.4808,6.4179,13.394,9.2582,4.9231,2.8402,10.3046,5.4413,16.0149,7.7234h.01c6.0093,2.4914,12.4771,4.6739,19.204,6.4678s13.7826,3.2289,20.9679,4.2454h.0199c8.3413,1.2756,16.9218,2.023,25.5123,2.2124,1.5547.0399,3.1193.0498,4.6739.0498,7.0657,0,14.1215-.3687,21.0476-1.0962h.0299c12.0486-1.2059,23.6886-3.4382,34.5811-6.6471,11.4706-3.3684,21.8947-7.7533,30.9935-13.0053h0c8.8994-5.1324,16.3538-11.0022,22.1538-17.45,5.81-6.4678,9.8561-13.394,12.0087-20.5793h0c1.7241-5.4313,2.2921-10.9922,1.6942-16.5132-.4883-4.5045-1.744-9.009-3.7372-13.3641h0c-1.8536-4.3251-4.4547-8.5606-7.7334-12.5967-3.0595-3.7471-6.7269-7.3547-10.9125-10.7231h0c-3.9664-3.2987-8.4808-6.4179-13.394-9.2582-4.9131-2.8402-10.3046-5.4413-16.015-7.7234h-.01c-6.0193-2.4914-12.4671-4.664-19.1841-6.4578-6.7269-1.7938-13.7826-3.2289-20.9679-4.2554h-.0199c-8.3413-1.2756-16.9218-2.0131-25.5123-2.2124-8.6303-.1993-17.2906.1495-25.7515,1.0464h0c-12.0486,1.2059-23.6886,3.4382-34.5811,6.6471-11.4706,3.3684-21.8947,7.7533-30.9935,13.0153h0c-8.8994,5.1324-16.3538,11.0022-22.1439,17.45-5.81,6.4678-9.8561,13.394-12.0087,20.5793h0c-1.7241,5.4313-2.2921,10.9922-1.6942,16.5132.4883,4.5145,1.744,9.009,3.7372,13.3641l-.0299-.01ZM625.7367,616.1522c-.1794.0299-.3488.0498-.5282.0797-.1694-.1894-.3588-.3787-.5282-.568-1.3055-1.4849-2.5213-2.9997-3.6275-4.5244-1.1062-1.5347-2.1127-3.0993-3.0097-4.664-.8969-1.5646-1.6942-3.1691-2.3718-4.7636h0s-.01-.0199-.0199-.0299v-.0299h0c-.4086-.8969-.7973-1.8138-1.1461-2.7306s-.6677-1.8437-.9368-2.7605c-.279-.9168-.5282-1.8437-.7375-2.7705-.2093-.9168-.3887-1.8536-.5282-2.7804-.1395-.9268-.2491-1.8636-.3189-2.7904h0c-.3388-4.4049.0897-8.8695,1.2756-13.3043l.7973,2.631c.2491.8072.4883,1.6045.7474,2.3918.1495.4883.3089.9667.4684,1.455l.2491.7574s.01.01.0199.0199v.0399c.1595.4784.3687.9268.6179,1.3354.3488.5581.7873,1.0663,1.3155,1.4949l.2691.2093h0c.568.4186,1.2457.7474,1.9931.9966.8471.279,1.8038.4385,2.8502.4883.2292.01.4584.0199.6876.0199h.0598c1.1261,0,2.3718-.1196,3.6973-.3588h0c.2292-.0399.4584-.0897.6876-.1296,2.7206-.5581,5.7901-1.5945,9.3778-3.1691h0l.4385-.1894c3.2189-1.4251,6.6173-3.1292,10.0853-5.0626h0c.4983-.2691.9866-.5382,1.4849-.8072,1.0265-.568,2.0529-1.1361,3.0894-1.7141l1.9433-1.0763c1.8237-1.0165,3.6574-2.033,5.5111-3.0196.6378-.3388,1.2656-.6777,1.9134-.9966.6976-.3488,1.2856-.6179,1.8437-.8471,6.398,8.7998,14.7194,14.1813,21.6157,14.1813.0797,0,.1595-.01.2392-.01-4.8135,2.7804-9.6269,5.5609-14.4404,8.3513l-27.2364,15.7558c-1.7141.9866-3.4282,1.9832-5.1423,2.9598-1.8636,1.0663-3.7172,2.1327-5.5609,3.1791l-.1694.0897h0c-.2292.1395-.4584.2691-.6876.3887-.279.1495-.5581.299-.8371.4385-.2093.0997-.4086.1993-.6179.289-.4784.2192-.9368.4086-1.3952.588h0c-.5481.2093-1.1062.3986-1.6643.5581-.5979.1694-1.1859.3089-1.744.4086h0l-.0299-.01ZM696.7725,543.5418l-.4983.4285h0c-2.6509,2.2523-5.6306,4.4746-9.1087,6.8066-.6079.4086-1.2158.8072-1.8337,1.1959h0c-3.4382,2.2124-6.8066,4.1956-9.6568,5.83l-1.2856.7375h0c-1.1859.6876-2.3818,1.3852-3.5677,2.0729-1.9035,1.1062-3.7969,2.2124-5.7303,3.3684-.6478.3887-1.2955.7773-1.9633,1.1859-.5581.3488-1.1959.7773-1.7938,1.2457-.9368-.0698-2.0629-.6079-3.2588-1.5945-1.0464-.8571-2.1426-2.033-3.1691-3.3983-1.0364-1.3753-1.9732-2.8901-2.7904-4.5145-.3488-.6976-.6777-1.4151-.9766-2.1327-.3289-.8072-.6378-1.6443-.8969-2.4815-.1893-.6079-.3687-1.2258-.5282-1.8536-.1794-.7275-.3488-1.4749-.4883-2.2423-.0997-.5581-.1993-1.1261-.279-1.6942l-1.5347-10.9225c8.8894-5.0925,19.0545-9.3379,30.2161-12.6266,10.5238-3.0993,21.7652-5.2719,33.3952-6.4877-.1495.578-.289,1.166-.4385,1.744l-.8172,3.2189c-.2691,1.0763-.5382,2.1526-.8072,3.2289-.1595.6577-.3289,1.3254-.4784,1.9832l-.0797.3189c-.0698.2691-.1296.5382-.1894.8072h0c-.1395.568-.3289,1.166-.5581,1.7639l-.0498.1395h0c-.3089.7873-.6876,1.6045-1.1361,2.4416-.1296.2392-.2591.4784-.3986.7175h0c-.4983.8571-1.0663,1.7241-1.6842,2.5811-.1096.1495-.2093.289-.3189.4385h0c-.7175.9567-1.4949,1.8935-2.3718,2.8701-.4385.4883-.887.9766-1.3553,1.445h0c-1.1062,1.1261-2.3121,2.2722-3.5976,3.3784h.0299ZM700.2904,541.6284c-.6478.7076-1.3155,1.4151-2.0131,2.1127-.2093.2093-.4186.4186-.6378.6179-2.5313,2.4516-5.4014,4.8334-8.7699,7.275h0l-.4186.299c-3.1093,2.2323-6.2784,4.3052-9.6767,6.3482h0c-.4784.299-.9567.588-1.445.877-.9866.5979-1.9732,1.1859-2.9598,1.7739l-1.9134,1.1461c-1.8038,1.0863-3.6176,2.1725-5.4014,3.2787-.6079.3787-1.2258.7674-1.8237,1.166-.6278.4186-1.1361.7773-1.6045,1.1361-.0698-.0797-.1296-.1694-.2093-.2491-.1894-.1894-.3986-.3588-.6079-.4983-.0897-.0598-.1894-.0897-.279-.1495.3887-.2691.7674-.5282,1.1261-.7474.6577-.4086,1.2955-.7973,1.9433-1.176,1.9334-1.1461,3.8268-2.2523,5.7203-3.3585,1.1859-.6976,2.3818-1.3852,3.5677-2.0729h0l1.2856-.7375c2.8602-1.6443,6.2386-3.6275,9.6967-5.8599h0c.6179-.3986,1.2357-.7973,1.8437-1.2059,3.5179-2.3519,6.5276-4.5942,9.1984-6.8764h0l.5083-.4385c1.0065-.877,1.9533-1.7739,2.8701-2.6708v.01ZM661.5336,567.4496c.0897,0,.1794.0199.279.0598.1395.0498.289.1296.4385.2292.1595.1096.3089.2292.4584.3787l.0299.0299c-.4983.2192-1.0265.4584-1.6443.7674-.6478.3289-1.2955.6677-1.9334,1.0065-1.8536.9966-3.6873,2.0131-5.521,3.0296l-1.9433,1.0763c-1.0265.568-2.0529,1.1461-3.0794,1.7141-.4883.2691-.9866.5382-1.4849.8072h0c-3.4481,1.9134-6.8166,3.6076-10.0056,5.0227l-.4385.1894h0c-3.5279,1.5447-6.5276,2.5612-9.1784,3.1093-.2192.0498-.4385.0897-.6577.1296h0c-.3289.0598-.6378.0897-.9567.1395.4285-.0897.8571-.1794,1.3055-.299l.4784-.1296h0c2.5213-.7175,5.3815-1.8536,8.73-3.478.588-.279,1.176-.578,1.7639-.877h0c3.3286-1.6942,6.7368-3.6275,9.3279-5.1224l1.2358-.7175h0c1.156-.6677,2.322-1.3354,3.488-2.0031,1.8536-1.0564,3.7073-2.1127,5.5609-3.1492.6179-.3388,1.2258-.6876,1.8636-1.0165.5282-.279,1.166-.5979,1.8935-.887l-.01-.01ZM626.0257,617.1188c.5581-.0997,1.1361-.2392,1.734-.4086.588-.1694,1.176-.3687,1.754-.588h0c.4784-.1794.9567-.3887,1.455-.6079.2192-.0997.4285-.1993.6478-.3089.299-.1495.588-.299.877-.4584.2392-.1296.4684-.2591.7076-.4086h0l.1595-.0897c1.8437-1.0464,3.7073-2.1127,5.5609-3.1791,1.7141-.9866,3.4282-1.9732,5.1523-2.9698l27.2364-15.7558c5.4712-3.1691,10.9424-6.3282,16.4036-9.4874.0897-.01.1993-.0199.3089,0,.1595.0399.3388.1196.5182.2292.1894.1196.3887.279.568.4684.0598.0598.1096.1395.1595.2093-5.3317,3.0794-10.6633,6.1688-15.985,9.2681l-11.6599,6.7767c-2.9897,1.734-5.9794,3.4681-8.9692,5.1921-2.1925,1.2656-4.3849,2.5313-6.5874,3.7969-1.7241.9866-3.4382,1.9732-5.1623,2.9598-1.8736,1.0663-3.7372,2.1327-5.6107,3.1791-.3189.1794-.6378.3588-.9667.5182-.3289.1694-.6577.3289-.9866.4883-.2392.1096-.4784.2192-.7275.3289h0c-.4983.2292-1.0065.4285-1.5048.6179-.6079.2192-1.2258.3986-1.8437.5481h0c-.877.2093-1.744.3388-2.5712.3887-.2192-.2292-.4285-.4684-.6478-.6976l-.0199-.01ZM688.9095,582.159c5.1324-2.9598,10.2547-5.9097,15.3771-8.8695l32.3986-18.6858c1.8736-1.0863,3.7471-2.1725,5.6705-3.3086l.0997-.0598h0c.279-.1595.5481-.3089.8072-.4684.3189-.1893.6378-.3986.9567-.5979.2292-.1495.4485-.299.6677-.4584.4983-.3488,1.0065-.7175,1.5048-1.0962h0c.6179-.4684,1.2358-.9667,1.8437-1.4849.6677-.568,1.3354-1.156,1.9931-1.7639h0c.3289-.3089.6577-.6278.9766-.9467.7773-.7674,1.5148-1.5547,2.2124-2.3419h0c.3189-.3588.6378-.7275.9368-1.0962.6677-.8072,1.3055-1.6443,1.8935-2.4815h0c.3289-.4584.6378-.9268.9368-1.4052.4086-.6478.7773-1.2955,1.1162-1.9334h0c.2491-.4684.4883-.9667.7175-1.4749-.1395.3787-.289.7674-.4485,1.156h0c-.3189.7674-.6777,1.5646-1.0863,2.3718-.1495.289-.299.578-.4485.867h0c-.578,1.0962-1.2358,2.1925-1.9433,3.2688l-.1296.1893c-.7175,1.0763-1.5048,2.1426-2.342,3.1591h0l-.279.3289c-.8272.9866-1.7141,1.9334-2.6409,2.8103-.5681.5382-1.1162,1.0364-1.6543,1.4749-.4485.3687-.8969.7175-1.3454,1.0364h0c-.2093.1595-.4285.3189-.6378.4684-.299.2093-.6079.4186-.9168.6079-.3089.1993-.6278.3887-.9368.578-1.8536,1.1062-3.7172,2.2024-5.5808,3.2887-1.7141,1.0065-3.4382,2.0031-5.1523,2.9997-2.1925,1.2756-4.3849,2.5413-6.5874,3.8069-2.9897,1.7241-5.9894,3.4481-8.9791,5.1722l-11.6798,6.7069c-5.3815,3.0894-10.753,6.1788-16.1345,9.2781-.1096-.1296-.1993-.279-.3189-.3986-.2392-.2491-.4883-.4584-.7474-.6179-.0498-.0299-.1096-.0598-.1595-.0797h.0399ZM649.8139,634.9476c-1.9931-1.0763-3.9464-2.2024-5.8001-3.3485-1.8437-1.1461-3.6475-2.342-5.3616-3.5677-1.6942-1.2158-3.3485-2.4914-4.8932-3.777h0v-.01h-.01c-1.6842-1.3553-3.2987-2.7605-4.8035-4.1856-.4584-.4285-.887-.877-1.3254-1.3155.6179-.0797,1.2457-.1794,1.8835-.3289h.01c.6478-.1595,1.3055-.3488,1.9433-.578.5282-.1894,1.0663-.4086,1.5846-.6478h0l.7474-.3289c.3488-.1595.6876-.3289,1.0265-.4983s.6677-.3588.9966-.5382c1.8835-1.0464,3.7471-2.1127,5.6207-3.1791,1.7241-.9866,3.4481-1.9732,5.1623-2.9598,2.1925-1.2656,4.3949-2.5313,6.5874-3.7969,2.9897-1.7241,5.9794-3.4581,8.9692-5.1921l11.6599-6.7767c5.3616-3.1093,10.7231-6.2286,16.0847-9.318,6.5276,9.8461,15.4967,15.9352,22.8415,15.9352.3089,0,.6278-.0199.9268-.0399-7.0557,4.076-14.1115,8.1619-21.1772,12.2479l-3.1492,1.8237c-8.9193,5.1722-17.8486,10.3345-26.748,15.4569-2.6011,1.4949-5.222,3.0097-7.8331,4.4945l-2.7605,1.5746c-.7275-.3687-1.455-.7375-2.1626-1.1162l-.0199-.0299ZM653.0328,636.6118l2.1925-1.2557c2.611-1.4949,5.232-2.9997,7.8331-4.4945,8.9094-5.1224,17.8287-10.2946,26.7481-15.4569l3.1492-1.8237c7.9327-4.5942,15.8754-9.1984,23.8082-13.7727.0897-.0299.1993-.0399.3189-.0199.1595.0199.3488.0897.5282.1993.1993.1196.4086.279.598.4684.0698.0698.1196.1595.1894.2292-7.5839,4.375-15.1579,8.7798-22.7319,13.1847l-3.6275,2.1127c-8.7499,5.0925-17.7988,10.3444-26.8577,15.5466-2.6011,1.4949-5.232,2.9997-7.853,4.4846l-2.5512,1.445c-.588-.279-1.176-.5581-1.754-.8471h.0099ZM718.0294,599.0808c7.3148-4.2255,14.6197-8.431,21.9246-12.6366l3.7272-2.1426c8.9492-5.1523,17.8985-10.2946,26.8477-15.4868,2.6011-1.5048,5.232-3.0396,7.853-4.5643,1.6842-.9766,3.3584-1.9533,5.0227-2.9299l2.7804-1.6244h0c.1894-.1096.3687-.2192.5481-.3289.4784-.3089.9866-.6577,1.4949-1.0464.2491-.1893.4883-.3787.7375-.578h0c.7574-.6179,1.5347-1.3155,2.3121-2.0828.1595-.1595.3089-.3089.4684-.4684h0c.6478-.6677,1.2955-1.3852,1.9334-2.1526.2192-.2691.4385-.5282.6577-.7973.4485-.5581.877-1.1261,1.2955-1.7141.3488-.4883.6876-.9866,1.0165-1.4849h0c.5082-.7773.9866-1.5846,1.4151-2.3918.1595-.299.3089-.588.4584-.887h0c.1196-.2392.2292-.4784.3388-.7175-.0797.2392-.1595.4784-.2491.7275h0c-.1196.3388-.2491.6777-.3887,1.0265-.299.7474-.6278,1.5347-.9966,2.322h0c-.2691.5979-.5681,1.1859-.877,1.7739-.279.5182-.5581,1.0265-.8571,1.5248-.2292.3887-.4684.7674-.7076,1.1461-.4186.6478-.867,1.2756-1.3254,1.8935h0c-.2192.299-.4485.578-.6777.8571-.5182.6179-1.0564,1.2059-1.6045,1.744h0c-.3488.3388-.6976.6577-1.0464.9567-.4485.3687-.8969.7076-1.3254.9866h0c-.1794.1196-.3687.2392-.5581.3488l-2.7605,1.6344c-1.6543.9766-3.3186,1.9533-4.9928,2.9399-2.611,1.5248-5.232,3.0595-7.8331,4.5643-9.0888,5.2818-18.1277,10.4541-26.8676,15.4668l-3.3385,1.9134c-7.7234,4.4248-15.4369,8.8496-23.1604,13.3142-.1196-.1495-.2392-.289-.3687-.4186-.2491-.2491-.5282-.4684-.8072-.6278-.0299-.0199-.0598-.0299-.0897-.0399v-.0199ZM685.6108,648.3216c-2.6907-.6478-5.3715-1.3653-7.9726-2.1227-2.6011-.7674-5.1822-1.5945-7.6736-2.4715-2.4715-.867-4.933-1.8138-7.3148-2.8004h-.0299c-2.2423-.8969-4.4647-1.8536-6.5874-2.8502-.0498-.0199-.0997-.0498-.1395-.0698l1.9533-1.1062c2.621-1.4849,5.2519-2.9997,7.853-4.4945,9.0589-5.2021,18.1077-10.464,26.8577-15.5466l3.6275-2.1127c7.6039-4.4248,15.2177-8.8396,22.8315-13.2345,6.5176,9.7465,15.4469,15.7758,22.7518,15.7758.3089,0,.6179-.0199.9268-.0399-7.0657,4.086-14.1314,8.1819-21.2071,12.2778l-1.3852.7973c-8.421,4.8832-16.8521,9.7664-25.2632,14.6197-2.2423,1.2955-4.5344,2.611-6.8365,3.9365-.7973-.1794-1.6045-.3588-2.3918-.5481v-.01ZM689.4377,649.1886c1.9832-1.1361,3.9664-2.2821,5.8997-3.3983,8.4111-4.8533,16.8421-9.7365,25.2632-14.6197l1.4052-.8172c7.9327-4.6042,15.8754-9.1984,23.8082-13.7826.0897-.0299.1993-.0399.3189-.0199.1595.0199.3488.0897.5282.1993.1993.1196.4086.279.598.4684.0698.0698.1196.1595.1894.2292-7.7234,4.4547-15.427,8.9393-23.1405,13.4239l-1.744,1.0165c-8.3613,4.8633-16.7225,9.7266-25.0937,14.54-1.8536,1.0663-3.7471,2.1526-5.6506,3.2389-.7973-.1595-1.5945-.3189-2.3818-.4883v.01ZM747.0695,615.8432c7.853-4.5344,15.706-9.0489,23.549-13.5534l.9069-.5182c8.2815-4.7636,16.5531-9.5173,24.8346-14.3008,3.1093-1.7938,6.3382-3.6674,9.5173-5.5111,3.189-1.8536,6.2684-3.6475,9.3578-5.4513l.598-.3488c.3588-.2093.7275-.4385,1.0962-.6976.5481-.3687,1.0962-.7873,1.6443-1.2258h0c.8969-.7375,1.8038-1.5845,2.7007-2.5114.5182-.5481,1.0464-1.1361,1.5646-1.754.3189-.3787.6278-.7574.9268-1.1461h0c.4983-.6378.9866-1.3155,1.465-2.023.2491-.3787.4983-.7474.7375-1.1261.4485-.7076.8471-1.4351,1.2258-2.1626-.299.7674-.6278,1.5547-.9966,2.3619l-.0897.1894h0c-.1495.3289-.3089.6577-.4684.9866-.4086.8172-.8471,1.6244-1.3254,2.4017-.1794.3089-.3687.6079-.5581.8969-.4883.7574-1.0165,1.4949-1.5646,2.1925h0c-.6179.7873-1.2856,1.5447-2.0031,2.2423-.1296.1296-.2691.2591-.3986.3787h0c-.3388.3189-.6777.6079-1.0364.887-.3289.2591-.6577.4983-.9866.7175l-.4983.3388c-3.0495,1.8138-6.119,3.6275-9.2881,5.4812-3.1791,1.8536-6.388,3.7272-9.4973,5.531-8.4111,4.8732-16.8421,9.6967-25.2632,14.5301l-1.176.6677c-7.9128,4.5344-15.8356,9.0688-23.7384,13.6431-.1196-.1495-.2192-.3089-.3488-.4385-.2491-.2491-.5282-.4684-.8072-.6278-.0299-.0199-.0598-.0299-.0897-.0399l.0099-.01ZM732.7189,653.7529c-1.7141,0-3.4083-.01-5.1124-.0498-1.7041-.0399-3.3983-.0997-5.1025-.1794-1.6942-.0797-3.3983-.1894-5.0925-.3089s-3.3784-.2691-5.0626-.4385-3.3585-.3588-5.0227-.5681-3.3186-.4385-4.9729-.6876h-.0299c-2.8303-.3986-5.6705-.877-8.4509-1.4052-.1894-.0399-.3687-.0797-.5581-.1096,1.5646-.8969,3.1292-1.7938,4.664-2.6808,8.3712-4.8234,16.7325-9.6867,25.0937-14.55l1.744-1.0165c7.7434-4.5045,15.4868-9.009,23.2401-13.4836,6.5276,9.7664,15.4369,15.7857,22.7418,15.7857.3289,0,.6478-.0199.9667-.0399-5.6007,3.2289-11.2015,6.4678-16.8022,9.7166l-.4983.289c-5.5808,3.2289-11.1616,6.4578-16.7325,9.6767-1.6742.0498-3.3385.0698-5.0128.0797v-.0299ZM739.8643,653.5835c5.0327-2.9,10.0654-5.82,15.0981-8.73l.4983-.289c6.4977-3.767,13.0053-7.5241,19.503-11.2812.0897-.0299.1894-.0399.299-.0299.1495.0199.3189.0698.4883.1595.1894.0997.3787.2392.5681.4086.0498.0498.0897.1096.1395.1595-5.8399,3.3684-11.6798,6.7568-17.5098,10.1451l-2.9798,1.734c-4.355,2.5313-8.72,5.0626-13.075,7.5839-1.0065.0498-2.0031.0797-3.0097.1196l-.02.0199ZM776.2293,632.5657c5.5409-3.199,11.0819-6.398,16.6229-9.587l2.1825-1.2557c6.677-3.8368,13.3441-7.6836,20.0212-11.5403,4.1756-2.4117,8.3413-4.8334,12.5269-7.265l2.0729-1.2059c.8272-.4883,1.6842-.9766,2.5612-1.4749h0c1.166-.6677,2.342-1.465,3.498-2.3718,1.166-.9069,2.3021-1.9234,3.3784-3.0097.9667-.9766,1.8736-2.0031,2.7206-3.0495.2093-.2691.4186-.5481.6378-.8272-.3488.5581-.7275,1.1162-1.1261,1.6942h0c-.5082.7175-1.0464,1.4351-1.6144,2.1227-.3687.4485-.7474.887-1.1261,1.3155-.5481.6179-1.1461,1.2258-1.7639,1.8237-.5282.4983-1.0962,1.0065-1.6842,1.5148h0c-.4584.3887-.9268.7574-1.3952,1.0962-.7375.5382-1.465,1.0763-2.1725,1.6045-.6677.4086-1.3454.8172-2.023,1.2158-4.1557,2.4715-8.2716,4.8633-12.4771,7.2949-6.4179,3.7172-12.8558,7.4145-19.2937,11.1018l-2.2323,1.2856c-6.0592,3.478-12.1283,6.9561-18.1875,10.464-.1196-.1296-.2392-.2591-.3588-.3787-.2392-.2192-.4983-.4086-.7574-.5481l-.01-.0199ZM788.1384,645.8501c-2.1825.6577-4.4348,1.2756-6.687,1.8536s-4.5643,1.1162-6.8664,1.6144-4.6739.9567-7.0358,1.3653c-2.3719.4186-4.7836.7873-7.1654,1.1162s-4.8234.6179-7.265.8571h-.0299c-1.6742.1794-3.3584.3289-5.0427.4684-.9766.0797-1.9433.1296-2.92.1894,3.777-2.1925,7.564-4.3849,11.341-6.5774l2.9798-1.734c5.8798-3.4182,11.7596-6.8365,17.6493-10.2348,3.4282,4.644,7.5241,8.4509,11.6699,10.8726-.2093.0598-.4186.1296-.6278.1894v.02ZM852.7263,588.3876h0c-.0498.5382-.1196,1.0763-.1894,1.6145-.0797.5382-.1595,1.0763-.2591,1.6045-.0997.5382-.2093,1.0663-.3289,1.6045s-.2591,1.0663-.3986,1.5945c-.1395.5282-.299,1.0663-.4684,1.5945h0v.01h0v.01c-.4086,1.3653-.8969,2.7406-1.455,4.086-.5481,1.3454-1.1859,2.7107-1.8835,4.0361-.7076,1.3354-1.4849,2.6708-2.322,3.9763s-1.7639,2.611-2.7406,3.8966c-.9766,1.2756-2.043,2.5512-3.1591,3.7969s-2.322,2.4815-3.5677,3.6873c-1.2457,1.1959-2.5811,2.4017-3.9664,3.5677s-2.8502,2.3121-4.3451,3.4282-3.0794,2.2024-4.7138,3.2688c-1.6244,1.0663-3.3286,2.1028-5.0526,3.0993h0c-1.734.9966-3.5378,1.9832-5.3715,2.92-1.8437.9368-3.7471,1.8536-5.6805,2.7306-1.9334.867-3.9365,1.7241-5.9695,2.5213-2.033.8072-4.1258,1.5845-6.2286,2.3121-1.4949.5182-3.0196,1.0065-4.5544,1.4849-4.2653-2.3021-8.5307-6.1788-12.0884-10.9723,6.0193-3.478,12.0386-6.9362,18.0679-10.3843l2.2323-1.2856c6.4379-3.6973,12.8757-7.3846,19.2937-11.1018,4.2055-2.4316,8.3214-4.8234,12.4871-7.2949.6876-.4086,1.3653-.8172,2.0529-1.2357,0,0,.01-.01.0199-.0199h.0199c.7076-.5282,1.445-1.0663,2.1925-1.6145.4883-.3588.9766-.7375,1.455-1.1461h0c.6079-.5182,1.1959-1.0364,1.734-1.5547.6378-.6079,1.2557-1.2457,1.8237-1.8835.3887-.4385.7773-.887,1.156-1.3454.578-.7076,1.1361-1.4351,1.6543-2.1825h0c.7873-1.1261,1.4949-2.2323,2.0928-3.2787.1096-.1794.2093-.3687.3089-.5581h0l.3289-.6179c.5182-.9866.9866-1.9633,1.3952-2.9v-.01h0l.1993-.4784c.4285-1.0464.7873-2.0529,1.0763-2.9997h0c.1196-.4186.2392-.8272.3388-1.2457.1694-.6777.289-1.3055.3887-1.9134h0v-.0797c0-.0199.01-.0299.0199-.0498h0c0-.01,0-.0199.01-.0299l1.465-9.8761c1.5347,3.777,2.5114,7.6138,2.92,11.4307.279,2.5811.289,5.1921.0399,7.7832h-.0299ZM850.2947,567.1107c1.8437,4.1258,3.0096,8.3712,3.4681,12.6266.299,2.7705.289,5.5509-.01,8.3214.2192-2.5213.1993-5.0626-.0698-7.564-.4684-4.3949-1.6842-8.8197-3.6076-13.1448.0498-.0897.1196-.1694.2192-.2392ZM832.0076,543.9603c4.0162,3.2588,7.5441,6.7368,10.4939,10.3444,3.0993,3.8069,5.5808,7.8032,7.3747,11.8792-.0897.0498-.1794.1096-.2591.1694-1.8237-3.9664-4.2753-7.8729-7.3148-11.6001-2.9399-3.6176-6.4877-7.1454-10.5338-10.4939.0598-.1096.1495-.2192.2392-.3089v.01ZM841.5348,555.3811c3.1492,3.8667,5.6605,7.9128,7.4743,12.0286l-.4883,2.9c-.1993,1.156-.3887,2.322-.578,3.478l-.7773,4.7138h0l-.0299.1495h0c-.1096.5979-.2491,1.2357-.4285,1.8736-.0897.3388-.1894.6777-.3089,1.0265-.3289,1.0065-.7375,2.033-1.2158,3.0595l-.0698.1395h0c-.4983,1.0364-1.0763,2.0928-1.7241,3.1193-.2392.3787-.4784.7474-.7375,1.1162-.5182.7574-1.0564,1.4849-1.6045,2.1725-.8272,1.0265-1.7141,2.033-2.6509,2.9798-1.0464,1.0564-2.1526,2.043-3.2787,2.9299-1.1162.877-2.2523,1.6443-3.3784,2.2921h0c-.887.4983-1.744.9966-2.5712,1.4849l-2.0729,1.2059c-4.1856,2.4316-8.3513,4.8533-12.5269,7.265-6.677,3.8667-13.3441,7.7035-20.0112,11.5403l-2.1825,1.2557c-5.9296,3.4083-11.8592,6.8265-17.7889,10.2547-7.3647,2.8004-18.0779-3.3385-25.6418-14.6197,7.8729-4.5444,15.7558-9.0589,23.6387-13.5833l1.176-.6777c8.431-4.8334,16.8521-9.6568,25.2731-14.5301,3.1093-1.8038,6.3283-3.6674,9.5073-5.531s6.2485-3.6674,9.308-5.4911c.0299-.0199.0498-.0498.0797-.0698h.01l.4385-.279c.3488-.2392.7076-.4883,1.0464-.7674.3687-.289.7375-.6079,1.0962-.9368h0c.1395-.1296.279-.2591.4186-.3986.7474-.7275,1.445-1.5148,2.0828-2.3419h0c.5681-.7275,1.1162-1.4849,1.6144-2.2622.1993-.3089.3887-.6179.578-.9268.4784-.8072.9368-1.6344,1.3553-2.4715.1694-.3388.3289-.6777.4883-1.0165h0l.0897-.1894c.5182-1.1361.9766-2.2423,1.3653-3.3086h0l.0897-.2392c.3986-1.1162.7375-2.1925,1.0065-3.199.0797-.3089.1595-.5979.2292-.9069.1894-.8272.3488-1.6344.4485-2.3818h0l.0399-.3388h0v-.01l1.2756-10.5039c3.8069,3.189,7.1654,6.5475,9.9558,9.9857l-.0199.01ZM802.9076,527.0285c5.5409,2.2423,10.773,4.7636,15.5565,7.5241,4.6739,2.7007,8.9492,5.6406,12.7562,8.7599-.0897.0997-.1694.1993-.2491.3089-3.8368-3.0794-8.1221-6.0093-12.7761-8.6901-4.7238-2.7306-9.9259-5.2719-15.4569-7.564.0498-.1296.0997-.2392.1694-.3388h0ZM817.6968,535.7884c4.7138,2.7206,9.0589,5.6904,12.9256,8.8197l-1.7141,10.8427h0l-.0498.3089v.01h0c-.1196.7375-.299,1.4949-.5082,2.2523-.0698.2691-.1495.5282-.2392.7973h0c-.3289,1.0165-.7275,2.033-1.1959,3.0495l-.0498.1096h0c-.4983,1.0564-1.0763,2.1127-1.7241,3.1392-.2292.3687-.4684.7375-.7175,1.0962-.4684.6876-.9467,1.3454-1.4251,1.9633h0c-.299.3787-.598.7474-.9069,1.1162-.5082.5979-1.0165,1.176-1.5248,1.7041-.867.9069-1.744,1.7241-2.611,2.4316h0c-.5182.4285-1.0464.8172-1.5746,1.176-.3488.2392-.6976.4584-1.0364.6577l-.598.3488c-3.0794,1.8038-6.1688,3.5976-9.3578,5.4513s-6.408,3.7172-9.5173,5.5111c-8.2815,4.7836-16.5631,9.5472-24.8346,14.3008l-.9168.5282c-8.2317,4.7337-16.4534,9.4575-24.6951,14.2111-7.3547,2.7107-18.028-3.4481-25.5422-14.6596,7.6836-4.4447,15.3771-8.8496,23.0707-13.2644l3.3385-1.9134c8.74-5.0128,17.7789-10.195,26.8676-15.4668,2.6011-1.5048,5.232-3.0396,7.8331-4.5743,1.6742-.9866,3.3385-1.9633,4.9928-2.9399l2.7605-1.6344c.1993-.1196.3986-.2392.598-.3687h0c.4584-.3089.9368-.6577,1.4151-1.0564.3787-.3089.7474-.6478,1.1162-1.0065h0c.578-.5581,1.1361-1.176,1.6742-1.8138.2392-.289.4784-.588.7076-.8969h0c.4784-.6278.9368-1.2856,1.3753-1.9433.2491-.3887.4983-.7773.7375-1.1859.299-.5083.598-1.0364.877-1.5646.3189-.5979.6179-1.2059.9069-1.8237h0c.3687-.8072.7175-1.6045,1.0165-2.3718.1395-.3488.2691-.6976.3986-1.0464h0c.279-.7873.5381-1.5447.7474-2.2722.1096-.3787.2192-.7474.3189-1.1261.2093-.8072.3787-1.5945.5082-2.322.0598-.3089.0997-.6179.1395-.9168v-.0199h0l.0399-.3388h0c.1196-.9966.2392-2.0031.3588-2.9997l.887-7.7035c5.4114,2.2622,10.5039,4.7437,15.128,7.4145v-.01ZM763.0446,516.2954c7.0059,1.0165,13.8723,2.4117,20.4298,4.1557,6.4578,1.7241,12.6565,3.8069,18.4665,6.1887-.0598.1096-.1096.2192-.1595.3388-5.6506-2.2523-11.64-4.2554-17.8187-5.9296h0l-.6876-.1893c-6.4578-1.7241-13.2843-3.1392-20.3002-4.2255.0199-.1296.0399-.2392.0598-.3488l.01.01ZM762.8653,517.6308c6.9661,1.0763,13.7427,2.4914,20.1607,4.1956l.6876.1893h0c6.1887,1.6742,12.1881,3.6774,17.8486,5.9396l-.7275,4.3351c-.1894,1.156-.3787,2.3021-.5681,3.4581-.1595.9866-.3189,1.9732-.4684,2.9598v.0199h0l-.0498.3189h0c-.0498.289-.1096.578-.1694.867-.1694.7574-.3687,1.4949-.6079,2.2124-.1096.3289-.2292.6577-.3588.9966-.289.7474-.6079,1.4749-.9567,2.1825h0c-.1395.289-.289.568-.4385.8571-.4186.7873-.887,1.5646-1.3753,2.322h0c-.3189.4883-.6478.9667-.9966,1.455-.4086.568-.8272,1.1261-1.2657,1.6742-.2093.2691-.4285.5282-.6378.7873-.6179.7375-1.2557,1.445-1.8835,2.0928h0c-.1495.1595-.299.3089-.4584.4584-.7574.7474-1.5048,1.4251-2.2323,2.023h0c-.2392.1893-.4784.3787-.7175.5581-.4883.3687-.9766.7076-1.4351.9966-.1694.1096-.3388.2093-.5182.3089h0l-2.7804,1.6244c-1.6643.9766-3.3385,1.9433-5.0128,2.9299-2.621,1.5248-5.2519,3.0495-7.853,4.5643-8.9592,5.1921-17.8985,10.3345-26.8477,15.4868l-3.7272,2.1426c-7.6836,4.4248-15.3771,8.8496-23.0707,13.2943-7.4045,2.7207-18.1177-3.498-25.6518-14.8191,5.3416-3.0894,10.6932-6.1588,16.0349-9.2183l11.6798-6.7069c2.9997-1.7241,5.9894-3.4382,8.9791-5.1722,2.1925-1.2656,4.3949-2.5413,6.5874-3.8069,1.7241-.9966,3.4382-1.9931,5.1523-2.9997,1.8636-1.0863,3.7272-2.1825,5.5908-3.2887.3289-.1893.6478-.3887.9667-.5979s.6378-.4186.9467-.6378c.2292-.1595.4485-.3189.6677-.4883h0c.4584-.3289.9268-.6876,1.3952-1.0663.5481-.4584,1.1261-.9667,1.7041-1.5148.9467-.8969,1.8536-1.8736,2.7107-2.8901l.279-.3388h0c.8571-1.0364,1.6643-2.1327,2.4017-3.2389h0l.1296-.1893c.7275-1.0962,1.3952-2.2323,1.9931-3.3485h0c.1595-.299.3089-.588.4584-.887.4086-.8172.7873-1.6443,1.1162-2.4316h0c.3488-.8371.6478-1.6543.8969-2.4316.0997-.3189.1993-.6378.289-.9567h0c.1794-.6378.3388-1.2756.4584-1.8835.0797-.3887.1495-.7674.1993-1.176v-.0299h0l.0199-.1495h0l1.455-10.9424v-.0399ZM737.2035,514.0133c8.3513.1893,16.6926.9168,24.8147,2.1227-.0199.1096-.0498.2292-.0598.3388-7.3148-1.0364-14.7892-1.6942-22.2236-1.9533-.8471-.0299-1.6942-.0498-2.5512-.0698-8.2815-.1893-16.7026.1196-25.004.8969-.01-.1196-.0299-.2392-.0498-.3488,8.2417-.8471,16.6727-1.1859,25.0638-.9966l.01.01ZM711.6912,518.458l.4385-2.0928c8.3114-.7773,16.7325-1.0863,25.024-.8969.8471.0199,1.6942.0399,2.5313.0698,7.3946.2491,14.829.9069,22.104,1.9433l-2.043,10.7829s0,.0399-.01.0598l-.0299.1495h0v.01c-.0698.3488-.1495.6976-.2392,1.0464-.1694.6478-.3588,1.2856-.578,1.8935-.0897.2392-.1794.4784-.2691.7175-.3488.887-.7474,1.744-1.166,2.5512h0c-.3289.6179-.6876,1.2457-1.0763,1.8636-.289.4584-.588.9168-.9069,1.3653h0c-.578.8172-1.1959,1.6244-1.8536,2.4217-.299.3687-.6079.7175-.9168,1.0763h0c-.6876.7674-1.4151,1.5447-2.1725,2.3021-.3189.3189-.6378.6278-.9567.9268h0c-.6478.5979-1.2955,1.176-1.9533,1.734-.598.5083-1.1959.9866-1.8038,1.445h0c-.4883.3687-.9866.7275-1.4749,1.0763-.2093.1495-.4285.299-.6478.4385-.299.1993-.6079.3887-.9168.578-.2591.1595-.5082.3089-.7873.4584h0l-.1694.0997c-1.8736,1.0962-3.7471,2.1825-5.6107,3.2688l-32.3986,18.6858c-5.4612,3.1492-10.9324,6.2983-16.4036,9.4575-6.9162,1.5148-16.1545-3.8667-23.1405-13.4438.4385-.3388.9268-.6876,1.5347-1.0863.5979-.3887,1.1959-.7674,1.8038-1.1461,1.7839-1.1062,3.5877-2.1925,5.3915-3.2787l1.9134-1.1461c.9866-.588,1.9732-1.1859,2.9598-1.7739.4784-.289.9667-.588,1.445-.887h0c3.4282-2.0529,6.6173-4.1457,9.7465-6.388l.4186-.299h0c3.4182-2.4715,6.3183-4.8832,8.8795-7.3647.2192-.2093.4285-.4186.6378-.6278,1.2557-1.2557,2.4316-2.5313,3.5079-3.7969h0c.2192-.2591.4285-.5083.6378-.7674.9567-1.1859,1.8437-2.3918,2.621-3.5677h0c.6876-1.0464,1.2955-2.0729,1.8138-3.0694l.2491-.4784c.4684-.9567.877-1.8935,1.1859-2.7904.2292-.6577.4186-1.3055.568-1.9234h-.01s.0199-.0498.0299-.0698h0l.2491-1.0364c.1595-.6577.3089-1.3254.4584-1.9832.2491-1.0763.4784-2.1526.7175-3.2389.2292-1.0763.4584-2.1626.6876-3.2389l-.0199-.0299ZM677.1599,521.667c10.7032-3.1492,22.1239-5.3516,33.9533-6.5575.0199.1096.0299.2192.0399.3388-11.7695,1.2158-23.1405,3.4182-33.8038,6.5475-11.1517,3.2787-21.3068,7.5142-30.2062,12.5867-.0399-.0698-.0698-.1495-.1096-.2192-.0199-.0399-.0598-.0698-.0897-.1096,8.8994-5.0726,19.0445-9.318,30.2062-12.5967l.01.01ZM647.9702,546.6511c.0797.588.1794,1.166.279,1.744.1495.7773.3189,1.5547.5083,2.3021.1694.6478.3488,1.2856.5481,1.9134.279.867.588,1.7241.9268,2.5612.3089.7474.6478,1.4849,1.0065,2.2024.8371,1.6643,1.8038,3.2389,2.8801,4.664s2.2224,2.6609,3.3286,3.5677c.867.7076,1.6842,1.1959,2.4715,1.4949-.2591.1296-.5182.2491-.7375.3687-.6478.3388-1.2656.6876-1.8835,1.0265-1.8536,1.0364-3.7073,2.0928-5.5708,3.1591-1.166.6677-2.332,1.3354-3.488,2.0031h0l-1.2358.7175c-2.5811,1.4949-5.9695,3.4182-9.2781,5.1025h0c-.578.299-1.166.588-1.744.867-3.3086,1.5945-6.109,2.7107-8.5705,3.4083h0l-.4584.1296c-1.1859.3189-2.3021.5282-3.3186.6278h0c-.4186.0399-.8272.0698-1.2358.0698-.7973.0199-1.5048-.0598-2.1426-.2093h0c-.0997-.0199-.1893-.0399-.289-.0698-.5581-.1495-1.0564-.3687-1.4949-.6378h0c-.1196-.0797-.2392-.1595-.3488-.2392-.3986-.299-.7275-.6577-.9966-1.0663,0-.01-.0199-.0199-.0299-.0299,0-.01,0-.0299-.0199-.0399-.1993-.3189-.3687-.6777-.4983-1.0663h0c-.0598-.1894-.1196-.3787-.1794-.568l-2.6011-7.9128c2.1028-6.9262,6.0193-13.6032,11.65-19.8617,5.531-6.1588,12.6266-11.7795,21.0775-16.7424l1.4749,10.5139h-.0299ZM624.471,551.8432c5.6605-6.2983,12.9355-12.0386,21.6057-17.0813.0399.0498.0797.0897.1196.1495.0299.0498.0598.1096.0897.1694-8.6702,5.0526-15.9452,10.8029-21.6157,17.1112-5.521,6.1489-9.4176,12.7063-11.6101,19.5129-.0698-.0498-.1495-.0997-.2292-.1395,2.1426-6.8764,6.0492-13.5135,11.64-19.7322v.01ZM612.5321,572.552c.0897.0598.1495.1395.1893.2192-1.5148,4.9829-2.1028,10.0255-1.734,14.9885-.4883-5.0825.0299-10.1949,1.5447-15.1978v-.01Z"/>
    <path d="M643.3812,392.9732c-.3592-1.2972-.8881-2.5844-1.5865-3.8217-.6885-1.2273-1.5466-2.4247-2.5544-3.5623-.9878-1.1275-2.1453-2.2152-3.4226-3.233-1.2672-1.0078-2.6842-1.9657-4.2009-2.8438l-146.0525-84.3167c-3.0334-1.7462-6.4959-3.203-10.2976-4.3206-3.7818-1.1176-7.823-1.8759-12.0039-2.2551s-8.4117-.3792-12.5926,0-8.2221,1.1375-12.0039,2.2551c-3.8017,1.1176-7.2742,2.5744-10.2976,4.3206l-228.6129,131.983h0c-1.5167.8781-2.9336,1.836-4.2009,2.8438-1.2772,1.0178-2.4347,2.1054-3.4226,3.233-1.0078,1.1375-1.8659,2.3349-2.5544,3.5623-.6985,1.2373-1.2273,2.5245-1.5866,3.8217-.3592,1.3072-.5388,2.6442-.5388,3.9714v43.1163c0,6.416,4.2907,12.433,12.0837,16.9332l146.0524,84.3267c7.9427,4.59,18.39,6.885,28.8273,6.885s20.8746-2.295,28.8273-6.885l228.603-131.983c7.7931-4.5002,12.0837-10.5072,12.0837-16.9332v-43.1163c0-1.3271-.1796-2.6642-.5388-3.9714l-.01-.01ZM200.7935,428.0969l228.603-131.983c15.197-8.7709,39.9332-8.7709,55.1301,0l146.0524,84.3267c7.2642,4.2009,11.2755,9.7488,11.2755,15.626s-4.0013,11.4252-11.2755,15.626l-228.603,131.983c-15.197,8.7709-39.9332,8.7709-55.1301,0l-146.0524-84.3267c-7.2642-4.2009-11.2755-9.7488-11.2755-15.626s4.0013-11.4252,11.2755-15.626h0ZM402.4351,545.1623c-15.5462,8.7909-40.5119,8.7909-56.0481,0,.0499-.1597.1497-.3293.2694-.459,7.7033,4.3505,17.7315,6.5358,27.7596,6.5358s20.0664-2.1853,27.7597-6.5358c.1197.1297.2096.2894.2694.459h-.01ZM199.2768,503.3333c-6.9948-4.2607-10.8364-9.7787-10.8364-15.616v-37.8577c1.6564,4.3306,5.3583,8.3119,10.8364,11.5249v41.9488ZM199.4664,460.3268c-7.1145-4.2707-11.026-9.8386-11.026-15.7258,0-.5887.0399-1.1774.1197-1.7562-.02.2894-.0399.5887-.0399.8781,0,6.0967,3.9813,11.8143,11.2156,16.1549-.1098.1397-.1996.2894-.2694.459v-.01ZM345.3293,587.6799l-145.0546-83.7479v-41.9687l145.0546,83.7479v41.9687ZM345.5189,544.6634l-145.1943-83.8178c.0499-.1597.1497-.3293.2594-.459l145.1943,83.8278c-.1098.1397-.1896.2894-.2594.459v-.01ZM402.485,588.2487c-15.5562,8.8308-40.5918,8.8308-56.1579,0v-41.9787c7.8529,4.3106,17.9609,6.4759,28.0789,6.4759s20.226-2.1653,28.0789-6.4759v41.9787ZM403.0338,544.2144l227.7448-131.4841c.1097.1297.2095.2894.2594.459l-227.7448,131.4841c-.0699-.1597-.1597-.3093-.2594-.459ZM631.0879,456.2656l-227.6051,131.4143v-41.9687l227.6051-131.4043v41.9588ZM642.9222,440.0608c0,5.8373-3.8516,11.3553-10.8364,15.616v-41.9488c5.4781-3.223,9.1801-7.1944,10.8364-11.5249v37.8577h0ZM631.8962,412.6704c-.0699-.1597-.1597-.3093-.2694-.459,7.2343-4.3406,11.2156-10.0581,11.2156-16.1549,0-.2894-.0199-.5787-.0399-.8781.0798.5887.1197,1.1675.1197,1.7562,0,5.8872-3.9215,11.4551-11.026,15.7258v.01ZM215.0924,452.0448h.01c4.7996,2.8139,9.6191,5.6278,14.4685,8.4217,4.8395,2.7939,9.7089,5.5779,14.5883,8.3518h.01c4.8095,2.8139,9.6291,5.6278,14.4685,8.4217s9.7089,5.5779,14.5883,8.3518h0c4.8095,2.8139,9.6291,5.6278,14.4685,8.4217s9.7089,5.5779,14.5883,8.3518h0c4.7996,2.8139,9.6291,5.6278,14.4685,8.4217,4.8395,2.7939,9.7089,5.5779,14.5883,8.3518h.01c4.8096,2.8139,9.6291,5.6278,14.4685,8.4217,4.8395,2.7939,9.7089,5.5779,14.5883,8.3518h0c1.2074.7085,2.5245,1.3271,3.9015,1.826,2.3948.8781,5.079,1.4369,7.7731,1.6364.7184.0499,1.4469.0798,2.1753.0798,1.4967,0,2.9935-.1098,4.4204-.3193,2.1154-.3193,4.1011-.8082,5.8972-1.4668,1.8759-.6885,3.5124-1.5965,4.8894-2.3948h0l225.5995-130.2568c.948-.5488,1.8061-1.0477,2.5944-1.5965,1.377-.9579,2.4946-2.0456,3.3128-3.213.3592-.5189.6586-1.0377.8781-1.5367,1.0378-2.295.6985-4.7896-.948-7.0347-1.0677-1.4568-2.6642-2.7939-4.7297-3.9714h-.01c-4.8096-2.8139-9.6291-5.6278-14.4685-8.4217s-9.7089-5.5779-14.5883-8.3518h0c-4.8096-2.8139-9.6291-5.6278-14.4685-8.4217s-9.7089-5.5779-14.5883-8.3518h0c-4.8096-2.8139-9.6291-5.6278-14.4685-8.4217s-9.7089-5.5779-14.5883-8.3518h0c-4.8096-2.8139-9.6291-5.6278-14.4685-8.4217s-9.7089-5.5779-14.5883-8.3518h0c-4.8096-2.8139-9.6291-5.6278-14.4685-8.4217s-9.7089-5.5779-14.5883-8.3518h0c-1.2074-.7085-2.5245-1.3271-3.9015-1.836-2.3948-.8681-5.079-1.4369-7.7731-1.6364-2.2252-.1597-4.4404-.0798-6.5956.2495-2.1154.3193-4.1011.8082-5.8972,1.4668-1.8759.6885-3.5124,1.5965-4.8994,2.3948l-225.5995,130.2568h0c-.9579.5488-1.8061,1.0477-2.5944,1.5965-1.377.9579-2.4946,2.0456-3.3128,3.213-.3592.5189-.6586,1.0377-.8781,1.5367-1.0278,2.295-.6985,4.7896.9479,7.0347,1.0677,1.4568,2.6642,2.7939,4.7397,3.9714h-.02ZM233.5224,461.2348c-1.9358-1.1176-3.8716-2.2351-5.8074-3.3527s-3.8616-2.2451-5.7874-3.3627c-1.9258-1.1276-3.8516-2.2451-5.7675-3.3727h-.01l-.01-.01h0c-.6087-.3492-1.1774-.7085-1.6963-1.0876-.5189-.3792-.9779-.7683-1.387-1.1675-.3991-.3892-.7584-.7983-1.0477-1.2074-.2894-.3991-.5189-.8082-.6985-1.2174-.1597-.3792-.2694-.7583-.3293-1.1375v-.0499c-.1497-.9879-.01-1.9657.3991-2.8837.1896-.4291.449-.8581.7484-1.2972.6985-.9978,1.6664-1.9258,2.8937-2.764.7284-.4989,1.5466-.9779,2.4646-1.5067l225.5795-130.2767c1.387-.7983,2.8738-1.6265,4.5601-2.2551,1.6065-.5987,3.4725-1.0777,5.3883-1.367,1.9358-.2894,3.9414-.3592,5.967-.2095,2.4347.1896,4.8794.6985,7.0746,1.4768,1.1575.4091,2.2451.908,3.2529,1.4668-.1297.8082-.2694,1.6265-.3991,2.4247l-.0299.1796c-.1796,1.0976-.3692,2.2052-.5388,3.3028-.1796,1.1275-.3492,2.2551-.5189,3.3926l-.2095,1.4967c-.1597,1.1475-.4191,2.305-.7683,3.4525-.3792,1.2273-.8581,2.4447-1.4369,3.6221-.4889.9879-1.0477,1.9657-1.6664,2.9037-.5488.8282-1.1575,1.6464-1.8061,2.4247-.459.5488-.938,1.0976-1.4469,1.6165-.4989.5189-.9878.9879-1.4967,1.4269-.3492.3093-.6985.5987-1.0876.898-.1996.1597-.4191.3193-.6386.479-.3393.2495-.8282.6187-1.2074.9879-.2395.2295-.439.439-.5987.6286l-.2894.3293c-.1097.1297-.2095.2295-.2993.3193-.0399.0399-.0898.0698-.1397.1098-.0499.0399-.1097.0698-.1896.1197h0c-18.849,10.8464-37.6382,21.7028-56.4273,32.5592l-17.7315,10.2477c-12.872,7.4438-25.754,14.8777-38.636,22.3215-12.872,7.4338-25.754,14.8677-38.636,22.2915l-17.7913,10.2677c-16.6538,9.6091-33.2976,19.2182-49.9115,28.8273-.6187-.3592-1.2473-.7085-1.8659-1.0677l-.0199.02ZM236.3861,462.8812c16.4442-9.5193,32.9284-19.0286,49.4126-28.538l17.7913-10.2677c12.882-7.4338,25.764-14.8677,38.636-22.2915,12.882-7.4438,25.764-14.8777,38.636-22.3215l17.7315-10.2477c18.7892-10.8564,37.5883-21.7128,56.4273-32.5592h0c.1197-.0698.1996-.1197.2794-.1696.0798-.0599.1497-.1098.2195-.1796.1197-.1098.2495-.2395.3792-.3991l.2894-.3293c.1497-.1696.3293-.3692.5488-.5688.3393-.3293.7983-.6785,1.1176-.908.2295-.1696.449-.3293.6586-.4989.3991-.3093.7783-.6187,1.1375-.938.5288-.459,1.0278-.9479,1.5466-1.4868s1.0178-1.0976,1.4967-1.6664c.6686-.8082,1.2972-1.6564,1.8659-2.5145.01-.02.0299-.0399.0399-.0698-.0199.0399-.0399.0798-.0599.1098-.479.928-.9978,1.826-1.5267,2.6742-.3892.6087-.7983,1.2174-1.2273,1.8061-.4091.5588-.8282,1.0976-1.2573,1.6165-.2894.3492-.5787.6885-.8681,1.0178l-.459.5189c-.2594.3093-.5189.6187-.7683.928l-.1197.1497c-.1197.1497-.2395.3093-.3692.459-.1097.1297-.2095.2495-.3193.3692-.1497.1597-.3093.3093-.479.449-.0798.0698-.1696.1297-.2495.1796-.0898.0599-.1696.1098-.2694.1696h0c-19.4777,11.3254-39.3245,22.7705-56.3874,32.6091l-18.9887,10.9362c-12.4629,7.1844-24.9358,14.3688-37.4087,21.5631-12.5427,7.2343-25.0755,14.4985-37.6182,21.7527l-18.7991,10.8763c-14.9275,8.6312-32.2998,18.6694-49.5822,28.5978-.4889-.2794-.9779-.5588-1.4568-.8382v.01ZM265.6824,479.7945c9.9783-5.7176,20.9045-12.0039,33.3874-19.2182,10.9262-6.3163,21.8525-12.6425,32.7787-18.9688l3.1931-1.846c11.9939-6.9449,23.9878-13.8898,35.9818-20.8147,11.9839-6.9249,23.9679-13.82,35.9419-20.715l4.6599-2.6842c10.4273-5.997,20.8447-12.0039,31.272-18.0208,13.0616-7.5336,24.4967-14.1592,34.9341-20.236l5.977-3.4824c2.1952-1.2772,4.6299-3.4924,6.8751-6.2464,1.6763-2.0655,3.1631-4.2707,4.2807-6.3961.2594-.4889.4889-.9879.7184-1.4868-.1796.5588-.3692,1.1176-.5787,1.6963-.938,2.5644-2.0256,4.8395-3.223,6.7753-1.7462,2.8039-3.8716,5.039-5.997,6.2863h0c-1.9757,1.1575-3.9813,2.3349-5.957,3.5024-10.2278,5.997-21.3137,12.433-34.8841,20.256-11.0759,6.3861-22.1618,12.7523-33.2577,19.1184l-2.7241,1.5666c-11.9939,6.885-23.9879,13.7701-35.9818,20.695-11.9939,6.9249-23.9679,13.8798-35.9419,20.8347l-2.1254,1.2373c-11.2655,6.5458-22.541,13.0915-33.8165,19.6074-13.1813,7.6135-23.9679,13.81-33.9262,19.4777l-1.6165-.928.0299-.01ZM294.7592,496.578c9.9184-5.6876,20.5553-11.8043,33.3874-19.2182,10.3176-5.957,20.6451-11.944,30.9727-17.921l4.9991-2.8937c11.9939-6.9449,23.9878-13.8898,35.9818-20.8147,11.9939-6.9249,23.9679-13.82,35.9419-20.715l2.6442-1.5167c11.0959-6.3861,22.1917-12.7722,33.2976-19.1783,13.3709-7.7132,24.4768-14.1492,34.944-20.236l5.977-3.4824c2.1952-1.2772,4.6299-3.4924,6.8751-6.2464,1.6763-2.0655,3.1631-4.2707,4.2807-6.3961.2594-.4889.4889-.9879.7184-1.4868-.1796.5588-.3692,1.1176-.5787,1.6963-.938,2.5644-2.0256,4.8395-3.223,6.7753-1.7462,2.8039-3.8716,5.039-5.997,6.2963-1.9757,1.1575-3.9813,2.3349-5.957,3.4924-10.2876,6.0269-21.3735,12.4629-34.8841,20.256-11.2256,6.4659-22.4512,12.9119-33.6768,19.3579l-2.305,1.3171c-11.9939,6.885-23.9879,13.7701-35.9818,20.695-11.9939,6.9249-23.9679,13.8798-35.9419,20.8347l-3.213,1.8659c-10.9063,6.3362-21.8126,12.6724-32.7288,18.9787-13.1514,7.6035-23.938,13.79-33.9262,19.4777l-1.6165-.928.01-.01ZM323.836,513.3714c10.0082-5.7375,20.9345-12.0239,33.3874-19.2182,11.2256-6.4859,22.4612-12.9918,33.6967-19.4976l2.2751-1.3171c11.9939-6.9449,23.9878-13.8898,35.9818-20.8147,11.9839-6.9249,23.9679-13.82,35.9419-20.715l4.7796-2.754c10.3874-5.977,20.7649-11.954,31.1623-17.951,13.341-7.6933,24.4369-14.1293,34.944-20.236l5.977-3.4824c2.1952-1.2772,4.6299-3.4924,6.8751-6.2464,1.6763-2.0655,3.1631-4.2707,4.2807-6.3961.2594-.4889.4889-.9879.7184-1.4868-.1796.5588-.3592,1.1076-.5787,1.6863-.938,2.5644-2.0256,4.8395-3.223,6.7753-1.7462,2.8039-3.8716,5.039-5.997,6.2963-1.9757,1.1575-3.9813,2.3349-5.957,3.4924-10.1878,5.967-21.2738,12.403-34.8841,20.256-11.4052,6.5757-22.8104,13.1215-34.2156,19.6672l-1.7562,1.0078c-11.9939,6.885-23.9879,13.7701-35.9818,20.695-11.9839,6.9249-23.9679,13.8798-35.9419,20.8347l-1.8161,1.0577c-11.3753,6.6056-22.7406,13.2113-34.1158,19.787-13.2013,7.6334-23.9878,13.82-33.9262,19.4777-.5388-.3093-1.0777-.6187-1.6165-.928l-.01.0099ZM352.9128,530.155c10.0781-5.7774,20.715-11.9041,33.3874-19.2182,10.4872-6.0568,20.9844-12.1436,31.4816-18.2204l4.4902-2.6043c11.9939-6.9449,23.9878-13.8898,35.9818-20.8147,11.984-6.9249,23.9679-13.82,35.9418-20.715l3.3128-1.9059c10.8763-6.2564,21.7527-12.5128,32.6291-18.7892,13.0417-7.5236,24.4668-14.1393,34.9341-20.236l5.977-3.4824c2.1952-1.2772,4.6299-3.4924,6.8751-6.2464,1.6763-2.0655,3.1631-4.2707,4.2807-6.3961.2594-.4889.4889-.9879.7184-1.4868-.1796.5588-.3692,1.1176-.5787,1.6963-.938,2.5644-2.0256,4.8395-3.223,6.7753-1.7462,2.8039-3.8716,5.039-5.997,6.2863h0c-1.9757,1.1575-3.9813,2.3349-5.957,3.5024-10.2278,5.997-21.3136,12.433-34.8841,20.256-10.8165,6.2364-21.6529,12.4529-32.4794,18.6694l-3.4924,2.0056c-11.9939,6.885-23.9879,13.7701-35.9818,20.695-11.984,6.9249-23.9679,13.8798-35.9419,20.8347l-2.1054,1.2273c-11.2755,6.5458-22.551,13.1015-33.8264,19.6174-13.1714,7.6135-23.9679,13.81-33.9262,19.4777-.5388-.3093-1.0777-.6187-1.6165-.928h0ZM616.0706,388.7923c1.7761,1.0477,3.213,2.2551,4.131,3.5124,1.0876,1.4868,1.5067,3.0933,1.2573,4.6399.0199-1.4269-.459-2.8638-1.4369-4.2009-.948-1.2972-2.3848-2.5345-4.151-3.6121.0499-.1197.1197-.2295.2095-.3293l-.01-.01ZM615.452,392.2548c.0798-.6885.1597-1.377.2395-2.0755,1.4967.9579,2.7241,2.0256,3.5223,3.1332,1.0078,1.387,1.4169,2.8737,1.1874,4.2907v.0299c-.0699.4291-.2095.8482-.4191,1.2872-.2295.459-.5288.9479-.8781,1.397-.3692.479-.7883.928-1.2573,1.3471s-1.0278.8382-1.6763,1.2672c-.6187.4091-1.2972.7983-2.0455,1.2373l-.5288.3093s.0199-.0599.0299-.0998c.3692-1.2473.6286-2.4646.7983-3.6022h0l.2095-1.4967c.1597-1.1375.2993-2.285.4291-3.4425.0898-.8282.1796-1.6464.2694-2.4846l.1197-1.1076v.01ZM587.0038,371.9888c4.7796,2.7141,9.5393,5.4382,14.279,8.1822,4.6499,2.6842,9.2798,5.3783,13.8998,8.0924-.0798.0998-.1397.2095-.1996.3293-4.6399-2.6642-9.2898-5.3484-13.9596-8.0425-4.7297-2.7241-9.4694-5.4681-14.2291-8.2321.0499-.1197.1297-.2295.2095-.3293h0ZM586.6147,373.3559c4.6499,2.7041,9.2898,5.3783,13.9197,8.0525,4.7397,2.7341,9.4594,5.4581,14.1692,8.1623-.1397.8182-.2694,1.6265-.4091,2.4447l-.0599.3293c-.1796,1.0477-.3592,2.1054-.5288,3.1531-.1796,1.1275-.3492,2.2551-.5089,3.4026l-.2095,1.4868h0v.01c-.1597,1.1475-.4091,2.315-.7584,3.4625-.1796.5887-.3892,1.1774-.6087,1.7662l-223.0949,128.8h0c-.7883.459-1.5067.8681-2.2551,1.2373-.7983.3991-1.5965.7484-2.4247,1.0377-.7484.2694-1.5666.5189-2.4247.7284-.9679.2395-1.9458.439-2.9037.5887-.8681.1297-1.7662.2195-2.6542.2694-.8282.0399-1.6763.0499-2.5145.02-.8482-.0299-1.6963-.0998-2.5445-.2096-.8581-.1098-1.7163-.2594-2.5544-.449-.8482-.1896-1.6863-.4191-2.4946-.6885-.7683-.2495-1.5167-.5488-2.2252-.8681-.6885-.3093-1.3571-.6586-1.9857-1.0278,0,0-.02,0-.0299-.01l-.02-.01h0c-1.9458-1.1076-3.9015-2.2152-5.8473-3.3328-.0399-.02-.0798-.0499-.1197-.0699,9.8186-5.5879,20.4655-11.7045,33.4173-19.1883,11.2855-6.5258,22.5609-13.0716,33.8364-19.6174l2.1054-1.2273c11.974-6.9549,23.9579-13.9098,35.9418-20.8347,11.984-6.9249,23.9879-13.81,35.9818-20.695l3.4924-2.0056c10.8265-6.2165,21.6629-12.433,32.4794-18.6694,13.5705-7.823,24.6564-14.269,34.8941-20.2659,1.9757-1.1575,3.9813-2.3349,5.957-3.5024h0c2.2551-1.3371,4.5102-3.682,6.3362-6.6256,1.2373-1.9957,2.3549-4.3306,3.3128-6.9549,1.0776-2.9436,1.7761-5.6577,2.0655-8.0725.2694-2.2252.5288-4.4503.7883-6.6855l.459-3.9514.0199.01ZM557.927,355.2053c4.7796,2.7141,9.5393,5.4382,14.279,8.1822,4.6499,2.6842,9.2798,5.3883,13.8998,8.0924-.0798.0998-.1397.2095-.1996.3293-4.6399-2.6642-9.2898-5.3484-13.9596-8.0425-4.7297-2.7241-9.4694-5.4681-14.2291-8.2321.0499-.1197.1297-.2295.2095-.3293h0ZM557.5379,356.5724c4.6499,2.7041,9.2898,5.3783,13.9197,8.0525,4.7397,2.7341,9.4594,5.4581,14.1792,8.1623-.5887,3.6022-1.1675,7.2043-1.7163,10.8065-.3692,2.4147-1.2573,4.9991-2.5644,7.4737-1.0976,2.0655-2.5345,4.2208-4.1809,6.2364-2.1653,2.6542-4.5102,4.7896-6.6056,6.0169l-5.977,3.4824c-10.4672,6.0868-21.8924,12.7124-34.9341,20.236-10.8763,6.2763-21.7527,12.5327-32.6291,18.7892l-3.3128,1.9059c-11.984,6.895-23.9579,13.79-35.9418,20.715-11.984,6.9249-23.9879,13.8698-35.9818,20.8147l-4.4902,2.6043c-10.4972,6.0768-20.9944,12.1536-31.4816,18.2204-12.882,7.4438-23.6586,13.6403-33.8863,19.5076-.6985-.3991-1.397-.7983-2.0855-1.1974-1.9358-1.1176-3.8716-2.2351-5.8074-3.3527s-3.8616-2.2451-5.7874-3.3627c-1.9258-1.1276-3.8516-2.2451-5.7675-3.3727h-.02l-.01-.01h0c-1.9458-1.1076-3.9015-2.2152-5.8473-3.3328-.0399-.02-.0798-.0499-.1197-.0699,9.7987-5.5779,20.4456-11.6946,33.4173-19.1883,11.3753-6.5757,22.7505-13.1813,34.1158-19.787l1.8161-1.0577c11.974-6.9549,23.9579-13.9098,35.9419-20.8347,11.984-6.9249,23.9879-13.81,35.9818-20.695l1.7562-1.0078c11.4152-6.5458,22.8204-13.0915,34.2256-19.6672,13.6204-7.8529,24.7063-14.2889,34.8941-20.2659,1.9757-1.1575,3.9813-2.3349,5.957-3.5024,2.2651-1.3371,4.5102-3.682,6.3362-6.6256,1.2373-1.9957,2.3549-4.3306,3.3128-6.9549,1.0776-2.9436,1.7761-5.6577,2.0655-8.0724h0c.2694-2.2252.5288-4.4603.7883-6.6954l.459-3.9514-.02-.02ZM528.8502,338.4118c4.7796,2.7141,9.5393,5.4382,14.279,8.1822,4.6499,2.6842,9.2798,5.3883,13.8998,8.0924-.0798.0998-.1397.2095-.1996.3293-4.6399-2.6642-9.2898-5.3484-13.9596-8.0425-4.7297-2.7341-9.4694-5.4681-14.2291-8.2321.0499-.1197.1297-.2295.2095-.3293h0ZM528.4611,339.7888c4.6499,2.7041,9.2898,5.3783,13.9197,8.0525,4.7397,2.7341,9.4594,5.4581,14.1792,8.1623-.5887,3.6022-1.1675,7.1944-1.7163,10.8065h0c-.3692,2.4147-1.2573,4.9991-2.5644,7.4737-1.0976,2.0655-2.5445,4.2208-4.1809,6.2265-2.1653,2.6642-4.5102,4.7996-6.6056,6.0169l-5.977,3.4824c-10.4972,6.1067-21.603,12.5327-34.9341,20.236-10.3874,5.997-20.7748,11.974-31.1623,17.951l-4.7796,2.754c-11.974,6.895-23.9579,13.79-35.9419,20.715-11.9839,6.9249-23.9878,13.8698-35.9818,20.8147l-2.2751,1.3171c-11.2356,6.5059-22.4711,13.0117-33.6967,19.4976-12.6625,7.3141-23.7484,13.7002-33.8863,19.5076-.6985-.3991-1.387-.7983-2.0855-1.1974-1.9358-1.1176-3.8716-2.2351-5.8074-3.3527s-3.8616-2.2451-5.7874-3.3627c-1.9258-1.1276-3.8516-2.2451-5.7675-3.3727h-.02l-.01-.01h0c-1.9557-1.1076-3.9015-2.2152-5.8473-3.3328-.0399-.02-.0798-.0499-.1197-.0699,9.8486-5.6078,20.4954-11.7145,33.4173-19.1883,10.9163-6.3063,21.8225-12.6425,32.7288-18.9787l3.213-1.8659c11.974-6.9549,23.9579-13.9098,35.9419-20.8347,11.9839-6.9249,23.9879-13.81,35.9818-20.695l2.305-1.3171c11.2256-6.446,22.4512-12.892,33.6768-19.3579,13.5206-7.7931,24.6065-14.2291,34.8941-20.2659,1.9757-1.1575,3.9813-2.3349,5.957-3.5024,2.2651-1.3271,4.5102-3.682,6.3362-6.6256,1.2373-1.9957,2.3549-4.3306,3.3128-6.9549,1.0776-2.9436,1.7761-5.6577,2.0655-8.0724.2694-2.2252.5288-4.4503.7883-6.6855l.459-3.9514-.0299-.02ZM499.7735,321.6283c4.7796,2.7141,9.5393,5.4382,14.279,8.1822,4.6499,2.6842,9.2798,5.3883,13.8998,8.0924-.0798.0998-.1397.2095-.1996.3293-4.6399-2.6642-9.2898-5.3484-13.9596-8.0425-4.7297-2.7241-9.4694-5.4681-14.2291-8.2321.0499-.1197.1297-.2295.2095-.3193v-.01ZM499.3843,322.9954c4.6499,2.7041,9.2898,5.3783,13.9197,8.0525,4.7397,2.7341,9.4594,5.4581,14.1792,8.1623-.5887,3.6022-1.1675,7.1944-1.7163,10.8065-.3692,2.4147-1.2573,4.9991-2.5644,7.4737-1.0976,2.0655-2.5345,4.2208-4.1809,6.2265-2.1653,2.6642-4.5102,4.7996-6.6056,6.0169l-5.977,3.4824c-10.4573,6.0868-21.5631,12.5128-34.9341,20.236-11.1059,6.4061-22.2017,12.7922-33.2976,19.1783l-2.6343,1.5167c-11.9839,6.895-23.9579,13.79-35.9419,20.715-11.9839,6.9249-23.9879,13.8698-35.9818,20.8147l-5.0091,2.8937c-10.3276,5.977-20.6551,11.964-30.9727,17.921-13.0416,7.5336-23.8182,13.7401-33.8863,19.5076-.6985-.3991-1.387-.7983-2.0855-1.1974-1.9358-1.1176-3.8716-2.2351-5.8074-3.3527s-3.8616-2.2451-5.7874-3.3627c-1.9258-1.1276-3.8516-2.2451-5.7675-3.3727h0s-.01-.01-.02-.02h0c-1.9458-1.1076-3.9015-2.2152-5.8373-3.3328-.0399-.02-.0798-.0499-.1197-.0699,9.8187-5.5879,20.4655-11.7045,33.4173-19.1883,11.2755-6.5158,22.551-13.0616,33.8165-19.6074l2.1254-1.2373c11.974-6.9549,23.9579-13.9098,35.9419-20.8347,11.9839-6.9249,23.9878-13.81,35.9818-20.695l2.7241-1.5666c11.0859-6.3662,22.1718-12.7223,33.2577-19.1184,13.5705-7.823,24.6564-14.269,34.8941-20.2659,1.9757-1.1575,3.9813-2.3349,5.957-3.5024h0c2.2551-1.3371,4.5102-3.682,6.3362-6.6256,1.2373-1.9957,2.3549-4.3306,3.3128-6.9549,1.0776-2.9436,1.7761-5.6577,2.0655-8.0724h0c.2694-2.2152.5288-4.4304.7783-6.6456.1497-1.3271.3093-2.6642.469-3.9913l-.0499.01ZM470.6967,304.8448c4.7796,2.7141,9.5393,5.4382,14.279,8.1822,4.6499,2.6842,9.2798,5.3883,13.8998,8.0924-.0798.0998-.1397.2095-.1996.3293-4.6399-2.6642-9.2898-5.3484-13.9596-8.0425-4.7297-2.7241-9.4694-5.4681-14.2291-8.2321.0499-.1197.1297-.2295.2095-.3193v-.01ZM470.078,308.3273c.0798-.7085.1597-1.4069.2395-2.1054,4.6499,2.6941,9.2898,5.3783,13.9098,8.0525,4.7397,2.7341,9.4594,5.4581,14.1792,8.1623-.5887,3.6022-1.1675,7.2043-1.7163,10.8065-.3692,2.4147-1.2573,4.9991-2.5644,7.4737-1.0976,2.0655-2.5345,4.2208-4.1809,6.2364-2.1653,2.6542-4.5102,4.7896-6.6056,6.0169l-5.977,3.4824c-10.4473,6.0768-21.8725,12.6924-34.934,20.236-10.4273,6.0169-20.8547,12.0139-31.272,18.0108l-4.6599,2.6842c-11.974,6.895-23.9579,13.79-35.9419,20.715-11.9839,6.9249-23.9878,13.8698-35.9818,20.8147l-3.1931,1.846c-10.9262,6.3262-21.8625,12.6625-32.7787,18.9688-12.6924,7.3341-23.7783,13.7102-33.8863,19.5076-.6985-.3991-1.387-.7983-2.0855-1.1974-1.9358-1.1176-3.8716-2.2351-5.8074-3.3527s-3.8616-2.2451-5.7874-3.3627c-1.9258-1.1276-3.8516-2.2451-5.7675-3.3727h-.02l-.01-.01h0c-1.9557-1.1076-3.9015-2.2152-5.8473-3.3328-.1696-.0998-.3293-.1896-.4989-.2894,17.1228-9.8386,34.2954-19.767,49.0833-28.3084l18.7991-10.8763c12.5427-7.2542,25.0755-14.5085,37.6182-21.7527,12.4729-7.2043,24.9358-14.3887,37.4087-21.5631l18.9887-10.9362c17.0729-9.8386,36.9197-21.2837,56.4074-32.6191h0c.1197-.0698.2095-.1297.3193-.1996.1097-.0698.2195-.1497.3193-.2395.2095-.1597.3991-.3492.5887-.5488.1197-.1297.2395-.2694.3592-.4091.1297-.1497.2594-.3093.3792-.479l.1197-.1397c.2395-.2993.4889-.5987.7384-.8881l.449-.5189c.2993-.3393.5887-.6885.8881-1.0377.439-.5388.8781-1.0876,1.2872-1.6664.439-.6087.8681-1.2273,1.2573-1.8659.5488-.8681,1.0776-1.7961,1.5666-2.744.5288-1.0278,1.0278-2.0954,1.4768-3.1731.5388-1.3072.9878-2.6043,1.3471-3.8416.3592-1.2473.6187-2.4646.7883-3.6022h0l.2095-1.4967c.1497-1.1475.2993-2.295.4291-3.4525.1097-.928.2095-1.8659.3093-2.7939l.0898-.7983-.04-.0399ZM447.0481,302.9789c1.7263-.6286,3.6421-1.1076,5.6976-1.4169s4.2607-.3892,6.3762-.2395c2.6043.1896,5.1987.7384,7.5037,1.5766,1.1076.4091,2.1553.898,3.1531,1.4469-.0798.0998-.1397.2195-.1996.3293-.9978-.5388-2.0655-1.0278-3.1931-1.4269-2.2751-.8082-4.8096-1.3371-7.3341-1.5367-2.1054-.1597-4.1809-.0898-6.1965.2195-1.9857.2993-3.9215.7883-5.5879,1.4169-1.5367.5787-2.9037,1.2972-4.1709,2.0256-.0699-.1397-.1397-.2694-.2295-.3892,1.2573-.7085,2.6043-1.4269,4.1709-2.0056h.01ZM442.0091,305.4735c.0998.1098.1796.2495.2395.3892l-224.7414,129.7579c-.0698-.1397-.1397-.2694-.2295-.3892l224.7314-129.7579ZM210.3228,441.4578c.1996-.449.469-.918.7883-1.377.7484-1.0777,1.7761-2.0755,3.0633-2.9636.6685-.469,1.4169-.908,2.2252-1.377.0998.1098.1796.2495.2395.3892-.7983.469-1.5466.908-2.2052,1.3571-1.3171.908-2.3848,1.9258-3.1432,3.0135-.3393.4889-.6286.9779-.8382,1.4568-.3792.8382-.5588,1.7163-.5488,2.6043-.1597-1.0477-.0299-2.1054.4291-3.1132l-.01.01Z"/>
  </g>
  <g id="Layer_3" data-name="Layer 3">
    <path d="M187.46,444.82v43.18c0,6.2,4.27,12.15,11.86,16.53l146.37,84.51c14.3,8.25,36.61,9,52.45,2.39-7.88,4.48-18.15,6.72-28.43,6.72h-60.18c-9.3108.004-18.4593-2.4374-26.53-7.08l-150.78-85.54c-8.1746-4.6181-11.0576-14.9886-6.4395-23.1632,1.4998-2.6548,3.686-4.8573,6.3295-6.3768l55-31.76h.36c-.0137.1964-.017.3933-.01.59Z"/>
    <path d="M700.65,709.26v.13c-8.7004.9085-17.4423,1.3625-26.19,1.36-79.53,0-144-37-144-82.6,0-28.88,25.85-54.3,65-69.07-4.5357,7.8699-6.9639,16.777-7.05,25.86v43.21c-.02,39.62,47.98,72.77,112.24,81.11Z"/>
  </g>
</svg>