<?xml version="1.0" encoding="UTF-8"?>
<svg xmlns="http://www.w3.org/2000/svg" viewBox="0 0 1000 1000">
  <g id="Layer_2" data-name="Layer 2">
    <path d="M484.36,660.27v.12c-1.93.4-125.69,26.25-135.61,28s-13.66.17-17-2-6.54-4.22-12.07-3.13c-10.52,2.06-23.73,7.51-29.07,4.38-6.94-4.07,6.17-8.63,11-10.66,4.18-1.75,8.78-3.36,3.71-6s-6.52-4.53-14.81-2.42c-12.26,3.11-21.51,6.41-25.78,3.91-6.89-4.05,6.53-8.83,11.3-10.56s8.23-3.41,4.43-5.51c-6.07-3.37-8.17-4.34-15.05-2.56-8.43,2.18-21.12,6.64-25.92,3.82-5.39-3.16,5.65-7.92,9.51-9.86s9.14-4.49,4.39-7.27c-5.21-3.06-6.88-4-15.24-1.17-7.26,2.49-18.5,6.29-22.93,3.86-5.64-3.1,2.62-7.64,10.95-11.2,4.16-1.77,7.67-3,4.13-5-4-2.34-6.74-4.08-14.83-2.82-7.45,1.16-23.6,5.82-27.28,3.38-5.22-3.48,5.8-8,9.42-9.66s9.28-4.68,5.15-7.05c-4.3-2.47-3-7.55,2.32-10.53s132.92-75.9901,132.92-75.9901v53.15c0,3,2,5.78,5.64,7.87l124.29,71.76c4.44,2.59,10.6,3.63,16.43,3.14Z"/>
  </g>
  <g id="Layer_3" data-name="Layer 3">
    <path d="M592.9748,479.4284c.0108.0256.0119.0531.0262.0778.009.0155.022.0268.032.0414.0119.0174.0246.033.0382.0494.0488.0583.1034.1092.1663.1467.0029.0017.0044.0047.0073.0065l8.1372,4.6981c.0009.0005.0019.0006.0028.0011.033.0188.0691.0303.1046.0432.0737.0268.149.0448.2249.0448.0002,0,.0005,0,.0007,0s.0005,0,.0007,0c.0759,0,.1512-.018.2249-.0448.0355-.0129.0716-.0244.1046-.0432.0009-.0005.0019-.0006.0028-.0011l1.6435-.9485c.003-.0017.0045-.0047.0073-.0065.063-.0375.1176-.0884.1663-.1467.0137-.0163.0263-.032.0382-.0494.01-.0145.023-.0258.032-.0414.0142-.0247.0154-.0521.0262-.0778.0181-.043.0348-.0842.0437-.1299.0082-.0423.0089-.0829.0087-.1253.0001-.0424-.0006-.083-.0087-.1253-.0089-.0457-.0256-.087-.0437-.1299-.0108-.0256-.0119-.0531-.0262-.0778-.0069-.012-.0188-.0185-.0264-.0299-.0246-.0376-.0564-.0682-.0888-.1005-.0318-.0316-.0618-.0627-.0985-.0869-.0115-.0076-.018-.0196-.0302-.0266l-2.3285-1.344c.0118-.0041.0228-.0089.0346-.013.0911-.0208.1821-.0423.2791-.0532.1209-.0143.2471-.013.3727-.0133v.0013c.2328.014.4663.0283.6985.0472.4306.0348.8559.0855,1.2812.1363.0009,0,.0018,0,.0027.0001.0002,0,.0003.0001.0005.0001l2.9585.3366c.026.0029.0513.0042.0761.0042.0715,0,.1424-.0159.2121-.0395.02-.0068.0383-.015.0575-.0237.0208-.0093.0426-.0142.0627-.0259l1.9647-1.1345c.0172-.0099.0268-.0265.0427-.0376.0408-.0284.0764-.0603.11-.0971.0242-.0266.0467-.0522.0661-.0819.0247-.0377.0423-.0782.0591-.121.0142-.0364.0279-.0711.0356-.1094.003-.0148.0117-.0268.0137-.0421.0037-.0273-.0056-.0522-.0053-.0791.0007-.0463,0-.0908-.0091-.1369-.0091-.0456-.0252-.0864-.0432-.1285-.0106-.0251-.0116-.052-.0256-.0763-.0073-.0127-.0198-.0194-.0278-.0314-.0261-.0393-.0583-.0712-.0921-.1042-.0292-.0284-.0563-.0572-.0896-.0794-.0342-.023-.072-.0374-.1106-.0539-.043-.0183-.084-.0356-.1297-.0446-.0139-.0028-.0248-.0115-.0391-.0135l-2.5813-.343c-.0029-.0003-.0055.0009-.0084.0006-.0033-.0005-.0058-.0027-.0091-.0032-.4468-.0601-.8936-.1203-1.3449-.16-.305-.027-.612-.0442-.9196-.0618l-.001.0105c-.0089-.0009-.0168-.0047-.0259-.0053l.0003-.0069-.0004.0069c-.013-.0008-.024-.0075-.0373-.0075-.0025,0-.0045.0014-.0069.0014-.0031,0-.0056-.0017-.0087-.0017h-.0052c-.0398.0003-.079.0029-.1187.0033.051-.1767.0782-.3456.0992-.4931.0003-.0017-.0005-.0034-.0003-.0051.0049-.0358-.0052-.0732-.0063-.11-.0018-.0522.0021-.1054-.0113-.1545-.0003-.0012,0-.0023-.0003-.0035-.0696-.2504-.1568-.5619-.3948-.8607-.2302-.2894-.5489-.4991-.8572-.7021-.0107-.0071-.0233-.0075-.0343-.0139-.0104-.0061-.0166-.0164-.0275-.022-.2641-.1363-.5378-.277-.8701-.3843-.3102-.0995-.6361-.1577-.9515-.214l-.0017.0095c-.0009-.0001-.0016-.0006-.0025-.0007-.0201-.0036-.0368-.0152-.0575-.017-.3174-.0273-.6464-.0553-.9872-.0358-.331.0195-.6347.0836-.9287.1454l.0025.0117c-.0296.0058-.059.0017-.0883.0117-.3343.1151-.6679.2312-.9794.3645-.4604.1977-.8617.4286-1.2493.652-.0003.0001-.0003.0004-.0006.0005-.0005.0003-.0009.0002-.0014.0005l-3.4579,1.9963c-.0118.0069-.0183.0186-.0296.026-.0375.0246-.0682.0563-.1005.0886-.0318.032-.0631.0622-.0874.0992-.0076.0115-.0195.018-.0264.03-.0142.0247-.0154.0521-.0262.0778-.0181.043-.0348.0842-.0437.1299-.0082.0423-.0089.0829-.0087.1253-.0001.0424.0006.083.0087.1253.0089.0457.0256.087.0437.1299h-.0003ZM604.8568,479.7951c.0669.005.1343.0076.201.0135.4312.038.8572.0956,1.3033.1561.0005,0,.0009,0,.0013,0l.6399.085-.0792.0457-2.0663-.2351v-.0654h0ZM601.5433,476.9409c.1038.0338.2045.0763.305.1222v.5686c-.0392-.0601-.0839-.1229-.1444-.1865-.051-.0534-.1059-.096-.1606-.1386v-.3657h0ZM597.9963,480.9551l-.7329-.4232v-.359l.7329.4232v.359ZM599.4637,480.5298c-.0194.0225-.037.0444-.0531.069-.0076.0115-.0194.0179-.0264.0299-.0071.0121-.0067.0259-.0128.0383-.013.026-.0233.0519-.0328.0798-.0025.0073-.0079.0135-.0102.0209v-.1716l.1486-.0858c-.0053.0057-.008.0136-.0131.0194h0ZM600.5886,479.8716c-.0037.0015-.0078.0028-.0115.0043.0039-.0023.0077-.0044.0115-.0066v.0023ZM600.627,482.1151l1.399.8076-.311.1795-1.0881-.6283v-.3589h0ZM599.8166,476.7694c.0707-.0097.1424-.0222.2114-.0263.0582-.0031.1223.0009.1834.0013v.038c-.0324-.0036-.0671-.0085-.0982-.0117-.0122-.0013-.0228.0039-.0348.0032-.0119-.0007-.0221-.0068-.0341-.0068h-.0124c-.0733.0013-.1426.0121-.2152.0154v-.0131h0ZM598.9998,478.409c.1223-.0654.2467-.1295.3709-.1933.1121-.0408.2188-.0787.3139-.0946.1049-.0177.2182-.0179.3315-.0197.1073.0109.2149.0196.3097.0454.0827.0225.1722.0691.2709.1201-.0565.0438-.1095.0887-.1694.1312-.2563.1821-.5574.3518-.876.531-.0011.0006-.0016.0017-.0027.0023-.0012.0007-.0027.0006-.0039.0013l-.8825.5095-.7325-.4229.283-.1634c.0005-.0003.0007-.0009.0013-.0011.0007-.0003.0013-.0005.002-.0008.2575-.1509.5157-.3014.7837-.4452h0ZM597.3687,477.7538s.0006-.0007.001-.0009c.371-.2134.7219-.4152,1.1098-.5819.0017-.0007.0035-.0012.0052-.0019v.0064c-.0378.0198-.0762.0392-.1138.0593-.2816.1512-.5529.3095-.8235.4674-.0001,0-.0003,0-.0005.0001l-1.2825.7401c-.0119.0069-.0184.0187-.0297.0262-.0248.0162-.0468.034-.0695.0535-.0236.0205-.0445.0414-.0651.065-.0195.0225-.037.0445-.0532.0691-.0076.0115-.0195.018-.0264.03-.0071.0121-.0067.0259-.0128.0383-.013.0259-.0232.0517-.0328.0794-.0104.03-.0182.0589-.0242.09-.0057.0293-.0097.0572-.0115.0866-.0008.0135-.0078.025-.0078.0386v.7436l-1.0215-.5898,2.4587-1.4194h0ZM646.0099,457.8566c-.0001-.0457-.0166-.0894-.0261-.1344-.008-.0378-.008-.0765-.0227-.1126-.0011-.0027-.0015-.0053-.0027-.008-.0279-.0665-.0715-.1233-.1183-.1768-.0089-.0102-.012-.0233-.0216-.0331-.0008-.0008-.0015-.0016-.0023-.0023-.0006-.0006-.0012-.0013-.0018-.0019-.0006-.0006-.0011-.0012-.0017-.0018-.0003-.0003-.0004-.0007-.0007-.0011-.0003-.0002-.0005-.0003-.0008-.0005-2.3715-2.409-4.2168-4.9798-5.4823-7.6415-.0089-.0186-.0253-.0301-.0356-.0475-.0233-.0394-.05-.0737-.0807-.1076-.0288-.0316-.0574-.0601-.091-.0852-.033-.0248-.0679-.044-.1056-.0625-.0421-.0206-.0835-.0368-.1289-.0482-.0192-.0049-.0344-.0171-.0543-.0203-4.7645-.7655-8.5267-2.9058-9.819-5.5855-.0085-.0177-.0242-.0284-.034-.045-.0234-.0397-.0505-.074-.0815-.1081-.0289-.0316-.0575-.0605-.0913-.0855-.0331-.0247-.0682-.0434-.1059-.0619-.0413-.02-.0817-.0363-.1263-.0474-.0193-.0049-.0346-.0172-.0547-.0205-.175-.0282-.346-.0639-.519-.0959v-14.5904c0-4.9537-1.7052-8.6663-4.8016-10.4541-.0003-.0001-.0006-.0003-.0009-.0005l-3.0512-1.7617c-3.0976-1.7875-7.1656-1.408-11.454,1.0689l-6.1211,3.534v-7.068c0-4.9537-1.7052-8.6663-4.8016-10.4541-.0003-.0001-.0006-.0003-.0009-.0005l-3.0512-1.7617c-3.0963-1.7882-7.1636-1.4086-11.4546,1.0689l-6.1211,3.534v-7.068c0-4.953-1.7048-8.6655-4.8002-10.4532-.0005-.0003-.0008-.0009-.0013-.0011l-3.0514-1.7618c-3.097-1.7872-7.1656-1.4083-11.4546,1.0689l-6.1211,3.534v-7.068c0-4.953-1.7048-8.6655-4.8002-10.4532-.0005-.0003-.0008-.0009-.0013-.0011l-3.0514-1.7618c-3.097-1.7878-7.1656-1.4083-11.4546,1.0689l-6.1211,3.534v-7.068c0-4.953-1.7048-8.6655-4.8002-10.4532-.0005-.0003-.0008-.0009-.0013-.0011l-3.0514-1.7618c-3.097-1.7875-7.1656-1.4083-11.4546,1.0689l-26.2016,15.1275c-10.9987-.9057-24.9421,11.1298-31.6221,27.1509-.8568.2524-1.752.4627-2.6775.6109-.0192.0031-.0338.015-.0524.0196-.0458.0113-.0876.0279-.1301.0487-.0371.0182-.0717.0367-.1044.061-.0342.0252-.063.0543-.0921.0862-.0308.0338-.0576.0677-.0809.107-.0101.017-.0261.028-.0348.0461-.7924,1.6447-2.5474,3.1178-4.9476,4.1794-.0816-.0511-.1604-.1063-.244-.1546-.0003-.0002-.0005-.0005-.0008-.0007l-3.0514-1.7618c-3.0963-1.7872-7.1646-1.408-11.4546,1.0689l-26.2012,15.1273c-11.1144-.9114-25.2336,11.3825-31.8285,27.6536-1.3163.5251-2.7623.9223-4.3123,1.1712-.0201.0032-.0354.0156-.0548.0205-.0436.011-.0832.0268-.1237.0463-.0392.0189-.0756.0384-.1097.0641-.0329.0244-.0607.0525-.0888.0832-.0314.0342-.0588.0687-.0824.1085-.0101.0168-.026.0278-.0348.0458-1.2916,2.6818-5.0552,4.8227-9.8226,5.5881-.0207.0033-.0366.016-.0564.0211-.0425.0108-.0811.0263-.1207.0452-.0399.0191-.0769.0388-.1117.0651-.0326.0242-.0601.0522-.0881.0825-.0314.0343-.0589.0688-.0826.1088-.0101.0168-.026.0278-.0348.0457-1.2916,2.6814-5.0552,4.8223-9.8226,5.5878-.0196.0031-.0345.0153-.0533.02-.0456.0115-.0872.0278-.1295.0485-.0376.0184-.0724.0376-.1054.0623-.0337.0251-.0623.0537-.0911.0853-.0309.034-.0577.0685-.081.108-.0103.0173-.0266.0287-.0354.0472-1.2679,2.6652-3.1152,5.2386-5.4909,7.6488-.0184.0186-.0254.0429-.0412.0631-.0366.0466-.0752.0919-.0984.1473-.0009.0023-.0014.0047-.0023.0069-.0164.0406-.0174.084-.0256.1265-.0078.0408-.0234.0802-.0236.1216,0,.0008-.0005.0014-.0005.0023v107.6629c0,3.2063,2.1133,6.192,5.9507,8.4071l123.7535,71.4494c3.8312,2.2118,8.8623,3.3174,13.895,3.3174s10.0645-1.1062,13.895-3.3174l144.4357-83.3906c3.837-2.2157,5.9501-5.2009,5.9501-8.4064v-107.6632c0-.0009-.0005-.0015-.0005-.0023l.0003-.0004ZM629.0011,454.3927l.2218.128c1.5966.9216,2.4752,2.1072,2.4752,3.3379s-.8786,2.4167-2.4752,3.3382l-.2218.1281v-6.9322h0ZM623.5269,419.4269l.006.0035c.0006.0003.0012.0005.0018.0008,2.6657,1.54,4.1344,4.8428,4.1344,9.2999v33.3628l-17.8661,10.3148c-10.7528-.6189-20.4473,3.9907-21.6642,10.3369-.0857.4469-.1283.8972-.1281,1.3474v.8976l-25.5874,14.773-5.9793-3.4522v-25.6896c0-9.5026,6.6947-21.0986,14.9243-25.8495l42.0426-24.273c3.8574-2.2272,7.4497-2.6072,10.116-1.0723h0ZM610.3594,418.7374c3.3195-1.9174,6.5506-2.4571,9.0666-1.5556-2.0819.095-4.3483.8167-6.6811,2.1637l-42.0426,24.273c-8.5963,4.9631-15.5902,17.0766-15.5902,27.0032v24.9205l-1.7195-.9927v-25.6896c0-9.5026,6.6947-21.0986,14.9243-25.8495l42.0426-24.273h0ZM552.6681,461.4248c5.8707-14.9709,18.2262-26.6042,28.5259-27.3871l-13.5431,7.819c-8.5963,4.9631-15.5902,17.0766-15.5902,27.0032v18.0392c-3.4877-5.7789-3.3187-15.4604.6074-25.4743h0ZM552.0607,489.2159v4.5645l-3.7538-2.1674v-12.6445c.3524,4.1167,1.6088,7.6441,3.7538,10.2473ZM598.0982,404.7455l.006.0035c.0006.0003.0012.0005.0018.0008,2.6657,1.54,4.1344,4.8428,4.1344,9.2999v7.8369l-18.7487,10.8245c-11.2283-.9295-25.571,11.6709-32.0631,28.2272-1.8375,4.6858-2.8742,9.2432-3.1454,13.4106-.2104-4.4661-1.8867-7.8126-4.7761-9.482-.0007-.0004-.001-.0011-.0017-.0015l-3.0514-1.7618c-2.6068-1.5043-5.9029-1.4678-9.4386.0567v-7.22c0-9.5026,6.6947-21.0986,14.9243-25.8495l42.0426-24.273c3.8573-2.2276,7.449-2.608,10.116-1.0723h0ZM548.3069,500.9816l6.0032,3.4658-6.0032,3.466v-6.9318ZM475.7498,517.2105s0-.0002,0-.0003c0-9.5023,6.695-21.098,14.9243-25.8491l42.0426-24.273s.0006-.0006.001-.0009c3.8595-2.2289,7.4536-2.6079,10.1211-1.0683,2.6671,1.54,4.1362,4.8432,4.1362,9.301v33.3625l-17.8653,10.3147c-10.7497-.623-20.4481,3.9911-21.6649,10.337-.0857.4469-.1283.8972-.1281,1.3474v.8982l-19.1392,11.0495c-3.4052,1.9668-8.8497,2.0449-12.4275.2445v-25.6629s0-.0002,0-.0003h0ZM474.4181,517.2105s0,.0002,0,.0003v24.9199l-1.7195-.9927v-25.6889c0-9.5026,6.695-21.0986,14.9243-25.8498l42.0426-24.273c3.3193-1.9164,6.5506-2.4565,9.0667-1.5557-2.0814.0949-4.3478.8163-6.6812,2.1634-.0005.0003-.0006.0007-.0011.0009l-42.0415,24.2724c-8.5963,4.9635-15.5902,17.0766-15.5902,27.0029,0,.0001,0,.0002,0,.0003h0ZM396.412,471.4047c0-9.5023,6.695-21.0984,14.9243-25.8495l42.0426-24.273s.0003-.0003.0005-.0005c3.3195-1.9166,6.5503-2.4563,9.0658-1.5554-2.0814.095-4.3476.8166-6.6808,2.1636l-42.0426,24.2733c-8.5963,4.9635-15.5902,17.0769-15.5902,27.0032v24.9204l-1.7195-.9927v-25.6894h0ZM395.0801,471.4047v18.039c-3.4881-5.7787-3.3189-15.4601.6081-25.4742,5.8702-14.9726,18.2173-26.6125,28.5281-27.3888l-13.5459,7.8207c-8.5963,4.9635-15.5902,17.0769-15.5902,27.0032h0ZM446.5704,415.6629c-.0314-.6953-.1021-1.3602-.2034-1.9993l.4121-.2379c-.0943.7561-.1626,1.5015-.2087,2.2372h0ZM447.0802,423.3805l-.4887.2822v-3.6303c.0913,1.1598.2554,2.277.4887,3.3481ZM399.4635,473.1665c0-9.5023,6.695-21.0984,14.9243-25.8495l42.0426-24.2733c3.8588-2.2275,7.4507-2.6067,10.1166-1.0719l.0058.0033s.001.0003.0015.0006c2.6662,1.5404,4.1345,4.8431,4.1345,9.3v7.837l-18.7482,10.8242c-11.2415-.9243-25.5719,11.6711-32.0637,28.2274-4.5233,11.5368-4.2692,22.3298.6321,28.2781v4.5639l-21.0454-12.1505v-25.6894h0ZM421.1169,478.6509c5.8709-14.9736,18.2174-26.6171,28.5297-27.3896l-13.5473,7.8216c-8.5967,4.9631-15.5905,17.0769-15.5905,27.0032v18.0389c-3.4878-5.7787-3.3186-15.46.6081-25.474h0ZM421.8407,486.0861c0-9.5023,6.695-21.0984,14.9245-25.8495l42.0422-24.273c3.3197-1.917,6.551-2.4569,9.0668-1.5557-2.0815.0949-4.3478.8163-6.6812,2.1635l-42.0422,24.2733c-8.5967,4.9631-15.5905,17.0769-15.5905,27.0032v24.9202l-1.7195-.9927v-25.6893h0ZM472.0205,438.3438v-3.6273c.0913,1.1587.2553,2.275.4885,3.3453l-.4885.282ZM476.382,417.3808c5.8703-14.971,18.222-26.602,28.5247-27.3867l-13.5422,7.8186c-8.5963,4.9635-15.5902,17.0769-15.5902,27.0032v11.3607l-2.053,1.1853c-1.1184-5.6662-.1881-12.7152,2.6607-19.9811ZM424.8922,487.8479c0-9.5023,6.695-21.0984,14.9245-25.8495l42.0422-24.2733c3.8574-2.2275,7.4507-2.6074,10.1166-1.0719l.0058.0033s.001.0003.0015.0006c2.6662,1.5404,4.1347,4.8431,4.1347,9.3v7.8369l-18.7484,10.8243c-11.245-.9229-25.5723,11.6711-32.0638,28.2274-4.5236,11.5368-4.2689,22.3298.6325,28.2787v4.5633l-21.0457-12.1507v-25.6892h.0001ZM446.5456,493.3323c5.8707-14.973,18.2194-26.6153,28.5293-27.3893l-13.5469,7.8212c-8.5963,4.9635-15.5902,17.0769-15.5902,27.0032v18.0389c-3.4878-5.7787-3.3189-15.46.6078-25.474h0ZM447.2698,500.7674c0-9.5023,6.695-21.0984,14.9243-25.8495l42.0426-24.273c3.3201-1.9171,6.5512-2.4575,9.0668-1.5558-2.0814.095-4.3477.8165-6.6814,2.1636-.0005.0003-.0006.0007-.0011.0009l-42.0415,24.2724c-8.5963,4.9635-15.5902,17.0769-15.5902,27.0032v24.9203l-1.7195-.9928v-25.6894h0ZM497.4495,453.0251v-3.6271c.0914,1.1586.2555,2.2747.4887,3.3448l-.4887.2822h0ZM501.8107,432.0621c5.8702-14.9712,18.2233-26.6047,28.5257-27.3872l-13.543,7.8191c-8.5963,4.9631-15.5902,17.0766-15.5902,27.0032v11.3607l-2.0533,1.1854c-1.1187-5.6662-.1882-12.715,2.6607-19.9812h0ZM450.3212,502.5292c0-9.5023,6.695-21.0984,14.9243-25.8495l42.0426-24.273s.0006-.0006.001-.0009c3.8568-2.227,7.449-2.607,10.1153-1.0713l.0058.0033s.001.0003.0015.0006c2.6662,1.5404,4.1347,4.843,4.1347,9.3001v7.8369l-18.7483,10.8242c-11.2295-.9252-25.5722,11.6713-32.0636,28.2275-4.5236,11.5365-4.2692,22.3295.6321,28.2783v4.5635l-21.0454-12.1505v-25.6893h0ZM471.9746,508.0136c5.8706-14.9735,18.2102-26.6145,28.5286-27.389l-13.5465,7.821c-8.5963,4.9635-15.5902,17.0769-15.5902,27.0035v18.0382c-3.4878-5.7788-3.3189-15.4603.6081-25.4737h0ZM522.8782,467.7065v-3.6271c.0914,1.1586.2555,2.2747.4887,3.3448l-.4887.2822h0ZM527.2394,446.7434c5.8711-14.9745,18.2091-26.6172,28.5293-27.3893l-13.5466,7.8212c-8.5963,4.9631-15.5902,17.0766-15.5902,27.0032v11.3607l-2.0533,1.1854c-1.1187-5.6662-.1882-12.715,2.6607-19.9812h0ZM584.9301,404.0561c3.3199-1.917,6.5517-2.4578,9.068-1.5556-2.0819.0948-4.3485.8165-6.6818,2.1637l-42.0426,24.273c-8.5963,4.9631-15.5902,17.0766-15.5902,27.0032v7.8566c-.2275.1202-.4553.2433-.6841.3755l-1.0354.5978v-10.5917c0-9.5026,6.6947-21.0986,14.9243-25.8495l42.0419-24.273h0ZM572.6755,390.0677c2.6671,1.5397,4.1356,4.8429,4.1356,9.3006v7.837l-18.7485,10.8246c-11.2263-.9206-25.572,11.6711-32.0627,28.2271-1.824,4.6511-2.8785,9.2281-3.1429,13.4474-.2028-4.486-1.8819-7.8467-4.7809-9.5202l-3.0514-1.7618c-2.6072-1.5045-5.9029-1.4675-9.4379.0568v-7.2201c0-9.5026,6.6947-21.0986,14.9243-25.8495l42.0419-24.273c3.8605-2.2288,7.4549-2.6089,10.1227-1.0689h-.0001ZM559.5014,389.3747c3.3192-1.9164,6.5499-2.4567,9.0662-1.5558-2.0811.095-4.347.8165-6.6807,2.1639l-42.0419,24.273c-8.5963,4.9631-15.5902,17.0766-15.5902,27.0032v7.8566c-.2275.1202-.4553.2433-.6841.3755l-1.0354.5978v-10.5917c0-9.5026,6.6947-21.0986,14.9243-25.8495l42.0419-24.273h0ZM547.2468,375.3863c2.6671,1.5397,4.1356,4.8429,4.1356,9.3006v7.837l-18.7484,10.8245c-11.227-.9248-25.572,11.6711-32.0628,28.2271-1.824,4.6511-2.8785,9.2281-3.1429,13.4474-.2028-4.486-1.8819-7.8467-4.7809-9.5202l-3.0514-1.7618c-2.6069-1.5046-5.902-1.4675-9.4382.0571v-7.2203c0-9.5023,6.695-21.0984,14.9245-25.8495l42.0419-24.273c3.8605-2.2288,7.4549-2.6089,10.1227-1.0689h0ZM534.0727,374.6934c3.3188-1.9167,6.551-2.4565,9.067-1.5556-2.0813.095-4.3476.8163-6.6814,2.1637l-42.0419,24.273c-8.5967,4.9631-15.5905,17.0769-15.5905,27.0032v7.8568c-.2275.1201-.4553.2432-.6841.3753l-1.0354.5978v-10.5917c0-9.5023,6.695-21.0984,14.9245-25.8495.0005-.0003.0007-.0008.0012-.0011l42.0407-24.2719h0ZM521.8181,360.705c2.6671,1.5397,4.1356,4.8429,4.1356,9.3006v7.837l-18.7486,10.8245c-11.2315-.9253-25.5712,11.6711-32.0632,28.2271-1.8237,4.6519-2.8781,9.2295-3.1425,13.4492-.2025-4.4869-1.8816-7.8483-4.7807-9.522l-3.0514-1.7618c-2.606-1.5038-5.9022-1.467-9.4386.0573v-7.2205c0-9.5023,6.695-21.0984,14.9245-25.8495l42.0422-24.273c3.8605-2.2288,7.4556-2.6089,10.1227-1.0689h0ZM508.644,360.0121c3.3193-1.9167,6.5505-2.4568,9.0666-1.5558-2.0814.095-4.3477.8166-6.6811,2.1639l-42.0422,24.273c-8.5967,4.9631-15.5905,17.0769-15.5905,27.0032v7.8569c-.2275.1201-.4553.2431-.6841.3753-.0003.0001-.0003.0003-.0006.0005l-1.0344.5972v-10.5917c0-.0005-.0003-.0009-.0003-.0015.0007-9.502,6.6954-21.0971,14.9245-25.848l42.0422-24.273h-.0001ZM450.9534,402.6994c5.8708-14.973,18.2172-26.614,28.5283-27.3888l-13.5459,7.8207c-8.5967,4.9631-15.5905,17.0769-15.5905,27.0032,0,.0006.0003.0011.0003.0016v11.3591l-2.053,1.1853c-.6112-3.096-.6115-6.6034-.0194-10.3356.0039-.0137.0041-.0276.0072-.0416.4929-3.0861,1.3862-6.3226,2.6729-9.6039h0ZM448.0111,402.9993c.5174-.0902,1.0266-.1948,1.5257-.3167-1.1767,3.0849-2.0157,6.1324-2.5091,9.0611l-.9399.5427c-.5395-2.1103-1.5068-3.831-2.8545-5.0757,2.2197-1.1,3.8787-2.5668,4.7778-4.2115h0ZM441.1212,407.2923l.0028.0016s.0003.0001.0005.0002c1.9803,1.1438,3.2982,3.2613,3.8462,6.1003.0009.0084.004.0163.0053.0247.1867.977.2836,2.0381.2836,3.1755v7.8371l-18.748,10.8241c-11.245-.9251-25.5717,11.6711-32.0635,28.2275-4.5239,11.5368-4.2695,22.3297.6321,28.2781v4.564l-21.0454-12.1505v-25.6896c0-9.5023,6.695-21.0984,14.9243-25.8495l42.0422-24.273s.0006-.0006.001-.0009c3.859-2.2272,7.4527-2.6072,10.119-1.0696h0ZM427.9498,406.6009c3.3193-1.9166,6.5512-2.4568,9.0673-1.5556-2.0817.095-4.3482.8165-6.6818,2.1634-.0005.0003-.0006.0007-.0011.0009l-42.0412,24.2724c-8.5963,4.9635-15.5902,17.0769-15.5902,27.0032v24.9205l-1.7195-.9927v-25.6896c0-9.5023,6.695-21.0984,14.9243-25.8495l42.0422-24.273h0ZM370.2592,449.2883c5.8709-14.9737,18.2152-26.6166,28.5295-27.3895l-13.5471,7.8214c-8.5963,4.9635-15.5902,17.0769-15.5902,27.0032v18.0389c-3.4878-5.7787-3.3189-15.46.6078-25.474h0ZM369.6514,477.0798v4.5641l-14.733-8.5061c-1.5966-.9219-2.4759-2.1075-2.4759-3.3386s.8793-2.4164,2.4759-3.3379l11.1648-6.446c-.8849,7.0256.313,13.1139,3.5682,17.0644h0ZM344.8588,462.5656c4.9264-.8611,8.7279-3.0608,10.3049-5.9541,4.9338-.8598,8.741-3.0619,10.3183-5.9593,1.0983-.1918,2.1498-.4519,3.1432-.7793-1.0663,2.8978-1.8295,5.7376-2.291,8.4593l-12.0817,6.9754c-2.0258,1.1696-3.1419,2.765-3.1419,4.4916s1.1157,3.3223,3.1419,4.4923l120.3629,69.4913c.0581.0336.1218.0618.1809.0944.0144.0071.027.0159.042.0218,1.9323,1.0511,4.409,1.5824,6.8909,1.5824,2.5764,0,5.1527-.5665,7.1142-1.6987l19.5886-11.3089c.0066-.0038.01-.0104.0165-.0144.0414-.0258.0729-.0609.1072-.0946.0282-.0276.0603-.0509.0828-.0824.0241-.0337.0365-.0729.054-.1106.0184-.0399.041-.0771.0512-.1198.0088-.0363.0053-.0745.0079-.1125.0033-.0491.0093-.0968.0015-.1462-.0012-.0075.0017-.0144.0003-.0219-.1392-.7258-.1392-1.4613,0-2.1865,1.1024-5.751,10.2937-9.9035,20.4776-9.2486.0053.0002.0098-.0024.0151-.0023.0094.0004.0185.0036.0279.0036.0724,0,.1443-.0163.2149-.0406.0015-.0006.0029-.0013.0045-.0019.0382-.0135.0767-.0256.1129-.0466l26.3691-15.2243c.003-.0017.0045-.0047.0073-.0065.063-.0375.1176-.0884.1663-.1467.0137-.0163.0263-.032.0382-.0494.01-.0145.023-.0258.032-.0414.0142-.0247.0154-.0521.0262-.0778.0181-.043.0348-.0842.0437-.1299.0082-.0423.0089-.0829.0087-.1253.0001-.0424-.0006-.083-.0087-.1253-.0089-.0457-.0256-.087-.0437-.1299-.0108-.0256-.0119-.0531-.0262-.0778-.0069-.012-.0188-.0185-.0264-.0299-.0246-.0376-.0565-.0682-.0889-.1006-.0318-.0316-.0617-.0626-.0983-.0867-.0115-.0077-.0181-.0196-.0303-.0267l-7.6682-4.4272v-6.292l13.7835,7.9581c.0009.0005.0019.0006.0028.0011.033.0188.0691.0303.1046.0432.0737.0268.149.0448.2249.0448.0002,0,.0005,0,.0007,0s.0005,0,.0007,0c.0759,0,.1512-.018.2249-.0448.0355-.0129.0716-.0244.1046-.0432.0009-.0005.0019-.0006.0028-.0011l26.3698-15.2247c.0067-.0039.0103-.0107.0168-.0148.0407-.0254.0715-.0599.1054-.093.0288-.028.0615-.0518.0844-.0839.0238-.0333.036-.0721.0533-.1091.0187-.0403.0414-.078.0518-.1211.0088-.0363.0053-.0745.0079-.1123.0033-.0491.0093-.0968.0015-.1462-.0012-.0075.0017-.0144.0003-.0219-.1392-.7252-.1392-1.4607,0-2.1858,1.1024-5.7508,10.2847-9.8999,20.4769-9.2486.0055.0003.0102-.0024.0156-.0023.0092.0003.018.0035.0273.0035.0691,0,.1378-.0147.2053-.0367.0107-.0036.0202-.0085.0307-.0127.0324-.0124.0654-.0218.0964-.0398l19.5892-11.3096c2.0258-1.1696,3.1412-2.765,3.1412-4.492s-1.1154-3.322-3.1412-4.4916l-.8877-.5125v-8.1455c1.5889,2.8741,5.3776,5.0578,10.281,5.9156,1.2403,2.5163,2.9686,4.9455,5.1441,7.2341-2.1755,2.2886-3.9038,4.7176-5.1441,7.234-4.9265.8612-8.728,3.0609-10.3052,5.9544-4.9324.8597-8.7382,3.0604-10.3165,5.9562-4.9329.86-8.7388,3.0609-10.3172,5.9565-4.9322.8597-8.7378,3.0605-10.3163,5.9562-4.9325.86-8.7389,3.0609-10.3174,5.9565-4.9324.8597-8.7382,3.0607-10.3165,5.9565-4.9324.8597-8.7388,3.0604-10.3172,5.9563-4.9322.86-8.7378,3.0605-10.3163,5.9562-4.9323.8599-8.7386,3.0608-10.3172,5.9565-4.9322.8599-8.738,3.0608-10.3165,5.9565-4.9322.8599-8.7386,3.0608-10.3172,5.9565-4.9322.8593-8.738,3.0603-10.3166,5.9565-4.9323.8593-8.7386,3.0597-10.3172,5.9559-4.9318.8598-8.7373,3.0604-10.316,5.9557-4.5719.741-8.9858,1.7977-13.1298,3.1461-4.1433-1.3479-8.5573-2.4047-13.1293-3.1462-1.5789-2.8937-5.3833-5.0933-10.3124-5.9531-1.5783-2.8941-5.3829-5.094-10.3126-5.9539-1.5786-2.8942-5.3833-5.0941-10.3129-5.954-1.5786-2.8942-5.3833-5.0947-10.3129-5.9546-1.5783-2.8942-5.383-5.0941-10.3126-5.9539-1.5783-2.8942-5.383-5.0941-10.313-5.9539-1.5783-2.8936-5.3829-5.0941-10.3128-5.9543-1.579-2.8943-5.3837-5.0942-10.3129-5.9541-1.5785-2.894-5.3831-5.0941-10.3129-5.9539-1.5785-2.8943-5.3831-5.0944-10.3126-5.9543-1.5785-2.894-5.3831-5.0941-10.3129-5.9539-1.5771-2.892-5.377-5.0907-10.3006-5.9521-1.2409-2.5169-2.9691-4.9458-5.1439-7.2338,2.1751-2.2882,3.9033-4.7171,5.1439-7.2341l-.0003.0003ZM630.0761,539.9829v-68.1689c1.2702-2.479,4.6572-4.4786,8.9852-5.3282v69.1176c-3.9117.7203-7.0939,2.289-8.9852,4.3795h0ZM634.2019,538.5801l-1.2681.732c.3948-.2587.8182-.5033,1.2681-.732ZM619.7596,545.9396v-68.1693c1.2707-2.4787,4.6572-4.4786,8.9846-5.328v69.1171c-3.9116.7208-7.0934,2.29-8.9846,4.3803ZM623.8789,544.5399l-1.2596.7272c.3922-.257.813-.4998,1.2596-.7272ZM609.4425,551.8963v-68.1695c1.2702-2.4787,4.6572-4.4782,8.9852-5.3281v69.1173c-3.9117.7208-7.0939,2.29-8.9852,4.3804h0ZM613.5612,550.497l-1.2585.7266c.3919-.2568.8123-.4993,1.2585-.7266ZM599.126,557.8528v-68.1694c1.2702-2.479,4.6566-4.4789,8.9846-5.3283v69.1174c-3.9116.7208-7.0934,2.29-8.9846,4.3803ZM603.2453,556.453l-1.2596.7272c.3922-.257.813-.4998,1.2596-.7272ZM588.8088,563.8091v-68.1695c1.2702-2.4787,4.6572-4.4786,8.9852-5.3282v69.1176c-3.9117.7203-7.0939,2.2894-8.9852,4.3801ZM592.938,562.404l-1.2733.7352c.3964-.2599.8215-.5055,1.2733-.7352ZM578.4923,569.765v-68.1689c1.2702-2.479,4.6566-4.4789,8.9846-5.3283v69.1177c-3.9112.7203-7.0933,2.2891-8.9846,4.3795h0ZM582.6152,568.3637l-1.2643.7298c.3936-.2579.8159-.5017,1.2643-.7298ZM568.1751,575.7219v-68.1695c1.2702-2.4787,4.6572-4.4786,8.9852-5.3279v69.1171c-3.9117.7208-7.0939,2.29-8.9852,4.3804h0ZM572.2939,574.3225l-1.2585.7266c.3919-.2568.8123-.4993,1.2585-.7266ZM557.8586,581.6783v-68.17c1.2702-2.4781,4.6566-4.478,8.9846-5.3276v69.1173c-3.9116.7208-7.0934,2.29-8.9846,4.3803ZM561.9779,580.2786l-1.2596.7272c.3922-.257.813-.4998,1.2596-.7272ZM547.5415,587.635v-68.1701c1.2702-2.4781,4.6572-4.4783,8.9852-5.3279v69.1177c-3.9117.7208-7.0939,2.29-8.9852,4.3804ZM551.6602,586.2357l-1.2585.7266c.3919-.2568.8123-.4993,1.2585-.7266ZM537.225,593.5911v-68.1697c1.2702-2.4781,4.6566-4.4783,8.9846-5.3279v69.1176c-3.9116.7203-7.0934,2.2894-8.9846,4.38ZM541.3548,592.1856l-1.2744.7358c.3967-.2601.8221-.506,1.2744-.7358ZM526.9078,599.5472v-68.1692c1.2702-2.4781,4.6572-4.4783,8.9852-5.3279v69.1176c-3.9117.7203-7.0939,2.289-8.9852,4.3795h0ZM531.0335,598.1444l-1.2681.732c.3948-.2587.8182-.5033,1.2681-.732ZM516.5913,605.5039v-68.1694c1.2702-2.4787,4.6566-4.4789,8.9846-5.328v69.1171c-3.9116.7208-7.0934,2.29-8.9846,4.3803ZM520.7106,604.1042l-1.2596.7272c.3922-.257.813-.4998,1.2596-.7272ZM506.2741,611.4606v-68.1701c1.2707-2.4787,4.6572-4.4784,8.9853-5.3274v69.1171c-3.9117.7208-7.0939,2.29-8.9853,4.3804ZM510.3929,610.0613l-1.2585.7266c.3919-.2568.8123-.4993,1.2585-.7266ZM495.9576,617.4171v-68.17c1.2702-2.4781,4.6566-4.4783,8.9846-5.3279v69.1177c-3.9116.7208-7.0934,2.29-8.9846,4.3803h0ZM500.0769,616.0173l-1.2596.7272c.3923-.257.813-.4998,1.2596-.7272ZM494.6257,549.8734v69.1185c-4.2502.6997-8.3533,1.6764-12.2305,2.9014v-69.0782c3.8704-1.2451,7.9783-2.2306,12.2305-2.9417h0ZM481.0632,552.815v69.0782c-3.8765-1.225-7.9796-2.2011-12.2299-2.9014v-69.1185c4.2525.711,8.3603,1.6965,12.2299,2.9416h0ZM458.5205,613.0394v-69.1176c4.3251.8496,7.7097,2.8482,8.981,5.3254v68.1707c-1.8909-2.0892-5.0715-3.6577-8.981-4.3785ZM464.6298,616.7379l-1.2148-.7014c.4295.22.8359.4538,1.2148.7014ZM448.2076,607.0848v-69.1169c4.3253.8495,7.7101,2.8482,8.981,5.3253v68.1706c-1.8909-2.0894-5.0715-3.6582-8.981-4.3791h0ZM454.3193,610.785l-1.2239-.7067c.4329.2216.8422.4572,1.2239.7067ZM437.895,601.1309v-69.1169c4.3247.8495,7.7093,2.8479,8.9807,5.3248v68.1703c-1.8909-2.089-5.0714-3.6574-8.9807-4.3781h0ZM444.0053,604.83l-1.2182-.7033c.4308.2206.8382.455,1.2182.7033ZM427.582,595.1768v-69.1176c4.3251.8496,7.7097,2.8483,8.981,5.326v68.1699c-1.8908-2.0891-5.0713-3.6576-8.981-4.3783h0ZM433.6928,598.8762l-1.2194-.704c.4312.2208.8391.4555,1.2194.704ZM417.2695,589.2229v-69.1176c4.3251.8496,7.7097,2.8482,8.9807,5.3253v68.1705c-1.8908-2.0891-5.0713-3.6576-8.9807-4.3783h0ZM423.3795,592.9219l-1.2178-.7031c.4306.2206.838.455,1.2178.7031ZM406.9565,583.269v-69.1176c4.3253.8495,7.7101,2.8482,8.981,5.3253v68.1705c-1.8908-2.0891-5.0713-3.6576-8.981-4.3783h0ZM413.0673,586.9682l-1.2194-.704c.4312.2208.8391.4555,1.2194.704ZM396.6436,577.3144v-69.1171c4.3253.8498,7.7101,2.8485,8.981,5.3256v68.1706c-1.8909-2.0894-5.0715-3.6582-8.981-4.3791h0ZM402.7554,581.0146l-1.2239-.7067c.4329.2216.8422.4572,1.2239.7067ZM386.331,571.3604v-69.1173c4.3244.8495,7.7093,2.848,8.9807,5.3245v68.1709c-1.8909-2.089-5.0714-3.6574-8.9807-4.3781h0ZM392.4413,575.0596l-1.2182-.7033c.4308.2206.8382.455,1.2182.7033ZM376.018,565.4064v-69.1173c4.3253.8495,7.7101,2.8482,8.981,5.325v68.1705c-1.8908-2.0891-5.0713-3.6576-8.981-4.3783h0ZM382.1288,569.1058l-1.2194-.704c.4312.2208.8391.4555,1.2194.704ZM365.7054,559.4525v-69.1176c4.3251.8496,7.7097,2.8486,8.9807,5.3253v68.1705c-1.8908-2.0891-5.0713-3.6576-8.9807-4.3783h0ZM371.8154,563.1515l-1.2178-.7031c.4306.2206.838.455,1.2178.7031ZM355.3925,553.4979v-69.1169c4.3253.8495,7.7101,2.8482,8.981,5.325v68.1709c-1.8909-2.0894-5.0715-3.6582-8.981-4.3791h0ZM361.5043,557.1981l-1.2239-.7067c.4329.2216.8422.4572,1.2239.7067ZM345.0799,547.5439v-69.1173c4.3251.8496,7.7097,2.8486,8.9807,5.3253v68.1704c-1.8909-2.0892-5.0714-3.6577-8.9807-4.3785ZM351.1884,551.242l-1.2132-.7004c.4289.2198.8348.4533,1.2132.7004ZM339.4622,471.4899c1.7952,2.0115,3.2349,4.1231,4.2858,6.2977v67.6966c-1.1535-1.8949-2.5875-3.7294-4.2858-5.4798v-68.5145h0ZM342.4192,545.8701c-1.1959-1.0494-2.0531-2.2123-2.5267-3.4214.9536,1.113,1.795,2.256,2.5267,3.4214ZM644.6784,565.5222c0,2.6704-1.9257,5.314-5.2841,7.2527l-144.4357,83.3906c-7.2946,4.211-19.1639,4.211-26.4582,0l-123.7535-71.4495c-3.3584-1.9387-5.2847-4.5824-5.2847-7.2534v-32.928c1.0027,1.5398,2.5519,2.945,4.5979,4.1295.0003.0003.0007.0005.0011.0007.0003.0001.0006.0004.001.0006.0006.0003.0011.0007.0017.0011.0059.0034.0113.007.0171.0104l10.3126,5.9539,10.3129,5.9546,10.3126,5.9539,10.3129,5.9539,10.3126,5.9539,10.3129,5.9546,10.3129,5.9539,10.3126,5.9539,10.3129,5.9539,10.3126,5.9539,10.3129,5.9546,10.3129,5.9539c3.7223,2.1488,8.6568,3.3324,13.8948,3.3324s10.1728-1.1836,13.8954-3.3324l10.3165-5.9565,10.3172-5.9565,10.3165-5.9565,10.3172-5.9559,10.3165-5.9565,10.3172-5.9565,10.3165-5.9565,10.3172-5.9565,10.3165-5.9559,10.3172-5.9565,10.3165-5.9565,10.3172-5.9565,10.3165-5.9565,10.3172-5.9559c.006-.0035.0115-.0071.0174-.0106.0003-.0002.0007-.0003.001-.0006.0006-.0003.0011-.0007.0017-.001.0001,0,.0002-.0001.0003-.0003,2.046-1.1849,3.595-2.5902,4.5977-4.1301v32.9283h0ZM641.7217,533.93c.7317-1.1659,1.5733-2.3092,2.527-3.4226-.4736,1.2096-1.3308,2.3728-2.527,3.4226ZM644.6784,528.0637c-1.6982,1.7501-3.1319,3.5844-4.2852,5.4793v-67.6955c1.0502-2.1746,2.4899-4.2864,4.2852-6.2983v68.5145h0ZM512.7554,525.7431c.0108.0256.0119.0531.0262.0778.009.0155.022.0268.032.0413.012.0175.0247.0332.0384.0497.0485.0577.1026.1082.1651.1456.0033.002.0049.0054.0083.0073l8.0708,4.6598c.0008.0005.0017.0006.0025.001.0361.0206.0753.0337.1143.0472.0708.0244.143.041.2156.041.0002,0,.0005,0,.0007,0s.0005,0,.0007,0c.0796,0,.1586-.0198.2357-.0493.0316-.0121.064-.0218.0935-.0386.001-.0006.0021-.0007.0031-.0013l5.7283-3.307c.0033-.0019.005-.0053.0083-.0073.0625-.0374.1167-.0879.1651-.1456.0137-.0164.0264-.0322.0384-.0497.01-.0144.023-.0258.032-.0413.0142-.0247.0154-.0521.0262-.0778.0181-.043.0348-.0842.0437-.1299.0082-.0423.0089-.0829.0087-.1253.0001-.0424-.0006-.083-.0087-.1253-.0089-.0457-.0256-.087-.0437-.1299-.0108-.0256-.0119-.0531-.0262-.0778-.0069-.0121-.0188-.0185-.0264-.0299-.0246-.0374-.0562-.0679-.0884-.1002-.032-.0318-.0621-.0631-.0991-.0874-.0115-.0076-.0179-.0194-.0299-.0264l-1.3709-.7915c-.0121-.0069-.0256-.0066-.0379-.0128-.0266-.0134-.0531-.0235-.0815-.0333-.0293-.0101-.0576-.0178-.088-.0237-.0294-.0057-.0573-.0099-.0868-.0115-.0135-.0008-.025-.0078-.0387-.0078-.0139,0-.0253.0071-.0389.0079-.0297.0017-.0578.0057-.0874.0115-.0308.006-.0592.0139-.0888.024-.0279.0097-.0537.0198-.0798.0329-.0123.0062-.026.0058-.0381.0129l-3.7525,2.166-6.3663-3.6754c-.0121-.007-.0257-.0067-.038-.0129-.0262-.0132-.0522-.0234-.0803-.033-.0298-.0103-.0583-.0182-.0892-.0242-.0297-.0058-.0579-.0098-.0878-.0115-.0132-.0008-.0242-.0076-.0376-.0076-.0134,0-.0246.0069-.0378.0077-.03.0016-.0583.0056-.0881.0114-.0312.0061-.06.0141-.09.0244-.0276.0096-.0531.0198-.0789.0327-.0124.0062-.026.0059-.0382.0129l-1.6435.9482c-.0117.0068-.018.0184-.0292.0257-.0377.0247-.0685.0565-.101.089-.0318.0319-.0629.0621-.0872.099-.0076.0115-.0196.018-.0265.0301-.0142.0247-.0154.0521-.0262.0778-.0181.043-.0348.0842-.0437.1299-.0082.0423-.0089.0829-.0087.1253-.0001.0424.0006.083.0087.1253.0089.0457.0256.087.0437.1299h-.0002ZM522.367,528.792l2.7536-1.5894v.0449l-2.7536,1.5897v-.0452ZM515.6678,525.6932l5.3674,3.0987v.359l-5.3674-3.0989v-.3589h0Z"/>
  </g>
</svg>