<?xml version="1.0" encoding="UTF-8"?>
<svg id="Layer_1" xmlns="http://www.w3.org/2000/svg" version="1.1" viewBox="0 0 1000 1000">
  <!-- Generator: Adobe Illustrator 29.1.0, SVG Export Plug-In . SVG Version: 2.1.0 Build 142)  -->
  <g id="Layer_2">
    <path d="M774.9,863.4c0-.4-.2-.8-.3-1.2,0-.3-.2-.5-.3-.7,0-.2-.2-.4-.3-.6l-.2-.4h0s0-.1,0-.2l-4.2-8.6c0-.2.2-.4.2-.7.2-1,.3-2,.2-3-.1-.9-.4-1.7-.7-2.4,0,0,0-.1,0-.1l-15.8-31.7s0,0,0-.1c0,0,0,0,0-.1-.5-.8-1.1-1.6-1.8-2.2-.7-.6-1.5-1.1-2.4-1.5-.8-.4-1.8-.6-2.8-.7-.9-.1-1.8-.2-2.9-.2-.6,0-1.3,0-2,.1l-9.8-19.8c-1-1.9-2.8-3.3-5.1-3.9l-5.3-10.8s0,0,0,0h0c-3.6-7.2-7.3-14.5-11.1-21.5-21.8-40.4-45.6-75.7-72.9-108-20.4-24.1-44.7-48.1-72.3-71.6l5.7,4.7h.1c0,0,0,.1,0,.1l5.3,3h0c.1,0,.3,0,.4.1,0,0,.1,0,.2,0h0c.2,0,.4,0,.6-.2h0c.5-.3,1-.6,1.5-.9l5.1-2.9s0,0,.1,0c21.8-12.7,34.3-30.1,34.3-48.1v-73.9c0-6-1.4-12-4-17.9-3.3-7.1-8.5-13.8-15.5-20-6.9-6.1-15.4-11.4-25.3-15.9-9.8-4.5-20.7-8-32.4-10.4-11.7-2.5-23.9-3.8-36.4-4s-24.8.8-36.7,2.8c-11.9,2.1-23.2,5.3-33.4,9.4-10.2,4.2-19.2,9.2-26.7,15.1-7.5,5.8-13.2,12.3-17.2,19.3-3.5,6.2-5.5,12.6-5.8,19.2-51.3-28.7-105.2-56-146.6-76.6-86.6-43.2-176.4-86-263.3-127.4-37.1-17.7-75.4-36-113-54-123.1-59.1-245.5-118.9-363.9-177.8-1.2-.6-2.7-.4-4.2.7-1.2.9-2.4,2.3-3.2,4-.8,1.7-1.2,3.4-1.2,5,0,1.8.7,3.1,1.9,3.7,118.7,59,241.7,119.1,365.5,178.6,37.1,17.8,74.8,35.8,111.4,53.3,65,31.1,132.3,63.2,197.9,95.1,56.9,27.7,123.5,60.6,186.1,94.6,11.3,6.1,22.2,12.2,32.5,18v59.1c0,18.7,13,35.6,34.1,47.9,0,.1.2.2.3.3l5.1,2.9c21,12.1,48.9,18.5,77.3,18.5s32.7-2.1,48-6.5c0,0,.1,0,.2,0,0,0,0,0,.1,0l4.2-2.4h0s0,0,0,0c0,0,0,0,0,0,0,0,0,0,0,0,0,0,0,0,0,0,0,0,0,0,0,0h0s0,0,0-.1h0s0,0,0,0h0l1.6-3.9c21.7,18.4,41.4,37.4,58.5,56.4,36.2,40.3,66.7,85.8,93.2,139.3h0l5.3,10.7c-1,2.2-1,4.5,0,6.5l8.1,16.2c-.4.3-.8.7-1.2,1.1-.8.8-1.4,1.6-1.9,2.5-.5.9-.9,1.9-1.2,2.9-.2,1-.3,2.1-.2,3,.1.9.4,1.8.8,2.6h0l15.8,31.7s0,0,0,0c0,0,0,.1,0,.2h0c.5.8,1.1,1.6,1.8,2.2.7.6,1.5,1.1,2.4,1.5.1,0,.2,0,.4.1l4.4,8.6h0c0,0,.2.5.2.5.1.3.3.6.5.9h0c.1.2.2.3.3.5.4.5.8.8,1.3,1.1.5.3,1.1.4,1.7.5.4,0,.9.1,1.4.1h.6c1,0,1.9-.2,2.7-.3h0l17.9-3h0c.8-.1,1.7-.3,2.6-.6.6-.2,1.1-.4,1.5-.7.4-.3.6-.6.8-.9h0c.2-.3.4-.7.5-1.1.3-.8.5-1.6.6-2.5,0-.7,0-1.4-.1-2.2h0c0,0,0,0,0,0ZM384.8,467.4c-10-5.6-20.5-11.4-31.4-17.3-62.7-34-129.3-66.9-186.2-94.7-65.6-31.9-132.9-64.1-197.9-95.1-36.5-17.4-74.3-35.5-111.4-53.3-123.8-59.5-246.8-119.6-365.4-178.5-.4-.2-.6-.8-.6-1.7,0-1.1.3-2.5,1-3.8.7-1.3,1.5-2.4,2.5-3.1.7-.5,1.3-.7,1.7-.5,118.4,58.8,240.8,118.7,364,177.8,37.6,18.1,75.9,36.3,113,54,86.8,41.4,176.6,84.2,263.3,127.4,41.6,20.7,95.9,48.2,147.5,77.1v11.7h0s0,0,0,0ZM769.6,860.6c-.2.3-.2.7,0,1.1,0,0,0,.2,0,.2l.6-.2s0,0,0,0l-.6.3h-.1c0,.2-.1.2-.2.2,0,0-.1,0-.2.1,0,0-.2,0-.3,0h-.6c0,.1-.2.2-.3.2l-17.9,3h-.9c0,.1-.4.1-.4.1,0,0-.2,0-.2,0-.1,0-.2,0-.3,0-.1,0-.2,0-.3-.1,0,0-.1,0-.2-.1,0,0-.1,0-.3-.2,0,0,0,0-.1-.1s0-.1-.1-.2l-.8.5h0c0,0,.7-.7.7-.7-.2-.4-.5-.6-.9-.6l-.9-1.9h0c-.1-.3-.2-.4-.1-.5.1-.1.4-.3.7-.4.4-.1.8-.2,1.3-.3h0l17.2-2.8c0,.1.1.2.2.3.2.2.5.4.8.4s.3,0,.5-.1c.2,0,.3-.1.4-.3.2-.2.3-.4.3-.6.4,0,.8,0,1.2.2.3.1.6.2.7.4.1.1.2.3.4.5l.8,1.5h0s0,0,0,0ZM570,574.7l-13.2-10.9v-17.2c0-.9.2-1.9.6-2.9,0-.2.1-.3.2-.5,1.1-1.7,2.5-3.2,4-4.6.5-.4,1-.9,1.6-1.3.3-.2.6-.3.8-.4.4-.2.8-.3,1.2-.4.6-.2,1.3-.2,1.8-.1.7,0,1.2.3,1.7.7.3.2.6.6.7.9.3.6.5,1.4.5,2.3v34.4h0ZM576.6,578.9h-.2c0-.1.4,0,.4,0h-.2c0,.1,0,0,0,0h0ZM579.5,576.6l-7.1-.5v-35.8c0-1.3-.3-2.4-.8-3.4-.4-.7-.8-1.2-1.3-1.7-.5-.4-1-.7-1.7-.9.7-.3,1.3-.5,2-.6,1.3-.3,2.5-.4,3.5-.2,1.3.2,2.3.6,3.2,1.4.5.5,1,1.1,1.3,1.8.5,1.2.8,2.6.8,4.2v35.7h0ZM388.3,446.3c.9-3.8,2.4-7.6,4.5-11.3,3.8-6.7,9.3-12.9,16.6-18.6,7.3-5.7,16-10.7,26.1-14.8,10-4.1,21.1-7.2,32.9-9.3,11.8-2.1,24-3,36.3-2.8,12.3.2,24.4,1.5,35.9,3.9,11.6,2.4,22.3,5.9,31.9,10.3,9.6,4.4,17.9,9.6,24.7,15.5,6.7,5.9,11.7,12.4,14.9,19.2,1.2,2.5,2,5,2.7,7.6.2.6.3,1.3.4,1.9,0,0,0,0,0,0,.4,2.2.6,4.4.6,6.7,0,36.2-51.2,65.7-114.2,65.7s-114.2-29.5-114.2-65.7.4-5.7,1-8.5h0s0,0,0,0ZM555.5,542.1c-.8,1.3-1.5,2.6-2,3.9-.8,2-1.2,4.1-1.2,6v36c-15.7,4.5-33.2,6.8-50.7,6.8-31.5,0-60-7.3-80.7-19.1l-.3-.2c-20.6-11.8-33.4-28.2-33.4-46.2v-62.2c9.6,31.6,57.2,55.6,114.3,55.6s104.7-24.1,114.3-55.6v62.2c0,17.4-12.4,34.2-33.9,46.5v-34.9c0-1.9-.4-3.7-1-5.2-.5-1-1.1-1.9-1.9-2.6-1.2-1.1-2.7-1.8-4.5-2-1.3-.2-2.8,0-4.3.3-.9.2-1.8.5-2.8.9-.9.4-1.9.8-2.8,1.4-.8.5-1.7,1.1-2.5,1.7h0c0,0,0,0-.1.1-.6.5-1.2.9-1.8,1.4-1.8,1.6-3.3,3.3-4.6,5.3h0s0,0,0,0ZM708,776.2c-26.2-52-56.2-96.5-91.6-135.9-17.4-19.4-37.4-38.7-59.6-57.4v-13c30.2,25,56.6,50.8,78.5,76.7,27.2,32.1,50.9,67.3,72.6,107.6,3.1,5.7,6.1,11.6,9.1,17.4-1.7-.3-3.5,0-5.2.8-1.7.9-3.1,2.2-3.8,3.7h0ZM710,780.2c0-.1-.1-.3-.2-.4,0,0,0-.1,0-.2,0-.2,0-.4,0-.7,0-1.6,1.3-3.4,3.2-4.3,1.3-.6,2.6-.8,3.8-.6,1.1.2,1.9.8,2.4,1.7l4.7,9.4c-1.7,0-3.4.5-5.1,1.3-1.6.8-3,1.9-4,3.2l-4.7-9.4h0s0,0,0,0ZM715.3,797.3c-.7-1.4-.6-3,.2-4.7.8-1.7,2.4-3.2,4.3-4.2,1.9-1,4-1.3,5.9-.9,1.8.4,3.1,1.3,3.8,2.7l9.5,19.1c-.5,0-1,.1-1.5.2-1,.2-2.1.3-3.1.5-1,.2-2.1.4-3.1.6-1.8.4-3.9.8-5.9,1.7-.7.3-1.4.6-2,1l-7.9-16h0s0,0,0,0ZM735.8,847.4c-.8.8-1.4,1.6-1.9,2.5-.4.8-.7,1.5-1,2.3l-13.2-26.6h0c-.3-.6-.5-1.2-.5-1.8,0-.7,0-1.5.1-2.2s.5-1.5.9-2.2.9-1.4,1.6-2c.6-.6,1.3-1.2,2.1-1.6.7-.5,1.5-.9,2.4-1.2,1.8-.8,3.8-1.2,5.5-1.5,1-.2,2-.4,3-.6,1-.2,2.1-.4,3.1-.5,1-.2,2-.3,3-.4,1.1-.1,2-.2,2.8-.2.9,0,1.7,0,2.5.1.8.1,1.5.3,2.2.6.7.3,1.3.6,1.8,1.1.5.4.9,1,1.3,1.5,0,0,0,0,0,0,0,0,0,0,0,0l13.2,26.7c-.8-.3-1.6-.5-2.5-.7-.9-.1-1.9-.2-2.9-.2-.9,0-1.8,0-3,.2-1,.1-2.1.3-3.1.4-1,.2-2.1.3-3.1.5-1,.2-2.1.4-3.1.6-1.9.4-3.9.8-5.9,1.7-1,.4-1.9.9-2.8,1.4-.9.6-1.7,1.2-2.5,2h0ZM762.5,845.9l-22,3.6c.1,0,.2-.2.4-.3.6-.4,1.2-.7,1.8-1,.7-.3,1.4-.5,2.2-.7.8-.2,1.7-.4,2.6-.6.9-.2,1.9-.4,2.9-.5,1-.2,2-.3,3-.5,1-.2,1.9-.3,2.9-.4,1-.1,1.8-.2,2.5-.2.8,0,1.4,0,2,.1.6,0,1.1.2,1.6.4h0s0,0,0,0ZM739.7,860.5l-1.5-3c0-.2,0-.3,0-.5l1.7,3.3s-.1.1-.2.2h0s0,0,0,0ZM743.5,860.1c-.3.3-.5.6-.6.9l-4.4-8.7,26.3-4.4c.2.2.3.3.5.4l3.8,7.8c-.2-.1-.5-.2-.7-.3-.6-.2-1.2-.3-1.9-.3h0c-.6,0-1.2,0-1.8.2h0l-17.9,3h0c-.6.1-1.2.2-1.7.4-.6.2-1.2.6-1.6,1h0,0ZM772.7,865.4c0,.6-.2,1.2-.4,1.8-.1.3-.2.5-.4.7,0,0,0,0-.2.2-.2.1-.5.3-.9.4-.7.2-1.5.4-2.2.5h0l-17.9,3h0c-.7.1-1.5.3-2.4.3-.6,0-1,0-1.5,0-.4,0-.7-.2-1-.3-.2-.1-.4-.3-.5-.5,0,0-.1-.2-.2-.2h0c-.2-.2-.3-.5-.4-.7l-.2-.4s0,0,0,0h0s-.4-.8-.4-.8v-.6c0-.2,0-.3,0-.5v-.4c0,0,.1.1.2.2.5.4,1,.7,1.6,1,.6.3,1.3.5,2,.6.4,0,.8.1,1.2.1h.5c.5,0,1-.1,1.5-.2h0l17.9-3c.5,0,1-.2,1.5-.3.6-.2,1.1-.4,1.5-.6.2-.1.5-.3.7-.5v.2h0s0,0,0,0Z"/>
  </g>
  <g id="Layer_3">
    <path d="M378.7,470.8c-8.2-4.6-16.5-9.2-24.9-13.7-60.1-32.6-122.9-63.8-186.2-94.7C112.1,335.4,56.2,308.5,0,281.8v-5.2c56.1,26.8,111.9,53.7,167.6,80.7,63.3,30.8,126.1,62,186.2,94.7,11.2,6,22.2,12.1,33.1,18.3-2.8,0-5.5.2-8.3.5h0Z"/>
    <path d="M378.7,470.8c2.7-.3,5.5-.5,8.2-.5v59.8c0,18.4,12.9,35.1,33.8,47.2l5,2.9c17.5,10.1,39.9,16.2,63.3,17.8,0,.1-1.2,2.6-63.3,2.6s-139-13.7-141.2-57.3c-2-40.2,59.2-68.4,94.1-72.6h0Z"/>
    <path d="M553.8,590l.6-.4,2.2-5.3h0c21.3,17.7,41.3,37,59.9,57.5,39.5,44,69.3,91,93.4,139.6l5.6,11.2c-.6,1.1-.9,2.2-.8,3.4l-.7.3c-2,1-3.7,2.6-4.7,4.6l-5.6-11.5c-24.1-49.9-53.9-98.2-93.4-143.4-17.6-19.9-36.4-38.7-56.4-56.2Z"/>
    <path d="M739.9,862.4l4.6,9.1h0c0,.2.1.3.2.4-6.5,1-9.7,1.2-11.1.8-.3,0-.5-.2-.8-.3-.8-.3-1.5-.8-2.1-1.3-.6-.5-1.2-1.2-1.5-1.9v-.2c0,0-15.9-32.6-15.9-32.6-.3-.7-.6-1.5-.6-2.2-.1-.9,0-1.8.2-2.7.2-.9.5-1.8,1-2.7.5-.8,1.1-1.6,1.8-2.3.6-.6,1.2-1.1,1.9-1.6l.4-.3c.3-.2.7-.4,1-.6,0,.3,0,.6,0,.9,0,.8.3,1.5.6,2.2l15.8,31.7h0c0,0,0,.1,0,.2.4.7.9,1.4,1.5,1.9.6.5,1.3,1,2.1,1.3.3.1.6.2.9.3Z"/>
    <path d="M717.5,824.8l-8.5-17.6c-.9-2-.8-4.2.2-6.1,1-2,2.7-3.6,4.7-4.6l.7-.3c0,.9.2,1.7.6,2.5l8.5,17.2h0c-.7.4-1.3,1-1.9,1.5-.7.7-1.3,1.4-1.8,2.3-.5.8-.8,1.7-1,2.6-.1.6-.2,1.1-.2,1.7-.4.2-.7.4-1,.6l-.4.3h0Z"/>
  </g>
</svg>