<?xml version="1.0" encoding="UTF-8"?>
<svg xmlns="http://www.w3.org/2000/svg" viewBox="0 0 1000 1000">
  <g id="Layer_2" data-name="Layer 2">
    <path d="M246.7912,580.6859l171.559-99.0436,171.5591-99.0436c2.7057-1.5675,4.1934-3.6742,4.1934-5.9306,0-2.2664-1.4876-4.3731-4.1934-5.9306-5.3915-3.1151-14.1676-3.1151-19.5591,0l-171.559,99.0436-171.569,99.0336c-2.7057,1.5575-4.1934,3.6742-4.1934,5.9306s1.4877,4.3731,4.1934,5.9306c2.6957,1.5575,6.2401,2.3363,9.7845,2.3363s7.0888-.7788,9.7845-2.3363v.01ZM589.4001,371.5861c2.3862,1.3778,3.6942,3.175,3.6942,5.072s-1.3179,3.6942-3.6942,5.072l-9.0956,5.2517-9.0258-15.6253c5.1419-2.7157,13.1393-2.6458,18.1214.2296ZM227.7213,579.8173c-2.3862-1.3778-3.6942-3.175-3.6942-5.072,0-1.7772,1.1682-3.4645,3.2748-4.8024l6.8692,11.9012c-2.3663-.2995-4.6127-.9685-6.4498-2.0268ZM235.3992,581.9739l-7.2386-12.5402,171.1197-98.794,171.1197-98.794,9.0357,15.6453-161.5948,93.2927-171.549,99.0336c-2.9653,1.7173-7.0189,2.4262-10.8928,2.1466v.01ZM840.8829,504.4962l-222.3888-128.3872-.2496.4293-.03-.0599.1797-.3195-18.96-10.9427c-10.6532-6.1503-27.9758-6.1503-38.619,0l-171.559,99.0436-171.559,99.0536c-5.2517,3.0352-8.1471,7.0888-8.1471,11.4319h0v13.9679c0,4.3431,2.8954,8.4067,8.1471,11.4419l241.4487,139.3998,13.319,7.6879c1.6474.9585,3.8239,1.4277,5.9905,1.4277s4.3431-.4793,5.9905-1.4277l13.319-7.6879,171.559-99.0436,171.5591-99.0436c5.2517-3.0352,8.1471-7.0988,8.1471-11.4419v-14.0878c0-4.3431-2.8955-8.4067-8.1471-11.4419ZM217.4475,598.8372c-4.453-2.7856-6.8991-6.36-6.8991-10.124v-9.6547c1.2281,2.6059,3.5744,5.0021,6.8991,6.969v12.8098ZM210.5484,574.7453c0-3.9737,2.7157-7.7278,7.6479-10.5733l171.559-99.0436,171.549-99.0436c10.3736-5.9905,27.2569-5.9905,37.6206,0l18.2112,10.5134-380.2294,219.5233-18.7104-10.8029c-4.9322-2.8455-7.6479-6.5996-7.6479-10.5733h0ZM458.8962,738.257l-240.4502-138.8208v-12.8197l18.0615,10.4335v6.6395h.4992l-.2496.4293,222.1392,128.2475v5.8907ZM458.8962,731.2181l-221.3903-127.8181v-5.8907l221.3903,127.8181v5.8907h0ZM483.9466,746.3842c-3.0252,1.7472-7.9574,1.7472-10.9926,0l-6.7294-3.8839c3.8339,1.1082,8.0273,1.6773,12.2307,1.6773s8.3867-.5691,12.2307-1.6773l-6.7294,3.8839h-.01ZM497.016,738.8261c-10.3137,5.8008-26.8177,5.8008-37.1214,0v-5.9206c5.2217,2.8056,11.8812,4.2233,18.5607,4.2233s13.3389-1.4178,18.5607-4.2233v5.9206ZM497.016,731.7772c-10.3137,5.8008-26.8177,5.8008-37.1214,0v-5.9206c5.2217,2.8056,11.8812,4.2233,18.5607,4.2233s13.3389-1.4178,18.5607-4.2233v5.9206ZM840.1341,540.739l-171.3095,98.9038-170.8102,98.6142v-5.8907l342.1096-197.518v5.8907h.0101ZM840.1341,533.7001l-342.1097,197.518v-5.8907l342.1097-197.518v5.8907h0ZM848.0216,530.0259c0,3.7641-2.4461,7.3284-6.8991,10.124v-5.8807c3.3248-1.9669,5.671-4.3531,6.8991-6.969v2.7257ZM848.0216,522.977c0,3.7641-2.4461,7.3284-6.8991,10.124v-5.8807c3.3248-1.9669,5.671-4.3531,6.8991-6.969v2.7257ZM840.3837,526.5114l-343.1081,198.0971c-10.3736,5.9905-27.247,5.9905-37.6206,0l-221.65-127.9679,380.2394-219.5233,222.1392,128.2474c4.9322,2.8455,7.6479,6.5996,7.6479,10.5733s-2.7157,7.7278-7.6479,10.5733ZM266.2005,446.2882l50.8297,29.3437c1.1881.6889,2.516,1.0284,3.8439,1.0284s2.6558-.3395,3.8439-1.0284l25.4199-14.6768c2.3763-1.3678,3.8439-3.9238,3.8439-6.6595v-65.5764h0c0-1.2979-.8387-2.4861-2.3563-3.3647l-2.546-1.4677-2.2964-1.3279v-15.1161h-.4992l.2496-.4293-50.8197-29.3536-.2496.4293-.2496-.4293-25.4199,14.6768.2496.4293h-.4992v15.1161l-2.2964,1.3179-2.546,1.4677c-1.5176.8786-2.3563,2.0767-2.3563,3.3647v65.5964c0,2.7357,1.4777,5.2916,3.8439,6.6595h.01ZM266.6997,445.4295c-.5991-.3494-.9984-1.0384-1.1582-1.9469l49.7714,28.7346c.02.5092.0998.9785.2296,1.4078l-48.8329-28.1955h-.01ZM265.4617,442.2845v-64.4382l49.8313,28.7746v64.4382s-49.8313-28.7746-49.8313-28.7746ZM265.6414,376.7979l2.0468-3.5344,49.9711,28.8444-2.0468,3.5344s-49.9711-28.8444-49.9711-28.8444ZM318.5379,402.5672c.6989.2995,1.5176.4593,2.3363.4593s1.6374-.1598,2.3363-.4593l2.0368,3.5344c-2.536,1.2281-6.2302,1.2281-8.7562,0l2.0368-3.5344h.01ZM324.2189,474.7732c-2.0667,1.1881-4.6227,1.1881-6.6894,0-.619-.3594-1.0184-1.0883-1.1682-2.0368,1.3379.5791,2.9154.8886,4.5129.8886s3.175-.3095,4.5129-.8886c-.1498.9485-.5491,1.6773-1.1682,2.0368ZM325.4669,471.5982c-2.5959,1.3678-6.5696,1.3678-9.1655,0v-64.4881c1.3479.5991,2.9553.9185,4.5828.9185s3.2349-.3195,4.5828-.9185c0,0,0,64.4881,0,64.4881ZM324.0991,402.1079l24.5512-14.1776,2.0468,3.5344-24.5512,14.1776s-2.0468-3.5344-2.0468-3.5344ZM349.6387,460.1063l-23.423,13.5186c.1298-.4293.2097-.8986.2296-1.4078l24.3515-14.0578c-.1598.9086-.5591,1.5975-1.1582,1.9469h0ZM350.8768,456.9513l-24.4214,14.0977v-64.4382l24.4214-14.0977s0,64.4382,0,64.4382ZM351.8253,458.0496c.02-.1697.03-.3395.0399-.5192.1498-.0998.2995-.1897.4293-.2995-.1398.2796-.2995.5591-.4693.8187h0ZM352.9835,454.3055c0,.6989-.3994,1.3878-1.1083,1.9869v-64.3683c.4293-.2696.8087-.5691,1.1083-.8986v63.2801ZM350.3876,385.7837l.7388.4293c1.1981.6889,1.8571,1.5775,1.8571,2.506,0,.8087-.5092,1.5875-1.4377,2.2365l-2.0567-3.5644c.5691-.4493.8886-.9984.8886-1.6075h.01ZM295.4643,338.6681l49.8313,28.7746-24.4214,14.0977-49.8313-28.7746,24.4214-14.0977ZM267.7581,370.0685l1.7972-1.0384v2.0667h.9984v-17.4624l49.8313,28.7746v17.1928l-49.5717-28.6248-.4992.8686,49.8113,28.7646.2596-.4493v.3095h.9984v-.3095l.2596.4493,24.4015-14.0878-.4992-.8686-24.1618,13.948v-17.1928l24.4214-14.0977v17.4824h.9984v-2.0667l1.7972,1.0384c.5092.2895.7987.6689.7987,1.0384s-.2895.7388-.7987,1.0384l-25.4199,14.6768c-1.238.7189-3.3447.7189-4.5828,0l-50.8297-29.3437c-.5092-.2895-.7987-.6689-.7987-1.0384s.2895-.7388.7987-1.0384l-.01-.03ZM265.2121,371.5362l.7388-.4293c0,.5991.3195,1.1582.8886,1.6075l-2.0568,3.5644c-.9285-.649-1.4377-1.4277-1.4377-2.2365,0-.9185.659-1.8071,1.8571-2.506h.01ZM263.355,439.6387v-63.2801c.2995.3195.6789.619,1.1083.8986v64.3683c-.7089-.5891-1.1083-1.288-1.1083-1.9769v-.01ZM264.0439,442.5541c.1398.0998.2796.1997.4293.2995,0,.1797.02.3494.0399.5192-.1797-.2596-.3395-.5391-.4693-.8187Z"/>
  </g>
  <g id="Layer_3" data-name="Layer 3">
    <path d="M478.09,748.88h0l-7.8,4.5c-19.8017,11.4325-44.1983,11.4325-64,0l-211.61-122.18-19.09-11c-10.54-6.09-10.54-16,0-22l34-19.61v10.66c0,4.13,2.84,8.09,7.91,11l241.79,139.57,13.34,7.7c1.6775.9032,3.5548,1.3708,5.46,1.36Z"/>
    <path d="M319.06,476.29v.16h-93.23c-1.9824-.0009-3.9289-.529-5.64-1.53l-2.21-1.3c-1.6011-.9388-3.424-1.4325-5.28-1.43h-13.89c-1.306-.0028-2.5886-.3476-3.72-1l-43-24.53c-1.0401-.5955-1.4005-1.9213-.805-2.9614.2073-.3621.5146-.6567.885-.8486l20.65-10.73c.3093-.159.6523-.2413,1-.24h13.18c1.3993-.0027,2.7824-.2991,4.06-.87l2.24-1c1.7467-.7783,3.6377-1.1804,5.55-1.18h63.6v11c-.0016,2.574,1.3709,4.953,3.6,6.24l50.95,29.41c.6431.3698,1.3373.6427,2.06.81Z"/>
  </g>
</svg>