<?xml version="1.0" encoding="UTF-8"?>
<svg id="Layer_1" data-name="Layer 1" xmlns="http://www.w3.org/2000/svg" viewBox="0 0 1000 1000">
  <g id="Layer_2" data-name="Layer 2">
    <path d="M625.3332,499.147c-.2854-.7323-.8077-1.2761-1.4377-1.4969-.2477-.0862-.5061-.1185-.7592-.0969h-.0108l-.9477.0862h0c-.2638.0215-.5169.1023-.7539.2423l-4.3723,2.5254c-.2746-.5546-.6192-1.0661-.9961-1.5184l-.9315-2.3961s-.0108-.0108-.0108-.0162,0-.0162-.0054-.0215c-.0054-.0108-.0162-.0162-.0215-.0269-.0108-.0162-.0215-.0269-.0377-.0431-.0108-.0108-.0269-.0215-.0431-.0269-.0162-.0108-.0269-.0162-.0431-.0215s-.0323-.0108-.0485-.0108h-.0485c-.0162,0-.0377,0-.0538.0108-.0108,0-.0215,0-.0323.0054-.0054,0-.0108.0108-.0162.0108s-.0162,0-.0215.0054l-1.4.8077h-.0054l-12.6268,7.2907s-.0162.0162-.0269.0215c-.0162.0108-.0269.0215-.0431.0377-.0108.0108-.0215.0269-.0269.0431-.0108.0162-.0162.0269-.0215.0431s-.0108.0323-.0108.0485v.0485c0,.0162,0,.0377.0108.0538,0,.0108,0,.0215.0054.0323l1.2977,3.3384s.0054.0054.0108.0108c0,.0108,0,.0162.0108.0269.0162.0215.0377.0377.0538.0538.0108.0108.0215.0269.0377.0377.0431.0269.0915.0431.14.0431.0323,0,.0646-.0054.0969-.0162.0108,0,.0162-.0108.0215-.0162h.0162l.4361-.2531c.1292-.0754.1723-.2369.0969-.3661-.0538-.0969-.1615-.14-.2584-.1346-.1777-.2369-.3715-.4577-.5762-.6462l-.3446-.8884c.77.6138,1.4538,1.5184,1.9115,2.5415l-.5762.0538h0c-.0162,0-.0323.0108-.0538.0162-.0162.0054-.0377.0108-.0538.0162h0l-5.4115,3.123c-1.0554.6085-1.4915,2.1915-.9746,3.5269l11.9914,30.9127c.3769.9746,1.19,1.5992,2.0461,1.5992.0538,0,.1077,0,.1561-.0054h0l.9477-.0862h.0162c.2531-.0269.5061-.1023.7377-.2369l23.9882-13.8491c1.0554-.6085,1.4915-2.1915.9746-3.5269l-11.9914-30.9127h-.0108v-.0002ZM614.7472,496.977l.3823.98c-.3231-.2585-.6623-.4738-.9961-.6246l.6192-.3554h-.0054ZM608.9641,545.971l-11.9914-30.9127c-.4254-1.0985-.0915-2.3854.7431-2.8646l.1454-.0808c-.6408.7592-.8508,1.9815-.4361,3.053h0l11.9914,30.9127c.1777.4523.4523.8238.7808,1.1038-.5169-.1346-.9854-.5762-1.2331-1.2115h-.0001ZM636.0861,533.1235l-23.9882,13.8491c-.1669.0969-.3446.1562-.5277.1723h0c-.1777.0162-.3608-.0054-.5385-.07-.4792-.1669-.8885-.6031-1.1146-1.1846l-11.9914-30.9073h0c-.4254-1.0985-.0915-2.3854.7431-2.8646l5.4061-3.123h.0054s.0162-.0215.0269-.0269c.0108-.0108.0269-.0162.0377-.0323,0,0,.0108-.0108.0162-.0162.0054-.0108.0108-.0215.0215-.0323.0054-.0108.0162-.0269.0215-.0377,0-.0054.0054-.0108.0054-.0162v-.1023h0c0-.0108-.0054-.0215-.0108-.0377,0-.0108,0-.0215-.0054-.0323-.5977-1.54-1.7015-2.8861-2.8969-3.5592l-.1131-.2908,12.336-7.1238c1.2707.3608,2.66,1.8361,3.333,3.5646,0,0,.0054.0054.0108.0108,0,.0108,0,.0162.0108.0269.0162.0269.0377.0377.0592.0592.0108.0108.0215.0269.0377.0323.0431.0269.0915.0431.14.0431.0323,0,.0646-.0054.0969-.0162.0108,0,.0162-.0108.0215-.0162h.0162l5.4169-3.1284h0c.1669-.0969.3392-.1508.5169-.1669h.0162c.1777-.0162.3608.0054.5385.07.4792.1669.8831.6031,1.1146,1.1846l11.9914,30.9127c.4254,1.0985.0915,2.3854-.7431,2.8646l-.0108-.0054h.0002ZM465.0459,495.5716c.3769.9746,1.19,1.6046,2.0461,1.6046.0538,0,.1023,0,.1562-.0054l.9477-.0862h.0162c.2531-.0269.5061-.1023.7377-.2369l23.9882-13.8491c1.0554-.6085,1.4915-2.1915.9746-3.5269l-11.9914-30.9127c-.2854-.7269-.8077-1.2761-1.4377-1.4969-.2531-.0862-.5115-.1185-.7646-.0969h-.0108l-.9423.0862c-.2638.0215-.5169.1023-.7538.2423l-4.3723,2.5254c-.2746-.5546-.6192-1.0661-.9961-1.5131l-.9315-2.3961s-.0108-.0108-.0108-.0162,0-.0162-.0054-.0215c-.0054-.0108-.0162-.0162-.0215-.0269-.0108-.0162-.0215-.0269-.0323-.0377-.0162-.0108-.0269-.0215-.0431-.0323-.0162-.0054-.0269-.0162-.0431-.0215s-.0377-.0108-.0538-.0108h-.0431c-.0215,0-.0377,0-.0538.0108h-.0323c-.0054,0-.0108.0054-.0162.0108-.0054,0-.0162,0-.0215.0054l-1.4.8077h0l-12.6322,7.2961s-.0162.0162-.0269.0215c-.0162.0108-.0269.0215-.0377.0377-.0108.0108-.0215.0269-.0269.0431-.0108.0162-.0162.0269-.0215.0431s-.0108.0323-.0108.0485v.0485c0,.0162,0,.0377.0108.0538,0,.0108,0,.0215.0054.0323l1.2977,3.3384.0108.0108c0,.0108,0,.0162.0108.0269.0162.0269.0377.0377.0592.0592.0108.0108.0215.0269.0323.0323.0431.0269.0915.0431.14.0431h0c.0323,0,.0646-.0054.0969-.0162.0108,0,.0162-.0108.0215-.0162h.0162l.4361-.2531c.1292-.0754.1723-.2369.0969-.3661-.0538-.0969-.1562-.14-.2585-.1346-.1777-.2369-.3715-.4577-.5762-.6461l-.3446-.8884c.77.6138,1.4538,1.5184,1.9115,2.5415l-.5762.0538h0c-.0215,0-.0377.0108-.0592.0162-.0162,0-.0323.0054-.0431.0162h0l-5.4169,3.1284c-1.0554.6085-1.4915,2.1915-.9746,3.5269l11.9914,30.9127-.0215-.0162v-.0002ZM471.3242,446.3837l.3823.98c-.3231-.2585-.6623-.4738-.9961-.6246l.6192-.3554h-.0054ZM455.246,461.5143l5.4169-3.1284s.0162-.0162.0269-.0215c.0108-.0108.0269-.0162.0377-.0323l.0162-.0162c.0108-.0108.0108-.0215.0215-.0323.0054-.0108.0162-.0269.0215-.0377,0-.0054.0054-.0108.0054-.0215v-.1023h0c0-.0108-.0054-.0269-.0108-.0377,0-.0108,0-.0215-.0054-.0323-.5977-1.54-1.7015-2.8861-2.8969-3.5538l-.1131-.2908,12.336-7.1238c1.2707.3608,2.66,1.8361,3.333,3.5646l.0108.0108c0,.0108,0,.0162.0108.0269.0162.0269.0377.0377.0592.0592.0108.0108.0215.0269.0323.0323.0431.0269.0915.0431.14.0431h0c.0323,0,.0646-.0054.0969-.0162.0108,0,.0162-.0108.0215-.0162h.0162l5.4169-3.1284c.1669-.0969.3392-.1508.5115-.1669h.0162c.1777-.0162.3608.0054.5385.07.4792.1669.8831.6031,1.1092,1.1846l11.9914,30.9127c.4254,1.0984.0915,2.3854-.7431,2.8646l-23.9882,13.8491c-.1669.0969-.3446.1562-.5277.1723h0c-.1777.0162-.3554-.0054-.5385-.07-.4792-.1669-.8831-.6031-1.1092-1.1846l-11.9914-30.9127c-.4254-1.0984-.0969-2.3854.7377-2.8646h0ZM454.2929,461.6005l.14-.0808c-.6408.7592-.8508,1.9869-.4361,3.0584l11.9914,30.9127c.1777.4523.4523.8238.7808,1.1038-.5169-.1346-.9854-.5762-1.2331-1.2115l-11.9914-30.9127c-.4254-1.0984-.0969-2.3854.7377-2.8646l.0108-.0054h-.0001ZM675.0864,534.7981c0-.8454-.5492-1.6369-1.5508-2.213h0l-10.7045-6.1976,1.6746-.9692s.0162-.0162.0269-.0215c.0162-.0108.0269-.0215.0431-.0377.0108-.0108.0215-.0269.0269-.0431.0108-.0162.0162-.0269.0215-.0431s.0108-.0323.0108-.0485v-.0485c0-.0162,0-.0377-.0108-.0538,0-.0108,0-.0215-.0054-.0323l-21.9474-56.5647s-.0054-.0108-.0108-.0162c0-.0054,0-.0108-.0054-.0162h0c-.0054-.0108-.0162-.0162-.0215-.0269-.0108-.0108-.0215-.0269-.0323-.0377,0,0-.0054-.0108-.0108-.0108-.0108-.0108-.0215-.0162-.0377-.0215-.0108-.0054-.0269-.0162-.0377-.0215-.0054,0-.0108-.0054-.0162-.0054-.0108,0-.0269,0-.0431-.0054h-.0593l-2.4984.2208c-.1184-.2154-.2908-.4038-.4792-.5115h0l-.9854-.5708c-.1777-.1023-.3661-.1292-.5223-.0808l-2.5361-3.15s-.0162-.0108-.0269-.0215c-.0162-.0108-.0269-.0269-.0431-.0377s-.0269-.0162-.0431-.0215-.0323-.0108-.0538-.0162h-.1023c-.0162,0-.0323.0108-.0485.0162-.0108,0-.0215,0-.0323.0108l-22.6905,13.1006c-2.2777-2.4338-4.4315-5.4707-6.7092-9.4714-1.9815-3.473-3.7692-7.1668-5.503-10.7368-1.5561-3.2092-3.0261-6.2461-4.5069-8.8468-1.7554-3.0907-3.263-5.1153-4.7492-6.3699-.7862-.6623-1.5831-1.1146-2.3638-1.3354-.5169-.1454-1.0392-.1938-1.5615-.1508h-.0323l-2.6815.2369h0l-.4361.0377-.4738.0431c-.7161.0646-1.4538.3123-2.1861.7377-.6408.3715-1.1954.8238-1.6531,1.3569-.0269.0323-.0485.0646-.0754.0969l-22.5828-58.207s-.0054-.0108-.0108-.0162c0-.0054,0-.0162-.0054-.0215h0c-.0054-.0108-.0162-.0162-.0215-.0269-.0108-.0108-.0162-.0269-.0323-.0377,0,0-.0108-.0108-.0162-.0162-.0108-.0108-.0215-.0108-.0323-.0215-.0108-.0054-.0215-.0162-.0323-.0162s-.0162-.0054-.0215-.0108h-.1077l-2.4877.2208c-.1185-.2154-.2908-.4038-.4792-.5115l-.9854-.5708h0c-.1831-.1023-.3661-.1292-.5223-.0808l-2.5361-3.15s-.0162-.0108-.0269-.0215c-.0162-.0108-.0269-.0269-.0431-.0377s-.0269-.0162-.0431-.0215-.0323-.0108-.0538-.0162h-.1023c-.0162,0-.0323.0108-.0485.0162-.0108,0-.0215,0-.0323.0108l-3.5053,2.0246c-2.2777-2.4338-4.4315-5.4761-6.7091-9.4714-1.9815-3.473-3.7692-7.1668-5.503-10.7368-1.5561-3.2146-3.0315-6.2461-4.5069-8.8522-1.7554-3.0907-3.263-5.1153-4.7492-6.3699-.7861-.6677-1.5831-1.1146-2.3638-1.3354-.5169-.1454-1.0392-.1938-1.5615-.1508h-.0323l-2.6815.2369h0l-.4361.0377h0l-.4738.0431c-.7161.0646-1.4538.3123-2.1861.7377-.6408.3715-1.1954.8238-1.6531,1.3569-.4469.5169-.8077,1.12-1.0823,1.7931-.35.8615-.5654,1.8846-.6408,3.0315-.1454,2.1861.1831,4.8838,1.0285,8.4914.7108,3.0423,1.7015,6.3538,2.7515,9.8645,1.1685,3.8984,2.3746,7.9261,3.3169,11.9968,1.2277,5.2661,1.7877,9.6276,1.7715,13.7145,0,.6031.0485,1.2115.1615,1.8038.1077.5923.2746,1.1738.4846,1.7284l.5546,1.4215c-.1562-.0754-.3123-.0915-.4523-.0485l-2.5307-3.15s-.0162-.0108-.0269-.0215c-.0162-.0108-.0269-.0269-.0431-.0377s-.0269-.0162-.0431-.0215-.0323-.0108-.0485-.0162h-.1023c-.0162,0-.0323.0108-.0485.0162-.0108,0-.0215,0-.0323.0108l-10.5376,6.0845c-2.2777-2.4338-4.4315-5.4761-6.7091-9.4714-1.9815-3.473-3.7692-7.1668-5.503-10.7368-1.5561-3.2146-3.0261-6.2461-4.5069-8.8468-1.7554-3.0907-3.263-5.1153-4.7492-6.3699-.7861-.6623-1.5831-1.1146-2.3638-1.3354-.5169-.1454-1.0392-.1938-1.5615-.1508h-.0269l-2.6815.2369h0l-.4361.0377-.4738.0431c-.7161.0646-1.4538.3123-2.1861.7377-.6408.3715-1.1954.8238-1.6531,1.3569-.4469.5169-.8077,1.12-1.0823,1.7931-.35.8615-.5654,1.8846-.6408,3.0315-.1454,2.1807.1831,4.8838,1.0285,8.4914.7108,3.0423,1.7015,6.3538,2.7515,9.8591,1.1685,3.8984,2.3746,7.9261,3.3223,11.9968,1.2277,5.2661,1.7877,9.6276,1.7715,13.7145,0,.6031.0485,1.2115.1615,1.8038.1077.5923.2746,1.1738.4846,1.7284l.5546,1.4215c-.1562-.0754-.3123-.0915-.4523-.0485l-2.5361-3.15s-.0162-.0108-.0269-.0215c-.0108-.0108-.0269-.0269-.0431-.0323-.0162-.0108-.0269-.0162-.0431-.0215s-.0323-.0108-.0485-.0162h-.0969c-.0162,0-.0323.0108-.0538.0162-.0108,0-.0215,0-.0323.0108l-10.5322,6.0845c-2.2777-2.4338-4.4315-5.4761-6.7091-9.4714-1.9815-3.473-3.7692-7.1668-5.503-10.7368-1.5561-3.2146-3.0261-6.2461-4.5069-8.8468-1.7554-3.0907-3.263-5.1153-4.7492-6.3699-.7861-.6623-1.5831-1.1146-2.3638-1.3354-.5169-.1454-1.0392-.1938-1.5615-.1508h-.0323l-2.6815.2369h0l-.4361.0377h0l-.4738.0431c-.7161.0646-1.4538.3123-2.1861.7377-.6408.3715-1.1954.8238-1.6531,1.3569-.4469.5169-.8077,1.12-1.0823,1.7931-.35.8615-.5654,1.8846-.6408,3.0315-.1454,2.1807.1831,4.8838,1.0285,8.4914.7108,3.0423,1.7015,6.3538,2.7515,9.8591,1.1684,3.8984,2.3746,7.9261,3.3169,11.9968,1.2277,5.2661,1.7877,9.6276,1.7715,13.7145,0,.6031.0485,1.2115.1615,1.8038.1077.5923.2746,1.1738.4846,1.7284l.5546,1.4215c-.1561-.0754-.3123-.0915-.4523-.0485l-2.5361-3.15s-.0162-.0162-.0269-.0215c-.0108-.0108-.0269-.0269-.0431-.0323-.0162-.0108-.0269-.0162-.0431-.0215s-.0323-.0108-.0485-.0162h-.1023c-.0162,0-.0323.0108-.0485.0162-.0108,0-.0215,0-.0323.0108l-10.5322,6.0845c-2.2777-2.4338-4.4315-5.4761-6.7092-9.4714-1.9815-3.473-3.7692-7.1668-5.503-10.7368-1.5561-3.2146-3.0261-6.2461-4.5069-8.8468-1.7554-3.0907-3.263-5.1153-4.7492-6.3699-.7861-.6623-1.5831-1.1146-2.3638-1.3354-.5169-.1454-1.0392-.1938-1.5615-.1508h-.0323l-2.6815.2423-.4415.0377-.4738.0431c-.7161.0646-1.4538.3123-2.1861.7377-.6408.3715-1.1954.8292-1.6531,1.3569-.4469.5169-.8077,1.12-1.0823,1.7931-.35.8615-.5654,1.8846-.6408,3.0315-.1454,2.1807.1831,4.8838,1.0285,8.4914.7108,3.0423,1.7015,6.3538,2.7515,9.8591,1.1684,3.8984,2.3746,7.9261,3.3223,11.9968,1.2277,5.2661,1.7877,9.6276,1.7715,13.7145,0,.6031.0485,1.2115.1615,1.8038.1077.5923.2746,1.1738.4846,1.7284l.5546,1.4215c-.1561-.0754-.3123-.0915-.4523-.0485l-2.5361-3.15s-.0162-.0108-.0269-.0215c-.0108-.0108-.0269-.0269-.0431-.0323-.0162-.0108-.0269-.0162-.0431-.0215s-.0323-.0108-.0485-.0162h-.1023c-.0162,0-.0323.0108-.0485.0162-.0108,0-.0215,0-.0323.0108l-10.5322,6.0845c-2.2777-2.4338-4.4315-5.4761-6.7092-9.4714-1.9815-3.473-3.7692-7.1668-5.503-10.7368-1.5561-3.2092-3.0261-6.2461-4.5069-8.8468-1.7554-3.0907-3.263-5.1153-4.7492-6.3699-.7861-.6623-1.5831-1.1146-2.3638-1.3354-.5169-.1454-1.0392-.1938-1.5615-.1508h-.0323l-2.6815.2423-.4415.0377-.4738.0431c-.7161.0646-1.4538.3123-2.1861.7377-.6408.3715-1.1954.8292-1.6531,1.3569-.4469.5169-.8077,1.12-1.0823,1.7931-.35.8615-.5654,1.8846-.6408,3.0315-.1454,2.1807.1831,4.8838,1.0285,8.4914.7108,3.0423,1.7015,6.3538,2.7515,9.8591,1.1684,3.8984,2.3746,7.9261,3.3223,11.9968,1.2277,5.2661,1.7877,9.6276,1.7715,13.7144,0,.6031.0485,1.2115.1615,1.8038.1077.5923.2746,1.1738.4846,1.7284l.5546,1.4215c-.1562-.0754-.3123-.0915-.4523-.0485l-2.5361-3.15s-.0162-.0162-.0269-.0215c-.0108-.0108-.0269-.0269-.0431-.0323-.0162-.0108-.0269-.0162-.0431-.0215s-.0323-.0108-.0485-.0162h-.1023c-.0162,0-.0323.0108-.0485.0162-.0108,0-.0215,0-.0323.0108l-7.0322,4.06h0c-.0054,0-.0108.0108-.0162.0108,0,0-.0108,0-.0162.0054-.0108.0054-.0108.0162-.0215.0269-.0108.0108-.0215.0162-.0269.0269h0l-28.2366,40.1688c-1.9492-.6192-4.3723-.4308-5.9661.49l-13.7091,7.9153c-1.0015.5762-1.5561,1.3623-1.5561,2.213h0v1.9492c0,.8346.5654,1.6423,1.5561,2.213l6.6015,3.8176-5.6861,8.0876c-.0969.14-.3985.5654-.1669.8508l2.6815,3.3384.4415.5438.4738.5923.0054.0054s0,.0108.0054.0108c.0215.0215.0485.0323.07.0485,0,0,.0054,0,.0108.0054.07.0485.1508.0808.2531.0808.2423,0,.5761-.1292,1.0231-.3877l11.8406-6.8384,76.9668,44.5518-1.6692.9638h-.0054s-.0162.0215-.0269.0269c-.0108.0108-.0269.0162-.0377.0269,0,0-.0108.0108-.0162.0162-.0108.0108-.0108.0215-.0215.0323-.0054.0108-.0162.0269-.0215.0377,0,.0054-.0054.0108-.0054.0215v.1023h0c0,.0108.0054.0215.0108.0377,0,.0108,0,.0215.0054.0323l6.6445,17.1283.0054.0054c.0215.0431.0485.0808.0862.1077.0054.0054.0162.0108.0215.0162.0377.0215.0862.0431.1346.0431h.0215l.2908-.0269c.1185.2154.2908.4038.4738.5115h0l5.3684,3.1015h0c.1238.07.2477.1077.3661.1077.0538,0,.1023-.0215.1508-.0323l.3338.4146s.0162.0108.0215.0215c.0108.0108.0162.0215.0323.0323h.0108c.0054,0,.0108.0108.0215.0108.0377.0215.0808.0323.1238.0323h0c.0377,0,.0754-.0108.1077-.0269.0054,0,.0108,0,.0215-.0108h.0054l13.4183-7.7484,42.888,24.8228-1.6692.9638h-.0108s-.0162.0215-.0269.0269c-.0108.0108-.0269.0162-.0377.0269,0,0-.0108.0108-.0162.0162-.0108.0108-.0108.0215-.0215.0323-.0054.0108-.0162.0269-.0215.0377,0,.0054-.0054.0108-.0054.0215v.1023h0c0,.0108.0054.0269.0108.0377,0,.0108,0,.0215.0054.0323l5.8584,15.1037c.3769.9746,1.19,1.5992,2.0461,1.5992.0431,0,.0862,0,.1346-.0054h.0215l.4738-.0431h0l.4415-.0377h0l2.6815-.2423h.0108c.2585-.0269.5061-.1023.7431-.2369l188.4701-108.811c1.0554-.6085,1.4915-2.1915.9746-3.5269l-2.0084-5.1799,2.8861-1.6638c.9854-.5708,1.5561-1.3784,1.5561-2.213v-1.9492h0l-.0052-.0108h-.0006ZM639.8176,469.1281l1.4107-.1238-25.2213,14.5598-.2154-.56,24.0313-13.876h-.0054,0ZM638.0623,467.9327s.0431,0,.1023.0323l.9854.5708h0c.0808.0485.1561.1292.2261.2262l-23.7836,13.7306-.5008-1.2977,22.9759-13.2622h-.0054,0ZM635.1008,464.7827l2.3261,2.8915-22.5505,13.0198c-.1831-.42-.3931-.8292-.63-1.2061-.3123-.4846-.6623-.9208-1.05-1.3031-.1561-.1561-.3123-.3231-.4685-.4846l22.3782-12.9175h-.0054,0ZM579.5591,445.4684c.2154-.7646.5331-1.4431.9477-2.0192.4685-.6515,1.0769-1.1954,1.8092-1.6154.5869-.3392,1.1684-.5546,1.7285-.6354.0808-.0108.1561-.0215.2369-.0269l.4469-.0377c-.8023.4631-1.47,1.0608-1.9815,1.7715-.4469.6246-.7915,1.3569-1.0285,2.1861-.2477.8777-.3823,1.8954-.3985,3.0261-.0215,1.5831.1831,3.4353.6192,5.6592.7,3.5753,1.9169,7.6245,3.1984,11.916.4146,1.3838.8346,2.8,1.2492,4.2269,2.3207,7.9907,3.8607,14.6998,3.8284,21.4628,0,.6031.0485,1.2115.1615,1.8038.1077.5923.2746,1.1738.4846,1.7284l.9585,2.4715-2.1269.1885-1.0177-2.6169c-.2046-.5223-.3554-1.0661-.4577-1.6261s-.1561-1.1361-.1508-1.7069c.0323-6.8276-1.5184-13.5798-3.85-21.6136-.4146-1.4323-.84-2.8484-1.2546-4.2376-1.2761-4.2699-2.4877-8.3084-3.1823-11.8514-.4308-2.1861-.63-4.0007-.6085-5.5515.0162-1.0877.14-2.0569.3769-2.8915l.0107-.0108h.0004ZM587.3398,495.3832l.49,1.26c-.1561-.0754-.3123-.0915-.4523-.0485l-.6785-.84.6408-.3715h0ZM585.6544,491.4363l.9638-.5546c0,.2692.0108.5438.0108.8131,0,.6031.0485,1.2115.1615,1.8038.0538.2961.1238.5923.2046.8831l-.2531-.1454-1.0823-2.7946-.0054-.0054h0ZM586.8875,496.8531l-10.3922,5.9984c-.1831-.42-.3931-.8292-.63-1.2061-.3123-.4846-.6623-.9208-1.05-1.3031-.1562-.1562-.3123-.3231-.4685-.4792l10.2199-5.9015,2.3261,2.8915h-.0054,0ZM587.5282,497.1116s.0431,0,.1023.0323l.9854.5708c.0808.0485.1615.1292.2261.2262l-11.6252,6.7145-.5008-1.2977,10.8176-6.2461h-.0054ZM589.6121,498.1131l1.4107-.1239-13.3914,7.7322-.2208-.56,12.2014-7.043v-.0054h.0001ZM553.9717,385.296l1.4107-.1238-6.0307,3.4838-.2154-.56,4.8407-2.7946-.0054-.0054h0ZM552.2164,384.1006s.0431,0,.1023.0323h0l.9854.5708c.0808.0485.1615.1292.2262.2262l-4.593,2.6546-.5008-1.2977,3.7853-2.1861h-.0054ZM549.2495,380.9507l2.3261,2.8915-3.36,1.9384c-.1831-.4254-.3931-.8346-.63-1.2061-.3123-.4846-.6623-.9208-1.05-1.3031-.1562-.1562-.3123-.3231-.4685-.4792l3.1877-1.8415h-.0054,0ZM517.5668,375.0869c-.4146-1.4269-.84-2.843-1.2546-4.2269-1.2815-4.2753-2.4877-8.3137-3.1877-11.8622-.4308-2.1861-.63-4.0007-.6085-5.5515.0162-1.0823.14-2.0569.3769-2.8915.2154-.7646.5331-1.4431.9477-2.0192.4685-.6515,1.0769-1.1954,1.8092-1.6154.5869-.3392,1.1685-.5546,1.7284-.6354.0808-.0108.1562-.0215.2369-.0269l.4469-.0377c-.8023.4631-1.47,1.0608-1.9815,1.7715-.4469.6246-.7915,1.3569-1.0285,2.1861-.2477.8777-.3823,1.8954-.3985,3.0261-.0215,1.5831.1831,3.4353.6192,5.6592.7,3.5753,1.9169,7.6245,3.1984,11.916.4146,1.3838.8346,2.8,1.2492,4.2269,2.3207,7.9907,3.8607,14.6998,3.8284,21.4628h0c0,.6031.0485,1.2115.1562,1.8038s.2746,1.1738.4846,1.7284l.9584,2.4769-2.1269.1885-1.0177-2.6169c-.1992-.5169-.3554-1.0661-.4577-1.6261s-.1562-1.1361-.1508-1.7069c.0323-6.8276-1.5184-13.5798-3.85-21.6136l.0216-.0162.0004.0002ZM524.3621,403.0758l-13.3914,7.7322-.2154-.56,12.2014-7.043,1.4107-.1238-.0054-.0054h0ZM520.8675,402.1981s.0431,0,.1023.0323h0l.9854.5708c.0808.0485.1615.1292.2262.2262l-11.6252,6.7145-.5008-1.2977,10.8176-6.2461h-.0055ZM517.906,399.0481l2.3261,2.8915-10.3922,5.9984c-.1831-.4254-.3931-.8346-.63-1.2061-.3123-.4846-.6623-.9208-1.05-1.3031-.1562-.1562-.3123-.3231-.4685-.4792l10.2199-5.9015h-.0054,0ZM479.1911,397.2443c-.4146-1.4269-.84-2.843-1.2546-4.2323-1.2815-4.2753-2.4877-8.3137-3.1877-11.8622-.4308-2.1861-.63-4.0007-.6085-5.5515.0162-1.0877.14-2.0569.3769-2.8915.2154-.7646.5331-1.4431.9477-2.0192.4685-.6515,1.0769-1.1954,1.8092-1.6154.5869-.3392,1.1685-.5546,1.7284-.6354.0808-.0108.1562-.0215.2369-.0269h0l.4469-.0377c-.8023.4631-1.47,1.0608-1.9761,1.7715-.4469.6246-.7915,1.3569-1.0285,2.1861-.2477.8777-.3823,1.8954-.3985,3.0261-.0215,1.5831.1831,3.4353.6192,5.6592.7,3.5753,1.9115,7.6245,3.1984,11.9106.4146,1.3892.84,2.8,1.2546,4.2323,2.3207,7.9907,3.8607,14.6998,3.8284,21.4628,0,.6031.0485,1.2115.1615,1.8038.1077.5923.2746,1.1738.4846,1.7284l.9584,2.4769-2.1269.1885-1.0177-2.6169h0c-.2046-.5223-.3554-1.0661-.4577-1.6261s-.1508-1.1361-.1508-1.7069c.0323-6.8276-1.5184-13.5798-3.85-21.6136l.0054-.0108.0005.0002ZM485.981,425.2332l-13.3914,7.7322-.2154-.56,12.2014-7.043,1.4107-.1238-.0054-.0054h0ZM482.4864,424.3555s.0431,0,.1023.0323l.9854.5708c.0808.0485.1615.1292.2262.2262l-11.6252,6.7145-.5008-1.2977,10.8176-6.2461h-.0055ZM479.5249,421.2109l2.3261,2.8915-10.3922,5.9984c-.1831-.42-.3931-.8292-.6354-1.2061-.3069-.4792-.6623-.9208-1.05-1.3031-.1562-.1561-.3123-.3231-.4685-.4792l10.2199-5.9015h0ZM440.81,419.4017c-.4146-1.4269-.84-2.843-1.2546-4.2323-1.2815-4.2753-2.4877-8.3137-3.1877-11.8622-.4308-2.1861-.63-4.0007-.6085-5.5515.0162-1.0877.14-2.0569.3769-2.8915.2154-.7646.5331-1.4431.9477-2.0192.4685-.6515,1.0769-1.1954,1.8092-1.6154.5869-.3392,1.1684-.5546,1.7284-.6354.0808-.0108.1561-.0215.2369-.0269h0l.4469-.0377c-.8023.4631-1.47,1.0608-1.9761,1.7715-.4469.6246-.7915,1.3569-1.0285,2.1861-.2477.8777-.3823,1.8954-.3985,3.0261-.0215,1.5831.1831,3.4353.6192,5.6592.7,3.5753,1.9115,7.6245,3.1984,11.9106.4146,1.3892.84,2.8,1.2546,4.2323,2.3207,7.9907,3.8607,14.6998,3.8284,21.4628,0,.6031.0485,1.2115.1615,1.8038.1077.5923.2746,1.1738.4846,1.7284l.9584,2.4769-2.1269.1885-1.0177-2.6169h0c-.2046-.5223-.3554-1.0661-.4577-1.6261s-.1508-1.1361-.1508-1.7069c.0323-6.8276-1.5184-13.5798-3.85-21.6136l.0054-.0108.0005.0002ZM447.5999,447.3906l-13.3914,7.7322-.2154-.56,11.9214-6.8868h0l.28-.1615,1.4107-.1238h-.0054,0ZM444.1053,446.513s.0431,0,.1023.0323h0l.9854.5708c.0808.0485.1615.1292.2262.2262l-11.6252,6.7145-.5008-1.2977,10.8176-6.2461h-.0055ZM441.1438,443.3684l2.3261,2.8915-10.3922,5.9984c-.1831-.42-.3931-.8292-.6354-1.2061-.3069-.4792-.6623-.9208-1.05-1.3031-.1561-.1561-.3123-.3231-.4685-.4792l10.2199-5.9015h0ZM402.4289,441.5592c-.4146-1.4269-.84-2.843-1.2546-4.2323-1.2815-4.2753-2.4877-8.3137-3.1877-11.8622-.4308-2.1861-.63-4.0007-.6085-5.5515.0162-1.0877.14-2.0569.3769-2.8915.2154-.7646.5331-1.4431.9477-2.0192.4685-.6515,1.0769-1.1954,1.8092-1.6154.5869-.3392,1.1684-.5546,1.7284-.6354.0808-.0108.1561-.0215.2369-.0269h0l.4469-.0377c-.8023.4631-1.47,1.0608-1.9761,1.7715-.4469.6246-.7915,1.3569-1.0285,2.1861-.2477.8777-.3823,1.8954-.3985,3.0261-.0215,1.5831.1831,3.4353.6192,5.6592.7,3.5753,1.9115,7.6245,3.1984,11.9106.4146,1.3892.84,2.8,1.2546,4.2323,2.3207,7.9907,3.8607,14.6998,3.8284,21.4628,0,.6031.0485,1.2115.1615,1.8038.1077.5923.2746,1.1738.4846,1.7284l.9584,2.4769-2.1269.1885-1.0177-2.6169h0c-.2046-.5223-.3554-1.0661-.4577-1.6261s-.1508-1.1361-.1508-1.7069c.0323-6.8276-1.5184-13.5798-3.85-21.6136l.0054-.0108.0005.0002ZM409.2242,469.5535l-13.3914,7.7322-.2154-.56,11.9214-6.8868h0l.28-.1615,1.4107-.1238h-.0054,0ZM405.7296,468.6704s.0431,0,.1023.0323h0l.9854.5708c.0808.0485.1615.1292.2262.2262l-11.6252,6.7145-.5008-1.2977,10.8176-6.2461h-.0055ZM402.7681,465.5258l2.3261,2.8915-10.3922,5.9984c-.1831-.4254-.3931-.8292-.6354-1.2061-.3069-.4846-.6623-.9208-1.05-1.3031-.1561-.1561-.3123-.3231-.4685-.4792l10.2199-5.9015h0ZM366.5516,434.6777c.5438-.0808,1.0931-.0485,1.6315.1077.7054.1992,1.4323.6138,2.1646,1.2277,1.4323,1.2115,2.9023,3.1877,4.6253,6.2245,1.47,2.59,2.9346,5.6107,4.4907,8.8145,1.7338,3.5807,3.5323,7.2799,5.5192,10.7691,2.5846,4.5338,5.0184,7.8614,7.6515,10.4676.3608.3554.6892.7646.9746,1.2115.2908.4523.5385.9423.7377,1.4592l1.0877,2.8054.0108.0108c0,.0108,0,.0162.0108.0269.0162.0269.0377.0377.0592.0592.0108.0108.0215.0269.0323.0323.0431.0269.0915.0431.14.0431h0c.0323,0,.0646-.0054.0969-.0162.0108,0,.0162-.0108.0215-.0162h.0162l14.7214-8.4968s.0162-.0162.0269-.0215c.0108-.0108.0269-.0162.0377-.0323l.0162-.0162c.0108-.0108.0108-.0215.0215-.0323.0054-.0108.0162-.0269.0215-.0377,0-.0054.0054-.0108.0054-.0215v-.1023h0c0-.0108-.0054-.0269-.0108-.0377,0-.0108,0-.0215-.0054-.0323l-1.0877-2.8054c-.2046-.5223-.3554-1.0661-.4577-1.6261s-.1508-1.1361-.1508-1.7069c.0323-6.8276-1.5184-13.5798-3.85-21.6136-.4146-1.4323-.84-2.843-1.2546-4.2323-1.2815-4.2753-2.4877-8.3137-3.1823-11.8568-.4308-2.1861-.63-4.0007-.6085-5.5515.0162-1.0877.14-2.0569.3769-2.8915.2154-.7646.5331-1.4431.9477-2.0192.4685-.6461,1.0769-1.1954,1.8092-1.6154.5869-.3392,1.1684-.5546,1.7284-.6354.5438-.0808,1.0931-.0485,1.6315.1077.7054.1992,1.4323.6138,2.1646,1.2277,1.4323,1.2115,2.9023,3.1877,4.6253,6.2245,1.47,2.59,2.9346,5.6161,4.4907,8.8199,1.7338,3.5807,3.5323,7.2799,5.5192,10.7691,2.5846,4.5338,5.0184,7.8614,7.6515,10.4676.3608.3554.6892.7646.9746,1.2115.2908.4523.5385.9423.7377,1.4592l1.0877,2.8054.0108.0108c0,.0108,0,.0162.0108.0269.0162.0269.0377.0377.0592.0592.0108.0108.0215.0269.0323.0323.0431.0269.0915.0431.14.0431h0c.0323,0,.0646-.0054.0969-.0162.0108,0,.0162-.0108.0215-.0162h.0162l14.7214-8.4968s.0162-.0162.0269-.0215c.0108-.0108.0269-.0162.0377-.0323l.0162-.0162c.0108-.0108.0108-.0215.0215-.0323.0054-.0108.0162-.0269.0215-.0377,0-.0054.0054-.0108.0054-.0215v-.1023h0c0-.0108-.0054-.0269-.0108-.0377,0-.0108,0-.0215-.0054-.0323l-1.0877-2.8054c-.2046-.5223-.3554-1.0661-.4577-1.6315s-.1508-1.1361-.1508-1.7069c.0323-6.8276-1.5184-13.5798-3.85-21.6136-.4146-1.4323-.84-2.843-1.2546-4.2323-1.2815-4.2753-2.4877-8.3137-3.1823-11.8568-.4308-2.1861-.63-4.0007-.6085-5.5515.0162-1.0877.14-2.0569.3769-2.8915.2154-.7646.5331-1.4431.9477-2.0192.4685-.6461,1.0769-1.1954,1.8092-1.6154.5869-.3392,1.1684-.5546,1.7284-.6354.5438-.0808,1.0931-.0485,1.6315.1077.7054.1992,1.4323.6138,2.1646,1.2277,1.4323,1.2115,2.9023,3.1877,4.6253,6.2245,1.47,2.59,2.9346,5.6161,4.4907,8.8199,1.7338,3.5807,3.5323,7.2799,5.5192,10.7691,2.5846,4.5338,5.0184,7.8614,7.6514,10.4676.3608.3554.6892.7646.9746,1.2115.2908.4523.5385.9423.7377,1.4592l1.0877,2.8054.0108.0108c0,.0108,0,.0162.0108.0269.0162.0269.0377.0377.0592.0592.0108.0108.0215.0269.0323.0323.0431.0269.0915.0431.14.0431h0c.0323,0,.0646-.0054.0969-.0162.0108,0,.0162-.0108.0215-.0162h.0162l14.7214-8.4968s.0162-.0162.0269-.0215c.0108-.0108.0269-.0162.0377-.0323l.0162-.0162c.0108-.0108.0108-.0215.0215-.0323.0054-.0108.0162-.0269.0215-.0377,0-.0054.0054-.0108.0054-.0215v-.1023h0c0-.0108-.0054-.0269-.0108-.0377,0-.0108,0-.0215-.0054-.0323l-1.0877-2.8054c-.2046-.5223-.3554-1.0661-.4577-1.6315s-.1508-1.1361-.1508-1.7069c.0323-6.8276-1.5184-13.5798-3.85-21.6136-.4146-1.4323-.84-2.843-1.2546-4.2323-1.2815-4.2753-2.4877-8.3137-3.1823-11.8568-.4308-2.1861-.63-4.0007-.6085-5.5515.0162-1.0877.14-2.0569.3769-2.8915.2154-.7646.5331-1.4431.9477-2.0192.4685-.6515,1.0769-1.1954,1.8092-1.6154.5869-.3392,1.1685-.5546,1.7284-.6354.5438-.0808,1.0931-.0485,1.6315.1077.7054.1992,1.4323.6138,2.1646,1.2277,1.4323,1.2115,2.9023,3.1877,4.6253,6.2245,1.47,2.59,2.9346,5.6161,4.4907,8.8199,1.7338,3.5807,3.5323,7.2799,5.5192,10.7691,2.5846,4.5338,5.0184,7.8614,7.6514,10.4676.3608.3554.6892.7646.9746,1.2115.2908.4469.5385.9423.7377,1.4592l1.0877,2.8054.0108.0108c0,.0108,0,.0162.0108.0269.0162.0269.0377.0377.0592.0592.0108.0108.0215.0269.0377.0323.0431.0269.0915.0431.14.0431.0323,0,.0646-.0054.0969-.0162.0108,0,.0162-.0108.0215-.0162h.0162l14.7214-8.4968s.0162-.0162.0269-.0215c.0108-.0108.0269-.0162.0377-.0323,0,0,.0108-.0108.0162-.0162.0054-.0108.0108-.0215.0215-.0323.0054-.0108.0162-.0269.0215-.0377,0-.0054.0054-.0108.0054-.0162v-.1023h0c0-.0108-.0054-.0269-.0108-.0377,0-.0108,0-.0215-.0054-.0323l-1.0877-2.8054c-.2046-.5223-.3554-1.0715-.4577-1.6315s-.1562-1.1361-.1508-1.7069c.0323-6.8276-1.5184-13.5798-3.85-21.6136-.4146-1.4269-.84-2.843-1.2546-4.2269-1.2815-4.2753-2.4877-8.3137-3.1877-11.8622-.4308-2.1861-.63-4.0007-.6085-5.5515.0162-1.0877.14-2.0569.3769-2.8861.2154-.7646.5331-1.4431.9477-2.0192.4685-.6515,1.0769-1.1954,1.8092-1.6154.5869-.3392,1.1685-.5546,1.7284-.6354.5438-.0808,1.0931-.0485,1.6315.1077.7054.1992,1.4323.6138,2.1646,1.2277,1.4323,1.2115,2.9023,3.1877,4.6253,6.2245,1.47,2.59,2.94,5.6161,4.4907,8.8199,1.7338,3.5807,3.5269,7.2799,5.5192,10.7691,2.5846,4.5338,5.0184,7.8614,7.6514,10.4676.3608.3554.6892.7646.9746,1.2115.2908.4469.5385.9423.7377,1.4592l1.0877,2.8054s.0054.0054.0108.0108c0,.0108,0,.0162.0108.0269.0162.0269.0377.0377.0592.0592.0108.0108.0215.0269.0377.0323.0431.0269.0915.0431.14.0431.0323,0,.0646-.0054.0969-.0162.0108,0,.0162-.0108.0215-.0162h.0162l7.0915-4.0923,22.5936,58.2285c-.2423.3661-.4523.7592-.6246,1.1846-.35.8615-.5654,1.8846-.6408,3.0315-.1454,2.1861.1831,4.8838,1.0285,8.4914.7108,3.0423,1.7015,6.3538,2.7515,9.8591,1.1685,3.8984,2.3746,7.9314,3.3223,11.9968,1.0823,4.6576,1.6477,8.6045,1.75,12.2822l-1.4269.8238s-.0162.0162-.0269.0215c-.0162.0108-.0269.0215-.0377.0377-.0108.0108-.0215.0269-.0269.0431-.0108.0162-.0162.0269-.0215.0485-.0054.0162-.0108.0323-.0108.0485v.0485c0,.0162,0,.0377.0108.0538,0,.0108,0,.0215.0054.0323l1.4754,3.8069-.1884.1077-1.5131-1.8846s-.0162-.0108-.0269-.0215c-.0108-.0108-.0269-.0269-.0431-.0377s-.0269-.0162-.0431-.0215-.0323-.0108-.0538-.0162h-.0969c-.0162,0-.0323.0108-.0485.0162-.0108,0-.0215,0-.0323.0108l-10.5322,6.0845c-2.2777-2.4338-4.4315-5.4761-6.7091-9.4714-1.9815-3.473-3.7692-7.1668-5.503-10.7368-1.5561-3.2092-3.0261-6.2461-4.5069-8.8468-1.7554-3.0907-3.263-5.1153-4.7492-6.3699-.7861-.6623-1.5831-1.1146-2.3638-1.3354-.5169-.1454-1.0392-.1938-1.5615-.1508h-.0323l-2.6815.2369h0l-.4361.0377h0l-.4738.0431c-.7161.0646-1.4538.3123-2.1861.7377-.6408.3715-1.1954.8238-1.6531,1.3569-.4469.5169-.8077,1.12-1.0823,1.7931-.35.8615-.5654,1.8846-.6408,3.0315-.1454,2.1861.1831,4.8838,1.0285,8.4914.7108,3.0423,1.7015,6.3538,2.7515,9.8591,1.1685,3.8984,2.3746,7.9315,3.3223,12.0022,1.2277,5.2661,1.7877,9.6276,1.7715,13.7145,0,.6031.0485,1.2115.1615,1.8038.1077.5923.2746,1.1738.4846,1.7284l.5546,1.4215c-.1562-.0754-.3123-.0915-.4523-.0485l-2.5361-3.15s-.0162-.0108-.0269-.0215c-.0108-.0108-.0269-.0269-.0431-.0377s-.0269-.0162-.0431-.0215-.0323-.0108-.0538-.0162h-.1023c-.0162,0-.0323.0108-.0485.0162-.0108,0-.0215,0-.0323.0108l-10.5322,6.0845c-2.2777-2.4338-4.4315-5.4761-6.7091-9.4714-1.9815-3.473-3.7692-7.1668-5.503-10.7368-1.5561-3.2092-3.0261-6.2461-4.5069-8.8468-1.7554-3.0907-3.263-5.1153-4.7492-6.3699-.7861-.6623-1.5831-1.1146-2.3638-1.3354-.5169-.1454-1.0392-.1938-1.5615-.1508h-.0323l-2.6815.2369h0l-.4361.0377h0l-.4738.0431h0c-.7161.0646-1.4538.3123-2.1861.7377-.6408.3715-1.1954.8238-1.6531,1.3569-.4469.5169-.8077,1.12-1.0823,1.793-.35.8615-.5654,1.8846-.6408,3.0315-.1454,2.1861.1831,4.8838,1.0285,8.4914.7108,3.0423,1.7015,6.3538,2.7515,9.8591,1.1685,3.8984,2.3746,7.9315,3.3223,12.0022,1.2277,5.2661,1.7877,9.6276,1.7715,13.7145,0,.6031.0485,1.2115.1615,1.8038.1077.5923.2746,1.1738.4846,1.7284l.5546,1.4215c-.1562-.0754-.3123-.0915-.4523-.0485l-2.5361-3.15s-.0162-.0162-.0269-.0215c-.0108-.0108-.0269-.0215-.0377-.0323-.0162-.0108-.0323-.0162-.0485-.0215s-.0323-.0108-.0485-.0162h-.1023c-.0162,0-.0323.0108-.0485.0162-.0108,0-.0215,0-.0323.0108l-10.5322,6.0845c-2.2777-2.4338-4.4315-5.4761-6.7091-9.4714-1.9815-3.473-3.7692-7.1614-5.503-10.7368-1.5561-3.2146-3.0315-6.2461-4.5069-8.8522-1.7554-3.0907-3.263-5.1153-4.7492-6.3699-.7861-.6677-1.5831-1.1146-2.3638-1.3354-.5169-.1454-1.0392-.1938-1.5615-.1508h-.0269l-2.6815.2423h0l-.4415.0377h0l-.4738.0431c-.7161.0646-1.4538.3123-2.1861.7377h0c-.6408.3715-1.1954.8238-1.6477,1.3515-.4469.5169-.8077,1.12-1.0823,1.793-.35.8615-.5654,1.8846-.6408,3.0315-.1454,2.1861.1831,4.8838,1.0285,8.4914.7108,3.0423,1.7015,6.3538,2.7515,9.8591,1.1685,3.8984,2.3746,7.9261,3.3223,11.9968,1.2277,5.2715,1.7877,9.6276,1.7715,13.7145,0,.6031.0485,1.2115.1615,1.8038.1077.5923.2746,1.1738.4846,1.7284l.5546,1.4215c-.1562-.0754-.3123-.0915-.4523-.0485l-2.5361-3.15s-.0162-.0162-.0269-.0215c-.0108-.0108-.0269-.0215-.0377-.0323-.0162-.0108-.0323-.0162-.0485-.0215s-.0269-.0108-.0431-.0162h-.1023c-.0162,0-.0377.0108-.0538.0162-.0108,0-.0215,0-.0323.0108l-26.2228,15.1414h0c-.0054,0-.0108.0108-.0162.0108,0,0-.0108,0-.0162.0054-.0108.0054-.0162.0162-.0215.0269-.0108.0108-.0215.0162-.0269.0269h0l-11.0922,15.7767-3.6723-2.1269c-1.0338-.5977-2.66-.6031-3.6938,0l-8.4322,4.8676-.7592-.4415-1.1684-3.01s-.0108-.0108-.0108-.0162,0-.0162-.0054-.0215c-.0054-.0108-.0162-.0162-.0215-.0269-.0108-.0162-.0215-.0269-.0377-.0377-.0108-.0108-.0269-.0215-.0431-.0269-.0162-.0108-.0269-.0162-.0485-.0215-.0162-.0054-.0323-.0108-.0485-.0108h-.0485c-.0162,0-.0377,0-.0538.0108-.0108,0-.0215,0-.0323.0054-.0054,0-.0108.0054-.0162.0108-.0054,0-.0162,0-.0215.0054l-10.0099,5.7776-38.8334-100.0827,7.1615-4.1353s.0162-.0162.0269-.0215c.0108-.0108.0269-.0162.0377-.0323l.0162-.0162c.0108-.0108.0108-.0215.0215-.0323.0054-.0108.0162-.0269.0215-.0377,0-.0054.0054-.0108.0054-.0215v-.1023h0c0-.0108-.0054-.0269-.0108-.0377,0-.0108,0-.0215-.0054-.0323l-1.0877-2.8053c-.2046-.5223-.3554-1.0661-.4577-1.6315-.1023-.56-.1508-1.1361-.1508-1.7069.0323-6.8276-1.5184-13.5798-3.85-21.6136-.4146-1.4323-.84-2.8484-1.2546-4.2376-1.2761-4.2753-2.4877-8.3084-3.1823-11.8568-.4308-2.1861-.63-4.0007-.6085-5.5515.0162-1.0877.14-2.0569.3769-2.8915.2154-.7646.5331-1.4431.9477-2.0192.4685-.6515,1.0769-1.1954,1.8092-1.6154.5869-.3392,1.1684-.5546,1.7284-.6354l-.0269-.0107.0004.0014ZM543.5634,475.9288c.7,3.5753,1.9169,7.6245,3.1984,11.916.4146,1.3838.8346,2.8,1.2492,4.2269,2.3207,7.9907,3.8607,14.6998,3.8284,21.4628,0,.6031.0485,1.2115.1615,1.8038.1077.5923.2746,1.1738.4846,1.7284l.9584,2.4715-2.1269.1885-1.0177-2.6169c-.2046-.5223-.3554-1.0715-.4577-1.6315s-.1562-1.1361-.1508-1.7069c.0323-6.8276-1.5184-13.5798-3.85-21.6136-.4146-1.4323-.84-2.8484-1.2546-4.243-1.2761-4.2699-2.4877-8.3084-3.1823-11.8514-.4308-2.1861-.63-4.0007-.6085-5.5515.0162-1.0877.14-2.0569.3769-2.8915.2154-.7646.5331-1.4431.9477-2.0192.4685-.6515,1.0769-1.1954,1.8092-1.6154.5869-.3392,1.1685-.5546,1.7284-.6354.0808-.0108.1562-.0215.2369-.0269l.4469-.0377c-.8023.4631-1.47,1.0608-1.9815,1.7715-.4469.6246-.7915,1.3569-1.0285,2.1861-.2477.8777-.3823,1.8954-.3985,3.0261-.0215,1.5831.1831,3.4353.6192,5.6592h.0113ZM549.1472,519.269s.0431,0,.1023.0323l.9854.5654h0c.0808.0485.1615.1292.2262.2262l-11.6252,6.7145-.5008-1.2977,10.8176-6.2461-.0054.0054h-.0002ZM538.1142,525.0143c-.1831-.42-.3931-.8292-.6354-1.2061-.3123-.4846-.6623-.9208-1.05-1.3031-.1562-.1562-.3123-.3231-.4685-.4846l10.2199-5.9015,2.3261,2.8915-10.3922,5.9984v.0054h0ZM550.9564,520.4321h0l.28-.1615,1.4107-.1239-13.3914,7.7322-.2208-.56,11.9214-6.8815v-.0054h.0001ZM505.1877,498.0862c.7,3.5754,1.9169,7.6245,3.1984,11.916.4146,1.3892.8346,2.8,1.2492,4.2269,2.3207,7.9907,3.8607,14.6998,3.8284,21.4628,0,.6031.0485,1.2115.1615,1.8038.1077.5923.2746,1.1738.4846,1.7284l.9584,2.4715-2.1269.1885-1.0177-2.6169c-.2046-.5223-.3554-1.0661-.4577-1.6315-.1023-.56-.1562-1.1361-.1508-1.7069.0323-6.8276-1.5184-13.5798-3.85-21.6136-.4146-1.4323-.84-2.8484-1.2546-4.2376-1.2761-4.2699-2.4877-8.3084-3.1823-11.8568-.4308-2.1861-.63-4.0007-.6085-5.5515.0162-1.0877.14-2.0569.3769-2.8915.2154-.7646.5331-1.4431.9477-2.0192.4685-.6462,1.0769-1.1954,1.8092-1.6154.5869-.3392,1.1685-.5546,1.7284-.6354.0808-.0108.1562-.0215.2369-.0269l.4469-.0377c-.8023.4631-1.47,1.0608-1.9815,1.7715-.4469.6246-.7915,1.3569-1.0285,2.1861-.2477.8777-.3823,1.8954-.3985,3.0261-.0215,1.5831.1831,3.4353.6192,5.6592h.0113ZM510.7661,541.4265s.0431,0,.1023.0323l.9854.5654h0c.0808.0485.1615.1292.2262.2262l-11.6252,6.7145-.5008-1.2977,10.8176-6.2461-.0054.0054h0ZM499.7385,547.1718c-.1831-.42-.3931-.8292-.6354-1.2061-.3123-.4846-.6623-.9208-1.05-1.3031-.1562-.1562-.3123-.3231-.4685-.4846l10.2199-5.9015,2.3261,2.8915-10.3922,5.9984v.0054h0ZM512.5753,542.5895h0l.28-.1615,1.4107-.1239-13.3914,7.7322-.2154-.56,11.9214-6.8868h-.0054ZM466.8066,520.2436c.7,3.5754,1.9169,7.6245,3.1984,11.9106.4146,1.3892.84,2.8,1.2546,4.2269,2.3207,7.9907,3.8607,14.6998,3.8284,21.4628,0,.6031.0485,1.2115.1615,1.8038.1077.5923.2746,1.1738.4846,1.7284l.9584,2.4715-2.1269.1885-1.0177-2.6169c-.2046-.5223-.3554-1.0661-.4577-1.6315-.1023-.56-.1508-1.1308-.1508-1.7069.0323-6.8276-1.5184-13.5798-3.85-21.6136-.4146-1.4269-.84-2.843-1.2546-4.2269-1.2815-4.2753-2.4877-8.3137-3.1877-11.8676-.4308-2.1861-.63-4.0007-.6085-5.5461.0162-1.0877.14-2.0569.3769-2.8915.2154-.7646.5331-1.4431.9477-2.0192.4685-.6515,1.0769-1.1954,1.8092-1.6154.5869-.3392,1.1685-.5546,1.7284-.6354.0808-.0108.1562-.0215.2369-.0269h0l.4469-.0377h0c-.8023.4631-1.47,1.0608-1.9815,1.7715-.4469.6246-.7915,1.3569-1.0285,2.1861-.2477.8777-.3823,1.8954-.3985,3.0261-.0215,1.5831.1831,3.4353.6192,5.6592h.0108l.0005.0002ZM484.7964,633.9384h0c.0323.0215.0754.0269.1131.0323.0054,0,.0162.0054.0215.0054h0c.0054,0,.0162,0,.0215-.0054.0377,0,.0808-.0108.1131-.0323h0l8.5668-4.9484c.8561-.4954,2.2992-.4954,3.1553,0l5.1369,2.9723h0c.8292.4792,1.2869,1.1038,1.2869,1.75s-.4577,1.2654-1.2869,1.7446l-13.7091,7.9153c-1.8146,1.0446-4.7707,1.0446-6.5853,0l-11.8945-6.8815h.07v-.0054l2.6815-.2369s.0215-.0054.0323-.0108c.0162,0,.0269,0,.0431-.0054,0,0,.0054-.0054.0108-.0108.0054,0,.0162,0,.0215-.0108h0l8.0661-4.6577,4.1246,2.3854h.0108,0ZM481.2103,631.2462l1.4054-.8077.8131,2.0946-2.213-1.2815-.0054-.0054h0ZM469.9673,635.9307l-21.7428-56.0424,2.1269-.1885,21.7428,56.0424-2.1269.1884h0ZM360.5586,495.7278l.1238.1562-38.6449,54.9817-.1238-.1562,38.6449-54.9817h0ZM321.5583,550.2679l-.0862-.1077,38.8495-55.2724s.0431,0,.0969.0323l.1508.0862h-.0754c-.0108,0-.0269.0108-.0377.0162-.0108,0-.0162,0-.0269.0054l-.0054.0054s-.0108,0-.0162.0054c0,0,0,.0054-.0108.0054,0,0-.0108,0-.0108.0054-.0054.0054-.0108.0162-.0162.0215-.0108.0108-.0215.0162-.0269.0269l-.0054.0054-38.7634,55.1486-.0162.0161h.0003ZM364.764,507.8215c-.6085.4954-1.2331.9638-1.8577,1.3892-.6246.4308-1.2708.84-1.9115,1.2115-.7969.4631-1.4592.7861-1.9654.9692-.2638.0969-.4577.14-.6031.1615.0054-.0323.0162-.07.0215-.1023.2046-.0538.42-.1292.6731-.2369.4738-.1992,1.0446-.49,1.7015-.8723.8238-.4738,1.6423-1.0069,2.4338-1.5777.6408-.4631,1.2923-.9746,1.9277-1.5131l.0646.1615c-.1615.1346-.3231.2692-.49.4038l.0054.0054v.0002ZM365.464,507.9453l.0862.2154c-.1023.0862-.1992.1669-.3069.2531-.6138.4954-1.2384.9638-1.8577,1.3892-.6246.4308-1.2654.84-1.9115,1.2115-.7969.4631-1.4592.7861-1.9654.9692-.5115.1831-.7754.1885-.91.1615-.0485-.0108-.0915-.0269-.1292-.0646.2154-.0269.4577-.0754.7485-.1831.5438-.1938,1.2115-.5223,2.0515-1.0069.6569-.3769,1.3138-.7915,1.9492-1.2331.63-.4361,1.2654-.9154,1.89-1.4161.1185-.0969.2369-.1938.3554-.2961h-.0002ZM362.9494,508.333c-.7808.56-1.5831,1.0823-2.3907,1.5508-.6408.3715-1.19.6515-1.6423.84-.0969.0377-.1777.07-.2638.1023.0915-.2477.2046-.5115.35-.8238.7-1.4646,1.9115-3.4353,3.193-5.5192.1238-.1992.2423-.3985.3661-.6031l.1346-.1131c.2962-.2531.5761-.5061.8508-.7592l1.4431,3.7153c-.6731.5762-1.3623,1.1146-2.0407,1.6046v.0054h-.0001ZM362.9871,502.1515c-.4146.6838-.8346,1.3731-1.2492,2.0461-1.2869,2.1-2.5038,4.0761-3.22,5.5676-.2638.5546-.4361,1.0015-.5385,1.3784-.0054.0215-.0162.0431-.0162.0646-.0538.21-.0808.3985-.0862.56,0,.0054-.0054.0108-.0054.0215v.0915c.0323.5708.4038.7377.6192.7808.0754.0162.1562.0215.2477.0215.2585,0,.5761-.07.9584-.2046.5438-.1938,1.2115-.5223,2.0515-1.0069.6569-.3823,1.3138-.7969,1.9492-1.2331.63-.4361,1.2654-.91,1.89-1.4161.0592-.0485.1131-.0915.1723-.14l7.7914,20.0844-24.4405,14.1129-4.6469-2.6869c-1.0392-.6031-2.66-.6031-3.6938,0l-8.5668,4.9484-9.2237,5.3253,38.0095-54.0717,2.1431,5.5299-.14.2315-.0054-.0054.0003.0003ZM373.74,529.2843l13.946,35.9365-38.0419-22.0228,24.1013-13.9137h-.0054ZM332.462,545.6049l8.5668-4.9484c.8561-.4954,2.2992-.4954,3.1553,0l4.7815,2.7677h0l39.0272,22.5882,11.5822,29.8573-76.9883-44.5626,9.8753-5.7022h0ZM362.3732,496.0562l2.1269-.1885,38.828,100.0665-2.1269.1885-38.828-100.0665h0ZM363.1809,495.4424l5.9769-3.4515h0l.28-.1615,1.4108-.1239-6.2515,3.6077-1.4108.1239-.0054.0054h0ZM401.0451,596.6773h0l2.6815-.2423s.0215-.0054.0323-.0108c.0162,0,.0269,0,.0431-.0054,0,0,.0054-.0054.0108-.0108.0054,0,.0162,0,.0215-.0108h0l8.0661-4.6576,4.1246,2.3854h0c.0323.0215.0754.0269.1131.0323.0054,0,.0162.0054.0215.0054h.0215c.0377,0,.0808-.0108.1131-.0323h0l8.5668-4.9484c.8561-.4954,2.2992-.4954,3.1553,0l3.6292,2.1-10.5106,14.9583s0,.0108-.0054.0162c-.0108.0162-.0162.0323-.0215.0485s-.0108.0323-.0162.0485v.1023c0,.0162.0108.0323.0162.0431.0054.0162.0162.0323.0269.0485,0,0,0,.0108.0054.0162l2.6815,3.3384.0108.0108-22.8628-13.2352h.0754v-.0002ZM412.4442,591.4382l1.4054-.8077.8131,2.0946-2.2131-1.2815-.0054-.0054h0ZM421.6948,606.3911l21.5921-30.7189,2.3315,2.9023-21.5921,30.7189-2.3315-2.9023h0ZM451.9506,602.4227l-4.5876-2.6546c-1.0338-.6031-2.66-.6031-3.6938,0l-8.5668,4.9484-9.2237,5.3253,20.9513-29.8089,7.9745,20.5475-2.8538,1.6477v-.0054h-.0001ZM454.9983,601.2811l1.4538,3.7423-3.963-2.2938,2.5092-1.4484h0ZM447.5245,578.8599h0l-.7969-.4577,25.6628-14.8183s.0431,0,.1023.0323h0l.9854.5708c.0808.0485.1615.1292.2262.2262l-25.7543,14.8721c-.1131-.1777-.2638-.3284-.4254-.42v-.0054h0ZM446.0007,578.1976l-2.3261-2.8915,25.7489-14.8668,2.3261,2.8915-25.7489,14.8667h0ZM446.173,578.7253s.0431,0,.0969.0323l.1508.0862h-.0807c-.0162,0-.0323.0108-.0485.0162-.0108,0-.0269.0054-.0377.0162h0l-.0108.0108s-.0108,0-.0162.0054c-.0108.0108-.0162.0215-.0215.0269h0c-.0054.0054-.0162.0108-.0215.0215h0l-21.7051,30.8804-.0862-.1077,21.7967-31.0043-.0162.0162h0ZM446.4045,579.5599l.1239.1562-21.5921,30.7189-.1238-.1562,21.592-30.7189ZM435.3662,605.1742l8.5668-4.9484c.8561-.4954,2.2992-.4954,3.1553,0l9.6707,5.5999,11.5822,29.8573-42.8556-24.8066,9.8753-5.7022h.0054-.0002ZM449.0322,579.2799l25.442-14.6891,1.4107-.1239-25.442,14.6891-1.4107.1239ZM364.0532,463.7166c-.4146-1.4269-.84-2.843-1.2546-4.2269-1.2815-4.2753-2.4877-8.3137-3.1877-11.8675-.4308-2.1861-.63-4.0007-.6085-5.5515.0162-1.0877.14-2.0569.3769-2.8915.2154-.7646.5331-1.4431.9477-2.0192.4685-.6515,1.0769-1.1954,1.8092-1.6154.5869-.3392,1.1684-.5546,1.7338-.6354.0754-.0108.1562-.0215.2315-.0269h0l.4469-.0377c-.8023.4631-1.47,1.0608-1.9761,1.7715-.4469.6246-.7915,1.3569-1.0285,2.1861-.2477.8777-.3823,1.8954-.3985,3.0261-.0215,1.5831.1831,3.4353.6192,5.6592.7,3.5753,1.9115,7.6245,3.1984,11.9106.4146,1.3892.84,2.8,1.2546,4.2323,2.3207,7.9907,3.8607,14.6998,3.8284,21.4628,0,.6031.0485,1.2115.1615,1.8038.1077.5923.2746,1.1738.4846,1.7284l.9584,2.4715-2.1269.1885-1.0177-2.6169h0c-.2046-.5223-.3554-1.0661-.4577-1.6261s-.1508-1.1361-.1508-1.7069c.0323-6.8276-1.5184-13.5798-3.85-21.6136l.0054-.0054h.0005ZM367.3485,490.8278s.0431,0,.1023.0323h0l.9854.5708h0c.0808.0485.1562.1292.2262.2262l-6.5638,3.7907c-.1131-.1777-.2585-.3284-.42-.42l-.7969-.4577,6.4722-3.7369-.0054-.0054h0ZM364.387,487.6832l2.3261,2.8915-6.5584,3.7853-2.3261-2.8915,6.5584-3.7853ZM357.4356,491.8401l2.3315,2.9023-38.6449,54.9817-2.3315-2.9023,38.6449-54.9817h0ZM309.5669,540.2742l13.7091-7.9153c1.4269-.8238,3.5807-1.0069,5.3684-.49l-10.4083,14.8075s0,.0108-.0054.0162c-.0108.0162-.0162.0323-.0215.0485l-.0162.0485v.1023c0,.0162.0108.0323.0162.0431.0054.0162.0162.0323.0269.0485,0,0,0,.0108.0054.0162l2.6815,3.3384.0108.0108-11.3668-6.5799c-.8292-.4792-1.2869-1.0985-1.2869-1.75,0-.6462.4577-1.2654,1.2869-1.7446h0v-.0002ZM312.8892,561.4301h0c-.0162.0269-.0431.0646-.07.1077l-2.3154-2.8807c.0108-.0377.0485-.1185.1454-.2585l5.6484-8.0391,2.3315,2.9023-5.7399,8.163v.0054h0ZM319.4691,553.4555l-.0969-.1239,1.1361-.6569.1562.0915-1.1954.6892h0ZM321.2029,553.0786l.21.1239-1.4646.8454-.1346-.1669,1.3892-.8023h0ZM319.033,552.9063l-1.6369-2.0354,2.5738,1.4915-.9423.5438h.0054ZM313.3307,561.9793s-.0431.0646-.07.1077l-.07-.0862c.0108-.0377.0485-.1185.1454-.2585h0l5.6484-8.0391.0862.1077-5.7399,8.163h0v.0054h0ZM313.8046,562.5662s-.0431.0646-.07.1077l-.1077-.1346c.0108-.0377.0485-.1185.1454-.2585h0l5.6484-8.0391.1238.1562-5.7399,8.163v.0054h0ZM314.7469,562.7224c-.2746.1562-.4631.2369-.5815.2746.0215-.0323.0431-.0754.0754-.1185l5.8207-8.2814,1.8846-1.0877,4.3723,2.5307-11.5714,6.6822h-.0001ZM403.5758,602.2557l2.1269-.1885,6.4399,16.606-2.1269.1885-6.4399-16.606ZM404.3889,601.6473l.3608-.21.2638.1508-.6246.0538v.0054h0ZM406.4081,602.3957l12.3952,7.1722-6.1922,8.8091-6.203-15.9813h0ZM410.6996,619.3409l1.7177-.1562,1.7177,2.1377-3.4353-1.9869v.0054h-.0001ZM412.8911,618.9155l6.3107-8.9814,2.3315,2.9023-6.3107,8.9814-2.3315-2.9023h0ZM422.3787,613.0195l-.0969-.1239,1.1361-.6569.1561.0915-1.1954.6892h0ZM424.1071,612.6425l.21.1239-1.4646.8454-.1346-.1669,1.3892-.8023h0ZM421.9371,612.4756l-1.6315-2.0354,2.5738,1.4915-.9423.5438h0ZM415.4595,622.6524s-.0431,0-.0969-.0323h0l-.1508-.0861h.0215c.0377,0,.07-.0108.1077-.0269h.0108c.0054,0,.0108-.0108.0215-.0108.0108-.0054.0215-.0108.0323-.0162.0108-.0108.0162-.0215.0269-.0323.0054-.0054.0162-.0108.0215-.0162h0l6.4292-9.1483.0862.1077-6.5153,9.2722.0054-.0107v-.0002ZM416.138,622.954l-.1238-.1561,6.3107-8.9814.1238.1562-6.3107,8.9814h0ZM417.0695,622.5555l5.9015-8.3945,1.8846-1.0877,4.313,2.4984-12.0937,6.9837h-.0054ZM419.3202,609.2503h0l-109.7533-63.5323c-.8185-.4738-1.2869-1.1092-1.2869-1.75v-.5654c.2531.3069.5923.5923,1.0177.8346l172.0687,99.6034c.9854.5708,2.2777.8562,3.57.8562s2.5738-.2854,3.5538-.8508l13.7091-7.9153c.4254-.2423.7592-.5277,1.0177-.8346v.5654c0,.6408-.4685,1.2761-1.2869,1.7446l-13.7091,7.9153c-1.8146,1.0446-4.7707,1.0446-6.5853,0l-62.3154-36.0711h-.0001ZM473.7796,641.3961l-.6246.0538.3608-.21.2638.1508v.0054h0ZM479.7295,658.0882c-.6785.0538-1.3407-.4415-1.6531-1.2546l-5.7292-14.7698,2.1269-.1884,5.7884,14.9152c.1938.4954.5008.8938.8669,1.1738l-1.3946.1238h-.0054,0ZM672.1519,545.9979c.4254,1.0985.0915,2.3854-.7431,2.8646l-188.4701,108.811c-.1669.0969-.3446.1561-.5277.1723h-.0108c-.1777.0162-.3554-.0054-.5331-.07-.4792-.1669-.8831-.6031-1.1092-1.1846l-5.5838-14.3929,6.1922,3.5807c.9854.5708,2.2777.8562,3.57.8562s2.5738-.2854,3.5538-.8508l13.7091-7.9153c1.0015-.5762,1.5561-1.3623,1.5561-2.213v-1.9492h0c0-.8454-.5492-1.6369-1.5508-2.213l-5.1369-2.9723c-1.0338-.5977-2.66-.6031-3.6938,0l-8.4322,4.8676-.7592-.4415-1.1685-3.01s-.0108-.0108-.0108-.0162,0-.0162-.0054-.0215c-.0054-.0108-.0162-.0162-.0215-.0269-.0108-.0162-.0215-.0269-.0377-.0431-.0108-.0108-.0269-.0215-.0431-.0269-.0162-.0108-.0323-.0162-.0485-.0215-.0162-.0054-.0323-.0108-.0485-.0108h-.0485c-.0162,0-.0377,0-.0538.0108-.0108,0-.0215,0-.0323.0054-.0054,0-.0108.0054-.0162.0108-.0054,0-.0162,0-.0215.0054l-10.0099,5.7776-21.7482-56.0586,26.3412-15.2114h.0054s.0162-.0215.0269-.0269c.0108-.0108.0269-.0162.0377-.0269l.0162-.0162c.0108-.0108.0108-.0215.0215-.0323.0054-.0108.0162-.0269.0215-.0377,0-.0054.0054-.0108.0054-.0162v-.1023h0c0-.0108-.0054-.0269-.0108-.0377,0-.0108,0-.0215-.0054-.0323l-1.0877-2.8053c-.2046-.5223-.3554-1.0661-.4577-1.6315-.1023-.56-.1508-1.1361-.1508-1.7069.0323-6.8276-1.5184-13.5798-3.85-21.6136-.4146-1.4269-.84-2.843-1.2546-4.2322-1.2815-4.2753-2.4877-8.3137-3.1877-11.8622-.4308-2.1861-.63-4.0007-.6085-5.5461.0162-1.0877.14-2.0569.3769-2.8915.2154-.7646.5331-1.4431.9477-2.0192.4685-.6515,1.0769-1.1954,1.8092-1.6154.5869-.3392,1.1685-.5546,1.7284-.6354.5438-.0808,1.0931-.0431,1.6315.1077.7054.1992,1.4323.6138,2.1646,1.2331,1.4323,1.2115,2.9023,3.1877,4.6253,6.2245,1.47,2.59,2.94,5.6161,4.4907,8.8199,1.7338,3.5807,3.5269,7.2799,5.5192,10.7691,2.5846,4.5338,5.0184,7.8614,7.6514,10.4676.3608.3554.6892.7646.9746,1.2115.2908.4523.5385.9423.7377,1.4592l1.0877,2.8053.0108.0108c0,.0108,0,.0162.0108.0269.0162.0269.0377.0377.0592.0538.0108.0108.0215.0269.0377.0377.0431.0269.0915.0431.14.0431.0323,0,.0646-.0054.0969-.0162.0108,0,.0162-.0108.0215-.0162h.0162l14.7106-8.4968h.0054s.0162-.0215.0269-.0269c.0108-.0108.0269-.0162.0377-.0323l.0162-.0162c.0054-.0108.0108-.0215.0215-.0323.0054-.0108.0162-.0269.0215-.0377,0-.0054.0054-.0108.0054-.0162v-.1023h0c0-.0108-.0054-.0215-.0108-.0377,0-.0108,0-.0215-.0054-.0323l-1.0877-2.8053c-.2046-.5223-.3554-1.0715-.4577-1.6315s-.1562-1.1361-.1508-1.7069c.0323-6.8276-1.5184-13.5798-3.85-21.6136-.4146-1.4269-.84-2.843-1.2546-4.2269-1.2815-4.2753-2.4877-8.3137-3.1877-11.8622-.4308-2.1861-.63-4.0007-.6085-5.5515.0162-1.0877.14-2.0569.3769-2.8915.2154-.7646.5331-1.4431.9477-2.0192.4685-.6515,1.0769-1.1954,1.8092-1.6154.5869-.3392,1.1685-.5546,1.7284-.6354.5546-.0808,1.0877-.0485,1.6315.1077.7054.1992,1.4323.6138,2.1646,1.2277,1.4323,1.2115,2.9023,3.1877,4.6253,6.2245,1.47,2.5846,2.9346,5.6107,4.4907,8.8145,1.7338,3.5807,3.5323,7.2799,5.5192,10.7691,2.5846,4.5338,5.0184,7.8614,7.6514,10.4676.3608.3554.6892.7646.9746,1.2115.2908.4523.5385.9423.7377,1.4592l1.0877,2.8053.0108.0108c0,.0108,0,.0162.0108.0269.0162.0269.0377.0377.0592.0538.0108.0108.0215.0269.0377.0377.0431.0269.0915.0431.14.0431.0323,0,.0646-.0054.0969-.0162.0108,0,.0162-.0108.0215-.0162h.0162l14.7106-8.4968h.0054s.0162-.0215.0269-.0269c.0108-.0108.0269-.0162.0377-.0323l.0162-.0162c.0054-.0108.0108-.0215.0215-.0323.0054-.0108.0162-.0269.0215-.0377,0-.0054.0054-.0108.0054-.0162v-.1023h0c0-.0108-.0054-.0215-.0108-.0377,0-.0108,0-.0215-.0054-.0323l-1.0877-2.8053c-.2046-.5223-.3554-1.0715-.4577-1.6315s-.1562-1.1361-.1508-1.7069c.0323-6.8276-1.5184-13.5798-3.85-21.6136-.4146-1.4269-.84-2.843-1.2546-4.2269-1.2815-4.2753-2.4877-8.3137-3.1877-11.8622-.4308-2.1861-.63-4.0007-.6085-5.5515.0162-1.0877.14-2.0569.3769-2.8915.2154-.7646.5331-1.4431.9477-2.0192.4685-.6515,1.0769-1.1954,1.8092-1.6154.5869-.3392,1.1685-.5546,1.7284-.6354.5546-.0862,1.0877-.0485,1.6315.1077.7054.1992,1.4323.6138,2.1646,1.2277,1.4323,1.2115,2.9023,3.1877,4.6253,6.2245,1.47,2.5846,2.9346,5.6107,4.4907,8.8145,1.7338,3.5807,3.5323,7.2799,5.5192,10.7691,2.5846,4.5338,5.0184,7.8614,7.6514,10.4676.3608.3554.6892.7646.9746,1.2115.2908.4523.5385.9423.7377,1.4592l1.0877,2.8053.0108.0108c0,.0108,0,.0162.0108.0269.0162.0269.0377.0377.0592.0538.0108.0108.0215.0269.0377.0377.0431.0269.0915.0431.14.0431.0323,0,.0646-.0054.0969-.0162.0108,0,.0162-.0108.0215-.0162h.0162l14.7214-8.4968s.0162-.0162.0269-.0215c.0108-.0108.0269-.0162.0377-.0323,0,0,.0108-.0108.0162-.0162.0054-.0108.0108-.0215.0215-.0323.0054-.0108.0162-.0269.0215-.0377,0-.0054.0054-.0108.0054-.0162v-.1023h0c0-.0108-.0054-.0269-.0108-.0377,0-.0108,0-.0215-.0054-.0323l-1.0877-2.8053c-.2046-.5223-.3554-1.0661-.4577-1.6315-.1023-.56-.1561-1.1361-.1508-1.7069.0323-6.8276-1.5184-13.5798-3.85-21.6136-.4146-1.4269-.84-2.843-1.2546-4.2269-1.2815-4.2753-2.4877-8.3137-3.1877-11.8622-.4308-2.1861-.63-4.0007-.6085-5.5515.0162-1.0877.14-2.0569.3769-2.8915.2154-.7646.5331-1.4431.9477-2.0192.4685-.6515,1.0769-1.1954,1.8092-1.6154.5869-.3392,1.1684-.5546,1.7285-.6354.5546-.0808,1.0877-.0485,1.6315.1077.7054.1992,1.4323.6138,2.1646,1.2277,1.4323,1.2115,2.9023,3.1877,4.6253,6.2245,1.47,2.5846,2.9346,5.6107,4.4907,8.8145,1.7338,3.5807,3.5323,7.2799,5.5192,10.7691,2.5846,4.5338,5.0184,7.8614,7.6515,10.4676.3608.3554.6892.7646.9746,1.2115.2908.4523.5385.9423.7377,1.4592l1.0877,2.8054s.0054.0054.0108.0108c0,.0108,0,.0162.0108.0269.0162.0269.0377.0377.0592.0592.0108.0108.0215.0269.0377.0323.0431.0269.0915.0431.14.0431.0323,0,.0646-.0054.0969-.0162.0108,0,.0162-.0108.0215-.0162h.0162l26.2766-15.1737,21.7482,56.0586-10.0799,5.8207s-.0162.0162-.0269.0215c-.0162.0108-.0269.0215-.0431.0377-.0108.0108-.0215.0269-.0269.0431-.0108.0162-.0162.0269-.0215.0431s-.0108.0323-.0108.0485v.0485c0,.0162,0,.0377.0108.0538,0,.0108,0,.0215.0054.0323l1.4754,3.8069-7.7484,4.4746c-.5438.3123-.84.7485-.8454,1.2169h0v1.9438c0,.4685.3069.9154.84,1.2277h0l5.1369,2.9723h0c.9854.5708,2.2777.8561,3.57.8561s2.5738-.2854,3.5538-.8508l10.3491-5.9769,1.9815,5.0992.0216.0162.0013.0009ZM674.548,536.7473c0,.6408-.4685,1.2761-1.2869,1.7446l-13.7091,7.9153c-1.8146,1.0446-4.7707,1.0446-6.5853,0l-5.1422-2.9777c-.3661-.21-.5762-.49-.5762-.7592v-.9369c.0915.0754.1938.1508.3069.2208l5.1369,2.9723h0c.9854.5708,2.2777.8561,3.57.8561s2.5738-.2854,3.5538-.8508l13.7091-7.9153c.4254-.2423.7592-.5277,1.0177-.8346v.5654h.0054ZM673.2611,536.548l-13.7091,7.9153c-1.8146,1.0446-4.7653,1.0446-6.5853,0h0l-5.1369-2.9723h0c-.3715-.2154-.5762-.4846-.5762-.7592s.2046-.5438.5762-.7592l8.5615-4.943h0c.0377-.0215.0646-.0538.0915-.0915,0,0,.0054,0,.0108-.0108s.0054-.0215.0108-.0323c.0054-.0162.0162-.0323.0162-.0538v-.0969c0-.0215-.0108-.0377-.0162-.0538,0-.0108,0-.0215-.0108-.0323l-.0108-.0108c-.0108-.0162-.0215-.0269-.0377-.0431-.0108-.0108-.0269-.0269-.0377-.0323l-.0108-.0108-.8938-.5169-1.0823-2.7946,7.8668-4.5446,10.9737,6.3538h0c.8292.4792,1.2869,1.1038,1.2869,1.75s-.4577,1.2654-1.2869,1.7446v-.0056ZM541.8026,451.2568h0c.3769.9746,1.19,1.6046,2.0461,1.6046.0485,0,.0969,0,.1508-.0054h.0108l.9477-.0862h.0162c.2531-.0269.5061-.1023.7377-.2369l23.9882-13.8491c1.0554-.6085,1.4915-2.1915.9746-3.5269l-11.9914-30.9127c-.2854-.7269-.8077-1.2761-1.4323-1.4969-.2531-.0862-.5115-.1185-.7646-.0969h-.0054l-.9369.0862h0c-.2638.0215-.5169.1023-.7538.2423l-4.3723,2.5254c-.2746-.5546-.6192-1.0661-.9961-1.5184l-.9315-2.3961s-.0108-.0108-.0108-.0162,0-.0108-.0054-.0215c-.0054-.0108-.0162-.0162-.0215-.0215-.0108-.0162-.0215-.0269-.0377-.0431-.0108-.0108-.0269-.0215-.0431-.0269-.0162-.0108-.0269-.0162-.0431-.0215s-.0323-.0108-.0538-.0108h-.0485c-.0162,0-.0377,0-.0538.0108-.0108,0-.0215,0-.0323.0054-.0054,0-.0108.0108-.0162.0108s-.0162,0-.0215.0054l-1.4.8077h-.0054l-12.6268,7.2907s-.0162.0162-.0269.0215c-.0162.0108-.0269.0215-.0377.0377-.0108.0108-.0215.0269-.0269.0431-.0108.0162-.0162.0269-.0215.0485-.0054.0162-.0108.0323-.0108.0485v.0485c0,.0162,0,.0377.0108.0538,0,.0108,0,.0215.0054.0323l1.2977,3.3384s.0054.0054.0108.0108c0,.0108,0,.0162.0108.0269.0162.0269.0377.0377.0592.0538.0108.0108.0215.0269.0377.0377.0431.0269.0915.0431.14.0431.0323,0,.0646-.0054.0969-.0162.0108,0,.0162-.0108.0215-.0162h.0162l.4361-.2531c.1292-.0754.1723-.2369.0969-.3661-.0538-.0969-.1562-.14-.2585-.1346-.1777-.2369-.3715-.4577-.5762-.6461l-.3446-.8885c.77.6138,1.4538,1.5184,1.9115,2.5415l-.5762.0538h0c-.0162,0-.0377.0108-.0538.0162-.0162,0-.0323.0054-.0485.0162h0l-5.4115,3.1284c-1.0554.6085-1.4915,2.1915-.9746,3.5269l11.9914,30.9127-.043-.0215-.0003-.0003ZM548.0864,402.0635l.3823.98c-.3231-.2585-.6623-.4738-.9961-.6246l.6192-.3554h-.0054ZM532.0028,417.1995l5.4115-3.1284s.0162-.0162.0269-.0215c.0108-.0108.0269-.0162.0377-.0323,0,0,.0108-.0108.0162-.0162.0108-.0108.0108-.0215.0215-.0323.0054-.0108.0162-.0269.0215-.0377,0-.0054.0054-.0108.0054-.0162v-.1023h0c0-.0108-.0054-.0269-.0108-.0377,0-.0108,0-.0215-.0054-.0323-.5977-1.54-1.7015-2.8861-2.8969-3.5592l-.1131-.2908,12.336-7.1238c1.2707.3608,2.66,1.8361,3.333,3.5646,0,0,.0054.0054.0108.0108,0,.0108,0,.0162.0108.0269.0162.0269.0377.0377.0592.0592.0108.0108.0215.0215.0323.0323.0431.0269.0915.0431.14.0431h0c.0323,0,.0646-.0054.0969-.0162.0108,0,.0162-.0108.0215-.0162h.0162l5.4169-3.1284c.1669-.0969.3392-.1508.5169-.1669h.0162c.1777-.0162.3608.0054.5385.07.4792.1669.8831.6031,1.1092,1.1846l11.9914,30.9127c.4254,1.0984.0915,2.3854-.7431,2.8646l-23.9882,13.8491c-.1669.0969-.3446.1561-.5223.1723h-.0108c-.1777.0162-.3554-.0054-.5385-.07-.4792-.1669-.8884-.6031-1.1146-1.1846l-11.9914-30.9127c-.4254-1.0984-.0915-2.3854.7431-2.8646h.0056ZM531.0497,417.2802l.14-.0808c-.6408.7592-.8508,1.9815-.4361,3.0584l11.9914,30.9127c.1777.4577.4523.8238.7861,1.1038-.5169-.1292-.9854-.5762-1.2331-1.2115h0l-11.9914-30.9127c-.4254-1.0984-.0915-2.3854.7431-2.8646v-.0054h0ZM560.5678,574.3745l-11.9914-30.9073c-.2854-.7323-.8077-1.2761-1.4377-1.4969-.2531-.0862-.5061-.1185-.7592-.0969h-.0054l-.9477.0862c-.2638.0215-.5169.1023-.7538.2423h0l-4.3723,2.5254c-.2746-.5546-.6192-1.0661-.9961-1.5184l-.9315-2.3961s-.0108-.0108-.0108-.0162,0-.0162-.0054-.0215c-.0054-.0108-.0162-.0162-.0215-.0269-.0108-.0162-.0215-.0269-.0323-.0377-.0162-.0108-.0269-.0215-.0431-.0323-.0162-.0054-.0269-.0162-.0431-.0215s-.0377-.0108-.0538-.0108h-.0485c-.0215,0-.0377,0-.0538.0108h-.0323c-.0054,0-.0108.0054-.0162.0108-.0054,0-.0162,0-.0215.0054l-1.4.8077h0l-12.6322,7.2907s-.0162.0162-.0269.0215c-.0162.0108-.0269.0215-.0431.0377-.0108.0108-.0215.0269-.0269.0431-.0108.0162-.0162.0269-.0215.0431s-.0108.0323-.0108.0485v.0485c0,.0162,0,.0377.0108.0538,0,.0108,0,.0215.0054.0323l1.2977,3.3384.0108.0108c0,.0108,0,.0162.0108.0269.0162.0215.0377.0377.0538.0538.0108.0108.0215.0269.0377.0377.0431.0269.0915.0431.14.0431.0323,0,.0646-.0054.0969-.0162.0108,0,.0162-.0108.0215-.0162h.0162l.4361-.2531c.1292-.0754.1723-.2369.0969-.3661-.0538-.0969-.1562-.14-.2585-.1346-.1777-.2369-.3715-.4577-.5762-.6462l-.3446-.8884c.77.6138,1.4538,1.5184,1.9115,2.5415l-.5762.0538h0c-.0162,0-.0377.0108-.0538.0162s-.0323.0108-.0485.0162h0l-5.4115,3.123c-1.0554.6085-1.4915,2.1915-.9746,3.5269l11.9914,30.9127c.3769.9746,1.19,1.5992,2.0461,1.5992.0538,0,.1077,0,.1562-.0054h0l.9477-.0862h.0162c.2531-.0269.5061-.1023.7377-.2369l23.9882-13.8491c1.0554-.6085,1.4915-2.1915.9746-3.5269h-.0215l-.0002-.0002ZM537.985,541.2918l.3823.98c-.3231-.2585-.6623-.4738-.9961-.6246l.6192-.3554h-.0054ZM532.2074,590.2859l-11.9914-30.9127c-.4254-1.0985-.0915-2.3854.7431-2.87l.1454-.0808c-.6462.7592-.8508,1.9869-.4361,3.0584l11.9914,30.9127c.1777.4523.4523.8238.7808,1.1038-.5169-.1346-.98-.5762-1.2277-1.2115h-.0055ZM559.3294,577.4383l-23.9882,13.8491c-.1669.0969-.3446.1562-.5277.1723h0c-.1777.0162-.3608-.0054-.5385-.07-.4792-.1669-.8884-.6031-1.1146-1.1846l-11.9914-30.9127c-.4254-1.0985-.0915-2.3854.7431-2.8646l5.4061-3.123h.0108s.0162-.0215.0269-.0269c.0108-.0108.0269-.0162.0377-.0323l.0162-.0162c.0108-.0108.0108-.0215.0215-.0323.0054-.0108.0162-.0269.0215-.0377,0-.0054.0054-.0108.0054-.0215v-.1023h0c0-.0108-.0054-.0269-.0108-.0377,0-.0108,0-.0215-.0054-.0323-.5977-1.54-1.7015-2.8861-2.8969-3.5592l-.1131-.2908,12.336-7.1238c1.2707.3608,2.66,1.8361,3.333,3.5646l.0108.0108c0,.0108,0,.0162.0108.0269.0162.0269.0377.0377.0592.0538.0108.0108.0215.0269.0377.0377.0431.0269.0915.0431.14.0431.0323,0,.0646-.0054.0969-.0162.0108,0,.0162-.0108.0215-.0162h.0162l5.4169-3.1284c.1669-.0969.3392-.1508.5223-.1669h.0108c.1777-.0162.3608.0054.5438.07.4792.1669.8831.6031,1.1146,1.1846l11.9914,30.9127h0c.4254,1.0985.0915,2.3854-.7431,2.8646l-.0215.0054h.0001ZM388.2891,539.8865h0c.3769.9746,1.1846,1.5992,2.0461,1.5992.0431,0,.0862,0,.1346-.0054h.0215l.9477-.0862h.0162c.2531-.0269.5061-.1023.7377-.2369l23.9882-13.8491c1.0554-.6085,1.4915-2.1915.9746-3.5269l-11.9914-30.9127c-.2854-.7323-.8077-1.2761-1.4377-1.4969-.2531-.0862-.5115-.1185-.7646-.0969h0l-.9423.0862h0c-.2638.0215-.5169.1023-.7485.2423l-4.3723,2.5254c-.2746-.5546-.6192-1.0661-.9961-1.5184l-.9315-2.3961s-.0108-.0108-.0108-.0162,0-.0162-.0054-.0215c-.0054-.0108-.0162-.0162-.0215-.0269-.0108-.0162-.0215-.0269-.0377-.0377-.0108-.0108-.0269-.0215-.0431-.0269-.0162-.0108-.0269-.0162-.0431-.0215s-.0323-.0108-.0485-.0108h-.0485c-.0162,0-.0323,0-.0538.0108-.0108,0-.0215,0-.0323.0054-.0054,0-.0108.0108-.0162.0108s-.0162,0-.0215.0054l-1.4.8077h0l-12.6322,7.2961s-.0162.0162-.0269.0215c-.0162.0108-.0269.0215-.0377.0377-.0108.0108-.0215.0269-.0269.0431-.0108.0162-.0162.0269-.0215.0431s-.0108.0323-.0108.0485v.0485c0,.0162,0,.0377.0108.0538,0,.0108,0,.0215.0054.0323l1.2977,3.3384.0108.0108c0,.0108,0,.0162.0108.0269.0162.0269.0377.0377.0592.0592.0108.0108.0215.0269.0323.0323.0431.0269.0915.0431.14.0431h0c.0323,0,.0646-.0054.0969-.0162.0108,0,.0162-.0108.0215-.0162h.0162l.4361-.2531c.1292-.0754.1723-.2369.0969-.3661-.0538-.0969-.1561-.14-.2585-.1346-.1777-.2369-.3715-.4577-.5762-.6462l-.3446-.8884c.77.6138,1.4538,1.5184,1.9115,2.5415l-.5762.0538h0c-.0215,0-.0377.0108-.0538.0162-.0162,0-.0323.0054-.0485.0162h0l-5.4169,3.1284c-1.0554.6085-1.4915,2.1915-.9746,3.5269l11.9914,30.9127-.0323-.0161.0002-.0003ZM394.5675,490.6986l.3823.98c-.3231-.2585-.6569-.4738-.9961-.6246l.6192-.3554h-.0054ZM378.4838,505.8292l5.4061-3.123h.0054s.0162-.0215.0269-.0269c.0108-.0108.0269-.0162.0377-.0269l.0162-.0162c.0108-.0108.0108-.0215.0215-.0323.0054-.0108.0162-.0269.0215-.0377,0-.0054.0054-.0108.0054-.0215v-.1023h0c0-.0108-.0054-.0269-.0108-.0377,0-.0108,0-.0215-.0054-.0323-.5977-1.54-1.7015-2.8861-2.8969-3.5538l-.1131-.2908,12.336-7.1238c1.2708.3608,2.66,1.8361,3.333,3.5646l.0108.0108c0,.0108,0,.0162.0108.0269.0162.0269.0377.0377.0592.0592.0108.0108.0215.0269.0323.0323.0431.0269.0915.0431.14.0431h0c.0323,0,.0646-.0054.0969-.0162.0108,0,.0162-.0108.0215-.0162h.0162l5.4169-3.1284c.1669-.0969.3392-.1508.5115-.1669h.0162c.1777-.0162.3608.0054.5385.07.4792.1669.8831.5977,1.1092,1.1846l11.9914,30.9127c.4254,1.0985.0915,2.3854-.7431,2.8646l-23.9882,13.8491c-.1669.0969-.3446.1562-.5277.1723h0c-.1777.0162-.3608-.0054-.5385-.07-.4792-.1669-.8831-.6031-1.1092-1.1846l-11.9914-30.9127c-.4254-1.0985-.0969-2.3854.7377-2.8646l.0054-.0054h0ZM377.5361,505.9153l.1454-.0808c-.6461.7592-.8508,1.9869-.4361,3.0584l11.9914,30.9127c.1777.4577.4523.8238.7861,1.1038-.5223-.1292-.9854-.5762-1.2331-1.2115h0l-11.9914-30.9127c-.4254-1.0985-.0969-2.3854.7377-2.8646v-.0054h0ZM510.1953,565.6246c-.2854-.7323-.8077-1.2761-1.4377-1.4969-.2477-.0862-.5061-.1185-.7592-.0969h-.0108l-.9477.0862c-.2638.0215-.5169.1023-.7538.2423l-4.3723,2.5254c-.2746-.5546-.6192-1.0661-.9961-1.5184l-.9315-2.3961s-.0108-.0108-.0108-.0162,0-.0108-.0054-.0215c-.0054-.0108-.0162-.0162-.0215-.0215-.0108-.0162-.0215-.0323-.0377-.0431-.0108-.0108-.0269-.0215-.0431-.0269-.0162-.0108-.0269-.0162-.0485-.0215-.0162-.0054-.0323-.0108-.0485-.0108h-.0485c-.0162,0-.0377,0-.0538.0108-.0108,0-.0215,0-.0323.0054-.0054,0-.0108.0054-.0162.0108-.0054,0-.0162,0-.0215.0054l-1.4054.8131h0l-12.6322,7.2907c-.0108.0054-.0162.0162-.0269.0215-.0162.0108-.0269.0215-.0377.0377-.0108.0108-.0215.0269-.0269.0431-.0108.0162-.0162.0269-.0215.0431s-.0108.0323-.0108.0485v.0485c0,.0162,0,.0377.0108.0538,0,.0108,0,.0215.0054.0323l1.2977,3.3384.0108.0108c0,.0108,0,.0162.0108.0269.0162.0269.0377.0377.0592.0592.0108.0108.0215.0269.0377.0323.0431.0269.0915.0431.14.0431h0c.0323,0,.0646-.0054.0969-.0162.0108,0,.0162-.0108.0215-.0162h.0162l.4361-.2531c.1292-.0754.1723-.2369.0969-.3661-.0538-.0969-.1562-.14-.2585-.1346-.1777-.2369-.3715-.4577-.5762-.6462l-.3446-.8884c.77.6138,1.4538,1.5184,1.9115,2.5415l-.5762.0538h0c-.0162,0-.0323.0108-.0538.0162-.0162.0054-.0377.0108-.0485.0162h0l-5.4169,3.123c-1.0554.6085-1.4915,2.1915-.9746,3.5269l11.9914,30.9127c.3769.9746,1.19,1.6046,2.0461,1.6046.0485,0,.0915,0,.14-.0054h.0215l.9477-.0862h.0162c.2531-.0269.5061-.1023.7377-.2369l23.9828-13.8491h0c1.0554-.6085,1.4915-2.1915.9746-3.5269l-11.9914-30.9127-.0107-.0161.0002-.0003ZM499.6093,563.4493l.3823.98c-.3231-.2585-.6623-.4738-.9961-.6246l.6192-.3554h-.0054ZM493.8263,612.4487l-11.9914-30.9127c-.4254-1.0985-.0969-2.3854.7377-2.8646h0l.14-.0808c-.6462.7592-.8508,1.9869-.4361,3.0584l11.9914,30.9127c.1777.4523.4523.8238.7808,1.1038-.5169-.1346-.9854-.5762-1.2331-1.2115l.0108-.0054h-.0001ZM520.9483,599.5958h0l-23.9828,13.8491c-.1669.0969-.3446.1562-.5277.1723h-.0054c-.1777.0162-.3554-.0054-.5331-.07-.4792-.1669-.8884-.6031-1.1146-1.1846l-11.9914-30.9127c-.4254-1.0985-.0969-2.3854.7377-2.8646l5.4061-3.123h.0054s.0162-.0215.0269-.0269c.0108-.0108.0269-.0162.0377-.0269l.0162-.0162c.0108-.0108.0108-.0215.0215-.0323.0054-.0108.0162-.0269.0215-.0377,0-.0054.0054-.0108.0054-.0215v-.1023h0c0-.0108-.0054-.0269-.0108-.0377,0-.0108,0-.0215-.0054-.0323,0-.0108-.0108-.0162-.0108-.0269h0c-.5977-1.5238-1.6961-2.8646-2.8861-3.5269l-.1131-.2908,12.336-7.1238c1.2761.3608,2.66,1.8361,3.333,3.5646l.0108.0108c0,.0108,0,.0162.0108.0269.0162.0269.0377.0377.0592.0538.0108.0108.0215.0269.0377.0377.0431.0269.0915.0431.14.0431.0323,0,.0646-.0054.0969-.0162.0108,0,.0162-.0108.0215-.0162h.0162l5.4115-3.123h0c.1669-.0969.3392-.1508.5169-.1669h.0162c.1777-.0162.3608.0054.5385.07.4792.1669.8831.6031,1.1146,1.1846l11.9914,30.9127c.4254,1.0985.0969,2.3854-.7431,2.8646l-.0054-.0108h0ZM503.4269,473.4142c.3769.9746,1.19,1.6046,2.0461,1.6046.0485,0,.0969,0,.1508-.0054h.0108l.9477-.0862h.0162c.2531-.0269.5061-.1023.7377-.2369l23.9882-13.8491c1.0554-.6085,1.4915-2.1915.9746-3.5269l-11.9914-30.9127c-.2854-.7269-.8077-1.2761-1.4323-1.4969-.2531-.0915-.5115-.1238-.77-.0969h-.0108l-.9369.0862h0c-.2638.0215-.5169.1023-.7538.2423l-4.3723,2.5254c-.2746-.5546-.6192-1.0661-.9961-1.5184l-.9315-2.3961s-.0108-.0108-.0108-.0162,0-.0162-.0054-.0215c-.0054-.0108-.0162-.0162-.0215-.0269-.0108-.0162-.0215-.0269-.0377-.0431-.0108-.0108-.0269-.0215-.0431-.0269-.0162-.0108-.0269-.0162-.0431-.0215s-.0323-.0108-.0538-.0108h-.0485c-.0162,0-.0377,0-.0538.0108-.0108,0-.0215,0-.0323.0054-.0054,0-.0108.0108-.0162.0108s-.0162,0-.0215.0054l-1.3946.8077s-.0054,0-.0108.0054l-12.6268,7.2907s-.0162.0162-.0269.0215c-.0162.0108-.0269.0215-.0377.0377-.0108.0108-.0215.0269-.0269.0431-.0108.0162-.0162.0269-.0215.0485-.0054.0162-.0108.0323-.0108.0485v.0485c0,.0162,0,.0377.0108.0538,0,.0108,0,.0215.0054.0323l1.2977,3.3384.0108.0108c0,.0108,0,.0162.0108.0269.0162.0269.0377.0377.0592.0592.0108.0108.0215.0269.0377.0323.0431.0269.0915.0431.14.0431.0323,0,.0646-.0054.0969-.0162.0108,0,.0162-.0108.0215-.0162h.0162l.4361-.2531c.1292-.0754.1723-.2369.0969-.3661-.0538-.0969-.1562-.14-.2585-.1346-.1777-.2369-.3715-.4577-.5762-.6461l-.3446-.8884c.77.6138,1.4538,1.5184,1.9115,2.5415l-.5762.0538h0c-.0162,0-.0377.0108-.0538.0162s-.0323.0108-.0485.0162h0l-5.4115,3.1284c-1.0554.6085-1.4915,2.1915-.9746,3.5269l11.9914,30.9127-.0323-.0215v-.0004ZM509.7053,424.2209l.3823.98c-.3231-.2585-.6623-.4738-.9961-.6246l.6192-.3554h-.0054ZM493.6217,439.3569l5.4115-3.1284s.0162-.0162.0269-.0215c.0108-.0108.0269-.0162.0377-.0323l.0162-.0162c.0054-.0108.0108-.0215.0215-.0323.0054-.0108.0162-.0269.0215-.0377,0-.0054.0054-.0108.0054-.0162v-.1023h0c0-.0108-.0054-.0269-.0108-.0377,0-.0108,0-.0215-.0054-.0323-.5977-1.54-1.7015-2.8861-2.8969-3.5592l-.1131-.2908,12.336-7.1238c1.2707.3608,2.66,1.8361,3.333,3.5646l.0108.0108c0,.0108,0,.0162.0108.0269.0162.0269.0377.0377.0592.0592.0108.0108.0215.0269.0377.0323.0431.0269.0915.0431.14.0431.0323,0,.0646-.0054.0969-.0162.0108,0,.0162-.0108.0215-.0162h.0162l5.4115-3.1284c.1669-.0969.3392-.1508.5115-.1669h.0162c.1777-.0162.3608.0054.5385.07.4792.1669.8831.6031,1.1092,1.1846l11.9914,30.9127c.4254,1.0984.0915,2.3854-.7431,2.8646l-23.9882,13.8491c-.1669.0969-.3446.1561-.5277.1723h-.0054c-.1777.0162-.3554-.0054-.5385-.07-.4792-.1669-.8831-.6031-1.1146-1.1846l-11.9914-30.9127c-.4254-1.0984-.0915-2.3854.7431-2.8646h.011ZM492.674,439.443l.14-.0808c-.6408.7592-.8508,1.9815-.4361,3.0584l11.9914,30.9127c.1777.4577.4523.8238.7861,1.1038-.5169-.1292-.9854-.5762-1.2331-1.2115l-11.9914-30.9127c-.4254-1.0984-.0915-2.3854.7431-2.8646v-.0054h0ZM426.6648,517.729c.3769.9746,1.1846,1.6046,2.0461,1.6046.0431,0,.0862,0,.1346-.0054h.0215l.9477-.0862h.0162c.2531-.0269.5061-.1023.7377-.2369l23.9882-13.8491c1.0554-.6085,1.4915-2.1915.9746-3.5269l-11.9914-30.9127c-.2854-.7323-.8077-1.2761-1.4377-1.4969-.2531-.0862-.5115-.1185-.7646-.0969h-.0054l-.9423.0862h0c-.2638.0215-.5169.1023-.7485.2423l-4.3723,2.5254c-.2746-.5546-.6192-1.0661-.9961-1.5184l-.9315-2.3961s-.0108-.0108-.0108-.0162,0-.0162-.0054-.0215c-.0054-.0108-.0162-.0162-.0215-.0269-.0108-.0162-.0215-.0269-.0377-.0377-.0108-.0108-.0269-.0215-.0431-.0269-.0162-.0108-.0269-.0162-.0431-.0215s-.0323-.0108-.0485-.0108h-.0538c-.0162,0-.0377,0-.0538.0108-.0108,0-.0215,0-.0323.0054-.0054,0-.0108.0108-.0162.0108s-.0162,0-.0215.0054l-1.4.8077h0l-12.6322,7.2961s-.0162.0162-.0269.0215c-.0162.0108-.0269.0215-.0377.0377-.0108.0108-.0215.0269-.0269.0431-.0108.0162-.0162.0269-.0215.0431s-.0108.0323-.0108.0485v.0485c0,.0162,0,.0377.0108.0538,0,.0108,0,.0215.0054.0323l1.2977,3.3384.0108.0108c0,.0108,0,.0162.0108.0269.0162.0269.0377.0377.0592.0592.0108.0108.0215.0269.0323.0323.0431.0269.0915.0431.14.0431h0c.0323,0,.0646-.0054.0969-.0162.0108,0,.0162-.0108.0215-.0162h.0162l.4361-.2531c.1292-.0754.1723-.2369.0969-.3661-.0538-.0969-.1561-.1454-.2585-.1346-.1777-.2369-.3715-.4577-.5762-.6461l-.3446-.8884c.77.6138,1.4538,1.5184,1.9115,2.5415l-.5762.0538h0c-.0162,0-.0377.0108-.0538.0162-.0162,0-.0323.0108-.0485.0162h0l-5.4169,3.1284c-1.0554.6085-1.4915,2.1915-.9746,3.5269l11.9914,30.9127-.0215-.0216.0002-.0004ZM432.9485,468.5412l.3823.98c-.3231-.2585-.6569-.4738-.9961-.6246l.6192-.3554h-.0054ZM416.8649,483.6718l5.4169-3.1284s.0162-.0162.0269-.0215c.0108-.0108.0269-.0162.0377-.0323l.0162-.0162c.0108-.0108.0108-.0215.0215-.0323.0054-.0108.0162-.0269.0215-.0377,0-.0054.0054-.0108.0054-.0215v-.1023h0c0-.0108-.0054-.0269-.0108-.0377,0-.0108,0-.0215-.0054-.0323,0-.0108-.0108-.0162-.0108-.0269h0c-.5977-1.5238-1.6961-2.8592-2.8861-3.5269l-.1131-.2908,12.336-7.1238c1.2708.3608,2.66,1.8361,3.333,3.5646l.0108.0108c0,.0108,0,.0162.0108.0269.0162.0269.0377.0377.0592.0592.0108.0108.0215.0269.0323.0323.0431.0269.0915.0431.14.0431h0c.0323,0,.0646-.0054.0969-.0162.0108,0,.0162-.0108.0215-.0162h.0162l5.4169-3.1284c.1669-.0969.3392-.1508.5169-.1669h.0162c.1777-.0162.3608.0054.5385.07.4792.1669.8831.5977,1.1092,1.1846l11.9914,30.9127c.4254,1.0985.0915,2.3854-.7431,2.8646l-23.9882,13.8491c-.1669.0969-.3446.1562-.5277.1723h0c-.1777.0162-.3608-.0054-.5385-.07-.4792-.1669-.8831-.6031-1.1092-1.1846l-11.9914-30.9127c-.4254-1.0985-.0969-2.3854.7377-2.8646h-.0054,0ZM415.9172,483.7579l.14-.0808c-.6408.7592-.8508,1.9869-.4361,3.0584l11.9914,30.9127c.1777.4577.4523.8238.7861,1.1038-.5223-.1292-.9854-.5708-1.2331-1.2115l-11.9914-30.9127c-.4254-1.0985-.0969-2.3854.7377-2.8646l.0054-.0054h0ZM598.9489,552.2171l-11.9914-30.9073c-.2854-.7323-.8077-1.2761-1.4377-1.4969-.2531-.0915-.5115-.1185-.7646-.0969h0l-.9423.0862c-.2638.0215-.5169.1023-.7538.2423h0l-4.3723,2.5254c-.2746-.5546-.6192-1.0661-.9961-1.5184l-.9315-2.3961s-.0108-.0108-.0108-.0162,0-.0108-.0054-.0215c-.0054-.0108-.0162-.0162-.0215-.0269-.0108-.0162-.0215-.0269-.0377-.0377-.0162-.0108-.0269-.0215-.0431-.0323-.0162-.0054-.0269-.0162-.0431-.0215s-.0377-.0108-.0538-.0108h-.0431c-.0215,0-.0377,0-.0592.0108h-.0323c-.0054,0-.0108.0054-.0162.0108-.0054,0-.0162,0-.0215.0054l-1.4.8077h-.0054l-12.6268,7.2907s-.0162.0162-.0269.0215c-.0162.0108-.0269.0215-.0431.0377-.0108.0108-.0215.0269-.0269.0431-.0108.0162-.0162.0269-.0215.0431s-.0108.0323-.0108.0485v.0485c0,.0162,0,.0377.0108.0538,0,.0108,0,.0215.0054.0323l1.2977,3.3384.0108.0108c0,.0108,0,.0162.0108.0269.0162.0215.0377.0377.0538.0538.0108.0108.0215.0269.0377.0377.0431.0269.0915.0431.14.0431.0323,0,.0646-.0054.0969-.0162.0108,0,.0162-.0108.0215-.0162h.0162l.4361-.2531c.1292-.0754.1723-.2369.0969-.3661-.0538-.0969-.1562-.14-.2585-.1346-.1777-.2369-.3715-.4577-.5762-.6462l-.3446-.8884c.77.6138,1.4538,1.5184,1.9115,2.5415l-.5762.0538h0c-.0162,0-.0323.0108-.0485.0162s-.0377.0108-.0538.0162h0l-5.4115,3.123c-1.0554.6085-1.4915,2.1915-.9746,3.5269h0l11.9914,30.9073c.3769.9746,1.19,1.5992,2.0461,1.5992.0538,0,.1077,0,.1562-.0054h0l.9477-.0862h.0162c.2531-.0269.5061-.1023.7377-.2369l23.9882-13.8491c1.0554-.6085,1.4915-2.1915.9746-3.5269h0l-.0215.0054h-.0002ZM576.3661,519.1344l.3823.98c-.3231-.2585-.6623-.4738-.9961-.6246l.6192-.3554h-.0054ZM570.5885,568.1284l-11.9914-30.9127h0c-.4254-1.0985-.0915-2.3854.7431-2.8646l.1454-.0808c-.6462.7592-.8508,1.9869-.4361,3.0584l11.9914,30.9127c.1777.4523.4523.8238.7861,1.1038-.5169-.1292-.9854-.5762-1.2331-1.2115l-.0054-.0054h0ZM597.7051,555.2809l-23.9882,13.8491c-.1669.0969-.3446.1562-.5277.1723h0c-.1777.0162-.3608-.0054-.5385-.07-.4792-.1669-.8884-.6031-1.1146-1.1846l-11.9914-30.9127c-.4254-1.0985-.0915-2.3854.7431-2.8646l5.4061-3.123h.0054s.0162-.0215.0269-.0269c.0108-.0108.0269-.0162.0377-.0323l.0162-.0162c.0054-.0108.0108-.0215.0215-.0323.0054-.0108.0162-.0269.0215-.0377,0-.0054.0054-.0108.0054-.0162v-.1023h0c0-.0108-.0054-.0215-.0108-.0377,0-.0108,0-.0215-.0054-.0323-.5977-1.54-1.7015-2.8861-2.8969-3.5592l-.1131-.2908,12.336-7.1238c1.2707.3608,2.66,1.8361,3.333,3.5646l.0108.0108c0,.0108,0,.0162.0108.0269.0162.0269.0377.0377.0592.0538.0108.0108.0215.0269.0377.0377.0431.0269.0915.0431.14.0431.0323,0,.0646-.0054.0969-.0162.0108,0,.0162-.0108.0215-.0162h.0162l5.4115-3.123h0c.1669-.0969.3392-.1508.5169-.1669h.0162c.1777-.0162.3608.0054.5385.07.4792.1669.8831.6031,1.1146,1.1846l11.9914,30.9127h0c.4254,1.0985.0915,2.3854-.7431,2.8646l-.0055-.0054h.0002Z"/>
  </g>
  <g id="Layer_3" data-name="Layer 3">
    <path d="M455.1287,601.5809l1.5613,4.0391-5.03-2.91v-.01l2.5205-1.4538c.3518-.2029.8018-.0441.9482.3348Z"/>
    <path d="M409.06,619.17c.0839.234.2419.4341.45.57l5.38,3.11c.1163.0588.2537.0588.37,0l.1-.06.46.58,13.57-7.84,43.48,25.17-2.09,1.2,5.87,15.12c.1206.3094.2968.5941.52.84l-.35.59c-5.37.33-8.41,3-10.61,4s-4.54,2-8.59-.64-6.71-4-11.88-4.42-65.21-3.1-71.43-3.49-6.22-.78-10-3,5.63-6.23,13.41-10.24-15-6.61-22-7.37c-17.55-1.9-22.46-4.2-20.31-6.57,4.05-4.52,20.18-3.39,35.15-3,5,.15,11.22.3,14.33.13,6.21-.34,2.42-2.93.77-4.22s-5-1.56-8.72-1.67-121.15-6-134.24-6.9-14.13-7.12-18.14-7.51-15.82-1.68-21-2.2c-17.57-1.73-22.45-4.2-20.32-6.57,4.06-4.51,21.25-3.22,35.16-3,10.31.2,32.61,2.13,40.25-2.4,7.64-4.53,12.84-8.3,7.13-8.68s-19.55-1.2-23.63-1.65c-17.55-1.92-22.46-4.2-20.32-6.57,4.06-4.51,21.24-3.18,35.16-3,7.54.12,42.45-.57,35.54-3.26s-7.87-5.44-3.12-6.47-2.38-2.65-8.52-3.36c-17.54-2-22.46-4.2-20.32-6.57,4.06-4.51,21.25-3.42,35.15-3l16.3.52h0l3.89,2.25-5.91,8.5699c-.19.26-.26.45-.18.53l2.68,3.34.44.55.45.56h0c.09.13.46,0,1-.3l12-6.92,77.61,44.95-2.08,1.2,6.66,17.15.48-.05h0Z"/>
    <path d="M373.7016,529.3155l14.1384,36.4445-39.15-22.67,24.2933-14.0274c.2663-.1538.6071-.0338.7183.2529Z"/>
    <path d="M358.61,510.83c-.2553.1093-.5197.1963-.79.26h0c.1459-.4629.3264-.9142.54-1.35.78-1.63,2.18-3.87,3.61-6.2h0l.16-.13,1.14-1,1.65,4.26-.1.09c-.69.58-1.39,1.13-2.11,1.65s-1.65,1.12-2.41,1.56c-.546.3196-1.1103.6067-1.69.86h0Z"/>
    <path d="M348.62,503.17l-5.57,7.92c-5.88-.15-9.09-1.76-8-3.74,1.95-3.35,7.43-3.75,13.57-4.18h0Z"/>
    <path d="M333.35,524.89l-4.72,6.71c-1.9547-.6665-4.0954-.5187-5.94.41l-4.18,2.41c-17.57-1.76-22.45-4.2-20.32-6.57,4.06-4.5099,21.27-3.85,35.16-2.96h0Z"/>
  </g>
</svg>