<?xml version="1.0" encoding="UTF-8"?>
<svg id="Layer_1" xmlns="http://www.w3.org/2000/svg" version="1.1" viewBox="0 0 1000 1000">
  <!-- Generator: Adobe Illustrator 29.1.0, SVG Export Plug-In . SVG Version: 2.1.0 Build 142)  -->
  <defs>
    <style>
      .st0 {
        stroke: #fff;
        stroke-miterlimit: 10;
        stroke-width: .5px;
      }
    </style>
  </defs>
  <g id="Layer_2">
    <path class="st0" d="M519.9,609.3v.3c.1,0-97.7,48.5-97.7,48.5-1,.5-2.1.8-3.2.9-1.4.1-2.9.5-4.2,1-3.8,1.5-5.9,3.8-7.6,4-1.9.3-3.4-1.2-6.5-.8-4,.6-6.1,3.9-7.8,3.7s-3.3-2-6.4-2c-3.7,0-5.8,3.1-8,3.1s-3.1-2-6.4-2.2c-4.1-.3-6.6,2.4-8.6,2-1.8-.4-2-2.5-4.4-3.4-4.1-1.5-8.6,2.3-10.3,1.3-1.9-1.1-1-3.1-2.9-4.3-3.2-2-8.3,1.6-10.4.5-1.2-.6-.5-3.6-2.4-5-2.6-2-7.4.5-8.6-.4s.3-4.4-1.3-5.9c-2-1.9-7,.3-8-.5s1.1-4.2-.3-6-5.5-.5-6.1-1.7c-.8-1.5,2.4-3.9,1.6-5.7s-4.9-1-5.2-2.3,3.8-2.6,3.6-4.6-4.5-2.9-4.3-4.3,4.9-1.3,5.4-3.1-4-4.2-3.5-5.5c.6-1.7,5.2-.9,6.1-3.1.7-1.7-1.8-3.3-.9-4.8s6-.4,7.4-3.1c.8-1.6-.3-3.6,1-4.8.8-.7,3.2-.7,6.1-1.7,3.2-1.1,3.3-3.1,5.5-4.2,16.6-7.9,32.2-15.4,84.8-40.2v15.8c0,.2.2.4.5.6h.2v7.9c0,.3.3.5.7.6,1.1.2,2.1.6,3,1.2v6.4c0,.3.4.6,1,.7,2.1,0,4.1.9,5.7,2.2v4.7c0,.4.5.7,1.1.7h0c3.6-.1,6.9,1.2,8,3.2v2.7c0,.4.5.7,1.1.7.1,0,.2,0,.3,0,.5,0,1.1-.1,1.6-.2,4.3-.2,8,1.7,8.4,4.2v.7c0,.3.5.7,1.1.7.2,0,.4,0,.5,0,.8-.2,1.7-.4,2.5-.5,4.3-.3,8.2,1.4,8.8,3.8,0,.4.7.6,1.3.6.2,0,.4,0,.6-.2.7-.3,1.5-.6,2.3-.8,4-.9,8.5.3,10,2.7.4.4.9.5,1.5.4.2,0,.3-.1.5-.2.6-.4,1.3-.8,2-1,3.6-1.3,8.5-.7,10.8,1.4.5.3,1,.4,1.6.2.2,0,.3-.1.4-.3.5-.5,1-.9,1.6-1.2,3.5-1.7,7.6-1.7,11,0,.5.3,1.1.3,1.6,0,.1,0,.2-.2.3-.3.3-.5.6-1,1.1-1.4,2.4-2.1,7.2-2.6,10.8-1.2.5.2,1,.2,1.5,0Z"/>
  </g>
  <g id="Layer_3">
    <path class="st0" d="M541.6,598.9h0l-9,4.5v-.9c.8-2.4,4.8-4,9-3.6Z"/>
    <path class="st0" d="M530,604.7l-10,4.9v-.3c-.1,0,0-.1,0-.1.1,0,.2-.2.2-.3,0-.5.2-1.1.6-1.5,1.5-2.1,5.4-3.2,9.2-2.7h0Z"/>
    <path d="M487.4,436.4c-27.3,0-49.6,12.9-49.6,28.8s22.2,28.8,49.6,28.8,49.6-12.9,49.6-28.8-22.2-28.8-49.6-28.8ZM535.9,465.2c0,15.3-21.8,27.8-48.6,27.8s-48.6-12.5-48.6-27.8,21.8-27.8,48.6-27.8,48.6,12.5,48.6,27.8ZM558.6,467.3c0-.2,0-.4-.2-.6-.1-.1-.3-.3-.5-.4v-7.5c0-.3-.2-.6-.4-.8-.2-.1-.4-.2-.7-.3-.8-.2-1.5-.4-2.2-.7-.2,0-.3-.2-.5-.2v-6.1c0-.4-.3-.7-.7-.9-.2-.1-.5-.2-.7-.2h0c-.9,0-1.7-.2-2.4-.5-1.2-.4-2.1-.9-2.8-1.5v-4.4h0c0,0,0-.2,0-.2,0-.4-.4-.7-.9-.8-.2,0-.5-.1-.8,0-.9,0-1.7,0-2.5-.2-2.3-.4-4.2-1.4-4.9-2.7v-2.6h0c0-.1,0-.2,0-.2,0,0,0-.1,0-.2-.2-.4-.6-.6-1.1-.7-.3,0-.5,0-.8,0h0c-.8.1-1.7.2-2.5.2-2.6,0-5-1-6.1-2.3-.4-.5-.6-.9-.7-1.4v-.6s0,0,0-.1c0-.2,0-.3-.2-.5-.3-.3-.7-.5-1.3-.5-.3,0-.5,0-.8,0h0c-.8.2-1.6.4-2.4.5-4,.3-7.8-1.2-8.3-3.4h0c-.1-.6-.9-1-1.8-.9-.3,0-.5,0-.7.2-.7.3-1.4.6-2.2.7-3.8.8-8.1-.3-9.5-2.5,0,0,0-.1-.1-.1-.4-.4-1.1-.6-1.8-.5-.3,0-.5.2-.7.3h0c-.5.4-1.1.7-1.9,1-3.5,1.3-8.1.7-10.2-1.3h0c-.5-.4-1.3-.5-2-.3-.3,0-.5.2-.6.4h0c-.4.4-.8.8-1.4,1.1-2.9,1.6-7.7,1.6-10.5,0h0c-.6-.4-1.5-.4-2.1,0-.2.1-.4.3-.5.5-.2.4-.5.8-1,1.2-2.3,2-6.9,2.5-10.3,1.1-.7-.3-1.6-.2-2.1.3-.2.1-.3.3-.3.5,0,0,0,.1,0,.2h0c0,.5-.2.9-.5,1.3-1.5,2.1-5.8,3.2-9.6,2.3-.8-.2-1.6,0-2,.6,0,.1-.1.3-.2.4,0,0,0,0,0,0v1.6c-.7,2.1-4.6,3.6-8.5,3.2-.9,0-1.6.3-1.8.9h0c0,.1,0,.2,0,.3v3.5c0,0,0,.1-.1.2-1.2,1.3-3.6,2.2-6.2,2.2h0c-.5,0-1,.2-1.3.5-.1.1-.2.3-.2.4,0,0,0,.1,0,.2v5.3c-1,.7-2.4,1.2-4,1.5-.5,0-1,.3-1.2.7,0,0,0,.2,0,.2,0,0,0,0,0,0,0,0,0,0,0,.1v6.8c-.4.2-.8.3-1.3.5h0c-.5.1-.8.4-1,.8,0,0,0,.2,0,.2v107.8c0,.4.3.8.8,1v7.4c0,0,0,.1,0,.2,0,.4.5.7,1,.9h0s0,0,0,0h0c1,.2,1.9.5,2.6,1v6.1c0,0,0,.1,0,.2.1.5.6.9,1.4.9h0c2.2.2,4.1.9,5.2,1.9v4.4c0,.6.7,1.1,1.7,1.1h0c3.3-.1,6.5,1.1,7.5,2.8v2.6c0,.6.7,1.1,1.6,1.1s.2,0,.3,0h0c.5,0,1-.1,1.5-.2,4-.2,7.5,1.5,7.8,3.7v.6c0,.6.7,1.1,1.6,1.1s.4,0,.5,0h0s0,0,.1,0h0c.8-.2,1.6-.4,2.4-.5,4-.3,7.8,1.2,8.3,3.4,0,0,0,0,0,0,0,0,0,0,0,0,0,0,0,0,0,0,.2.5.8.8,1.5.8h.2c.3,0,.5,0,.7-.2h0c.7-.3,1.4-.6,2.2-.7,3.8-.8,8.1.3,9.5,2.5h0s0,0,0,0c0,0,0,0,0,0,.3.3.8.6,1.4.6s.3,0,.5,0c.2,0,.4-.1.6-.2h0s0,0,0,0h0c.5-.4,1.1-.7,1.9-1,3.5-1.3,8.1-.7,10.2,1.3h0c.3.3.8.4,1.3.4s.5,0,.8-.1c.2,0,.4-.2.6-.4,0,0,0,0,0,0,0,0,0,0,0,0h0c.4-.4.8-.8,1.4-1.1,2.9-1.6,7.7-1.6,10.5,0h0s0,0,0,0c0,0,0,0,0,0,.3.1.6.2,1,.2s.7,0,1-.2c.2-.1.4-.3.5-.5h0c.2-.4.5-.8,1-1.2,2.3-2,6.9-2.5,10.3-1.1.3,0,.5.1.8.1.5,0,1-.1,1.3-.4.2-.1.3-.3.3-.5,0,0,0,0,0,0,0,0,0,0,0,0,0,0,0,0,0,0,0-.4.2-.9.5-1.3,1.5-2.1,5.8-3.2,9.6-2.3,0,0,0,0,.1,0h0c.1,0,.3,0,.4,0,.6,0,1.2-.2,1.5-.6.1-.2.2-.3.2-.5v-1.6c.8-2.2,4.5-3.6,8.5-3.2,0,0,.2,0,.2,0,.8,0,1.4-.4,1.6-.9,0,0,0-.2,0-.2v-3.5c1.1-1.4,3.6-2.3,6.4-2.4.9,0,1.6-.5,1.6-1.1v-5.3c1-.7,2.4-1.2,4-1.5h0c.7,0,1.1-.5,1.2-.9,0,0,0-.1,0-.2v-6.8c.4-.2.8-.3,1.3-.5h0s0,0,0,0c0,0,0,0,0,0,.6-.2.9-.6.9-1v-107.8h0c0,0,0,0,0,0h0ZM420.6,479.6s0,0,0,0v100.6c-.6-.3-1.3-.5-2-.7v-106.8c.6.2,1.1.3,1.6.6,1.5.7,2.4,1.8,2.5,2.8,0,.9-.5,1.9-1.6,2.6-.3.2-.4.5-.5.8h0ZM427.5,486.5h0c-.2.2-.3.4-.3.6v102.1c-1.2-.8-2.8-1.4-4.7-1.6v-106.8c.7,0,1.3.2,1.9.4,2,.6,3.4,1.7,3.7,2.9.2.8,0,1.6-.7,2.3h0ZM428.4,595c-.1,0-.2,0-.2-.1v-106.7c0,0,.1,0,.2,0v106.8h0ZM436.5,493.3c0,0,0,.1,0,.2,0,0,0,.1,0,.2h0v103.7c-1.5-1.4-4.1-2.3-7-2.3v-106.8c.7,0,1.4,0,2.1.1,2.4.4,4.3,1.5,5,2.8.4.7.4,1.4,0,2.1h0s0,0,0,0ZM437.9,601.6c-.2,0-.4-.1-.5-.2v-106.7c0,0,.2,0,.3,0,0,0,.1,0,.2,0v106.8h0s0,0,0,0ZM447.7,499v105.1c-1.5-1.7-4.5-2.7-7.9-2.6-.4,0-.7,0-1.1.1v-106.8c.7,0,1.4-.1,2.1-.1,2.6,0,5,1,6.1,2.3.5.6.7,1.3.7,1.9h0c0,0,0,0,0,0h0ZM449.4,607h0c-.4,0-.6-.1-.6-.2v-106.7c.2,0,.4,0,.5,0h.1v106.8h0ZM460.8,608.9c-1.6-1.7-4.8-2.8-8.4-2.5-.7,0-1.4.2-2,.3v-106.8c.7-.2,1.4-.3,2.1-.4,3.9-.3,7.7,1.2,8.3,3.4v105.9h0ZM462.6,610.7s0,0-.1,0c-.4,0-.7-.1-.7-.2v-106.7c.2,0,.4,0,.6,0h.2v106.8h0s0,0,0,0ZM474.9,611.7c-2.1-1.8-6-2.6-9.6-1.9-.6.1-1.2.3-1.7.5v-106.7c.6-.3,1.2-.5,1.9-.6,3.8-.8,8,.3,9.4,2.4v106.4h0ZM476.8,612.9s0,0-.1,0c-.4,0-.7,0-.9-.1v-106.8c.2,0,.4,0,.6,0s.3,0,.4,0v106.8h0s0,0,0,0ZM489.6,612.6c-2.6-1.7-7-2.1-10.4-.9-.5.2-.9.4-1.3.6v-106.6c.5-.3,1-.6,1.7-.8,3.4-1.2,7.9-.7,10.1,1.2v106.6ZM491.5,613.3s0,0,0,0c-.3.1-.7,0-.9,0v-106.8c.2,0,.3,0,.5,0s.4,0,.5,0v106.8h0ZM504.1,611.6c-3.1-1.5-7.8-1.4-10.8.3-.3.2-.6.4-.8.6v-106.5c.3-.4.8-.7,1.3-1,2.9-1.6,7.4-1.6,10.3,0v106.7h0ZM506,611.9s0,0,0,0c-.2.1-.6.2-.9,0v-106.8c.1,0,.2,0,.3,0,.2,0,.4,0,.6,0v106.7h0s0,0,0,0ZM517.9,608.8c-3.6-1.1-8.3-.5-10.6,1.5,0,0-.2.2-.3.3v-106.1c.2-.4.5-.8.9-1.2,2.2-1.9,6.6-2.4,10-1.2v106.7h0s0,0,0,0ZM519.7,608.8s0,0,0,0c-.1.1-.5.2-.8.2v-106.8s0,0,.1,0c.2,0,.4,0,.6,0v106.7ZM530.3,604.3c-3.8-.7-7.9.3-9.7,2.4v-105.6c0-.4.2-.8.5-1.3,1.4-2.1,5.5-3.1,9.2-2.4v106.8h0,0ZM531.9,604.3c0,0-.3.2-.6.2v-106.8c.2,0,.4,0,.6,0v106.7h0ZM540.9,598.5c-3.3-.2-6.4.8-8,2.4v-104.4s0,0,0-.1c0,0,0,0,0-.1-.1-.4-.1-.8,0-1.3.6-2.1,4.3-3.6,8.1-3.3v106.8ZM542.2,598.3s-.2.1-.3.2v-106.8c.1,0,.2,0,.3,0v106.7ZM549.1,591.5c-2.4.1-4.5.9-5.9,2v-102.9s0,0,0,0c0,0,0-.2,0-.3,0,0,0-.1,0-.2-.3-.4-.4-.8-.5-1.3,0-.7.2-1.3.8-1.9,1.1-1.2,3.3-2.1,5.7-2.2v106.8h0s0,0,0,0ZM550.2,591.3s0,0-.1,0v-106.8s0,0,.1,0v106.7ZM554.5,583.7c-1.3.2-2.4.6-3.4,1.2v-101.4s0,0,0-.1c0,0,0,0,0,0,0-.2-.1-.4-.3-.5-.4-.4-.8-.8-1-1.2-.3-.7-.3-1.4.1-2,.7-1.2,2.4-2.2,4.6-2.6v106.8ZM557,575.4c-.2,0-.5.1-.7.2v-100c0,0,0-.1,0-.2,0,0,0,0,0-.1,0-.2-.3-.4-.5-.5-.6-.3-1.1-.7-1.4-1.1-.6-.7-.8-1.5-.6-2.3.3-1.1,1.5-2.1,3.3-2.7v106.8h0ZM557.4,467.4c-2.4.7-4.1,2-4.6,3.6-.3,1.1,0,2.2.8,3.2.4.5,1,1,1.7,1.4,0,0,0,0,0,0,0,0-.2.1-.4.1-2.8.4-5,1.6-5.9,3.2-.5.9-.6,1.9-.2,2.9.2.6.7,1.1,1.2,1.6,0,0-.3.2-.6.2-2.9,0-5.5,1-6.9,2.5-.7.8-1.1,1.7-1,2.6,0,.6.2,1.2.6,1.7,0,0-.4.2-.8.2-4.5-.5-8.7,1.3-9.5,4-.2.6-.2,1.2,0,1.8,0,.1-.5.3-.9.2-4.2-1-8.9.2-10.6,2.7-.4.5-.6,1-.6,1.6,0,0,0,0,0,.2-.2.2-.7.2-1.1,0-3.7-1.4-8.8-.8-11.3,1.3-.6.5-1,1-1.2,1.6h0s0,0,0,0c-.3.2-.8.2-1.1,0h0s0,0,0,0h0c-3.1-1.8-8.2-1.9-11.4,0-.7.4-1.2.8-1.7,1.3h0s0,0,0,0h0s0,0-.2.1c-.4.1-.9,0-1.1-.1h0c-2.4-2.2-7.4-2.9-11.2-1.5-.8.3-1.5.7-2.1,1.1h0s-.1,0-.3.1c-.5,0-.9,0-.9-.2h0c-1.6-2.5-6.2-3.8-10.5-2.9-.9.2-1.7.5-2.4.8h0c-.1,0-.2,0-.4,0-.4,0-.7-.1-.8-.2,0,0,0,0,0,0h0c-.7-2.7-4.8-4.5-9.3-4.1-.9,0-1.8.2-2.6.5h0c-.1,0-.3,0-.4,0-.4,0-.6-.1-.6-.1h0c0-.9-.2-1.9-.9-2.7-1.3-1.6-3.9-2.5-6.8-2.7-.9,0-1.9,0-2.7.2h0c-.1,0-.3,0-.5,0-.3,0-.4-.1-.4-.1h0c.5-1,.5-2,0-2.9-.8-1.6-3-2.9-5.7-3.3-.9-.1-1.8-.2-2.7-.2h0c-.2,0-.3,0-.4,0-.1,0-.2,0-.2,0h0c.9-1,1.2-2.1.9-3.2-.4-1.6-2-2.9-4.4-3.6-.8-.3-1.7-.4-2.6-.5h0c-.1,0-.3,0-.4,0,0,0-.1,0,0,0,1.4-1,2.1-2.2,2-3.5-.1-1.4-1.2-2.8-3.1-3.7-.7-.4-1.5-.6-2.4-.8h0c-.2,0-.3,0-.4,0h0s0,0,.1-.1h0c1.9-.9,3.1-2.2,3.2-3.7.1-1.3-.5-2.5-1.8-3.5-.6-.4-1.3-.8-2.1-1.1h0c-.1,0-.2,0-.2,0,0,0,.1,0,.3-.1h0c.8-.2,1.4-.5,2-.8,0,0,0,0,0,0,1.3-.7,2.2-1.7,2.5-2.7.3-1.1,0-2.2-.8-3.2-.4-.5-1-1-1.7-1.4,0,0,0,0,0,0,0,0,.2-.1.4-.1,1.9-.3,3.4-.9,4.6-1.8,0,0,0,0,0,0,0,0,0,0,.1,0,0,0,0,0,0,0,.4-.4.8-.8,1-1.2.5-.9.6-1.9.2-2.9-.2-.6-.6-1.1-1.2-1.5h0c0,0,.3-.2.6-.2h0c2.9,0,5.5-1,6.9-2.5,0,0,.1-.2.2-.3,0,0,0,0,0-.1,0,0,0,0,0,0,.5-.7.7-1.4.6-2.1,0-.6-.2-1.2-.6-1.7,0,0,.4-.2.8-.2.5,0,1,0,1.4,0,3.9,0,7.3-1.6,8.1-4,0,0,0,0,0,0,0,0,0,0,0,0h0s0,0,0,0c.2-.6.2-1.2,0-1.8,0-.1.5-.3.9-.2,1,.2,2,.3,3,.3,3.2,0,6.3-1.1,7.6-3,.4-.5.5-1,.6-1.6,0,0,0,0,0-.2.2-.2.7-.2,1.1,0,1.4.5,2.9.8,4.5.8,2.6,0,5.2-.7,6.8-2.1.6-.5,1-1,1.2-1.6h0s0,0,0,0c.3-.2.8-.2,1.1,0h0c1.6,1,3.7,1.4,5.8,1.4s4.1-.4,5.7-1.3c.7-.4,1.3-.8,1.7-1.4h0s0,0,.2-.1c.4-.1.9,0,1.1.1h0c1.6,1.4,4.2,2.2,7,2.2s3-.2,4.3-.7c.8-.3,1.5-.7,2.1-1.1h0s.1,0,.3-.1c.4,0,.9,0,.9.2,1.3,2,4.3,3.2,7.7,3.2s1.9,0,2.8-.3c.9-.2,1.7-.5,2.4-.8.1,0,.2,0,.4,0,.4,0,.7.1.8.2h0c.6,2.5,4.1,4.2,8.1,4.2s.8,0,1.2,0c.9,0,1.8-.2,2.6-.5h0c.1,0,.3,0,.4,0,.4,0,.6.2.6.1h0v.6c0,.7.4,1.4.9,2,1.3,1.6,3.9,2.6,6.8,2.7.2,0,.4,0,.5,0,.7,0,1.5,0,2.2-.2h0c.1,0,.3,0,.5,0,.3,0,.4.1.4.1h0s0,0,0,0c-.4.9-.4,1.9,0,2.8,0,0,0,0,0,0,0,0,0,0,0,0,.8,1.6,3,2.9,5.7,3.3.7.1,1.5.2,2.2.2s.4,0,.5,0c.2,0,.3,0,.4,0,.1,0,.2,0,.2,0h0c-.9,1-1.2,2.1-.9,3.2.2.6.5,1.2,1.1,1.7,0,0,0,0,0,0,.8.8,1.9,1.4,3.3,1.8.8.3,1.7.4,2.6.5h0c.1,0,.3,0,.4,0,0,0,.1,0,0,0h0c-1.4,1-2.1,2.2-2,3.5,0,1.1.8,2.2,2.1,3.1,0,0,0,0,0,0,.3.2.6.4,1,.6.7.4,1.5.6,2.4.8.2,0,.3,0,.4,0,0,0,0,0-.1.1h0c-1.9.9-3.1,2.2-3.2,3.7-.1,1.3.5,2.5,1.8,3.5.4.3.8.5,1.3.8,0,0,.1,0,.2,0,0,0,.2,0,.3.1,0,0,0,0,.1,0,0,0,.1,0,.2,0h0c.1,0,.2,0,.2,0,0,0-.1,0-.3.1h0s0,0,0,0ZM417.6,470.5v-6.1c.4.2.9.4,1.2.7,1,.8,1.5,1.7,1.5,2.6-.1,1.1-1.1,2.1-2.6,2.9h0s0,0,0,0ZM419.7,460.8v-4.6c.3.2.5.4.7.6.6.7.8,1.5.6,2.3-.2.6-.6,1.2-1.3,1.7h0ZM424.8,451v-2.3c0,0,.1.2.1.2.3.7.3,1.4-.1,2,0,0,0,0,0,0h0ZM552.9,452.3v3.6c-.5-.5-.8-1.1-.8-1.7,0-.7.2-1.4.8-2ZM556.5,460.2v5.4c-.2-.1-.4-.2-.5-.3-1-.8-1.5-1.7-1.5-2.6,0-.9.8-1.8,2-2.5h0Z"/>
  </g>
</svg>