<?xml version="1.0" encoding="UTF-8"?>
<svg xmlns="http://www.w3.org/2000/svg" viewBox="0 0 1000 1000">
  <g id="Layer_2" data-name="Layer 2">
    <path d="M621.386,332.4136c-.2786-.3766-.6401-.6929-1.0318-.9188l-.1581-.0904c-1.0619-.61-2.4476-.4895-3.8936.3464-1.3857.7983-2.6811,2.1689-3.6526,3.8484-.9715,1.687-1.5062,3.4944-1.5062,5.091s.5874,2.9371,1.6493,3.5471l.1581.0904c.4217.241.9037.3916,1.4083.4443.1205.0151.241.0151.3615.0151.4067,0,.8209-.0602,1.2502-.1883.5874-.1732,1.1824-.4594,1.7698-.851.5799-.3916,1.1372-.8811,1.6644-1.4535.5046-.5573.964-1.1824,1.3631-1.8526s.723-1.3707.9715-2.0786c.2561-.7305.4217-1.4535.4971-2.1539.0753-.738.0527-1.4309-.0828-2.0635-.1431-.6703-.3916-1.2502-.7531-1.7321h-.0151ZM613.3202,343.6725c-.8209-.4745-1.2728-1.4987-1.2728-2.8919,0-1.4686.4971-3.1404,1.4083-4.7144,1.8376-3.1781,4.7671-4.9404,6.5219-3.9237.2561.1506.4895.3615.6929.595-.0452-.0301-.0828-.0602-.128-.0904-.9414-.5422-2.1614-.4368-3.4417.3012-1.2125.7004-2.3497,1.8978-3.2007,3.3664-.851,1.4761-1.3179,3.0576-1.3179,4.4584,0,1.4761.5196,2.5907,1.4535,3.1329.0376.0226.0828.0377.1205.0602-.3012-.0602-.5874-.1506-.8435-.2937h.0075ZM620.0304,339.8618c-.7832,1.3631-1.8225,2.4627-2.9221,3.0953-1.0393.595-1.9882.7079-2.6886.3012-.6929-.3991-1.0769-1.2803-1.0769-2.4777,0-1.2728.4293-2.7187,1.22-4.0818s1.8225-2.4627,2.9221-3.0953c.6251-.3615,1.22-.5422,1.7472-.5422.3464,0,.6627.0753.9414.241,1.4836.8585,1.4158,3.8559-.1356,6.5595h-.0075ZM702.4954,362.5679l-8.5779-12.2003c-.3841-.5422-.8435-.964-1.3707-1.2577l-4.8048-2.7714c-1.574-.9113-3.63-.7154-5.8064.5347l-13.8948,8.0206v-46.6248c0-6.4541-2.1991-11.274-6.183-13.5785h0l-4.8349-2.794c-3.9915-2.3045-9.2632-1.7924-14.8512,1.4309l-307.0938,177.3037c-11.3945,6.5746-20.6577,22.6308-20.6577,35.7876v193.4954c0,7.3051,5.1437,16.2219,11.4698,19.8669l17.8109,10.2874c1.8376,1.0619,3.6149,1.5966,5.2266,1.5966,1.1372,0,2.1915-.2636,3.1254-.8058h0l348.0327-200.9361c2.2518-1.3029,3.4944-4.014,3.4944-7.629v-155.6669c0-1.6342-.3766-3.035-1.0996-4.0517l.0151-.0075ZM687.3731,346.9862l2.7564,1.5891c-.9866.0527-2.056.3766-3.1555.979l-4.0593-2.3422c1.6869-.8134,3.2835-.9037,4.4584-.2259ZM682.1315,347.6338l4.0818,2.3572-69.105,39.8995-4.0818-2.3572s69.105-39.8995,69.105-39.8995ZM350.7198,585.8261c.0979-12.8028,9.0599-28.3168,20.0929-34.8085l4.0894,2.3648c-10.9577,6.6575-19.8067,21.9907-20.1004,34.8085l-4.0894-2.3648h.0075ZM354.8016,589.0494v133.5256l-4.0818-2.3572v-133.5256l4.0818,2.3572h0ZM371.5658,550.5807l220.0198-127.0263,4.0818,2.3572-220.0123,127.0263-4.0818-2.3572h-.0075ZM592.301,423.095c2.4928-1.6342,4.7747-4.5036,6.1077-7.7118l4.1797,2.4099c-1.333,3.2534-3.6601,6.1453-6.183,7.6741l-4.1044-2.3723h0ZM598.7024,414.6828l7.1093-18.3306,4.1797,2.4099-7.1093,18.3306-4.1797-2.4099ZM606.0979,395.6443c1.333-3.2534,3.6601-6.1453,6.183-7.6741l4.1044,2.3723c-2.4928,1.6342-4.7747,4.5036-6.1077,7.7118l-4.1797-2.4175v.0075ZM667.2953,308.269v47.0616l-55.2177,31.879c-2.8016,1.6192-5.4148,4.8651-6.8081,8.4574l-7.388,19.0385c-1.3405,3.4492-3.8258,6.5445-6.4842,8.0808l-220.7729,127.4631c-11.3945,6.5746-20.6577,22.6308-20.6577,35.7876v98.7171l-29.9585,17.2988v-192.8402c0-12.9158,9.0975-28.6783,20.2811-35.1324l307.0939-177.3036h0c5.3471-3.0877,10.3552-3.5923,14.0981-1.4309,3.7429,2.1614,5.8064,6.7554,5.8064,12.9308l.0075-.0075ZM343.8967,723.7197l-17.0578-9.8506,23.1354-13.3525v19.7012l-6.07,3.502h-.0075ZM349.9366,721.0989c-.128,1.5062-.7155,2.6283-1.6719,3.1781-.9564.5573-2.2217.497-3.5923-.1431l5.2642-3.035h0ZM326.0932,713.4323c-3.3061-2.0183-5.9797-6.6424-6.07-10.5134l29.9435-17.2913v14.0228l-23.8734,13.7818h0ZM656.6539,292.5442l1.4912.8585c-3.2609-.4895-7.0189.3841-10.9351,2.6057l-4.0743-2.3497c5.1286-2.794,9.9109-3.2007,13.5183-1.1146h0ZM642.3675,294.088l4.0818,2.3572-306.3408,176.8669-4.0818-2.3572,306.3408-176.8669ZM335.2736,471.3917l4.0894,2.3648c-10.9577,6.6575-19.8067,21.9907-20.0929,34.8085l-4.0894-2.3648c.0979-12.8028,9.0599-28.3168,20.0929-34.8085h0ZM351.6838,730.204c-2.0108,1.1598-4.7069.8811-7.5988-.7908l-17.8109-10.2874c-6.1152-3.5321-11.0932-12.1551-11.0932-19.2193v-192.8402l4.0818,2.3572v193.277c0,4.2249,2.9748,9.3837,6.6349,11.4924h0l17.8109,10.2799h0c1.0769.6176,2.1162.9338,3.0651.9338.6778,0,1.3104-.1582,1.8677-.482,1.205-.6928,1.9129-2.056,2.0484-3.8634l4.1044,2.3723c-.0452,3.2308-1.1447,5.6332-3.1103,6.7704h0ZM699.724,529.2603l-345.5324,199.4977c.8585-1.3707,1.3179-3.1781,1.3481-5.3094l347.2645-200.4918c-.1431,2.9597-1.2426,5.2491-3.0877,6.311l.0076-.0075ZM702.8419,522.0682l-347.2871,200.5069v-133.744c0-12.9158,9.0975-28.6707,20.2811-35.1324h0l220.7729-127.4631c2.8016-1.6192,5.4148-4.8651,6.8081-8.4649l7.388-19.0385c1.3405-3.4492,3.8258-6.5445,6.4842-8.0808l69.8581-40.3363c1.9279-1.1146,3.6902-1.2953,4.9931-.5724l.0602.0301c.4217.2485.7908.5874,1.0995,1.0242l8.5779,12.2003c.6251.8962.964,2.1463.964,3.6224v155.4485ZM375.7154,474.2535c-.2787-.3766-.6401-.6929-1.0318-.9188h0l-.1582-.0904h0c-1.0619-.61-2.4401-.4895-3.8936.3464-1.3857.7983-2.6811,2.1689-3.6526,3.8484-.9715,1.687-1.5062,3.4944-1.5062,5.091s.5874,2.9371,1.6418,3.5471l.1582.0904h0c.4217.241.9037.3916,1.4083.4443.1205.0151.241.0151.3615.0151.4067,0,.8209-.0602,1.2502-.1883.5874-.1732,1.1824-.4594,1.7698-.851.5799-.3916,1.1372-.8811,1.6644-1.4535.5046-.5573.964-1.1824,1.3631-1.8526s.723-1.3707.9715-2.0786c.2561-.7305.4217-1.4535.4971-2.1539.0753-.738.0527-1.4384-.0828-2.0635-.1431-.6703-.3916-1.2502-.7531-1.7321h-.0075ZM367.6496,485.5199h0c-1.7246-1.0016-1.6644-4.4885.1431-7.6064,1.8376-3.1781,4.7596-4.9404,6.5219-3.9237.2561.1506.4895.3615.6929.5949-.0452-.0301-.0828-.0602-.128-.0904-.9414-.5422-2.1614-.4368-3.4417.3012-1.2125.7004-2.3497,1.8978-3.2007,3.3664-1.8225,3.1555-1.7623,6.4918.1356,7.5838.0377.0226.0828.0376.1205.0602-.3012-.0602-.5874-.1506-.8435-.2937v.0076ZM374.3598,481.7017c-.7832,1.3631-1.8225,2.4627-2.922,3.0953-1.0393.595-1.9882.7079-2.6886.3012-1.4836-.8586-1.4158-3.8559.1356-6.5596.7832-1.3631,1.8225-2.4627,2.922-3.0953.6251-.3615,1.22-.5422,1.7472-.5422.3464,0,.6627.0753.9414.241.6929.3991,1.0769,1.2803,1.0769,2.4777,0,1.2728-.4293,2.7187-1.22,4.0818h.0075ZM539.4932,379.6935c-.2786-.3766-.6326-.6929-1.0318-.9188h0l-.1581-.0904h0c-1.0619-.61-2.4401-.4895-3.8936.3464-1.3857.7983-2.6811,2.1689-3.6526,3.8484-2.0786,3.5998-2.0183,7.3955.1356,8.6381h0l.1581.0904h0c.4142.241.9037.3916,1.4008.4443.1205.0151.241.0151.3615.0151.4067,0,.8209-.0602,1.2502-.1883.5874-.1732,1.1824-.4594,1.7698-.851.5799-.3916,1.1372-.8811,1.6644-1.4535.5046-.5573.964-1.1824,1.3631-1.8526s.723-1.3707.9715-2.0786c.2561-.7305.4217-1.4535.4971-2.1539.0753-.738.0527-1.4309-.0828-2.0635-.1356-.6627-.3916-1.2502-.7531-1.7321h0ZM531.435,390.96h0c-.8209-.4745-1.2728-1.4987-1.2728-2.8919,0-1.4686.4971-3.1404,1.4083-4.7144.9113-1.574,2.1087-2.8392,3.3814-3.5773,1.205-.7004,2.3196-.8209,3.1405-.3464h0c.2561.1506.4895.3615.6929.595-.0452-.0301-.0828-.0602-.128-.0904-.9414-.5422-2.1614-.4368-3.4417.3012-1.2125.7004-2.3497,1.8978-3.2007,3.3664-1.8225,3.1555-1.7623,6.4918.1356,7.5838.0376.0226.0828.0377.1205.0602-.3012-.0602-.5874-.1431-.8435-.2937l.0075.0075ZM538.1377,387.1418c-.7832,1.3631-1.8225,2.4627-2.9221,3.0953-1.0393.5949-1.9882.7079-2.6886.3012-1.4836-.8585-1.4158-3.8559.1356-6.5595.7832-1.3631,1.8225-2.4627,2.9221-3.0953.6251-.3615,1.22-.5422,1.7472-.5422.3464,0,.6627.0753.9414.241.6929.3991,1.0769,1.2803,1.0769,2.4777,0,1.2728-.4293,2.7187-1.22,4.0818h.0075ZM457.6081,426.9735c-.2862-.3841-.6326-.6929-1.0318-.9188l-.1582-.0904c-1.0619-.61-2.4476-.4895-3.8936.3464-1.3857.7983-2.6811,2.1689-3.6526,3.8484-.9715,1.687-1.5062,3.4944-1.5062,5.091s.5874,2.9371,1.6418,3.5471l.1582.0904c.4217.241.9037.3916,1.4083.4443.1205.0151.241.0151.3615.0151.4067,0,.8209-.0602,1.2502-.1883.5874-.1732,1.1824-.4594,1.7698-.851.5799-.3916,1.1372-.8811,1.6644-1.4535.5046-.5573.964-1.1824,1.3631-1.8526s.723-1.3707.9715-2.0786c.2561-.7305.4217-1.4535.4971-2.1539.0753-.738.0527-1.4309-.0828-2.0635-.1431-.6703-.3916-1.2502-.7531-1.7321h-.0075ZM449.5423,438.24c-.8209-.4745-1.2652-1.4987-1.2652-2.8919,0-1.4686.4971-3.1404,1.4083-4.7144.9037-1.574,2.1087-2.8392,3.3814-3.5773,1.205-.6929,2.3196-.8209,3.1404-.3464.2636.1506.4895.3615.6929.5949-.0452-.0301-.0828-.0602-.128-.0904-.9414-.5422-2.1614-.4368-3.4417.3012-1.2125.7004-2.3497,1.8978-3.2007,3.3664-.851,1.4761-1.3179,3.0576-1.3179,4.4584,0,1.4761.5196,2.5907,1.4535,3.1329.0377.0226.0828.0377.1205.0602-.3012-.0602-.5874-.1506-.8435-.2937ZM456.245,434.4217c-.7832,1.3631-1.8225,2.4627-2.9221,3.0953-1.0393.5949-1.9882.7079-2.6886.3012-.6929-.3991-1.0769-1.2803-1.0769-2.4777,0-1.2728.4293-2.7187,1.22-4.0818.7832-1.3631,1.8225-2.4627,2.9221-3.0953.6251-.3615,1.22-.5422,1.7472-.5422.3464,0,.6627.0753.9414.241,1.4836.8585,1.4158,3.8559-.1356,6.5596h-.0075Z"/>
  </g>
  <g id="Layer_3" data-name="Layer 3">
    <path d="M351.89,730.67l-.19.11c-2,1.19-4.87,1-8-.79l-4.35-2.51-.26.16-.25-.44-.25.44-13-7.51c-6.38-3.68-11.56-12.66-11.56-20v-95.8699h1v95.85c0,7,5,15.63,11.06,19.15l12.76,7.37,3.83-2.23-17.09-9.87c-3.9613-2.5821-6.4537-6.8984-6.71-11.62v-101.14l-4.32,2.49v-98c0-13.08,9.19-29,20.51-35.53l307.63-177.59s-5.89.58-9.06,2.8l-301.85,174.27c-11.33,6.54-20.51,22.44-20.51,35.52v100.42l-9.55,5.51c-9.4886,5.4783-15.3327,15.6035-15.33,26.56v136.16c-.0096,1.3254,1.0571,2.4077,2.3825,2.4174.4311.0031.8551-.11,1.2274-.3273l217.54-125.6,105-60.62c7.41-4.24,7.16-14.2,7.16-14.2l-267.8199,154.6199Z"/>
    <path d="M552.8,435.53l-4.8,12.63,43.87-25.33c3.0586-1.9698,5.3955-4.8788,6.66-8.29l5.4-13.92-42,24.25c-4.179,2.3972-7.4036,6.1622-9.13,10.66Z"/>
    <path d="M319.87,601.46v101.45c.2361,4.3716,2.5429,8.3685,6.21,10.76l-.5.86.5-.86,18.58,10.73-.45.27c3.33,1.62,6-.08,6-4v-134.67c0-.77,0-1.55.1-2.33h-.1l-30.81,17.79h.47Z"/>
  </g>
</svg>