<?xml version="1.0" encoding="UTF-8"?>
<svg xmlns="http://www.w3.org/2000/svg" viewBox="0 0 1000 1000">
  <g id="Layer_2" data-name="Layer 2">
    <path d="M596.5321,281.5108h0l.3364.1979h0c.5739.3365,1.2468.5542,1.9198.6531.2375.0396.475.0396.7125.0396.475,0,.9302-.0594,1.425-.1583.7719-.1781,1.5635-.5146,2.3354-.9896s1.5239-1.0885,2.2364-1.8208c.6729-.6927,1.2666-1.4843,1.801-2.3552.5146-.851.95-1.7416,1.2864-2.652.3364-.95.5739-1.8802.6729-2.8104.1187-1.0094.0594-1.9593-.1187-2.8302-.1979-.9302-.5739-1.7614-1.1083-2.4541-.4156-.5344-.9302-1.0094-1.5239-1.326h0l-.3364-.1979h0c-2.9093-1.6823-7.303.6729-10.0144,5.3634-2.7114,4.6905-2.5531,9.6779.3562,11.3404h.0198ZM606.8434,271.2589c0,1.3062-.475,2.8697-1.2864,4.2947s-1.9396,2.6125-3.0677,3.2656c-.9698.5542-1.8604.6927-2.4541.3365-.5937-.3365-.9302-1.1677-.9302-2.2958,0-1.3062.475-2.8697,1.2864-4.2947s1.9396-2.6125,3.0677-3.2656c.6135-.3562,1.1875-.5344,1.6823-.5344.2969,0,.5542.0594.7719.1979.5937.3365.9302,1.1677.9302,2.2958ZM598.2342,271.3381c2.0781-3.602,5.4228-5.7197,7.303-4.6312.0792.0396.1583.1187.2375.1583-1.0094-.1781-2.1375.0594-3.3051.7323-1.4448.8312-2.7906,2.2562-3.7999,3.9978-1.0094,1.7416-1.5635,3.6218-1.5635,5.2843,0,1.3458.3562,2.4343,1.0291,3.226-.0792-.0396-.1781-.0792-.2573-.1187-1.1281-.6531-1.3062-2.2166-1.3062-3.1072,0-1.7218.5937-3.6812,1.6625-5.5416ZM608.0309,609.8882c-.4156-.5344-.9302-.9896-1.5041-1.326h0l-.3364-.1979h0c-2.9093-1.6823-7.303.6729-10.0144,5.3635-1.2468,2.1572-1.9198,4.4728-1.9198,6.5311,0,2.2364.8115,3.9385,2.2562,4.8093h.0198l.3364.1979h0c.5739.3364,1.2468.5542,1.9198.6531.2375.0198.475.0396.7125.0396.4552,0,.9302-.0594,1.425-.1583.7719-.1781,1.5635-.5146,2.3354-.9896.7917-.475,1.5437-1.0885,2.2364-1.8208.6729-.6927,1.2666-1.4843,1.801-2.3552.5146-.851.95-1.7416,1.2864-2.652.3364-.9302.5739-1.8802.6729-2.8104.1187-1.0093.0792-1.9594-.1187-2.8301-.1979-.9302-.5739-1.7614-1.1083-2.4541h0ZM598.6696,615.1527c-1.0094,1.7416-1.5635,3.6218-1.5635,5.2843,0,1.3458.3562,2.4343,1.0291,3.226-.0792-.0396-.1781-.0594-.2573-.1187h0c-1.1281-.6531-1.2864-2.2364-1.2864-3.1072,0-1.7218.5937-3.6812,1.6625-5.5416,2.0781-3.602,5.4228-5.7197,7.303-4.6312h0c.0792.0396.1583.1187.2375.1583-1.0094-.1781-2.1375.0594-3.3051.7323-1.4448.8312-2.7906,2.2562-3.7999,3.9979h-.0198ZM605.5372,619.1307c-.8312,1.425-1.9396,2.6125-3.0677,3.2656-.9698.5542-1.8604.6729-2.4541.3364h0c-.5937-.3364-.9302-1.1677-.9302-2.2958,0-1.3062.475-2.8697,1.2864-4.2947.8312-1.425,1.9396-2.6125,3.0677-3.2656.6135-.3562,1.1875-.5344,1.6823-.5344.2969,0,.5542.0594.7719.1979.5937.3364.9302,1.1677.9302,2.2958,0,1.3062-.475,2.8697-1.2864,4.2947ZM411.2657,723.4903c-.4156-.5344-.9302-.9896-1.5239-1.326h0l-.3365-.1979h0c-2.9093-1.6823-7.303.6729-9.9946,5.3635-1.2469,2.1572-1.9198,4.4728-1.9198,6.5311,0,2.2562.8114,3.9583,2.276,4.8093h0l.3562.1979h0c.5739.3364,1.2469.5542,1.9198.6531.2375.0396.475.0396.7125.0396.475,0,.9302-.0594,1.4052-.1583.7719-.1781,1.5635-.5146,2.3354-.9896s1.5239-1.0885,2.2364-1.8208c.6729-.6927,1.2864-1.4843,1.801-2.3552.5146-.851.95-1.7416,1.2864-2.652.3365-.95.5739-1.9.6729-2.8104.1187-1.0093.0594-1.9594-.1187-2.8301-.1979-.95-.5739-1.7614-1.1083-2.4541h0ZM401.9044,728.7548c-1.8802,3.2656-2.0187,6.7093-.5344,8.5103-.099-.0396-.1781-.0792-.2771-.1187h0c-1.6823-.9698-1.9198-4.6707.3562-8.6488,2.2958-3.978,5.6207-5.6009,7.303-4.6312h0c.0792.0396.1583.1187.2375.1781-2.3156-.3958-5.2249,1.4448-7.1051,4.7103h.0198ZM408.772,732.7328c-1.7416,3.0083-4.2947,4.3145-5.5218,3.602-1.2271-.7125-1.3656-3.5822.3562-6.5905,1.7416-3.0083,4.2947-4.3145,5.5218-3.602.5937.3364.9302,1.1677.9302,2.2958,0,1.3062-.475,2.8697-1.2864,4.2947ZM618.3421,243.7094l-5.9572-3.4437c-7.4613-4.3145-17.2976-3.3645-27.7078,2.652l-176.3208,101.8065c-21.0975,12.1914-38.2764,41.9378-38.2764,66.3009v319.9661c0,12.0133,4.0968,21.0184,11.5581,25.3131l5.9572,3.4437c3.0874,1.7812,6.5707,2.652,10.3311,2.652,5.3437,0,11.2613-1.7812,17.3768-5.3041l176.3405-101.8065c21.1173-12.1915,38.2764-41.918,38.2764-66.3009v-319.9661c0-12.0133-4.1166-21.0184-11.5581-25.3131h-.0198ZM609.6537,241.1168c-5.6207-.3958-11.9342,1.2666-18.5049,4.9676l-3.9385-2.276c8.3915-4.453,16.2289-5.3832,22.4433-2.6718v-.0198ZM585.1917,244.9167l3.9781,2.2958-174.3614,100.6586-3.9781-2.2958,174.3614-100.6586ZM408.8709,346.743l4.0176,2.3156c-19.9694,12.3894-36.0598,40.2357-36.792,63.728l-4.0176-2.3156c.2573-23.4527,16.6049-51.7938,36.792-63.728ZM372.0591,412.747l3.9781,2.2958v317.6703l-3.9781-2.2958v-317.6703ZM372.1383,732.7526l3.9187,2.2562c.0792,7.5009,1.801,13.7748,4.928,18.4257-5.4228-4.0374-8.5103-11.2613-8.8467-20.7017v.0198ZM627.9409,588.9885c0,23.7496-16.7236,52.724-37.2868,64.579l-176.3405,101.8065c-9.7769,5.6405-18.9007,6.5905-25.7287,2.652-6.8082-3.9385-10.5686-12.3102-10.5686-23.611v-319.9462c0-23.7496,16.7237-52.724,37.2868-64.5988l176.3208-101.7867h0c9.7769-5.6405,18.9205-6.5905,25.7287-2.652,6.8082,3.9385,10.5686,12.3102,10.5686,23.611v319.9661l.0198-.0198ZM587.9427,296.3741c-1.1875-.6927-2.5531-.9896-3.9978-.95h-.099c-1.801.0594-3.7604.6729-5.7791,1.8406l-151.166,87.2599c-7.2238,4.176-13.0821,14.3289-13.0821,22.6808v290.8728c0,2.3354.4552,4.3343,1.3062,5.9176,0,.0396.0396.0594.0594.099.6927,1.2864,1.6427,2.2958,2.8302,2.9885,1.1281.6531,2.3948.9698,3.7801.9698,1.9,0,3.9781-.6135,6.1155-1.8604h0l151.1264-87.2599h0c7.2238-4.176,13.0821-14.3487,13.0821-22.6809v-290.8531c0-4.2551-1.4843-7.4613-4.176-9.005v-.0198ZM415.7979,698.0584v-290.8728c0-7.6988,5.4228-17.0997,12.0925-20.959l151.1462-87.2599c1.5041-.8708,2.9687-1.3854,4.2947-1.5437.5542,1.2469.851,2.7906.851,4.5124v290.8728c0,7.6988-5.4228,17.0997-12.0925,20.959l-151.1462,87.2599c-1.5041.8708-2.9885,1.3656-4.3541,1.5239-.5344-1.2271-.8114-2.751-.8114-4.4926h.0198ZM418.9843,705.3614c-.4552-.2573-.8312-.5937-1.1875-.9698,1.1875-.2375,2.3948-.6927,3.6218-1.3656l3.8791,2.2364c-2.4145,1.0292-4.6312,1.0687-6.3134.099ZM427.3956,704.1938l-3.9781-2.2958,149.1671-86.112,3.9781,2.2958-149.1671,86.112ZM578.522,616.9141l-4.0176-2.3156c6.0957-4.2749,10.9446-12.6862,11.5977-20.108l4.0176,2.3156c-.2375,7.402-5.3041,16.1893-11.5977,20.108ZM590.1395,594.5499l-3.9781-2.2958v-288.577l3.9781,2.2958v288.5771ZM586.1417,301.3615c-.0396-1.4052-.2573-2.6718-.6333-3.8197.5146.1187,1.0094.2969,1.4448.5542,1.6823.9698,2.751,2.9093,3.0677,5.5218l-3.8791-2.2364v-.0198ZM411.2657,379.933c-.4156-.5344-.9302-.9896-1.5041-1.326h0l-.3365-.1979h0c-2.9093-1.6823-7.303.6729-10.0144,5.3634-1.2469,2.1572-1.9198,4.4728-1.9198,6.5311,0,2.2562.8114,3.9781,2.2958,4.8291l.3365.1979h0c.5739.3364,1.2469.5542,1.9198.6531.2375.0396.475.0396.7125.0396.4552,0,.9302-.0594,1.425-.1583.7917-.1781,1.5635-.5146,2.3354-.9896s1.5239-1.0885,2.2364-1.8208c.6729-.6927,1.2864-1.4843,1.801-2.3552.5146-.851.95-1.7416,1.2864-2.652.3365-.95.5739-1.9.6729-2.8104.1187-1.0094.0792-1.9593-.1187-2.8302-.1979-.95-.5739-1.7614-1.1083-2.4541l-.0198-.0198ZM401.9044,385.1975c-1.8802,3.2656-2.0187,6.7093-.5344,8.5103-.099-.0396-.1781-.0792-.2771-.1187h0c-1.6823-.9698-1.9395-4.6707.3562-8.6488,1.0687-1.8604,2.4739-3.3447,3.9583-4.2155.7521-.4354,2.2166-1.0885,3.3447-.4354h0c.0792.0396.1583.1187.2375.1583-1.0094-.1781-2.1375.0594-3.3051.7323-1.4448.8312-2.7906,2.2562-3.7999,3.9978l.0198.0198ZM408.772,389.1755c-1.7416,3.0083-4.2947,4.3145-5.5218,3.602s-1.3656-3.5822.3562-6.5905c.8114-1.425,1.9395-2.6125,3.0677-3.2656.9698-.5542,1.8604-.6729,2.4541-.3364s.9302,1.1677.9302,2.2958c0,1.3062-.475,2.8697-1.2864,4.2947Z"/>
  </g>
  <g id="Layer_3" data-name="Layer 3">
    <path d="M421.07,702.87c-1.6457,1.0089-3.5134,1.5994-5.44,1.72-.4034-.7447-.6996-1.5425-.88-2.37l150.77-87.05c7-4,12.66-13.85,12.66-21.92v-292.25c.0067-1.0799-.1108-2.1569-.35-3.21l1.1-.63c1.6403-1.0208,3.511-1.6123,5.44-1.72.8605,1.7242,1.2829,3.6338,1.23,5.56v292.26c0,8.07-5.66,17.89-12.65,21.92l-151.8799,87.69Z"/>
    <path d="M381.57,756.67l6,3.46h0c1.0254.6024,2.1114,1.0952,3.24,1.47-5.8801-.1938-11.6124-1.8911-16.65-4.93-7.16-4.12-11.16-12.96-11.16-24.59v-321.5c0-24.22,17-53.66,38-65.77l177.19-102.3c7.37-4.25,14.52-5.91,20.62-4.87-4.6672.7896-9.1448,2.4483-13.2,4.89l-177.19,102.29c-21,12.11-38,41.55-38,65.77v321.5c.03,11.63,4.03,20.47,11.15,24.58Z"/>
  </g>
</svg>