<?xml version="1.0" encoding="UTF-8"?>
<svg xmlns="http://www.w3.org/2000/svg" viewBox="0 0 1000 1000">
  <g id="Layer_2" data-name="Layer 2">
    <path d="M808.3577,522.2056c0-.7876-.5004-1.5177-1.4192-2.0427l-34.0368-19.6559s-.0328-.0082-.041-.0164c-.0246-.0082-.0574-.0246-.082-.0246h-.1477c-.0246,0-.0492.0164-.0739.0246-.0164,0-.0328,0-.0492.0164l-116.9672,67.5322-223.9671-129.3055,60.7314-35.0623c5.8738-3.3881,10.6483-11.6655,10.6483-18.4417v-23.4706c0-.0164-.0082-.0328-.0164-.0574,0-.0164-.0082-.0328-.0164-.0492v-.0246c0-.0082-.0082-.0082-.0164-.0164-.0082-.0164-.0246-.0246-.0328-.041-.0164-.0164-.0246-.0246-.041-.041-.0164-.0082-.0246-.0246-.041-.0328,0,0-.0082-.0082-.0164-.0164h-.0082l.0082-.0164c.0164-.0082.0246-.0246.041-.0328.0246-.0164.041-.0328.0656-.0574.0164-.0164.0328-.041.041-.0656.0164-.0246.0246-.041.0328-.0656.0082-.0246.0164-.0574.0164-.082,0-.0164.0082-.0328.0082-.0492v-12.1414c0-.0164-.0082-.0328-.0164-.0574,0-.0164-.0164-.0328-.0164-.0492v-.0246c0-.0082-.0082-.0082-.0164-.0164-.0082-.0164-.0246-.0246-.0328-.041-.0164-.0164-.0246-.0246-.041-.041-.0164-.0082-.0246-.0246-.041-.0328,0,0-.0082-.0082-.0164-.0164l-.4512-.2625v-4.7827c0-.0164-.0082-.0328-.0164-.0574,0-.0164-.0082-.0328-.0164-.0492v-.0246s-.0082-.0082-.0164-.0164c-.0082-.0164-.0246-.0246-.0328-.041-.0164-.0164-.0246-.0246-.041-.041-.0164-.0082-.0246-.0246-.041-.0328,0,0-.0082-.0082-.0164-.0164l-34.1272-19.6231c-1.7556-1.009-4.5038-1.009-6.2594,0h0c-.9106.525-1.4192,1.2552-1.4192,2.0427v3.2897l-1.5341-.886c-1.3372-.7711-3.4291-.7711-4.7663,0-.7137.4102-1.1075.9844-1.1075,1.6079v3.0435l-1.0911-.6317c-1.3372-.7711-3.4291-.7711-4.7663,0-.7137.4102-1.1075.9844-1.1075,1.6079v3.0435l-1.0911-.6317c-1.3372-.7711-3.4291-.7711-4.7581,0-.7137.4102-1.1075.9844-1.1075,1.6079v3.0435l-1.0911-.6317c-1.3372-.7711-3.4291-.7711-4.7663,0-.7137.4102-1.1075.9844-1.1075,1.6079h0v3.0435l-1.0911-.6317c-1.3372-.7711-3.4291-.7711-4.7663,0-.7137.4102-1.1075.9844-1.1075,1.6079v3.0353l-1.0911-.6317c-1.3372-.7711-3.4291-.7711-4.7581,0-.7137.4102-1.1075.9844-1.1075,1.6079v3.0353l-1.0911-.6317c-1.3372-.7711-3.4291-.7711-4.7663,0-.7137.4102-1.1075.9844-1.1075,1.6079v3.0435l-1.0911-.6317h0c-1.3372-.7711-3.4291-.7711-4.7663,0-.7137.4102-1.1075.9844-1.1075,1.6079v3.0435l-1.0911-.6317c-1.3372-.7711-3.4291-.7711-4.7581,0-.7137.4102-1.1075.9844-1.1075,1.6079v3.0435l-1.0911-.6317c-1.3372-.7711-3.4291-.7711-4.7663,0-.7137.4102-1.1075.9844-1.1075,1.6079v3.0435l-1.0911-.6317h0c-1.3372-.7711-3.4291-.7711-4.7581,0-.7137.4102-1.1075.9844-1.1075,1.6079v3.0435l-1.0911-.6317c-1.3372-.7711-3.4291-.7711-4.7581,0-.7137.4102-1.1075.9844-1.1075,1.6079v3.0435l-1.0911-.6317c-1.3372-.7711-3.4291-.7711-4.7663,0-.7137.4102-1.1075.9844-1.1075,1.6079h0v3.0435l-1.0911-.6317c-1.3372-.7711-3.4291-.7711-4.7663,0-.7137.4102-1.1075.9844-1.1075,1.6079h0v3.0435l-1.0911-.6317c-1.3372-.7711-3.4291-.7711-4.7581,0-.7137.4102-1.1075.9844-1.1075,1.6079h0v3.0353l-1.0911-.6317c-1.3372-.7711-3.4291-.7711-4.7663,0-.7137.4102-1.1075.9844-1.1075,1.6079v3.0435l-1.0911-.6317h0c-1.3372-.7711-3.4291-.7711-4.7663,0-.7137.4102-1.1075.9844-1.1075,1.6079v3.0435l-1.0911-.6317c-1.3372-.7711-3.4291-.7711-4.7581,0-.7137.4102-1.1075.9844-1.1075,1.6079v3.0435l-1.0911-.6317c-1.3372-.7711-3.4291-.7711-4.7663,0-.7137.4102-1.1075.9844-1.1075,1.6079v3.0435l-1.0911-.6317c-1.3372-.7711-3.4291-.7711-4.7663,0-.7137.4102-1.1075.9844-1.1075,1.6079v3.0435l-1.0911-.6317c-1.3372-.7711-3.4291-.7711-4.7581,0-.7137.4102-1.1075.9844-1.1075,1.6079h0v3.0435l-1.0911-.6317c-1.3372-.7711-3.4291-.7711-4.7663,0-.7137.4102-1.1075.9844-1.1075,1.6079h0v3.0435l-1.0911-.6317c-1.3372-.7711-3.4291-.7711-4.7663,0-.7137.4102-1.1075.9844-1.1075,1.6079v3.0353l-1.0911-.6317c-1.3372-.7711-3.4291-.7711-4.7581,0-.7137.4102-1.1075.9844-1.1075,1.6079v3.0435l-1.0911-.6317h0c-1.3372-.7711-3.4291-.7711-4.7663,0-.7137.4102-1.1075.9844-1.1075,1.6079v3.0435l-1.0911-.6317c-1.3372-.7711-3.4291-.7711-4.7663,0-.7137.4102-1.1075.9844-1.1075,1.6079v3.0435l-1.0911-.6317c-1.3372-.7711-3.4291-.7711-4.7581,0-.7137.4102-1.1075.9844-1.1075,1.6079v3.0435l-1.0911-.6317c-1.3372-.7711-3.4291-.7711-4.7663,0-.7137.4102-1.1075.9844-1.1075,1.6079v3.0435l-1.0911-.6317c-1.3372-.7711-3.4291-.7711-4.7663,0-.7137.4102-1.1075.9844-1.1075,1.6079v3.0435l-1.0911-.6317c-1.3372-.7711-3.4291-.7711-4.7581,0-.7137.4102-1.1075.9844-1.1075,1.6079h0v3.0435l-1.0911-.6317c-1.3372-.7711-3.4291-.7711-4.7663,0-.7137.4102-1.1075.9844-1.1075,1.6079h0v3.0435l-1.0911-.6317c-1.3372-.7711-3.4291-.7711-4.7663,0-.7137.4102-1.1075.9844-1.1075,1.6079v3.0435l-1.0911-.6317c-1.3372-.7711-3.4291-.7711-4.7581,0-.7137.4102-1.1075.9844-1.1075,1.6079v3.0435l-1.0911-.6317c-1.3372-.7711-3.4291-.7711-4.7663,0-.7137.4102-1.1075.9844-1.1075,1.6079v3.0435l-1.0911-.6317c-1.3372-.7711-3.4291-.7711-4.7663,0-.7137.4102-1.1075.9844-1.1075,1.6079v3.0435l-1.0911-.6317c-1.3372-.7711-3.4291-.7711-4.7581,0-.7137.4102-1.1075.9844-1.1075,1.6079v3.0435l-.3446-.1969c-1.7556-1.009-4.5038-1.009-6.2594,0h0c-.9106.525-1.4192,1.2552-1.4192,2.0427h0v5.6933c0,.7793.5168,1.5259,1.4192,2.0427l7.3176,4.2249-.041.0246s-.0082.0082-.0164.0164c-.0082,0-.0164,0-.0246.0164-.0164.0082-.0246.0328-.041.041-.0164.0164-.0328.0328-.0492.0574,0,0-.0082.0082-.0164.0164h0c0,.0082,0,.0164-.0082.0246v.0246c-.0082.0246-.0246.0492-.0246.0738v.1887l3.7983,14.2497c.0246.0738.0738.1477.1313.1969.0082.0082.0164.0164.0328.0246.0082,0,.0164.0164.0246.0246l.2379.1395h-.0082s-.0082.0164-.0164.0246c0,0-.0164,0-.0246.0164-.0164.0082-.0246.0328-.041.041-.0164.0164-.0328.0328-.0492.0574,0,0-.0082.0082-.0164.0164h0c0,.0082,0,.0164-.0082.0246v.0246c-.0082.0246-.0246.0492-.0246.0738v.1887l7.3751,27.6462h0c1.0419,3.9131,3.1502,6.9485,5.9394,8.5564l12.0183,6.9403c.8696.5004,1.8622.7547,2.9205.7547,1.5013,0,3.1584-.5004,4.8729-1.4849l98.5829-56.9167,223.9671,129.3055-61.9127,35.7514-.0164.0164c-.0164.0082-.0246.0164-.041.0328l-.041.041c-.0082.0164-.0246.0246-.0328.041l-.0164.0164v.0246c-.0082.0164-.0164.0328-.0246.0492,0,.0164-.0082.0328-.0164.0574v17.8183s0,.0328.0082.0492c0,.0246,0,.0574.0164.082.0082.0246.0246.0492.0328.0738.0164.0246.0246.041.041.0656s.041.041.0656.0574c.0164.0082.0246.0246.0328.0328h.0082l-.0082.0164-.0164.0164c-.0164.0082-.0246.0164-.041.0328l-.041.041c-.0164.0164-.0246.0246-.0328.041l-.0164.0164v.0246c-.0082.0164-.0164.0328-.0246.0492,0,.0164-.0082.041-.0164.0574v23.4624c0,3.3717,1.1567,5.8984,3.2651,7.1126l12.0183,6.9403h.0082c.4348.2543.968.3774,1.5751.3774,1.3372,0,3.0764-.5907,5.0863-1.7556l245.3785-141.6683c5.8246-3.3635,12.2972-10.5827,14.422-16.0955l6.1281-15.8986c.5086.1641,1.0665.2625,1.6325.2625.8532,0,1.7146-.1887,2.3791-.5825.7055-.4102,1.1075-.9926,1.1075-1.6079v-3.0435l.3445.1969c.8778.5086,2.0017.7629,3.1256.7629s2.2478-.2543,3.1256-.7629h0c.9024-.5168,1.4192-1.2634,1.4192-2.0427v-5.6933h0l-.0574.041ZM654.7039,568.515l-59.2219,34.1927-255.2885-147.3944,59.2219-34.1927,255.2885,147.3944ZM461.1805,327.4024c.1723.1477.3692.2953.5989.4184l5.1683,2.9861c.2133.1231.3364.2707.3364.402s-.123.2789-.3364.402c-.5989.3446-1.6079.3446-2.1986,0l-3.5604-2.0591v-2.1411l-.0082-.0082ZM453.7809,331.2089c.0902.0656.1805.1395.2871.2051l5.9148,3.4127c.2133.1231.3364.2707.3364.402s-.123.2789-.3364.402c-.5989.3446-1.6079.3446-2.1986,0l-4.0034-2.3134v-2.1083ZM446.816,335.2287c.0902.0656.1805.1395.2871.2051l5.9148,3.4127c.2133.1231.3364.2707.3364.402s-.123.2789-.3364.402c-.5989.3446-1.6079.3446-2.1986,0l-4.0034-2.3134v-2.1083ZM439.8593,339.2484c.0902.0656.1805.1395.2871.2051l5.9148,3.4127c.2133.1231.3364.2707.3364.402s-.123.2789-.3364.402c-.5989.3446-1.6079.3446-2.1986,0l-4.0034-2.3134v-2.1083ZM432.8944,343.2682c.0902.0656.1805.1395.2871.2051l5.9148,3.4127c.2133.1231.3364.2707.3364.402s-.123.2789-.3364.402c-.5989.3446-1.6079.3446-2.1986,0l-4.0034-2.3134v-2.1083ZM425.9296,347.288c.0902.0656.1805.1395.2871.2051l5.9148,3.4127c.2133.1231.3364.2707.3364.402s-.123.2789-.3364.402c-.5989.3446-1.6079.3446-2.1986,0l-4.0034-2.3134v-2.1083ZM418.9729,351.3077c.0902.0656.1805.1395.2871.2051l5.9148,3.4127c.2133.1231.3364.2707.3364.402s-.123.2789-.3364.402c-.5989.3446-1.6079.3446-2.1986,0h0l-4.0034-2.3134v-2.1083ZM412.008,355.3275c.0902.0656.1805.1395.2871.2051l5.9148,3.4127c.2133.1231.3364.2707.3364.402s-.123.2789-.3364.402c-.5989.3446-1.6079.3446-2.1986,0l-4.0034-2.3134v-2.1083ZM405.0431,359.3473c.0902.0656.1805.1395.2871.2051l5.9148,3.4127c.2133.1231.3363.2707.3363.402s-.123.2789-.3364.402c-.5989.3446-1.6079.3446-2.1986,0l-4.0034-2.3134v-2.1083ZM398.0865,363.3671c.0902.0656.1805.1395.2871.2051l5.9148,3.4127h0c.2133.1231.3364.2707.3364.402s-.123.2789-.3364.402c-.5989.3446-1.6079.3446-2.1986,0l-4.0034-2.3134v-2.1083h0ZM391.1216,367.3868c.0902.0656.1805.1395.2871.2051l5.9148,3.4127c.2133.1231.3364.2707.3364.402s-.123.2789-.3364.402c-.5989.3446-1.6079.3446-2.1986,0l-4.0034-2.3134v-2.1083h0ZM384.1567,371.4066c.0902.0656.1805.1395.2871.2051l5.9148,3.4127c.2133.1231.3364.2707.3364.402s-.123.2789-.3364.402c-.5989.3446-1.6079.3446-2.1986,0l-4.0034-2.3134v-2.1083h0ZM377.1919,375.4264c.0902.0656.1805.1395.2871.2051l5.9148,3.4127c.2133.1231.3364.2707.3364.402s-.123.2789-.3364.402c-.5989.3446-1.6079.3446-2.1986,0l-4.0034-2.3134v-2.1083h0ZM370.2352,379.4462c.0902.0656.1805.1395.2871.2051l5.9148,3.4127c.2133.1231.3364.2707.3364.402s-.123.2789-.3364.402c-.5989.3446-1.6079.3446-2.1986,0l-4.0034-2.3134v-2.1083h0ZM363.2703,383.4659c.0902.0656.1805.1395.2871.2051l5.9148,3.4127c.2133.1231.3364.2707.3364.402s-.123.2789-.3364.402c-.5989.3446-1.6079.3446-2.1986,0l-4.0034-2.3134v-2.1083h0ZM349.3488,391.5055c.0902.0656.1805.1395.2871.2051l5.9148,3.4127c.2133.1231.3364.2707.3364.402s-.123.2789-.3364.402c-.5989.3446-1.6079.3446-2.1986,0l-4.0034-2.3134v-2.1083h0ZM342.3839,395.5253c.0902.0656.1805.1395.2871.2051l5.9148,3.4127c.2133.1231.3364.2707.3364.402s-.123.2789-.3364.402c-.5989.3446-1.6079.3446-2.1986,0l-4.0034-2.3134v-2.1083h0ZM335.419,399.545c.0902.0656.1805.1395.2871.2051l5.9148,3.4127h0c.2133.1231.3364.2707.3364.402s-.123.2789-.3364.402c-.5989.3446-1.5997.3446-2.1986,0l-4.0034-2.3134v-2.1083h0ZM328.4623,403.5648c.0902.0656.1805.1395.2871.2051l5.9148,3.4127c.2133.1231.3364.2707.3364.402s-.123.2789-.3364.402c-.5989.3446-1.6079.3446-2.1986,0l-4.0034-2.3134v-2.1083h0ZM321.4975,407.5846c.0902.0656.1805.1395.2871.2051l5.9148,3.4127c.2133.1231.3364.2707.3364.402s-.123.2789-.3364.402c-.5989.3446-1.6079.3446-2.1986,0l-4.0034-2.3134v-2.1083h0ZM314.5326,411.6044c.0902.0656.1805.1395.2871.2051l5.9148,3.4127c.2133.1231.3364.2707.3364.402s-.123.2789-.3364.402c-.5989.3446-1.5997.3446-2.1986,0l-4.0034-2.3134v-2.1083h0ZM307.5677,415.6241c.0902.0656.1805.1395.2871.2051l5.9148,3.4127c.2133.1231.3364.2707.3364.402s-.123.2789-.3364.402c-.5989.3446-1.6079.3446-2.1986,0l-4.0034-2.3134v-2.1083h0ZM300.6111,419.6439c.0902.0656.1805.1395.2871.2051l5.9148,3.4127c.2133.1231.3364.2707.3364.402s-.123.2789-.3364.402c-.5989.3446-1.5997.3446-2.1986,0h0l-4.0034-2.3134v-2.1083ZM293.6462,423.6637c.0902.0656.1805.1395.2871.2051l5.9148,3.4127c.2133.1231.3364.2707.3364.402s-.1231.2789-.3364.402c-.5989.3446-1.5997.3446-2.1986,0l-4.0034-2.3134s0-2.1083,0-2.1083ZM286.6813,427.6835c.0902.0656.1805.1395.2871.2051l5.9148,3.4127c.2133.123.3364.2707.3364.402s-.1231.2789-.3364.402c-.5989.3446-1.6079.3446-2.1986,0l-4.0034-2.3134v-2.1083ZM279.7246,431.7032c.0902.0656.1805.1395.2871.2051l5.9148,3.4127c.2133.123.3364.2707.3364.402s-.1231.2789-.3364.402c-.5989.3446-1.6079.3446-2.1986,0l-4.0034-2.3134v-2.1083ZM272.7598,435.723c.0902.0656.1805.1395.2871.2051l5.9148,3.4127h0c.2133.123.3364.2707.3364.402s-.1231.2789-.3364.402c-.5989.3446-1.5997.3446-2.1986,0l-4.0034-2.3134v-2.1083ZM265.7949,439.7428c.0902.0656.1805.1395.2871.2051h0l5.9148,3.4127c.2133.123.3364.2707.3364.402s-.1231.2789-.3364.402c-.5989.3446-1.6079.3446-2.1986,0l-4.0034-2.3134v-2.1083ZM258.8382,443.7626c.0902.0656.1805.1395.2871.2051l5.9148,3.4127c.2133.123.3364.2707.3364.402s-.1231.2789-.3364.402c-.5989.3446-1.6079.3446-2.1986,0l-4.0034-2.3134v-2.1083ZM251.8733,447.7823c.0902.0656.1805.1395.2871.2051l5.9148,3.4127c.2133.123.3364.2707.3364.402s-.1231.2789-.3364.402c-.5989.3446-1.6079.3446-2.1986,0l-4.0034-2.3134v-2.1083ZM244.9085,451.8021c.0902.0656.1805.1395.2871.2051l5.9148,3.4127c.2133.123.3363.2707.3363.402s-.1231.2789-.3363.402c-.5989.3446-1.6079.3446-2.1986,0l-4.0034-2.3134s0-2.1083,0-2.1083ZM237.9518,455.8219c.0902.0656.1805.1395.2871.2051l5.9148,3.4127c.2133.123.3363.2707.3363.402s-.1231.2789-.3363.402c-.5989.3446-1.6079.3446-2.1986,0l-4.0034-2.3134s0-2.1083,0-2.1083ZM230.9869,459.8417c.0902.0656.1805.1395.2871.2051l5.9148,3.4127c.2133.123.3363.2707.3363.402s-.1231.2789-.3363.402c-.5989.3446-1.6079.3446-2.1986,0l-4.0034-2.3134s0-2.1083,0-2.1083ZM224.022,463.8614c.0902.0656.1805.1395.2871.2051l5.9148,3.4127c.2133.123.3363.2707.3363.402s-.1231.2789-.3363.402c-.5989.3446-1.6079.3446-2.1986,0l-4.0034-2.3134v-2.1083ZM217.0572,467.8812c.0902.0656.1805.1395.2871.2051l5.9148,3.4127c.2133.123.3363.2707.3363.402s-.1231.2789-.3363.402c-.5989.3446-1.6079.3446-2.1986,0l-4.0034-2.3134s0-2.1083,0-2.1083ZM210.1005,471.901c.0902.0656.1805.1395.2871.2051l5.9148,3.4127c.2133.123.3363.2707.3363.402s-.1231.2789-.3363.402c-.5989.3446-1.6079.3446-2.1986,0l-4.0034-2.3134v-2.1083ZM203.0864,474.0421h0c1.5013-.8696,3.9377-.8696,5.439,0l5.1683,2.9861c.4266.2461.968.3692,1.5095.3692s1.0829-.123,1.5095-.3692c.4758-.2707.7465-.6809.7465-1.1075s-.2707-.8368-.7465-1.1075l-5.9148-3.4127c-.443-.2543-.6973-.5825-.6973-.9024s.2543-.6481.6973-.9024c1.0665-.6153,2.8713-.6153,3.9377,0l5.9148,3.4127c.4266.2461.968.3692,1.5095.3692s1.0829-.123,1.5095-.3692c.4758-.2707.7465-.6809.7465-1.1075s-.2707-.8368-.7465-1.1075l-5.9148-3.4127c-.443-.2543-.6973-.5825-.6973-.9024s.2543-.6481.6973-.9024c1.0665-.6153,2.8713-.6153,3.9459,0l5.9148,3.4127c.4266.2461.968.3692,1.5095.3692s1.0911-.123,1.5095-.3692c.4758-.2707.7465-.6809.7465-1.1075s-.2707-.8368-.7465-1.1075l-5.9148-3.4127c-.443-.2543-.6973-.5825-.6973-.9024s.2543-.6481.6973-.9024c1.0665-.6153,2.8713-.6153,3.9459,0l5.9148,3.4127c.4266.2461.968.3692,1.5095.3692s1.0829-.123,1.5095-.3692c.4758-.2707.7465-.6809.7465-1.1075s-.2707-.8368-.7465-1.1075l-5.9148-3.4127c-.443-.2543-.6973-.5825-.6973-.9024s.2543-.6481.6973-.9024c1.0665-.6153,2.8713-.6153,3.9377,0l5.9148,3.4127c.4266.2461.968.3692,1.5095.3692s1.0829-.123,1.5095-.3692c.4758-.2707.7465-.6809.7465-1.1075s-.2707-.8368-.7465-1.1075l-5.9148-3.4127c-.443-.2543-.6973-.5825-.6973-.9024s.2543-.6481.6973-.9024c1.0665-.6153,2.8713-.6153,3.9459,0l5.9148,3.4127c.4266.2461.968.3692,1.5095.3692s1.0829-.123,1.5095-.3692c.4758-.2707.7465-.6809.7465-1.1075s-.2707-.8368-.7465-1.1075l-5.9148-3.4127c-.443-.2543-.6973-.5825-.6973-.9024s.2543-.6481.6973-.9024c1.0665-.6153,2.8713-.6153,3.9459,0l5.9148,3.4127c.4266.2461.968.3692,1.5095.3692s1.0829-.123,1.5095-.3692c.4758-.2707.7465-.6809.7465-1.1075s-.2707-.8368-.7465-1.1075l-5.9148-3.4127c-.443-.2543-.6973-.5825-.6973-.9024s.2543-.6481.6973-.9024c1.0665-.6153,2.8713-.6153,3.9377,0l5.9148,3.4127c.4266.2461.968.3692,1.5095.3692s1.0829-.123,1.5095-.3692c.4758-.2707.7465-.6809.7465-1.1075s-.2707-.8368-.7465-1.1075l-5.9148-3.4127c-.443-.2543-.6973-.5825-.6973-.9024s.2543-.6481.6973-.9024c1.0665-.6153,2.8713-.6153,3.9459,0l5.9148,3.4127c.4266.2461.968.3692,1.5095.3692s1.0911-.123,1.5095-.3692c.4758-.2707.7465-.6809.7465-1.1075s-.2707-.8368-.7465-1.1075l-5.9148-3.4127h0c-.443-.2543-.6973-.5825-.6973-.9024s.2543-.6481.6973-.9024c1.0665-.6153,2.8713-.6153,3.9459,0l5.9148,3.4127c.4266.2461.968.3692,1.5095.3692s1.0829-.123,1.5095-.3692c.4758-.2707.7465-.6809.7465-1.1075s-.2707-.8368-.7465-1.1075h0l-5.9148-3.4127c-.443-.2543-.6973-.5825-.6973-.9024s.2543-.6481.6973-.9024c1.0665-.6153,2.8713-.6153,3.9377,0l5.9148,3.4127c.4266.2461.968.3692,1.5095.3692s1.0829-.123,1.5095-.3692c.4758-.2707.7465-.6809.7465-1.1075s-.2707-.8368-.7465-1.1075l-5.9148-3.4127c-.443-.2543-.6973-.5825-.6973-.9024s.2543-.6481.6973-.9024c1.0665-.6153,2.8713-.6153,3.9459,0l5.9148,3.4127c.4266.2461.968.3692,1.5095.3692s1.0911-.123,1.5095-.3692c.4758-.2707.7465-.6809.7465-1.1075s-.2707-.8368-.7465-1.1075l-5.9148-3.4127c-.443-.2543-.6973-.5825-.6973-.9024s.2543-.6481.6973-.9024c1.0665-.6153,2.8713-.6153,3.9377,0h0l5.9148,3.4127c.4266.2461.968.3692,1.5095.3692s1.0829-.123,1.5095-.3692c.4758-.2707.7465-.6809.7465-1.1075s-.2707-.8368-.7465-1.1075l-5.9148-3.4127c-.443-.2543-.6973-.5825-.6973-.9024s.2543-.6481.6973-.9024c1.0665-.6153,2.8713-.6153,3.9377,0l5.9148,3.4127h0c.4266.2461.968.3692,1.5095.3692s1.0829-.1231,1.5095-.3692c.4758-.2707.7465-.6809.7465-1.1075s-.2707-.8368-.7465-1.1075l-5.9148-3.4127c-.443-.2543-.6973-.5825-.6973-.9024s.2543-.6481.6973-.9024c1.0665-.6153,2.8713-.6153,3.9459,0l5.9148,3.4127c.4266.2461.968.3692,1.5095.3692s1.0911-.1231,1.5095-.3692c.4758-.2707.7465-.6809.7465-1.1075s-.2707-.8368-.7465-1.1075l-5.9148-3.4127c-.443-.2543-.6973-.5825-.6973-.9024s.2543-.6481.6973-.9024c1.0665-.6153,2.8713-.6153,3.9459,0l5.9148,3.4127c.4266.2461.968.3692,1.5095.3692s1.0829-.1231,1.5095-.3692c.4758-.2707.7465-.6809.7465-1.1075s-.2707-.8368-.7465-1.1075l-5.9148-3.4127c-.443-.2543-.6973-.5825-.6973-.9024s.2543-.6481.6973-.9024c1.0665-.6153,2.8713-.6153,3.9377,0l5.9148,3.4127c.4266.2461.968.3692,1.5095.3692s1.0829-.1231,1.5095-.3692c.4758-.2707.7465-.6809.7465-1.1075s-.2707-.8368-.7465-1.1075l-5.9148-3.4127c-.443-.2543-.6973-.5825-.6973-.9024s.2543-.6481.6973-.9024c1.0665-.6153,2.8713-.6153,3.9459,0l5.9148,3.4127c.4266.2461.968.3692,1.5095.3692s1.0911-.1231,1.5095-.3692c.4758-.2707.7465-.6809.7465-1.1075s-.2707-.8368-.7465-1.1075l-5.9148-3.4127c-.443-.2543-.6973-.5825-.6973-.9024s.2543-.6481.6973-.9024c1.0665-.6153,2.8713-.6153,3.9459,0l5.9148,3.4127c.4266.2461.968.3692,1.5095.3692s1.0829-.1231,1.5095-.3692c.4758-.2707.7465-.6809.7465-1.1075s-.2707-.8368-.7465-1.1075h0l-5.9148-3.4127c-.443-.2543-.6973-.5825-.6973-.9024s.2543-.6481.6973-.9024c1.0665-.6153,2.8713-.6153,3.9377,0l5.9148,3.4127c.4266.2461.968.3692,1.5095.3692s1.0829-.1231,1.5095-.3692c.4758-.2707.7465-.6809.7465-1.1075s-.2707-.8368-.7465-1.1075l-5.9148-3.4127c-.443-.2543-.6973-.5825-.6973-.9024s.2543-.6481.6973-.9024c1.0665-.6153,2.8713-.6153,3.9377,0h0l5.9148,3.4127c.4266.2461.968.3692,1.5095.3692s1.0911-.1231,1.5095-.3692c.4758-.2707.7465-.6809.7465-1.1075s-.2707-.8368-.7465-1.1075l-5.9148-3.4127c-.443-.2543-.6973-.5825-.6973-.9024s.2543-.6481.6973-.9024c1.0665-.6153,2.8713-.6153,3.9459,0l5.9148,3.4127c.4266.2461.968.3692,1.5095.3692s1.0829-.1231,1.5095-.3692c.4758-.2707.7465-.6809.7465-1.1075s-.2707-.8368-.7465-1.1075l-5.9148-3.4127c-.443-.2543-.6973-.5825-.6973-.9024h0c0-.3199.2543-.6481.6973-.9024,1.0665-.6153,2.8713-.6153,3.9377,0l5.9148,3.4127c.4266.2461.968.3692,1.5095.3692s1.0829-.1231,1.5095-.3692c.4758-.2707.7465-.6809.7465-1.1075s-.2707-.8368-.7465-1.1075l-5.9148-3.4127c-.443-.2543-.6973-.5825-.6973-.9024s.2543-.6481.6973-.9024c1.0665-.6153,2.8713-.6153,3.9459,0l5.9148,3.4127c.4266.2461.968.3692,1.5095.3692s1.0911-.1231,1.5095-.3692c.4758-.2707.7465-.6809.7465-1.1075s-.2707-.8368-.7465-1.1075l-5.9148-3.4127c-.443-.2543-.6973-.5825-.6973-.9024s.2543-.6481.6973-.9024c1.0665-.6153,2.8713-.6153,3.9459,0l5.9148,3.4127c.4266.2461.968.3692,1.5095.3692s1.0829-.1231,1.5095-.3692c.4758-.2707.7465-.6809.7465-1.1075s-.2707-.8368-.7465-1.1075l-5.9148-3.4127c-.443-.2543-.6973-.5825-.6973-.9024s.2543-.6481.6973-.9024c1.0665-.6153,2.8713-.6153,3.9377,0l5.9148,3.4127c.4266.2461.968.3692,1.5095.3692s1.0829-.1231,1.5095-.3692c.4758-.2707.7465-.6809.7465-1.1075s-.2707-.8368-.7465-1.1075l-5.9148-3.4127c-.443-.2543-.6973-.5825-.6973-.9024s.2543-.6481.6973-.9024c1.0665-.6153,2.8713-.6153,3.9377,0h0l5.9148,3.4127c.4266.2461.968.3692,1.5095.3692s1.0911-.1231,1.5095-.3692c.4758-.2707.7465-.6809.7465-1.1075s-.2707-.8368-.7465-1.1075l-5.9148-3.4127c-.443-.2543-.6973-.5825-.6973-.9024s.2543-.6481.6973-.9024c1.0665-.6153,2.8713-.6153,3.9459,0l5.9148,3.4127c.4266.2461.968.3692,1.5095.3692s1.0829-.1231,1.5095-.3692c.4758-.2707.7465-.6809.7465-1.1075s-.2707-.8368-.7465-1.1075h0l-5.9148-3.4127c-.443-.2543-.6973-.5825-.6973-.9024s.2543-.6481.6973-.9024c1.0665-.6153,2.8713-.6153,3.9377,0l5.9148,3.4127c.4266.2461.968.3692,1.5095.3692s1.0829-.1231,1.5095-.3692c.4758-.2707.7465-.6809.7465-1.1075s-.2707-.8368-.7465-1.1075l-5.9148-3.4127c-.443-.2543-.6973-.5825-.6973-.9024s.2543-.6481.6973-.9024c1.0665-.6153,2.8713-.6153,3.9377,0h0l5.9148,3.4127c.4266.2461.968.3692,1.5095.3692s1.0911-.1231,1.5095-.3692c.4758-.2707.7465-.6809.7465-1.1075s-.2707-.8368-.7465-1.1075l-5.9148-3.4127c-.443-.2543-.6973-.5825-.6973-.9024s.2543-.6481.6973-.9024c1.0665-.6153,2.8713-.6153,3.9459,0l5.9148,3.4127h0c.4266.2461.968.3692,1.5095.3692s1.0911-.1231,1.5095-.3692c.4758-.2707.7465-.6809.7465-1.1075s-.2707-.8368-.7465-1.1075l-5.9148-3.4127c-.443-.2543-.6973-.5825-.6973-.9024s.2543-.6481.6973-.9024c1.0665-.6153,2.8713-.6153,3.9377,0l5.9148,3.4127c.4266.2461.968.3692,1.5095.3692s1.0829-.1231,1.5095-.3692c.4758-.2707.7465-.6809.7465-1.1075s-.2707-.8368-.7465-1.1075l-5.9148-3.4127c-.443-.2543-.6973-.5825-.6973-.9024s.2543-.6481.6973-.9024c1.0665-.6153,2.8713-.6153,3.9459,0l5.9148,3.4127c.4266.2461.968.3692,1.5095.3692s1.0911-.1231,1.5095-.3692c.4758-.2707.7465-.6809.7465-1.1075s-.2707-.8368-.7465-1.1075l-5.9148-3.4127c-.443-.2543-.6973-.5825-.6973-.9024s.2543-.6481.6973-.9024c1.0665-.6153,2.8713-.6153,3.9459,0l5.9148,3.4127c.4266.2461.968.3692,1.5095.3692s1.0911-.1231,1.5095-.3692c.4758-.2707.7465-.6809.7465-1.1075s-.2707-.8368-.7465-1.1075l-5.9148-3.4127c-.443-.2543-.6973-.5825-.6973-.9024s.2543-.6481.6973-.9024c1.0665-.6153,2.8713-.6153,3.9377,0l5.9148,3.4127c.4266.2461.968.3692,1.5095.3692s1.0829-.1231,1.5095-.3692c.4758-.2707.7465-.6809.7465-1.1075s-.2707-.8368-.7465-1.1075l-5.9148-3.4127c-.443-.2543-.6973-.5825-.6973-.9024s.2543-.6481.6973-.9024c1.0665-.6153,2.8713-.6153,3.9459,0l5.9148,3.4127c.4266.2461.968.3692,1.5095.3692s1.0911-.1231,1.5095-.3692c.4758-.2707.7465-.6809.7465-1.1075s-.2707-.8368-.7465-1.1075l-5.9148-3.4127c-.443-.2543-.6973-.5825-.6973-.9024s.2543-.6481.6973-.9024c1.0665-.6153,2.8713-.6153,3.9459,0l5.9148,3.4127c.4266.2461.968.3692,1.5095.3692s1.0911-.1231,1.5095-.3692c.4758-.2707.7465-.6809.7465-1.1075s-.2707-.8368-.7465-1.1075l-5.1683-2.9861c-.6481-.3774-1.0091-.845-1.0091-1.329s.361-.9598,1.0091-1.329h0c1.5013-.8614,3.9377-.8614,5.439,0l33.4215,19.2949-264.0908,152.4973-33.8317-19.541c-.6481-.3774-1.009-.845-1.009-1.329s.361-.9598,1.009-1.329v-.0082ZM356.3054,389.594v-2.1083c.0902.0656.1805.1395.2871.2051l5.9148,3.4127c.2133.1231.3364.2707.3364.402s-.123.2789-.3364.402c-.5989.3446-1.6079.3446-2.1986,0l-4.0034-2.3134h0ZM501.4603,344.4577v4.7417l-132.2752,76.3675-131.8568,76.1296v-4.7417l264.132-152.4971ZM203.0864,482.4016c-.6399-.3692-1.009-.8532-1.009-1.329v-4.069c.1723.1477.3692.2953.5989.4184l33.8317,19.5328v4.7417l-33.4216-19.2949ZM210.8142,488.5625l25.0457,14.4548v11.1077l-21.5427-12.4367-3.5029-13.134v.0082ZM227.5168,538.4241c-2.5595-1.4766-4.5776-4.4136-5.5539-8.0642h0l-7.1207-26.6864,21.0177,12.1331v23.1506c0,1.9771.4102,3.6506,1.1649,4.955l-9.508-5.4882ZM246.5,544.6343c-2.658,1.5341-5.1355,1.7966-6.9731.7301-1.8376-1.0583-2.8549-3.3389-2.8549-6.407v-23.1506l5.0124-2.8959s.0246-.0246.041-.0328c.0246-.0164.041-.0328.0656-.0574.0164-.0164.0246-.0328.0328-.0492,0,0,.0082,0,.0164-.0164v-.0246c0-.0164.0164-.0328.0164-.0492s.0082-.0328.0164-.0574v-.8286c0-.0246-.0082-.0574-.0164-.082,0-.0246-.0164-.0492-.0246-.0738v-.0246c-.0082-.0164-.0246-.0246-.0328-.041-.0164-.0246-.0328-.041-.0574-.0656-.0164-.0164-.041-.0328-.0656-.041-.0246-.0164-.041-.0246-.0656-.0328-.0246-.0082-.0574-.0164-.082-.0164-.0164,0-.0328-.0082-.0492-.0082h-.0246c-.0246,0-.0574.0082-.082.0164-.0246,0-.0492.0164-.0738.0246h-.0246l-4.6022,2.658v-11.1077l.443-.2543h0l132.4803-76.4824,132.5131-76.507v11.1077l-5.0124,2.8959s-.0246.0246-.041.0328c-.0246.0164-.041.0328-.0656.0574-.0164.0164-.0328.041-.041.0656-.0164.0246-.0246.041-.0328.0656-.0082.0246-.0164.0574-.0164.082,0,.0164-.0082.0328-.0082.0492v.7465c0,.0246.0082.0574.0164.082,0,.0246.0164.0492.0246.0738v.0246c0,.0082.0164.0164.0246.0246.0328.041.0656.0738.1067.1066.0164.0082.0246.0246.041.0246.0574.0246.1149.0492.1805.0492h0c.0656,0,.1313-.0164.1805-.0492h.0164l4.6022-2.658v22.683c0,6.5137-4.594,14.4712-10.2381,17.728l-61.1416,35.3002-31.1163-17.9659s-.0328-.0082-.0492-.0164c-.0246-.0082-.0492-.0246-.082-.0246h-.1477c-.0328,0-.0574.0164-.082.0246-.0164,0-.0328,0-.0492.0164l-60.0423,34.6603-.0164.0164c-.0164.0082-.0246.0246-.041.0328l-.041.041c-.0082.0164-.0246.0246-.0328.041l-.0164.0164c-.0082.0082,0,.0164,0,.0246,0,.0164-.0164.0328-.0164.0492s-.0082.0328-.0164.0574v24.1925c0,3.3717,1.1567,5.8984,3.265,7.1125l2.4447,1.411-98.1727,56.6788.0082.0164ZM342.6382,485.8307c-1.813-1.0501-2.8549-3.3799-2.8549-6.407v-23.4049l254.8783,147.1565-24.3894,14.0774-227.6341-131.422ZM508.1545,654.5464l33.4215,19.2949h0c.8778.5086,2.0017.7629,3.1256.7629s2.2478-.2543,3.1256-.7629h0c.2215-.1313.4184-.2707.5989-.4184v4.069c0,.4758-.3692.9598-1.0091,1.329h0c-1.5013.8614-3.9377.8614-5.439,0h0l-33.8317-19.5328v-4.7417h.0082ZM508.1545,660.2315l25.1851,14.5368-3.5029,9.0896-21.6822-12.5187v-11.1077h0ZM521.4771,708.1406l-10.4678-6.0461c-1.813-1.0501-2.8549-3.3799-2.8549-6.407v-22.683l21.1571,12.2152-7.2438,18.8027c-.7383,1.9196-.8122,3.2158-.5907,4.11v.0082ZM788.3245,550.3112c-2.0673,5.3652-8.3759,12.3957-14.061,15.6853l-245.3785,141.6683c-2.8056,1.6161-5.078,2.0755-6.0871,1.2141-.8368-.7137-.8204-2.3298.0328-4.5448l7.3176-18.9996,5.0944-2.9369h0l.0164-.0164c.0082,0,.0164-.0164.0246-.0246.041-.0328.0738-.0656.0984-.0984,0,0,.0082,0,.0164-.0164,0-.0164,0-.0246.0164-.041l.0164-.0164.2297-.5907v-.0246c.0082-.0246.0082-.0574.0164-.082v-.0738c0-.0246-.0082-.0492-.0164-.0738,0-.0246-.0164-.0574-.0246-.082v-.0164c-.0082-.0164-.0246-.0246-.0328-.041-.0164-.0246-.0328-.0492-.0574-.0656s-.0492-.0328-.0738-.0492c-.0164-.0082-.0246-.0246-.0492-.0328h-.0246c-.0246-.0082-.0574-.0082-.082-.0164h-.0738c-.0246,0-.0492.0082-.0738.0164-.0246,0-.0574.0164-.082.0246h-.0164l-4.2167,2.4365,3.2076-8.3349,7.5145,4.3397h0c.8778.5086,2.0017.7629,3.1256.7629s2.2478-.2543,3.1256-.7629h0c.9024-.5168,1.4192-1.2634,1.4192-2.0427v-3.2897l1.5341.886c.6645.3856,1.5259.5825,2.379.5825s1.7146-.1969,2.379-.5825c.7055-.402,1.1075-.9926,1.1075-1.6079v-3.0435l1.0911.6317c.6645.3856,1.5259.5825,2.379.5825s1.7146-.1969,2.379-.5825c.7055-.4102,1.1075-.9926,1.1075-1.6079v-3.0435l1.0911.6317c.6645.3856,1.5259.5825,2.379.5825s1.7146-.1969,2.379-.5825c.7055-.402,1.1075-.9926,1.1075-1.6079v-3.0435l1.0911.6317c.6645.3856,1.5259.5825,2.379.5825s1.7146-.1969,2.379-.5825c.7055-.402,1.1075-.9926,1.1075-1.6079v-3.0435l1.0911.6317h0c.6645.3856,1.5259.5743,2.379.5743s1.7146-.1969,2.379-.5825c.7055-.4102,1.1075-.9926,1.1075-1.6079v-3.0435l1.0911.6317c.6645.3856,1.5259.5825,2.379.5825s1.7146-.1887,2.379-.5825c.7055-.4102,1.1075-.9926,1.1075-1.6079v-3.0435l1.0911.6317c.6645.3856,1.5259.5825,2.379.5825s1.7146-.1969,2.379-.5825c.7055-.402,1.1075-.9926,1.1075-1.6079v-3.0435l1.0911.6317c.6645.3856,1.5259.5825,2.379.5825s1.7146-.1969,2.379-.5825c.7055-.402,1.1075-.9926,1.1075-1.6079h0v-3.0435l1.0911.6317c.6645.3856,1.5259.5825,2.379.5825s1.7146-.1887,2.379-.5825c.7055-.4102,1.1075-.9926,1.1075-1.6079v-3.0435l1.0911.6317c.6645.3856,1.5259.5825,2.379.5825s1.7146-.1969,2.379-.5825c.7055-.402,1.1075-.9926,1.1075-1.6079v-3.0435l1.0911.6317c.6645.3856,1.5259.5825,2.3791.5825s1.7146-.1969,2.3791-.5825c.7055-.4102,1.1075-.9926,1.1075-1.6079v-3.0435l1.0911.6317c.6645.3856,1.5259.5825,2.3791.5825s1.7146-.1969,2.3791-.5825c.7055-.402,1.1075-.9926,1.1075-1.6079v-3.0435l1.0911.6317c.6645.3856,1.5259.5825,2.3791.5825s1.7146-.1969,2.3791-.5825c.7055-.402,1.1075-.9926,1.1075-1.6079v-3.0435l1.0911.6317h0c.6645.3856,1.5259.5743,2.3791.5743s1.7146-.1969,2.3791-.5825c.7055-.4102,1.1075-.9926,1.1075-1.6079v-3.0435l1.0911.6317c.6645.3856,1.5259.5825,2.3791.5825s1.7146-.1887,2.3791-.5825c.7055-.4102,1.1075-.9926,1.1075-1.6079v-3.0435l1.0911.6317c.6645.3856,1.5259.5825,2.3791.5825s1.7146-.1969,2.3791-.5825c.7055-.402,1.1075-.9926,1.1075-1.6079v-3.0435l1.0911.6317c.6645.3856,1.5259.5825,2.3791.5825s1.7146-.1969,2.3791-.5825c.7055-.4102,1.1075-.9926,1.1075-1.6079v-3.0435l1.0911.6317c.6645.3856,1.5259.5825,2.3791.5825s1.7146-.1887,2.3791-.5825c.7055-.4102,1.1075-.9926,1.1075-1.6079v-3.0435l1.0911.6317c.6645.3856,1.5259.5825,2.3791.5825s1.7146-.1969,2.3791-.5825c.7055-.402,1.1075-.9926,1.1075-1.6079v-3.0435l1.0911.6317c.6645.3856,1.5259.5825,2.3791.5825s1.7146-.1969,2.3791-.5825c.7055-.4102,1.1075-.9926,1.1075-1.6079v-3.0435l1.0911.6317c.6645.3856,1.5259.5825,2.3791.5825s1.7146-.1887,2.3791-.5743c.7055-.402,1.1075-.9926,1.1075-1.6079v-3.0435l1.0911.6317c.6645.3856,1.5259.5825,2.3791.5825s1.7146-.1969,2.3791-.5825c.7055-.402,1.1075-.9926,1.1075-1.6079v-3.0435l1.0911.6317h0c.6645.3856,1.5259.5743,2.3791.5743s1.7146-.1969,2.3791-.5825c.7055-.4102,1.1075-.9926,1.1075-1.6079v-3.0435l1.0911.6317c.6645.3856,1.5259.5825,2.3791.5825s1.7146-.1887,2.3791-.5825c.7055-.4102,1.1075-.9926,1.1075-1.6079v-3.0435l1.0911.6317c.6645.3856,1.5259.5825,2.3791.5825s1.7146-.1969,2.3791-.5825c.7055-.402,1.1075-.9926,1.1075-1.6079v-3.0435l1.0911.6317c.6645.3856,1.5259.5825,2.3791.5825s1.7146-.1969,2.3791-.5825c.7055-.4102,1.1075-.9926,1.1075-1.6079v-3.0435l1.0911.6317c.6645.3856,1.5259.5825,2.3791.5825s1.7146-.1887,2.3791-.5825c.7055-.4102,1.1075-.9926,1.1075-1.6079v-3.0435l1.0911.6317h0c.6645.3856,1.5259.5743,2.3791.5743s1.7146-.1969,2.3791-.5825c.7055-.402,1.1075-.9926,1.1075-1.6079v-3.0435l1.0911.6317c.6645.3856,1.5259.5825,2.3791.5825s1.7146-.1969,2.3791-.5825c.7055-.4102,1.1075-.9926,1.1075-1.6079v-3.0435l1.0911.6317c.6645.3856,1.5259.5825,2.3791.5825s1.7146-.1887,2.3791-.5825c.7055-.4102,1.1075-.9926,1.1075-1.6079v-3.0435l1.0911.6317c.6645.3856,1.5259.5825,2.3791.5825s1.7146-.1969,2.3791-.5825c.7055-.402,1.1075-.9926,1.1075-1.6079v-3.0435l1.0911.6317h0c.6645.3856,1.5259.5743,2.3791.5743s1.7146-.1969,2.3791-.5825c.7055-.4102,1.1075-.9926,1.1075-1.6079v-3.0435l1.0911.6317c.6645.3856,1.5259.5825,2.3791.5825s1.7146-.1887,2.3791-.5825c.7055-.4102,1.1075-.9926,1.1075-1.6079v-3.0435l1.0911.6317c.6645.3856,1.5259.5825,2.3791.5825s1.7146-.1969,2.3791-.5825c.7055-.402,1.1075-.9926,1.1075-1.6079v-3.0435l1.0911.6317c.6645.3856,1.5259.5825,2.3791.5825s1.7146-.1969,2.3791-.5825c.7055-.4102,1.1075-.9926,1.1075-1.6079v-3.0435l1.0829.6235-6.1363,15.9314.2044.0407ZM547.8354,669.7559l-5.1683-2.9861c-.2133-.123-.3364-.2707-.3364-.402s.123-.2789.3364-.402c.5989-.3446,1.6079-.3446,2.1986,0l5.9148,3.4127c.6645.3856,1.5259.5825,2.379.5825s1.7146-.1969,2.379-.5825c.1067-.0656.1969-.1313.2871-.2051v4.2823c0,.32-.2543.6481-.6973.9024-1.0665.6153-2.8713.6153-3.9377,0l-1.9443-1.1239v-1.452c0-.7875-.5004-1.5177-1.4192-2.0427l.0082.0164ZM555.5468,666.1709l-5.9148-3.4127h0c-.2133-.123-.3364-.2707-.3364-.3938s.123-.2789.3364-.402c.5989-.3446,1.5997-.3446,2.1986,0h0l5.9148,3.4127c.6645.3856,1.5259.5825,2.379.5825s1.7146-.1969,2.379-.5825c.1067-.0656.1969-.1313.2871-.2051v4.2823c0,.32-.2543.6481-.6973.9024-1.0665.6153-2.8713.6153-3.9377,0l-1.5013-.8696v-1.7063c0-.6235-.3938-1.1977-1.1075-1.6079h0ZM562.5116,662.1511l-5.9148-3.4127c-.2133-.123-.3364-.2707-.3364-.402s.123-.2789.3364-.402c.5989-.3446,1.6079-.3446,2.1986,0h0l5.9148,3.4127c.6645.3856,1.5259.5825,2.379.5825s1.7146-.1887,2.379-.5825c.1067-.0656.1969-.1313.2871-.2051v4.2823c0,.32-.2543.6481-.6973.9024-1.0665.6153-2.8713.6153-3.9459,0l-1.5013-.8696v-1.7063c0-.6235-.3938-1.1977-1.1075-1.6079l.0082.0082ZM569.4683,658.1314l-5.9148-3.4127h0c-.2133-.123-.3364-.2707-.3364-.3938s.123-.2789.3364-.402c.5989-.3446,1.6079-.3446,2.1986,0l5.9148,3.4127c.6645.3856,1.5259.5825,2.379.5825s1.7146-.1969,2.379-.5825c.1067-.0656.1969-.1313.2871-.2051v4.2823c0,.32-.2543.6481-.6973.9024-1.0665.6153-2.8713.6153-3.9377,0l-1.5013-.8696v-1.7063c0-.6235-.3938-1.1977-1.1075-1.6079h0ZM576.4332,654.1116l-5.9148-3.4127c-.2133-.123-.3364-.2707-.3364-.402s.123-.2789.3364-.402c.5989-.3446,1.5997-.3446,2.1986,0h0l5.9148,3.4127c.6645.3856,1.5259.5825,2.379.5825s1.7146-.1969,2.379-.5825c.1067-.0656.1969-.1313.2871-.2051v4.2823c0,.32-.2543.6481-.6973.9024-1.0665.6153-2.8713.6153-3.9377,0l-1.5013-.8696v-1.7063c0-.6235-.3938-1.1977-1.1075-1.6079v.0082ZM583.3981,650.0918l-5.9148-3.4127c-.2133-.123-.3364-.2707-.3364-.402s.123-.2789.3364-.402c.5989-.3446,1.6079-.3446,2.1986,0l5.9148,3.4127c.6645.3856,1.5259.5825,2.379.5825s1.7146-.1887,2.379-.5825c.1067-.0656.1969-.1313.2871-.2051v4.2823c0,.32-.2543.6481-.6973.9024-1.0665.6153-2.8713.6153-3.9459,0l-1.5013-.8696v-1.7063c0-.6235-.3938-1.1977-1.1075-1.6079l.0082.0082ZM590.3629,646.072l-5.9148-3.4127h0c-.2133-.123-.3364-.2707-.3364-.3938s.123-.2789.3364-.402c.5989-.3446,1.6079-.3446,2.1986,0l5.9148,3.4127c.6645.3856,1.5259.5825,2.379.5825s1.7146-.1969,2.379-.5825c.1067-.0656.1969-.1313.2871-.2051v4.2823c0,.32-.2543.6481-.6973.9024-1.0665.6153-2.8713.6153-3.9377,0l-1.5013-.8696v-1.7063c0-.6235-.3938-1.1977-1.1075-1.6079h0ZM597.3196,642.0523l-5.9148-3.4127c-.2133-.123-.3364-.2707-.3364-.402s.123-.2789.3364-.402c.5989-.3446,1.5997-.3446,2.1986,0l5.9148,3.4127c.6645.3856,1.5259.5825,2.379.5825s1.7146-.1969,2.379-.5825c.1067-.0656.1969-.1313.2871-.2051v4.2823c0,.32-.2543.6481-.6973.9024-1.0665.6153-2.8713.6153-3.9377,0l-1.5013-.8696v-1.7063c0-.6235-.3938-1.1977-1.1075-1.6079v.0082ZM604.2845,638.0325l-5.9148-3.4127h0c-.2133-.123-.3364-.2707-.3364-.3938s.123-.2789.3364-.402c.5989-.3446,1.6079-.3446,2.1986,0h0l5.9148,3.4127c.6645.3856,1.5259.5825,2.379.5825s1.7146-.1887,2.379-.5825c.1067-.0656.1969-.1313.2871-.2051v4.2823c0,.32-.2543.6481-.6973.9024-1.0665.6153-2.8713.6153-3.9459,0l-1.5013-.8696v-1.7063c0-.6235-.3938-1.1977-1.1075-1.6079h.0082ZM611.2493,634.0127l-5.9148-3.4127c-.2133-.123-.3364-.2707-.3364-.402s.123-.2789.3364-.402c.5989-.3446,1.6079-.3446,2.1986,0l5.9148,3.4127c.6645.3856,1.5259.5825,2.379.5825s1.7146-.1969,2.379-.5825c.1067-.0656.1969-.1313.2871-.2051v4.2823c0,.32-.2543.6481-.6973.9024-1.0665.6153-2.8713.6153-3.9377,0l-1.5013-.8696v-1.7063c0-.6235-.3938-1.1977-1.1075-1.6079v.0082ZM618.206,629.9929l-5.9148-3.4127h0c-.2133-.123-.3364-.2707-.3364-.3938s.123-.2789.3364-.402c.5989-.3446,1.5997-.3446,2.1986,0h0l5.9148,3.4127c.6645.3856,1.5259.5825,2.3791.5825s1.7146-.1969,2.3791-.5825c.1067-.0656.1969-.1313.2871-.2051v4.2823c0,.32-.2543.6481-.6973.9024-1.0665.6153-2.8713.6153-3.9377,0l-1.5013-.8696v-1.7063c0-.6235-.3938-1.1977-1.1075-1.6079h0ZM625.1709,625.9732l-5.9148-3.4127c-.2133-.123-.3364-.2707-.3364-.402s.123-.2789.3364-.402c.5989-.3446,1.6079-.3446,2.1986,0h0l5.9148,3.4127c.6645.3856,1.5259.5825,2.3791.5825s1.7146-.1887,2.3791-.5825c.1067-.0656.1969-.1313.2871-.2051v4.2823c0,.32-.2543.6481-.6973.9024-1.0665.6153-2.8713.6153-3.9459,0l-1.5013-.8696v-1.7063c0-.6235-.3938-1.1977-1.1075-1.6079l.0081.0082ZM632.1358,621.9534l-5.9148-3.4127h0c-.2133-.123-.3363-.2707-.3363-.3938s.1231-.2789.3363-.402c.5988-.3446,1.6079-.3446,2.1986,0l5.9148,3.4127c.6645.3856,1.5259.5825,2.3791.5825s1.7146-.1969,2.3791-.5825c.1067-.0656.1969-.1313.2871-.2051v4.2823c0,.32-.2543.6481-.6973.9024-1.0665.6153-2.8713.6153-3.9377,0l-1.5013-.8696v-1.7063c0-.6235-.3938-1.1977-1.1075-1.6079h0ZM639.0925,617.9336l-5.9148-3.4127c-.2133-.123-.3363-.2707-.3363-.402s.1231-.2789.3363-.402c.5988-.3446,1.5997-.3446,2.1986,0h0l5.9148,3.4127c.6645.3856,1.5259.5825,2.3791.5825s1.7146-.1969,2.3791-.5825c.1067-.0656.1969-.1313.2871-.2051v4.2823c0,.32-.2543.6481-.6973.9024-1.0665.6153-2.8713.6153-3.9377,0l-1.5013-.8696v-1.7063c0-.6235-.3938-1.1977-1.1075-1.6079v.0082ZM646.0655,613.9139h0l-5.9148-3.4127c-.2133-.123-.3363-.2707-.3363-.402s.1231-.2789.3363-.402c.5988-.3446,1.6079-.3446,2.1986,0l5.9148,3.4127c.6645.3856,1.5259.5825,2.3791.5825s1.7146-.1887,2.3791-.5825c.1067-.0656.1969-.1313.2871-.2051v4.2823c0,.32-.2543.6481-.6973.9024-1.0665.6153-2.8713.6153-3.9459,0l-1.5013-.8696v-1.7063c0-.6235-.3938-1.1977-1.0993-1.6079v.0082ZM653.0222,609.8941l-5.9148-3.4127h0c-.2133-.123-.3363-.2707-.3363-.3938s.1231-.2789.3363-.402c.5988-.3446,1.6079-.3446,2.1986,0h0l5.9148,3.4127c.6645.3856,1.5259.5825,2.3791.5825s1.7146-.1969,2.3791-.5825c.1067-.0656.1969-.1313.2871-.2051v4.2823c0,.32-.2543.6481-.6973.9024-1.0665.6153-2.8713.6153-3.9377,0l-1.5013-.8696v-1.7063c0-.6235-.3938-1.1977-1.1075-1.6079h0ZM659.9789,605.8743l-5.9148-3.4127c-.2133-.123-.3363-.2707-.3363-.402s.1231-.2789.3363-.402c.5988-.3446,1.5997-.3446,2.1986,0l5.9148,3.4127c.6645.3856,1.5259.5825,2.3791.5825s1.7146-.1969,2.3791-.5825c.1067-.0656.1969-.1313.2871-.2051v4.2823c0,.32-.2543.6481-.6973.9024-1.0665.6153-2.8713.6153-3.9377,0l-1.5013-.8696v-1.7063c0-.6235-.3938-1.1977-1.1075-1.6079v.0082ZM666.9437,601.8545l-5.9148-3.4127c-.2133-.123-.3363-.2707-.3363-.402s.1231-.2789.3363-.402c.5988-.3446,1.6079-.3446,2.1986,0h0l5.9148,3.4127c.6645.3856,1.5259.5825,2.3791.5825s1.7146-.1887,2.3791-.5825c.1067-.0656.1969-.1313.2871-.2051v4.2823c0,.32-.2543.6481-.6973.9024-1.0665.6153-2.8713.6153-3.9459,0l-1.5013-.8696v-1.7063c0-.6235-.3938-1.1977-1.1075-1.6079l.0082.0082ZM673.9086,597.8348l-5.9148-3.4127c-.2133-.123-.3363-.2707-.3363-.402s.1231-.2789.3363-.402c.5988-.3446,1.6079-.3446,2.1986,0l5.9148,3.4127c.6645.3856,1.5259.5825,2.3791.5825s1.7146-.1969,2.3791-.5825c.1067-.0656.1969-.1313.2871-.2051v4.2823c0,.32-.2543.6481-.6973.9024-1.0665.6153-2.8713.6153-3.9377,0l-1.5013-.8696v-1.7063c0-.6235-.3938-1.1977-1.1075-1.6079v.0082ZM680.8735,593.815l-5.9148-3.4127h0c-.2133-.123-.3363-.2707-.3363-.402s.1231-.2789.3363-.402c.5988-.3446,1.5997-.3446,2.1986,0l5.9148,3.4127c.6645.3856,1.5259.5825,2.3791.5825s1.7146-.1969,2.3791-.5825c.1067-.0656.1969-.1313.2871-.2051v4.2823c0,.32-.2543.6481-.6973.9024-1.0665.6153-2.8713.6153-3.9377,0l-1.5013-.8696v-1.7063c0-.6235-.3938-1.1977-1.1075-1.6079v.0082ZM687.8302,589.7952l-5.9148-3.4127c-.2133-.123-.3363-.2707-.3363-.402s.1231-.2789.3363-.402c.5988-.3446,1.6079-.3446,2.1986,0h0l5.9148,3.4127c.6645.3856,1.5259.5825,2.3791.5825s1.7146-.1887,2.3791-.5825c.1067-.0656.1969-.1313.2871-.2051v4.2823c0,.32-.2543.6481-.6973.9024-1.0665.6153-2.8713.6153-3.9459,0l-1.5013-.8696v-1.7063c0-.6235-.3938-1.1977-1.1075-1.6079l.0082.0082ZM694.795,585.7754l-5.9148-3.4127h0c-.2133-.123-.3363-.2707-.3363-.3938s.1231-.2789.3363-.402c.5988-.3446,1.6079-.3446,2.1986,0l5.9148,3.4127c.6645.3856,1.5259.5825,2.3791.5825s1.7146-.1969,2.3791-.5825c.1067-.0656.1969-.1313.2871-.2051v4.2823c0,.32-.2543.6481-.6973.9024-1.0665.6153-2.8713.6153-3.9377,0l-1.5013-.8696v-1.7063c0-.6235-.3938-1.1977-1.1075-1.6079h0ZM701.7599,581.7557l-5.9148-3.4127h0c-.2133-.123-.3363-.2707-.3363-.3938s.1231-.2789.3363-.402c.5988-.3446,1.5997-.3446,2.1986,0h0l5.9148,3.4127c.6645.3856,1.5259.5825,2.3791.5825s1.7146-.1969,2.3791-.5825c.1067-.0656.1969-.1313.2871-.2051v4.2823c0,.32-.2543.6481-.6973.9024-1.0665.6153-2.8713.6153-3.9377,0l-1.5013-.8696v-1.7063c0-.6235-.3938-1.1977-1.1075-1.6079h0ZM708.7166,577.7359l-5.9148-3.4127c-.2133-.123-.3363-.2707-.3363-.402s.1231-.2789.3363-.402c.5988-.3446,1.6079-.3446,2.1986,0l5.9148,3.4127c.6645.3856,1.5259.5825,2.3791.5825s1.7146-.1887,2.3791-.5825c.1067-.0656.1969-.1313.2871-.2051v4.2823c0,.32-.2543.6481-.6973.9024-1.0665.6153-2.8713.6153-3.9459,0l-1.5013-.8696v-1.7063c0-.6235-.3938-1.1977-1.1075-1.6079l.0082.0082ZM715.6815,573.7161l-5.9148-3.4127h0c-.2133-.123-.3363-.2707-.3363-.3938s.1231-.2789.3363-.402c.5988-.3446,1.6079-.3446,2.1986,0l5.9148,3.4127c.6645.3856,1.5259.5825,2.3791.5825s1.7146-.1969,2.3791-.5825c.1067-.0656.1969-.1313.2871-.2051v4.2823c0,.32-.2543.6481-.6973.9024-1.0665.6153-2.8713.6153-3.9377,0l-1.5013-.8696v-1.7063c0-.6235-.3938-1.1977-1.1075-1.6079h0ZM722.6463,569.6963l-5.9148-3.4127c-.2133-.123-.3363-.2707-.3363-.402s.1231-.2789.3363-.402c.5988-.3446,1.5997-.3446,2.1986,0l5.9148,3.4127c.6645.3856,1.5259.5825,2.3791.5825s1.7146-.1969,2.3791-.5825c.1067-.0656.1969-.1313.2871-.2051v4.2823c0,.32-.2543.6481-.6973.9024-1.0665.6153-2.8713.6153-3.9377,0l-1.5013-.8696v-1.7063c0-.6317-.3938-1.1977-1.1075-1.6079v.0082ZM729.603,565.6766l-5.9148-3.4127h0c-.2133-.123-.3363-.2707-.3363-.3938s.1231-.2789.3363-.402c.5988-.3446,1.6079-.3446,2.1986,0h0l5.9148,3.4127c.6645.3856,1.5259.5825,2.3791.5825s1.7146-.1887,2.3791-.5825c.1067-.0656.1969-.1313.2871-.2051v4.2823c0,.32-.2543.6481-.6973.9024-1.0665.6153-2.8713.6153-3.9459,0l-1.5013-.8696v-1.7063c0-.6235-.3938-1.1977-1.1075-1.6079h.0082ZM736.5679,561.6568l-5.9148-3.4127c-.2133-.123-.3363-.2707-.3363-.402s.1231-.2789.3363-.402c.5988-.3446,1.6079-.3446,2.1986,0l5.9148,3.4127c.6645.3856,1.5259.5825,2.3791.5825s1.7146-.1969,2.3791-.5825c.1067-.0656.1969-.1313.2871-.2051v4.2823c0,.32-.2543.6481-.6973.9024-1.0665.6153-2.8713.6153-3.9377,0h0l-1.5013-.8696v-1.7063c0-.6235-.3938-1.1977-1.1075-1.6079v.0082ZM743.5328,557.637l-5.9148-3.4127h0c-.2133-.123-.3363-.2707-.3363-.402s.1231-.2789.3363-.402c.5988-.3446,1.5997-.3446,2.1986,0l5.9148,3.4127c.6645.3856,1.5259.5825,2.3791.5825s1.7146-.1969,2.3791-.5825c.1067-.0656.1969-.1313.2871-.2051v4.2823c0,.32-.2543.6481-.6973.9024-1.0665.6153-2.8713.6153-3.9377,0l-1.5013-.8696v-1.7063c0-.6235-.3938-1.1977-1.1075-1.6079v.0082ZM750.4976,553.6173l-5.9148-3.4127c-.2133-.123-.3363-.2707-.3363-.402s.1231-.2789.3363-.402c.5988-.3446,1.6079-.3446,2.1986,0h0l5.9148,3.4127c.6645.3856,1.5259.5825,2.3791.5825s1.7146-.1887,2.3791-.5825c.1067-.0656.1969-.1313.2871-.2051v4.2823c0,.32-.2543.6481-.6973.9024-1.0665.6153-2.8713.6153-3.9459,0l-1.5013-.8696v-1.7063c0-.6235-.3938-1.1977-1.1075-1.6079l.0082.0082ZM757.4543,549.5975l-5.9148-3.4127h0c-.2133-.123-.3363-.2707-.3363-.3938s.1231-.2789.3363-.402c.5988-.3446,1.6079-.3446,2.1986,0l5.9148,3.4127c.6645.3856,1.5259.5825,2.3791.5825s1.7146-.1969,2.3791-.5825c.1067-.0656.1969-.1313.2871-.2051v4.2823c0,.32-.2543.6481-.6973.9024-1.0665.6153-2.8713.6153-3.9377,0l-1.5013-.8696v-1.7063c0-.6235-.3938-1.1977-1.1075-1.6079h0ZM764.4191,545.5777l-5.9148-3.4127h0c-.2133-.123-.3363-.2707-.3363-.3938s.1231-.2789.3363-.402c.5988-.3446,1.5997-.3446,2.1986,0h0l5.9148,3.4127c.6645.3856,1.5259.5825,2.3791.5825s1.7146-.1969,2.3791-.5825c.1067-.0656.1969-.1313.2871-.2051v4.2823c0,.32-.2543.6481-.6973.9024-1.0665.6153-2.8713.6153-3.9377,0l-1.5013-.8696v-1.7063c0-.6235-.3938-1.1977-1.1075-1.6079h0ZM771.384,541.5579h0l-5.9148-3.4127c-.2133-.123-.3363-.2707-.3363-.402s.1231-.2789.3363-.402c.5988-.3446,1.6079-.3446,2.1986,0l5.9148,3.4127c.6645.3856,1.5259.5825,2.3791.5825s1.7146-.1887,2.3791-.5825c.1067-.0656.1969-.1313.2871-.2051v4.2823c0,.32-.2543.6481-.6973.9024-1.0665.6153-2.8713.6153-3.9459,0l-1.5013-.8696v-1.7063c0-.6235-.3938-1.1977-1.1075-1.6079l.0082.0082ZM778.3407,537.5382l-5.9148-3.4127h0c-.2133-.123-.3363-.2707-.3363-.3938s.1231-.2789.3363-.402c.5988-.3446,1.6079-.3446,2.1986,0l5.9148,3.4127c.6645.3856,1.5259.5825,2.3791.5825s1.7146-.1969,2.3791-.5825c.1067-.0656.1969-.1313.2871-.2051v4.2823c0,.32-.2543.6481-.6973.9024-1.0665.6153-2.8713.6153-3.9377,0l-1.5013-.8696v-1.7063c0-.6235-.3938-1.1977-1.1075-1.6079h0ZM785.3056,533.5184l-5.9148-3.4127c-.2133-.123-.3363-.2707-.3363-.402s.1231-.2789.3363-.402c.5988-.3446,1.5997-.3446,2.1986,0l5.9148,3.4127c.6645.3856,1.5259.5825,2.3791.5825s1.7146-.1969,2.3791-.5825c.1067-.0656.1969-.1313.2871-.2051v4.2823c0,.32-.2543.6481-.6973.9024-1.0665.6153-2.8713.6153-3.9377,0l-1.5013-.8696v-1.7063c0-.6317-.3938-1.1977-1.1075-1.6079v.0082ZM799.5143,532.78c0,.3199-.2543.6481-.6973.9024-1.0665.6153-2.8713.6153-3.9459,0l-1.5013-.8696v-1.7064c0-.6235-.3938-1.1977-1.1075-1.6079l-5.9148-3.4127h0c-.2133-.123-.3363-.2707-.3363-.3938s.1231-.2789.3363-.402c.5988-.3446,1.6079-.3446,2.1986,0h0l5.9148,3.4127c.6645.3856,1.5259.5825,2.3791.5825s1.7146-.1887,2.3791-.5825c.1067-.0656.1969-.1313.2871-.2051v4.2823h.0082ZM807.5374,527.8989c0,.4758-.3692.9598-1.009,1.329h0c-1.5013.8614-3.9377.8614-5.439,0l-.7547-.4348v-1.7064c0-.6235-.3938-1.1977-1.1075-1.6079l-5.9148-3.4127c-.2133-.123-.3363-.2707-.3363-.402s.1231-.2789.3363-.402c.5988-.3446,1.6079-.3446,2.1986,0h0l5.1683,2.9861c.8778.5086,2.0017.7629,3.1256.7629s2.2478-.2543,3.1256-.7629h0c.2215-.1313.4184-.2707.5988-.4184v4.069h.0082ZM806.5366,523.5346h0c-1.5013.8614-3.9377.8614-5.439,0l-5.1683-2.9861h0c-.845-.484-2.174-.484-3.0189,0-.4758.2707-.7465.6809-.7465,1.1075s.2707.8368.7465,1.1075l5.9148,3.4127c.443.2543.6973.5825.6973.9024s-.2543.6481-.6973.9024c-1.0665.6153-2.8713.6153-3.9459,0l-5.9148-3.4127h0c-.845-.484-2.174-.484-3.0189,0-.4758.2707-.7465.6809-.7465,1.1075s.2707.8368.7465,1.1075h0l5.9148,3.4127c.443.2543.6973.5825.6973.9024s-.2543.6481-.6973.9024c-1.0665.6153-2.8713.6153-3.9377,0l-5.9148-3.4127c-.845-.4922-2.174-.4922-3.0189,0-.4758.2707-.7465.6809-.7465,1.1075s.2707.8368.7465,1.1075l5.9148,3.4127c.443.2543.6973.5825.6973.9024s-.2543.6481-.6973.9024c-1.0665.6153-2.8713.6153-3.9377,0l-5.9148-3.4127c-.845-.4922-2.174-.4922-3.0189,0-.4758.2707-.7465.6809-.7465,1.1075s.2707.8368.7465,1.1075h0l5.9148,3.4127c.443.2543.6973.5825.6973.9024s-.2543.6481-.6973.9024c-1.0665.6153-2.8713.6153-3.9459,0l-5.9148-3.4127c-.845-.4922-2.174-.4922-3.0189,0-.4758.2707-.7465.6809-.7465,1.1075s.2707.8368.7465,1.1075l5.9148,3.4127h0c.443.2543.6973.5825.6973.9024s-.2543.6481-.6973.9024c-1.0665.6153-2.8713.6153-3.9377,0l-5.9148-3.4127h0c-.8532-.484-2.174-.484-3.0189,0-.4758.2707-.7465.6809-.7465,1.1075s.2707.8368.7465,1.1075h0l5.9148,3.4127c.443.2543.6973.5825.6973.9024s-.2543.6481-.6973.9024c-1.0665.6153-2.8713.6153-3.9377,0l-5.9148-3.4127c-.845-.4922-2.174-.4922-3.0189,0-.4758.2707-.7465.6809-.7465,1.1075s.2707.8368.7465,1.1075h0l5.9148,3.4127c.443.2543.6973.5825.6973.9024s-.2543.6481-.6973.9024c-1.0665.6153-2.8713.6153-3.9459,0l-5.9148-3.4127h0c-.845-.484-2.174-.484-3.0189,0-.4758.2707-.7465.6809-.7465,1.1075s.2707.8368.7465,1.1075l5.9148,3.4127c.443.2543.6973.5825.6973.9024s-.2543.6481-.6973.9024c-1.0665.6153-2.8713.6153-3.9377,0l-5.9148-3.4127c-.845-.4922-2.174-.4922-3.0189,0-.4758.2707-.7465.6809-.7465,1.1075s.2707.8368.7465,1.1075h0l5.9148,3.4127c.443.2543.6973.5825.6973.9024s-.2543.6481-.6973.9024c-1.0665.6153-2.8713.6153-3.9377,0l-5.9148-3.4127c-.845-.4922-2.174-.4922-3.0189,0-.4758.2707-.7465.6809-.7465,1.1075s.2707.8368.7465,1.1075l5.9148,3.4127c.443.2543.6973.5825.6973.9024s-.2543.6481-.6973.9024c-1.0665.6153-2.8713.6153-3.9459,0l-5.9148-3.4127h0c-.8532-.484-2.174-.484-3.0189,0-.4758.2707-.7465.6809-.7465,1.1075s.2707.8368.7465,1.1075h0l5.9148,3.4127c.443.2543.6973.5825.6973.9024s-.2543.6481-.6973.9024c-1.0665.6153-2.8713.6153-3.9377,0l-5.9148-3.4127c-.845-.4922-2.174-.4922-3.0189,0-.4758.2707-.7465.6809-.7465,1.1075s.2707.8368.7465,1.1075l5.9148,3.4127c.443.2543.6973.5825.6973.9024s-.2543.6481-.6973.9024c-1.0665.6153-2.8713.6153-3.9377,0l-5.9148-3.4127c-.845-.484-2.174-.4922-3.0189,0-.4758.2707-.7465.6809-.7465,1.1075s.2707.8368.7465,1.1075h0l5.9148,3.4127c.443.2543.6973.5825.6973.9024s-.2543.6481-.6973.9024c-1.0665.6153-2.8713.6153-3.9459,0l-5.9148-3.4127c-.845-.4922-2.174-.4922-3.0189,0-.4758.2707-.7465.6809-.7465,1.1075s.2707.8368.7465,1.1075l5.9148,3.4127c.443.2543.6973.5825.6973.9024s-.2543.6481-.6973.9024c-1.0665.6153-2.8713.6153-3.9377,0l-5.9148-3.4127h0c-.845-.484-2.174-.484-3.0189,0-.4758.2707-.7465.6809-.7465,1.1075s.2707.8368.7465,1.1075h0l5.9148,3.4127c.443.2543.6973.5825.6973.9024s-.2543.6481-.6973.9024c-1.0665.6153-2.8713.6153-3.9377,0l-5.9148-3.4127c-.845-.4922-2.174-.4922-3.0189,0-.4758.2707-.7465.6809-.7465,1.1075s.2707.8368.7465,1.1075h0l5.9148,3.4127c.443.2543.6973.5825.6973.9024s-.2543.6481-.6973.9024c-1.0665.6153-2.8713.6153-3.9459,0l-5.9148-3.4127h0c-.845-.484-2.174-.484-3.0189,0-.4758.2707-.7465.6809-.7465,1.1075s.2707.8368.7465,1.1075l5.9148,3.4127c.443.2543.6973.5825.6973.9024s-.2543.6481-.6973.9024c-1.0665.6153-2.8713.6153-3.9377,0l-5.9148-3.4127c-.845-.4922-2.174-.4922-3.0189,0-.4758.2707-.7465.6809-.7465,1.1075s.2707.8368.7465,1.1075h0l5.9148,3.4127c.443.2543.6973.5825.6973.9024s-.2543.6481-.6973.9024c-1.0665.6153-2.8713.6153-3.9377,0l-5.9148-3.4127c-.845-.4922-2.174-.4922-3.0189,0-.4758.2707-.7465.6809-.7465,1.1075s.2707.8368.7465,1.1075l5.9148,3.4127c.443.2543.6973.5825.6973.9024s-.2543.6481-.6973.9024c-1.0665.6153-2.8713.6153-3.9459,0l-5.9148-3.4127h0c-.845-.484-2.174-.484-3.0189,0-.4758.2707-.7465.6809-.7465,1.1075s.2707.8368.7465,1.1075l5.9148,3.4127c.443.2543.6973.5825.6973.9024s-.2543.6481-.6973.9024c-1.0665.6153-2.8713.6153-3.9377,0l-5.9148-3.4127c-.845-.4922-2.174-.4922-3.0189,0-.4758.2707-.7465.6809-.7465,1.1075s.2707.8368.7465,1.1075l5.9148,3.4127c.443.2543.6973.5825.6973.9024s-.2543.6481-.6973.9024c-1.0665.6153-2.8713.6153-3.9377,0l-5.9148-3.4127h0c-.845-.484-2.174-.484-3.0189,0-.4758.2707-.7465.6809-.7465,1.1075s.2707.8368.7465,1.1075h0l5.9148,3.4127c.443.2543.6973.5825.6973.9024s-.2543.6481-.6973.9024c-1.0665.6153-2.8713.6153-3.9459,0l-5.9148-3.4127c-.845-.4922-2.174-.4922-3.0189,0-.4758.2707-.7465.6809-.7465,1.1075s.2707.8368.7465,1.1075l5.9148,3.4127h0c.443.2543.6973.5825.6973.9024s-.2543.6481-.6973.9024c-1.0665.6153-2.8713.6153-3.9377,0l-5.9148-3.4127h0c-.845-.484-2.174-.484-3.0189,0-.4758.2707-.7465.6809-.7465,1.1075s.2707.8368.7465,1.1075l5.9148,3.4127c.443.2543.6973.5825.6973.9024s-.2543.6481-.6973.9024c-1.0665.6153-2.8713.6153-3.9377,0l-5.9148-3.4127c-.845-.4922-2.174-.4922-3.0189,0-.4758.2707-.7465.6809-.7465,1.1075s.2707.8368.7465,1.1075h0l5.9148,3.4127c.443.2543.6973.5825.6973.9024s-.2543.6481-.6973.9024c-1.0665.6153-2.8713.6153-3.9459,0l-5.9148-3.4127h0c-.8532-.484-2.174-.484-3.0189,0-.4758.2707-.7465.6809-.7465,1.1075s.2707.8368.7465,1.1075l5.9148,3.4127c.443.2543.6973.5825.6973.9024s-.2543.6481-.6973.9024c-1.0665.6153-2.8713.6153-3.9377,0l-5.9148-3.4127h0c-.845-.484-2.174-.484-3.0189,0-.4758.2707-.7465.6809-.7465,1.1075s.2707.8368.7465,1.1075h0l5.9148,3.4127c.443.2543.6973.5825.6973.9024s-.2543.6481-.6973.9024c-1.0665.6153-2.8713.6153-3.9377,0l-5.9148-3.4127c-.845-.4922-2.174-.4922-3.0189,0-.4758.2707-.7465.6809-.7465,1.1075s.2707.8368.7465,1.1075l5.9148,3.4127c.443.2543.6973.5825.6973.9024s-.2543.6481-.6973.9024c-1.0665.6153-2.8713.6153-3.9459,0l-5.9148-3.4127h0c-.845-.484-2.174-.484-3.0189,0-.4758.2707-.7465.6809-.7465,1.1075s.2707.8368.7465,1.1075h0l5.9148,3.4127c.443.2543.6973.5825.6973.9024s-.2543.6481-.6973.9024c-1.0665.6153-2.8713.6153-3.9377,0l-5.9148-3.4127c-.845-.4922-2.174-.4922-3.0189,0-.4758.2707-.7465.6809-.7465,1.1075s.2707.8368.7465,1.1075l5.9148,3.4127c.443.2543.6973.5825.6973.9024s-.2543.6481-.6973.9024c-1.0665.6153-2.8713.6153-3.9377,0l-5.9148-3.4127c-.845-.4922-2.174-.4922-3.0189,0-.4758.2707-.7465.6809-.7465,1.1075s.2707.8368.7465,1.1075h0l5.9148,3.4127c.443.2543.6973.5825.6973.9024s-.2543.6481-.6973.9024c-1.0665.6153-2.8713.6153-3.9459,0l-5.9148-3.4127c-.845-.4922-2.174-.4922-3.0189,0-.4758.2707-.7465.6809-.7465,1.1075s.2707.8368.7465,1.1075l5.9148,3.4127c.443.2543.6973.5825.6973.9024s-.2543.6481-.6973.9024c-1.0665.6153-2.8713.6153-3.9377,0l-5.9148-3.4127h0c-.845-.484-2.174-.484-3.0189,0-.4758.2707-.7465.6809-.7465,1.1075s.2707.8368.7465,1.1075l5.9148,3.4127c.443.2543.6973.5825.6973.9024s-.2543.6481-.6973.9024c-1.0665.6153-2.8713.6153-3.9377,0l-5.9148-3.4127c-.845-.4922-2.174-.4922-3.0189,0-.4758.2707-.7465.6809-.7465,1.1075s.2707.8368.7465,1.1075h0l5.9148,3.4127c.443.2543.6973.5825.6973.9024s-.2543.6481-.6973.9024c-1.0665.6153-2.8713.6153-3.9459,0l-5.9148-3.4127h0c-.845-.484-2.174-.484-3.0189,0-.4758.2707-.7465.6809-.7465,1.1075s.2707.8368.7465,1.1075l5.9148,3.4127c.443.2543.6973.5825.6973.9024s-.2543.6481-.6973.9024c-1.0665.6153-2.8713.6153-3.9377,0l-5.9148-3.4127h0c-.8532-.484-2.174-.484-3.0189,0-.4758.2707-.7465.6809-.7465,1.1075s.2707.8368.7465,1.1075h0l5.9148,3.4127c.443.2543.6973.5825.6973.9024s-.2543.6481-.6973.9024c-1.0665.6153-2.8713.6153-3.9377,0l-5.9148-3.4127c-.845-.4922-2.174-.4922-3.0189,0-.4758.2707-.7465.6809-.7465,1.1075s.2707.8368.7465,1.1075l5.1683,2.9861c.6481.3774,1.0091.845,1.0091,1.329s-.361.9598-1.0091,1.329h0c-1.5013.8614-3.9377.8614-5.439,0h0l-33.4215-19.2949,61.9127-35.7432h0l25.2097-14.5532h0l177.0095-102.2007,33.8317,19.5328c.6481.3774,1.009.845,1.009,1.329s-.3527.9598-1.0008,1.329l-.1154.0157ZM446.857,362.9815c2.297,0,4.1018-1.1157,4.1018-2.5431s-1.8048-2.5431-4.1018-2.5431-4.1018,1.1157-4.1018,2.5431,1.8048,2.5431,4.1018,2.5431ZM446.857,358.7238c1.7802,0,3.2814.7875,3.2814,1.7228s-1.5013,1.7228-3.2814,1.7228-3.2814-.7875-3.2814-1.7228,1.5013-1.7228,3.2814-1.7228ZM265.8277,467.4956c2.297,0,4.1018-1.1157,4.1018-2.5431s-1.8048-2.5431-4.1018-2.5431-4.1018,1.1157-4.1018,2.5431,1.8048,2.5431,4.1018,2.5431ZM265.8277,463.2298c1.7802,0,3.2814.7876,3.2814,1.7228s-1.5013,1.7228-3.2814,1.7228-3.2814-.7876-3.2814-1.7228,1.5013-1.7228,3.2814-1.7228ZM562.7578,634.6034c-2.297,0-4.1018,1.1157-4.1018,2.5431s1.8048,2.5431,4.1018,2.5431,4.1018-1.1157,4.1018-2.5431-1.8048-2.5431-4.1018-2.5431ZM562.7578,638.8611c-1.7802,0-3.2814-.7875-3.2814-1.7228s1.5013-1.7228,3.2814-1.7228,3.2814.7875,3.2814,1.7228-1.5013,1.7228-3.2814,1.7228ZM743.7871,530.0893c-2.297,0-4.1018,1.1157-4.1018,2.5431s1.8048,2.5431,4.1018,2.5431,4.1018-1.1157,4.1018-2.5431-1.8048-2.5431-4.1018-2.5431h0ZM743.7871,534.3469c-1.7802,0-3.2814-.7875-3.2814-1.7228s1.5013-1.7228,3.2814-1.7228,3.2814.7876,3.2814,1.7228-1.5013,1.7228-3.2814,1.7228ZM667.7149,616.0058l-20.8864,12.0593c-2.9451,1.6982-6.2184,5.357-7.3012,8.1544-.6809,1.7556-.2871,2.5841.1559,2.9615.2789.2379.6563.361,1.0993.361.7137,0,1.6161-.3035,2.6498-.9024l20.8864-12.0593c2.9451-1.6982,6.2184-5.357,7.3012-8.1544.6809-1.7556.2871-2.5759-.1559-2.9615-.7301-.6235-2.0673-.4348-3.7491.5414ZM670.8569,618.1305c-1.0172,2.6416-4.1346,6.1117-6.9403,7.736l-20.8864,12.0593c-1.5587.9024-2.4693.9188-2.8056.6317s-.3117-1.0501.0739-2.0427c1.0172-2.6416,4.1346-6.1117,6.9403-7.736l20.8864-12.0593c1.5587-.8942,2.4693-.9106,2.8056-.6317.3363.2871.3117,1.0501-.0739,2.0427Z"/>
  </g>
  <g id="Layer_3" data-name="Layer 3">
    <polygon points="571.09 617.85 543.37 633.85 543.23 633.61 318.29 503.87 345.98 487.89 571.09 617.85"/>
    <path d="M523.5,709.61h.06c-.52,1.88-22.5,5.69-29.38,6.83-1.3616.2261-2.67.7007-3.86,1.4l-10.18,6c-3.9153,2.2943-8.7647,2.2943-12.68,0l-24.29-14.26c-1.2924-.744-1.7369-2.3947-.993-3.687.2376-.4128.5802-.7554.993-.993l65.29-36.9v3.81l.63.36-.63.37v23.42c0,3.2,1.11,5.64,3.07,6.77l11.97,6.88Z"/>
    <path d="M239.52,545.66l.14.08c-5.77,3.3-13.07,4-20.08,4s-29.48-.33-43.52-.82-15-2-20-5.12c-3.65-2.31-15.45-9.64-21.41-13.34-1.1605-.717-1.5201-2.239-.8031-3.3995.2182-.3532.5219-.6457.8831-.8505l72.11-41.35,4.25,2.45-.66.38,3.81,14.27.85.49h0l-.62.36,7.38,27.68c.7519,3.4225,2.8165,6.4134,5.75,8.33l11.92,6.84Z"/>
  </g>
</svg>