<?xml version="1.0" encoding="UTF-8"?>
<svg xmlns="http://www.w3.org/2000/svg" viewBox="0 0 1000 1000">
  <g id="Layer_2" data-name="Layer 2">
    <path d="M680.8122,348.8027v-.0992h0c0-.018-.018-.0271-.0271-.0451v-.018c-.009-.0271-.018-.0541-.0361-.0812,0,0,0-.009-.009-.018-.018-.018-.0361-.0271-.0541-.0451-.018-.018-.0451-.0451-.0721-.0631l-.009-.009-117.6676-67.9202h0c-.0541-.0271-.1082-.0451-.1623-.0541-.0631,0-.1172,0-.1714.009h0l-188.564,51.9841h0c-.018,0-.0361.018-.0541.0271-.0271.009-.0541.0271-.0812.0451,0,0-.009,0-.018.009-.018.018-.0271.0361-.0451.0451-.018.018-.0451.0451-.0631.0722l-.009.009h0c-.009.0271-.018.0541-.0271.0722,0,.018-.018.0361-.0271.0631l-1.3799,6.8993v.1894c0,.0271.018.0541.0361.0812.009.0271.018.0541.0361.0722l.0541.0541c.0271.018.0451.0451.0722.0631l.009.009,2.6515,1.5332-74.3596,93.2629s0,.018-.009.0271c0,.009-.018.018-.018.0271h0c-.009.018-.009.0361-.018.0541-.009.0271-.018.0541-.0271.0722v.1984c0,.018.018.0361.0271.0541.009.0271.018.0541.0361.0722,0,0,0,.018.009.0271h0v.009l2.7507,3.842h0c.0361.0451.0812.0902.1353.1263l6.9174,3.9953v178.1653s0,.0361.009.0541c0,.0271,0,.0631.018.0902.009.0271.0271.0541.0361.0721.018.0271.0271.0451.0451.0721s.0451.0451.0721.0631c.018.009.0271.0271.0361.0361l2.868,1.6594,114.7906,66.2698h.018c.0631.0271.1263.0541.1984.0541h0c.0722,0,.1353-.018.1984-.0541h.018l5.4654-3.1566,229.5812-132.5485,5.4654-3.1566.0361-.0361c.0271-.018.0541-.0361.0721-.0631.018-.018.0361-.0451.0451-.0721.018-.0271.0271-.0451.0361-.0812.009-.0271.018-.0631.018-.0902,0-.018.009-.0361.009-.0541v-191.9279l9.3975-2.5884h.009c.0451-.018.0902-.0361.1263-.0631,0,0,.018,0,.0271-.009.0451-.0361.0812-.0722.1082-.1263.009-.018.018-.0361.018-.0541.009-.0271.0271-.0541.0361-.0812l1.3799-6.8993v-.1172l.0361-.009ZM562.6486,281.3786l116.5673,67.2979-187.3284,51.6504-116.5673-67.2979,187.3284-51.6504ZM373.2819,339.5585l1.1905-5.9704,116.8379,67.4512-1.1905,5.9704-116.8379-67.4512ZM375.9966,342.1649l114.2134,65.9451s.0271,0,.0361.009c.0361.018.0631.0361.0992.0451h.0902c.0361,0,.0812,0,.1172-.018l4.4823-1.2356-76.2986,95.6618-116.8649-67.4692,74.1251-92.9382ZM313.5147,622.5127l-1.9661-1.1364v-177.3897l1.9661,1.1364v177.3897h0ZM304.2615,438.7377l-1.4881-2.0743,115.7646,66.8379,1.4881,2.0743-115.7646-66.8379ZM329.4689,488.449l20.9866,12.1122h0l1.7947,1.0372v5.2669l-27.3448-15.7918,4.5635-2.6335v.009ZM324.4635,490.3068v-38.2034l4.5635,2.6335v32.9365l-4.5635,2.6335ZM351.5828,500.1734l.6764-.3878v.7756l-.6764-.3878h0ZM350.681,499.6503l-20.7612-11.9859v-11.075l18.4794-10.6692,3.851,2.2276v30.5916l-1.5783.9109h.009ZM345.5313,464.2697l1.9661,1.1364-17.5775,10.1461v-2.2727l15.6114-9.0097h0ZM329.9198,472.2333v-16.9823l14.7096,8.4866-14.7096,8.4866v.009ZM428.3053,688.7824l-113.8887-65.7557v-177.3897l9.2803,5.3571s-.0271.0361-.0361.0541-.0271.0271-.0361.0451v.0271l-.0271.0812c0,.0271-.018.0631-.018.0902v39.8809c0,.018.009.0361.018.0631,0,.018.009.0361.018.0541v.0271s.009.009.018.018c.009.018.0271.0361.0361.0541.018.0271.0451.0451.0721.0631.018.009.0271.0271.0361.0361h0l28.6977,16.5674h.018c.0631.0361.1263.0541.2074.0541h0c.0722,0,.1443-.018.1984-.0541.018,0,.0271-.018.0451-.0271.0451-.0271.0812-.0722.1172-.1172,0-.009.018-.018.0271-.0271v-.0271c.009-.0271.018-.0541.0271-.0812,0-.0271.018-.0631.018-.0902v-39.6735l68.2268,39.3939h.009c.0631.0361.1353.0541.2074.0541h0c.0722,0,.1443-.018.2074-.0541.009,0,.018-.018.0361-.0271h.018l.0541-.0541c.009-.009.0271-.018.0361-.0271l6.3402-7.9455v189.4388l.0361-.009ZM428.4045,496.2322h0l-.5772.7305s0,.018-.009.0271c-.018.0271-.0271.0541-.0451.0812-.009.0271-.0271.0541-.0271.0812v.1714c0,.0271.018.0541.0271.0812s.018.0631.0361.0902c0,0,0,.018.009.0271l.3788.5321-6.5566,8.2251-2.2186-3.0844,77.1013-96.6719,5.9975-1.6504-67.6947,84.8754-.2345-.3247-.0271-.0271-.0451-.0451s0-.009-.018-.018c0,0-.018,0-.0271-.009-.018-.009-.0361-.0271-.0541-.0361s-.0361-.018-.0541-.0271c-.018,0-.0271-.009-.0451-.018h-.1714c-.0271,0-.0451.009-.0722.018-.018,0-.0361.009-.0541.018-.018,0-.0271.018-.0361.0271,0,0-.018,0-.0271.009-.009,0-.018.018-.0271.0271-.018.018-.0361.0271-.0451.0451l-.018.018-5.4654,6.8543v-.0271ZM523.417,476.3819c.0541.018.0992.0451.1623.0451.018,0,.0451-.018.0631-.018.1082.009.2165.0361.3247.0361.5952,0,1.1905-.1353,1.6594-.4058l.2255-.1353c.1714-.0992.3066-.2165.4239-.3337,0,0,.018,0,.0271-.018.0361-.0271.0541-.0722.0812-.1082.1804-.2345.2886-.487.2886-.7576,0-.4329-.2615-.8387-.7125-1.1364v-74.0529l1.7677-1.0191,27.4621,15.855v78.4c-.4509.2976-.7125.7035-.7125,1.1364,0,.2706.1082.5321.2886.7576.0271.0361.0451.0812.0812.1082,0,0,.018.009.0271.018.1172.1263.2525.2345.4239.3337h0l16.5404,9.5508-137.1751,79.1936v-92.9472s.0812.0271.1263.0271h0c.0722,0,.1443-.018.2074-.0541.009,0,.018-.018.0361-.0271h.018l.0541-.0541c.009-.009.0271-.018.0361-.0271l35.5158-44.5255,51.6323,29.807s.0631.018.0902.0361c.0631.0451.1263.0722.1984.0812.2615.1082.5321.1894.8297.2255l.009.009ZM523.0923,475.3898v-76.2084l1.9661-.5411v75.9559l-1.5602.9019c-.1443-.0271-.2796-.0631-.4149-.1082h.009ZM525.9603,398.4509v-.0722l.2255-.0631-.2255.1263v.009ZM556.0829,414.0173s0-.0631-.018-.0902c-.009-.0271-.0271-.0541-.0361-.0722-.018-.0271-.0271-.0451-.0451-.0722s-.0451-.0451-.0721-.0631c-.018-.009-.0271-.0271-.0451-.0361l-27.5974-15.9361,44.1377-12.1663v118.353l-16.3149-9.4246v-80.4382s0-.0361-.009-.0541h0ZM522.1905,474.9389l-50.9559-29.4191,32.7561-41.0714,18.1908-5.0144v75.5049h.009ZM433.7707,680.0974v6.0516l-4.5635,2.6335v-192.1083l4.5635-5.7179v93.344l-.9199.5321s-.0271.0271-.0361.0361c-.0271.018-.0541.0361-.0722.0631-.018.018-.0361.0451-.0451.0721-.018.0271-.0271.0451-.0361.0721s-.018.0631-.018.0902c0,.018-.009.0361-.009.0541v3.4722c0,.0271.009.0631.018.0902,0,.0271.018.0541.0271.0812v.0271c0,.009.018.018.0271.0271.0361.0451.0722.0812.1172.1172.018.009.0271.018.0451.0271.0631.0271.1263.0541.1984.0541h0c.0722,0,.1443-.0271.2074-.0541h.018l.469-.2706v91.3148l.009-.0091ZM663.3429,553.6004l-228.6793,132.0254v-5.2669l67.0905-38.7355v.5682c0,.0271.009.0541.018.0902,0,.0271.018.0631.0271.0902v.0271c0,.009.018.018.0271.0271.0361.0451.0722.0812.1172.1172.018.009.0271.018.0451.0271.0631.0271.1263.0541.1984.0541s.1443-.0271.2074-.0541h.018l3.0483-1.7587h0s.0271-.0271.0361-.0361c.0271-.018.0541-.0361.0722-.0631.018-.018.0271-.0361.0361-.0541,0,0,.009,0,.018-.018v-.0271c0-.018.018-.0361.018-.0541s.009-.0361.018-.0631v-1.1544l157.6387-91.0082v5.2669h.0451ZM501.3031,640.8478l-66.6395,38.474v-76.948l66.6395,38.474ZM434.6725,601.3366v-13.1403l67.1806-38.7896v90.7106l-67.1806-38.7896v.009ZM502.746,640.938v-92.9743l1.9661-1.1364v92.9743l-1.9661,1.1364ZM505.623,638.3586v-91.1254l78.3639-45.2471,78.914,45.5627-157.2779,90.8007v.009ZM663.3429,546.7732l-78.4631-45.3012,78.4631-45.3012v90.6023ZM505.7312,546.1239v-.3066c0-.0271-.009-.0541-.018-.0902,0-.0271-.018-.0631-.0271-.0902v-.0271c-.009-.018-.0271-.0271-.0361-.0451-.018-.0271-.0361-.0451-.0631-.0721-.0271-.018-.0451-.0361-.0722-.0451-.0271-.018-.0451-.0271-.0722-.0361s-.0631-.018-.0992-.018c-.018,0-.0361-.009-.0541-.009h-.0271c-.0271,0-.0631.009-.0902.018-.0271,0-.0631.018-.0902.0271h-.0271l-3.1025,1.7857s-.009.009-.018.018c-.018.009-.0361.0271-.0541.0361-.018.018-.0271.0271-.0451.0451-.009.018-.0271.0271-.0361.0451,0,0-.009.009-.018.018v.0271l-.0271.0541c0,.018-.009.0361-.018.0631v.8838l-68.1006,39.3127v-2.2727l138.6542-80.0504v.3066c0,.0271.009.0541.018.0902,0,.0271.018.0631.0271.0902v.0271c0,.009.018.018.0271.0271.0361.0451.0721.0812.1172.1172.018.009.0271.018.0451.0271.0631.0271.1263.0541.1984.0541s.1443-.0271.2074-.0541h.018l3.0934-1.7857h0s.0271-.0271.0361-.0361c.0271-.018.0541-.0361.0721-.0631.018-.018.0271-.0361.0361-.0541,0,0,.009,0,.018-.018v-.0271c.009-.018.018-.0361.0271-.0541,0-.018.009-.0361.018-.0631v-.8838l88.0861-50.8567v2.2727l-158.6488,91.5944.0452.018ZM573.3087,504.7278v-119.6156l1.9661-1.1364v119.6156l-1.9661,1.1364h0ZM662.9551,452.0403l-86.7694,50.0991v-100.1983l86.7694,50.0991ZM576.1767,400.904v-16.36l87.1662-24.035v90.7196l-87.1662-50.3246h0ZM668.8082,550.4439l-4.5635,2.6335v-97.3664l.9199-.5321h0s.0271-.0271.0451-.0361c.0271-.018.0451-.0361.0721-.0631.018-.018.0271-.0361.0361-.0541,0,0,.009,0,.018-.018v-.0271c.009-.018.018-.0361.0271-.0541,0-.018.009-.0361.018-.0631v-3.5534c0-.0271-.009-.0541-.018-.0902,0-.0271-.018-.0631-.0271-.0902v-.0271c-.009-.018-.0271-.0271-.0361-.0361-.018-.0271-.0361-.0541-.0631-.0722s-.0451-.0361-.0721-.0451c-.0271-.018-.0451-.0271-.0721-.0361s-.0631-.018-.0992-.018c-.018,0-.0361-.009-.0541-.009h-.0271c-.0271,0-.0631.009-.0902.018-.0271,0-.0541.018-.0812.0271h-.0271l-.469.2706v-92.3429l4.5635-1.2536v192.8388ZM678.6026,355.3593l-8.7482,2.417.1443-.7305v-.2164c0-.0271-.018-.0451-.0361-.0631-.009-.0271-.0271-.0541-.0451-.0812s-.0361-.0451-.0631-.0631c-.018-.018-.0361-.0361-.0631-.0541s-.0541-.0271-.0902-.0361c-.018,0-.0361-.018-.0631-.0271h-.2074l-.2886.0812h0l-5.4654,1.5061s-.018.009-.0271.009c-.0271,0-.0451.018-.0721.0361-.018,0-.0271.018-.0451.0271-.009.009-.0271.018-.0361.0271-.018.018-.0361.0361-.0451.0541-.009.018-.0271.0271-.0361.0451,0,.018-.018.0271-.018.0451-.009.018-.018.0451-.0271.0722,0,.018-.018.0271-.018.0451l-.2345,1.1815-86.8054,23.9358.0721-.3698v-.2164c0-.018-.018-.0361-.0271-.0541-.009-.0271-.0271-.0631-.0451-.0902-.018-.018-.0361-.0361-.0541-.0541-.0271-.018-.0451-.0451-.0721-.0631s-.0541-.0271-.0812-.0361c-.018,0-.0361-.018-.0631-.0271h-.2164l-.2435.0631h0l-2.6515.7305s-.0451.018-.0631.0271c-.0271.009-.0541.018-.0721.0361-.0271.018-.0541.0451-.0721.0722-.018.018-.0361.0361-.0451.0541-.018.0271-.0271.0631-.0451.0992,0,.018-.018.0361-.018.0541l-.1623.8117-81.4212,22.4477,1.1815-5.9163,187.5809-51.7225-1.1815,5.9163-.0092.027Z" style="stroke: #000; stroke-miterlimit: 10;"/>
  </g>
  <g id="Layer_3" data-name="Layer 3">
    <polygon points="425.65 689.03 200.34 763.56 187.79 769.5 69.22 696.84 79.46 686.27 69.22 684.29 310.45 561.1 310.45 622.53 313.33 624.19 425.65 689.03" style="fill: #333; stroke: #000; stroke-miterlimit: 10;"/>
  </g>
</svg>