<?xml version="1.0" encoding="UTF-8"?>
<svg xmlns="http://www.w3.org/2000/svg" viewBox="0 0 1000 1000">
  <g id="Layer_2" data-name="Layer 2">
    <path d="M499.9928,420.9541c-14.9177,0-27.0563,7.142-27.0563,15.9256,0,1.7999.5328,3.5278,1.4831,5.1549.0288.144.1152.2592.2304.36h0c.0288.144.1152.2592.216.36,3.9886,5.8749,13.7369,10.0507,25.1124,10.0507s21.1382-4.1758,25.1268-10.0507c.1008-.1008.1872-.216.216-.36h0c.1152-.1008.2016-.2304.2304-.3744.9504-1.6127,1.4831-3.355,1.4831-5.1549,0-8.7836-12.1386-15.9256-27.0563-15.9256l.0144.0144ZM499.9928,451.3654c-10.7851,0-20.015-3.8014-23.7876-9.1435,2.5775-4.1758,8.4668-7.4732,15.8968-8.87,13.089-2.4623,27.1427,1.5263,31.664,8.8844-3.7726,5.3421-13.0026,9.1292-23.7732,9.1291ZM524.774,440.4796c-5.5437-7.4876-20.1734-11.3754-33.5647-8.6828-7.2572,1.4543-12.9738,4.6078-15.9832,8.6972-.5328-1.1519-.8352-2.3615-.8352-3.6142,0-7.9916,11.4906-14.4857,25.6163-14.4857s25.6163,6.4941,25.6163,14.4857c0,1.2527-.3168,2.4479-.8352,3.6142l-.0144-.0144ZM521.7357,410.9466c0,1.8863.648,3.6718,1.8143,5.3133.0432.1008.1152.2016.216.2736h0c.0576.1152.1296.2304.2448.3168h.0288c3.7438,4.5934,11.6778,7.7756,20.8646,7.7756s17.1208-3.1822,20.8646-7.7756h.0288c.1152-.0864.1872-.2016.2448-.3168h0c.1008-.072.1728-.1728.216-.2736,1.1663-1.6271,1.8143-3.427,1.8143-5.3133,0-7.5452-10.3963-13.6793-23.1685-13.6793s-23.1685,6.1341-23.1685,13.6793ZM544.8898,423.186c-8.6108,0-16.0408-2.8367-19.5542-6.9405,2.2175-2.9087,6.3933-5.2413,11.6058-6.4221,10.7851-2.4623,22.9381.4176,27.517,6.4221-3.5134,4.1038-10.9435,6.9405-19.5542,6.9405h-.0144ZM566.6183,410.9466c0,1.3247-.3888,2.5919-1.0799,3.787-5.3709-6.2637-18.2439-9.1723-29.4609-6.4509-5.1981,1.2527-9.3307,3.5278-11.8362,6.4509-.6912-1.1951-1.0799-2.4623-1.0799-3.787,0-6.7533,9.7483-12.2394,21.7285-12.2394s21.7285,5.4861,21.7285,12.2394ZM471.9862,483.5478c-12.7722,0-23.1685,6.1341-23.1685,13.6793,0,1.8863.648,3.6718,1.8143,5.3133.0432.1008.1152.2016.216.2736h0c.0576.1296.1296.2304.2448.3168h.0288c3.7438,4.5934,11.6778,7.7756,20.8646,7.7756s17.1208-3.1822,20.8646-7.7756h.0288c.1152-.0864.1872-.2016.2448-.3168h0c.1008-.072.1584-.1728.216-.2736,1.1663-1.6271,1.8143-3.427,1.8143-5.3133,0-7.5452-10.3963-13.6793-23.1685-13.6793ZM471.9862,509.4666c-8.6108,0-16.0408-2.8367-19.5542-6.9405,2.2175-2.9087,6.3933-5.2413,11.6058-6.4221,10.7851-2.4623,22.9381.4176,27.517,6.4221-3.5134,4.1038-10.9435,6.9405-19.5542,6.9405h-.0144ZM492.6347,501.0142c-5.3709-6.2637-18.2439-9.158-29.4609-6.4509-5.1981,1.2527-9.3307,3.5278-11.8362,6.4509-.6912-1.1951-1.0799-2.4623-1.0799-3.787,0-6.7533,9.7483-12.2394,21.7285-12.2394s21.7285,5.4861,21.7285,12.2394c0,1.3247-.3888,2.5919-1.0799,3.787ZM516.4224,458.6083c-12.7722,0-23.1685,6.1341-23.1685,13.6793,0,1.8863.648,3.6718,1.8143,5.3133.0432.1008.1152.2016.216.2736h0c.0576.1152.1296.2304.2448.3168h.0288c3.7438,4.5934,11.6778,7.7756,20.8646,7.7756s17.1208-3.1822,20.8646-7.7756h.0288c.1152-.0864.1872-.2016.2448-.3168h0c.1008-.072.1584-.1728.216-.2736,1.1664-1.6271,1.8143-3.427,1.8143-5.3133,0-7.5452-10.3963-13.6793-23.1685-13.6793ZM516.4224,484.527c-8.6108,0-16.0408-2.8367-19.5542-6.9405,2.2175-2.9087,6.3933-5.2413,11.6058-6.4221,10.7707-2.4623,22.9381.4176,27.517,6.4221-3.5134,4.1038-10.9435,6.9405-19.5542,6.9405h-.0144ZM537.071,476.0746c-5.3709-6.2637-18.2583-9.158-29.4609-6.4509-5.1981,1.2527-9.3307,3.5278-11.8362,6.4509-.6912-1.1951-1.0799-2.4623-1.0799-3.787,0-6.7533,9.7483-12.2394,21.7285-12.2394s21.7285,5.4861,21.7285,12.2394c0,1.3247-.3888,2.5919-1.0799,3.787ZM576.5106,467.3774c-12.7722,0-23.1685,6.1341-23.1685,13.6793,0,1.8863.648,3.6718,1.8143,5.3133.0432.1008.1152.2016.216.2736h0c.0576.1152.1296.2304.2448.3168h.0288c3.7438,4.5934,11.6778,7.7756,20.8646,7.7756s17.1208-3.1822,20.8646-7.7756h.0288c.1152-.0864.1872-.2016.2448-.3168h0c.1008-.072.1584-.1584.216-.2592,1.1663-1.6271,1.8143-3.427,1.8143-5.3133,0-7.5452-10.3963-13.6793-23.1685-13.6793v-.0144ZM576.5106,493.2962c-8.6108,0-16.0408-2.8367-19.5542-6.9405,2.2175-2.9087,6.3933-5.2413,11.6058-6.4221,10.7851-2.4623,22.9381.4176,27.517,6.4221-3.5134,4.1038-10.9435,6.9405-19.5542,6.9405h-.0144ZM597.1592,484.8438c-5.3709-6.2637-18.2439-9.1724-29.461-6.4653-5.1981,1.2527-9.3307,3.5278-11.8362,6.4509-.6912-1.1951-1.0799-2.4623-1.0799-3.787,0-6.7533,9.7483-12.2394,21.7285-12.2394s21.7285,5.4861,21.7285,12.2394c0,1.3247-.3888,2.5919-1.0799,3.787v.0144ZM582.1983,452.2726h.0288c.1152-.0864.1872-.1872.2448-.3168h0c.1008-.072.1728-.1728.216-.2736,1.1663-1.6271,1.8143-3.427,1.8143-5.3133,0-7.5452-10.3963-13.6793-23.1685-13.6793s-23.1685,6.1341-23.1685,13.6793c0,1.8863.648,3.6718,1.8143,5.3133.0432.1008.1152.2016.216.2736h0c.0576.1152.1296.2304.2448.3168h.0288c3.7438,4.5934,11.6778,7.7756,20.8646,7.7756s17.1208-3.1822,20.8646-7.7756ZM540.6852,450.1559c-.6912-1.1951-1.0799-2.4623-1.0799-3.787,0-6.7533,9.7483-12.2394,21.7285-12.2394s21.7285,5.4861,21.7285,12.2394c0,1.3247-.3888,2.5919-1.0799,3.787-5.3709-6.2637-18.2439-9.1723-29.461-6.4653-5.1981,1.2527-9.3307,3.5278-11.8362,6.4509v.0144ZM541.7795,451.6534c2.2175-2.9087,6.3933-5.2413,11.6058-6.4221,10.7707-2.4623,22.9237.4176,27.517,6.4221-3.5134,4.1038-10.9435,6.9405-19.5542,6.9405s-16.0408-2.8367-19.5542-6.9405h-.0144ZM499.9928,351.9815c-80.78,0-146.5128,38.0861-146.5128,84.8982v115.7991c0,9.1291,1.9727,18.5319,5.7021,27.2003,3.8734,8.9996,9.6475,17.4951,17.164,25.2276,8.294,8.5244,18.6039,16.0552,30.6705,22.3765,12.3834,6.4941,26.3795,11.6058,41.5852,15.1913,14.7449,3.4702,30.2529,5.4141,46.0777,5.7741,1.7855.0432,3.571.0576,5.3565.0576,13.8377,0,27.5314-1.2239,40.8076-3.643,15.3497-2.7935,29.7201-7.1276,42.7083-12.8586,13.8089-6.0909,25.7315-13.6361,35.4223-22.4197,10.0507-9.1148,17.5095-19.3527,22.1461-30.4545,3.5278-8.4524,5.3997-17.6103,5.3997-26.4947v-115.7559c-.0144-46.8121-65.7328-84.8982-146.5272-84.8982ZM645.0656,552.6788c0,8.6828-1.8287,17.6535-5.2845,25.9331-4.5502,10.9003-11.8794,20.9654-21.7717,29.9361-9.5755,8.6828-21.3685,16.1416-35.0335,22.1605-12.8874,5.6877-27.1427,9.9787-42.3771,12.7578-14.8889,2.7215-30.3249,3.9166-45.8905,3.5566-15.724-.36-31.1169-2.2895-45.7753-5.7453-15.0905-3.5566-28.957-8.6252-41.2396-15.0617-11.9226-6.2493-22.1173-13.6937-30.2961-22.1173-7.4012-7.6028-13.0746-15.9544-16.876-24.7956-3.6574-8.4956-5.5869-17.6967-5.5869-26.6387v-30.4545c9.9931,41.2108,71.2333,73.0188,145.0729,73.0188s135.0798-31.808,145.0729-73.0188v30.4545l-.0144.0144ZM645.0656,510.3449c0,46.0201-65.0848,83.4583-145.0729,83.4583s-145.0729-37.4382-145.0729-83.4583v-51.6071c9.9931,41.2108,71.2333,73.0188,145.0729,73.0188s135.0798-31.808,145.0729-73.0188v51.6071ZM354.9631,448.9319c10.1371,41.1244,71.3053,72.8316,145.0297,72.8316s134.8926-31.7072,145.0297-72.8316c-1.9151,45.0554-66.2367,81.3848-145.0297,81.3848s-143.1002-36.315-145.0297-81.3848ZM499.9928,520.3236c-79.9881,0-145.0729-37.4382-145.0729-83.4439s65.0848-83.4583,145.0729-83.4583,145.0729,37.4382,145.0729,83.4583-65.0848,83.4583-145.0729,83.4583v-.0144ZM604.5172,407.03c-12.7722,0-23.1685,6.1341-23.1685,13.6793,0,1.8863.648,3.6718,1.8143,5.3133.0432.1008.1152.2016.216.2736h0c.0576.1152.1296.2304.2448.3168h.0288c3.7438,4.5934,11.6778,7.7756,20.8646,7.7756s17.1208-3.1822,20.8646-7.7756h.0288c.1152-.0864.1872-.2016.2448-.3168h0c.1008-.072.1728-.1728.216-.2736,1.1663-1.6271,1.8143-3.427,1.8143-5.3133,0-7.5452-10.3963-13.6793-23.1685-13.6793ZM604.5172,432.9487c-8.6108,0-16.0408-2.8367-19.5542-6.9405,2.2175-2.9087,6.3933-5.2413,11.6058-6.4221,10.7851-2.4623,22.9381.4176,27.517,6.4221-3.5134,4.1038-10.9435,6.9405-19.5542,6.9405h-.0144ZM625.1658,424.4963c-5.3709-6.2637-18.2439-9.1723-29.4609-6.4509-5.1981,1.2527-9.3307,3.5278-11.8362,6.4509-.6912-1.1951-1.0799-2.4623-1.0799-3.787,0-6.7533,9.7483-12.2394,21.7285-12.2394s21.7285,5.4861,21.7285,12.2394c0,1.3247-.3888,2.5919-1.0799,3.787ZM402.3368,398.2752h0c.0576.1152.1296.2304.2448.3168h.0288c3.7438,4.5934,11.6778,7.7756,20.8646,7.7756s17.1208-3.1822,20.8646-7.7756h.0288c.1152-.0864.1872-.2016.2448-.3168h0c.1008-.072.1584-.1728.216-.2736,1.1663-1.6271,1.8143-3.427,1.8143-5.3133,0-7.5452-10.3963-13.6793-23.1685-13.6793s-23.1685,6.1341-23.1685,13.6793c0,1.8863.648,3.6718,1.8143,5.3133.0432.1008.1152.2016.216.2736ZM423.4749,404.9421c-8.6108,0-16.0408-2.8367-19.5542-6.9405,2.2175-2.9087,6.3933-5.2413,11.6058-6.4221,10.7851-2.4623,22.9381.4176,27.517,6.4221-3.5134,4.1038-10.9435,6.9405-19.5542,6.9405h-.0144ZM423.4749,380.4633c11.9802,0,21.7285,5.4861,21.7285,12.2394,0,1.3247-.3888,2.5919-1.0799,3.787-5.3709-6.2637-18.2583-9.1723-29.4609-6.4509-5.1981,1.2527-9.3307,3.5278-11.8362,6.4509-.6912-1.1951-1.0799-2.4623-1.0799-3.787,0-6.7533,9.7483-12.2394,21.7285-12.2394ZM415.4833,427.3906c0,1.8863.648,3.6718,1.8143,5.3133.0432.1008.1152.2016.216.2736h0c.0576.1152.1296.2304.2448.3168h.0288c3.7438,4.5934,11.6778,7.7756,20.8646,7.7756s17.1208-3.1822,20.8646-7.7756h.0288c.1152-.0864.1872-.1872.2448-.3168h0c.1008-.072.1728-.1728.216-.2736,1.1663-1.6271,1.8143-3.427,1.8143-5.3133,0-7.5452-10.3963-13.6793-23.1685-13.6793s-23.1685,6.1341-23.1685,13.6793ZM438.6518,439.63c-8.6108,0-16.0408-2.8367-19.5542-6.9405,2.2175-2.9087,6.3933-5.2413,11.6058-6.4221,10.7851-2.4623,22.9381.4176,27.5171,6.4221-3.5134,4.1038-10.9435,6.9405-19.5542,6.9405h-.0144ZM460.3803,427.3906c0,1.3247-.3888,2.5919-1.0799,3.787-5.3709-6.2637-18.2439-9.1723-29.4609-6.4653-5.1981,1.2527-9.3307,3.5278-11.8218,6.4509-.6912-1.1951-1.0799-2.4623-1.0799-3.787,0-6.7533,9.7483-12.2394,21.7285-12.2394s21.7285,5.4861,21.7285,12.2394l-.0144.0144ZM475.9604,468.7022h.0288c.1152-.0864.1872-.2016.2448-.3168h0c.1008-.072.1584-.1584.216-.2736,1.1663-1.6271,1.8143-3.427,1.8143-5.3133,0-7.5452-10.3963-13.6793-23.1685-13.6793s-23.1685,6.1341-23.1685,13.6793c0,1.8863.648,3.6718,1.8143,5.3133.0432.1008.1152.2016.216.2736h0c.0576.1152.1296.2304.2448.3168h.0288c3.7438,4.5934,11.6778,7.7756,20.8646,7.7756s17.1208-3.1822,20.8646-7.7756ZM434.4472,466.5855c-.6912-1.1951-1.0799-2.4623-1.0799-3.787,0-6.7533,9.7483-12.2394,21.7285-12.2394s21.7285,5.4861,21.7285,12.2394c0,1.3247-.3888,2.5919-1.0799,3.787-5.3709-6.2637-18.2583-9.158-29.4609-6.4653-5.1981,1.2527-9.3307,3.5278-11.8362,6.4509v.0144ZM435.5271,468.0974c2.2175-2.9087,6.3933-5.2413,11.6058-6.4221,10.7851-2.4623,22.9381.4176,27.517,6.4221-3.5134,4.1038-10.9435,6.9405-19.5542,6.9405s-16.0408-2.8367-19.5542-6.9405h-.0144ZM462.425,407.0444h0c.0576.1152.1296.2304.2448.3168h.0288c3.7438,4.5934,11.6778,7.7756,20.8646,7.7756s17.1208-3.1822,20.8646-7.7756h.0288c.1152-.0864.1872-.2016.2448-.3168h0c.1008-.072.1584-.1728.216-.2736,1.1663-1.6271,1.8143-3.427,1.8143-5.3133,0-7.5452-10.3963-13.6793-23.1685-13.6793s-23.1685,6.1341-23.1685,13.6793c0,1.8863.648,3.6718,1.8143,5.3133.0432.1008.1152.2016.216.2736ZM483.5632,413.6969c-8.6108,0-16.0408-2.8367-19.5542-6.9405,2.2175-2.9087,6.3933-5.2413,11.6058-6.4221,10.7851-2.4623,22.9381.4176,27.517,6.4221-3.5134,4.1038-10.9435,6.9405-19.5542,6.9405h-.0144ZM483.5632,389.2181c11.9802,0,21.7285,5.4861,21.7285,12.2394,0,1.3247-.3888,2.5919-1.0799,3.787-5.3709-6.2637-18.2439-9.158-29.4609-6.4509-5.1981,1.2527-9.3307,3.5278-11.8362,6.4509-.6912-1.1951-1.0799-2.4623-1.0799-3.787,0-6.7533,9.7483-12.2394,21.7285-12.2394ZM395.4683,439.3708c-12.7722,0-23.1685,6.1341-23.1685,13.6793,0,1.8863.648,3.6718,1.8143,5.3133.0432.1008.1152.2016.216.2736h0c.0576.1296.1296.2304.2448.3168h.0288c3.7438,4.5934,11.6778,7.7756,20.8646,7.7756s17.1208-3.1822,20.8646-7.7756h.0288c.1152-.0864.1872-.2016.2448-.3168h0c.1008-.072.1728-.1728.216-.2736,1.1663-1.6271,1.8143-3.427,1.8143-5.3133,0-7.5452-10.3963-13.6793-23.1685-13.6793ZM395.4683,465.2895c-8.6108,0-16.0408-2.8367-19.5542-6.9405,2.2175-2.9087,6.3933-5.2413,11.6058-6.4221,10.7851-2.4623,22.9381.4176,27.517,6.4221-3.5134,4.1038-10.9435,6.9405-19.5542,6.9405h-.0144ZM416.1169,456.8372c-5.3709-6.2637-18.2439-9.158-29.4609-6.4509-5.1981,1.2527-9.3307,3.5278-11.8362,6.4509-.6912-1.1951-1.0799-2.4623-1.0799-3.787,0-6.7533,9.7483-12.2394,21.7285-12.2394s21.7285,5.4861,21.7285,12.2394c0,1.3247-.3888,2.5919-1.0799,3.787ZM506.8612,382.1048h0c.0576.1152.1296.2304.2448.3168h.0288c3.7438,4.5934,11.6778,7.7756,20.8646,7.7756s17.1208-3.1822,20.8646-7.7756h.0288c.1152-.0864.1872-.2016.2448-.3168h0c.1008-.072.1584-.1728.216-.2736,1.1663-1.6271,1.8143-3.427,1.8143-5.3133,0-7.5452-10.3963-13.6793-23.1685-13.6793s-23.1685,6.1341-23.1685,13.6793c0,1.8863.648,3.6718,1.8143,5.3133.0432.1008.1152.2016.216.2736ZM527.9994,388.7717c-8.6108,0-16.0408-2.8367-19.5542-6.9405,2.2175-2.9087,6.3933-5.2413,11.6058-6.4221,10.7851-2.4623,22.9381.4176,27.517,6.4221-3.5134,4.1038-10.9435,6.9405-19.5542,6.9405h-.0144ZM527.9994,364.2929c11.9802,0,21.7285,5.4861,21.7285,12.2394,0,1.3247-.3888,2.5919-1.0799,3.787-5.3709-6.2637-18.2439-9.158-29.4609-6.4509-5.1981,1.2527-9.3307,3.5278-11.8362,6.4509-.6912-1.1951-1.0799-2.4623-1.0799-3.787,0-6.7533,9.7483-12.2394,21.7285-12.2394Z"/>
  </g>
  <g id="Layer_3" data-name="Layer 3">
    <path d="M599.36,623.76c-37.82,24.55-99.81,35-127.51,35h-132.14c-75.3,0-175.26-21.14-175.26-82.79,0-76.18,133.87-85.67,151.48-85.67h37.55v62.37c.0429,9.291,1.9719,18.4766,5.67,27,4.1184,9.3556,9.9177,17.8765,17.11,25.14,8.9646,9.0247,19.3028,16.5717,30.63,22.36,13.1841,6.785,27.1663,11.8915,41.62,15.2,15.1418,3.5206,30.6078,5.4609,46.15,5.79,15.5015.3638,31.0002-.8391,46.26-3.59,14.7066-2.6023,29.0577-6.9183,42.76-12.86,5.3777-2.3409,10.6134-4.9955,15.68-7.95Z"/>
  </g>
</svg>