<?xml version="1.0" encoding="UTF-8"?>
<svg xmlns="http://www.w3.org/2000/svg" viewBox="0 0 1000 1000">
  <defs>
    <style>
      .cls-1 {
        fill: #333;
      }
    </style>
  </defs>
  <g id="Layer_2" data-name="Layer 2">
    <path class="cls-1" d="M590.89,709.21s-235.73,116.79-258.63,127.59-30.5-2.42-40.24,2.33c-4.16,2-31.1,15.07-47.62,23s-30.47,5.08-37.43-1.54c-6.77-6.44-2.91-13.48,1.76-18.05,5-4.9,3.84-12.25-1.76-17-7.26-6.11-16.14-9.43-33.91-2.64-13.81,5.28-28.21,4.11-36.11-3.63-8.58-8.43-.16-16.85,11.22-22.5,5.29-2.62,17.82-8.5,28.76-14.16,7.19-3.73,17.18-7.33,13.61-12.19-2.61-3.56-9-2.79-12.08-6.31s-2-9.14,8.7-14.53c11.34-5.73,208.06-103.82,208.06-103.82v35.86c0,8,11.29,14.55,25.2,14.55,5.0888.0482,10.1376-.9031,14.86-2.8,9.09-3.83,21.49-3.71,30.37.29v28.62c0,8,11.28,14.55,25.2,14.55s25.2-6.52,25.2-14.55v-15.34c2.1744-2.4239,4.8918-4.2983,7.93-5.47,11.27-4.71,27-3.25,35.18,3.26,7.35,5.8699,20.84,7.6299,31.73,4.48Z"/>
  </g>
  <g id="Layer_3" data-name="Layer 3">
    <path d="M414.31,339.05c1.85.35,3.76.52,5.67.52,3.84,0,7.65-.7,10.82-2.03,11.31-4.76,26.5-4.76,37.81,0,7.48,3.15,12.18,7.98,12.9,13.26.58,4.26-1.53,8.53-5.94,12.02-2.68,2.12-3.95,4.74-3.59,7.4.44,3.21,3.22,6.12,7.64,7.98.74.31,1.5.58,2.29.82h.03c.35.11.71.2,1.08.3.02,0,.04,0,.06.01,2.34.59,4.83.89,7.32.89,5.68,0,11.29-1.51,14.89-4.36.35-.28.67-.57.97-.86l.05-.05c2.76-2.72,3.4-6.04,1.67-9.09-1.65-2.91-1.98-6.04-.96-9.03,1.55-4.52,5.99-8.51,12.52-11.23,14.32-5.98,34.39-4.13,44.74,4.12,3.6,2.87,9.23,4.4,14.94,4.4,3.72,0,7.47-.65,10.7-2,4.44-1.85,7.25-4.76,7.7-7.98.37-2.64-.89-5.26-3.54-7.38-3.46-2.76-9.03-4.41-14.9-4.41h-.11c-13.94,0-26.15-5.1-30.4-12.71-1.85-3.31-2-6.82-.43-10.16,2.81-6,10.66-10.73,20.98-12.65,5.98-1.11,10.55-3.9,12.21-7.46.98-2.09.89-4.29-.27-6.35-3.14-5.63-13.55-8.74-23.19-6.95-5.64,1.05-10.1,3.65-11.95,6.95-4.25,7.6-16.46,12.71-30.4,12.71h-.07c-11.41-.01-22.03-3.56-27.69-9.25-2.72-2.73-4.15-5.84-4.14-8.99,0-1.96-.87-3.88-2.53-5.55-3.29-3.3-9.39-5.36-15.94-5.37h-.04c-10.18,0-18.48,4.87-18.5,10.87-.01,3.54,2.89,6.87,7.76,8.9,6.52,2.73,10.97,6.71,12.52,11.23,1.02,3,.69,6.12-.96,9.03-5.46,9.63-23.56,14.89-40.34,11.72-9.63-1.82-20.05,1.27-23.23,6.89-1.17,2.07-1.28,4.27-.3,6.37,1.65,3.56,6.19,6.35,12.16,7.48l-.01-.01ZM507.09,366.35c1.32,2.33,1.06,4.78-.67,6.97v-8.34c.2.46.42.92.67,1.37ZM547.78,320.13c4.42,7.91,16.98,13.22,31.27,13.22h.11c5.65,0,10.98,1.57,14.27,4.19,2.37,1.89,3.49,4.18,3.17,6.46-.4,2.86-2.98,5.48-7.09,7.2-7.89,3.3-18.94,2.28-24.63-2.26-4.52-3.6-10.84-6.02-17.73-7.13v-22.96c.19.43.39.86.63,1.28ZM483.71,282.2c.74,1.74,1.89,3.41,3.43,4.97,5.85,5.88,16.73,9.53,28.4,9.55h.07c14.29,0,26.85-5.31,31.27-13.22,1.7-3.04,5.91-5.46,11.26-6.45,9.25-1.73,19.18,1.17,22.13,6.45.99,1.77,1.07,3.65.23,5.44-1.53,3.27-5.83,5.85-11.49,6.9-10.64,1.98-18.75,6.92-21.7,13.21-.77,1.65-1.14,3.34-1.15,5.03,0,.02-.01.03-.01.05v27.52c-9.02-1.28-18.92-.36-27.01,3.02-6.79,2.84-11.44,7.04-13.08,11.83-.43,1.24-.64,2.51-.64,3.77v14.12c-.24.23-.49.45-.77.67-4.87,3.85-13.6,5.13-20.94,3.39v-96.25ZM481.61,377.87c-.55-.18-1.08-.38-1.6-.6-4.08-1.72-6.65-4.34-7.03-7.19-.31-2.29.83-4.59,3.22-6.48,2.56-2.02,4.38-4.31,5.42-6.71v20.98h-.01ZM454.86,285.41c-4.48-1.87-7.15-4.85-7.14-7.98.02-5.45,7.87-9.87,17.5-9.87h.04c6.28,0,12.12,1.95,15.23,5.08,1.47,1.48,2.24,3.15,2.24,4.84v.03h0v100.69s-.07-.02-.11-.03v-26c0-.5-.03-1-.1-1.5-.77-5.63-5.69-10.75-13.5-14.05-.14-.06-.29-.11-.43-.17v-35.43c0-1.26-.21-2.53-.64-3.77-1.64-4.79-6.29-9-13.08-11.83l-.01-.01ZM403.33,325.7c2.99-5.28,12.94-8.15,22.18-6.4,3.35.63,6.76.93,10.11.93,13.82,0,26.74-5.11,31.29-13.14.26-.45.47-.91.67-1.37v30.34c-11.37-4.29-26.08-4.11-37.16.55-4.57,1.93-10.53,2.47-15.92,1.45-5.65-1.07-9.92-3.65-11.44-6.92-.83-1.79-.74-3.68.27-5.45v.01ZM604.85,343.21c0-3.19-1.73-6.31-4.97-8.89-2.74-2.19-6.43-3.87-10.61-4.91v-43c0-1.58-.42-3.15-1.27-4.68-4.36-7.81-18.83-12.12-32.25-9.63-7.83,1.46-14.04,5.06-16.59,9.63h0c-3.29,5.88-12.74,9.82-23.55,9.82h-.05c-8.85-.01-17.07-2.76-21.46-7.16-2.1-2.11-3.2-4.5-3.19-6.91v-.04c0-2.67-1.2-5.29-3.48-7.58-4.57-4.59-13.06-7.45-22.16-7.46h-.05c-14.15,0-25.67,6.73-25.7,15.02v.03h0v37.46c-3.76.34-7.72.19-11.58-.54-13.4-2.53-27.9,1.75-32.31,9.55-.89,1.53-1.32,3.13-1.33,4.73v352.77c0,8.3,11.53,15.05,25.7,15.05,5.44,0,10.65-.98,15.05-2.83,8.83-3.72,20.98-3.64,29.67.16v28.28c0,8.3,11.53,15.05,25.7,15.05s25.7-6.75,25.7-15.05v-15.17c1.76-2.05,4.39-3.85,7.62-5.2,11.11-4.64,26.67-3.21,34.68,3.19,5,4,12.84,6.12,20.78,6.12,5.18,0,10.41-.91,14.91-2.79,6.72-2.81,10.74-7.39,10.74-12.25v-352.78.01ZM440.51,281.59c1.58,3.24,4.97,6.12,9.74,8.11,5.04,2.11,8.48,5.19,9.67,8.67.79,2.3.53,4.7-.73,6.93-2.86,5.04-10.2,8.53-18.67,9.5v-33.21h-.01ZM396.48,324.4c4.22-7.45,18.25-11.52,31.26-9.06,2.61.49,5.27.73,7.88.73,1.47,0,2.92-.08,4.35-.22h.04c.06,0,.11-.01.16-.03,8.98-.95,16.83-4.65,19.88-10.03,1.41-2.49,1.69-5.17.81-7.75-1.29-3.76-4.92-7.05-10.23-9.27-6.35-2.65-10.14-6.9-10.12-11.35.03-7.74,11.1-14.02,24.7-14.02h.05c8.85.01,17.07,2.76,21.46,7.16,2.1,2.1,3.2,4.5,3.19,6.91v.1c.02,2.65,1.22,5.25,3.48,7.52,4.57,4.59,13.06,7.45,22.17,7.46h.05c11.15,0,20.96-4.15,24.42-10.34h0c2.41-4.31,8.35-7.73,15.9-9.13,13.03-2.43,27.02,1.67,31.19,9.13,1.42,2.54,1.54,5.24.33,7.8-2.17,4.63-8.24,8.29-16.23,9.78h0c-8.31,1.55-14.65,5.41-16.96,10.34-1.34,2.87-1.22,5.88.37,8.71,3.46,6.19,13.27,10.34,24.42,10.34h.1c7.95,0,15.46,2.21,20.1,5.91,3.37,2.69,4.98,5.97,4.52,9.23-.57,4.07-4.23,7.8-10.05,10.23-11.11,4.64-26.67,3.21-34.68-3.19-8.27-6.6-24.28-8.1-35.69-3.33-5.31,2.22-8.95,5.51-10.23,9.27-.88,2.58-.6,5.26.81,7.75,2.38,4.2,1.08,8.86-3.47,12.46-8.06,6.38-23.63,7.77-34.71,3.11-5.78-2.44-9.42-6.16-9.97-10.23-.45-3.27,1.18-6.56,4.58-9.25,3.69-2.92,5.45-6.53,4.95-10.17-.6-4.42-4.46-8.44-10.57-11.01-9-3.79-21.1-3.79-30.1,0-6.44,2.71-14.82,3.48-22.4,2.04-7.97-1.51-14.01-5.17-16.15-9.8-1.19-2.57-1.06-5.27.38-7.82l.01.02ZM588.28,290.61v38.56c-2.88-.64-5.97-.98-9.12-.98h-.1c-10.8,0-20.26-3.95-23.55-9.83-1.42-2.54-1.54-5.24-.33-7.8,2.17-4.63,8.24-8.29,16.23-9.78h0c8.22-1.53,14.5-5.33,16.87-10.17h0ZM464.72,369.34v323.36c-8.9-3.74-21.13-3.76-30.06,0-4.28,1.8-9.35,2.76-14.66,2.76-13.62,0-24.7-6.3-24.7-14.05v-348.57c2.36,4.82,8.6,8.61,16.77,10.16,2.58.49,5.25.73,7.9.73,5.35,0,10.65-.97,15.07-2.83,8.77-3.69,20.55-3.69,29.32,0,5.78,2.44,9.42,6.16,9.97,10.23.45,3.27-1.18,6.56-4.58,9.25-3.27,2.59-5.01,5.72-5.03,8.93v.04-.01ZM515.12,722.07c0,7.75-11.08,14.05-24.7,14.05s-24.7-6.3-24.7-14.05v-348.57c1.57,3.23,4.93,6.07,9.65,8.06,4.52,1.91,9.78,2.82,15,2.82,7.9,0,15.71-2.1,20.72-6.07,1.85-1.46,3.2-3.09,4.03-4.8v348.56h0ZM603.86,695.96c0,4.45-3.78,8.68-10.12,11.33-11.11,4.64-26.67,3.21-34.68-3.19-8.27-6.6-24.28-8.1-35.69-3.33-2.95,1.23-5.42,2.83-7.24,4.65v-336.12c0-1.59-.43-3.19-1.31-4.73-1.27-2.24-1.52-4.63-.73-6.93,1.19-3.48,4.63-6.56,9.67-8.67,11.11-4.64,26.67-3.21,34.68,3.19,5,3.99,12.84,6.12,20.78,6.12,5.18,0,10.41-.91,14.91-2.79,4.76-1.99,8.16-4.85,9.74-8.09v348.57l-.01-.01Z"/>
  </g>
</svg>