<?xml version="1.0" encoding="UTF-8"?>
<svg xmlns="http://www.w3.org/2000/svg" viewBox="0 0 1000 1000">
  <g id="Layer_2" data-name="Layer 2">
    <path d="M767.7945,259.0725c-4.4172-2.5506-8.5922-2.9353-11.7839-1.0972l-243.958,140.8519c-1.3537-.9119-2.7073-1.7241-4.0752-2.3938-2.9211-1.4392-5.8136-2.2941-8.5637-2.5363-2.4223-.2137-4.6737.0855-6.7541.8122-.1995.0712-.4132.1425-.6127.2137-.0998.0427-.1995.057-.285.0997l-.2565.1282c-.4275.1852-.8407.3847-1.2539.627l-37.0048,21.3593c-1.0972.627-2.1089,1.4107-3.0066,2.3226-.8834.8977-1.6814,1.9379-2.3653,3.0778-.6697,1.1257-1.2254,2.3653-1.6671,3.6905-.4417,1.2967-.7694,2.6931-.9832,4.1607-.2137,1.4392-.3277,2.9638-.3277,4.5312v2.6646l-269.2358,155.4571h0c-3.1918,1.8381-4.9444,5.6569-4.9444,10.758h0v40.852h0c0,10.2023,7.1815,22.6418,16.0159,27.7429,2.5791,1.4961,5.0869,2.2371,7.3525,2.2371,1.6101,0,3.1063-.3847,4.4315-1.1399h0l288.3011-166.4574v28.4839c0,2.8356.3847,5.8564,1.1399,8.9769.741,3.0778,1.8381,6.1841,3.2488,9.2476,1.4107,3.0493,3.092,5.9846,5.0299,8.7204,1.9379,2.7501,4.0895,5.2436,6.3836,7.438,2.3083,2.2086,4.7307,4.0467,7.1958,5.4716h0l29.0111,16.7426h0c1.2397.7125,2.5078,1.3252,3.7475,1.8239,1.2682.4987,2.5363.8834,3.7618,1.1257,1.1969.2422,2.3938.3705,3.5338.3705h.171c1.2254-.0142,2.4366-.171,3.5623-.4702,1.1542-.2992,2.2513-.7552,3.263-1.3394l36.9905-21.3593c1.0117-.5842,1.9521-1.3109,2.7928-2.1516.8264-.8407,1.5531-1.7954,2.1801-2.8498.6127-1.0259,1.1257-2.1801,1.5389-3.3913.399-1.1827.7125-2.4793.912-3.8187.1995-1.3109.2992-2.7216.2992-4.1607v-8.3784c0-.4845-.0285-.9689-.0998-1.4107-.0712-.4702-.1852-.9404-.3277-1.3679-.1567-.456-.3562-.8977-.5842-1.2967-.2565-.4275-.5557-.8122-.8834-1.1542-.3562-.3562-.7409-.6555-1.1684-.8977h0l-5.6426-3.263h0c-.0143,0-.0427-.0142-.0712-.0285-.4132-.228-.8407-.4132-1.3109-.5272-.4702-.114-.9547-.1852-1.4392-.1852-.4417,0-.9404.0427-1.4249.1425-.456.0855-.912.228-1.3537.399-.4275.171-.855.3705-1.2539.6127h0l-21.8296,12.5962-14.5768-8.4212h0c-.1852-.0998-.3562-.2137-.5415-.3277-1.4534-.9119-2.9068-2.0661-4.289-3.4483-1.4249-1.4107-2.7643-3.0208-3.9755-4.7877-1.2112-1.7811-2.2656-3.662-3.149-5.6141-.855-1.9236-1.5247-3.8615-1.9664-5.7851-.4417-1.8524-.6555-3.6335-.6555-5.2864v-38.2159l243.8583-140.7949c3.1918-1.8381,4.9444-5.6569,4.9444-10.758v-40.852c0-10.2023-7.1815-22.6417-16.0159-27.7429l-.0284-.0285ZM756.7088,259.215c2.6931-1.5531,6.4691-1.1542,10.359,1.0972,8.3214,4.8019,15.104,16.4434,15.2892,26.1185l-248.9024,143.7017c-.8834-3.3343-2.1231-6.6828-3.719-9.9601-1.6671-3.4625-3.6763-6.7683-5.9561-9.8318-2.2941-3.0778-4.8019-5.8279-7.4808-8.179-.9974-.8692-2.0091-1.6671-3.0208-2.4081l243.4308-140.5384ZM495.2529,540.6907c.2707,0,.5272-.0427.7837-.0855.4132,8.9484,6.4548,19.4215,14.0068,24.2661-.3277.3705-.57.8122-.741,1.2682-7.9367-5.0727-14.3203-16.1157-14.7335-25.5201.228.0427.456.0855.6982.0855l-.0143-.0142ZM494.512,539.1518v-74.9358c.2422.0427.4845.0855.741.0855s.4987-.0427.741-.0855v74.9358c-.456.1425-1.0117.1425-1.4819,0h0ZM490.9497,397.0033c4.4742-2.5791,10.7153-1.9379,17.1416,1.7669,13.6078,7.8512,24.6936,26.9307,24.8788,42.7044l-35.6084,20.5614c-.5415-16.0729-11.784-35.1809-25.5486-43.1461-4.5027-2.5933-8.8487-3.776-12.6959-3.5053l31.8466-18.3813h-.0142ZM532.9844,443.1132v74.7505l-35.5656,20.5329v-74.7505l35.5656-20.5329h0ZM451.2519,420.4572c.8122-.8264,1.7241-1.5246,2.7073-2.0946,4.5312-2.6218,10.6298-1.9949,17.1416,1.7669,13.5936,7.8512,24.6509,26.8737,24.8646,42.6332-.4702.1425-1.0259.1282-1.4819-.0142-.228-15.2892-10.9575-33.7275-24.1237-41.3365-6.5831-3.8045-12.8099-4.3887-17.5406-1.6671-1.1257.6412-2.1089,1.4677-2.9923,2.4366.4417-.6127.9119-1.2112,1.4249-1.7241h0ZM464.2613,428.0662c1.4391.1425,3.0351.6412,4.6452,1.4249,1.6386.8122,3.3058,1.9236,4.9302,3.3058,1.6671,1.4249,3.2773,3.092,4.7592,4.9729,1.5104,1.9094,2.8641,3.9897,4.0325,6.1841s2.1089,4.46,2.8071,6.7113c.6839,2.2228,1.1257,4.3887,1.3109,6.4406l-283.3424,163.5791c-.5272-9.9601-7.4808-21.6443-15.9732-26.546-2.4508-1.4249-4.8304-2.1374-7.0105-2.2086l283.8269-163.8641h.0142ZM459.3026,427.6102c-1.4534.8407-2.6218,2.0804-3.5053,3.6905l-2.0519,1.1827c.9974-2.4223,2.5933-4.1465,4.6879-5.0299.8834-.3705,1.8666-.57,2.8783-.627-.7125.171-1.3964.4132-2.0234.7837h.0143ZM460.2288,428.7502l-.4275.2565c.0712-.0427.1425-.0997.2137-.1567.0712-.0427.1425-.057.2137-.0997h0ZM197.804,672.2664c-2.7358,1.5674-6.4121,1.1827-10.3591-1.0972-8.4354-4.8732-15.3035-16.7711-15.3035-26.5175h0v-40.852h0c0-4.5597,1.5104-7.951,4.232-9.5184,2.7216-1.5816,6.4121-1.1827,10.3591,1.0972,8.4354,4.8732,15.3035,16.7711,15.3035,26.5175h0v40.852h0c0,4.5597-1.4961,7.951-4.232,9.5184h0ZM486.8175,505.3958l-284.9525,164.5338c.9832-1.8239,1.5246-4.1037,1.5674-6.754l283.3851-163.6076v5.8421-.0143ZM486.8175,497.9151l-283.3566,163.5933v-39.2134l283.3566-163.5933c0,.1425.0142.285.0142.4275v38.7717l-.0142.0142ZM539.1258,589.9497l-29.0111-16.7569c-11.727-6.7683-21.2596-23.2972-21.2596-36.8338v-76.3892c0-11.7697-8.293-26.147-18.4953-32.0319-4.5455-2.6218-8.9626-3.263-12.4679-1.7954-2.9211,1.2254-5.0014,3.7903-6.0273,7.4238l-4.9444,2.8498v-.6697c0-7.0675,2.3511-12.3254,6.6116-14.7905,4.2605-2.4651,9.9886-1.8666,16.1157,1.6671,12.9239,7.4665,23.4397,25.6768,23.4397,40.5955v76.3892c0,10.3875,7.324,23.0692,16.3152,28.2559l29.0111,16.7569c2.6218,1.5104,5.1724,2.2799,7.4808,2.2799,1.6386,0,3.1633-.3847,4.517-1.1684,3.2488-1.8666,5.0299-5.7566,5.0299-10.9433v-7.1388l4.232,2.4508v7.9652c0,6.3978-2.1231,11.157-5.9704,13.3799-3.8615,2.2228-9.0339,1.6814-14.5768-1.5104v.0142ZM510.5279,566.909c.114-.4702.3847-.9547.741-1.2824l27.7572,16.0302c-.3135.3705-.57.8122-.7409,1.2824l-27.7571-16.0302h0ZM546.7063,584.2216c1.4961,0,2.8926-.3562,4.1322-1.0687h0c.4845-.285.9404-.627,1.3394-1.0402.0285-.0285.057-.0712.0998-.114-.6697,1.0829-1.5389,1.9379-2.5791,2.5363-2.6931,1.5531-6.2838,1.2112-10.1453-.8977.114-.4702.399-.9547.7552-1.2824,2.2371,1.2254,4.4172,1.8524,6.3978,1.8524v.0142ZM541.7048,581.4857l11.6842-6.7541c-.0285.5557-.057,1.0972-.1425,1.6101-.114.7267-.2707,1.3964-.4702,2.0091-.1995.5842-.4417,1.1257-.7125,1.5959-.2565.4417-.57.8407-.8977,1.1827-.3135.3277-.6554.5842-1.0402.8122h0c-2.2228,1.2824-5.2294,1.0972-8.4212-.4275v-.0285ZM561.1406,569.2458c.1995-4.1465,2.978-8.9626,6.4691-11.214.3562.342.6127.8264.7125,1.2967-3.1063,2.0234-5.5144,6.1841-5.7139,9.8888-.456.1425-1.0117.1567-1.4819.0285h.0143ZM562.5797,570.685v6.925c-.456.1425-1.0117.1425-1.4819,0v-6.925c.2423.0427.4845.0855.7409.0855s.4987-.0427.7409-.0855h0ZM559.7584,568.5191l-4.2747-2.4651c.171-4.1892,3.0065-9.0909,6.5403-11.328l4.2747,2.4651c-3.4055,2.4793-6.0986,7.153-6.5403,11.328ZM556.1819,592.4005c-.8977.5272-1.8809.9262-2.9068,1.1827-.684.1852-1.4106.285-2.1516.342,1.1684-.2565,2.2656-.6555,3.2915-1.2397,4.1037-2.3653,6.4263-7.21,6.6401-13.6506.2565.0427.5129.0855.7837.0855.2423,0,.4702-.0427.6982-.0855-.2137,6.3408-2.4366,11.0715-6.3551,13.3371v.0285ZM593.1724,571.0412l-32.0604,18.5095c1.8239-2.8213,2.8071-6.5973,2.8641-11.043l35.5371-20.5186c-.285,6.1271-2.5363,10.8578-6.3408,13.0521h0ZM599.5845,556.3077l-35.5799,20.5329v-7.1388c0-3.4625,2.4366-7.6945,5.4431-9.4329l25.3918-14.6623c1.3252-.7552,2.5221-.8977,3.3913-.4132.8692.4987,1.3394,1.6101,1.3394,3.1348v7.9652l.0142.0142ZM568.8493,557.2766l24.1236-13.9356c.3562.3277.627.8122.7409,1.2824l-24.1236,13.9356c-.171-.4702-.4132-.8977-.7409-1.2824ZM597.8176,542.6001h0c.3135.1852.6127.4132.8692.6697.2565.2565.4845.5557.6697.8834.0427.0712.0712.171.114.2565-.171-.1425-.3277-.3135-.5272-.4275-1.1114-.6412-2.4793-.6412-3.947-.0142-.1567-.456-.399-.8977-.7125-1.2682,1.3537-.5557,2.5933-.627,3.5195-.0855l.0143-.0142ZM592.1465,539.3228h0l2.8071,1.6244c-.627.1425-1.2682.3847-1.9094.7267l-4.1465-2.3938c1.2397-.456,2.3796-.456,3.2345.0427h.0143ZM587.3731,540.0353l4.232,2.4508-23.9669,13.8358-4.232-2.4508,23.9669-13.8358ZM562.138,552.2752l-1.5247.8834h0c-.7979.456-1.5816,1.0544-2.3083,1.7526-.7125.6697-1.3679,1.4534-1.9664,2.2941-.5842.8264-1.1114,1.7241-1.5389,2.6646s-.7695,1.8951-.9975,2.8498c-.2423.9974-.3562,1.9664-.3562,2.8783v7.4808l-13.1946,7.6233-27.5862-15.9305,35.5799-20.5329,13.9356,8.0507-.0427-.0142ZM546.8345,543.3695l-35.6084,20.5614c-7.5377-4.5597-13.6221-15.0897-13.7931-23.8957l35.6084-20.5614c.4987,8.8202,6.4121,19.051,13.7931,23.8957h0ZM778.1536,337.2l-243.1458,140.3816v-5.8421l247.3208-142.7897c-.2707,3.8757-1.7526,6.8538-4.175,8.2644v-.0142ZM782.3856,327.2684l-247.3778,142.8182v-29.0396h0c0-3.0066-.4132-6.1983-1.1827-9.4756l248.5604-143.5164v39.2134ZM750.9379,580.1606l-54.4029-31.4192c-31.1342-17.9681-81.6613,11.0715-112.6388,64.7334-30.9917,53.6619-30.8634,111.9548.2565,129.9228l54.4029,31.4049c6.2268,3.5907,13.2801,5.3861,20.9319,5.3861,10.9433,0,23.0692-3.662,35.6226-10.9148,21.2026-12.2399,41.1227-33.2715,56.0985-59.2048,30.9917-53.6619,30.8634-111.9548-.2565-129.9228l-.0142.0142ZM584.851,742.1723c-30.4502-17.5833-30.3362-74.9928.2565-127.9707,30.5927-52.9922,80.2507-81.7895,110.7009-64.2205l45.426,26.2325c-13.5651-3.5623-29.809-.3562-46.8509,9.4899-21.2026,12.2399-41.1228,33.2715-56.0985,59.2048-27.9566,48.4183-30.5785,100.584-7.9652,123.525l-45.4687-26.2468v-.0142ZM749.969,709.371c-14.8475,25.7195-34.5967,46.5659-55.5713,58.6776-20.8606,12.0405-40.4388,14.0068-55.1296,5.5286-30.4502-17.5833-30.3362-74.9928.2565-127.9707,14.8475-25.7195,34.5967-46.5659,55.5713-58.6776,12.3397-7.1245,24.2234-10.7153,34.9102-10.7153,7.3953,0,14.2206,1.7241,20.2194,5.1867,30.4502,17.5833,30.3362,74.9928-.2565,127.9707ZM721.1289,631.7707c-14.6908-8.4924-38.4867,5.1154-53.035,30.322-7.0106,12.1544-10.872,25.1638-10.872,36.6486s3.9612,20.3049,11.1428,24.4514c2.9638,1.7099,6.2981,2.5221,9.8604,2.5221,14.0638,0,31.5759-12.7244,43.1889-32.844,7.0106-12.1544,10.872-25.1638,10.872-36.6486s-3.9612-20.3049-11.1428-24.4514h-.0143ZM720.1599,692.1581c-14.1636,24.5226-37.076,37.8882-51.0971,29.7948-6.7256-3.8757-10.4303-12.126-10.4303-23.2117s3.7903-23.9954,10.6868-35.9361c11.3565-19.6637,28.3414-32.1601,41.8637-32.1601,3.3343,0,6.4548.7552,9.2334,2.3653,6.7256,3.8757,10.4303,12.126,10.4303,23.2117s-3.7903,23.9954-10.6868,35.9361h0Z"/>
  </g>
  <g id="Layer_3" data-name="Layer 3">
    <path d="M511.53,605.57c3.67,4,5.31,6.72-.68,9.47s-20.55,8.59-23.13,9.8-10.08,2.62-13.42-2.57c-32.48-49.53-27.82-69-27.71-93l-.1-.17,27.78-16v.06c0,23.52-4.78,44.62,24.18,90.7,2.19,2.93,9.4-2.25,13.08,1.71Z"/>
    <path d="M432.91,432.22l15.72-8.77c-.4157.8227-.77,1.675-1.06,2.55-.4528,1.3006-.7875,2.6393-1,4-.2115,1.4637-.3152,2.9411-.31,4.42v3.07l-20.89,12.11-.43-.74c-.006-1.3163.0977-2.6309.31-3.93.2026-1.3579.5204-2.696.95-4,.41-1.2336.9497-2.4202,1.61-3.54.6272-1.0682,1.3828-2.0555,2.25-2.94.8455-.868,1.8041-1.6181,2.85-2.23Z"/>
  </g>
</svg>