<?xml version="1.0" encoding="UTF-8"?>
<svg xmlns="http://www.w3.org/2000/svg" viewBox="0 0 1000 1000">
  <g id="Layer_2" data-name="Layer 2">
    <path d="M769.2466,258.1011c-4.4188-2.5515-8.5952-2.9363-11.7881-1.0976l-212.3994,122.6275c-1.3542-.9123-2.7083-1.7247-4.0766-2.3947-2.9221-1.4397-5.8156-2.2949-8.5667-2.5372-2.4232-.2138-4.6896.0855-6.7707.8125-.1996.0713-.3991.1283-.5987.2138-.0998.0428-.1996.057-.2851.0998l-.2566.1283c-.4276.1853-.841.3849-1.2544.6272l-63.3592,36.5759-63.3592,36.5759c-1.0976.6272-2.1096,1.4112-3.0076,2.3234-.8837.898-1.682,1.9385-2.3662,3.0789-.6699,1.1261-1.2258,2.3662-1.6677,3.6918-.4419,1.2971-.7697,2.694-.9835,4.1622-.2138,1.4396-.3278,2.9648-.3278,4.5328v2.6655l-211.2734,122.0003h0c-3.1929,1.8388-4.9462,5.6589-4.9462,10.7618v40.8663c0,10.2059,7.184,22.6497,16.0215,27.7526,2.58,1.4967,5.0887,2.2379,7.3551,2.2379,1.6107,0,3.1074-.3848,4.433-1.1403h0l230.3452-132.9902v5.8727c0,3.6633.1853,7.4834.5702,11.332,1.0263,10.5622,3.421,21.5806,7.1128,32.7843,3.6918,11.1609,8.5809,22.222,14.5534,32.8841,5.9724,10.662,12.8856,20.6684,20.5258,29.7482,7.6829,9.1084,15.9218,17.0621,24.5027,23.6332,8.6237,6.6139,17.3757,11.6741,26.0279,15.0523,8.2388,3.2214,16.2211,4.8464,23.733,4.8464h.955c7.7257-.1425,14.7672-2.0241,20.9535-5.5876l63.3592-36.5759,63.3592-36.5759c.8695-.4989,1.7105-1.0405,2.5372-1.6107.2138-.1568.4276-.3136.6557-.4704.6414-.4561,1.2686-.9265,1.8958-1.4254.1568-.1283.3136-.2566.4846-.3991.9978-.8267,1.9671-1.682,2.8936-2.6085,2.5372-2.5372,4.8179-5.4593,6.7849-8.7092,1.9528-3.2214,3.6348-6.8134,4.9746-10.6478,1.3399-3.8058,2.3804-7.9538,3.0931-12.287.7127-4.319,1.1118-8.9088,1.1831-13.6554h0c.0143-.9978-.5131-1.9385-1.3826-2.4374h0l-21.88-12.6291h0c-1.4967-.8695-2.9934-1.9528-4.4473-3.2214-1.4824-1.2971-2.9221-2.7938-4.2762-4.433-1.3542-1.6535-2.6227-3.4495-3.7488-5.331s-2.1238-3.8486-2.9506-5.8442c-.8267-1.9956-1.4682-3.9911-1.9385-5.9439h0c-1.3684-5.7729-3.421-11.617-6.1007-17.3614-2.6655-5.7159-5.8727-11.2179-9.5502-16.3351-3.6918-5.1315-7.7542-9.7498-12.0874-13.7266-4.376-4.0339-8.923-7.3123-13.5128-9.764-4.6753-2.5087-9.2936-4.0909-13.7266-4.7038-4.4758-.6272-8.6379-.2566-12.401,1.0976-1.2401.4419-2.4374.9978-3.5492,1.6535l-5.6589,3.2642c-1.0263.5987-2.0241,1.2829-2.9648,2.0526-.9265.7555-1.8102,1.6107-2.6227,2.5372-.8125.9123-1.568,1.91-2.2521,2.9648-.6842,1.0405-1.2971,2.1809-1.853,3.364-.5417,1.1688-1.0406,2.4232-1.4682,3.7061-.1568.4704-.3279.9123-.5274,1.3256-.1853.3991-.3991.784-.6272,1.1403-.1283,0-.2423.0142-.3706.0142-.6984,0-1.4824-.0713-2.2664-.2281-.8125-.171-1.6677-.4134-2.5229-.7555-.8837-.3421-1.796-.784-2.694-1.3114h0l-7.5261-4.3475h0c-.6557-.3706-1.3256-.8837-1.9671-1.4682-.6984-.6272-1.3542-1.3684-1.9671-2.1809-.6272-.841-1.1831-1.739-1.6677-2.694-.4704-.9408-.8695-1.91-1.1546-2.8651-.2708-.9265-.4561-1.8245-.5274-2.6655-.0143-.2708-.0285-.5417-.0285-.7982v-7.2268l212.2996-122.5705c3.1929-1.8388,4.9462-5.6589,4.9462-10.7618v-40.8663h0c0-10.2059-7.184-22.6497-16.0215-27.7526l-.0285-.0712ZM758.1569,258.2436c2.694-1.5537,6.4713-1.1546,10.3627,1.0976,8.3244,4.8036,15.1093,16.4492,15.2946,26.1134l-217.3455,125.4783c-.8837-3.3354-2.1238-6.6851-3.7203-9.9636-1.6677-3.4637-3.6775-6.7707-5.9582-9.8353-2.2949-3.0789-4.8036-5.8299-7.4834-8.1818-.9978-.8695-2.0098-1.6677-3.0218-2.4089l211.8719-122.2996ZM613.6638,494.6611c4.2192-2.4374,9.8923-1.853,15.9645,1.6535,6.1862,3.5778,12.0161,9.7355,16.4206,17.3472,4.4045,7.6117,6.8134,15.7364,6.8134,22.892s-2.3234,12.2157-6.5569,14.6531l-49.8606,28.7789c1.5394-2.3377,2.5372-5.3025,2.8936-8.809,1.4682-14.3253-8.0108-33.5112-21.1245-42.7621-4.9889-3.5207-10.0206-5.217-14.3966-4.9747l49.8464-28.7789h0ZM611.2548,494.4045c2.3519-2.637,5.6018-4.0196,9.4219-3.9199,12.2015.3564,26.8689,14.924,32.6988,32.485,3.535,10.6335,3.1359,20.3548-1.0691,25.9851-1.796,2.4232-4.1907,3.9484-7.0843,4.5043l1.796-1.0263c4.6896-2.7083,7.2696-8.3386,7.2696-15.879s-2.4945-15.7792-6.9987-23.6047c-4.5185-7.8255-10.5338-14.1685-16.9338-17.8603-6.5283-3.7631-12.7004-4.3617-17.3899-1.6535l-1.6962.9835-.0142-.0143ZM590.786,635.8901l-20.4688-11.8166,4.2335-2.4517,15.8647,9.1653h0c.114.057.2281.0998.3564.0998s.2423-.0285.3564-.0998h0l57.3297-33.0979,4.2335,2.4517-61.9338,35.7491h.0285ZM654.0739,600.9962c.3564.3421.6414.8267.7412,1.3114l-62.0906,35.8489c-.171-.4704-.4134-.9265-.7412-1.3114l62.0906-35.8489ZM591.456,638.7979c-.4276.114-.9123.0998-1.3399-.0143.114-.4134.3564-.841.6699-1.1546.3136.3136.5559.7412.6699,1.1688ZM438.5529,542.3408c.2708,0,.5274-.0428.784-.0855.3849,4.319,3.2072,9.2081,6.7564,11.6883-.3278.3706-.5844.8125-.7555,1.2829-3.9484-2.7225-7.0843-8.1818-7.4834-12.9569.2281.0428.4561.0855.6985.0855v-.0142ZM437.8117,540.7871v-43.9594c.2423.0428.4846.0855.7412.0855s.4989-.0428.7412-.0855v43.9594c-.4561.1425-1.012.1425-1.4824,0h0ZM440.748,541.6709l4.2762-2.4659c.4419,4.1907,3.1502,8.8518,6.5426,11.332l-4.2762,2.4659c-3.5493-2.2379-6.3716-7.1413-6.5426-11.332ZM440.7053,540.0459v-43.7741l61.9338-35.7491v52.1555l-53.3814,30.8172c-.0285-.5131-.0855-1.0263-.2138-1.5109-.2138-.8125-.5559-1.568-1.0691-2.3234-.5417-.8125-1.1831-1.4824-1.796-2.1381h0l-.0428-.0428c-.0285-.0285-.057-.0428-.0855-.057s-.0428-.0285-.0713-.0428c0,0-.0142,0-.0285-.0142h-.0428c-.0428,0-.0713-.0285-.114-.0285h-.1425c-.0428,0-.0713,0-.114.0142h-.114c-.0142,0-.0285.0142-.057.0285,0,0-.0285,0-.0428.0142l-4.5898,2.6513h-.0285ZM447.3192,554.6991l6.2718,3.6205c-.3136.3706-.5702.8125-.7412,1.2829l-6.2718-3.6205c.114-.4704.3849-.955.7412-1.2829ZM448.6875,553.8439l4.2335-2.4517,6.1007,3.5207-4.2335,2.4517-6.1007-3.5207ZM460.4614,555.7396c2.7083,1.4967,5.3738,2.3091,7.8255,2.3519-.0428.0428-.0855.0998-.1425.1283-.2851.2281-.5702.4419-.8837.6129-2.8936,1.6677-6.8419,1.3969-10.9899-.6842l4.1907-2.4232v.0143ZM454.8595,559.0466c2.8223,1.5537,5.5448,2.3519,8.025,2.3519,1.853,0,3.5635-.4419,5.0744-1.3114.3706-.2138.7412-.4704,1.0691-.7412.2993-.2423.5702-.5131.8267-.8125-1.0976,1.6535-2.5372,2.8508-4.2762,3.5207-3.2072,1.2258-7.2696.5987-11.4887-1.739.114-.4704.3991-.9408.7412-1.2686h.0285ZM469.6837,556.4951c-.1283,0-.2423.0142-.3706.0142-.7127,0-1.4824-.0713-2.2664-.2281-.8125-.171-1.6677-.4134-2.523-.7555-.8837-.3421-1.7818-.784-2.694-1.3114l-7.5261-4.3475h0c-.4419-.2566-.8837-.5559-1.3399-.9265s-.9123-.7982-1.3541-1.2544c-.4561-.4704-.8837-.9978-1.2829-1.5252-.2851-.3849-.5274-.784-.784-1.1831l53.1248-30.6747c.0713,6.1578.7269,12.6291,1.9528,19.2715-2.0526-.3564-4.0624-.4989-6.0152-.4561-3.2499.0998-6.286.7982-9.0513,2.0526-.0285,0-.057.0285-.0998.0428-.6129.2851-1.2258.5844-1.8245.9265l-5.6589,3.2642c-1.0405.5987-2.0241,1.2829-2.9648,2.0526-.9265.7555-1.8103,1.6107-2.6227,2.5372-.7982.9123-1.5537,1.91-2.2521,2.9648-.6699,1.0405-1.2971,2.1666-1.853,3.364-.5559,1.1688-1.0405,2.4232-1.4682,3.7061-.1568.4704-.3278.9123-.5274,1.3256-.1853.3991-.3991.784-.6272,1.1403h.0285ZM548.8507,570.8632c-3.1359-5.5448-6.7564-10.7475-10.7476-15.4371-3.0504-3.5778-6.2718-6.8134-9.6072-9.6357,6.6994.0428,14.6959,4.8749,21.3668,13.0139,10.6763,13.0282,14.8385,30.5607,9.8211,40.1394-.4276-1.2258-.7982-2.4374-1.0833-3.649-.5844-2.4232-1.2829-4.8891-2.0953-7.3266-1.9385-5.8156-4.5043-11.5743-7.6401-17.1048h-.0143ZM556.4481,595.879l-4.376,2.523c-7.2981-29.2493-30.7745-56.5743-52.7257-61.1926-3.5065-.7412-6.8419-.841-9.9493-.3564.3136-.1568.6272-.3278.955-.4704.4419-.1853.8837-.3564,1.3399-.5131.1425-.0428.2851-.0998.4134-.1425,3.7631-1.1973,8.0393-1.3399,12.6006-.3849,21.5521,4.5328,44.6721,31.6155,51.7279,60.5369h.0143ZM569.9466,534.3586c1.8673-.3564,4.0481-.0142,6.3716,1.0548,7.7114,5.2027,14.368,15.6652,15.8077,25.7285.0998.6842.1568,1.3541.1996,2.0098-.2281,2.5657-1.0263,4.604-2.2664,6.058l-17.846,10.3057h0l-9.3079,5.3738c-1.0548-8.8233-5.2313-18.8011-11.9592-26.9971-2.5515-3.1216-5.3168-5.7586-8.139-7.8682l27.1397-15.6652h0ZM558.6147,539.2477c.7697-2.7795,2.2236-4.8464,4.2619-6.0295,2.2664-1.3114,5.1172-1.4396,8.2816-.3991-.4561,0-.898.0428-1.3256.114-.1425-.0142-.2993,0-.4276.0855h-.0285c-1.625.3849-3.0646,1.1831-4.205,2.4374l-6.5569,3.7916h0ZM591.9976,568.9389c-.5702,2.694-1.739,4.8606-3.478,6.2718-2.1524,1.739-5.0887,2.2094-8.3528,1.3684l6.5711-3.7916c1.6535-.3564,3.0646-1.1973,4.205-2.4232h.0285c.1425-.0855.2281-.2138.2851-.3421.2708-.3278.5274-.6985.7555-1.0691l-.0143-.0142ZM563.062,586.4428l9.5075-5.4878c4.547,3.1216,9.1226,4.7608,13.1993,4.7608,1.9528,0,3.7916-.3706,5.4593-1.1261.2993-.1425.5844-.3278.8695-.4846.0428-.0142.0998,0,.1425-.0428l6.3145-3.649c9.593,10.8188,20.2407,19.7561,30.8885,25.9281l-37.9585,21.9227h0c-.4134.2423-.9265.2423-1.3399,0h0l-14.1685-8.1818h0c-1.4967-.8553-2.9934-1.9528-4.4473-3.2214-1.4824-1.3114-2.9221-2.7938-4.2762-4.433-1.3684-1.6535-2.6227-3.4495-3.7488-5.331s-2.1238-3.8486-2.9506-5.8584c-.0713-.1853-.1283-.3706-.1996-.5559,2.3234-3.6918,3.1929-8.695,2.751-14.254l-.0427.0142ZM590.6293,583.2784c-4.5328,2.0668-10.5765.9123-16.6915-3.1216l4.547-2.6227c1.6535.5702,3.2499.8695,4.7466.8695,2.3519,0,4.4758-.6985,6.2005-2.0953,3.2072-2.5942,4.7324-7.3123,4.3475-13.128h0c0-.0713,0-.1283-.0143-.1853-.0428-.6699-.0998-1.3541-.2138-2.0526-1.4967-10.3627-8.3244-21.153-16.2924-26.6123-.057-.0713-.1425-.1283-.2281-.171-.0285,0-.0428-.0142-.0713-.0285-1.5394-1.0263-3.1074-1.8815-4.7038-2.4659-3.8201-1.4112-7.2981-1.2971-10.0776.3136-2.7083,1.5537-4.5043,4.4045-5.2313,8.2388l-4.5185,2.6085c-.0998-1.6535-.0998-3.2499.057-4.7466.6129-6.0437,3.2072-10.3912,7.2981-12.2585,4.7608-2.1666,11.1894-.7982,17.6322,3.7488,12.7431,8.9943,21.9512,27.5816,20.5401,41.4507-.6129,6.0437-3.2072,10.3912-7.2981,12.2585h-.0285ZM558.1586,525.0507s-.0713.0713-.114.0998c-3.9056,2.3234-6.3858,6.7849-6.9987,12.7859-.1853,1.796-.171,3.7061-.0285,5.6874l-9.4932,5.4735c-5.0459-3.4637-10.2201-5.16-14.7387-4.6753-.5274-.4134-1.0405-.8553-1.568-1.2544-4.5328-3.421-9.1511-6.0152-13.6981-7.7257-1.8245-.6842-3.6205-1.2116-5.4023-1.5964-1.3256-7.0415-2.0241-13.8977-2.0526-20.3833l53.3814-30.8172c.1568,12.0447,2.5657,25.4007,7.013,38.7567l-6.3145,3.6348.0142.0142ZM477.4664,544.9351c.7697-.8695,1.5964-1.6677,2.4517-2.3804.8695-.7127,1.796-1.3541,2.7653-1.91,4.547-2.6227,10.1916-3.3212,16.3636-2.0383,21.5379,4.5328,44.6436,31.587,51.7137,60.4799-.4704.171-.9978.2708-1.4397.2708-6.9417-28.3798-29.7197-54.9921-51.0009-59.4536-9.2509-1.9528-17.0763.5702-22.2648,6.7992.4419-.6129.9123-1.2116,1.3969-1.7675h.0142ZM551.1313,600.4688c2.5229,9.6642,9.0513,18.9721,16.5917,23.7044-.3136.3706-.5702.8125-.7412,1.2829-7.8255-4.9034-14.6247-14.6104-17.2616-24.688.4704-.0428.9693-.1425,1.4254-.2993h-.0143ZM552.4427,599.8416l4.376-2.523c2.5229,9.536,8.9373,18.7298,16.3494,23.4764l-4.2619,2.466c-7.4976-4.49-14.0402-13.7979-16.4777-23.4051l.0142-.0142ZM568.9631,624.9287l20.6256,11.9021c-.3136.3706-.5702.8125-.7412,1.2829l-20.6256-11.9021c.114-.4704.3848-.955.7412-1.2829ZM630.8399,605.5432c-10.6763-6.0722-21.3811-14.9953-31.031-25.8426l1.2829-.7412c9.7355,10.8758,20.4973,19.7276,31.2591,25.7143l-1.4967.8695h-.0143ZM565.7275,520.6889c-4.433-13.3845-6.8134-26.7548-6.8705-38.7567.4561-.1425,1.0263-.1283,1.4824,0,.057,11.7881,2.3662,24.9018,6.6709,38.0155l-1.2829.7412ZM558.9282,479.5803c.0285-.2566.0713-.5131.1283-.7982.1568-.8125.4419-1.7247.8125-2.751,0,1.012.0428,1.9956.171,2.9221.0285.2138.057.4134.0998.5987-.3991-.057-.7982-.0428-1.1973.0142l-.0143.0142ZM561.437,478.7821c-.0998-.8125-.1425-1.682-.1568-2.58,1.1688,3.1216,3.3212,6.0865,5.8299,7.8397-.3136.3706-.5702.7982-.7412,1.2401-1.7247-1.1973-3.3639-2.9221-4.6753-5.0317-.0998-.4419-.1996-.9408-.2708-1.4967l.0142.0285ZM560.6958,470.7713h-.0143c-.0285.0142-.0428.0428-.057.057-.0285.0285-.0713.057-.0998.0855,0,.0142-.0285.0285-.0428.0428-.0143.0285-.0285.0428-.0428.0713s-.0285.0428-.0428.0713h0c-.5987,1.3256-1.2116,2.6798-1.7247,4.0339-.4704,1.2544-.7982,2.3377-.9978,3.3354-.1568.7555-.2281,1.4396-.2281,2.0668v.4704l-53.3671,30.803v-52.1555l61.9338-35.7491v43.7742l-5.3025,3.0646-.0142.0285ZM523.9489,377.8065c4.4758-2.58,10.719-1.9385,17.1476,1.7675,13.6126,7.854,24.7022,26.9401,24.8733,42.7193l-61.9623,35.7776c-.5417-16.0786-11.7881-35.1932-25.5575-43.1612-4.5043-2.5942-8.8375-3.7773-12.7004-3.5065l58.1992-33.5968h0ZM460.6039,414.3824c4.547-2.6227,10.6335-1.9956,17.1476,1.7675,13.6126,7.854,24.7022,26.9401,24.8876,42.7193l-61.9623,35.7776c-.5417-16.0786-11.7738-35.2075-25.5575-43.1612-4.5043-2.5942-8.8518-3.7773-12.7004-3.5065l58.1992-33.5968h-.0143ZM394.5365,453.0678c.8125-.8267,1.7247-1.5252,2.7083-2.0953,4.4758-2.58,10.719-1.9385,17.1476,1.7675,13.5983,7.854,24.6595,26.8831,24.8733,42.6481-.4704.1425-1.0263.1283-1.4824-.0142-.2281-15.2946-10.9614-33.7393-24.1321-41.351-6.5854-3.8058-12.8144-4.3902-17.5467-1.6677-1.1261.6414-2.1239,1.4824-2.9934,2.4517.4419-.6129.9123-1.2116,1.4254-1.7247v-.0143ZM399.9672,465.0554h0l7.5832-4.376c1.4396.1425,3.0361.6414,4.6468,1.4254,1.6392.8125,3.3069,1.9243,4.9319,3.3069,1.6677,1.4254,3.2784,3.0931,4.7608,4.9747,1.5109,1.91,2.8651,3.9911,4.0196,6.1862,1.1688,2.1951,2.1096,4.4473,2.8223,6.7137.6842,2.2094,1.1261,4.376,1.3114,6.4428l-225.3848,130.1108c-.5274-9.9636-7.4834-21.6519-15.9788-26.5553-2.4517-1.4112-4.8321-2.1381-7.013-2.2094l218.2863-126.0342.0142.0142ZM402.59,460.2233c-1.4539.841-2.6227,2.0811-3.5065,3.6918l-2.0526,1.1831c.9978-2.4232,2.5942-4.1479,4.6896-5.0317.8837-.3706,1.853-.5702,2.8793-.6272-.7127.171-1.3969.4134-2.0241.7697l.0143.0143ZM403.5022,461.3637l-.4134.2423c.0713-.0428.1425-.0998.2138-.1425.0713-.0428.1425-.057.1996-.0998h0ZM199.0566,671.4396c-2.7368,1.5822-6.4143,1.1831-10.3627-1.0975-8.4384-4.8749-15.3088-16.777-15.3088-26.5268v-40.8663c0-4.5613,1.4967-7.9538,4.2334-9.5217,2.7225-1.5822,6.4143-1.1831,10.3627,1.0976,8.4384,4.8749,15.3088,16.777,15.3088,26.5268v40.8663c0,4.5613-1.4967,7.9537-4.2334,9.5217h0ZM430.1288,538.0361l-227.0098,131.0659c.9835-1.8245,1.5252-4.1052,1.5679-6.7564l225.4276-130.1536v5.8442h.0143ZM430.1288,530.5385l-225.4133,130.1394v-39.2271l225.3991-130.1251c0,.1425.0142.2851.0142.4276v38.7852h0ZM510.7496,682.5293c-43.3465-25.0301-78.5968-86.0944-78.5968-136.1403v-53.7947c0-11.7738-8.2959-26.1562-18.5017-32.0431-4.547-2.6227-8.9658-3.2642-12.4723-1.796-2.9221,1.2258-5.0032,3.7916-6.0295,7.4264l-4.9462,2.8508v-.6699c0-7.07,2.3519-12.3297,6.6139-14.7957,4.262-2.4659,9.9921-1.8673,16.1213,1.6677,12.9284,7.4691,23.4479,25.6858,23.4479,40.6098v45.4134c0,5.7729,4.0624,12.8144,9.0656,15.6937l7.5261,4.3475c3.1644,1.8245,6.3003,2.7653,9.1226,2.7653,1.4254,0,2.7653-.2423,4.0054-.7127,3.0789-1.1831,5.3453-3.7346,6.5569-7.4121h0v-.0285c3.8343-11.7026,13.299-17.1619,25.3579-14.6389,20.9249,4.3902,43.3608,30.8172,50.0459,58.8977,2.637,11.1039,10.2771,21.9655,19.0149,26.9971l21.5093,12.4153c-.4704,23.1771-8.6237,40.4245-22.9918,48.5777-14.6531,8.3101-34.1384,6.286-54.8638-5.6731l.0143.0428ZM568.3359,689.0006c-4.3475,2.5087-9.1653,4.1479-14.3396,4.9034,4.376-.8267,8.4954-2.3091,12.3155-4.4615,14.7102-8.3386,23.0916-25.814,23.6902-49.2335.2708.057.5417.0998.8125.0998.2281,0,.4419-.0428.6699-.0713-.5844,23.1628-8.7805,40.4672-23.1485,48.763h0ZM634.1896,649.4314c-1.4111.7982-2.5372,1.3542-3.2499,1.5964-.0855.0285-.1568.0428-.2138.057.0998-.2423.3279-.6699.7697-1.3114.2423-.0285.4846-.171.6129-.3848.0713-.114.171-.2993.3279-.5131.2281-.3279.5274-.727.8837-1.1688.2566-.3136.5417-.6557.8553-1.012.4704,1.2116.4276,2.2807.0285,2.7368h-.0143ZM631.6524,647.165c-1.2971,1.6107-2.0953,2.8365-2.3519,3.649-.2423.7555-.0285,1.1831.1996,1.4111.2423.2423.5702.3279.8837.3279.3421,0,.6984-.0998.9835-.1853.3279-.0998.7127-.2708,1.1546-.4704-.2708.171-.5417.3564-.8267.5131l-54.3221,31.3589c9.7213-9.7782,15.1805-25.0301,15.5512-44.102l61.891-35.7349c-.3279,11.56-2.5515,21.6804-6.6281,30.076l-5.2455,3.0218c-.8267.4704-1.682,1.0406-2.58,1.6962-1.3399.9835-2.7938,2.2094-4.1907,3.5492-1.6392,1.5537-3.2499,3.2927-4.5328,4.8749l.0141.0143ZM639.6204,646.2955l-3.7203,2.1524c.0285-.898-.2138-1.8958-.6984-2.8936.5844-.6129,1.1831-1.2401,1.8102-1.8388.1568-.1568.3136-.2851.4704-.4276l1.5252-.8837c1.0406,1.5964,1.1688,3.2784.6272,3.9056l-.0143-.0143ZM645.0654,643.1454l-3.7203,2.1524c.0285-1.1261-.3564-2.4232-1.1118-3.6205l4.205-2.4374c1.0406,1.5964,1.1688,3.2784.6272,3.9056h0ZM645.6641,638.5271c.6984-.4134,1.5964-.9693,2.5657-1.6107,1.6535-1.0833,2.9791-2.0953,3.9626-3.0076.2138-.1996.4134-.3991.6129-.5987l1.1403-.6557c.2851-.1568.5417-.2993.7982-.4276.3279-.171.6272-.2851.8553-.3706.1568-.057.2851-.0855.3279-.0998.3706-.0428.5702-.3564.5559-.7127.057-.0285.1283-.057.1853-.0855,1.2971-.4846,1.8673-.3706,2.0241-.3136.1283.0428.1568.0855.1568.114.057.1283.0428.4276-.1425.8837-.3991.955-1.4254,2.2521-2.8651,3.649-1.4967,1.4397-3.5065,3.0646-5.8156,4.6896-1.0548.7412-2.1524,1.4682-3.2214,2.1238.0143-1.1118-.3564-2.3947-1.1261-3.5778h-.0142ZM700.4138,612.0858c-.1425.114-.2851.2281-.4276.3564-.5987.4846-1.2258.955-1.853,1.4112-.2138.1425-.4134.2993-.6129.4419-.7982.5559-1.625,1.0691-2.466,1.568l-46.568,26.8831c.784-.4989,1.568-1.0263,2.3519-1.5822,1.6535-1.1546,4.0339-2.9363,5.9867-4.8179,1.1261-1.0833,2.58-2.6655,3.1929-4.1194.3421-.7982.3848-1.4967.1283-2.0383-.1996-.4276-.5417-.727-1.0263-.8695-.727-.2423-1.7247-.114-2.9506.3421-.7127.2708-1.4967.6414-2.3234,1.1261l-3.535,2.0383c3.7346-8.4241,5.7444-18.402,5.9724-29.7054l61.891-35.7349c-.5702,19.9699-6.7992,35.5496-17.7605,44.7149v-.0143ZM718.1743,565.7317l-62.0906,35.8489c-.171-.4704-.4134-.9265-.7412-1.3114l62.0906-35.8489c.3564.3421.6414.8267.7412,1.3114ZM716.0648,563.5651l-61.9338,35.7491-4.2335-2.4517,56.617-32.6845h0l.0143-.0142c.0428-.0285.0855-.0713.1283-.114.0285-.0285.057-.057.0855-.0855,0,0,.0143-.0285.0285-.0428h0c.0143-.0285.0143-.057.0285-.0855.0143-.0428.0428-.0713.0428-.114v-.0285h0v-.2851h0v-.0285c0-.0428-.0285-.0713-.0428-.114,0-.0285,0-.057-.0285-.0855l-.0143-.0142v-.0142h0v-.0142c-.0285-.0285-.057-.057-.0855-.0855s-.057-.057-.0855-.0855c0,0-.0285-.0142-.0428-.0285l-.0143-.0142-15.152-8.752,4.2335-2.4517,20.4688,11.8166-.0142.0285ZM701.5399,563.4083l-12.2727-7.0843c.114-.4704.3848-.955.7412-1.2829l13.2705,7.6687c-.6414.0855-1.2116.2566-1.5964.5702-.057.0428-.0998.0855-.1425.1425v-.0143ZM694.2276,550.8933l-4.2619,2.4659c-7.4976-4.49-14.0402-13.7979-16.4777-23.4051l4.3902-2.5372c2.5229,9.536,8.9373,18.7298,16.3494,23.4764ZM688.7683,554.2857c-.3279.3706-.5702.8125-.7412,1.2829-7.8255-4.9034-14.6104-14.5961-17.2616-24.6737.4704-.0428.955-.1425,1.4254-.2993,2.5229,9.6642,9.0513,18.9721,16.5775,23.7045v-.0142ZM625.7654,465.4546c21.5521,4.5328,44.6721,31.6155,51.7279,60.5369l-4.376,2.523c-7.2981-29.235-30.7887-56.5743-52.7257-61.1926-3.5207-.7412-6.8705-.841-9.9921-.3421,4.3617-2.1809,9.6357-2.7225,15.3658-1.5252ZM598.5117,475.0475c.7697-.8553,1.5822-1.6677,2.4517-2.3804.8695-.7127,1.796-1.3541,2.7653-1.9243,4.547-2.6227,10.2059-3.3212,16.3636-2.0383,21.5378,4.5328,44.6437,31.587,51.7136,60.4799-.4704.171-.9978.2708-1.4397.2708-6.9417-28.3798-29.7197-54.9921-51.0009-59.4536-9.2651-1.9528-17.0906.5702-22.2648,6.7992.4419-.6129.9123-1.2116,1.3969-1.7675l.0142.0142ZM593.7224,486.0802h0v-.0285c3.8343-11.7026,13.299-17.1761,25.3579-14.6389,20.9249,4.3902,43.375,30.8172,50.0459,58.8977,2.637,11.1182,10.2771,21.9655,19.0149,26.9971l12.9569,7.4834v.171l-53.9943,31.1736h0l-13.3275,7.6972c-10.7903-5.8727-21.6234-14.7244-31.4159-25.6288l40.0111-23.1058h.2851c4.49,0,8.2246-1.8245,10.8188-5.3167,4.4758-6.0152,4.9462-16.2211,1.2686-27.2822-6.0009-18.0741-21.267-33.0836-34.0102-33.4685-5.388-.1425-9.7925,2.3519-12.4153,7.0415l-40.0396,23.12c-4.0909-12.5293-6.3145-25.0443-6.4856-36.3478,1.4111,1.796,3.0218,3.2499,4.7038,4.2192l7.5261,4.3475c3.1644,1.8245,6.3003,2.7653,9.1368,2.7653,1.4254,0,2.7653-.2423,4.0054-.7127,3.0789-1.1831,5.3453-3.7488,6.5569-7.4121v.0285ZM567.6232,486.0944c.114-.4704.3848-.955.7412-1.2829l6.2718,3.6205c-.3136.3706-.5702.8125-.7412,1.2829l-6.2718-3.6205ZM590.9286,488.6459c-1.0975,1.6535-2.5372,2.8508-4.2762,3.5207-3.2072,1.2258-7.2696.5987-11.503-1.739.114-.4704.3991-.9408.7412-1.2686,2.8223,1.5537,5.5448,2.3519,8.025,2.3519,1.853,0,3.5635-.4276,5.0744-1.3114h0c.3706-.2138.727-.4704,1.0833-.7412.2993-.2423.5702-.5274.841-.8125h.0143ZM589.3321,488.2183s-.0855.0855-.1425.1283c-.2851.2281-.5844.4419-.8837.6129h0c-2.8936,1.6677-6.8419,1.3969-10.9898-.6842l4.1907-2.4232c2.7083,1.4967,5.3738,2.2949,7.8255,2.3519v.0143ZM573.9663,481.5189l6.1007,3.5207-4.2335,2.4517-6.1007-3.5207,4.2335-2.4517ZM572.6121,480.6494l-4.2762,2.4659c-3.535-2.2379-6.3716-7.1413-6.5426-11.332l4.2762-2.4659c.4419,4.1907,3.1501,8.8518,6.5426,11.332ZM779.6093,336.256l-211.5869,122.1571v-5.8442l215.7633-124.566c-.2708,3.8771-1.7533,6.8562-4.1764,8.2673v-.0143ZM783.8427,326.3209l-215.8204,124.6088v-29.064c0-3.0076-.4134-6.2005-1.1831-9.4789l217.0034-125.293v39.2271ZM510.7496,574.0133c-4.2477-2.4517-8.2673-2.8223-11.332-1.0548s-4.7608,5.4451-4.7608,10.3484,1.5964,10.1346,4.49,15.1663c2.8936,5.0174,6.7564,9.0941,10.8758,11.4745,2.4802,1.4254,4.8749,2.1524,7.07,2.1524,1.5537,0,2.9934-.3706,4.262-1.0976,3.0646-1.7675,4.7608-5.4451,4.7608-10.3342s-1.5964-10.1346-4.49-15.1663c-2.8936-5.0174-6.7564-9.0941-10.8758-11.4745v-.0142ZM520.6562,609.7482c-2.6085,1.4967-6.1292,1.1261-9.9066-1.0548-3.9056-2.2521-7.5832-6.1435-10.3627-10.9471s-4.3047-9.9351-4.3047-14.4536,1.4396-7.5974,4.0481-9.1083c1.0548-.6129,2.2521-.9123,3.5635-.9123,1.9243,0,4.0909.6557,6.343,1.9671,3.9056,2.2521,7.5832,6.1435,10.3627,10.9471s4.3047,9.9351,4.3047,14.4536-1.4396,7.5974-4.0481,9.1083Z"/>
  </g>
  <g id="Layer_3" data-name="Layer 3">
    <path d="M373.64,466.92l16.87-9.4c-.26.58-.49,1.18-.7,1.8-.4511,1.3011-.7858,2.6397-1,4-.2119,1.4637-.3155,2.9411-.31,4.42v3.07l-22.65,13.08-.21-.36c-.0056-1.313.0981-2.6242.31-3.92.1966-1.359.5146-2.6977.95-4,.409-1.2324.9452-2.4188,1.6-3.54.6286-1.0672,1.3841-2.0544,2.25-2.94.8636-.8587,1.835-1.6016,2.89-2.21Z"/>
    <path d="M547.23,694.61l-87.57,46.39c-4.1674,2.2175-9.34.8381-11.85-3.16-47.1-74.24-48.41-127.34-53.69-178.47l36.23-20.92v7.08c0,3.65.19,7.4.56,11.23,1.1567,11.0683,3.5345,21.9747,7.09,32.52,3.7725,11.3129,8.6109,22.242,14.45,32.64,5.8523,10.4693,12.6792,20.3631,20.39,29.55,7.2406,8.6643,15.3907,16.526,24.31,23.45,7.8544,6.1449,16.5281,11.1633,25.77,14.91,7.715,3.1603,15.9728,4.784,24.3099,4.78Z"/>
  </g>
</svg>