<?xml version="1.0" encoding="UTF-8"?>
<svg xmlns="http://www.w3.org/2000/svg" viewBox="0 0 1000 1000">
  <g id="Layer_2" data-name="Layer 2">
    <path d="M767.0324,258.5655c-4.4157-2.5497-8.5892-2.9343-11.7798-1.0968l-200.3567,115.6759c-1.3532-.9116-2.7064-1.7235-4.0738-2.393-2.92-1.4387-5.7973-2.2933-8.5607-2.5354-2.4215-.2137-4.6863.0855-6.7659.8119-.1994.0712-.3988.1282-.5983.2137-.0997.0427-.1994.057-.2849.0997l-.2564.1282c-.4273.1852-.8404.3846-1.2535.6267l-124.0086,71.5906h0c-1.0968.6267-2.1081,1.4102-3.0055,2.3218-.8831.8974-1.6808,1.9372-2.3645,3.0767-.6552,1.111-1.225,2.3645-1.6666,3.6892-.4416,1.2962-.7692,2.6921-.9828,4.1593-.2137,1.4386-.3276,2.9628-.3276,4.5296v2.6636l-225.6541,130.2903h0c-3.1907,1.8375-4.9427,5.6549-4.9427,10.7543v40.8377c0,10.1987,7.179,22.6338,16.0103,27.7332,2.5782,1.4956,5.0851,2.2363,7.3499,2.2363,1.6096,0,3.1052-.3846,4.4299-1.1395h0l244.6841-141.2724v12.9906l.0285.9259h0l1.9087,26.2945c0,.1852.0285.3703.0427.5555.1567,1.5953.4843,3.2619.9686,4.9142.4986,1.6808,1.1395,3.3474,1.9372,4.9427.8119,1.6523,1.7663,3.2049,2.8346,4.6293s2.2363,2.6921,3.4471,3.7462c1.2392,1.0825,2.5354,1.9514,3.8317,2.5639h0l103.369,49.2416c.8119.3846,1.6381.7692,2.4927,1.1538s1.752.7692,2.6636,1.1395c.9259.3846,1.8944.7549,2.9058,1.1253,1.225.4416,2.2791.7834,3.2904,1.054.4131.1139.8404.2137,1.2677.3134.7122.1567,1.3389.2564,1.9087.2991.2137.0143.4131.0285.6267.0285h1.9372l4.8288-.1282c1.6238-.0427,3.2334-.0997,4.8572-.1709,1.6238-.057,3.2476-.1282,4.8715-.1994,1.6238-.0712,3.2619-.1567,4.8857-.2422,1.6381-.0855,3.2619-.1852,4.9-.2991h0c.2849-.0143.5555-.0427.8404-.0855,6.5807-.9401,13.3039-2.5212,19.9986-4.6578,6.6235-2.1223,13.3609-4.8572,20.0129-8.1333,6.595-3.2476,13.2185-7.065,19.6995-11.3668,6.4383-4.2732,12.8624-9.1019,19.087-14.358,6.1962-5.2276,12.3069-10.9679,18.1754-17.0501,2.1936-2.2791,3.2904-5.3842,3.0197-8.5464-.0855-.9401-.1852-1.866-.2991-2.7918-.1139-.9259-.2564-1.8375-.3988-2.7349-.1567-.8974-.3134-1.7947-.4986-2.6921-.1852-.8831-.3704-1.7663-.584-2.6494-.1994-.8689-.4273-1.7378-.6552-2.5924h0v-.0285c-.0855-.3419-.2137-.6695-.3418-.9828-.5698-1.5241-1.4671-2.92-2.6494-4.0596l-2.4357-2.336c-.4273-.4131-.7407-.5982-1.054-.7834l-.1282-.0855c-.3704-.2279-.7549-.4416-1.1822-.6695-.4131-.2279-.8404-.4416-1.2962-.6695l-1.3959-.698-1.4671-.7122h0l-105.3205-50.1675h0c-.1567-.0712-.3276-.1852-.527-.3276-.2137-.1709-.4558-.3703-.6837-.6125-.2706-.2849-.5413-.6125-.7977-.9828-.2991-.4273-.584-.9116-.8404-1.4244-.2991-.5982-.5413-1.2108-.7407-1.8375-.1852-.6125-.3134-1.1965-.3846-1.7663-.0285-.1709-.0427-.3276-.0427-.4843h0l-1.6808-23.2463h0l-.057-1.4386v-21.9786l200.257-115.6189c3.1907-1.8375,4.9427-5.6549,4.9427-10.7543v-40.8377c0-10.1987-7.179-22.6338-16.0103-27.7331l.0426.0143ZM755.9505,258.708c2.6921-1.5526,6.4668-1.1538,10.3554,1.0968,8.3185,4.8002,15.0987,16.4376,15.2839,26.1093l-205.2994,118.5247c-.8831-3.3331-2.1223-6.6805-3.7177-9.9566-1.6666-3.4613-3.6749-6.7659-5.954-9.8284-2.2933-3.0767-4.8002-5.8258-7.4781-8.1761-.9971-.8689-2.0084-1.6666-3.0197-2.4072l199.8296-115.3625ZM451.071,548.9873c.2564,0,.527-.0427.7692-.0855v.057c-.4558.1567-1.0113.1852-1.4671.0855v-.1424c.2279.0427.4701.0855.698.0855h0ZM450.3303,547.4489v-58.6854c.2421.0427.4843.0855.7407.0855s.4986-.0427.7407-.0855v58.6854c-.4558.1424-1.0113.1424-1.4814,0h0ZM450.9286,550.5256c.3419,0,.6695-.0427.9971-.114l1.5811,21.7934c-.4701.1424-1.0113.1709-1.4671.0712l-1.5811-21.7934c.1567.0142.3134.0427.4701.0427ZM452.6236,573.7719c.3134,0,.6267-.0427.9401-.114v.527c.057.8689.2137,1.7378.4416,2.5639.3276,1.168.8119,2.2221,1.3959,3.034.3419.4843.7407.8831,1.1395,1.1823-.057.1282-.0997.2564-.1424.3846-.3846-.2849-.7692-.6267-1.1253-1.0398-.7834-.8689-1.4956-1.9799-2.0511-3.2191-.3988-.8831-.698-1.7947-.9116-2.7206-.0427-.2137-.057-.4273-.0997-.6552.1282,0,.2564.0427.3988.0427l.0143.0142ZM453.3216,549.8134l56.9904-32.9037c-19.7992,12.2926-39.0002,30.6247-55.4805,53.7428l-1.5099-20.839h0ZM453.2361,546.694v-58.5003l122.5842-70.7786v58.5003l-122.5842,70.7786h0ZM575.9485,479.0063l1.5383,21.2236c-18.6027-3.1479-39.0572,1.2962-59.2125,12.0789l57.6741-33.3026h0ZM533.8004,371.3214c4.4726-2.5782,10.7115-1.9372,17.1356,1.7663,13.603,7.8485,24.6849,26.9212,24.8559,42.6894l-122.6127,70.7929c-.5413-16.053-11.7656-35.1685-25.5396-43.131-4.5011-2.5924-8.8456-3.7747-12.6914-3.504l118.8523-68.6278v.0143ZM407.0854,445.02c.8119-.8262,1.7235-1.5241,2.7064-2.0939,4.5439-2.6209,10.6261-1.9942,17.1356,1.7663,13.5888,7.8485,24.6422,26.8643,24.8558,42.6182-.4701.1424-1.0256.1282-1.4814-.0142-.2279-15.2839-10.9537-33.7156-24.1152-41.322-6.5807-3.8032-12.8054-4.3872-17.5344-1.6666-1.1253.641-2.1081,1.4671-2.9913,2.4357.4416-.6125.9116-1.2108,1.4244-1.7235h0ZM420.076,452.6263c.527.057,1.0541.1282,1.6096.2706,1.5099.3846,3.091,1.0683,4.7005,2.0654,1.6808,1.0398,3.3616,2.3645,4.9712,3.9456,1.6523,1.6238,3.1907,3.4755,4.5866,5.4982,1.3959,2.0369,2.6209,4.202,3.6322,6.4525.9971,2.2221,1.7663,4.4584,2.2933,6.6662.3276,1.4244.5555,2.7918.6695,4.1165l-239.6988,138.4094c-.527-9.9566-7.4781-21.6367-15.9676-26.5367-2.45-1.4102-4.8287-2.1366-7.0081-2.2078l240.2115-138.68ZM415.1333,452.1705c-1.4529.8404-2.6209,2.0796-3.504,3.6892l-2.0511,1.1823c.9971-2.4215,2.5924-4.145,4.6863-5.0281.8974-.3703,1.866-.5698,2.8915-.6267-.7264.1709-1.4102.4131-2.0369.7692l.0143.0143ZM416.0591,453.3101l-.4273.2421c.0712-.0427.1424-.0997.2137-.1424.0712-.0427.1424-.057.2137-.0997h0ZM197.2422,671.6142c-2.7349,1.5669-6.4098,1.1822-10.3554-1.0968-8.4325-4.8715-15.2981-16.7652-15.2981-26.5082v-40.8377c0-4.5723,1.4956-7.9482,4.2305-9.515,2.7206-1.5669,6.4098-1.1823,10.3554,1.0968,8.4325,4.8715,15.2981,16.7652,15.2981,26.5082v40.8377c0,4.5581-1.4956,7.9482-4.2305,9.515h0ZM442.6528,529.9288l-241.351,139.3352c.9828-1.8232,1.5241-4.1023,1.5668-6.7517l239.7842-138.4378v5.8543ZM442.6528,522.4364l-239.7557,138.4236v-39.1996l239.7415-138.4094v39.1854h.0142ZM560.921,640.0067l-103.2266-49.1704h0c-.3988-.1852-.7834-.3988-1.1823-.6552-1.9087-1.1965-3.8317-3.1337-5.4127-5.4555-1.5811-2.2933-2.8203-4.9427-3.618-7.6348-.4701-1.6096-.7692-3.2049-.8831-4.7433l-1.9087-26.2945c-.0142-.2279-.0285-.4558-.0285-.6837v-60.879c0-11.7656-8.29-26.1378-18.4888-32.0206-4.5439-2.6209-8.9595-3.2619-12.4635-1.7947-2.92,1.225-4.9997,3.7889-6.0252,7.4212l-4.9427,2.8488v-.6695c0-7.0651,2.3503-12.3211,6.6092-14.7853,4.259-2.4642,9.9851-1.866,16.11,1.6666,12.9193,7.4639,23.4314,25.6678,23.4314,40.5813v60.1526c0,.5555.0142,1.111.057,1.695l1.6808,23.2463h0c.0427.5982.1282,1.2108.2706,1.8232.2279,1.0113.5555,2.0227.9971,3.0055.6125,1.3674,1.4102,2.6067,2.2933,3.5895.7692.8547,1.6096,1.5099,2.4357,1.8945l105.2207,50.1248c2.3218,2.2221,4.6578,4.4584,6.9796,6.6947-2.6352,0-5.2845,0-7.9339.0143l.0285.0285ZM457.7087,582.1047c.0285-.1424.0427-.2849.0997-.4273l104.0242,49.555c-.057.1282-.1139.2706-.1424.3988l-103.9815-49.5265ZM563.0434,632.2153c.0285-.1282.057-.2422.0997-.3846,1.2392.5555,2.393.9686,3.504,1.225-1.1395-.1282-2.3218-.4131-3.6037-.8547v.0143ZM567.7297,634.5655h.2849c.7122,0,1.3674-.057,2.0227-.1852.8547-.1567,1.6238-.4131,2.3503-.7692.7122-.3561,1.3959-.8689,1.9514-1.4387l.7834.7834c-2.1223,2.0939-3.8317,4.4299-4.7718,6.5095-1.8232-1.752-3.6322-3.4898-5.4554-5.2418.9686.2137,1.9087.3276,2.8488.3418h-.0143ZM570.7352,644.75c-.8831-.3276-1.7948-.7122-2.7776-1.1395-1.4671-.6552-2.92-1.3674-4.4299-2.1793h6.6235c.6552,1.6381,1.5953,3.0197,2.7349,4.0453-.6695-.1994-1.3674-.4131-2.1509-.7122v-.0143ZM571.3904,640.7047c.6837-1.809,2.1509-3.9741,4.0026-5.9683-.0427,4.5154.4416,9.0022,1.2108,11.1531-2.2363-.5413-4.1878-2.45-5.2133-5.1991v.0143ZM597.4997,645.3197c-1.6238.0855-3.2476.1709-4.8715.2422-1.6238.0712-3.2476.1424-4.8572.1994-1.6238.057-3.2334.1139-4.843.1709-1.5526.0427-3.1194.0855-4.672.1282-.0285-.0427-.0712-.1139-.1282-.2279-.8547-1.7662-1.4101-7.236-1.282-12.1929,1.5099-.0712,3.0197-.1567,4.5296-.2422,6.5238-.3846,12.5775-.8404,18.5173-1.3959.1424,4.9997.7407,10.6973,1.3674,12.9906,0,.0285.0143.0712.0285.1139-1.2677.0855-2.5354.1567-3.7889.2279v-.0142ZM603.1119,644.9494c-.1139.0143-.2422.0285-.3704.0427-.0285-.0855-.0712-.2137-.1139-.3846-.584-2.1081-1.1253-7.2787-1.2962-12.022,2.8061,1.9799,5.4412,4.4584,6.8799,6.5095-.7122,3.2192-2.6779,5.5124-5.0993,5.8543ZM609.0089,637.7704c-1.6808-2.2078-4.4869-4.7575-7.3927-6.7232,28.6448-35.6243,64.2976-56.1642,95.4778-55.0675,2.0511,2.4642,2.7918,6.3386,1.9514,9.9139-29.5421-.8689-63.0726,18.4318-90.0224,51.8768h-.0142ZM697.9345,587.3038c-27.3486,28.018-58.1869,45.9228-87.2305,50.6376,26.2518-32.2627,58.6712-51.0649,87.2305-50.6376ZM699.2592,589.7965c-5.8258,6.0537-11.908,11.7656-18.0614,16.9504-6.1819,5.2133-12.549,10.0136-18.9446,14.2583-6.4241,4.2732-13.0048,8.0621-19.5428,11.2813-6.5807,3.2334-13.2469,5.9398-19.8135,8.0479-5.2703,1.695-10.5406,2.9913-15.7539,3.9456,1.1253-1.1822,1.9799-2.8061,2.4215-4.7005,29.8698-4.4299,61.6909-22.7477,89.7659-51.6489.2422.8689.2422,1.5526-.0712,1.866h0ZM701.8801,582.3611c.1567,1.8802-.2564,3.7319-1.1395,5.37-.0997-.3703-.2279-.7692-.3988-1.1823.7692-2.92.5413-6.068-.5128-8.6889,1.1822,1.2535,1.923,2.8203,2.0654,4.5011h-.0143ZM699.4871,569.1426h0c.2279.8404.4416,1.695.641,2.5639.1994.8547.3988,1.7235.5698,2.5924s.3418,1.752.4843,2.6352c.0285.1424.0427.2706.057.4131-.8261-.9971-1.8802-1.8517-3.1194-2.5069-.0997-2.8203-.4273-5.6976-.9971-8.7743-.0427-.2421-.0997-.4986-.1567-.7407,1.225,1.0113,2.0939,2.3218,2.507,3.8032l.0142.0142ZM693.7325,562.6758l1.5526,1.4814c.1567.7264.3134,1.4529.4558,2.1936.5413,2.8773.8404,5.5694.9544,8.2188-31.6503-.8831-67.6449,19.9417-96.4891,55.9791h-.1852c-6.011.584-12.1359,1.054-18.7452,1.4387-1.6238.0997-3.2476.1852-4.8572.2706l-1.1822-1.168c34.086-48.3158,80.5216-75.1373,118.4962-68.3856v-.0285ZM582.8996,508.8761l105.2492,50.1248c.6267.2991,1.2535.5982,1.8375.8831.47.2279.9259.4558,1.3674.6837-38.2453-5.484-84.339,21.6367-118.1686,69.8528-.3561.5128-.9116.9401-1.5383,1.1965-.4986.1994-1.054.3134-1.6808.3561-.5698.0427-1.1822,0-1.8375-.0997-1.5383-.2279-3.1337-.7407-4.9997-1.6381l-104.5655-49.8114c17.3208-25.5965,38.1883-45.8943,60.4232-58.7282,22.3347-12.8909,44.4414-17.335,63.9415-12.8481l-.0285.0285ZM578.5409,503.9334c.3704.7549.7977,1.4814,1.282,2.1508.2137.2991.4416.584.6837.8547-19.1725-3.5752-40.624,1.0683-62.2607,13.5461-22.4344,12.9621-43.5013,33.445-60.9503,59.2552-.2564-.2137-.5128-.4558-.7407-.7834-.4843-.6837-.8974-1.5811-1.1823-2.5924-.1994-.7264-.3419-1.4956-.3988-2.2791-.0285-.4131-.0285-.8119,0-1.1965,35.2682-50.253,83.3561-78.1286,122.7409-71.1917.1994.7264.47,1.4814.8261,2.2221v.0143ZM777.3878,336.6656l-199.5448,115.2058v-5.8401l203.7183-117.6131c-.2706,3.8744-1.752,6.8514-4.1735,8.2615v-.0142ZM781.6182,326.7375l-203.7753,117.6558v-29.0294c0-3.0055-.4131-6.1962-1.1822-9.4723l204.9575-118.3537v39.1996Z"/>
  </g>
  <g id="Layer_3" data-name="Layer 3">
    <path d="M388.11,457.9l17.31-9.65c-.4558.8743-.8404,1.7839-1.15,2.72-.4296,1.304-.7474,2.6421-.95,4-.2119,1.4637-.3155,2.9411-.31,4.42v3.07l-22.37,12.92-.5-.87c-.006-1.3163.0977-2.6309.31-3.93.2142-1.3603.5489-2.6989,1-4,.3901-1.2443.9096-2.4442,1.55-3.58.6304-1.066,1.3857-2.053,2.25-2.94.8549-.8418,1.8164-1.568,2.86-2.16Z"/>
    <path d="M579.22,646.24c-17.71,29.5-40.6,43.58-79.75,56.24-10.863,3.5231-22.7402-.6585-29-10.21l-52.69-80.51c-7.0269-10.7404-10.7728-23.2951-10.78-36.1299v-23.69l37.83-21.84v14.71c-.0048.0566-.0048.1134,0,.17-.005.0599-.005.1201,0,.18l1.9,26.23c0,.18,0,.36.05.54.1594,1.6165.4742,3.2139.94,4.77.4842,1.6554,1.1133,3.265,1.88,4.81.7798,1.5848,1.7036,3.0945,2.76,4.51.9841,1.3228,2.1035,2.5394,3.34,3.63,1.1048.9796,2.3357,1.8069,3.66,2.46l103.11,49.11c.8.38,1.62.76,2.47,1.14s1.73.76,2.64,1.13,1.87.75,2.87,1.12,2.08.72,3.23,1c.4.11.81.22,1.23.31.5931.1331,1.1945.2266,1.8.28h2.49l.02.04Z"/>
  </g>
</svg>