<?xml version="1.0" encoding="UTF-8"?>
<svg xmlns="http://www.w3.org/2000/svg" viewBox="0 0 1000 1000">
  <g id="Layer_2" data-name="Layer 2">
    <path d="M385.47,557.49c8.6368,24.6592,21.1911,47.7654,37.18,68.43h0c-5.33,12.8-11.09,25.82-17.2,39-18.36,40.13-44,74.7-54.09,89.66-22.05,32.71-44.64,70.05-88.74,71.88s-74.7,4.27-74.7,4.27c-46.55,2.26-22-96.25,19-178.25,12.86-25.76,30.2-55.44,50.05-81.77l87.34-144v103.8c0,2,1.41,4,3.92,5.46l37.24,21.52Z"/>
  </g>
  <g id="Layer_3" data-name="Layer 3">
    <path d="M699.1737,428.4705c-19.1287-33.1309-44.5689-59.9833-71.6353-75.6103-24.0551-13.8872-46.8533-17.4387-65.132-10.3493l-34.0001-19.6302c-5.3597-3.0942-14.0794-3.0942-19.4388,0-.0003.0001-.0004.0004-.0007.0006l-160.4982,92.6639c-2.7012,1.5593-4.1887,3.6661-4.1887,5.9323v109.0169c0,2.2662,1.4875,4.3731,4.1887,5.9323l36.9931,21.358c25.0797,71.9615,85.985,130.3908,135.9159,130.3908h.1435c10.5577-.0237,20.0164-2.6535,28.0453-7.7213l149.4038-86.2589c39.6533-22.8933,39.7446-97.2375.2036-165.7246v-.0002ZM349.0251,416.5085l160.4993-92.6644s.0003-.0003.0005-.0004c5.0526-2.9165,13.2729-2.9165,18.3251.0004l33.2382,19.1903c-1.3456.5666-2.664,1.196-3.9572,1.8811l-33.4454-19.3094c-2.7555-1.5915-7.2409-1.5915-9.9971,0l-160.4989,92.664c-1.4404.8316-2.2332,1.9706-2.2332,3.2072s.7928,2.3756,2.2332,3.2072l113.2933,65.41c12.3441,7.1268,24.4362,19.8962,33.1759,35.0332,8.8679,15.3597,13.7517,31.7839,13.7517,46.2473,0,13.4314-4.2146,23.6469-11.9155,29.0368,5.3978-6.0078,8.3078-15.0706,8.3078-26.311,0-30.2331-21.3011-67.1279-47.4838-82.2442l-113.2938-65.41c-2.3423-1.3524-3.6324-3.1173-3.6324-4.9692s1.2902-3.6165,3.6324-4.9689ZM555.9911,345.5421c-.1458.0822-.2946.158-.4397.2417-.0006.0004-.0013.0003-.0019.0007l-151.0577,87.2135c-.0283.0163-.0462.0419-.0705.0621-5.1997,3.0157-9.8468,7.0016-13.8378,11.9294l-36.8377-21.2683c-1.0815-.6244-1.6769-1.4212-1.6769-2.2438s.5954-1.6194,1.6769-2.2438l160.4989-92.6641c2.4498-1.414,6.4347-1.414,8.8845,0l32.8619,18.9726ZM349.0251,535.4632c-2.3086-1.3329-3.6324-3.1438-3.6324-4.9689v-105.7469c.709.9894,1.7432,1.8931,3.0761,2.6627l113.2937,65.41c25.8759,14.9396,46.9274,51.402,46.9274,81.2808,0,14.3521-4.8113,25.0346-13.548,30.0784-8.7371,5.0439-20.3931,3.8704-32.8231-3.306l-113.2937-65.4101ZM548.8243,679.5979l-1.4681.8477c-.0404.0234-.0686.0578-.1007.0889-7.4789,4.2838-16.1426,6.5068-25.7372,6.5283h-.1412c-49.2094,0-109.2343-57.4388-134.4281-128.4197l74.8135,43.1935c7.5267,4.3456,14.7969,6.5404,21.3609,6.5397,4.5875,0,8.8306-1.0723,12.5721-3.2322.0009-.0005.0019-.0002.0027-.0007l4.7204-2.7258c9.0953-5.251,14.1044-16.2754,14.1044-31.0426,0-14.6556-4.9367-31.2776-13.9008-46.8036-8.9639-15.5263-20.8908-28.1124-33.5829-35.4402l-75.4774-43.577c9.6816-11.8733,23.2592-18.1747,39.324-18.2108h.1416c49.5378,0,110.0419,58.2054,134.9345,129.8403,15.2931,44.0133,14.2058,84.6923-2.9099,108.8162-4.0009,5.6392-8.7801,10.1884-14.2277,13.5979h-.0001ZM698.4139,593.2318l-141.994,81.9808c2.7447-2.5077,5.2658-5.3643,7.5391-8.5686,17.3235-24.4167,18.4652-65.473,3.0533-109.8254-25.0367-72.0522-86.0091-130.5879-135.9859-130.5879h-.1427c-6.0107.0135-11.676.8976-16.9369,2.5931l142.1583-82.0754c.0005-.0003.0012-.0003.0017-.0006,18.9012-10.912,44.0698-8.3999,70.8754,7.0761,26.8998,15.5307,52.1959,42.2382,71.2282,75.2029,39.2339,67.9559,39.3251,141.618.2036,164.2048h0ZM469.5672,591.4983l7.021-4.0536c4.4444-2.5662,6.8221-7.8132,7.127-14.3345,6.6464-9.8796,2.5047-29.6425-9.2719-44.1356-7.4097-9.1181-16.3529-14.3757-23.9321-14.0595-1.1605.0482-2.2589.2412-3.3003.5493-.0183.0056-.0358.0104-.0535.018-2.7281.8207-5.0252,2.5078-6.7357,5.0116-1.977,2.8933-3.0848,6.8055-3.226,11.3229l-1.5643.9033c-4.6375,2.6773-7.1913,8.275-7.1913,15.7621,0,7.3759,2.4817,15.7361,6.9877,23.5405,7.4651,12.9301,18.723,21.1055,27.7789,21.1055,2.2938,0,4.447-.5252,6.3604-1.6299h0ZM482.6557,572.7723c-.0035.0168.0001.0336-.0018.0506-.2337,6.2429-2.4383,11.2428-6.622,13.6583l-2.6598,1.5357c5.4507-7.563,4.266-22.1954-3.6013-35.822-4.506-7.8045-10.5053-14.1337-16.8932-17.8219-4.3788-2.5282-8.5919-3.611-12.2955-3.2266l2.6269-1.5166c1.5473-.8932,3.2864-1.3806,5.1633-1.4794.0127.0009.0251.0053.0378.0053.0159,0,.03-.0102.0458-.0115,3.2925-.1521,7.0098.9008,10.8865,3.139,6.2213,3.5918,12.0762,9.7762,16.4862,17.4145,4.8012,8.3164,7.0801,16.9916,6.8273,24.0746h-.0001ZM473.2004,542.6534c2.8759,3.2582,5.2087,7.3088,6.5789,11.4293-.8576-1.9853-1.8514-3.9739-2.9875-5.9414-1.1115-1.9252-2.3147-3.7596-3.5914-5.4879ZM471.9098,527.7271c.5634.6301,1.122,1.275,1.6701,1.9494,10.8698,13.377,15.138,31.2548,10.1546,41.1903-.073-3.0914-.5772-6.4128-1.5109-9.8347-.2819-8.793-6.3351-19.3024-13.7993-23.9858-2.6856-2.731-5.5626-5.0161-8.5257-6.7269-3.6457-2.1045-7.1775-3.2117-10.3955-3.3017,1.7118-2.2318,4.0228-3.673,6.7467-4.1825,4.5931-.8569,10.1498.8795,15.66,4.8919h0ZM468.517,524.2822c-3.9836-2.1185-7.8953-3.0532-11.3803-2.6936l4.3355-2.5031c2.3693,1.3334,4.7412,3.0791,7.0448,5.1967h0ZM460.3212,518.4654l-8.1079,4.6812c-.0248.0142-.04.037-.0616.0543-1.5778.9264-2.9398,2.2194-4.0341,3.8503-.0664.0044-.1321.0107-.1982.016,2.2893-5.0832,6.1086-8.2618,11.1004-9.2238.4329.1913.867.402,1.3015.622h0ZM447.6724,516.4847c.9124-.2581,1.8741-.416,2.8853-.458,2.1281-.0857,4.3778.3077,6.6745,1.1148-4.7351,1.4189-8.4489,4.9399-10.5922,10.0876-1.2625.2249-2.4569.6327-3.5721,1.2199.2775-5.1722,1.8514-9.2971,4.6045-11.9644h0ZM441.3403,521.1216c1.1125-1.6284,2.4973-2.8783,4.1003-3.7376-2.1614,2.9294-3.3732,6.9135-3.522,11.7061l-3.5769,2.0652c.2208-4.0067,1.2431-7.4642,2.9987-10.0337h0ZM436.3913,571.4663c-4.4096-7.6379-6.8385-15.8005-6.8385-22.9842,0-7.0729,2.3564-12.3286,6.6349-14.7987,1.7411-1.0051,3.7223-1.5042,5.8725-1.5042,3.1344,0,6.628,1.0601,10.2608,3.1575,6.2213,3.5918,12.0762,9.7762,16.4862,17.4145,9.0489,15.6741,9.1402,32.6239.2035,37.7836-8.9385,5.1598-23.5706-3.3951-32.6195-19.0685h0Z"/>
  </g>
</svg>