<?xml version="1.0" encoding="UTF-8"?>
<svg xmlns="http://www.w3.org/2000/svg" viewBox="0 0 1000 1000">
  <g id="Layer_2" data-name="Layer 2">
    <path d="M413.3724,340.8452c21.3803,0,38.7751-14.2707,38.7751-31.8197v-2.4299h0c0-17.5491-17.3948-31.8197-38.7751-31.8197s-38.7751,14.2707-38.7751,31.8197h0v2.4299c0,17.5491,17.3948,31.8197,38.7751,31.8197ZM413.3724,276.5887c11.1594,0,21.1746,4.0369,27.9499,10.4137-7.0582-6.0297-16.9705-9.8095-27.9499-9.8095s-20.8917,3.7669-27.9499,9.8095c6.7754-6.3768,16.7905-10.4137,27.9499-10.4137ZM413.3724,279.0186c20.3775,0,36.9494,13.4607,36.9494,30.007s-16.572,30.007-36.9494,30.007-36.9494-13.4607-36.9494-30.007,16.572-30.007,36.9494-30.007ZM687.2662,383.1944s0-.0771-.0129-.1157c0-.0386-.0129-.0771-.0257-.1157-.0129-.0386-.0257-.0771-.0514-.1157,0-.0129,0-.0386-.0129-.0514,0-.0129-.0257-.0257-.0386-.0386-.0257-.0386-.0514-.0643-.0771-.09-.0257-.0386-.0514-.0643-.09-.09-.0257-.0257-.0643-.0514-.09-.0771-.0129,0-.0257-.0257-.0386-.0386l-107.1071-61.8395-107.1199-61.8267-.1157-.0386c-.0514-.0257-.1157-.0514-.1671-.0643h-.3343c-.0643,0-.1157.0386-.1671.0643-.0386.0129-.0771.0129-.1157.0386l-2.7256,1.5685v-1.7613c0-.5014-.4114-.9128-.9128-.9128h-151.4747c-.5014,0-.9128.4114-.9128.9128v243.8226c0,.5014.4114.9128.9128.9128h151.2304l11.4422,6.6082-112.8025,65.1308s-.0257.0257-.0386.0386c-.0386.0257-.0643.0514-.09.0771-.0386.0257-.0643.0643-.09.09s-.0514.0643-.0771.09c0,.0128-.0257.0257-.0386.0386,0,.0128,0,.0386-.0129.0514-.0129.0386-.0257.0771-.0386.1029-.0129.0386-.0257.0771-.0386.1286,0,.0386-.0129.0771-.0129.1157v4.7697s.0129.0771.0257.1029c0,.0643.0129.1286.0386.18.0129.0514.0514.1029.0771.1543s.0514.1029.09.1414c.0386.0514.09.09.1414.1286.0257.0257.0514.0514.0771.0771l5.6825,3.2784c.2571,1.7228,1.6971,3.2013,3.8184,4.1398v96.0248c0,1.9799,2.4042,3.5355,5.464,3.5355s5.464-1.5556,5.464-3.5355v-91.6408l77.4858,44.7404c.2571,1.7228,1.6971,3.2012,3.8184,4.1398v96.0248c0,1.9799,2.4042,3.5355,5.464,3.5355s5.464-1.5556,5.464-3.5355v-96.0248c1.9027-.8357,3.227-2.1213,3.6641-3.6255l109.4984-63.2152,69.2834,39.9964v11.2108c0,1.9799,2.4042,3.5355,5.464,3.5355s5.464-1.5556,5.464-3.5355h0v-4.8854l9.3209,5.3869h0c.0129,0,.0257,0,.0386.0129.1286.0643.2571.1028.3985.1028h0c.1414,0,.2828-.0386.3985-.1028.0129,0,.0257,0,.0386-.0129h0l4.0883-2.3656.0771-.0771c.0514-.0386.1028-.0771.1414-.1286.0386-.0386.0643-.09.09-.1414.0257-.0514.0514-.1028.0771-.1543.0257-.0643.0257-.1157.0386-.18,0-.0386.0257-.0771.0257-.1157v-240.5442l.0257-.0128ZM467.1509,501.5123h-149.6491v-238.6671h149.6491v238.6671ZM467.1509,261.0324h-149.6491v-1.5171h149.6491v1.5171ZM472.1521,260.6338l105.2815,60.7853-2.2627,1.3114-105.2943-60.7853,2.2627-1.3114h.0128ZM468.9765,501.898v-238.3843l105.2815,60.7853v130.7887l-93.1836,53.8043-12.1108-6.9939h.0129ZM481.5244,510.7304h0l93.6464-54.0614.4114.2314-148.8906,85.9582s-.0257.0257-.0386.0386c-.0386.0257-.0643.0514-.09.0771-.0386.0257-.0643.0643-.09.09s-.0514.0643-.0771.09c0,.0128-.0257.0257-.0386.0386s0,.0386-.0129.0514c-.0129.0386-.0257.0771-.0386.1029-.0129.0386-.0257.0771-.0386.1286,0,.0386-.0129.0771-.0129.1157v4.7697s.0129.0771.0257.1029c0,.0643.0129.1286.0386.18.0129.0514.0514.1029.0771.1543s.0514.1029.09.1414c.0386.0514.09.09.1414.1286.0257.0257.0514.0514.0771.0771l45.2547,26.1243v16.4177c0,.5014.4114.9128.9128.9128h2.1085c.5014,0,.9128-.4114.9128-.9128v-16.302l22.7816-13.1521h28.9013c.5014,0,.9128-.4114.9128-.9128v-16.302l22.7816-13.1521h28.9013c.5014,0,.9128-.4114.9128-.9128v-16.302l22.7816-13.1521h28.9013c.5014,0,.9128-.4114.9128-.9128v-10.1695l46.7975,27.0243-206.436,119.1922-105.2815-60.7853,112.8025-65.1308-.0386.0129ZM474.9162,573.8556v-2.6227l176.3262-101.7974v2.6227l-176.3262,101.7974h0ZM631.8292,485.3646v14.3349h-24.8258l24.8258-14.3349ZM579.2335,515.7316v14.3349h-24.8258l24.8258-14.3349ZM526.6377,546.0985v14.3349h-24.8258l24.8258-14.3349ZM474.0034,569.6515l-45.049-26.0086,148.8777-85.9582h0l27.4485-15.8392,45.0361,26.0086-176.3262,101.7974h.0128ZM474.042,576.3369v14.4635h-.2828v-14.5021c.0771.0257.1543.0514.2443.0514h.0386v-.0128ZM473.1035,571.2328v2.6227l-45.049-26.0086v-2.6227l45.049,26.0086ZM385.0496,684.8067c0,.81-1.5556,1.7228-3.6384,1.7228s-3.6384-.9128-3.6384-1.7228v-95.3948c1.0414.27,2.1727.4114,3.3684.4371l3.9212,2.2627v92.695h-.0128ZM367.8091,580.0524v-2.6227l105.2815,60.7853v2.6227l-105.2815-60.7853h0ZM477.2818,738.0582c0,.81-1.5556,1.7228-3.6384,1.7228s-3.6384-.9128-3.6384-1.7228v-95.3949c1.0414.27,2.1727.4114,3.3684.4371l.1928.1028h0c.0129,0,.0257,0,.0514.0129.1286.0643.2571.1028.4114.1028h0c.1543,0,.2828-.0386.4114-.1028.0129,0,.0257,0,.0514-.0129h0l.2571-.1543c.8999-.0643,1.7613-.2057,2.5584-.4114v95.4077l-.0257.0129ZM661.5533,613.0934l-67.4578-38.9551,67.4578-38.9551v77.9101ZM667.0302,628.1226c-2.0827,0-3.6384-.9128-3.6384-1.7228v-92.2707l4.7312-2.7256c.9-.0643,1.7613-.2057,2.5584-.4114v95.4077h0c0,.81-1.5556,1.7099-3.6384,1.7099l-.0129.0129ZM681.3651,624.5228l-8.8709-5.1169v-89.0181c1.9028-.8357,3.227-2.1213,3.6641-3.6255l5.2068-3.0084v100.7689ZM681.3651,521.6455l-206.436,119.1921v-2.6227l206.436-119.1921v2.6227h0ZM681.3651,515.873l-47.7103-27.5514v-4.0112l18.9504-10.9408s.0514-.0514.09-.0771c.0514-.0386.1028-.0771.1414-.1286.0386-.0386.0643-.09.09-.1414.0257-.0514.0514-.1029.0771-.1543.0257-.0643.0257-.1157.0386-.18,0-.0386.0257-.0771.0257-.1157v-4.7697c0-.0386,0-.0771-.0129-.1157,0-.0386-.0129-.0771-.0257-.1157-.0129-.0386-.0257-.0771-.0514-.1157,0-.0128,0-.0386-.0129-.0514,0-.0128-.0257-.0257-.0386-.0386-.0257-.0386-.0514-.0643-.0771-.09-.0257-.0386-.0514-.0643-.09-.09-.0257-.0257-.0643-.0514-.09-.0771-.0129,0-.0257-.0257-.0386-.0386l-46.8618-27.0628s-.0771-.0257-.1029-.0386c-.0514-.0257-.1157-.0514-.1671-.0643h-.3343c-.0643,0-.1157.0386-.1671.0514-.0386.0128-.0771.0128-.1157.0386l-27.4357,15.8391-1.3114-.7585v-129.7216l105.2815,60.7853v129.7345h-.0514ZM682.2779,384.57l-105.2815-60.7853,2.2627-1.3114,105.2815,60.7853-2.2627,1.3114h0ZM685.4535,623.2115l-2.2627,1.3113v-238.3843l2.2627-1.3114v238.3843ZM581.7533,384.7372s.0514.1029.0771.1543.0514.1029.09.1414c.0386.0514.09.09.1414.1286.0257.0257.0514.0514.09.0771l89.2495,51.5287h0c.0129,0,.0257,0,.0386.0128.1157.0643.2443.1029.3985.1029h.0257c.1414,0,.27-.0386.3985-.1029.0129,0,.0257,0,.0386-.0128h0l1.4914-.8614s.0514-.0514.09-.0771c.0514-.0386.1028-.0771.1414-.1286.0386-.0386.0643-.09.09-.1414.0257-.0514.0514-.1029.0771-.1543.0257-.0643.0257-.1157.0386-.18,0-.0386.0257-.0771.0257-.1157v-20.0561c0-.0386,0-.0771-.0129-.1157,0-.0386-.0129-.0771-.0257-.1157-.0129-.0386-.0257-.0771-.0514-.1157,0-.0129,0-.0386-.0129-.0514,0-.0129-.0257-.0257-.0386-.0386-.0257-.0386-.0514-.0643-.0771-.09-.0257-.0386-.0514-.0643-.09-.09-.0257-.0257-.0643-.0514-.09-.0643-.0129,0-.0257-.0257-.0386-.0386l-89.2495-51.5287s-.0771-.0257-.1157-.0386c-.0514-.0257-.1157-.0514-.1671-.0514h-.3343c-.0643,0-.1157.0386-.1671.0514-.0386.0129-.0771.0129-.1157.0386l-1.4914.8614s-.0257.0257-.0386.0386c-.0257.0257-.0643.0386-.09.0643-.0386.0257-.0643.0643-.09.09s-.0514.0643-.0771.09c0,.0129-.0257.0257-.0386.0386s0,.0386-.0128.0514c-.0128.0386-.0386.0771-.0514.1157s-.0257.0771-.0386.1157c0,.0386-.0128.0771-.0128.1157v20.0561s.0128.0771.0257.1157c0,.0643.0128.1157.0386.18h-.0385ZM583.5147,366.0182l87.4367,50.4744v17.8962l-87.4367-50.4744v-17.8962h0ZM628.3065,394.3666s-.0128-.0771-.0257-.1157c-.0128-.0386-.0257-.0771-.0514-.1157,0-.0129,0-.0386-.0128-.0514,0-.0129-.0257-.0257-.0386-.0386-.0257-.0386-.0514-.0643-.0771-.09-.0257-.0386-.0643-.0643-.09-.09s-.0643-.0514-.09-.0643c-.0128,0-.0257-.0257-.0386-.0386l-1.2342-.72s-.0771-.0257-.1157-.0386c-.0514-.0257-.1157-.0514-.1671-.0643h-.3343c-.0643,0-.1157.0386-.1671.0514-.0386.0129-.0771.0129-.1157.0386l-.7457.4243s-.0257.0257-.0386.0386c-.0257.0257-.0643.0386-.09.0643-.0386.0257-.0643.0643-.09.09s-.0514.0643-.0771.09c0,.0129-.0257.0257-.0386.0386,0,.0129,0,.0386-.0128.0514-.0128.0386-.0386.0771-.0514.1157s-.0257.0771-.0257.1157-.0128.0771-.0128.1157v12.3679s.0128.0771.0257.1157c0,.0643.0128.1286.0386.18s.0514.1029.0771.1543.0514.1029.09.1414c.0386.0514.09.09.1414.1286.0257.0257.0514.0514.09.0771l1.2342.72h0c.0128,0,.0257,0,.0386.0129.1157.0643.2443.1029.3985.1029h.0257c.1414,0,.27-.0386.3985-.1029.0128,0,.0257,0,.0386-.0129h0l.7457-.4243s.0514-.0514.09-.0771c.0514-.0386.1029-.0771.1414-.1286.0386-.0386.0643-.09.09-.1414s.0514-.1029.0771-.1543c.0257-.0643.0257-.1157.0386-.18,0-.0386.0257-.0771.0257-.1157v-12.3679c0-.0386,0-.0771-.0128-.1157l-.0514.0129ZM622.174,395.5366c-.0128-.18-.0386-.36-.0643-.54h0v-.0643c0-.0129,0-.0257-.0128-.0514v-.0514c-.0386-.18-.0771-.36-.1414-.5271-.0514-.1671-.1286-.3471-.2057-.5143h-.0128v-.0257h0c0-.0257,0-.0514-.0257-.0771v-.0129h0c-.09-.18-.1928-.36-.3086-.5143-.1286-.1928-.2828-.3728-.45-.5528,0,0-.0128,0-.0257-.0129,0,0,0-.0129-.0128-.0257-.1671-.1671-.3471-.3471-.5271-.4885-.1671-.1414-.3471-.2443-.5143-.36h0c-.0257,0-.0386-.0257-.0643-.0386-.0257,0-.0386,0-.0643-.0257-.0257,0-.0386-.0257-.0514-.0386-.4371-.1928-.9257-.4114-1.4271-.4114h0v-.0257c-.0128-.0386-.0257-.0771-.0514-.1157,0-.0129,0-.0386-.0128-.0514,0-.0129-.0257-.0257-.0386-.0386-.0257-.0386-.0514-.0643-.0771-.09-.0257-.0386-.0643-.0643-.09-.09s-.0514-.0514-.09-.0643c-.0128,0-.0257-.0257-.0386-.0386l-1.4528-.8357s-.0771-.0257-.1157-.0386c-.0514-.0257-.1157-.0514-.1671-.0514h-.3471c-.0643,0-.1157.0386-.1671.0514-.0386.0129-.0771.0129-.1157.0386l-.45.2571c-.1029-.2314-.2057-.45-.3343-.6557-.1543-.2443-.3214-.4628-.5014-.6685h-.0128.0128-.0128c-.0257-.0257-.0386-.0643-.0643-.09-.2314-.2186-.45-.4371-.6942-.63-.3471-.2828-.6814-.4757-1.0157-.6685h0l-.0128-.0129c-.3728-.2057-.7842-.4371-1.2214-.5528-.36-.09-.6814-.09-.9514-.09h-.0771c-.0643,0-.1157.0257-.18.0386-.0386,0-.09,0-.1286.0257-.1157.0514-.2186.1029-.3214.1671h0l-.5914.3471c-.0257-.1543-.0514-.3086-.09-.4757,0-.0257-.0128-.0386-.0257-.0514v-.0514c-.1029-.27-.1928-.5528-.3343-.7971-.1286-.2443-.2957-.4757-.4628-.7071,0-.0129-.0257-.0129-.0386-.0257,0,0,0-.0257-.0257-.0386-.1928-.2186-.3857-.4243-.5785-.6043-.2057-.18-.4243-.3214-.6428-.4628h0c-.0257-.0129-.0386-.0257-.0643-.0386-.0128,0-.0386,0-.0514-.0129-.0128,0-.0257-.0257-.0386-.0257-.2186-.1029-.4243-.2057-.63-.27-.2571-.0771-.4886-.09-.6685-.1029h-.1543c-.09,0-.1928.0257-.2957.0386-.1157-.1928-.2443-.3728-.3857-.5657,0,0-.0257-.0129-.0386-.0257,0,0,0-.0257-.0257-.0386-.1671-.1928-.3471-.3857-.54-.54-.18-.1543-.3728-.2828-.5657-.4114h0c-.0128,0-.0386-.0257-.0514-.0386h0s-.0257,0-.0386-.0129c-.0257-.0129-.0514-.0386-.0771-.0514-.3985-.18-.8614-.3728-1.3371-.3728h0s-.0257-.0643-.0386-.1029c0-.0129,0-.0386-.0128-.0514,0-.0129-.0257-.0257-.0386-.0386-.0257-.0386-.0514-.0643-.0771-.09-.0257-.0386-.0643-.0643-.09-.09s-.0643-.0514-.09-.0643c-.0128,0-.0257-.0257-.0386-.0386l-1.4399-.8357s-.0771-.0257-.1029-.0386c-.0643-.0257-.1157-.0514-.18-.0643h-.3343c-.0643,0-.1157.0386-.18.0643-.0386.0129-.0771.0129-.1157.0386l-.1286.0771v-.2057c0-.0386,0-.0771-.0128-.1157,0-.0386-.0128-.0771-.0257-.1157-.0128-.0386-.0257-.0771-.0514-.1157,0-.0129,0-.0386-.0128-.0514,0-.0129-.0257-.0257-.0386-.0386-.0257-.0386-.0514-.0643-.0771-.09-.0257-.0386-.0514-.0643-.09-.09-.0257-.0257-.0643-.0514-.09-.0771-.0128,0-.0257-.0257-.0386-.0386l-1.5556-.8999s-.0771-.0257-.1157-.0386c-.0514-.0257-.1157-.0514-.1671-.0514h-.3343c-.0643,0-.1157.0386-.1671.0514-.0386.0129-.0771.0129-.1157.0386l-.7457.4243s-.0257.0257-.0386.0386c-.0257.0257-.0643.0386-.09.0643v-1.0928c0-.0386,0-.0771-.0128-.1157,0-.0386-.0128-.0771-.0386-.1286-.0128-.0386-.0257-.0771-.0514-.1157,0-.0129,0-.0386-.0128-.0514,0-.0129-.0257-.0257-.0386-.0386-.0257-.0386-.0514-.0643-.0771-.09-.0257-.0386-.0514-.0643-.09-.09-.0257-.0257-.0643-.0514-.09-.0771-.0128,0-.0257-.0257-.0386-.0386l-1.5556-.8999s-.0771-.0257-.1157-.0386c-.0514-.0257-.1157-.0514-.1671-.0514h-.3471c-.0643,0-.1157.0386-.18.0643-.0386.0129-.0771.0129-.1029.0386l-.5143.2957c-.0386-.1029-.0771-.2057-.1157-.3086,0,0-.0128-.0129-.0257-.0257v-.0386s0-.0257-.0128-.0386h0c-.09-.18-.1928-.36-.2957-.5271-.1286-.2057-.2957-.3857-.45-.5785,0,0-.0128,0-.0257-.0129,0,0,0-.0129-.0128-.0257-.18-.18-.3471-.36-.5271-.5014-.1928-.1543-.3985-.2957-.5914-.4114h0s-.0257,0-.0386-.0129c-.0257-.0129-.0514-.0386-.0771-.0643-.3728-.1671-.81-.3471-1.2599-.3728v-2.3142c0-.0386,0-.0771-.0128-.1157,0-.0386-.0128-.0771-.0257-.1157-.0128-.0386-.0257-.0771-.0514-.1157,0-.0129,0-.0386-.0128-.0514,0-.0129-.0257-.0257-.0386-.0386-.0257-.0386-.0514-.0643-.0771-.09-.0257-.0386-.0643-.0643-.09-.09s-.0514-.0514-.09-.0643c-.0128,0-.0257-.0257-.0386-.0386l-1.5556-.8999s-.0771-.0257-.1029-.0386c-.0643-.0257-.1157-.0514-.18-.0643h-.3343c-.0643,0-.1157.0386-.18.0643-.0386.0129-.0771.0129-.1157.0386l-.7457.4243s-.0257.0257-.0386.0386c-.0257.0257-.0643.0386-.09.0643-.0386.0257-.0643.0643-.09.09s-.0514.0643-.0771.1029c0,.0129-.0257.0257-.0386.0386,0,.0129,0,.0386-.0128.0514-.0128.0386-.0386.0771-.0514.1157s-.0257.0771-.0386.1286c0,.0386-.0128.0771-.0128.1157v9.4495s.0128.0771.0257.1157c0,.0643.0128.1157.0386.18.0257.0514.0514.1029.0771.1543s.0514.1029.09.1414c.0386.0514.09.09.1414.1286.0257.0257.0514.0514.09.0771l1.5556.8999h0c.0128,0,.0257,0,.0514.0129.1157.0643.2443.1029.3985.1029h.0128c.1414,0,.27-.0386.3985-.1029.0128,0,.0257,0,.0514-.0129h0l.7457-.4243s.0514-.0514.0771-.0771c.0128-.0129.0386-.0257.0514-.0386v1.0542s.0128.0771.0257.1157c0,.0643.0128.1157.0386.18.0257.0514.0514.1029.0771.1543s.0514.1029.09.1414c.0386.0514.09.09.1414.1286.0257.0257.0514.0514.09.0771l1.5556.8999h0c.0128,0,.0257,0,.0386.0129.1157.0643.2443.1029.3985.1029h.0257c.1414,0,.27-.0386.3985-.1029.0128,0,.0257,0,.0386-.0129h0l.5143-.2957c.0771.2057.1543.4114.27.6171.1286.2443.2957.4628.4757.7071h0s.0257.0514.0514.0771c.1928.2057.3728.4114.5785.5914.2186.1928.4371.3343.6685.4757.0128,0,.0257,0,.0514.0257,0,0,.0128.0129.0257.0257.2443.1286.4886.2443.72.3086.2828.09.5528.1029.7457.1157h.0257s0,.0257.0128.0386c.0257.0514.0514.1029.0771.1543s.0514.1029.09.1414c.0386.0514.09.09.1414.1286.0257.0257.0514.0514.09.0771l1.4528.8357h0c.0128,0,.0257,0,.0386.0129.1157.0643.2443.1029.3985.1029h.0257c.1414,0,.27-.0386.3985-.1029.0128,0,.0257,0,.0386-.0129h0l.1286-.0771v.1543s.0128.0771.0257.1157c0,.0643.0128.1157.0386.18.0257.0514.0514.1029.0771.1543s.0514.1029.09.1414c.0386.0514.09.09.1414.1286.0257.0257.0514.0514.09.0771l1.5556.8999h0c.0128,0,.0257,0,.0386.0129.1157.0643.2443.1029.3985.1029h.0257c.1414,0,.27-.0386.3985-.1029.0128,0,.0257,0,.0386-.0129h0l.6428-.3728v.7328s.0128.0771.0257.1157c0,.0643.0128.1157.0386.18.0257.0514.0514.1029.0771.1543s.0514.1029.09.1414c.0386.0514.09.09.1414.1286.0257.0257.0514.0514.09.0771l1.5556.8999h0c.0128,0,.0257,0,.0386.0129.1157.0643.2443.1029.3985.1029h.0257c.1414,0,.27-.0386.3985-.1029.0128,0,.0257,0,.0386-.0129h0l.6171-.36v.72s.0128.0771.0257.1157c0,.0643.0128.1157.0386.18.0257.0514.0514.1029.0771.1543s.0514.1029.09.1414c.0386.0514.09.09.1414.1286.0257.0257.0514.0514.09.0771l1.5556.8999h0c.0128,0,.0257,0,.0386.0129.1157.0643.2443.1029.3985.1029h.0257c.1414,0,.27-.0386.3985-.1029.0128,0,.0257,0,.0386-.0129h0l.2443-.1414c.0514.1029.1029.2057.1543.3214h.0128s.0257.0771.0514.1029c.2057.2957.4371.6171.72.8999.3214.3214.6685.54.9771.7457h0s.0386.0257.0643.0386c.2057.1157.4243.2186.63.2828.2186.0771.4243.1157.63.1414h.2957c.0643.2314.2057.4371.4243.5657l1.5428.8871h0c.0128,0,.0386,0,.0514.0129.1286.0643.2571.1029.3985.1029h0c.09,0,.1928-.0129.2828-.0514h.0128c0,.0386.0128.0771.0386.1286s.0514.1029.0771.1543.0514.1029.09.1414c.0386.0514.09.09.1414.1286.0257.0257.0514.0514.09.0771l1.5556.8999h0c.0128,0,.0257,0,.0386.0129.1157.0643.2443.1029.3985.1029h.0257c.1414,0,.27-.0386.3985-.1029.0128,0,.0257,0,.0386-.0129h0l.7457-.4243s.0514-.0514.09-.0771c.0128-.0129.0386-.0257.0643-.0386v1.0542s.0128.0771.0257.1157c0,.0643.0128.1157.0386.18.0257.0514.0514.1029.0771.1543s.0514.1029.09.1414c.0386.0514.09.09.1414.1286.0257.0257.0514.0514.09.0771l1.5556.8999h0c.0128,0,.0257,0,.0386.0129.1157.0643.2443.1029.3985.1029h.0257c.1414,0,.27-.0386.3985-.1029.0128,0,.0257,0,.0386-.0129h0l.7457-.4243s.0514-.0514.09-.0771c.0514-.0386.1029-.0771.1414-.1286.0386-.0386.0643-.09.09-.1414s.0514-.1029.0771-.1543c.0257-.0643.0257-.1157.0386-.18,0-.0386.0257-.0771.0257-.1157v-4.2298h0c0-.2571,0-.5143-.0257-.7842l-.1543-.1286ZM585.7645,376.1876v-.2314s.0643.0386.09.0643c-.0386.0514-.0643.1157-.09.1671ZM599.5338,384.0943v-.09s.0257.0129.0386.0257c-.0128.0257-.0257.0514-.0386.0643ZM603.095,386.2157v-.1543c.0128,0,.0257.0129.0514.0257h.0128c-.0257.0386-.0386.0771-.0514.1157l-.0128.0129ZM609.369,391.9882s0-.09.0128-.1286h.0771c-.0257.0386-.0643.0771-.09.1157v.0129ZM616.0801,393.6981v-.0771s.0128,0,.0257.0129c0,.0129-.0128.0386-.0257.0514v.0128ZM515.0798,361.6984s.0514.1029.0771.1543.0514.1029.09.1414c.0386.0514.09.09.1414.1286.0257.0257.0514.0514.09.0771l35.4324,20.4546h0c.0128,0,.0257,0,.0386.0129.1157.0643.2443.1029.3985.1029h.0257c.1414,0,.27-.0386.3985-.1029.0128,0,.0257,0,.0386-.0129h0l14.8749-8.5881s.0514-.0514.09-.0771c.0514-.0386.1029-.0771.1414-.1286.0386-.0386.0643-.09.09-.1414s.0514-.1029.0771-.1543c.0257-.0643.0257-.1157.0386-.18,0-.0386.0257-.0771.0257-.1157v-40.9607c0-.0386,0-.0771-.0128-.1157,0-.0386-.0128-.0771-.0386-.1157-.0128-.0386-.0257-.0771-.0514-.1157,0-.0129,0-.0386-.0128-.0514,0-.0129-.0257-.0257-.0386-.0386-.0257-.0386-.0514-.0643-.0771-.09-.0257-.0386-.0514-.0643-.09-.09-.0257-.0257-.0643-.0514-.09-.0771-.0128,0-.0257-.0257-.0386-.0386l-35.4324-20.4546s-.0771-.0257-.1157-.0386c-.0514-.0257-.1029-.0386-.1671-.0514h-.36c-.0643,0-.1157.0386-.1671.0514-.0386.0129-.0771.0129-.1157.0386l-14.8749,8.5881s-.0257.0257-.0386.0386c-.0257.0257-.0643.0386-.09.0643-.0386.0257-.0643.0643-.09.09s-.0514.0643-.0771.09c0,.0129-.0257.0257-.0386.0386,0,.0129,0,.0386-.0128.0514-.0128.0386-.0386.0771-.0514.1157s-.0257.0771-.0257.1157-.0128.0771-.0128.1157v40.9607s.0128.0771.0257.1157c0,.0643.0128.1157.0386.18l-.0129.0129ZM548.9694,377.7175l-29.7241-17.1634,13.0493-7.5339,16.662,9.6295v15.0678h.0128ZM518.3325,358.9728v-34.3139l13.0493,7.5339v19.2461l-13.0493,7.5339ZM548.9694,360.5413l-15.762-9.1024v-18.1919l15.762,9.1024v18.1919ZM550.4479,380.2888l-.2571-.1543s.0643-.0257.09-.0386c.0386-.0129.0643-.0386.09-.0643.0257-.0129.0514-.0257.0771-.0514v.3086h0ZM565.3356,372.755l-13.0493,7.5339v-38.8136l13.0493-7.5339v38.8136ZM530.8032,312.9596l33.6068,19.4004-13.0493,7.5339-33.6068-19.4004,13.0493-7.5339ZM516.8411,322.0748l.2571.1543s-.09.0514-.1414.0771c-.0386.0257-.09.0514-.1286.0771v-.3086h.0129ZM330.2554,475.5423h84.1455c.5014,0,.9128-.4114.9128-.9128v-80.8542c0-.5014-.4114-.9128-.9128-.9128h-84.1455c-.5014,0-.9128.4114-.9128.9128v80.8542c0,.5014.4114.9128.9128.9128ZM411.3925,472.0067h-78.1158v-10.3237h78.1158v10.3237ZM411.3925,459.8574h-78.1158v-51.3101h78.1158v51.3101ZM413.5009,473.7167h-.7842c.2957-.1543.5014-.45.5014-.81v-65.2722c0-.36-.2057-.6557-.5014-.81h.7842v66.8921ZM331.1682,394.6881h82.3327v10.3237h-82.3327v-10.3237ZM331.1682,406.8374h.7842c-.2957.1543-.5014.45-.5014.81v65.2722c0,.36.2057.6557.5014.81h-.7842v-66.8921ZM543.5954,436.7029s-.0128-.0771-.0257-.1157c-.0128-.0386-.0257-.0771-.0514-.1157,0-.0128,0-.0386-.0128-.0514,0-.0128-.0257-.0257-.0386-.0386-.0257-.0386-.0514-.0643-.0771-.09-.0257-.0386-.0514-.0643-.09-.09-.0257-.0257-.0643-.0514-.09-.0643-.0128,0-.0257-.0257-.0386-.0386l-20.8274-12.0208s-.0771-.0257-.1157-.0386c-.0514-.0257-.1157-.0514-.1671-.0514h-.3471c-.0643,0-.1157.0386-.1671.0514-.0386.0128-.0771.0128-.1157.0386l-8.9224,5.1554-.0386.0386c-.0257.0257-.0643.0386-.09.0643-.0386.0257-.0643.0643-.09.09s-.0514.0643-.0771.09c0,.0128-.0257.0257-.0386.0386s0,.0386-.0128.0514c-.0128.0386-.0386.0771-.0514.1157s-.0257.0771-.0257.1157-.0128.0771-.0128.1157v24.1058s.0128.0771.0257.1157c0,.0643.0128.1157.0386.18.0257.0514.0514.1029.0771.1543s.0514.1029.09.1414c.0386.0514.09.09.1414.1286.0257.0257.0514.0514.09.0771l20.8274,12.0208h0c.0128,0,.0257,0,.0386.0128.1157.0643.2443.1029.3985.1029h.0257c.1414,0,.27-.0386.3985-.1029.0128,0,.0257,0,.0386-.0128h0l8.9224-5.1554s.0514-.0514.09-.0771c.0514-.0386.1029-.0771.1414-.1286.0386-.0386.0643-.09.09-.1414s.0514-.1029.0771-.1543c.0257-.0643.0257-.1157.0386-.18,0-.0386.0257-.0771.0257-.1157v-24.1058c0-.0386,0-.0771-.0128-.1157h-.0386ZM513.987,431.8046s-.0771.0514-.1157.0771v-.3086l.2571.1543s-.09.0514-.1414.0771h0ZM531.3817,461.9273l-15.1192-8.7295,7.0968-4.1012,8.0096,4.6283v8.2024h.0128ZM515.3626,451.6164v-17.4591l7.0968,4.1012v9.2566l-7.0968,4.1012ZM531.3817,451.6164l-7.0968-4.1012v-8.2024l7.0968,4.1012v8.2024ZM532.8731,464.4986l-.2571-.1543s.0643-.0257.09-.0386c.0386-.0128.0643-.0386.09-.0643.0257-.0128.0514-.0257.0771-.0514v.3086h0ZM533.7859,440.9713l-19.0018-10.9666,7.0968-4.1012,19.0018,10.9666-7.0968,4.1012ZM541.7955,460.3974l-7.0968,4.1012v-21.946l7.0968-4.1012v21.946h0ZM502.8918,394.0967c1.8128,0,3.5098-.4114,5.0269-1.2856l2.9827-1.7228c3.6641-2.1213,5.6825-6.5054,5.6825-12.3422s-1.9027-12.0722-5.3483-18.0505c-3.4455-5.9783-8.0481-10.8251-12.9593-13.6536-5.0654-2.9184-9.8737-3.3684-13.5378-1.2471l-2.9827,1.7228c-3.6641,2.1213-5.6825,6.5054-5.6825,12.3422s1.9028,12.0722,5.3483,18.0505c5.734,9.938,14.4249,16.1991,21.4703,16.1991v-.0128ZM497.3507,348.6105c4.6283,2.6741,8.9995,7.2896,12.2908,12.9979,3.2912,5.7083,5.104,11.7894,5.104,17.1377,0,3.5484-.8228,6.4539-2.327,8.511.7585-1.9413,1.1699-4.2169,1.1699-6.7882,0-5.6568-1.9027-12.0722-5.3483-18.0505-3.4455-5.9783-8.0481-10.8251-12.9593-13.6536-2.2242-1.2856-4.3969-2.0699-6.4539-2.3784,2.5327-.27,5.4511.4628,8.5238,2.237v-.0129ZM482.6687,349.0862c1.2342-.72,2.6613-1.0671,4.2041-1.0671,2.2884,0,4.8469.7842,7.5082,2.327,4.6283,2.6741,8.9995,7.2896,12.2908,12.9979s5.104,11.7894,5.104,17.1377-1.6971,8.9867-4.7698,10.7737c-6.5311,3.7669-17.2919-2.6227-24.003-14.2449-3.2912-5.7083-5.104-11.7894-5.104-17.1377s1.6971-8.9867,4.7698-10.7737v-.0128ZM669.6272,418.3825s-.0129-.0771-.0386-.1157c-.0129-.0386-.0257-.0771-.0514-.1157,0-.0129,0-.0386-.0129-.0514s-.0257-.0257-.0386-.0386c-.0257-.0386-.0514-.0643-.0771-.09-.0257-.0386-.0514-.0643-.09-.09-.0257-.0257-.0643-.0514-.09-.0771-.0129,0-.0257-.0257-.0386-.0386l-1.5556-.8999s-.0771-.0257-.1028-.0386c-.0643-.0257-.1157-.0514-.18-.0643h-.3343c-.0643,0-.1157.0386-.18.0643-.0386.0129-.0771.0129-.1157.0386l-.7457.4243s-.0257.0257-.0386.0386c-.0257.0257-.0643.0386-.09.0643-.0386.0257-.0643.0643-.09.09-.0257.0257-.0514.0643-.0771.09,0,.0129-.0257.0257-.0386.0386,0,.0129,0,.0386-.0129.0514-.0129.0386-.0386.0771-.0514.1157s-.0257.0771-.0386.1286c0,.0386-.0129.0771-.0129.1157v.1029c-.3085-.1414-.63-.2571-.9771-.2828-.5271-.0386-.9385.1543-1.2471.2957h0s-.0514.0257-.0771.0386l-.6171.36c-.1286-.4114-.2828-.81-.4371-1.1699,0-.0257-.0257-.0386-.0386-.0514,0-.0129,0-.0386-.0257-.0514h0v-.0129c-.2957-.4885-.6171-.9899-1.0028-1.4142-.4114-.45-.8742-.7585-1.2985-1.0414h0c-.0129,0-.0257-.0257-.0514-.0257-.0257-.0129-.0386-.0129-.0643-.0257-.0257,0-.0386-.0257-.0514-.0386-.4371-.2057-.9-.4243-1.3885-.4628-.54-.0386-.9899.1543-1.3113.2957-.0129,0-.0257.0257-.0386.0257s-.0257,0-.0514.0129h-.0257v-.8742c0-.0386,0-.0771-.0129-.1157,0-.0386-.0129-.0771-.0257-.1157-.0129-.0386-.0257-.0771-.0514-.1157,0-.0129,0-.0386-.0129-.0514,0-.0129-.0257-.0257-.0386-.0386-.0257-.0386-.0514-.0643-.0771-.09-.0257-.0386-.0514-.0643-.09-.09-.0257-.0257-.0643-.0514-.09-.0771-.0129,0-.0257-.0257-.0386-.0386l-.6043-.3471v-1.967h0c0-.0514-.0257-.09-.0386-.1414s-.0257-.1157-.0514-.1671c0-.0129,0-.0257-.0129-.0386v-.0129c-.0257-.0386-.0514-.0514-.0771-.09-.0386-.0514-.0643-.09-.1157-.1286,0,0-.0129-.0257-.0257-.0257-.0386-.0257-.0771-.0514-.1286-.0771s-.09-.0514-.1543-.0771c0,0-.0257,0-.0386-.0129-.0514-.0129-.1028-.0129-.1543-.0257-.0386,0-.0643-.0257-.1028-.0257h-.0771l-1.2085.1157.0771-.3728v-.3214c0-.0514-.0257-.09-.0386-.1414-.0129-.0386-.0257-.0771-.0386-.1157,0,0,0-.0257-.0129-.0386,0,0-.0129-.0129-.0257-.0257-.0257-.0386-.0643-.0771-.1028-.1157-.0257-.0257-.0386-.0643-.0643-.0771-.0129-.0129-.0386-.0257-.0514-.0514h0c-.2186-.1928-.4242-.3857-.6428-.54-.2443-.18-.4886-.3343-.7328-.4885h-.0257s-.0129-.0129-.0257-.0129c-.2571-.1414-.5143-.27-.7585-.3471-.2571-.0771-.4886-.1029-.6685-.1157h-.18c-.1671.0257-.4242.0514-.6814.2057l-.7457.4243s-.0129.0129-.0257.0257c0,0-.0257,0-.0257.0129-.2443.1543-.3857.36-.4757.5014-.0386.0514-.0386.1029-.0643.1543-.0129.0386-.0514.0643-.0643.1157,0,.0129,0,.0386-.0129.0514v.0257c0,.0257,0,.0514-.0129.0771-.1286-.2057-.2828-.3985-.4371-.5785h-.0129c-.0257-.0257-.0257-.0514-.0514-.0771-.2314-.2314-.4757-.45-.7071-.6428-.3471-.27-.6814-.4757-1.0028-.6685h-.0129l-.0129-.0129c-.3857-.2186-.7842-.4371-1.2214-.5528-.36-.09-.6814-.09-.9514-.09h-.0771c-.0514,0-.1157.0257-.1671.0386-.0386,0-.0643,0-.1029.0257v-.09c0-.0386-.0128-.0771-.0257-.1157,0-.0514-.0257-.09-.0386-.1286,0-.0386-.0257-.0643-.0386-.09,0-.0129,0-.0257-.0128-.0386-.0128-.0257-.0386-.0386-.0514-.0643-.0128-.0257-.0257-.0514-.0386-.0771-.1928-.2314-.3857-.45-.5914-.63-.1928-.1671-.3857-.3086-.5785-.4371h0s-.0128-.0129-.0257-.0129h-.0257s-.0257,0-.0386-.0129c-.0257-.0129-.0386-.0386-.0643-.0514-.1414-.0771-.3214-.1671-.54-.2186-.1671-.0386-.3086-.0514-.4243-.0514,0-.0129-.0257-.0257-.0257-.0386-.0257-.0386-.0514-.0643-.0771-.09-.0257-.0386-.0643-.0643-.09-.09s-.0643-.0514-.09-.0643c-.0128,0-.0257-.0257-.0386-.0386l-1.4528-.8357s-.0771-.0257-.1029-.0386c-.0514-.0257-.1157-.0514-.18-.0643h-.3343c-.0643,0-.1157.0386-.18.0643-.0386.0129-.0771.0129-.1157.0386l-.3985.2314c-.1286-.2314-.2571-.4757-.4114-.7071,0-.0129-.0257-.0257-.0386-.0514,0-.0129-.0128-.0386-.0257-.0514-.2571-.3214-.5271-.6428-.8357-.9257-.36-.3343-.7457-.5785-1.0928-.7842h-.0128c-.0257-.0129-.0386-.0386-.0643-.0514-.4757-.2314-.9642-.4757-1.4914-.54-.5528-.0514-.9771.1029-1.3242.2314-.0257,0-.0386.0257-.0643.0386-.0257,0-.0514,0-.0771.0257l-.7457.4243s-.0514.0514-.0771.0771c-.0386.0257-.0771.0386-.1029.0771h-.0128c-.2571.27-.5785.5914-.7714,1.0928-.2057.5271-.2314,1.1185-.2571,1.6842v.0771c.0257.54.0514,1.1442.2186,1.7999.1543.5528.3985,1.1057.63,1.5942.0128.0386.0386.0514.0514.09,0,.0129,0,.0386.0257.0514.2957.4628.6171.9385.99,1.3371.4371.45.8999.7714,1.3242,1.0414.0128,0,.0386.0129.0514.0257,0,0,.0128.0129.0257.0257.3985.2057.81.4243,1.2599.5143.18.0386.3471.0514.5014.0514.2186,0,.4114-.0257.5914-.0514.1286-.0129.2314-.0514.3343-.1157h0l.5785-.3343v1.1442s.0128.0771.0257.1157c0,.0643.0128.1286.0386.18.0128.0514.0514.1029.0771.1543s.0514.1029.09.1414c.0386.0514.09.09.1414.1286.0257.0257.0514.0514.09.0771l1.5556.8999h0c.0128,0,.0257,0,.0386.0129.1157.0643.2443.1029.3985.1029h.0257c.1414,0,.27-.0386.3985-.1029.0128,0,.0257,0,.0386-.0129h0l.7457-.4243s.0514-.0514.09-.0771c.0514-.0386.1029-.0771.1414-.1286.0386-.0386.0643-.09.09-.1414s.0514-.1029.0771-.1543c0-.0257.0257-.0386.0257-.0643.0257.2828.0514.5914.1543.9385.1157.3728.2828.7071.45,1.0285,0,.0129.0257.0257.0386.0386.0128.0257.0128.0514.0386.0771.2186.2957.4371.6171.7071.8871.3214.3214.6557.54.9642.7328h0s.0386.0257.0771.0514c.2057.1029.4114.2186.6171.2828.2186.0771.4243.1157.63.1414h.3086v.0129h0c.0257.1157.0771.2057.1414.2957.0129.0257.0386.0386.0643.0643.0514.0643.1157.1157.18.1543.0129,0,.0257.0257.0386.0257l1.5428.8871h0c.0129,0,.0386,0,.0514.0129.1286.0643.2571.1029.3985.1029h0c.09,0,.1928-.0129.2828-.0514.0386,0,.0643-.0386.09-.0514.0257,0,.0514,0,.0643-.0257h.0129c0,.0386.0129.0771.0257.1157,0,.0643.0129.1157.0386.18.0257.0514.0514.1029.0771.1543s.0514.1029.09.1414c.0386.0514.09.09.1414.1286.0257.0257.0514.0514.09.0771l1.5556.8999h0c.0129,0,.0257,0,.0386.0129.1157.0643.2443.1029.3985.1029h.0257c.1414,0,.27-.0386.3985-.1029.0129,0,.0257,0,.0386-.0129h0l.7457-.4243s.0514-.0514.0771-.0643c.0257.1671.0514.3343.1028.5143.0386.1414.09.2828.1543.45h.0129s.0129.0771.0386.1157c.0771.1543.1671.2957.2571.4371.1157.1671.2443.3086.3728.45,0,0,.0129,0,.0257.0129,0,0,0,.0257.0257.0257.1414.1414.2828.27.4242.3857.1543.1286.3214.2314.4886.3343h0s.0257.0257.0514.0257c.27.1414.5271.2828.7842.36.2443.09.4886.1286.7328.1671h.2314c.0257,0,.0514-.0257.09-.0257.0771-.0129.1414-.0257.2057-.0643.0257,0,.0386-.0129.0643-.0257h.0129l.1414-.09c.2186.3728.45.7328.7328,1.0414.4757.54,1.0285.8999,1.5171,1.2214.0129,0,.0257.0128.0514.0257,0,0,.0129.0128.0257.0257.3343.18.7071.3728,1.1056.4628.2314.0514.45.0643.6428.0643h.3471c.09,0,.1928-.0257.2828-.0643.1286-.0514.2957-.1286.4628-.2186h.0257l.5657-.3214c.1286.3985.2828.7842.45,1.1828h.0129s.0257.0771.0386.1157c.27.45.54.9128.9,1.3114s.7457.6685,1.0928.9128l.0771.0386c.0129,0,.0257.0257.0386.0257.2186.1029.4371.2186.6428.2828.2571.0771.4886.09.6814.1029h.0643c.0257.0514.0514.1029.0771.1543s.0514.1029.09.1414c.0386.0514.09.09.1414.1286.0257.0257.0514.0514.09.0771l1.4528.8357h0c.0129,0,.0257,0,.0386.0128.1157.0643.2443.1029.3985.1029h.0257c.1414,0,.27-.0386.3985-.1029.0129,0,.0257,0,.0386-.0128h0l.7457-.4243s.0514-.0514.09-.0771c.0514-.0386.1028-.0771.1414-.1286.0386-.0386.0643-.09.09-.1414.0257-.0514.0514-.1029.0771-.1543.0257-.0643.0257-.1157.0386-.18,0-.0386.0257-.0771.0257-.1157v-9.4495c0-.0386,0-.0771-.0129-.1157l-.0128-.0387ZM632.832,402.4019s-.0257.0257-.0386.0257c-.0514.0257-.1029.0771-.1414.1157s-.0771.0643-.1157.1029c-.0128.0129-.0386.0257-.0514.0514-.0771.1029-.1543.2443-.2443.3985.0128-.1543.0386-.2828.0771-.3857.0386-.1157.1414-.2186.2443-.3343.1286-.0386.2443-.0771.3086-.0643.0257,0,.0643.0257.0771.0257-.0386.0129-.09.0386-.1157.0514v.0129ZM635.0304,406.0017s-.0771-.1029-.1029-.1671l.2443.09-.1286.0771h-.0128ZM635.7633,408.4059s-.0771.0643-.1414.1029c-.1157,0-.2186.0129-.3086,0,0,0-.0257,0-.0386-.0129.0257,0,.0514-.0257.0771-.0514.0386-.0257.0771-.0386.1029-.0643.0128,0,.0257-.0129.0514-.0257.0257-.0257.0643-.0643.1029-.09l.1671.1286h0l-.0128.0129ZM638.7845,407.0431v-.3214s.0643.0386.1029.0514c0,0,.0128.0129.0257.0257-.0514.09-.1029.1671-.1286.2443ZM641.9858,409.5887s-.0386.0386-.0643.0514c-.1671.1157-.3086.2314-.3857.3214-.0257.0257-.0257.0514-.0514.0771-.0257.0257-.0514.0514-.0771.0771-.0771.1286-.2057.3343-.2828.6043-.0257.09-.0386.1671-.0514.2571v-1.6328h0c0-.2057,0-.3985.0128-.5914.0386,0,.0771.0257.1029.0257h.0643c0,.0257.0128.0514.0257.0643.0257.0386.0643.0771.09.1157.0386.0514.0771.1157.1286.1543,0,0,0,.0129.0128.0257l.5271.4114-.09.0514.0385-.0128ZM642.8857,411.3372s0-.09.0128-.1157h.0771c-.0257.0386-.0643.0771-.09.1157h0ZM649.5197,411.3114s-.0643-.0386-.1028-.0643c.0257-.0257.0643-.0386.1028-.0643v.1414-.0128ZM649.8411,412.16s-.0386.0257-.0514.0386v-.1414s.0643.0386.09.0643c0,0-.0129.0257-.0257.0386h-.0129ZM650.0468,409.6015s-.0643.0643-.1028.1029-.09.0771-.1286.1286c0,0-.0129.0257-.0257.0386,0-.1543,0-.3086.0257-.4371v-.0129h0c.09.0257.1928.09.2828.1414-.0257.0129-.0386.0257-.0643.0386h.0128ZM653.2095,413.4585s-.0771-.0514-.1157-.09h0c.0386-.0257.09-.0514.1157-.09v.18ZM653.5309,414.307s-.0514.0257-.0643.0514v-.18s.0643.0514.1028.0771c-.0129,0-.0257.0257-.0386.0514ZM657.375,416.4926h0s-.0643.0514-.1028.0771c-.0643.0386-.1286.0771-.18.1286-.0771.09-.18.2314-.2828.3857.0129-.0643.0257-.1286.0514-.1671.0514-.1286.1414-.2443.27-.3857.09-.0386.18-.0643.2571-.0643h.0257-.0257l-.0129.0257ZM663.7646,420.3238h0c-.09.0514-.1543.1157-.2186.1928,0,.0129-.0257.0257-.0386.0386h0c-.09.1157-.2057.2828-.2957.4885.0129-.2057.0386-.3985.09-.54.0514-.1286.1414-.2443.2443-.3728.0643-.0257.1286-.0514.1671-.0514.0643,0,.1928.0514.3343.1157-.09.0386-.1928.0771-.2443.1157l-.0386.0129ZM667.0816,425.8264s-.0771-.0514-.1157-.0771c.0386-.0643.0771-.1414.1157-.2186v.2957ZM667.0816,422.368c-.0257-.0771-.0386-.1414-.0643-.2057.0257-.0129.0514-.0257.0643-.0514v.2571Z"/>
  </g>
  <g id="Layer_3" data-name="Layer 3">
    <polygon points="679.14 625.55 670.48 625.55 670.48 624.37 670.48 620.55 679.14 625.55"/>
    <path d="M661.35,615.28v11.72h-128l-56.62,33h0v-18h0c2.12-.78,3.58-2.1,3.83-3.62l110.44-63.72,70.35,40.6201Z"/>
    <path d="M479.56,510.32l-114.42,66.06v4.74l6.1,3.52c0,1.71,1.55,3.22,3.87,4.08v96.85c0,1.45,2,2.63,4.56,2.63s4.57-1.18,4.57-2.63v-93.42l79.43,45.85c0,1.71,1.55,3.22,3.87,4.08v23.33l-122.45,71.46h122.45v2.06c.1339.9255.775,1.6979,1.66,2h-131.13l-7.48,4.37c-1.2654.7306-2.8246.7306-4.09,0l-101.89-58.3c-.7622-.4472-1.0175-1.4276-.5703-2.1897.1383-.2357.3346-.432.5703-.5703l112.86-64.72c1.146-.655,1.5441-2.1149.8891-3.2609-.2117-.3704-.5187-.6774-.8891-.8891l-81.87-46.47c-1.9294-1.0987-4.1097-1.6808-6.33-1.69h-4.27c-2.1351-.0066-4.2312-.572-6.08-1.64l-27.22-15.69c-1.4802-.8542-2.5084-2.3178-2.81-4l-.11-.63c-.3807-2.0745-1.658-3.875-3.49-4.92l-63.29-35.9h-53.89l-7.93-4.43h234.53v2.79h151.8l13.05,7.53Z"/>
  </g>
</svg>