<?xml version="1.0" encoding="UTF-8"?>
<svg id="Layer_1" data-name="Layer 1" xmlns="http://www.w3.org/2000/svg" viewBox="0 0 1000 1000">
  <g id="Layer_2" data-name="Layer 2">
    <path d="M724.8224,356.2299c-.0016-.0286-.0058-.0556-.0112-.084-.0059-.0303-.0133-.0584-.0234-.0875-.0095-.0275-.0195-.053-.0325-.0787-.006-.012-.0057-.0253-.0125-.0371s-.0184-.0182-.0259-.0294c-.0158-.0241-.033-.0456-.0521-.0676-.0201-.023-.0405-.0436-.0636-.0636-.0221-.0193-.0438-.0365-.0681-.0524-.0112-.0074-.0174-.0189-.0291-.0257l-118.536-68.4368c-.024-.0139-.0507-.0149-.0756-.0254-.0422-.0178-.0826-.0342-.1275-.0428-.0414-.008-.0811-.0086-.1225-.0086-.0415,0-.0812.0005-.1226.0086-.0448.0086-.0852.0249-.1272.0425-.0253.0106-.0522.0117-.0765.0256l-329.8201,190.4217c-.012.0069-.0186.0188-.03.0265-.0235.0155-.0446.0323-.0662.051-.0235.0203-.0444.0411-.0648.0646-.019.0219-.036.0433-.0518.0673-.0075.0113-.0191.0176-.026.0294-.0069.0118-.0065.0251-.0125.0372-.0129.0257-.0229.0512-.0324.0788-.0101.0291-.0175.0571-.0234.0872-.0055.0286-.0096.0557-.0113.0846-.0008.0133-.0077.0247-.0077.0384v164.2489c0,.0279.0124.0518.0159.0788.0057.0454.0117.0887.0266.1318.0137.0397.033.0741.0537.11.0208.0362.0414.0706.0691.1025.0297.0342.0639.0609.1001.0882.0218.0165.0362.0394.0606.0534l118.5365,68.4367c.0009.0005.0019.0007.0028.0011.0148.0085.0314.0125.0467.0197.0174.0082.0344.0147.0526.0213.006.0022.0116.0052.0176.0071.0677.0227.1365.038.2056.038h.0015c.0683,0,.1364-.0149.2033-.037.0069-.0023.0132-.0057.02-.0081.0181-.0067.0352-.0131.0525-.0213.0153-.0072.0319-.0112.0467-.0197.0009-.0005.0019-.0007.0028-.0011l329.8197-190.4216c.0244-.0141.0389-.0369.0607-.0535.036-.0273.0702-.0538.0998-.0878.028-.0323.0487-.0668.0696-.1033.0206-.0356.0397-.07.0533-.1095.0148-.0431.0209-.0863.0265-.1316.0034-.0271.016-.051.016-.079v-164.2492c0-.0137-.0069-.0252-.0077-.0386h0ZM393.7065,709.8098l-117.2326-67.684v-3.9695l117.2326,67.684v3.9695ZM393.7065,704.3347l-117.2326-67.684v-151.7934l117.2326,67.6843v151.7931h0ZM393.7065,551.036l-117.2326-67.6843v-3.9691l117.2326,67.684v3.9695h0ZM394.3584,545.9373l-117.2325-67.6839,328.5162-189.6689,117.2323,67.684-328.5159,189.6688h0ZM395.0104,552.5416l3.4379-1.9845v151.7928l-3.4379,1.9849v-151.7931h0ZM723.5263,520.1409l-328.5159,189.6689v-3.9695l4.4158-2.5491,4.7413-2.7372,9.483-5.475c.0008-.0005.0011-.0012.0019-.0017l128.7166-74.3147h0l9.4833-5.4744,4.741-2.7379.0005-.0005.3152-.1819c.0008-.0005.0015-.0009.0023-.0013l.0018-.001c.0006-.0003.0012-.0004.0018-.0008l4.7417-2.7372,4.741-2.7379,9.4833-5.4751s.0003-.0003.0005-.0004l129.65-74.8535c.0015-.0009.0032-.0017.0048-.0026.0009-.0005.0019-.0007.0028-.0011l9.4826-5.4751,4.7417-2.7372,3.7631-2.1732v3.9693-.0002.0002ZM548.8821,468.8697c1.0851.6602,1.9925,2.2454,1.9925,3.5047v35.5869c0,.4817-.1346.8353-.3681.9699-.2357.1346-.609.0742-1.0252-.1659-.001-.0005-.002-.0005-.003-.001l-22.46-12.9678,1.1389-13.2836,16.9738-9.7998c1.8159-1.0482,3.096-2.3882,3.7511-3.8434h0ZM545.4569,470.9389v-2.8985c1.0868-.6727,1.9719-1.4499,2.6244-2.2971v.9302c0,1.5224-.9487,3.0347-2.6244,4.2654h0ZM527.4754,516.6297v.0002c-.0793.9298-.2801,1.8655-.5974,2.7831-.2138.62-.487,1.2409-.807,1.8479-.019.0217-.0361.044-.0552.0657-.9182,1.0405-1.9892,2.0496-3.1839,2.9991-1.207.959-2.5553,1.8699-4.0075,2.7088l-2.1921,1.2656.6736-11.5044c.5556-.3729,1.0901-.7575,1.5979-1.1524,1.0557-.8229,2.0212-1.704,2.8696-2.6193.876-.9458,1.6422-1.9455,2.2773-2.97.3647-.5872.686-1.1909.9702-1.8035,1.8468,2.6596,2.6989,5.535,2.4546,8.3787v.0005h-.0001ZM526.3953,503.0623l.0879-1.0247c1.292,1.5943,2.2441,3.2708,2.8558,4.9859-.7781-1.3713-1.7596-2.7002-2.9437-3.961h0v-.0002ZM525.0809,503.1244c-.371,4.3289-3.363,8.4386-8.4639,11.6664l1.6674-26.5779,8.4955-4.9049-1.6991,19.8163h.0001ZM515.2601,515.6033l-91.9334,53.0779,1.6697-26.6084,91.9331-53.0775-1.6693,26.608h0ZM498.7633,527.5831l16.7622-9.6777c.1468-.0847.281-.1781.4255-.2646l-.6698,11.4393-6.9628,4.02-9.5552-5.5169h.0001ZM507.0145,533.8527l-2.3521,1.3581-9.5558-5.5165,2.3529-1.3584,9.5552,5.5169h-.0002ZM493.1298,530.8356l9.5557,5.5166-75.7148,43.7137c-2.9478,1.7026-6.3344,3.122-10.0654,4.2193-3.7482,1.103-7.7583,1.8546-11.9186,2.2351-.1641.0151-.3289.0268-.4933.0406v-9.4236c3.1892-.3288,6.2764-.9174,9.1771-1.7701,3.1499-.9268,6.0318-2.1381,8.5657-3.6009.0005-.0003.0011-.0004.0016-.0007.0004-.0002.0007-.0005.001-.0008l70.8911-40.9293h0ZM427.9521,581.2317s.0003-.0002.0004-.0002c.0017-.001.0036-.0019.0052-.0028l91.8483-53.0289c.0007-.0004.0014-.0008.0021-.0012l.0037-.0022c7.0736-4.0839,11.3991-9.5379,12.1791-15.3579.6514-4.8567-1.165-9.6437-5.2451-13.8633l.1495-1.7439,19.7615,11.4098c.6695.9971.8973,2.0307.6679,3.0762-.3136,1.429-1.4923,2.7976-3.32,3.8526l-136.613,78.874c-1.549.8941-3.4663,1.5145-5.5566,1.8289l1.6378-.9455c.6486-.3747,1.0204-1.1401,1.0204-2.0998v-5.2343c8.8258-.723,17.1362-3.1124,23.4587-6.7613h0l.0002-.0002ZM552.0373,520.601c-.2621-1.1019-.8956-2.1989-1.7191-2.9768l3.5478-2.0486c.876.6609,1.5846,1.888,1.7187,2.9772l-3.5474,2.0481h0ZM555.6155,520.0407v34.0815l-3.4371,1.9849v-34.0819l3.4371-1.9844h0ZM549.3242,516.6926c.0352-.2462.061-.4938.061-.7445v-2.9949l3.2079,1.8518-3.2689,1.8875h0ZM550.8745,521.6488v35.5877c0,.4806-.1343.8335-.3669.9687l-.002.0012s-.0002.0003-.0004.0004c-.2359.1339-.6085.0742-1.0241-.1662l-2.0183-1.1653c-.0009-.0005-.0016-.001-.0025-.0015l-20.4422-11.8024,1.1389-13.2836,16.9738-9.7998c1.8433-1.0645,3.1147-2.3854,3.7607-3.8366,1.0808.6644,1.9829,2.2423,1.9829,3.4976h0v-.0002ZM548.0813,564.2813v.9419c0,1.5217-.9487,3.0339-2.6244,4.2651v-2.9022c1.0895-.6749,1.9733-1.4552,2.6244-2.3047h0ZM526.3954,552.3366l.0878-1.0248c1.2924,1.5948,2.2448,3.2719,2.8564,4.9876-.7781-1.3719-1.76-2.7013-2.9443-3.9628h0ZM527.4754,565.9042c-.0793.9306-.2809,1.867-.5974,2.7837-.2135.6188-.4866,1.2391-.8062,1.8469-.0193.022-.0366.0446-.056.0666-.9182,1.0405-1.9892,2.0496-3.1839,2.9991-1.2049.9568-2.5531,1.8677-4.0075,2.7081l-2.1921,1.2656.6736-11.5044c.5545-.3722,1.0888-.7567,1.5971-1.1523,1.0565-.8221,2.022-1.7033,2.8703-2.6193.8753-.9452,1.6414-1.9441,2.2773-2.97.3645-.5874.6857-1.1908.9699-1.803,1.8465,2.6597,2.6992,5.535,2.4549,8.3789h0ZM525.0809,552.3994c-.371,4.3289-3.3635,8.4386-8.4639,11.6662l1.6674-26.578,8.4956-4.905-1.6991,19.8166h0v.0002ZM495.1065,578.9687l2.3523-1.3582,9.5551,5.5169-2.3521,1.358-9.5552-5.5167h0ZM502.6849,585.6267l-75.7142,43.7134c-2.9504,1.704-6.3369,3.1235-10.0654,4.2193-3.7471,1.103-7.7568,1.8546-11.9175,2.2359-.1644.0148-.3296.0267-.4944.0407v-9.4237c3.1872-.3288,6.2741-.9175,9.1771-1.7709,3.1499-.9268,6.0318-2.1381,8.5657-3.6009.0005-.0003.0011-.0004.0016-.0007.0004-.0002.0007-.0005.001-.0008l70.8911-40.9293,9.5551,5.5169h0ZM498.7626,576.8577l16.7585-9.6756c.0014-.0008.003-.001.0044-.0018.0016-.001.0028-.0025.0044-.0035.1449-.0837.2783-.1763.4211-.2618l-.6698,11.4393-6.9635,4.0203-9.5552-5.5169h.0001ZM515.2601,564.8784l-91.9334,53.0771,1.6697-26.6077,91.933-53.0777-1.6693,26.6083h0ZM408.8436,599.1679v-2.9625l135.3095-78.1205v2.9618l-135.3095,78.1212h0ZM548.0813,515.9481c0,1.5217-.9487,3.0339-2.6244,4.2651v-2.9009c1.0966-.6775,1.9773-1.4473,2.6244-2.2845v.9203h0ZM423.6411,592.1301l-1.6688,26.5936c-4.7562,2.6775-10.9205,4.4919-17.479,5.157v-16.9662c0-.0226-.0052-.0464-.0056-.0691-.0007-.0063-.0007-.0122-.0015-.0185-.0306-1.3868-.7915-2.9379-1.8609-3.9441,2.2005-.3757,4.2261-1.0595,5.8923-2.0209l15.1235-8.7316h0v-.0002ZM404.4933,642.5023v-5.235c8.8258-.723,17.1362-3.1124,23.4587-6.7613,0,0,.0003-.0002.0004-.0002.0017-.001.0036-.0019.0052-.0028l91.8483-53.0283c.0007-.0004.0014-.0008.0021-.0012l.0037-.0022c7.0736-4.0839,11.3983-9.5379,12.1791-15.3579.6514-4.8567-1.165-9.6437-5.245-13.864l.1495-1.7436,19.7615,11.4094c.6695.9971.8973,2.0307.6679,3.0762-.3136,1.4297-1.4923,2.7983-3.32,3.8533l-136.613,78.8732c-1.5487.8941-3.466,1.5143-5.5559,1.8287l1.6371-.9454c.6486-.3747,1.0204-1.1401,1.0204-2.0991v.0002h0ZM518.2844,586.7626l8.4955-4.9049-1.699,19.816c-.371,4.3289-3.363,8.4386-8.4639,11.6664l1.6674-26.5775h0ZM515.2601,614.1526l-91.9334,53.0779,1.6697-26.6083,91.933-53.0772-1.6693,26.6077h0ZM408.8436,648.4423v-2.9618l135.3095-78.1212v2.9625l-135.3095,78.1205h0ZM423.6411,641.4046l-1.6688,26.5943c-4.7562,2.6775-10.9205,4.4919-17.479,5.157v-16.9662c0-.0226-.0052-.0463-.0056-.069-.0007-.0062-.0006-.012-.0015-.0182-.0304-1.3873-.7912-2.9386-1.8605-3.945,2.2012-.3759,4.2267-1.0598,5.8918-2.0214l15.1235-8.7315h0ZM404.4933,690.1685l7.5267,4.3456-7.5267,4.3455v-8.6911h0ZM404.4933,688.6629v-12.9763c3.1892-.3288,6.2764-.9174,9.1771-1.7702,3.1499-.9269,6.0318-2.1381,8.5657-3.6009.0005-.0003.0011-.0004.0016-.0007.0004-.0002.0007-.0005.001-.0007l93.2868-53.8595c1.2122-.7,2.3479-1.461,3.3782-2.262,1.0557-.8229,2.0212-1.704,2.8696-2.6193.4708-.5084.9069-1.0331,1.311-1.5679l17.655,10.1928-127.4153,73.5633-8.8306-5.0984h0v-.0002ZM523.8344,608.9329c.0716-.11.1476-.219.2162-.3295.657-1.0579,1.1875-2.166,1.5767-3.2923.3973-1.1525.6504-2.3385.753-3.5251l.9622-11.2219,23.2933,13.4483-8.8313,15.2954-17.97-10.3747h0v-.0002ZM550.8745,606.2065v8.14l-7.0502,4.0704,7.0502-12.2104ZM527.4655,589.1293l.6916-8.0667,16.9738-9.7998c1.8435-1.0646,3.115-2.3858,3.7609-3.8372,1.0806.6646,1.9826,2.243,1.9826,3.4982v31.7206l-23.409-13.515v-.0002h0ZM549.3242,565.967c.0352-.246.0609-.4934.0609-.7439v-2.9954l3.2079,1.8523-3.2688,1.887h0ZM550.3183,566.8987l3.5478-2.048c.8761.6609,1.5846,1.8875,1.7187,2.9766l-3.5474,2.0486c-.262-1.1021-.8955-2.1992-1.7191-2.9772h0ZM552.1784,603.7735v-32.4734l3.4371-1.9849v42.294l-3.4371,1.9844v-9.8201h0ZM554.294,563.5646c-.0036-.0028-.0073-.0049-.0109-.0075-.0206-.0124-.0395-.0296-.0602-.0416l-4.8401-2.7948c-.0028-.4569-.0665-.915-.1814-1.3646.3485.1503.6905.2268,1.014.2268.3383,0,.6563-.0823.9429-.2474.0007-.0004.0012-.0011.0019-.0015l4.7391-2.7357c.0142-.0082.0239-.0221.0379-.0307v8.6491c-.4469-.6812-1.0116-1.269-1.643-1.6521h-.0002,0ZM554.294,514.2896c-.0036-.0028-.0073-.0049-.0109-.0075-.0206-.0124-.0395-.0296-.0602-.0416l-4.8401-2.7941c-.0028-.4584-.0665-.9166-.1816-1.3653.3486.1503.6906.2268,1.0141.2268.2775,0,.5362-.0696.7803-.1806.0554-.0145.1099-.0362.1619-.0661l4.7417-2.7379c.0032-.0019.0048-.0051.008-.0071.0112-.0065.0188-.0174.0298-.0241v8.6497c-.4469-.6813-1.0116-1.2691-1.643-1.6522h0ZM552.0373,471.3267c-.262-1.1021-.8955-2.1992-1.719-2.977l3.5478-2.0482c.876.6606,1.5845,1.8878,1.7186,2.9769l-3.5474,2.0484h0ZM555.6155,470.7662v34.0816l-3.4371,1.9844v-34.0814l3.4371-1.9847h0ZM554.2956,465.0164c-.0052-.0041-.0107-.0072-.016-.011-.0194-.0116-.0372-.0279-.0566-.0392l-3.7638-2.173,5.478-3.1627v7.0371c-.4465-.6807-1.0107-1.2679-1.6415-1.6512h-.0002ZM552.593,465.5308l-3.271,1.8885c.0368-.2471.063-.4954.0631-.7451v-2.9954l3.2078,1.852h0ZM544.1531,471.7721l-135.3095,78.1209v-2.9618l135.3095-78.1209v2.9618h0ZM423.6411,542.8552l-1.6688,26.5943c-4.7562,2.6775-10.9205,4.4919-17.479,5.157v-16.9662c0-.0226-.0052-.0463-.0056-.069-.0007-.0062-.0006-.012-.0015-.0182-.0304-1.3873-.7912-2.9386-1.8605-3.945,2.2012-.3759,4.2267-1.0598,5.8918-2.0214l15.1235-8.7315h0ZM407.5398,550.6286c-2.1344,1.151-4.8611,1.8421-7.7877,1.9773v-2.8019l.6852-.3956c2.6026-.1905,5.0762-.8131,7.1025-1.7797v3h0ZM401.4398,554.3044c.8763.6609,1.5848,1.888,1.7189,2.9771l-3.4067,1.9667v-3.9689l1.6878-.9749h0ZM403.1895,558.7694v34.0815l-3.4375,1.985v-34.0819l3.4375-1.9845h0ZM407.5398,596.9077v2.9959c-2.1355,1.1515-4.8621,1.8421-7.7877,1.9767v-3.1628c2.8648-.125,5.5735-.7501,7.7877-1.8098ZM401.4398,603.5794c.8763.6609,1.5849,1.8874,1.719,2.9765l-3.4067,1.9672v-3.9693l1.6878-.9744h0ZM403.1895,608.0439v34.0819l-3.4375,1.9845v-34.0815l3.4375-1.985h0ZM407.5398,646.1826v2.9953c-2.1344,1.151-4.8611,1.8421-7.7877,1.9773v-3.1634c2.8652-.125,5.5739-.7501,7.7877-1.8091h0ZM401.4398,652.8536c.8763.6609,1.5849,1.888,1.719,2.9772l-3.4067,1.9667v-3.9695l1.6877-.9744h0ZM403.1895,657.3187v42.2937l-3.4375,1.9847v-42.2939l3.4375-1.9845ZM557.2409,610.6708v-151.7928l3.4379-1.9848v151.7927l-3.4379,1.9849h0ZM711.8593,374.5461l.1398.0808c1.1081.6399,2.0445,2.2617,2.0445,3.5415v35.5873c0,.4813-.1346.8349-.3681.9702-.235.1343-.6083.0742-1.0244-.1662l-22.7542-13.1371,1.1086-12.9302,16.9739-9.7998c1.9411-1.1208,3.2751-2.5741,3.8801-4.1465h-.0001ZM708.3053,376.9182v-2.8985c1.0864-.6726,1.9713-1.4494,2.6237-2.2961v.9297c0,1.522-.9481,3.034-2.6237,4.2649h0ZM689.2435,409.0421l.0879-1.0248c1.2924,1.5949,2.2447,3.2721,2.8564,4.9876-.7782-1.3721-1.7599-2.7015-2.9443-3.9628ZM690.3229,422.609c-.0793.9295-.2801,1.8659-.5966,2.7837-.2136.6194-.4868,1.2403-.8066,1.8474-.0191.0219-.0364.0444-.0556.0662-.9182,1.0412-1.9899,2.0504-3.1846,2.9995-1.2049.9575-2.5531,1.8684-4.0068,2.7077l-2.1922,1.2656.6729-11.5035c.5554-.3727,1.0899-.7575,1.5978-1.1529,1.0557-.8214,2.0212-1.7029,2.8703-2.6197.8753-.9448,1.6414-1.9441,2.2781-2.97.3644-.5884.6854-1.1916.9689-1.8027,1.8467,2.659,2.6986,5.5342,2.4544,8.3787h0ZM687.9292,409.1043c-.371,4.3288-3.3632,8.4383-8.4646,11.6668l1.6682-26.5785,8.4956-4.905-1.6991,19.8167h-.0001ZM678.1076,421.5832l-91.933,53.0775,1.67-26.6083,91.933-53.0775-1.67,26.6083h0ZM661.611,433.5629l16.7629-9.6779c.1464-.0845.2807-.1779.4248-.2642l-.6691,11.4385-6.9635,4.0204-9.5551-5.5166h0v-.0002ZM669.8622,439.8323l-2.3521,1.358-9.5553-5.5165,2.3523-1.3582,9.5551,5.5166h0ZM655.9781,436.815l9.555,5.5166-75.7146,43.7138c-2.9489,1.7026-6.3351,3.1224-10.0654,4.2197-3.7471,1.1027-7.7575,1.8546-11.9186,2.2348-.369.0337-.7404.059-1.111.0869v-9.3989c3.4088-.3129,6.7037-.9321,9.7948-1.8415,3.1512-.9269,6.0338-2.1384,8.5673-3.6016l70.8925-40.9297h0v-.0002ZM590.801,487.2105s.0007-.0004.001-.0005c.0004-.0002.001-.0005.0013-.0008.0008-.0005.0018-.0006.0026-.0011l91.8488-53.0289s.0007-.0004.001-.0006l.0042-.0025c7.0729-4.0836,11.3984-9.5376,12.1791-15.3572.6514-4.857-1.165-9.6441-5.2451-13.8644l.1799-2.0974,19.1974,11.0835c.9939,1.0962,1.4274,2.3077,1.2469,3.509-.2284,1.5225-1.4232,2.9784-3.3651,4.0995l-136.613,78.8736c-1.5513.8952-3.4674,1.5152-5.5563,1.8292l1.0198-.5887c.6483-.3747,1.0201-1.1401,1.0201-2.0998v-5.5441c9.0651-.6615,17.5954-3.0677,24.0774-6.809v.0002h.0002ZM712.3252,422.5841l-.1411-.0815c.0219-.1912.0487-.3821.0487-.5747v-3.3662l3.5295,2.0377-3.4371,1.9847h0ZM717.0353,421.37c.8766.6607,1.5852,1.8877,1.7193,2.9769l-3.5482,2.0485c-.262-1.1018-.8956-2.1989-1.7187-2.9769l3.5476-2.0485ZM714.0437,427.4431v35.5873c0,.4813-.1346.8349-.3681.9702-.235.1346-.6083.0738-1.0244-.1662l-22.7542-13.1371,1.1086-12.9302,16.9738-9.7998c1.9411-1.1208,3.2751-2.5741,3.8801-4.1465l.1398.0808c1.1081.6399,2.0445,2.2617,2.0445,3.5415h0ZM710.9288,470.2823v.9204c0,1.522-.9481,3.034-2.6237,4.2649v-2.9011c1.0963-.6775,1.9767-1.4472,2.6237-2.2842h0ZM689.2435,458.3167l.0879-1.0248c1.2924,1.5949,2.2447,3.2721,2.8564,4.9876-.7782-1.3721-1.7599-2.7015-2.9443-3.9628ZM690.3229,471.8837c-.0793.9295-.2801,1.8659-.5966,2.7837-.2136.6194-.4868,1.2403-.8066,1.8474-.0191.0219-.0364.0444-.0556.0662-.9182,1.0412-1.9899,2.0504-3.1846,2.9995-1.2049.9575-2.5531,1.8684-4.0068,2.7077l-2.1922,1.2656.6729-11.5034c.5555-.3729,1.0901-.7578,1.5978-1.1533,1.055-.8207,2.0212-1.7022,2.8703-2.6193.8753-.9448,1.6414-1.9441,2.2781-2.97.3644-.5884.6854-1.1916.9689-1.8027,1.8467,2.659,2.6986,5.5342,2.4544,8.3787h0ZM687.9292,458.379c-.371,4.3288-3.3632,8.4383-8.4646,11.6668l1.6682-26.5786,8.4956-4.9049-1.6991,19.8168h-.0001ZM657.9548,484.9485l2.3524-1.3582,9.5549,5.5166-2.3521,1.358-9.5553-5.5165h.0001ZM665.5332,491.6063l-75.7146,43.7138c-2.9475,1.7026-6.3344,3.122-10.0654,4.2193-3.7478,1.103-7.7582,1.8546-11.9186,2.2351-.369.0336-.7404.0589-1.111.0869v-9.3996c3.4096-.3126,6.7052-.9317,9.7948-1.8404,3.1495-.9267,6.0313-2.1378,8.5649-3.6003.001-.0006.0022-.0007.0031-.0013.0008-.0004.0013-.0012.002-.0016l70.8898-40.9285,9.5549,5.5166h.0002ZM661.6111,482.8376l16.7627-9.678c.1464-.0845.2806-.1779.4248-.2642l-.6691,11.4385-6.9635,4.0203-9.5549-5.5166ZM678.1076,470.8579l-91.933,53.0775,1.67-26.6086,91.933-53.0773-1.67,26.6083h0ZM571.6915,505.1471v-2.9618l135.3099-78.1209v2.9618l-135.3099,78.1209ZM710.9288,421.928c0,1.522-.9481,3.034-2.6237,4.2649v-2.9011c1.0963-.6775,1.9767-1.4472,2.6237-2.2842v.9204h0ZM586.4894,498.1091l-1.6691,26.5942c-4.914,2.7667-11.2984,4.6025-18.0968,5.2163v-16.6687c0-.0228-.0052-.0467-.0057-.0697-.0007-.006-.0006-.0116-.0014-.0176-.0329-1.4946-.909-3.1894-2.1094-4.1757,2.5315-.3349,4.8952-1.0712,6.7585-2.1471l15.1239-8.7317h0ZM566.7236,548.8386v-5.5445c9.0656-.6614,17.5951-3.0675,24.0756-6.8077.0012-.0007.0023-.0013.0034-.0019.001-.0007.0022-.0012.0033-.0018l91.8488-53.0289s.0007-.0004.001-.0006l.0042-.0025c7.0729-4.0836,11.3984-9.5376,12.1791-15.3572.6514-4.857-1.165-9.6441-5.2451-13.8644l.1799-2.0974,19.1974,11.0835c.9939,1.0962,1.4274,2.3077,1.2469,3.509-.2284,1.5225-1.4232,2.9784-3.3651,4.0995l-136.613,78.874c-1.5512.8955-3.4672,1.5151-5.5569,1.8289l1.0204-.5891c.6483-.3747,1.0201-1.1394,1.0201-2.0991h0v.0002ZM681.1327,492.7419l8.4956-4.905-1.6991,19.8167c-.371,4.3291-3.3639,8.4383-8.4646,11.6666l1.6682-26.5785h0v.0002ZM678.1076,520.1325l-91.933,53.0778,1.67-26.6086,91.933-53.0775-1.67,26.6083ZM571.6915,554.4222v-2.9618l135.3099-78.1212v2.9618l-135.3099,78.1212ZM586.4894,547.3842l-1.6691,26.5941c-4.9139,2.766-11.2984,4.6019-18.0968,5.2163v-16.6687c0-.0228-.0052-.0466-.0057-.0695-.0006-.0059-.0005-.0114-.0013-.0173-.0326-1.4944-.9084-3.189-2.1086-4.1759,2.5309-.3348,4.8938-1.0712,6.7576-2.1473l15.1239-8.7317h0ZM566.7236,596.5048l7.5273,4.3453-7.5273,4.3459v-8.6911h0ZM566.7236,594.9993v-13.2625c3.4074-.3126,6.703-.9317,9.7948-1.8412,3.1495-.9267,6.0313-2.1378,8.5649-3.6003.001-.0006.0022-.0007.0031-.0013.0008-.0004.0013-.0012.002-.0016l93.2836-53.8569c.0008-.0005.0017-.0006.0025-.001.001-.0006.0017-.0016.0028-.0022,1.2079-.698,2.3432-1.4582,3.374-2.2606,1.0565-.8221,2.022-1.7033,2.8703-2.6193.546-.5892,1.0443-1.2021,1.5013-1.8285l17.7857,10.2682-128.3537,74.1051-8.8313-5.0979h0ZM686.8594,514.6437c.0129-.0206.0274-.0407.0402-.0613.6577-1.0623,1.1881-2.1697,1.5753-3.2909.398-1.1518.6512-2.3385.7538-3.5259l.9925-11.5756,23.5839,13.6157-8.8307,15.2961-18.1149-10.4582h-.0001ZM714.0437,512.0003v8.1403l-7.0492,4.0698,7.0492-12.2101h0ZM690.3442,494.7555l.6613-7.7137,16.9739-9.7998c1.9411-1.1208,3.2751-2.5741,3.8801-4.1465l.1398.0808c1.1081.6399,2.0445,2.2617,2.0445,3.5415v31.7203l-23.6995-13.6825h0ZM712.1841,471.7773c.0219-.1912.0487-.3821.0487-.5747v-3.3662l3.5295,2.0377-3.4371,1.9847-.1411-.0815h0ZM713.4877,472.6932l3.5476-2.0485c.8766.6607,1.5852,1.8877,1.7193,2.9769l-3.5482,2.0485c-.262-1.1018-.8956-2.1989-1.7187-2.9769ZM715.3475,509.5672v-32.473l3.4379-1.9848v42.2937l-3.4379,1.9848v-9.8207h0ZM717.4641,469.3591c-.0045-.0035-.0092-.0061-.0139-.0095-.0199-.012-.0382-.0286-.0582-.0402l-5.1878-2.9951c-.0275-.3621-.0776-.7237-.1752-1.0801-.0294-.1065-.0734-.2107-.1089-.3164l.0791.0457c.4765.275.9473.4137,1.3861.4137.2775,0,.5369-.0699.7814-.1813.0551-.0144.1091-.0361.1608-.066l4.4579-2.5741v8.0055c-.3861-.4883-.8339-.9064-1.3213-1.2021h0ZM715.3475,461.9013v-34.0817l3.4379-1.9848v34.0817l-3.4379,1.9848h0ZM717.4641,420.0846c-.0046-.0036-.0094-.0063-.0141-.0098-.0198-.0119-.0381-.0285-.058-.04l-5.1878-2.9951c-.0275-.3621-.0776-.7237-.1752-1.0801-.0294-.1065-.0734-.2107-.1089-.3164l.0791.0457c.4765.275.9473.4137,1.3861.4137.2775,0,.5369-.0699.7814-.1813.0551-.0144.1091-.0361.1608-.066l4.4579-2.5741v8.0055c-.3861-.4882-.8338-.9063-1.3213-1.2021h-.0002.0001ZM713.4877,374.1438l3.5476-2.0485c.8766.6607,1.5852,1.8877,1.7193,2.9769l-3.5482,2.0485c-.262-1.1018-.8956-2.1989-1.7187-2.9769ZM715.3475,412.6266v-34.0817l3.4379-1.9848v34.0817l-3.4379,1.9848ZM717.4645,370.8102c-.005-.0039-.0103-.0069-.0154-.0107-.0195-.0117-.0375-.0281-.0571-.0394l-3.7633-2.173,5.1567-2.9772v6.402c-.3859-.4882-.8335-.906-1.3208-1.2018h0ZM715.7624,371.3248l-3.4371,1.9847-.1411-.0815c.0219-.1912.0487-.3821.0487-.5747v-3.2603l.0922-.0532,3.4375,1.9849h-.0002ZM707.0014,377.7516l-135.3099,78.1212v-2.9622l135.3099-78.1209v2.9618h0ZM586.4894,448.8349l-1.6691,26.5938c-4.9146,2.7667-11.2985,4.6029-18.0968,5.2164v-16.6687c0-.0228-.0052-.0467-.0057-.0696-.0007-.0059-.0006-.0116-.0014-.0174-.0328-1.4943-.9088-3.1886-2.109-4.1755,2.5307-.3347,4.8938-1.0709,6.7581-2.1471l15.1239-8.7317h0v-.0002ZM570.3876,456.6074c-2.2731,1.2248-5.2604,1.9433-8.405,1.9977v-2.465l1.3035-.7526c2.6018-.1901,5.0751-.8127,7.1015-1.7793v2.9993h0ZM562.3485,459.8984l-.3659.2112v-.2006c.1222-.0022.244-.0065.3659-.0107h0ZM563.6703,460.6407c.876.6607,1.5845,1.8878,1.7186,2.9769l-3.4064,1.9669v-3.9694l1.6877-.9745h0ZM565.4197,465.1055v34.0817l-3.4371,1.9849v-34.0819l3.4371-1.9847h0ZM570.3876,502.8845v2.997c-2.2732,1.2243-5.2843,1.9429-8.405,1.9985v-3.1637c3.0598-.0563,6.0358-.703,8.405-1.8318h0ZM562.3494,509.1729l-.3668.2118v-.2011c.1225-.0023.2446-.0065.3668-.0107h0ZM563.6703,509.9158c.876.6605,1.5844,1.8875,1.7185,2.9766l-3.4064,1.9671v-3.9693l1.6877-.9744h.0002ZM565.4197,514.3803v34.0819l-3.4371,1.9844v-34.0815l3.4371-1.9849h0ZM570.3876,552.1593v2.9972c-2.2739,1.2245-5.2854,1.9405-8.405,1.9973v-3.1627c3.0588-.0563,6.0348-.7031,8.405-1.832h0v.0002ZM562.3478,558.448l-.3652.2109v-.2003c.122-.0022.2436-.0065.3652-.0107h0ZM563.6702,559.1902c.8761.6609,1.5846,1.888,1.7187,2.9772l-3.4064,1.9666v-3.9695l1.6876-.9744h0ZM565.4197,563.6552v42.2936l-3.4371,1.9844v-42.2936l3.4371-1.9844ZM723.5263,514.6658l-3.4371,1.9844v-151.7927l3.4371-1.9847v151.793h0ZM723.5263,361.3671l-328.5159,189.6688v-3.9695l328.5159-189.6689v3.9695h0Z"/>
  </g>
  <g id="Layer_3" data-name="Layer 3">
    <path d="M394.05,712.17h-223.6595c-1.5849,0-3.1411-.423-4.5078-1.2254l-114.8326-67.4145,224.12-129.16v129.16l118.88,68.64Z"/>
  </g>
</svg>