<svg width="500" height="341" viewBox="0 0 500 341" fill="none" xmlns="http://www.w3.org/2000/svg">
<circle cx="178.5" cy="148" r="108.5" stroke="#333333" stroke-width="3"/>
<path d="M10.2109 45.7812C10.388 45.7812 10.513 45.8203 10.5859 45.8984C10.6641 45.9766 10.7031 46.1146 10.7031 46.3125C10.7031 46.5104 10.6641 46.6484 10.5859 46.7266C10.513 46.8047 10.388 46.8438 10.2109 46.8438H9.72656L6.53125 53.3906C6.28125 53.901 6.03646 54.3333 5.79688 54.6875C5.55729 55.0417 5.29948 55.3307 5.02344 55.5547C4.7474 55.7786 4.44271 55.9427 4.10938 56.0469C3.78125 56.1562 3.40365 56.2188 2.97656 56.2344C2.82552 56.2396 2.69792 56.2057 2.59375 56.1328C2.49479 56.0599 2.4349 55.9193 2.41406 55.7109C2.39323 55.4818 2.41927 55.3177 2.49219 55.2188C2.57031 55.1198 2.67969 55.0651 2.82031 55.0547C3.17969 55.0339 3.48438 54.9844 3.73438 54.9062C3.98958 54.8333 4.22135 54.7031 4.42969 54.5156C4.63802 54.3281 4.84115 54.0677 5.03906 53.7344C5.24219 53.4062 5.47396 52.9792 5.73438 52.4531L2.875 46.8438H2.38281C2.20573 46.8438 2.07812 46.8047 2 46.7266C1.92708 46.6484 1.89062 46.5104 1.89062 46.3125C1.89062 46.1146 1.92708 45.9766 2 45.8984C2.07812 45.8203 2.20573 45.7812 2.38281 45.7812H5.14844C5.32552 45.7812 5.45052 45.8203 5.52344 45.8984C5.60156 45.9766 5.64062 46.1146 5.64062 46.3125C5.64062 46.5104 5.60156 46.6484 5.52344 46.7266C5.45052 46.8047 5.32552 46.8438 5.14844 46.8438H4.14844L6.35156 51.2344L8.45312 46.8438H7.75781C7.58073 46.8438 7.45312 46.8047 7.375 46.7266C7.30208 46.6484 7.26562 46.5104 7.26562 46.3125C7.26562 46.1146 7.30208 45.9766 7.375 45.8984C7.45312 45.8203 7.58073 45.7812 7.75781 45.7812H10.2109ZM11.7113 49.3906C11.7113 48.8385 11.8076 48.3333 12.0003 47.875C12.1982 47.4115 12.4691 47.013 12.8128 46.6797C13.1566 46.3411 13.5628 46.0781 14.0316 45.8906C14.5055 45.7031 15.0185 45.6094 15.5706 45.6094C16.1227 45.6094 16.6331 45.7031 17.1019 45.8906C17.5758 46.0781 17.9847 46.3411 18.3284 46.6797C18.6722 47.013 18.9404 47.4115 19.1331 47.875C19.331 48.3333 19.43 48.8385 19.43 49.3906C19.43 49.9427 19.331 50.4505 19.1331 50.9141C18.9404 51.3724 18.6722 51.7708 18.3284 52.1094C17.9847 52.4427 17.5758 52.7031 17.1019 52.8906C16.6331 53.0781 16.1227 53.1719 15.5706 53.1719C15.0185 53.1719 14.5055 53.0781 14.0316 52.8906C13.5628 52.7031 13.1566 52.4427 12.8128 52.1094C12.4691 51.7708 12.1982 51.3724 12.0003 50.9141C11.8076 50.4505 11.7113 49.9427 11.7113 49.3906ZM12.9456 49.3906C12.9456 49.7708 13.0081 50.1224 13.1331 50.4453C13.2633 50.763 13.443 51.0391 13.6722 51.2734C13.9014 51.5078 14.1774 51.6901 14.5003 51.8203C14.8232 51.9505 15.18 52.0156 15.5706 52.0156C15.9613 52.0156 16.318 51.9505 16.6409 51.8203C16.9639 51.6901 17.2399 51.5078 17.4691 51.2734C17.6982 51.0391 17.8753 50.763 18.0003 50.4453C18.1305 50.1224 18.1956 49.7708 18.1956 49.3906C18.1956 49.0104 18.1305 48.6615 18.0003 48.3438C17.8753 48.0208 17.6982 47.7422 17.4691 47.5078C17.2399 47.2734 16.9639 47.0911 16.6409 46.9609C16.318 46.8307 15.9613 46.7656 15.5706 46.7656C15.18 46.7656 14.8232 46.8307 14.5003 46.9609C14.1774 47.0911 13.9014 47.2734 13.6722 47.5078C13.443 47.7422 13.2633 48.0208 13.1331 48.3438C13.0081 48.6615 12.9456 49.0104 12.9456 49.3906ZM28.4928 51.9375C28.6699 51.9375 28.7949 51.9766 28.8678 52.0547C28.9459 52.1328 28.985 52.2708 28.985 52.4688C28.985 52.6667 28.9459 52.8047 28.8678 52.8828C28.7949 52.9609 28.6699 53 28.4928 53H27.2506C27.0735 53 26.9459 52.9635 26.8678 52.8906C26.7949 52.8125 26.7584 52.6745 26.7584 52.4766V51.5312C26.4147 52.0677 26.0136 52.4766 25.5553 52.7578C25.097 53.0339 24.5996 53.1719 24.0631 53.1719C23.7038 53.1719 23.3808 53.112 23.0944 52.9922C22.8079 52.8724 22.5631 52.7031 22.36 52.4844C22.1621 52.2656 22.0084 52 21.8991 51.6875C21.7949 51.3698 21.7428 51.0156 21.7428 50.625V46.8438H21.1022C20.9251 46.8438 20.7975 46.8047 20.7194 46.7266C20.6465 46.6484 20.61 46.5104 20.61 46.3125C20.61 46.1146 20.6465 45.9766 20.7194 45.8984C20.7975 45.8203 20.9251 45.7812 21.1022 45.7812H22.4225C22.5996 45.7812 22.7246 45.8203 22.7975 45.8984C22.8756 45.9766 22.9147 46.1146 22.9147 46.3125V50.5078C22.9147 50.7318 22.9407 50.9375 22.9928 51.125C23.0449 51.3073 23.123 51.4661 23.2272 51.6016C23.3314 51.7318 23.4616 51.8333 23.6178 51.9062C23.7793 51.9792 23.9668 52.0156 24.1803 52.0156C24.5136 52.0156 24.8314 51.9427 25.1334 51.7969C25.4355 51.651 25.7011 51.4479 25.9303 51.1875C26.1595 50.9271 26.3418 50.6172 26.4772 50.2578C26.6126 49.8984 26.6803 49.5052 26.6803 49.0781V46.8438H25.5709C25.3939 46.8438 25.2663 46.8047 25.1881 46.7266C25.1152 46.6484 25.0788 46.5104 25.0788 46.3125C25.0788 46.1146 25.1152 45.9766 25.1881 45.8984C25.2663 45.8203 25.3939 45.7812 25.5709 45.7812H27.36C27.5371 45.7812 27.6621 45.8203 27.735 45.8984C27.8131 45.9766 27.8522 46.1146 27.8522 46.3125V51.9375H28.4928Z" fill="black"/>
<path d="M312.117 332.086C312.346 331.581 312.617 331.208 312.93 330.969C313.242 330.729 313.578 330.609 313.938 330.609C314.109 330.609 314.271 330.638 314.422 330.695C314.578 330.753 314.721 330.841 314.852 330.961C314.982 331.076 315.094 331.221 315.188 331.398C315.286 331.576 315.359 331.784 315.406 332.023C315.641 331.544 315.909 331.19 316.211 330.961C316.513 330.727 316.844 330.609 317.203 330.609C317.427 330.609 317.635 330.651 317.828 330.734C318.026 330.818 318.198 330.945 318.344 331.117C318.49 331.289 318.604 331.508 318.688 331.773C318.776 332.034 318.82 332.344 318.82 332.703V336.938H319.305C319.482 336.938 319.607 336.977 319.68 337.055C319.758 337.133 319.797 337.271 319.797 337.469C319.797 337.667 319.758 337.805 319.68 337.883C319.607 337.961 319.482 338 319.305 338H318.141C317.964 338 317.836 337.961 317.758 337.883C317.685 337.805 317.648 337.667 317.648 337.469V332.844C317.648 332.495 317.591 332.229 317.477 332.047C317.362 331.859 317.172 331.766 316.906 331.766C316.719 331.766 316.542 331.831 316.375 331.961C316.214 332.091 316.07 332.273 315.945 332.508C315.826 332.742 315.729 333.023 315.656 333.352C315.583 333.674 315.547 334.034 315.547 334.43V336.938H315.992C316.169 336.938 316.294 336.977 316.367 337.055C316.445 337.133 316.484 337.271 316.484 337.469C316.484 337.667 316.445 337.805 316.367 337.883C316.294 337.961 316.169 338 315.992 338H314.867C314.69 338 314.562 337.961 314.484 337.883C314.411 337.805 314.375 337.667 314.375 337.469V332.844C314.375 332.495 314.318 332.229 314.203 332.047C314.089 331.859 313.898 331.766 313.633 331.766C313.445 331.766 313.268 331.831 313.102 331.961C312.94 332.091 312.797 332.273 312.672 332.508C312.552 332.742 312.456 333.023 312.383 333.352C312.31 333.674 312.273 334.034 312.273 334.43V336.938H312.68C312.857 336.938 312.982 336.977 313.055 337.055C313.133 337.133 313.172 337.271 313.172 337.469C313.172 337.667 313.133 337.805 313.055 337.883C312.982 337.961 312.857 338 312.68 338H310.461C310.284 338 310.156 337.961 310.078 337.883C310.005 337.805 309.969 337.667 309.969 337.469C309.969 337.271 310.005 337.133 310.078 337.055C310.156 336.977 310.284 336.938 310.461 336.938H311.102V331.844H310.461C310.284 331.844 310.156 331.805 310.078 331.727C310.005 331.648 309.969 331.51 309.969 331.312C309.969 331.115 310.005 330.977 310.078 330.898C310.156 330.82 310.284 330.781 310.461 330.781H311.625C311.802 330.781 311.927 330.82 312 330.898C312.078 330.977 312.117 331.115 312.117 331.312V332.086ZM321.649 334.68C321.69 335.466 321.907 336.057 322.297 336.453C322.693 336.844 323.256 337.039 323.985 337.039C324.511 337.039 325.021 336.979 325.516 336.859C326.011 336.74 326.438 336.576 326.797 336.367C326.964 336.273 327.102 336.266 327.211 336.344C327.326 336.422 327.417 336.544 327.485 336.711C327.558 336.878 327.573 337.029 327.532 337.164C327.49 337.294 327.383 337.404 327.211 337.492C327.008 337.591 326.782 337.682 326.532 337.766C326.287 337.849 326.024 337.922 325.743 337.984C325.466 338.042 325.18 338.086 324.883 338.117C324.586 338.154 324.287 338.172 323.985 338.172C323.412 338.172 322.904 338.086 322.461 337.914C322.019 337.737 321.646 337.487 321.344 337.164C321.042 336.836 320.81 336.44 320.649 335.977C320.493 335.508 320.414 334.979 320.414 334.391C320.414 333.823 320.506 333.307 320.688 332.844C320.875 332.375 321.133 331.977 321.461 331.648C321.789 331.315 322.18 331.06 322.633 330.883C323.091 330.701 323.594 330.609 324.141 330.609C324.719 330.609 325.229 330.701 325.672 330.883C326.115 331.06 326.487 331.307 326.789 331.625C327.097 331.943 327.334 332.32 327.5 332.758C327.667 333.195 327.766 333.674 327.797 334.195C327.797 334.372 327.758 334.497 327.68 334.57C327.607 334.643 327.482 334.68 327.305 334.68H321.649ZM324.141 331.742C323.49 331.742 322.956 331.906 322.539 332.234C322.128 332.557 321.857 333.008 321.727 333.586H326.5C326.391 332.997 326.144 332.544 325.758 332.227C325.373 331.904 324.834 331.742 324.141 331.742Z" fill="black"/>
<path d="M432.914 1.78906C432.737 1.78906 432.609 1.75 432.531 1.67188C432.458 1.59375 432.422 1.45573 432.422 1.25781C432.422 1.0599 432.458 0.921875 432.531 0.84375C432.609 0.765625 432.737 0.726562 432.914 0.726562H435.602C435.779 0.726562 435.904 0.765625 435.977 0.84375C436.055 0.921875 436.094 1.0599 436.094 1.25781C436.094 1.45573 436.055 1.59375 435.977 1.67188C435.904 1.75 435.779 1.78906 435.602 1.78906H434.461L435.242 8.04688L436.711 3.45312C436.742 3.34896 436.802 3.26302 436.891 3.19531C436.979 3.1224 437.107 3.08594 437.273 3.08594C437.445 3.08594 437.576 3.11198 437.664 3.16406C437.753 3.21615 437.812 3.29427 437.844 3.39844L439.305 8.04688L440.117 1.78906H439.148C438.971 1.78906 438.844 1.75 438.766 1.67188C438.693 1.59375 438.656 1.45573 438.656 1.25781C438.656 1.0599 438.693 0.921875 438.766 0.84375C438.844 0.765625 438.971 0.726562 439.148 0.726562H441.68C441.857 0.726562 441.982 0.765625 442.055 0.84375C442.133 0.921875 442.172 1.0599 442.172 1.25781C442.172 1.45573 442.133 1.59375 442.055 1.67188C441.982 1.75 441.857 1.78906 441.68 1.78906H441.258L440.18 9.66406C440.154 9.85677 440.083 9.98958 439.969 10.0625C439.859 10.1354 439.706 10.1719 439.508 10.1719C439.31 10.1719 439.141 10.1328 439 10.0547C438.865 9.97656 438.768 9.84635 438.711 9.66406L437.266 5.125L435.805 9.66406C435.747 9.84635 435.646 9.97656 435.5 10.0547C435.359 10.1328 435.19 10.1719 434.992 10.1719C434.794 10.1719 434.641 10.1328 434.531 10.0547C434.427 9.98177 434.362 9.85156 434.336 9.66406L433.297 1.78906H432.914ZM443.688 1.78906H442.891C442.714 1.78906 442.586 1.75 442.508 1.67188C442.435 1.59375 442.399 1.45573 442.399 1.25781C442.399 1.0599 442.435 0.921875 442.508 0.84375C442.586 0.765625 442.714 0.726562 442.891 0.726562H449.719C449.896 0.726562 450.021 0.765625 450.094 0.84375C450.172 0.921875 450.211 1.0599 450.211 1.25781V3.24219C450.211 3.42448 450.167 3.55469 450.078 3.63281C449.995 3.71094 449.844 3.75 449.625 3.75C449.407 3.75 449.253 3.71094 449.164 3.63281C449.081 3.55469 449.039 3.42448 449.039 3.24219V1.78906H444.86V4.6875H446.813V3.97656C446.813 3.79427 446.854 3.66406 446.938 3.58594C447.026 3.50781 447.18 3.46875 447.399 3.46875C447.618 3.46875 447.769 3.50781 447.852 3.58594C447.94 3.66406 447.985 3.79427 447.985 3.97656V6.46094C447.985 6.64323 447.94 6.77344 447.852 6.85156C447.769 6.92969 447.618 6.96875 447.399 6.96875C447.18 6.96875 447.026 6.92969 446.938 6.85156C446.854 6.77344 446.813 6.64323 446.813 6.46094V5.75H444.86V8.9375H449.196V7.14844C449.196 6.96615 449.237 6.83594 449.321 6.75781C449.409 6.67969 449.563 6.64062 449.782 6.64062C450 6.64062 450.151 6.67969 450.235 6.75781C450.323 6.83594 450.368 6.96615 450.368 7.14844V9.46875C450.368 9.66667 450.328 9.80469 450.25 9.88281C450.177 9.96094 450.052 10 449.875 10H442.891C442.714 10 442.586 9.96094 442.508 9.88281C442.435 9.80469 442.399 9.66667 442.399 9.46875C442.399 9.27083 442.435 9.13281 442.508 9.05469C442.586 8.97656 442.714 8.9375 442.891 8.9375H443.688V1.78906ZM452.962 1.78906H452.165C451.988 1.78906 451.86 1.75 451.782 1.67188C451.709 1.59375 451.673 1.45573 451.673 1.25781C451.673 1.0599 451.709 0.921875 451.782 0.84375C451.86 0.765625 451.988 0.726562 452.165 0.726562H458.993C459.17 0.726562 459.295 0.765625 459.368 0.84375C459.446 0.921875 459.485 1.0599 459.485 1.25781V3.24219C459.485 3.42448 459.441 3.55469 459.352 3.63281C459.269 3.71094 459.118 3.75 458.899 3.75C458.68 3.75 458.527 3.71094 458.438 3.63281C458.355 3.55469 458.313 3.42448 458.313 3.24219V1.78906H454.133V4.6875H456.087V3.97656C456.087 3.79427 456.128 3.66406 456.212 3.58594C456.3 3.50781 456.454 3.46875 456.673 3.46875C456.891 3.46875 457.042 3.50781 457.126 3.58594C457.214 3.66406 457.258 3.79427 457.258 3.97656V6.46094C457.258 6.64323 457.214 6.77344 457.126 6.85156C457.042 6.92969 456.891 6.96875 456.673 6.96875C456.454 6.96875 456.3 6.92969 456.212 6.85156C456.128 6.77344 456.087 6.64323 456.087 6.46094V5.75H454.133V8.9375H458.469V7.14844C458.469 6.96615 458.511 6.83594 458.594 6.75781C458.683 6.67969 458.837 6.64062 459.055 6.64062C459.274 6.64062 459.425 6.67969 459.508 6.75781C459.597 6.83594 459.641 6.96615 459.641 7.14844V9.46875C459.641 9.66667 459.602 9.80469 459.524 9.88281C459.451 9.96094 459.326 10 459.149 10H452.165C451.988 10 451.86 9.96094 451.782 9.88281C451.709 9.80469 451.673 9.66667 451.673 9.46875C451.673 9.27083 451.709 9.13281 451.782 9.05469C451.86 8.97656 451.988 8.9375 452.165 8.9375H452.962V1.78906ZM462.235 1.78906H461.438C461.261 1.78906 461.134 1.75 461.056 1.67188C460.983 1.59375 460.946 1.45573 460.946 1.25781C460.946 1.0599 460.983 0.921875 461.056 0.84375C461.134 0.765625 461.261 0.726562 461.438 0.726562H468.267C468.444 0.726562 468.569 0.765625 468.642 0.84375C468.72 0.921875 468.759 1.0599 468.759 1.25781V3.24219C468.759 3.42448 468.714 3.55469 468.626 3.63281C468.543 3.71094 468.392 3.75 468.173 3.75C467.954 3.75 467.8 3.71094 467.712 3.63281C467.629 3.55469 467.587 3.42448 467.587 3.24219V1.78906H463.407V4.6875H465.36V3.97656C465.36 3.79427 465.402 3.66406 465.485 3.58594C465.574 3.50781 465.728 3.46875 465.946 3.46875C466.165 3.46875 466.316 3.50781 466.399 3.58594C466.488 3.66406 466.532 3.79427 466.532 3.97656V6.46094C466.532 6.64323 466.488 6.77344 466.399 6.85156C466.316 6.92969 466.165 6.96875 465.946 6.96875C465.728 6.96875 465.574 6.92969 465.485 6.85156C465.402 6.77344 465.36 6.64323 465.36 6.46094V5.75H463.407V8.9375H467.743V7.14844C467.743 6.96615 467.785 6.83594 467.868 6.75781C467.957 6.67969 468.11 6.64062 468.329 6.64062C468.548 6.64062 468.699 6.67969 468.782 6.75781C468.871 6.83594 468.915 6.96615 468.915 7.14844V9.46875C468.915 9.66667 468.876 9.80469 468.798 9.88281C468.725 9.96094 468.6 10 468.423 10H461.438C461.261 10 461.134 9.96094 461.056 9.88281C460.983 9.80469 460.946 9.66667 460.946 9.46875C460.946 9.27083 460.983 9.13281 461.056 9.05469C461.134 8.97656 461.261 8.9375 461.438 8.9375H462.235V1.78906ZM471.509 1.78906H470.712C470.535 1.78906 470.408 1.75 470.329 1.67188C470.256 1.59375 470.22 1.45573 470.22 1.25781C470.22 1.0599 470.256 0.921875 470.329 0.84375C470.408 0.765625 470.535 0.726562 470.712 0.726562H477.54C477.717 0.726562 477.842 0.765625 477.915 0.84375C477.993 0.921875 478.033 1.0599 478.033 1.25781V3.24219C478.033 3.42448 477.988 3.55469 477.9 3.63281C477.816 3.71094 477.665 3.75 477.447 3.75C477.228 3.75 477.074 3.71094 476.986 3.63281C476.902 3.55469 476.861 3.42448 476.861 3.24219V1.78906H472.681V4.6875H474.634V3.97656C474.634 3.79427 474.676 3.66406 474.759 3.58594C474.848 3.50781 475.001 3.46875 475.22 3.46875C475.439 3.46875 475.59 3.50781 475.673 3.58594C475.762 3.66406 475.806 3.79427 475.806 3.97656V6.46094C475.806 6.64323 475.762 6.77344 475.673 6.85156C475.59 6.92969 475.439 6.96875 475.22 6.96875C475.001 6.96875 474.848 6.92969 474.759 6.85156C474.676 6.77344 474.634 6.64323 474.634 6.46094V5.75H472.681V8.9375H477.017V7.14844C477.017 6.96615 477.059 6.83594 477.142 6.75781C477.23 6.67969 477.384 6.64062 477.603 6.64062C477.822 6.64062 477.973 6.67969 478.056 6.75781C478.144 6.83594 478.189 6.96615 478.189 7.14844V9.46875C478.189 9.66667 478.15 9.80469 478.072 9.88281C477.999 9.96094 477.874 10 477.697 10H470.712C470.535 10 470.408 9.96094 470.329 9.88281C470.256 9.80469 470.22 9.66667 470.22 9.46875C470.22 9.27083 470.256 9.13281 470.329 9.05469C470.408 8.97656 470.535 8.9375 470.712 8.9375H471.509V1.78906ZM480.783 1.78906H479.986C479.809 1.78906 479.681 1.75 479.603 1.67188C479.53 1.59375 479.494 1.45573 479.494 1.25781C479.494 1.0599 479.53 0.921875 479.603 0.84375C479.681 0.765625 479.809 0.726562 479.986 0.726562H486.814C486.991 0.726562 487.116 0.765625 487.189 0.84375C487.267 0.921875 487.306 1.0599 487.306 1.25781V3.24219C487.306 3.42448 487.262 3.55469 487.173 3.63281C487.09 3.71094 486.939 3.75 486.72 3.75C486.502 3.75 486.348 3.71094 486.259 3.63281C486.176 3.55469 486.134 3.42448 486.134 3.24219V1.78906H481.955V4.6875H483.908V3.97656C483.908 3.79427 483.949 3.66406 484.033 3.58594C484.121 3.50781 484.275 3.46875 484.494 3.46875C484.713 3.46875 484.864 3.50781 484.947 3.58594C485.035 3.66406 485.08 3.79427 485.08 3.97656V6.46094C485.08 6.64323 485.035 6.77344 484.947 6.85156C484.864 6.92969 484.713 6.96875 484.494 6.96875C484.275 6.96875 484.121 6.92969 484.033 6.85156C483.949 6.77344 483.908 6.64323 483.908 6.46094V5.75H481.955V8.9375H486.291V7.14844C486.291 6.96615 486.332 6.83594 486.416 6.75781C486.504 6.67969 486.658 6.64062 486.877 6.64062C487.095 6.64062 487.246 6.67969 487.33 6.75781C487.418 6.83594 487.463 6.96615 487.463 7.14844V9.46875C487.463 9.66667 487.423 9.80469 487.345 9.88281C487.272 9.96094 487.147 10 486.97 10H479.986C479.809 10 479.681 9.96094 479.603 9.88281C479.53 9.80469 479.494 9.66667 479.494 9.46875C479.494 9.27083 479.53 9.13281 479.603 9.05469C479.681 8.97656 479.809 8.9375 479.986 8.9375H480.783V1.78906ZM493.447 0.554688C493.682 0.554688 493.788 0.684896 493.768 0.945312L493.385 6C493.369 6.25 493.221 6.375 492.939 6.375C492.804 6.375 492.697 6.34375 492.619 6.28125C492.541 6.21354 492.497 6.11979 492.486 6L492.111 0.945312C492.09 0.684896 492.197 0.554688 492.432 0.554688H493.447ZM491.736 8.96875C491.736 8.80208 491.768 8.64583 491.83 8.5C491.893 8.35417 491.978 8.22656 492.088 8.11719C492.197 8.00781 492.325 7.92188 492.471 7.85938C492.616 7.79688 492.773 7.76562 492.939 7.76562C493.106 7.76562 493.262 7.79688 493.408 7.85938C493.554 7.92188 493.682 8.00781 493.791 8.11719C493.9 8.22656 493.986 8.35417 494.049 8.5C494.111 8.64583 494.143 8.80208 494.143 8.96875C494.143 9.13542 494.111 9.29167 494.049 9.4375C493.986 9.58333 493.9 9.71094 493.791 9.82031C493.682 9.92969 493.554 10.0156 493.408 10.0781C493.262 10.1406 493.106 10.1719 492.939 10.1719C492.773 10.1719 492.616 10.1406 492.471 10.0781C492.325 10.0156 492.197 9.92969 492.088 9.82031C491.978 9.71094 491.893 9.58333 491.83 9.4375C491.768 9.29167 491.736 9.13542 491.736 8.96875Z" fill="black"/>
<rect x="209.621" y="148" width="169.534" height="169.534" transform="rotate(-45 209.621 148)" stroke="#333333" stroke-width="3"/>
<mask id="mask0_282_787" style="mask-type:alpha" maskUnits="userSpaceOnUse" x="207" y="85" width="82" height="125">
<path fill-rule="evenodd" clip-rule="evenodd" d="M269.426 85.9999L207.5 147.926L269.426 209.852C281.462 192.213 288.5 170.891 288.5 147.926C288.5 124.96 281.462 103.639 269.426 85.9999Z" fill="white"/>
</mask>
<g mask="url(#mask0_282_787)">
<path d="M190.5 145L201.5 151.5L212.5 145L223.5 151.5L234.5 145L245.5 151.501L256.5 145L267.5 151.5L278.5 145L289.5 151.5L300.5 145L311.5 151.501L322.5 145.001" stroke="#333333" stroke-width="3"/>
<path d="M190.5 156L201.5 162.5L212.5 156L223.5 162.5L234.5 156L245.5 162.501L256.5 156L267.5 162.5L278.5 156L289.5 162.5L300.5 156L311.5 162.501L322.5 156.001" stroke="#333333" stroke-width="3"/>
<path d="M190.5 167L201.5 173.5L212.5 167L223.5 173.5L234.5 167L245.5 173.501L256.5 167L267.5 173.5L278.5 167L289.5 173.5L300.5 167L311.5 173.501L322.5 167.001" stroke="#333333" stroke-width="3"/>
<path d="M190.5 178L201.5 184.5L212.5 178L223.5 184.5L234.5 178L245.5 184.501L256.5 178L267.5 184.5L278.5 178L289.5 184.5L300.5 178L311.5 184.501L322.5 178.001" stroke="#333333" stroke-width="3"/>
<path d="M190.5 189L201.5 195.5L212.5 189L223.5 195.5L234.5 189L245.5 195.501L256.5 189L267.5 195.5L278.5 189L289.5 195.5L300.5 189L311.5 195.501L322.5 189.001" stroke="#333333" stroke-width="3"/>
<path d="M190.5 200L201.5 206.5L212.5 200L223.5 206.5L234.5 200L245.5 206.501L256.5 200L267.5 206.5L278.5 200L289.5 206.5L300.5 200L311.5 206.501L322.5 200.001" stroke="#333333" stroke-width="3"/>
<path d="M190.5 134L201.5 140.5L212.5 134L223.5 140.5L234.5 134L245.5 140.501L256.5 134L267.5 140.5L278.5 134L289.5 140.5L300.5 134L311.5 140.501L322.5 134.001" stroke="#333333" stroke-width="3"/>
<path d="M190.5 123L201.5 129.5L212.5 123L223.5 129.5L234.5 123L245.5 129.501L256.5 123L267.5 129.5L278.5 123L289.5 129.5L300.5 123L311.5 129.501L322.5 123.001" stroke="#333333" stroke-width="3"/>
<path d="M190.5 112L201.5 118.5L212.5 112L223.5 118.5L234.5 112L245.5 118.501L256.5 112L267.5 118.5L278.5 112L289.5 118.5L300.5 112L311.5 118.501L322.5 112.001" stroke="#333333" stroke-width="3"/>
<path d="M190.5 101L201.5 107.5L212.5 101L223.5 107.5L234.5 101L245.5 107.501L256.5 101L267.5 107.5L278.5 101L289.5 107.5L300.5 101L311.5 107.501L322.5 101.001" stroke="#333333" stroke-width="3"/>
<path d="M190.5 90.0004L201.5 96.5004L212.5 90.0003L223.5 96.5001L234.5 90L245.5 96.5006L256.5 90.0005L267.5 96.5005L278.5 90.0004L289.5 96.5002L300.5 90.0001L311.5 96.5007L322.5 90.0006" stroke="#333333" stroke-width="3"/>
</g>
<path d="M169.5 148.5L70 49H36.5" stroke="black"/>
<path d="M365 145.5V335H335.5" stroke="black"/>
<path d="M257 145L397 5H425" stroke="black"/>
</svg>
