<?xml version="1.0" encoding="UTF-8"?>
<svg xmlns="http://www.w3.org/2000/svg" viewBox="0 0 1000 1000">
  <g id="Layer_2" data-name="Layer 2">
    <path d="M419.65,612h0c-.48,1.18-5,11.95-47.25,107.81-47.56,107.96-103.7,131.41-139.4,111.59s-50.5-90.16,9.94-170.4c55.89-74.24,149.57-190.16,163.36-207.2-6.1628,10.1631-10.5996,21.2769-13.13,32.89-2.25,10.78-2.25,20.78,0,29l26.48,96.31Z"/>
  </g>
  <g id="Layer_3" data-name="Layer 3">
    <path d="M640.7861,482.7641c-.106-.6586-.2263-1.2769-.3531-1.8758-.1258-.5929-.2571-1.1656-.3902-1.7247-.1313-.5559-.2644-1.099-.3947-1.6332l-.3847-1.5665v-.0011c-.1603-.6559-.306-1.3476-.4346-2.0546-.125-.6907-.2318-1.3847-.3205-2.0791-.0897-.6958-.163-1.3924-.22-2.0873-.057-.6962-.0987-1.3901-.1277-2.08-.0272-.6903-.0407-1.3761-.0407-2.0565,0-.5242.0081-1.0443.0245-1.5581.0163-.5152.0407-1.0244.0733-1.5264.0344-.502.0752-.9972.1258-1.4865.0401-.3901.0897-.7728.1417-1.152.3063-1.7499.7143-3.5365,1.2433-5.3473l.0606-.2103.0055-.0188s0-.0006.0002-.0008l.2217-.7682c.0987-.3426.1955-.6931.2906-1.0533.0969-.3649.1919-.741.2825-1.1362.0914-.3997.1793-.8189.2544-1.2711.0923-.5436.1503-1.0275.182-1.5223h0c0-.0013.0008-.0024.0009-.0036.0091-.1616.0163-.3219.019-.4811.0027-.1603.0019-.3191-.0019-.4767-.0046-.1603-.0118-.3187-.0235-.4726-.0108-.1566-.0245-.3128-.0416-.4671-.0172-.1537-.0373-.306-.0606-.457v-.0012s0-.0008,0-.0012c-.1014-.6554-.2607-1.31-.4726-1.9437s-.4789-1.2562-.7948-1.85c-.3304-.6215-.7161-1.2172-1.1461-1.7712-.4871-.6233-1.0067-1.1715-1.5916-1.6753-.6708-.5776-1.4014-1.0706-2.1728-1.4648-.0002,0-.0004,0-.0005-.0002-.0002,0-.0002-.0002-.0004-.0003-.5686-.2906-1.0936-.684-1.6051-1.2032-.4744-.4798-.927-1.0579-1.3843-1.7663-.9143-1.4137-1.6839-3.1062-2.3158-4.5755-.42-.9764-.8292-1.9741-1.2403-2.979-.2924-.7121-.5857-1.4277-.8854-2.142-.8211-1.9591-1.5816-3.6484-2.3239-5.1644-.7967-1.625-1.6858-3.2781-2.6417-4.9132-.0047-.0081-.0128-.0121-.0178-.0199-.0045-.0086-.0045-.0186-.0094-.0272-.8365-1.4259-1.7409-2.8333-2.6888-4.1821-.8482-1.2072-1.7228-2.3643-2.4941-3.385l-.2327-.3078c-.9406-1.2453-1.6341-2.1845-2.1809-3.0179-.5025-.765-.9054-1.5024-1.0764-1.9714-.0324-.0883-.0538-.1565-.0692-.2118.0236-.1286.0413-.2552.0662-.384,0-.0003.0003-.0006.0004-.0008.0008-.0043.0012-.0098.0021-.0143.0932-.4829.1419-.9493.1491-1.4248.0099-.5645-.0426-1.1266-.1548-1.6721-.1294-.6301-.3422-1.2421-.6319-1.8197-.3123-.6206-.7134-1.1964-1.1905-1.7101-.4654-.5029-1.0103-.9524-1.6178-1.3358-.0002,0-.0004,0-.0007-.0002,0,0-.0002-.0002-.0003-.0002-.4273-.2688-.8927-.5088-1.3824-.7125-.4454-.1861-.9252-.3481-1.4268-.4821-.4508-.1204-.9297-.2214-1.4223-.3005-.4671-.0747-.9316-.1286-1.3887-.1661-.4527-.0371-.899-.0598-1.3372-.0706h-.0009c-.6527-.0154-1.3009-.0448-1.9347-.0883-.6328-.0426-1.2511-.0986-1.8433-.1671-.5912-.0679-1.1561-.1485-1.683-.2376-.5224-.0887-1.0076-.187-1.4377-.2883-.125-.0299-.2271-.0602-.3426-.0904-.0742-.3965-.1772-.7877-.3291-1.1571-.315-.7677-.7831-1.4557-1.3915-2.0442-.6193-.6006-1.2077-.9384-1.597-1.1407-.4346-.2255-.8727-.4034-1.3761-.5599-.4001-.1245-.8166-.2263-1.2728-.3114-.421-.0783-.8456-.1363-1.2829-.1793-.4318-.0435-.8763-.0711-1.3353-.086-.4527-.0149-.9198-.0172-1.3987-.0072-.4753.0099-.9605.0317-1.4485.0634-.4861.0326-.9751.0743-1.4603.125,0,0-.0003,0-.0004,0-.0012,0-.0024.0002-.0037.0004h-.0007c-.8419.0876-1.6856.164-2.5157.2285-1.3426.1046-2.7078.1834-4.0585.2349-1.4358.0548-2.8364.0783-4.1355.0706-1.0629-.0063-2.0171-.033-2.8364-.0792-.6998-.0389-1.1896-.0873-1.473-.1258-.1087-.0149-.1856-.0299-.2145-.0353-.0042-.0008-.0082.0004-.0122-.0004-.6685-.1742-1.0872-.1907-1.4561-.2011-.3693-.0118-.678.0022-.9886.0245-.3024.0217-.603.0539-.9234.095-.3123.0407-.641.0906-.9949.1507-.35.0591-.7244.128-1.1282.2088-.0011.0002-.0022,0-.0034.0004-.3123.062-.6428.1308-.9922.206-.3476.0752-.7134.1566-1.0946.2445-.3803.0873-.7768.1806-1.1841.2789-.4056.0978-.8211.1996-1.2358.3029l-1.2354.3108c-.0007.0002-.0015,0-.0022,0l-2.9767.765-102.3792,26.7188c-25.3305,6.6103-51.5722,38.9873-58.4974,72.1733-2.2578,10.8195-2.2542,20.8921.0104,29.1287l27.5444,100.1825c.3155,1.1461.6537,2.2959,1.0158,3.4565.3616,1.1588.7478,2.3285,1.1602,3.5163.4111,1.1869.8479,2.3928,1.3105,3.6249.4617,1.2303.9487,2.4878,1.4603,3.7806.5097,1.2901,1.0443,2.6164,1.5929,3.9717.1557.3847.3123.7659.4703,1.1453.158.3803.3173.7568.4785,1.1326.1611.3739.3241.746.4888,1.1153.1652.3676.3318.7324.5025,1.0927.1716.3621.3458.7188.5306,1.0756,0,0,.0002.0002.0003.0003,0,.0002,0,.0005.0002.0007.0004.0007.0007.0011.0011.0017.0002.0004,0,.0007.0003.001l.1498.2834c.0009.0019.0756.1385.0765.1404l.1594.2825s.0007.0006.001.001c.1263.2201.2567.4342.4009.6544.168.2544.3486.5124.5912.8049.1924.2308.4191.4871.7736.7939.2381.2064.5464.4536,1.0285.717.4291.2345.8483.3993,1.3195.5178.3247.0814.656.1228.9889.1445.3361.4059.689.8367,1.0598,1.2931l.4599.5649c1.0076,1.2394,2.1039,2.5883,3.2505,3.9517,1.4888,1.7699,2.8576,3.3235,4.1844,4.7511,1.5842,1.7033,3.0767,3.1922,4.5632,4.5533.0004.0004.0006.0009.0009.0014.3137.287.6274.5667.9424.8383.3146.2716.6301.5359.9465.7931.3169.2571.6333.5079.9511.7505.3178.2435.6364.4789.956.7088.3187.2287.6382.4511.9582.6672.0007.0005.0011.0014.0019.0019.0019.0013.0042.0021.006.0034.4167.2821.8426.5665,1.2777.8503.4395.287.8895.5749,1.3516.86.4635.2851.9379.5686,1.4277.8446.4938.277,1.0022.5477,1.5336.8057.5975.2902,1.1548.5297,1.7049.7323.0007.0002.001.0008.0017.001.2955.1096.6025.2128.9252.3069.5921.1738,1.1262.287,1.6812.3567.2765.0344.6436.0715,1.0836.0715.2996,0,.6333-.0172.9949-.0634.6758-.087,1.2987-.2571,1.9043-.5205.631-.2743,1.21-.6419,1.721-1.0927.5545-.4898,1.0366-1.0936,1.3937-1.7455.1803-.3297.3261-.6837.45-1.0481.6867.021,1.5632.1591,2.4561.3954,1.1484.3051,2.4167.7813,3.6679,1.3779,1.3883.6623,2.7818,1.4784,4.1416,2.4237.0007.0005.0009.0012.0016.0017.4703.3277.9434.6328,1.4069.9071.5205.3078,1.0189.5731,1.525.8121.5772.2716,1.1303.4924,1.693.6772.6659.2173,1.3009.3676,1.9397.459.4744.0688.9334.1032,1.3856.1032.2721,0,.542-.0162.8116-.0409.0002,0,.0003,0,.0005,0,.0193,0,.0386-.0012.0578-.003.004-.0004.008-.0002.012-.0007.0002,0,.0004-.0002.0005-.0002.7312-.0724,1.4374-.2362,2.098-.4878.7202-.2725,1.4191-.6654,2.0207-1.1362.5921-.4626,1.1357-1.0366,1.573-1.6586.3952-.564.7229-1.1869.9737-1.8514.2138-.5659.3733-1.1702.4762-1.7968.0008-.0048.0024-.0091.0032-.0139,0-.0003,0-.0005,0-.0008h0c.0431-.265.0681-.5228.1071-.7871.0051-.0173.0172-.0306.0209-.0486.0476-.2236.1087-.4191.1806-.5803.1222-.2716.1991-.3368.3155-.4219.158-.1149.3766-.2028.6686-.2671.2861-.0634.7713-.125,1.4671-.067.6967.0598,1.4815.2336,2.2696.5034.9157.3142,1.8849.7759,2.8015,1.3353.0014.0008.0031.0011.0045.002.4918.3002.9713.5593,1.4653.7893.5631.2644,1.109.4762,1.6699.6482.636.1947,1.2765.3323,1.9039.4083.388.0462.7754.0688,1.1584.0688.3255,0,.6482-.0163.9655-.0498.7537-.0787,1.4911-.2533,2.1909-.5192.0007-.0003.0015,0,.0022-.0004.5962-.2272,1.1674-.5215,1.6988-.8764.4988-.3332.9669-.7215,1.3915-1.1552.3839-.3929.7374-.8266,1.0497-1.2882.2789-.411.5328-.8547.7537-1.3172.1104-.2303.1947-.4785.2892-.7177.0148-.0326.0342-.0613.0485-.0944.0688-.1594.1303-.3223.1865-.488.0002-.0005,0-.001.0002-.0015.4625-1.3886.8535-2.7693,1.2117-4.1447.0024-.0047.0063-.0081.0085-.0129.0389-.0824.0779-.1621.1195-.2435.3341-.6464.7378-1.2004,1.1995-1.6459.4654-.4481.9814-.7858,1.5752-1.0321.5532-.2281,1.1588-.3657,1.7998-.4101.622-.0407,1.2765.0036,1.9401.1349.7028.1402,1.4126.3771,2.1083.7045.0004.0002.0007.0007.0011.0008.0052.0024.0135.0052.0189.0076.5835.2732,1.1776.4993,1.7663.6704.6708.1938,1.3489.3241,2.0171.3856.3096.0281.6193.0426.927.0426.4164,0,.832-.0262,1.2403-.0779.7251-.0942,1.4394-.2698,2.1239-.5242.6487-.2421,1.2765-.5575,1.865-.9377.0014-.0009.0031-.0011.0045-.002.5133-.3323,1.0067-.7198,1.4658-1.1525.4047-.3811.7895-.8057,1.1444-1.2612.3159-.4037.6138-.841.8845-1.2973.2453-.4128.4744-.8519.6818-1.3055.1802-.3932.3461-.811.4993-1.2392.0077-.0216.0192-.0401.0267-.0618.0012-.0035.0003-.007.0015-.0107.6548-1.8686,1.211-3.7285,1.6776-5.5727l.128-.3085c.488-1.1416,1.0592-2.1728,1.6993-3.0654.6609-.9216,1.4014-1.7093,2.2027-2.3412.7822-.6156,1.625-1.0855,2.5041-1.3969.7342-.2599,1.4956-.4075,2.2633-.44.7161-.0325,1.4412.0416,2.1555.215.0004,0,.0007.0004.001.0005.0009.0002.002.0002.003.0004.7625.1862,1.5413.293,2.3147.3165.1096.0027.22.0046.3304.0046.6871,0,1.3743-.0652,2.046-.1947.7595-.1457,1.5091-.3766,2.2289-.6854.6618-.2825,1.3118-.6392,1.931-1.0602.5541-.3775,1.09-.8121,1.5934-1.2928.5541-.5296,1.0764-1.1253,1.5526-1.7681.4291-.5813.8256-1.2077,1.1797-1.8649.3296-.612.6274-1.2584.8845-1.9193.2462-.6328.4599-1.2919.6355-1.9582.1719-.6467.3121-1.3159.4162-1.988,0-.0004.0003-.0007.0004-.001.0591-.3789.0994-.7544.1495-1.1319.0058-.0226.0188-.0414.0224-.0649.1313-.8564.2897-1.6858.4698-2.4661.3676-1.5906.841-3.0555,1.4078-4.3537.602-1.3779,1.3172-2.5929,2.1275-3.6096.7251-.9107,1.5327-1.673,2.4009-2.2642.7749-.5278,1.6051-.9261,2.4679-1.1841.8691-.2607,1.7817-.3766,2.6997-.3576.0986.0027.1974.0036.2969.0036.6754,0,1.3516-.0579,2.0152-.1738.7732-.1349,1.5318-.3486,2.2551-.6355.7179-.2834,1.4096-.64,2.0569-1.0592.6229-.402,1.2168-.87,1.7618-1.3896.5152-.4871.9977-1.0321,1.4358-1.6178,0,0,0-.0002,0-.0002.0002-.0003.0006-.0004.0008-.0007.0002-.0002.0003-.0005.0005-.0007.0004-.0005.001-.0007.0014-.0011.0008-.0012.001-.0024.0019-.0036.4511-.6059.8565-1.2622,1.2058-1.951.3341-.659.6193-1.3543.8465-2.0659.2218-.6898.3929-1.406.5088-2.1284.1149-.7061.1784-1.4295.1901-2.1483.0117-.6983-.0261-1.4088-.1115-2.1116,0-.0007.0002-.0012.0002-.0019,0-.0008-.0006-.0024-.0007-.0032-.0006-.0045-.0007-.009-.0012-.0134v-.0002c-.105-.8621-.1701-1.6989-.1937-2.4859-.0245-.8333-.0045-1.626.0606-2.3556.0679-.7659.1847-1.4838.3467-2.1352.163-.6609.3766-1.2715.6337-1.8152.2535-.5359.5577-1.023.9035-1.448.0003-.0004.0003-.0007.0006-.0011,0,0,.0002-.0002.0004-.0003.2526-.3123.5405-.6075.8556-.8782.3123-.2693.6563-.516,1.023-.7338.3676-.2186.7614-.4101,1.1687-.569.4147-.1611.8501-.2919,1.2956-.3893.4506-.0986.9221-.166,1.4018-.2001h.0024c.0007,0,.0012-.0005.0019-.0005.6502-.0463,1.2924-.1452,1.9066-.2942.6898-.1675,1.3589-.401,1.9872-.6948.6717-.3137,1.3091-.7016,1.894-1.1533.5776-.4454,1.109-.9569,1.5798-1.52.4242-.5054.8106-1.0657,1.1479-1.6641.0009-.0015.002-.0024.0029-.004.0002-.0005.0002-.0009.0005-.0014.0021-.0037.0047-.0071.0068-.0108.0002-.0004.0002-.0009.0004-.0013.4116-.7353.7448-1.5118,1.0172-2.3738.2218-.708.3911-1.4304.5152-2.209.1068-.6667.1765-1.3376.2128-2.0501.0326-.6301.038-1.2607.0172-1.9265-.019-.6061-.0598-1.224-.1204-1.8369h0v-.0008s0-.0002,0-.0004c-.189-1.9324-.1365-4.0177.1549-6.198.268-1.9989.7324-4.1015,1.4214-6.4283.5622-1.893,1.2874-3.9807,2.2832-6.5699.4825-1.2548.985-2.52,1.4929-3.7974.3947-.9913.7912-1.9894,1.1841-2.9961.9178-2.3538,1.7867-4.7085,2.5823-6.9993.0004-.0009.0011-.0015.0015-.0024.0004-.0009,0-.0019.0004-.0029.2286-.6564.4563-1.3152.6795-1.974.8501-2.4965,1.6712-5.044,2.439-7.5712.6826-2.2511,1.3245-4.4872,1.9519-6.6745l.2182-.7591c.6347-2.2076,1.3543-4.709,2.123-6.923.6862-1.9786,1.3381-3.4945,1.9917-4.6357.4237-.7383.8718-1.3535,1.2964-1.7789.3232-.3232.6337-.5464.9497-.6831.0008-.0004.0014-.0012.0022-.0015.8964-.3882,1.7376-.9225,2.5037-1.5887.6283-.5477,1.1805-1.1579,1.6894-1.8645.4354-.6043.8075-1.2372,1.1371-1.9337.2979-.6292.5496-1.2937.7469-1.975.1937-.666.3367-1.3501.4263-2.0332,0-.0002.0002-.0004.0002-.0006v-.0004h0c.0002-.0012-.0004-.0022-.0002-.0034.0204-.1556.0384-.312.0527-.4688.0154-.1584.0272-.3183.0371-.4784.0091-.1616.0163-.3232.019-.4821.0036-.1625.0046-.3255.0019-.4852-.0019-.1639-.0081-.3282-.0163-.4929-.0471-.8809-.1548-1.6323-.2435-2.189h-.0002ZM635.2624,439.439c.2535.1795.505.3629.7426.5675.5142.4436.9732.9266,1.4023,1.4766.3811.4898.7224,1.018,1.0158,1.5694.2798.526.516,1.0764.7034,1.6382.1873.5603.3277,1.1374.4173,1.7154.0719.4733-.1147.9748-.5071,1.4383-.3768-.5159-.8205-1.0208-1.3379-1.5055-1.0357-.9718-2.2054-1.7563-3.5751-2.3977-.1748-.082-.3603-.1468-.5399-.2224.7779-1.401,1.4617-3.0455,1.6786-4.2796v-.0002ZM615.7901,407.6608l.2327.3078c.8021,1.0615,1.6323,2.1587,2.467,3.3461.9261,1.3182,1.8097,2.6929,2.6535,4.1333,0,0,.0002,0,.0002.0002.9393,1.6058,1.8107,3.2279,2.5918,4.8215.7306,1.4915,1.4802,3.1564,2.2914,5.0902.2979.7111.5903,1.4232.88,2.1316.4155,1.0126.8266,2.0175,1.2502,3.0011.6546,1.5223,1.4548,3.2809,2.4253,4.7805.5097.7895,1.0203,1.4399,1.5617,1.9881.5695.5778,1.1621,1.0255,1.8029,1.3743.0588.6271-.5003,2.4736-1.5849,4.4162-.7896-.6142-1.4909-1.4834-2.1211-2.6655-.9985-1.8745-1.6468-3.9798-2.2741-6.0159l-.2752-.8927c-.22-.7102-.4382-1.4177-.6609-2.1193-.6934-2.1859-1.3118-3.9268-1.9464-5.479-1.0466-2.5596-2.2414-4.8523-3.5539-6.8149-.0007-.0009-.0007-.0021-.0012-.0031-1.2964-1.9524-2.6987-4.184-4.1672-6.6324-.832-1.386-1.8849-3.1976-2.6554-4.9173-.4324-.9656-.7362-1.8338-.9435-2.6395.5327.7885,1.1782,1.6646,2.0271,2.7884v.0004ZM612.0541,397.6214c.0908.2565.1659.5183.2206.7847.0806.392.1163.797.1198,1.2045-.2249-.1045-.4746-.2092-.7818-.3171.2365-.5539.3776-1.1153.4413-1.6722h0ZM604.4609,392.9841c.4228.0349.851.0842,1.2829.1534.4463.0711.8782.1625,1.2838.2707.4418.1177.8619.2599,1.2502.4219.4188.1742.814.3781,1.176.6056h0c.001.0006.0019.0015.0029.0021,1.2868.8126,1.6024,2.7255.8175,4.4428-.9206-.2594-2.0703-.5483-3.2764-.8186-1.0223-.2288-1.985-.4142-2.901-.5713.0534-1.6438.0529-3.4455-.0311-4.5273.1326.0083.2617.0096.3955.0208h0ZM597.5424,392.4052c.5505.0937,1.1407.1779,1.7572.2485.6138.0711,1.2538.129,1.9084.1729.478.0327.9695.0494,1.4597.0668.075.8011.1032,2.554.0406,4.5131-.9275.0536-1.8325.0618-2.6808-.0071-.7831-.0629-1.5083-.176-2.1547-.3349-.1285-.0317-.2463-.067-.366-.1017.5734-1.6292.495-3.3081-.1457-4.5911.0618.0109.1185.0229.1813.0336h0ZM595.9539,393.0571s.0005-.0009.0006-.0014c0-.0003,0-.0006.0002-.0009.0002-.0006.0006-.0011.0007-.0019.0002-.0008-.0002-.0019,0-.0029.0213-.0924.0295-.187.0464-.2802.5599.9375.6621,2.3275.2302,3.6488-.3744-.2639-.6103-.6036-.692-1.04-.0334-.1737-.0451-.3638-.037-.5651.154-.586.316-1.1731.4511-1.7566h0ZM595.1847,397.3706c-.1834.1114-.3478.2322-.5198.3495.0691-.2199.1358-.4397.2024-.6595.0935.1066.1996.2096.3174.31h0ZM593.3073,388.453c.4708.4554.8311.9845,1.0737,1.5739.2001.4866.3178,1.0439.3332,1.568.0039.1232-.0063.2491-.0133.3743-.2778-.0293-.6172-.0475-1.0397-.0525-.1049-.0011-.2277,0-.3432.0004.3071-1.2397.2163-2.5114-.184-3.6091.0565.0503.1177.0911.1733.145h0ZM584.6552,386.6211c.4671-.0308.9307-.0516,1.386-.0606.4508-.0095.8936-.0077,1.3245.0063.4264.014.8401.0399,1.2439.0801.3965.0389.7831.0914,1.1643.1625.0014.0003.0026.0006.004.0008.2588.0488.5085.1414.7429.2771,1.4266.8233,1.9703,2.9377,1.3272,4.8618-.8917.0329-1.9407.0893-3.1269.1604l-2.9007.1765c-.4098.0245-.827.0472-1.2427.0703-.2059-2.0619-.465-4.4698-.6116-5.6763.2299-.0197.4595-.0439.6892-.059h0ZM572.3799,387.2833c.1702.0009.3413.0014.5142.0014,1.1778,0,2.4145-.0245,3.6829-.0729,1.3689-.0521,2.7531-.1327,4.1147-.2385.6231-.0485,1.2571-.1101,1.8891-.1713.1435,1.1814.4039,3.6019.6116,5.6743-.5478.0701-1.0985.143-1.6281.1874-2.3158.1955-4.4497.1258-6.0077-.1951-1.2684-.2603-2.228-.6741-2.9333-1.2656-.3177-.2655-.5813-.5762-.813-.9333-.1211-1.1536-.605-2.2029-1.3492-3.0271.5973.0208,1.2266.0363,1.9188.0407h0ZM565.5076,386.8623c.2688-.0199.5342-.0312.8881-.0204.3159.0091.6156.0172,1.1824.1734,1.5206.4194,2.6225,1.7174,2.8345,3.275-.1675.1412-.4617.3562-.9804.665-.55.3276-1.1872.6621-1.8898.9984.0622-1.9615-.7263-3.9287-2.0794-5.0868.0146-.0011.0299-.0035.0445-.0045h0ZM557.276,388.5409l.9111-.2292c.4119-.1027.8239-.2037,1.2258-.3005.402-.0964.7931-.1887,1.1706-.2752.3748-.087.7351-.1666,1.0764-.2408.3392-.0732.662-.1402.967-.2003.0006,0,.0011,0,.0017-.0002l.001-.0002c.4721-.0945.9738.0051,1.4557.2835,1.4634.8454,2.3247,3.0874,1.9968,5.0327-.2128.0906-.4207.1805-.6505.2729-.9669.3897-1.9763.7518-3.0021,1.0773-.871.2765-1.7645.5301-2.6562.7537-.3756.0944-.7496.1757-1.1239.2596-.2675-.709-.5384-1.5787-.7692-2.4844-.5171-2.0385-.6404-3.4254-.6042-3.9489h0ZM544.4743,392.1825c2.0116-.7075,4.6262-1.4938,7.7704-2.3376.5749-.1544,1.1579-.3082,1.7445-.4613.0004,0,.0007-.0004.001-.0005l1.8893-.485c.0053.8144.1742,2.0455.6536,3.9339.2285.8996.4894,1.7498.755,2.4751-.8847.2268-1.7787.4468-2.6507.6469-2.1148.4848-4.0803.8718-5.6845,1.1194-1.4675.2263-2.668.3409-3.6711.3503-.3403.0065-.6714-.0083-.9984-.0311-.6494-1.7995-2.1893-3.0921-3.9666-3.4891,1.1098-.5596,2.4928-1.1364,4.1575-1.7212h0ZM543.0138,398.0198c-.2115.462-.5321.9726-.9694,1.5279-.4119.5246-.8972,1.047-1.443,1.5535-.0966.0899-.2016.1777-.3022.2667-.3716-2.0403-1.6684-4.0907-3.338-5.0554-.0767-.0442-.1532-.0715-.2298-.1102.1006-.0596.2071-.1216.2978-.1773.419-.2581.7359-.4793.9936-.6821.0978-.0311.1955-.0621.2974-.0852,2.0055-.4653,4.0604.7705,4.6939,2.762h-.0002ZM454.0217,518.6936c6.1354,7.1385,6.0919,21.0424-.1109,35.4226-3.1252,7.244-4.7769,14.5318-4.7769,21.0755,0,6.6184,1.6902,12.0834,4.8879,15.8033,6.1354,7.1385,6.0919,21.0424-.1109,35.4226-4.5638,10.5787-5.8903,21-3.8431,28.9082-1.7451-2.4763-3.4939-5.344-5.2894-8.6861-.7016-1.3073-1.3502-2.5874-1.9243-3.7209-.5039-.9941-.9506-1.8767-1.3263-2.5666-.2627-.4816-.4667-.8126-.6468-1.0529.4418-1.2518.9156-2.5047,1.4494-3.7418.6333-1.4675,1.2186-2.9586,1.7391-4.4324,1.6183-4.5754,2.6788-9.1058,3.1528-13.4639.9316-8.5716-.7138-15.8033-4.633-20.3634-2.9781-3.4647-4.552-8.6159-4.552-14.8966,0-1.4204.0829-2.9038.2462-4.409.1557-1.4345.3965-2.9201.7143-4.4153.7133-3.3506,1.865-6.9189,3.332-10.3198,0-.0003.0004-.0006.0005-.0008.6328-1.4666,1.2181-2.9577,1.7391-4.432,1.6183-4.5751,2.6788-9.1053,3.1528-13.4644.9315-8.571-.7136-15.8021-4.6321-20.3619-.0004-.0005-.0005-.0011-.0008-.0015-.798-.9274-1.5023-1.9985-2.1014-3.1792.0048-.3349.0173-.6842.0496-1.0654.0589-.7052.1634-1.4897.3109-2.3321.1865-1.0629.4409-2.2162.7564-3.428.3924-1.5074.8872-3.1269,1.4711-4.8141.641-1.8532,1.3843-3.7829,2.2719-5.9,1.0592-2.5249,2.2655-5.1812,3.6883-8.1198.3191-.6586.6685-1.3502,1.0054-2.0283-2.0262,10.2541-.6505,19.1769,3.9802,24.5639h0ZM435.5441,528.7716c-2.2206-.5618-4.0704-1.5379-4.7186-2.1419.0745-.2301.1516-.4581.2192-.6941.1716-.5993.3146-1.1978.426-1.7785.1527-.7984.2357-1.5498.251-2.2034.4724-.604,1.3379-1.0885,2.3817-1.302,2.0729-.4235,4.3009.2677,4.9815,1.5103-.0062.951-.1553,2.0378-.4441,3.1658-.2141.8365-.4984,1.6875-.8442,2.529-.1719.4185-.3711.8262-.5706,1.232-.4839-.0357-1.0604-.1602-1.6818-.317h-.0002ZM436.0904,530.3124c-.3294-.0365-.6803-.0973-1.0502-.1891-.6487-.1608-1.2634-.3859-1.8283-.6412.6689.2546,1.3513.4758,1.9908.6375.3085.078.6021.1392.8877.1927ZM434.7053,531.473c.3404.0844.6717.1465.9915.1914-.5035.7024-.9875,1.2881-1.4437,1.8138-.7303.84-1.4672,1.6041-2.3398,2.4334-1.9158-.5064-3.5484-2.0994-3.7274-3.6425.4932-.8674.8874-1.598,1.254-2.3275.1758-.3501.329-.6699.4713-.9781,1.1225,1.1418,3.0879,2.0864,4.7941,2.5095h0ZM432.1526,538.6615c2.733,7.7657,1.5813,18.7508-3.2165,29.8736-3.0234,7.008-4.653,14.0507-4.7569,20.4275-.0852.0055-.1699.0121-.2549.0184.0201-2.935.1537-6.0008.4087-9.1375.2932-3.6071.717-7.0538,1.2586-10.2446.7903-4.2733,1.6276-8.6625,2.4506-12.9502.7785-4.0545,1.6115-8.3226,2.4847-12.0236.5593-2.3714,1.0959-4.3377,1.6259-5.9636h0ZM424.1834,590.3555c.1245,6.278,1.7887,11.4811,4.8636,15.0593,4.7203,5.4906,5.8221,15.0981,3.0832,26.0342-.1943-.753-.397-1.5176-.5845-2.2595-.6355-2.5186-1.2335-4.9721-1.8111-7.3765l-.5953-2.4869c-.5419-2.2688-1.0732-4.4922-1.6079-6.6379-.7393-2.9692-1.3792-5.3372-1.9545-7.2411v-.0006c-.559-2.0315-.9687-4.3501-1.2521-7.0878-.2521-2.4329-.3835-5.1218-.4015-7.9844.0866-.0069.1733-.0129.26-.0187h0ZM430.1017,604.5077c-2.9781-3.4647-4.552-8.6159-4.552-14.897,0-6.3559,1.6124-13.4531,4.6629-20.525,5.2119-12.0815,6.2085-24.0696,2.7219-32.2263.8776-.8372,1.6258-1.6148,2.3682-2.4693.661-.7611,1.376-1.6365,2.1337-2.8146.1875-.0878.3616-.183.5407-.2761,5.7902,7.2524,5.6481,20.8857-.4373,34.9933-3.1252,7.244-4.7769,14.5318-4.7769,21.0755,0,6.6179,1.6902,12.0834,4.8879,15.8043,6.1033,7.1002,6.0867,20.8967-.0196,35.1966-.1797.0994-.3686.1919-.5576.2847-.2557-.2307-.5134-.4602-.7572-.7006-.526-.5188-1.0538-1.0819-1.6128-1.7219-.5896-.6737-1.1926-1.414-1.8268-2.2283,3.5877-12.2792,2.5621-23.2864-2.7749-29.495h-.0002ZM438.8164,639.1453c.0003-.0007,0-.0012.0004-.0019,6.4118-14.8641,6.3679-29.3398-.1113-36.8782-2.9781-3.4647-4.552-8.6159-4.552-14.897,0-6.3559,1.6124-13.4531,4.6629-20.525,6.412-14.8637,6.3689-29.3386-.1099-36.8775-.0005-.0005-.0005-.0012-.0009-.0017-.0774-.0897-.1506-.1849-.2259-.2772.2108-.4289.422-.8594.6034-1.3012.3703-.9013.6744-1.8138.9049-2.7128.1244-.4858.2179-.9633.296-1.4332.3893.5903.8064,1.1471,1.2508,1.6641.0002.0003.0007.0004.0009.0007,3.6655,4.2651,5.1938,11.121,4.3044,19.3053-.4621,4.2523-1.4992,8.6771-3.0812,13.1511-.5111,1.4449-1.0846,2.9066-1.7048,4.3442,0,.0003,0,.0007-.0002.0009-1.5027,3.4835-2.6841,7.1426-3.4155,10.5813-.3282,1.5413-.5758,3.0735-.7369,4.5547-.1688,1.5548-.2544,3.0889-.2544,4.5592,0,6.6179,1.6902,12.0829,4.8879,15.8038,3.6661,4.2641,5.1947,11.121,4.3052,19.306-.4621,4.2523-1.4988,8.6766-3.0812,13.1507-.5102,1.444-1.0836,2.9061-1.7048,4.3455-.5757,1.3342-1.0855,2.6868-1.5564,4.0369-.0048.0068-.0124.0101-.0171.0171-.0658.1017-.0931.2129-.1029.3248-.0868.2537-.1844.508-.267.7613-.0929-.0283-.2472-.0905-.4785-.2322-.0327-.0199-.0734-.0529-.1073-.0748.0968-.2317.1916-.4636.2916-.6946v-.0003ZM447.7849,495.5522c-1.4341,2.9613-2.6508,5.6397-3.719,8.1877-.8994,2.1447-1.6531,4.1015-2.3045,5.9833-.5953,1.721-1.1009,3.3759-1.5019,4.9182-.3255,1.248-.588,2.4385-.7809,3.5385-.131.7474-.2224,1.4422-.2876,2.0942-1.3307-.9669-3.3627-1.3944-5.3661-.9848-.7571.155-1.4454.4218-2.026.7739.0039-.0458.0052-.0892.0094-.1353.0919-1.0008.2635-2.0822.5102-3.2144.3032-1.3933.7256-2.883,1.2548-4.427.6224-1.8152,1.3783-3.6784,2.3113-5.6958.9361-2.0224,2.0089-4.1106,3.2805-6.3826,1.3924-2.4878,2.9414-5.0594,4.8756-8.0927,1.1774-1.8463,2.4539-3.7957,4.0737-6.2211.7774.9044,2.0301,1.8844,3.2158,2.6447-1.2659,2.4169-2.4631,4.7781-3.545,7.0129l-.0002.0002ZM448.9245,484.6809c.6233-.9322,1.2474-1.8713,1.8734-2.8208.5549-.8415,1.1121-1.6909,1.6694-2.5405.9207.7774,2.4218,1.8263,3.7968,2.692-.664.8799-1.3308,1.7597-2.0116,2.6342-.7114.9139-1.4371,1.8211-2.1677,2.724-1.5094-.9645-2.6926-2.0254-3.1603-2.6888h0ZM453.2407,478.1535c.9253-1.4008,1.8641-2.7912,2.8135-4.1806l.4504-.6582c.8026-1.1735,1.6017-2.3527,2.3862-3.5367.2211.1117.5134.2675.9222.5034,1.5295.8833,3.4788,2.179,4.7222,3.1249-1.2164,1.3315-2.4486,2.5892-3.7096,3.8474l-.6568.6546c-1.0465,1.0421-2.0353,2.0335-2.996,3.031-1.6788-1.0444-3.1864-2.1361-3.9321-2.7858h0ZM460.5083,469.0774c-.3196-.1848-.5981-.3374-.8467-.4669.6623-1.0244,1.3648-2.1534,1.9589-3.2666.3286-.6169.578-1.1443.7623-1.6133.144-.3659.2325-.6823.2937-.9728.8254-.6772,1.998-1.0177,3.2008-.8989,1.0805.1091,2.056.5563,2.7468,1.2593.6568.6686.9728,1.4901.89,2.3135l-.1951,1.0579v.0006c-.0598.2258-.1443.4644-.2484.7087-.2105.4952-.516,1.0583-.908,1.673-.6742,1.0548-1.5488,2.1849-2.6927,3.498-1.2905-.9894-3.3567-2.3662-4.9613-3.2925h-.0002ZM466.0168,460.4755c-.9982-.102-1.9969.0478-2.8789.4043.1523-.4448.3308-.9142.5631-1.4309.4585-1.0212,1.0538-2.1406,1.769-3.3279.6898-1.1434,1.4743-2.3226,2.3321-3.5041,1.1814-1.6269,2.4919-3.2465,3.896-4.8132,1.8138-2.0248,3.7647-3.9431,5.7995-5.7017.9072-.7846,1.8343-1.5235,2.7641-2.2351.3799,1.5101,1.5066,3.3092,2.68,4.5731.0759.0819.153.146.2294.2237-.7585.7013-1.5138,1.4342-2.2497,2.2084-1.5318,1.6115-3.0002,3.3669-4.3646,5.2169-1.0624,1.4404-2.0686,2.9473-2.9908,4.479-.6623,1.0995-1.2797,2.2094-1.8351,3.2995-.5716,1.1213-1.0562,2.1773-1.441,3.1409-.1863-.3039-.4088-.5949-.6742-.8649-.918-.9343-2.1959-1.5269-3.5991-1.668ZM481.5234,438.9046c.9298-.6883,1.8255-1.3948,2.6559-2.1078.8402-.7211,1.5896-1.4307,2.2609-2.1208.2096.0467.5459.1595,1.0671.4605,1.5187.8768,3.2519,2.5905,4.0469,3.949-.9808.8921-2.0923,1.754-3.3273,2.5638-1.2295.8063-2.5513,1.5313-3.9198,2.1825-.1155-.1125-.2314-.2144-.346-.3378-1.525-1.6425-2.4452-3.6256-2.4377-4.5893h0ZM488.2026,433.9323c-.2626-.1516-.5052-.2671-.7395-.3668.0222-.026.049-.0531.0709-.0791.421-.4988.7785-.9773,1.0629-1.4209.3139-.4894.5366-.9407.6731-1.35.5192-.3029,1.1139-.4939,1.7427-.5413,2.1573-.1717,4.1116,1.2725,4.4214,3.2104-.1089.6267-.3901,1.3471-.8286,2.0985-.378.6482-.866,1.3168-1.4504,1.9872-.183.2098-.3759.4204-.5772.6302-.9752-1.5171-2.7304-3.2185-4.3754-4.1682h0ZM490.9077,428.7873c-.3364.0255-.6634.0909-.9841.174.4211-.8188,1.0504-1.7425,1.835-2.6841,1.1122-1.3326,2.5783-2.7617,4.2405-4.1333,2.0546-1.6952,4.4605-3.3502,6.9579-4.7851.3759-.216.7593-.4109,1.1402-.6175.074,1.4745.7875,3.3307,1.6921,4.758.2624.4141.5425.792.828,1.1312-.3166.1924-.6298.3755-.9503.5816-1.7952,1.153-3.5411,2.4575-5.0481,3.7716-1.1973,1.0434-2.2868,2.1303-3.1519,3.1428-.4527.5304-.8498,1.0484-1.1721,1.5258-.9852-1.8297-3.1068-3.0356-5.3874-2.8652h0ZM505.5393,415.9624c.7738-.4013,1.5329-.8263,2.2539-1.2727.7816-.4836,1.522-.9949,2.1747-1.4903.3163-.0083.7418.1237,1.2054.3908,1.5219.8785,3.0087,2.8597,3.4299,4.4914-.9618.8228-2.091,1.6133-3.3063,2.2963-1.0765.6055-2.2312,1.1289-3.4233,1.5829-.3094-.3375-.6192-.7472-.91-1.2054-1.2864-2.0303-1.6696-4.0514-1.4242-4.7929h0ZM511.8687,412.386c-.1934-.1117-.3836-.2046-.5712-.2847.2127-.1951.4144-.3873.5902-.5717.3527-.3693.6373-.722.846-1.0484.0178-.0279.0298-.0527.0464-.0799.2213-.0947.4499-.1748.6882-.227,2.052-.4495,4.1621.7715,4.8066,2.7271-.024.0972-.0448.1923-.0767.2944-.1829.5835-.478,1.2004-.8768,1.8332-.3563.5645-.7899,1.1299-1.2892,1.6803-.0962.1061-.2126.2064-.3139.3116-.6928-1.8073-2.2078-3.6871-3.8497-4.6349ZM513.9468,408.7117c.4585-.525,1.0192-1.0711,1.673-1.624,2.032-1.7188,5.2165-3.6679,8.7373-5.3482,1.4052-.6704,2.9202-1.3282,4.4429-1.934-.0454,1.3096.4011,3.0358,1.0279,4.5061.3065.7193.6593,1.3718,1.0246,1.9262-1.1185.4584-2.2445.9347-3.3015,1.4072-3.0528,1.367-5.3849,2.6078-6.5021,3.2252-.6291.3475-1.1934.6701-1.6982.9689-.9669-2.014-3.1521-3.2825-5.4041-3.1273h.0002ZM530.284,399.2283c.6261-.239,1.2772-.5003,1.9221-.777.9156-.3921,1.8642-.8339,2.6893-1.2508.3908-.0761.8738.0304,1.3702.3165,1.505.8693,2.702,3.0384,2.749,4.8747-1.1596.8402-2.5601,1.6452-4.0011,2.2832-.9034.3999-1.8561.7473-2.8278,1.0534-.3773-.5216-.7523-1.1965-1.0787-1.9624-.9784-2.2941-1.0505-4.1153-.8231-4.5377h0ZM417.229,595.9868c.0768,1.7534.18,3.3666.3065,4.897l-23.4235-85.1932c-2.2067-8.0247-2.2031-17.8715.0104-28.476,6.8279-32.7211,32.6165-64.6214,57.4867-71.1122l86.5746-22.5942c-.344.2221-.6517.4436-.9202.6676-.0006.0005-.0013.0006-.0019.001-.2173.1811-.5405.4047-.9614.6636-.296.182-.6455.3852-1.0619.6124-.2635.143-.5522.296-.87.4572-.0002,0-.0002.0002-.0004.0003l-.0005.0002c-.8211.4178-1.7835.8664-2.7088,1.2625-.6932.2973-1.3971.5801-2.0631.8315-.0011.0004-.0021.0008-.0032.0012-.0002,0-.0004.0002-.0005.0002-1.9808.746-3.9988,1.6033-5.8339,2.4787-3.6231,1.7291-6.9171,3.7489-9.036,5.5411-1.448,1.2254-2.472,2.4046-3.0428,3.5054,0,.0002,0,.0004-.0002.0005,0,.0002-.0002.0002-.0003.0004-.0326.0638-.0715.1299-.1163.2001-.1607.2508-.3893.5323-.6804.8374-.2467.258-.5395.5337-.8705.8184-.2168.1861-.4544.3803-.7107.578-.0005.0004-.0007.0009-.0011.0012-.6538.506-1.4275,1.0383-2.2378,1.5401-.7636.4721-1.5689.9244-2.3932,1.3439-.0004.0002-.0006.0007-.0009.0008-.8025.4082-1.6109.8459-2.4031,1.301-2.5639,1.4735-5.0363,3.174-7.1507,4.9182-1.7269,1.4254-3.2565,2.9179-4.423,4.3152-.8953,1.0746-1.5902,2.1008-2.0642,3.0505-.2908.5826-.4993,1.1398-.6202,1.6563,0,.0004-.0004.0006-.0004.0009-.0529.2268-.1964.6229-.5799,1.2213-.2517.3929-.5731.8216-.9551,1.2742-.2416.2862-.505.5792-.7837.8739l-.0004.0004c-.0007.0007-.0013.0014-.0019.0021-.0004.0004-.0007.0005-.0011.0008-.6939.7324-1.5051,1.4978-2.41,2.2751-.8831.7578-1.8369,1.5115-2.835,2.2407-1.2946.9451-2.5906,1.9772-3.8508,3.0672-2.0791,1.7971-4.0731,3.7571-5.9258,5.8258-1.4354,1.6019-2.7766,3.2587-3.9857,4.9245-.8809,1.2131-1.6875,2.4254-2.3977,3.6027-.7437,1.2348-1.3653,2.4046-1.8464,3.4755-.3563.7926-.6306,1.5218-.8157,2.1687-.1284.4501-.2149.8638-.2561,1.2299,0,.0002-.0002.0003-.0002.0005-.0185.163-.0806.4585-.2721.9443-.1643.4187-.392.899-.6948,1.4675-.7003,1.3118-1.5712,2.672-2.3308,3.8295-.8831,1.3458-1.7962,2.6797-2.7064,4.0106l-.4504.6586c-1.0634,1.5558-2.1191,3.1097-3.15,4.6818-.0004.0006-.001.0008-.0014.0014-.7075,1.0796-1.4137,2.156-2.1176,3.2234s-1.406,2.1266-2.1067,3.1709c-.0002.0004-.0003.0008-.0005.0012-1.905,2.8428-3.3429,5.0326-4.6619,7.1011-1.9488,3.0569-3.5113,5.6501-4.9163,8.1615-1.2892,2.3036-2.3783,4.422-3.3293,6.4776-.9533,2.0614-1.7269,3.9681-2.3647,5.8289-.5468,1.5947-.9831,3.1365-1.2982,4.5819-.2585,1.1877-.439,2.3258-.5364,3.3832-.0606.6614-.0892,1.2992-.0856,1.8957.0041.6201-.0765,1.3807-.2332,2.1999-.1032.5395-.2368,1.0973-.397,1.6563-.0983.3436-.2046.6821-.3183,1.009-.0002.0005,0,.001-.0002.0015s-.0005.0007-.0007.0012c-.0426.1236-.086.2453-.1308.3657s-.0896.2381-.1363.354c0,.0003,0,.0007-.0002.0009,0,.0002-.0002.0003-.0003.0005-.2526.636-.5373,1.2629-.9239,2.0325-.3847.7664-.7972,1.5286-1.3376,2.4724-1.382,2.4145-2.6857,5.4745-3.8753,9.0945-1.2648,3.8467-2.3806,8.2443-3.3175,13.0706-.9578,4.934-1.5802,9.4991-1.903,13.9569-.2308,3.1886-.4097,6.5799-.5314,10.0807-.1145,3.275-.1724,6.4889-.1724,9.553,0,3.0161.057,5.8552.1693,8.4408h0ZM428.1441,634.0692c-.5476-1.3514-1.0803-2.6738-1.589-3.9599-.5079-1.2855-.9922-2.5359-1.4512-3.7589-.4581-1.2213-.8913-2.4145-1.2987-3.5914-.407-1.1742-.7885-2.3294-1.1466-3.4755-.3576-1.1444-.6912-2.2796-1.0022-3.4113l-.0013-.0047v-.0007c-.4178-1.5182-.7994-3.0555-1.1343-4.5674-.631-2.8482-1.1054-5.651-1.3725-8.1062-.239-2.2008-.4124-4.5782-.5296-7.2671-.1118-2.5648-.1684-5.3844-.1684-8.3802,0-3.0478.0579-6.2454.1716-9.5045.1214-3.4837.2993-6.8579.5287-10.0287.3187-4.4016.9343-8.9133,1.8813-13.7921.9257-4.7697,2.027-9.1102,3.2732-12.9013.9149-2.7839,1.9302-5.2878,2.9731-7.3586.732,1.4227,2.1891,2.6285,3.9216,3.1859-.6644,1.8552-1.3301,4.2064-2.0263,7.1589-.8795,3.7277-1.7156,8.0121-2.4965,12.0806-.8243,4.2939-1.663,8.6889-2.4539,12.9683-.0004.0018.0004.0033,0,.0051-.0004.0019-.0016.0031-.0019.0048-.5491,3.2307-.9778,6.7184-1.2742,10.3664-.2798,3.4394-.4214,6.8031-.4214,9.9975,0,3.1569.1399,6.1091.416,8.7735.2916,2.8155.7152,5.2074,1.2946,7.3141.0009.0034.0033.0058.0043.0093.0007.0024,0,.0046.0007.007.5699,1.8849,1.205,4.2378,1.9414,7.1928.5332,2.1411,1.0633,4.36,1.6043,6.6242l.5957,2.4878c.5789,2.41,1.1778,4.8689,1.8152,7.3929.3463,1.3719.7097,2.7719,1.0803,4.1779-1.8279.5909-2.9713.4926-3.1339.3614h0ZM430.5602,639.5129c-.1773-.3419-.3441-.6838-.5083-1.0312-.1661-.3513-.3291-.7071-.4902-1.0656-.1616-.3621-.3219-.7288-.4803-1.0963-.1093-.2548-.2173-.5128-.3256-.7705.0407.001.0758.0091.1174.0091.9118,0,1.991-.2458,2.999-.5852.6157.7879,1.2066,1.513,1.7843,2.1732.5821.6664,1.1326,1.2538,1.6834,1.7962.1772.1755.3679.3395.5516.5104-.2128.1473-.4373.2824-.672.4039-1.9116.9949-4.0463.8374-4.6593-.344h0ZM435.3181,643.1251c-.387.0172-.7736-.0272-1.1511-.1222-.272-.0684-.4901-.1515-.6696-.2314.99-.0153,2.0391-.2893,3.018-.8523.4532-.2613.8521-.5849,1.2231-.9354.054.0352.1178.0867.1693.1179.2047.1253.3953.218.5784.2917-.208.2939-.439.5688-.7178.8001-.3544.2924-.7862.5387-1.2154.6926-.3911.1412-.8189.2236-1.2348.239ZM449.2765,658.5879s-.0007-.0005-.0009-.0008c-.0004-.0004-.0008-.0005-.0012-.0008-1.4586-1.3362-2.9255-2.8006-4.4841-4.476-1.3114-1.4105-2.6648-2.9468-4.1387-4.6987-1.1416-1.3571-2.233-2.7006-3.2356-3.9337l-.4599-.5659c-.1589-.1957-.3121-.3831-.4657-.5711.1798-.0446.3619-.0842.5336-.1458.5844-.2109,1.148-.5314,1.631-.9297.5649-.4681,1.0249-1.0366,1.367-1.6894.1037-.1981.1778-.4046.2561-.6101.01.0183.0183.0325.0286.0515.3703.6799.8107,1.5499,1.3069,2.5294.5789,1.1425,1.2326,2.4335,1.9401,3.7498,2.5454,4.7388,5.0068,8.5569,7.5009,11.6527-.7186.1309-1.3622.0166-1.7779-.3616h-.0002ZM455.1873,626.9678c6.4124-14.8645,6.3685-29.3406-.1109-36.8792-2.9781-3.4647-4.552-8.6159-4.552-14.897,0-6.3559,1.6124-13.4531,4.6629-20.525,6.4124-14.8645,6.3685-29.3406-.1109-36.8792-5.1902-6.0384-6.0102-16.938-2.2049-29.1732.8388-1.0297,1.6652-2.0691,2.4783-3.1138.8322-1.0692,1.6515-2.1433,2.4582-3.2196,1.0606-1.1144,2.1688-2.2185,3.3418-3.3869l.6582-.6559c.6733-.6716,1.3669-1.3684,2.0617-2.0847-.4179,1.1445-.8668,2.2872-1.3551,3.4191-6.4129,14.8645-6.3694,29.3401.1109,36.8788,6.1354,7.1389,6.0919,21.0428-.1109,35.4226-3.1252,7.244-4.7769,14.5318-4.7769,21.0755,0,6.6177,1.6899,12.0821,4.8869,15.802.0005.0005.0005.0012.0009.0017,6.1354,7.138,6.0919,21.042-.1109,35.4221-6.4129,14.8645-6.3689,29.3406.1109,36.8792.6592.7669,1.2552,1.6292,1.7806,2.5715-.8809-.055-1.834-.202-2.8978-.4494-1.2486-.2908-2.5351-.6944-3.9283-1.2298-.8095-.4542-1.6176-.939-2.4017-1.4445-.8021-.5179-1.6001-1.0733-2.3768-1.6484-3.751-7.8103-2.8666-19.7099,2.3859-31.8857h0ZM453.8696,662.2183c-.0007-.0005-.0015-.0004-.0021-.0008-.3088-.2086-.617-.4235-.9245-.6447-.3078-.2209-.6157-.4491-.9225-.6835-.2386-.183-.4768-.3731-.7149-.5638.2751-.0515.5545-.1281.8375-.2323.7477.548,1.5112,1.0795,2.2814,1.5765.4326.2791.8724.5514,1.3154.8169-.6951.1615-1.3586.0775-1.8703-.2683h0ZM460.8809,666.1664c-.0007-.0003-.0016-.0005-.0023-.0008-.0005-.0002-.001,0-.0015-.0002-.5072-.1884-1.0249-.41-1.5815-.6805-.5056-.2453-.9895-.5034-1.4589-.7677-.4734-.2652-.9325-.5395-1.3797-.8148-.064-.0396-.1242-.0799-.1878-.1197.3586-.1011.7151-.2532,1.0664-.4442,1.3555.511,2.6234.9052,3.8575,1.1923,1.1158.2596,2.1318.4189,3.0744.482-.9398,1.0773-2.2558,1.5678-3.3866,1.1538h0ZM467.7853,665.4857c-.3957.3486-.8646.6464-1.3557.86-.483.2101-.9823.3458-1.5264.4155-.1977.0261-.3819.0399-.5572.0472.6337-.45,1.1918-1.0612,1.6269-1.8.4175-.0302.8137-.0761,1.1818-.1547.6315-.134,1.1654-.3422,1.6436-.6172-.272.4637-.6141.8963-1.013,1.2491h0ZM469.3049,661.5077c-.0733.2834-.1892.5414-.3431.7677-.1947.2842-.4463.5188-.7686.7161-.3685.2263-.803.3902-1.3286.5025-.2783.0594-.5808.0959-.898.1219-.6503-1.2837-1.4138-2.4533-2.2865-3.4688-6.1359-7.1375-6.0924-21.0415.1109-35.4217,6.412-14.8637,6.3685-29.3391-.1099-36.8775-.0005-.0005-.0005-.0012-.0009-.0017-2.9781-3.4647-4.552-8.6159-4.552-14.897,0-6.3559,1.6124-13.4531,4.6629-20.525,6.4124-14.864,6.3685-29.3401-.1109-36.8792-6.1362-7.1385-6.0924-21.0424.1109-35.4221.9192-2.1291,1.7197-4.297,2.3854-6.446.5259-.5924.9893-1.1432,1.4155-1.6719-.479,1.3301-.9936,2.6592-1.5635,3.9801-1.5028,3.4837-2.6843,7.143-3.4158,10.5819-.3282,1.5413-.5758,3.0735-.7369,4.5542-.9316,8.5711.7138,15.8029,4.6334,20.3629,3.6661,4.265,5.1947,11.1214,4.3052,19.3065-.4621,4.2528-1.4992,8.6771-3.0812,13.1507-.5106,1.4449-1.0841,2.9066-1.7048,4.3446,0,.0003,0,.0007-.0002.0009-1.5028,3.4835-2.6841,7.1426-3.4155,10.5813-.3282,1.5413-.5758,3.0735-.7369,4.5542-.1688,1.5553-.2544,3.0894-.2544,4.5597,0,6.6184,1.6902,12.0834,4.8879,15.8033,3.6656,4.265,5.1947,11.1214,4.3052,19.3065-.4621,4.2523-1.4988,8.6766-3.0812,13.1507-.5102,1.444-1.0836,2.9061-1.7048,4.3455-1.5028,3.4827-2.6838,7.1421-3.4158,10.5814-.3282,1.5427-.5763,3.0754-.7369,4.5547-.9316,8.5707.7138,15.8024,4.6334,20.3634,1.1749,1.3661,2.1373,3.0218,2.871,4.9142-.0159.1758-.0345.3502-.0754.506h.0002ZM470.4736,659.2027c-.0869.0463-.1791.1101-.2708.1791-.7206-1.5792-1.6005-2.9928-2.6389-4.2014-3.6661-4.265-5.1952-11.1219-4.3057-19.306.1557-1.4331.396-2.9187.7143-4.4153.7134-3.3515,1.8659-6.9203,3.3325-10.3207.6333-1.4675,1.2186-2.9586,1.7391-4.4324,1.6183-4.5755,2.6788-9.1058,3.1528-13.4639.9316-8.5716-.7138-15.8033-4.633-20.3629-2.9781-3.4647-4.552-8.6159-4.552-14.897,0-1.42.0829-2.9038.2462-4.4093.1562-1.4345.3965-2.9197.7143-4.4148.7133-3.3506,1.865-6.9189,3.332-10.3198,0-.0003.0004-.0006.0005-.0008.6333-1.4671,1.2181-2.9586,1.7391-4.4324,1.6183-4.5746,2.6788-9.1044,3.1528-13.4639.9316-8.5716-.7138-15.8033-4.633-20.3629-3.6661-4.2655-5.1952-11.1219-4.3057-19.3065.1562-1.4345.3965-2.9197.7143-4.4148.7134-3.351,1.8654-6.9199,3.3325-10.3211,1.3862-3.2122,2.5157-6.4726,3.3581-9.6898l.0002-.0004.0002-.0007s.0002-.0007.0003-.0011v-.0007l.1991-.9843c.0126-.0891.0234-.1813.033-.2758.0011-.0163.0095-.0299.0095-.0464l-.0066-.0019c.0012-.0131.0007-.026.0017-.0391.0092-.0237.0245-.0434.0311-.0685l.0303-.1137c.138-.5047.3436-1.0999.6111-1.7695.3707-.9293.8406-1.9537,1.3964-3.0442.5409-1.061,1.1425-2.1424,1.788-3.2139.8999-1.4951,1.8817-2.9658,2.9183-4.3709,1.3304-1.8043,2.7612-3.5149,4.2532-5.0848.5221-.5494,1.0545-1.0762,1.59-1.5892.1093,6.4527-1.4998,13.8887-4.6337,21.1545-6.4124,14.8645-6.3685,29.3406.1109,36.8792,6.1359,7.1385,6.0919,21.0424-.1109,35.4221-3.1252,7.2444-4.7769,14.5322-4.7769,21.0759,0,6.6184,1.6902,12.0834,4.8879,15.8033,6.1354,7.1385,6.0919,21.0424-.1109,35.4226-6.4124,14.8645-6.3689,29.3397.1109,36.8792,3.084,3.5873,4.6545,9.1358,4.5201,15.7065-.5176-.4203-1.0422-.8298-1.5755-1.2168-1.3807-1.0004-2.7884-1.874-4.184-2.5956-1.439-.7441-2.7639-1.2792-3.9373-1.5897-1.5055-.4001-2.5693-.3921-3.3461.0209l.0002-.0003ZM481.6123,666.792c-.0008-.0006-.0018-.0006-.0025-.0011-1.4213-.9899-2.881-1.8433-4.338-2.5383-1.3462-.6419-2.6617-1.1362-3.9096-1.4666-.8914-.2365-1.7534-.3809-2.495-.4288.0101-.0786.0265-.1563.0339-.2353,0-.0011.0008-.002.0009-.0031.037-.4017-.0059-.8034-.0994-1.1999.0624-.2992.1961-.42.3248-.4886.435-.2327,1.2208-.1991,2.3366.095,1.0756.2851,2.3049.7831,3.6543,1.4811,1.334.6898,2.682,1.5264,4.0065,2.4869.6805.4932,1.3457,1.0257,1.997,1.5738-.8686.7164-1.4176.7888-1.5094.7249h-.0002ZM489.514,669.4632c-.0009,0-.0019.0004-.0029.0005h-.0005c-.6274.0616-1.2598.0444-1.9315-.0516-.5595-.0806-1.1176-.2128-1.7052-.4047-.5075-.1657-1.009-.3667-1.5332-.6138-.4008-.1885-.8003-.4026-1.2109-.6387.3885-.2204.7941-.5229,1.2071-.9011,1.2955.5114,2.5544.8957,3.7442,1.1306.9474.1856,1.8478.2798,2.6788.2798.0421,0,.0842-.0009.1258-.0009.1384-.0017.2691-.0152.4042-.0222-.447.7025-1.0748,1.1522-1.7761,1.2222h.0002ZM491.7971,666.804c-.2969.0376-.6033.0646-.9274.0687-.7713.0154-1.6187-.076-2.52-.2535-1.0937-.215-2.2564-.5696-3.4579-1.0406.3293-7.3401-1.3786-13.5802-4.8407-17.6081-6.1359-7.1385-6.0919-21.0415.1109-35.4217,6.4124-14.8645,6.3685-29.3406-.1109-36.8792-2.9781-3.4647-4.552-8.6159-4.552-14.897,0-6.3559,1.6124-13.4535,4.6629-20.5254,6.4124-14.8645,6.3689-29.3401-.1109-36.8788-6.1354-7.1385-6.0919-21.0424.1109-35.4226,3.3912-7.8613,5.0517-15.9481,4.7204-22.8477,1.4332-.6808,2.8181-1.4407,4.1069-2.2859,1.0605-.6952,2.039-1.4288,2.9278-2.1877.8731,7.1894-.6789,15.8373-4.428,24.5288-6.4124,14.8645-6.3689,29.3401.1109,36.8788,6.1354,7.1389,6.0919,21.0428-.1109,35.4226-3.1252,7.244-4.7769,14.5318-4.7769,21.0755,0,6.6184,1.6902,12.0834,4.8879,15.8033,6.1354,7.1385,6.0919,21.0424-.1109,35.4226-6.4129,14.8645-6.3689,29.3406.1109,36.8792,3.8169,4.4405,5.2964,11.5908,4.1969,20.1689h0ZM492.9111,668.1274c-.0038.003-.0083.0051-.0121.0081.0196-.0483.0357-.0994.054-.1488.0542-.0143.1079-.0289.1612-.0444-.0693.0594-.132.1295-.2032.1851h0ZM495.7892,660.9736c-.096.8831-.2194,1.7925-.3679,2.7037l-.0002.0005c-.1173.7161-.382,1.3199-.7876,1.7962-.3467.407-.8254.725-1.3915.959,1.0165-8.733-.5936-16.0583-4.5872-20.7051-6.1359-7.1375-6.0924-21.0415.1109-35.4217,6.4124-14.8645,6.3685-29.3406-.1109-36.8792-2.9781-3.4647-4.552-8.6159-4.552-14.897,0-6.3559,1.6124-13.4531,4.6629-20.525,6.4124-14.864,6.3685-29.3401-.1109-36.8792-6.1359-7.1385-6.0919-21.0424.1109-35.4221,4.015-9.3065,5.5658-18.5973,4.3943-26.2203.369-.3638.7226-.7314,1.0435-1.0997.6414-.7364,1.181-1.4766,1.6029-2.1999.0159-.0271.0274-.0532.0429-.0803.2629,2.4778.2465,5.144-.0602,7.9661-.4621,4.2523-1.4992,8.6771-3.0812,13.1511-.5106,1.4449-1.0841,2.9066-1.7048,4.3446,0,.0003,0,.0007-.0002.0009-1.5028,3.4835-2.6841,7.1426-3.4155,10.5813-.3282,1.5418-.5763,3.074-.7369,4.5542-.9316,8.5711.7138,15.8029,4.6334,20.3629,3.6656,4.265,5.1947,11.1214,4.3052,19.306-.4621,4.2528-1.4992,8.6776-3.0812,13.1511-.5106,1.4449-1.0841,2.9066-1.7048,4.3446,0,.0003,0,.0007-.0002.0009-1.5028,3.4835-2.6841,7.1426-3.4155,10.5813-.3282,1.5418-.5763,3.074-.7369,4.5542-.1688,1.5553-.2544,3.0894-.2544,4.5592,0,6.6188,1.6902,12.0838,4.8879,15.8038,3.6656,4.265,5.1947,11.1214,4.3052,19.306-.4621,4.2518-1.4988,8.6771-3.0812,13.1511-.5119,1.4485-1.0855,2.9106-1.7048,4.3455-1.5028,3.4827-2.6838,7.1421-3.4158,10.5814-.3282,1.5408-.5758,3.0735-.7369,4.5547-.9315,8.5694.7134,15.8002,4.6317,20.3604.0008.0009.0009.0021.0017.003,3.6661,4.2641,5.1947,11.12,4.3052,19.3051v.0003ZM497.3358,659.172c.4954-7.7128-1.1791-14.1994-4.7954-18.4085-.0008-.0009-.0009-.0021-.0017-.003-3.6661-4.265-5.1952-11.121-4.3057-19.3051.1557-1.435.3965-2.9206.7143-4.4153.7134-3.3515,1.8659-6.9202,3.3325-10.3207.6319-1.463,1.2168-2.955,1.7391-4.4324,1.6183-4.5755,2.6788-9.1058,3.1528-13.4644.9316-8.5711-.7138-15.8029-4.633-20.3625-2.9781-3.4647-4.552-8.6159-4.552-14.8975,0-1.42.0829-2.9033.2462-4.409.1557-1.4336.396-2.9192.7143-4.4148.7133-3.3506,1.865-6.9189,3.332-10.3198,0-.0003.0004-.0006.0005-.0008.6333-1.4671,1.2181-2.9586,1.7391-4.4324,1.6183-4.5746,2.6788-9.1048,3.1528-13.4644.9316-8.5711-.7138-15.8029-4.633-20.3625-3.6661-4.2654-5.1952-11.1219-4.3057-19.3065.1557-1.4336.396-2.9192.7143-4.4148.7133-3.3506,1.865-6.9189,3.332-10.3198,0-.0003.0004-.0006.0005-.0008.6333-1.4671,1.2181-2.9586,1.7391-4.4324,1.6183-4.5755,2.6788-9.1053,3.1528-13.4644.4222-3.885.3126-7.4964-.3103-10.75.0755-.1795.1742-.3798.3081-.6041.32-.5378.789-1.1723,1.3553-1.836.8216-.9614,1.8618-1.9985,3.0079-2.9975,1.4571-1.2706,3.1469-2.5326,4.886-3.6503.3008-.1931.5944-.3646.8915-.5457,2.3968,7.7048,1.138,18.5039-3.45,29.1398-6.4124,14.864-6.3685,29.3401.1109,36.8792,6.1359,7.1385,6.0919,21.0424-.1109,35.4221-3.1252,7.244-4.7769,14.5318-4.7769,21.0755,0,6.6188,1.6902,12.0838,4.8879,15.8038,6.1354,7.1385,6.0919,21.0424-.1109,35.4226-6.4124,14.8645-6.3689,29.3397.1109,36.8792,4.5346,5.2748,5.735,14.6396,3.2835,25.1814-.3705-.2321-.7433-.45-1.1171-.6417-1.0833-.5568-2.1647-.9424-3.2144-1.1453-1.4177-.2752-2.7504-.2-3.8549.2137-.6598.2474-1.2372.6239-1.7325,1.1054v-.0004ZM505.2288,662.3113c-.9778-.5854-1.9706-1.0564-2.9549-1.393-.894-.3069-1.7943-.5061-2.6028-.5739-.5704-.0496-1.1002-.0201-1.581.0551.4054-.4647.8953-.8167,1.466-1.031.8646-.3241,1.9378-.3766,3.1026-.1503.9203.1784,1.8772.5205,2.8432,1.0167.4006.2055.8002.4475,1.1975.7044-.7156.8799-1.2476,1.2819-1.4706,1.3722v-.0002ZM513.4901,663.6153s-.0005.0005-.0008.0006c-.588.2232-1.2075.3698-1.8419.4358-.5893.0625-1.1995.0553-1.8134-.0163-.5455-.0661-1.1045-.1865-1.6617-.3567-.497-.153-.9841-.3422-1.4888-.5785-.0303-.0142-.0599-.0309-.0902-.0452.4708-.3919.935-.9078,1.3522-1.4442,1.1258.4316,2.2308.7492,3.2895.9319.7265.125,1.4458.1883,2.1293.1883.3582,0,.7025-.0226,1.0369-.057-.2157.4542-.5201.7929-.9111.9415h0ZM514.8328,661.201c-.9694.1847-2.139.1836-3.3616-.0291-.9461-.1627-1.9377-.4459-2.9521-.8302,2.7167-11.2859,1.4595-21.0276-3.4933-26.7903-6.1359-7.1385-6.0919-21.0415.1109-35.4217,6.4124-14.8645,6.3685-29.3406-.1109-36.8792-2.9781-3.4647-4.552-8.6159-4.552-14.8975,0-6.3559,1.6124-13.4531,4.6629-20.525,6.4124-14.8645,6.3689-29.3401-.1109-36.8788-6.1354-7.1389-6.0919-21.0428.1109-35.4226,4.836-11.209,6.0631-22.213,3.4249-30.3462,1.1862-.4619,2.3394-.9847,3.4171-1.5904,1.1326-.6366,2.1999-1.3631,3.1412-2.1258,3.4241,7.8121,2.4644,19.3993-2.656,31.27-6.4129,14.8645-6.3694,29.3401.1109,36.8788,6.1354,7.1385,6.0919,21.0424-.1109,35.4226-3.1252,7.244-4.7769,14.5318-4.7769,21.0755,0,6.6184,1.6902,12.0834,4.8879,15.8033,6.1354,7.1385,6.0919,21.0424-.1109,35.4226-6.4129,14.8645-6.3689,29.3406.1109,36.8792,5.1661,6.0102,5.9975,16.8252,2.258,28.985v-.0002ZM520.7642,646.5505c-.0002.0014-.0011.0025-.0012.004-.42,3.8757-1.3218,7.908-2.6793,11.9829-.053.1594-.1229.2998-.1815.4511-.2922.6418-.7038,1.1431-1.2625,1.5216-.0566.0383-.126.0653-.1855.1009,3.5286-12.2155,2.5092-23.0964-2.8246-29.3022-6.1359-7.1375-6.0924-21.0415.1109-35.4217,6.4124-14.8645,6.3689-29.3406-.1109-36.8792-2.9781-3.4647-4.552-8.6159-4.552-14.897,0-6.3559,1.6124-13.4531,4.6629-20.525,6.4124-14.8645,6.3689-29.3406-.1109-36.8792-6.1362-7.1385-6.0924-21.0424.1109-35.4221,5.3571-12.4189,6.26-24.6113,2.4741-32.7811.2962-.2819.5834-.5682.848-.8597.5532-.6102,1.0362-1.2403,1.435-1.8731.2293-.3635.4289-.725.5995-1.0823,1.7163,4.0432,2.296,9.1688,1.6673,14.9585-.0002.0014-.001.0024-.0012.0038-.4608,4.2501-1.4974,8.6748-3.0804,13.1511-.5106,1.4449-1.0841,2.9066-1.7048,4.3446,0,.0003,0,.0007-.0002.0009-1.5028,3.4835-2.6841,7.1426-3.4155,10.5813-.3282,1.5418-.5763,3.074-.7369,4.5542-.9316,8.5711.7138,15.8029,4.6334,20.3629,3.6655,4.2643,5.1945,11.1188,4.3056,19.302-.0002.0014-.0011.0025-.0012.004-.4608,4.2501-1.4974,8.6748-3.0804,13.1511-.5106,1.4449-1.0841,2.9066-1.7048,4.3446,0,.0003,0,.0007-.0002.0009-1.5028,3.4835-2.6841,7.1426-3.4155,10.5813-.3282,1.5418-.5763,3.074-.7369,4.5542-.1688,1.5553-.2544,3.0894-.2544,4.5592,0,6.6184,1.6902,12.0834,4.8879,15.8038,3.6655,4.2643,5.1945,11.1193,4.3056,19.302-.0002.0014-.0011.0025-.0012.004-.4608,4.2505-1.4974,8.6752-3.0804,13.1511-.5111,1.4454-1.0846,2.9069-1.7048,4.3446-1.5028,3.4846-2.6843,7.1439-3.4158,10.5823-.3282,1.5408-.5758,3.0735-.7369,4.5547-.9316,8.5707.7138,15.8024,4.6334,20.3625,3.6655,4.2644,5.1945,11.1198,4.3056,19.302l-.0002.0002ZM521.6009,650.3769c.2217-1.235.4139-2.4625.5454-3.6721.0002-.0017-.0007-.0033-.0005-.0049.9313-8.5686-.7136-15.7984-4.6326-20.3585-3.6661-4.265-5.1952-11.121-4.3057-19.3051.1557-1.435.3965-2.9206.7143-4.4153.7134-3.3506,1.8654-6.9194,3.3325-10.3216.6328-1.4658,1.2181-2.9568,1.7392-4.4316,1.6192-4.5768,2.6793-9.1071,3.1528-13.4644.0002-.0017-.0007-.0032-.0005-.0049.9313-8.569-.7136-15.7984-4.6326-20.3576-2.9781-3.4651-4.552-8.6164-4.552-14.8975,0-1.42.0829-2.9033.2462-4.409.1557-1.4336.396-2.9192.7143-4.4148.7133-3.3506,1.865-6.9189,3.332-10.3198,0-.0003.0004-.0006.0005-.0008.6333-1.4671,1.2181-2.9586,1.7392-4.4324,1.6192-4.5778,2.6793-9.108,3.1528-13.4644.0002-.0017-.0007-.0032-.0005-.0049.9313-8.5695-.7136-15.7989-4.6326-20.3576-3.6661-4.2654-5.1952-11.1219-4.3057-19.3065.1557-1.4336.396-2.9192.7143-4.4148.7133-3.3506,1.865-6.9189,3.332-10.3198,0-.0003.0004-.0006.0005-.0008.6333-1.4671,1.2181-2.9586,1.7392-4.4324,1.6192-4.5778,2.6793-9.108,3.1528-13.4644.0002-.0019-.0007-.0034-.0005-.0053.7089-6.5174-.0785-12.2512-2.2479-16.6652.5295-.3164,1.1397-.6655,1.8238-1.0431,1.0982-.607,3.3913-1.8274,6.3979-3.1732,1.1005-.4924,2.2778-.9898,3.4424-1.4646,3.333,7.8107,2.3395,19.3615-2.7272,31.1075-6.4124,14.864-6.3689,29.3401.1113,36.8792,6.1354,7.1385,6.0919,21.0424-.1113,35.4221-3.1252,7.243-4.7764,14.5309-4.7764,21.0755,0,6.6192,1.6902,12.0843,4.8879,15.8038,6.1354,7.1385,6.0919,21.0424-.1113,35.4221-6.4124,14.864-6.3689,29.3401.1113,36.8796,5.0109,5.8296,5.9388,16.2672,2.5404,28.0255-.3391-.1396-.6815-.2649-1.0267-.3643-.9778-.2806-1.9654-.3974-2.9333-.3431-1.2466.0688-2.4308.4119-3.5208,1.0203-.8877.4959-1.6871,1.1753-2.4049,1.9991v-.0002ZM529.729,650.9766c-.7255-.3219-1.4635-.571-2.1996-.7175-.784-.1575-1.5608-.2101-2.3077-.1584-.6073.0417-1.1817.1743-1.7343.3529.3803-.3283.7748-.6261,1.1966-.8618.9035-.5042,1.8858-.7885,2.9187-.8456.813-.048,1.6459.0534,2.4724.2906.2947.0847.5877.1917.8783.3111-.5979.9962-1.0262,1.4661-1.2244,1.6286h0ZM538.5752,650.7244s-.0008.0009-.0013.0012c-.5063.3262-1.0442.5966-1.5984.8036-.5839.2173-1.1951.3676-1.8152.4472-.6102.077-1.2367.0878-1.8623.0298-.5813-.0534-1.1723-.1666-1.7581-.3368-.1373-.0398-.2755-.092-.4135-.1385.3253-.3808.704-.9302,1.1349-1.6726,1.4324.4488,2.9064.7011,4.2426.7011.1258,0,.2517-.0027.3757-.0063.7032-.0251,1.384-.1265,2.0237-.284-.0772.2013-.1842.3621-.3281.455v.0002ZM539.1672,648.7468c-.7012.2398-1.4977.3865-2.3365.4159-1.2387.0512-2.6549-.1732-4.0411-.5966,3.568-12.2584,2.5462-23.2266-2.7896-29.4338-6.1354-7.1375-6.0919-21.0424.1113-35.4221,6.4124-14.8645,6.3689-29.3401-.1113-36.8788-2.9776-3.4642-4.5511-8.6155-4.5511-14.8975,0-6.3567,1.6124-13.454,4.6624-20.525,6.4124-14.8645,6.3689-29.3401-.1113-36.8788-6.1354-7.1389-6.0919-21.0428.1113-35.4226,5.2018-12.0573,6.2026-23.9832,2.7557-32.1406.9288-.3026,1.8417-.6361,2.7098-1.0204,1.3836-.6129,2.7333-1.3748,3.898-2.179,4.099,7.6935,3.3537,20.0532-2.0365,32.5471-6.4124,14.8645-6.3689,29.3406.1113,36.8792,6.1362,7.1385,6.0928,21.0424-.1113,35.4226-3.1252,7.243-4.7764,14.5309-4.7764,21.0755,0,6.6188,1.6902,12.0838,4.8879,15.8033,6.1362,7.1385,6.0928,21.0424-.1113,35.4226-6.4124,14.8645-6.3689,29.3397.1113,36.8792,5.4254,6.3116,6.0345,18.1501,1.6178,30.9499h-.0002ZM545.7381,632.1354c-.4553,4.1946-1.4718,8.5613-3.0195,12.9767-.0002.0004-.0005.0007-.0007.0011-.0135.0386-.0326.0772-.0465.116-.2291.6247-.5144,1.1741-.8814,1.6612-.243.3235-.5268.6055-.8339.8618,4.0372-12.7116,3.1849-24.4205-2.3528-30.8624-6.1354-7.1385-6.0919-21.0415.1113-35.4217,6.4133-14.8645,6.3698-29.3406-.1113-36.8792-2.9776-3.4642-4.5511-8.6155-4.5511-14.897,0-6.3567,1.6124-13.454,4.6624-20.525,6.4133-14.8645,6.3698-29.3406-.1113-36.8792-6.1354-7.1385-6.0919-21.0424.1113-35.4226,5.5955-12.9692,6.2906-25.8812,1.8888-33.9351.3284-.2648.6481-.534.9448-.8098.5975-.5554,1.1326-1.1316,1.5889-1.7124.2309-.2931.4264-.5725.6041-.8458,1.9659,4.144,2.6663,9.5166,1.997,15.6696-.0002.0015.0006.0027.0004.0042-.4628,4.2528-1.4992,8.6762-3.0812,13.147-.5142,1.4521-1.0873,2.9143-1.7048,4.3446,0,.0003,0,.0007-.0002.0009-1.5019,3.4813-2.6832,7.1404-3.4155,10.5809-.3277,1.5386-.5749,3.0709-.7369,4.5547-.0002.0017.0007.0032.0005.0049-.9312,8.5689.7135,15.7977,4.6321,20.3565.0004.0005.0005.0011.0008.0015,3.6656,4.2645,5.1947,11.121,4.3048,19.306-.0002.0015.0006.0027.0004.0042-.4628,4.2528-1.4992,8.6762-3.0812,13.147-.5133,1.4504-1.0864,2.912-1.7048,4.3446,0,.0003,0,.0007-.0002.0009-1.5019,3.4813-2.6832,7.1404-3.4155,10.5813-.3277,1.5386-.5749,3.0709-.7369,4.5542-.0002.0017.0007.0032.0005.005-.1689,1.5485-.2548,3.0803-.2548,4.5542,0,6.6188,1.6902,12.0838,4.8879,15.8038,3.6656,4.2645,5.1947,11.121,4.3048,19.306-.0002.0015.0006.0027.0004.0042-.4628,4.2528-1.4992,8.6762-3.0812,13.147-.5133,1.4504-1.0864,2.912-1.7048,4.3446,0,.0003,0,.0007-.0002.0009-1.5019,3.4813-2.6832,7.1404-3.4155,10.5813-.3277,1.5391-.5749,3.0713-.7369,4.5547-.0002.0017.0007.0032.0005.0049-.9313,8.5686.7136,15.7984,4.633,20.3576,3.6656,4.265,5.1947,11.121,4.3048,19.306l-.0002.0002ZM556.6918,631.2524c-.7425-.1547-1.4924-.2343-2.2409-.2016-.9062.0371-1.8043.2118-2.6689.5178-.4003.1417-.7907.3193-1.175.5155.3056-.2639.6161-.5136.9369-.7319,1.7501-1.1921,3.8113-1.6799,5.7579-1.392-.2704.7161-.4852,1.1117-.61,1.2922h0ZM550.7617,630.2026c-1.4617.9954-2.7711,2.4071-3.92,4.1998.1065-.7092.2035-1.4159.2798-2.1166.9307-8.5716-.7152-15.8033-4.6343-20.3634-3.665-4.2633-5.1941-11.1177-4.3052-19.3008.0002-.0015.0011-.0027.0013-.0043.1557-1.4367.3957-2.9223.7134-4.4153.7142-3.3525,1.8664-6.9213,3.332-10.3198,0-.0003.0004-.0006.0005-.0008.631-1.4617,1.2158-2.9528,1.7392-4.4324,1.6171-4.5715,2.678-9.1,3.1517-13.4594.0002-.0019.0013-.0032.0015-.005.9307-8.5721-.7152-15.8033-4.6343-20.3625-2.9776-3.4647-4.5511-8.6159-4.5511-14.8975,0-1.4243.0832-2.9062.246-4.405.0002-.0014.001-.0025.0012-.0039.1557-1.4367.3957-2.922.7134-4.4148.7142-3.3525,1.8664-6.9213,3.332-10.3198,0-.0003.0004-.0006.0005-.0008.631-1.4617,1.2158-2.9527,1.7392-4.4324,1.6171-4.5715,2.678-9.1,3.1517-13.4594.0002-.0019.0013-.0032.0015-.005.9306-8.5714-.7149-15.8021-4.6335-20.3614-.0004-.0005-.0005-.0011-.0008-.0015-3.665-4.2642-5.1941-11.1186-4.3052-19.3017.0002-.0015.0011-.0027.0013-.0043.1557-1.4372.3957-2.9228.7134-4.4153.7142-3.3525,1.8664-6.9208,3.332-10.3194,0-.0003.0004-.0006.0005-.0008.6301-1.4594,1.2149-2.9504,1.7392-4.4324,1.6171-4.5715,2.678-9.1,3.1517-13.4594.0002-.0019.0013-.0032.0015-.005.705-6.4892-.0693-12.1771-2.2065-16.5787.0796.0012.1528.0118.2337.0118.048,0,.0969,0,.1457-.0005,1.071-.0099,2.3366-.1299,3.8703-.3666,1.6368-.2526,3.6367-.646,5.7841-1.1384.9072-.2083,1.8382-.4376,2.7585-.6739,1.7848,7.6051.3857,17.572-3.8975,27.5027-6.4133,14.8645-6.3698,29.3401.1113,36.8788,6.1354,7.1389,6.0919,21.0428-.1113,35.4226-3.1252,7.2444-4.7774,14.5323-4.7774,21.0755,0,6.6179,1.6902,12.0829,4.8887,15.8038,6.1354,7.1385,6.0919,21.0424-.1113,35.4221-6.4133,14.8645-6.3698,29.3401.1113,36.8796,4.2296,4.9213,5.5774,13.2776,3.745,22.9965-2.3397-.3898-4.8169.1636-6.9046,1.5857l.0003-.0007ZM564.7372,629.8866c-.545.3703-1.1153.6835-1.6966.9316-.6283.2698-1.2829.4708-1.9437.5984-.679.1294-1.3797.1919-2.0723.1647-.2929-.0086-.5869-.0375-.8807-.0735.1723-.3365.3544-.7672.5475-1.3071.6275.0887,1.2595.1475,1.8857.1475.9958,0,1.9727-.1123,2.8726-.3341.7511-.1852,1.4638-.4518,2.1411-.7814-.2781.2331-.5617.4553-.8538.6538h.0003ZM566.0802,627.3494c-.8915.6016-1.8844,1.0479-2.9636,1.3141-1.2527.3105-2.6774.3607-4.0785.18,1.9012-10.1241.4395-18.8911-4.0632-24.1303-6.1362-7.1385-6.0928-21.042.1113-35.4221,6.4124-14.8645,6.3689-29.3401-.1113-36.8788-2.9776-3.4651-4.552-8.6168-4.552-14.8975,0-6.3554,1.6124-13.4526,4.6633-20.525,6.4124-14.864,6.3689-29.3401-.1113-36.8792-6.1362-7.1385-6.0928-21.0424.1113-35.4221,4.4006-10.2021,5.8268-20.4878,3.9711-28.3815.3513-.0795.7016-.1547,1.0543-.2434.9189-.2308,1.8396-.4921,2.7377-.7772,1.0592-.3359,2.1031-.7102,3.1016-1.1126.0981-.0396.1826-.0773.2778-.1166,1.9111,7.6509.543,17.7328-3.8157,27.8385-6.4124,14.8645-6.3689,29.3406.1113,36.8792,6.1354,7.1385,6.0919,21.0424-.1113,35.4221-3.1252,7.2448-4.7774,14.5332-4.7774,21.0759,0,6.6184,1.6902,12.0829,4.8887,15.8033,6.1352,7.1383,6.0918,21.0416-.1109,35.4215,0,.0002-.0004.0004-.0005.0007-6.4124,14.8645-6.3689,29.341.1113,36.8796,4.3833,5.1001,5.6714,13.8276,3.5556,23.9716h.0002ZM570.7135,617.7124c-.0002.0014-.0011.0025-.0012.004-.0824.7686-.1847,1.5399-.3051,2.314,0,.0003,0,.0005,0,.0008h0c-.0663.4268-.1683.8443-.2645,1.2629-.2524.9851-.6086,1.9109-1.0754,2.7577-.3692.6679-.8007,1.2723-1.2852,1.8152,1.6995-9.8218.2027-18.2699-4.2038-23.3962-6.1352-7.1374-6.0919-21.0413.1109-35.4208,0-.0004.0004-.0005.0005-.0008,6.4124-14.8645,6.3689-29.3406-.1113-36.8792-2.9776-3.4647-4.552-8.6159-4.552-14.897,0-6.3549,1.6124-13.4526,4.6633-20.5254,6.4124-14.8645,6.3689-29.3401-.1113-36.8788-6.1354-7.1385-6.0919-21.0424.1113-35.4226,4.519-10.4763,5.8967-20.9772,3.8324-28.9487.9932-.4516,1.8777-.9038,2.6216-1.3475.179-.1064.3378-.2065.487-.3039.3881,2.7589.4308,5.7572.0827,8.9627-.0002.0014-.001.0024-.0012.0037-.4608,4.2496-1.4974,8.6743-3.0799,13.1511-.5096,1.4404-1.0833,2.9022-1.7043,4.344,0,.0003-.0004.0004-.0005.0007-1.5028,3.481-2.6843,7.1402-3.4158,10.5819-.3286,1.5445-.5767,3.0767-.7378,4.5547-.9307,8.5721.7152,15.8033,4.6343,20.3625,3.665,4.2647,5.1941,11.1198,4.3051,19.3025-.0002.0014-.0011.0025-.0012.004-.4608,4.2491-1.4974,8.6739-3.0799,13.1511-.5096,1.4405-1.0833,2.9022-1.7043,4.344,0,.0003-.0004.0004-.0005.0007-1.5028,3.481-2.6843,7.1402-3.4158,10.5819-.3286,1.5445-.5767,3.0767-.7378,4.5547-.1683,1.5576-.2544,3.0917-.2544,4.5592,0,6.6184,1.6902,12.0829,4.8887,15.8033,3.665,4.2647,5.1941,11.1198,4.3051,19.3025-.0002.0014-.0011.0025-.0012.004-.4608,4.2491-1.4974,8.6739-3.0799,13.1511-.5096,1.4405-1.0833,2.9022-1.7043,4.344,0,.0003-.0004.0004-.0005.0007-1.5028,3.4819-2.6843,7.1412-3.4158,10.5819-.3286,1.5454-.5767,3.0776-.7378,4.5547-.9307,8.5721.7152,15.8038,4.6343,20.3629,3.665,4.2643,5.1941,11.1198,4.3051,19.302h.0003ZM575.1647,605.9454c-1.1392,1.4614-2.1038,3.3125-2.8659,5.5029-.2911-5.7467-1.941-10.576-4.8366-13.9451-3.6656-4.2641-5.1947-11.1205-4.3048-19.3055.0002-.0014-.0005-.0026-.0004-.004.1556-1.4292.3962-2.9134.7147-4.4113.7134-3.3529,1.8659-6.9212,3.3325-10.3202,0-.0003,0-.0007.0002-.0009.6336-1.4705,1.2193-2.9615,1.739-4.4316,1.6187-4.5787,2.6788-9.1084,3.1523-13.4644.0002-.0017-.0007-.0032-.0005-.0049.9313-8.569-.7136-15.7989-4.633-20.358-2.9776-3.4647-4.552-8.6159-4.552-14.897,0-1.4177.0832-2.9011.2472-4.409.0002-.0014-.0005-.0026-.0004-.004.1556-1.4302.3962-2.9144.7147-4.4113.7134-3.3538,1.8659-6.9221,3.3325-10.3202,0-.0003,0-.0007.0002-.0009.6336-1.4705,1.2194-2.9615,1.739-4.4316,1.6187-4.5787,2.6788-9.1085,3.1523-13.4644.0002-.0017-.0007-.0032-.0005-.0049.9313-8.569-.7136-15.7989-4.633-20.358-3.6656-4.2645-5.1947-11.121-4.3048-19.306.0002-.0014-.0005-.0026-.0004-.004.1556-1.4302.3962-2.9144.7147-4.4113.7134-3.3538,1.8659-6.9221,3.3325-10.3202,0-.0003,0-.0007.0002-.0009.6336-1.4705,1.2193-2.9615,1.739-4.4316,1.6187-4.5782,2.6788-9.1085,3.1523-13.4644.0002-.0019-.0007-.0034-.0005-.0053.3232-2.9702.3287-5.7809.0388-8.3993.829.5831,1.8536,1.008,3.142,1.2729,1.0692.2195,2.3737.3309,3.8078.3309.8292,0,1.702-.0371,2.5974-.1123.4811-.0406.9813-.1096,1.4766-.1703-.5829,5.0715-2.0809,10.5243-4.3736,15.8397-6.4124,14.8645-6.3689,29.3401.1113,36.8788,6.1354,7.1389,6.0919,21.0428-.1113,35.4226-3.1252,7.243-4.7764,14.5309-4.7764,21.0755,0,6.6188,1.6902,12.0838,4.8879,15.8033,6.1354,7.1389,6.0919,21.0428-.1113,35.4226-6.412,14.8637-6.3689,29.3386.1104,36.8775.0005.0005.0005.0012.0009.0017,2.2236,2.5878,3.6817,6.2191,4.2585,10.5217-.4459.0092-.8894.0375-1.3235.1054-1.1407.1774-2.2344.5559-3.251,1.1244-1.2675.708-2.4163,1.7147-3.4149,2.993v-.0002ZM583.0995,603.4288c-.9102.0202-1.807.1502-2.6704.408-.673.2012-1.3255.4814-1.954.8249.2555-.1804.5163-.347.7835-.4962.8718-.4871,1.8089-.8112,2.7857-.9633.3656-.0577.7385-.083,1.114-.0918-.0214.1297-.0412.2378-.0588.3183h0ZM589.3954,601.78c-.5703.3693-1.1797.6835-1.8125.9334-.6355.2517-1.3036.44-1.9827.5585-.3544.0613-.7136.1018-1.0744.1264.0171-.1037.0329-.213.048-.3259,1.7024-.1161,3.359-.5475,4.823-1.2935-.0005.0004-.0011.0008-.0016.0011h0ZM588.7916,600.5297c-1.2839.6579-2.7403,1.0405-4.2399,1.1518-.5993-4.633-2.1762-8.564-4.6014-11.3858-.0004-.0005-.0005-.0011-.0009-.0016-6.1354-7.1385-6.0919-21.0424.1113-35.4221,6.4124-14.864,6.3689-29.3401-.1113-36.8792-2.9776-3.4642-4.5511-8.6155-4.5511-14.897,0-6.3567,1.6124-13.454,4.6624-20.525,6.4124-14.864,6.3689-29.3401-.1113-36.8792-6.1354-7.1385-6.0919-21.0424.1113-35.4221,2.3895-5.5382,3.9385-11.2334,4.5132-16.52.4448-.0248.8909-.0493,1.3298-.0755l2.9007-.1765c1.0143-.0609,1.9307-.1115,2.7307-.1453-.7027,4.6089-2.0901,9.3549-4.1475,14.1243-6.4124,14.864-6.3689,29.3401.1113,36.8792,6.1354,7.1385,6.0919,21.0424-.1113,35.4221-3.1252,7.2435-4.7764,14.5313-4.7764,21.0755,0,6.6192,1.6902,12.0843,4.8879,15.8038,6.1354,7.1385,6.0919,21.0424-.1113,35.4221-6.4124,14.8645-6.3689,29.3406.1113,36.8792,2.0592,2.3956,3.4344,5.5788,4.1024,9.4524-.8127.8595-1.7518,1.5763-2.8096,2.119v-.0002ZM594.1266,593.9851c-.3079,1.0625-.7858,2.0658-1.3844,2.9764-.779-3.586-2.1852-6.5776-4.1897-8.9094-6.1354-7.1385-6.0919-21.0424.1113-35.4226,6.4124-14.8645,6.3689-29.3401-.1113-36.8788-2.9776-3.4642-4.5511-8.6155-4.5511-14.8975,0-6.3562,1.6124-13.4535,4.6624-20.525,6.4124-14.8645,6.3689-29.3401-.1113-36.8788-6.1354-7.1389-6.0919-21.0428.1113-35.4226,2.1422-4.9645,3.5769-9.9116,4.2843-14.7165.2514-.0032.4881-.0045.6968-.0032.3509.0044.6012.0175.8006.0357-.8473,3.4929-2.0299,7.0364-3.5437,10.5462-1.5019,3.4814-2.6833,7.1407-3.4158,10.5819-.3277,1.5386-.5749,3.0709-.7369,4.5547-.0002.0017.0007.0032.0005.0049-.9313,8.569.7136,15.7984,4.633,20.3576,3.6656,4.265,5.1947,11.1214,4.3048,19.3065-.0002.0015.0006.0027.0004.0042-.4628,4.2533-1.5001,8.6762-3.0812,13.147-.5142,1.4531-1.0882,2.9146-1.7048,4.3442,0,.0003,0,.0007-.0002.0009-1.5019,3.4813-2.6832,7.1404-3.4155,10.5813-.3277,1.5386-.5749,3.0709-.7369,4.5547-.0002.0017.0007.0032.0005.005-.1689,1.5481-.2548,3.0798-.2548,4.5542,0,6.6188,1.6902,12.0838,4.8879,15.8033,3.6656,4.265,5.1947,11.1214,4.3048,19.3065-.0002.0015.0006.0027.0004.0042-.4628,4.2533-1.5001,8.6762-3.0812,13.147-.5142,1.4521-1.0873,2.9143-1.7048,4.3446,0,.0003,0,.0007-.0002.0009-1.5019,3.4803-2.6823,7.1395-3.4155,10.5809-.3277,1.5386-.5749,3.0709-.7369,4.5547-.0002.0017.0007.0032.0005.0049-.9313,8.5695.7136,15.7989,4.633,20.3576,1.3308,1.5495,2.3895,3.4594,3.1508,5.6735.1301,1.4824-.0039,2.9362-.4067,4.3208l-.0002.0003ZM601.1701,574.5519c-1.1552.2526-2.2162.6998-3.155,1.3304-.7349.4937-1.3774,1.094-1.9174,1.7788-.0027.0028-.0065.0036-.0091.0065-.0032.0033-.0039.0078-.0069.0111-.0088.0112-.0201.0203-.0288.0316-.0012.0015-.003.002-.0041.0034-.0008.0011-.0014.0024-.0022.0035-.0004.0005-.0009.0009-.0014.0015-.0006.0007-.0007.0018-.0012.0025-1.0505,1.3348-1.6793,3.1564-1.8691,5.4168-.0613.7316-.067,1.5237-.0417,2.3536-.5119-.8652-1.0701-1.6784-1.6965-2.407-3.665-4.2642-5.1941-11.1186-4.3052-19.3017.0002-.0015.0011-.0027.0013-.0043.1557-1.4372.3957-2.9228.7134-4.4153.7142-3.3533,1.8664-6.9217,3.332-10.3194,0-.0003.0004-.0006.0005-.0008.6301-1.4594,1.2149-2.9504,1.7392-4.4324,1.6178-4.5732,2.6788-9.1034,3.1533-13.4644.9307-8.5716-.7152-15.8033-4.6343-20.3629-2.9776-3.4642-4.5511-8.6155-4.5511-14.897,0-1.4248.0832-2.9067.246-4.405.0002-.0014.001-.0025.0012-.0039.1557-1.4372.3957-2.9228.7134-4.4153.7142-3.3525,1.8664-6.9213,3.332-10.3198,0-.0003.0004-.0006.0005-.0008.6292-1.4581,1.2149-2.9491,1.7392-4.432,1.6178-4.5732,2.6788-9.1034,3.1533-13.4644.9307-8.5716-.7152-15.8033-4.6343-20.3629-3.665-4.2642-5.1941-11.119-4.3052-19.3017.0002-.0015.0011-.0027.0013-.0043.1557-1.4372.3957-2.9228.7134-4.4153.7143-3.3529,1.8668-6.9221,3.3325-10.3211.5916-1.3715,1.118-2.7489,1.6128-4.1268.6921-.8098,1.6793-1.5507,2.8631-2.1637.2763.0962.5675.187.8854.2651.7198.1774,1.5182.3019,2.3756.3712.5142.0412,1.0429.062,1.5843.062.2857,0,.5852-.0268.8772-.0383-5.0092,13.7136-4.4692,26.4335,1.4939,33.3695,6.1354,7.1389,6.0919,21.0428-.1113,35.4226-3.1252,7.2444-4.7774,14.5322-4.7774,21.0755,0,6.6184,1.6902,12.0829,4.8887,15.8033,6.1354,7.1389,6.0919,21.0428-.1113,35.4226-5.7863,13.412-6.3432,26.4584-1.5753,34.4848-.3445.0399-.6841.0927-1.0139.1646v-.0005ZM607.835,572.4004c-1.1844.9045-2.6337,1.5319-4.1192,1.8245-4.9125-7.5765-4.4288-20.4455,1.3199-33.772,6.4124-14.864,6.3689-29.3401-.1113-36.8792-2.9776-3.4647-4.552-8.6159-4.552-14.897,0-6.3554,1.6124-13.4526,4.6633-20.525,6.4124-14.864,6.3689-29.3401-.1113-36.8792-5.696-6.6259-6.0937-19.0109-1.0878-32.4159.9.1539,1.8483.3367,2.8568.5625,1.1294.253,2.2093.5224,3.0845.7661-3.6821,12.3925-2.6956,23.4785,2.696,29.7514,6.1354,7.1385,6.0919,21.0424-.1113,35.4221-3.1252,7.2444-4.7774,14.5322-4.7774,21.0755,0,6.6179,1.6902,12.0829,4.8887,15.8038,6.1354,7.1385,6.0919,21.0424-.1113,35.4221-5.3281,12.3503-6.2518,24.5167-2.5213,32.6837-.5777.7783-1.2613,1.4874-2.0062,2.0567v-.0003ZM612.4613,544.6546c-.3286,1.5445-.5767,3.0767-.7378,4.5547-.4656,4.2865-.2933,8.2311.509,11.7275.1064,1.7596-.0118,3.3607-.3632,4.891-.2591,1.1331-.6365,2.1496-1.1305,3.0866-3.133-7.8-2.0888-19.1367,2.9005-30.7039,6.4124-14.8645,6.3689-29.3401-.1113-36.8788-2.9776-3.4651-4.552-8.6168-4.552-14.8975,0-6.3554,1.6124-13.4526,4.6633-20.525,6.4124-14.8645,6.3689-29.3401-.1113-36.8788-5.0803-5.9111-5.9648-16.5076-2.4195-28.4392.5465.1894.9262.3614,1.124.5118.0067.0052.0118.0095.0175.0142-.0199.1054-.035.2093-.0542.3146-.0068.0239-.0084.0481-.0126.0729-.0243.1339-.0461.2668-.0691.4004-.0038.0206-.0154.0376-.0174.0589-.0018.0181-.0007.0376-.0023.0558-.1482.8748-.2789,1.7432-.3706,2.5868-.9307,8.5716.7152,15.8029,4.6343,20.3625,3.665,4.2647,5.1941,11.1198,4.3051,19.3025-.0002.0014-.0011.0025-.0012.004-.4608,4.2496-1.4974,8.6743-3.0799,13.1511-.5087,1.4386-1.0825,2.9004-1.7043,4.3435,0,.0003-.0004.0004-.0005.0007-1.5028,3.4823-2.6843,7.1416-3.4158,10.5823-.3286,1.5445-.5767,3.0767-.7378,4.5547-.1683,1.5576-.2544,3.0917-.2544,4.5592,0,6.6184,1.6902,12.0829,4.8887,15.8033,3.665,4.2647,5.1941,11.1198,4.3051,19.3025-.0002.0014-.0011.0025-.0012.004-.4608,4.2496-1.4974,8.6743-3.0799,13.1511-.5096,1.4413-1.0833,2.9026-1.7043,4.3435,0,.0003-.0004.0004-.0005.0007-1.5028,3.4823-2.6843,7.1416-3.4158,10.5823v.0002ZM625.8908,508.635l-.106.4409c-.3793,1.5771-.7695,3.1872-1.1887,4.8168-.6754,2.6282-1.3507,5.011-2.065,7.2837-.6772,2.1583-1.4286,4.3374-2.2325,6.4766-.0002.0005,0,.0011-.0003.0016-.3837,1.0228-.7621,2.0515-1.1395,3.0797l-.4952,1.348c-1.3363,3.6326-2.7177,7.3888-3.8648,11.0001-.6906,2.1744-1.2323,4.1352-1.6493,5.9619.1552-1.335.3759-2.71.6716-4.1001.7134-3.3529,1.8659-6.9216,3.3325-10.3207,0-.0003,0-.0007.0002-.0009.6336-1.4696,1.2184-2.9602,1.739-4.4311,1.6187-4.5782,2.6788-9.1084,3.1523-13.4644.0002-.0017-.0007-.0032-.0005-.0049.9313-8.569-.7136-15.7989-4.633-20.358-2.9776-3.4647-4.552-8.6159-4.552-14.897,0-1.4177.0832-2.9011.2472-4.409.1548-1.4313.3957-2.917.7143-4.4153.7134-3.3529,1.8659-6.9216,3.3325-10.3207,0-.0003,0-.0007.0002-.0009.6346-1.4719,1.2194-2.9629,1.739-4.4311,1.6187-4.5782,2.6788-9.1085,3.1523-13.4644.0002-.0017-.0007-.0032-.0005-.0049.9313-8.569-.7136-15.7989-4.633-20.358-3.3453-3.8921-4.9044-9.9462-4.4762-17.1949.1479.3908.315.7944.5018,1.2119.8003,1.7871,1.8803,3.6453,2.7314,5.0644,1.4802,2.467,2.8934,4.7163,4.2016,6.6867.0005.0007.0012.0008.0017.0015,0,0,0,.0002,0,.0003,1.2602,1.8858,2.4126,4.0975,3.4248,6.5726.6201,1.5164,1.2267,3.2243,1.9084,5.374.2218.698.4391,1.4019.6573,2.1089l.2752.8913c.6464,2.0986,1.3146,4.2686,2.3756,6.2603.7928,1.4868,1.7091,2.5584,2.7704,3.3027-.7643,2.933-1.7837,5.9039-3.0502,8.8395-3.1252,7.243-4.7764,14.5309-4.7764,21.0755,0,6.6188,1.6902,12.0838,4.8879,15.8033,1.1777,1.3707,2.1324,3.0365,2.8669,4.934-.1791.116-.3537.243-.5221.3816-.4961.407-.9424.903-1.3643,1.5178-.2861.4169-.5505.8727-.8093,1.3937-.3558.7157-.6881,1.5318-1.0167,2.4933-.3349.9795-.6537,2.0592-1.0321,3.4995-.3703,1.4087-.7198,2.8653-1.0764,4.3542h0ZM632.497,496.4615c-.5106.5115-1.0366,1.2276-1.5192,2.0705-.698,1.2172-1.3843,2.8105-2.1003,4.8711-.4189,1.2078-.8203,2.4921-1.2026,3.7684.209-.8589.4195-1.7085.6377-2.5372.3693-1.4069.679-2.4561,1.0031-3.4031.3087-.904.6174-1.6644.9461-2.3249.2291-.4621.4617-.8628.7097-1.2249.3467-.5051.7071-.9071,1.0999-1.2303.1278-.1047.2594-.2003.3936-.2874.064.0578.1274.1143.189.1637-.0521.0486-.1051.082-.1571.1341h0ZM636.0222,494.1227c-.0353.0308-.0752.0528-.111.083.0776-.0648.1535-.1321.2295-.1993-.0411.0371-.0768.0799-.1186.1163ZM637.2471,490.5136c-.679,1.133-1.4721,2.0479-2.4236,2.7975-.5837.4595-1.2036.8271-1.849,1.0999-.7884-2.0109-1.8121-3.7855-3.0759-5.2563-2.9776-3.4642-4.5511-8.6155-4.5511-14.897,0-6.3567,1.6124-13.454,4.6624-20.525,1.2499-2.8982,2.2616-5.8317,3.0355-8.7336.1627.0685.3307.1273.4889.2014,1.2348.5785,2.2859,1.2824,3.2139,2.1524.5636.5288,1.0251,1.0776,1.3879,1.6346-.257.6519-.5198,1.3032-.7995,1.9524-3.1252,7.243-4.7765,14.5309-4.7765,21.0755,0,6.6171,1.6894,12.0808,4.8854,15.8005.0007.0008.0008.0019.0015.0027.237.2752.4562.5726.6748.8689-.2437.6331-.5296,1.2493-.8749,1.8262h0ZM638.8125,485.9625c-.2114.1643-.4347.3235-.671.4775-2.7343-3.4534-4.1905-8.4128-4.1905-14.4249,0-6.2987,1.5877-13.3245,4.5838-20.3314.1329-.0802.2626-.1623.3901-.2459-.0043.1355-.0123.268-.0246.3954-.0706.717-.2544,1.4295-.4445,2.0962l-.0421.1479-.0195.0676c-.5219,1.7847-.9277,3.5476-1.2395,5.2786-.0048.0207-.0177.0374-.0208.0588-.0085.0586-.0138.1198-.022.1785-.0048.0202-.0174.0363-.0206.0573-.0086.0593-.0137.1201-.0222.1795-.1479.873-.2784,1.7397-.3708,2.5908-.0002.0019.0007.0033.0005.0052-.169,1.5481-.2548,3.08-.2548,4.5545,0,3.5798.499,6.8344,1.4789,9.6805.322,1.5751.6275,3.128.8269,4.8064.1647,1.3774.2814,2.7635.0625,4.4274h0Z"/>
  </g>
</svg>