<?xml version="1.0" encoding="UTF-8"?>
<svg xmlns="http://www.w3.org/2000/svg" viewBox="0 0 1000 1000">
  <g id="Layer_2" data-name="Layer 2">
    <path d="M703.7222,484.988c0-1.5092-.0453-3.026-.1434-4.5276-.3849-5.7878-1.5243-11.5982-3.3731-17.2879-2.294-7.0555-5.7425-14.013-10.2173-20.7138-.0227-.0302-.0377-.0604-.0604-.0906-.1358-.2037-.2716-.415-.415-.6263-.0227-.0377-.0453-.0755-.0754-.1132-.2113-.3094-.4377-.6339-.6792-.9583-4.2484-6.0595-9.4023-11.9454-15.3335-17.5143-.2188-.2188-.4528-.4377-.6867-.6565h0l-.2113-.1962s-.0604-.0528-.083-.0755c-4.3767-4.0296-9.2212-7.9309-14.4129-11.6284-.3018-.2188-.6112-.4377-.9357-.6641h0l-.0905-.0604c-.4452-.3094-.9357-.649-1.4488-.9885-3.7127-2.543-7.629-5.0181-11.6963-7.3649l-.6339-.3698h0c-.1962-.1132-.3924-.2264-.5961-.3396-1.1545-.6565-2.3996-1.3432-3.6674-2.0299l-.083-.0453c-.815-.4377-1.7205-.9206-2.6713-1.4262l-1.9771-1.0564c-.5961-.3169-1.1621-.6263-1.6903-.9131l-.7772-.4301h-.0226s-.0076-.0075-.0151-.0151c-.1585-.0906-.3396-.1811-.5282-.2867-.1962-.1056-.3924-.2113-.5961-.3169-.2641-.1358-.5207-.2717-.7697-.3924-.3999-.1962-.7697-.3773-1.1017-.5358-.566-.2717-1.1168-.5207-1.5998-.7244l-.2415-.1056h0l-.1736-.0755c-1.1847-.4905-2.6411-1.0942-4.3314-1.7884l-.6791-.2792c-1.0942-.4452-2.2185-.9055-3.3202-1.3658l-.3169-.1283c-.9055-.3773-1.8865-.7848-2.8826-1.2074-.6791-.2867-1.3583-.5886-2.0223-.8829-.5886-.2641-1.1395-.5207-1.6299-.7621-.2415-.1207-.4678-.2339-.6716-.3396h-.0076c-.1434-.0755-.3169-.1585-.5056-.249s-.3924-.1736-.6037-.2641c-.2716-.1132-.5509-.2264-.8074-.332-.4301-.166-.8527-.3245-1.23-.4603-.6641-.2339-1.3356-.4452-1.9544-.6263l-.415-.1132-.6339-.1736c-1.8186-.498-3.8636-1.0791-5.9463-1.6903-1.2526-.3698-2.5053-.7395-3.7127-1.1093l-1.1244-.3471c-.9508-.2943-1.9695-.6188-2.9581-.9583-.6641-.2264-1.3206-.4528-1.9318-.6867-.5433-.2037-1.0262-.3999-1.4413-.5886-.1585-.0755-.3094-.1434-.4377-.2037h0c-.1057-.0528-.2415-.1132-.3999-.1736-.166-.0679-.3547-.1358-.5584-.2113-.2566-.0906-.5282-.1736-.7848-.2566-.4377-.1358-.8829-.2566-1.2904-.3622-.7395-.1887-1.5168-.3698-2.3015-.5207-.3697-.0755-.7244-.1358-1.0715-.1962-1.1017-.1887-2.2864-.3924-3.5165-.6112-2.9203-.5282-5.8255-1.0715-8.3912-1.5847l-1.2074-.2415c-1.2979-.2641-2.5279-.5282-3.6296-.7772-1.0036-.2264-1.8412-.4301-2.5581-.6263-.5358-.1434-1.0489-.2943-1.4866-.4377-.3999-.1358-.7244-.2566-.9961-.3924l-.0377-.0151h0c-.0453-.0226-.0905-.0453-.1434-.0679-.1132-.0453-.249-.0906-.4075-.1358-.1887-.0528-.3924-.1132-.6037-.1585-.3471-.083-.7244-.1585-1.0791-.2264-.8452-.1585-1.7054-.2867-2.2789-.3698-1.1621-.1585-2.4675-.3018-3.7655-.415h0l-.8603-.0755c-2.1053-.1811-4.3088-.3773-6.5877-.581l-5.0785-.4528c-3.2674-.2867-6.4518-.5584-9.4476-.8074-3.5014-.2943-6.7386-.5509-9.5231-.7697l-.2868-.0226c-1.6828-.1358-3.2146-.2566-4.5276-.3698h-.0453c-1.6224-.249-3.2599-.4679-4.9125-.6339h-.0377c-1.2904-.0151-2.5808-.0302-3.8711-.0377-1.2904-.0075-2.5883-.0151-3.8862-.0226h-3.8938c-1.2979,0-2.5958.0075-3.8862.0226-1.2904.0075-2.5883.0226-3.8711.0377h-.0377c-1.645.166-3.2901.3848-4.9049.6339h-.0528l-.6188.0528c-1.3885.1132-3.0637.249-4.9502.3999-2.5656.2037-5.5388.4377-8.7685.7093-1.6752.1434-3.4259.2867-5.2218.4377-3.2448.2792-6.3462.5584-9.2665.815-2.4826.2188-4.8295.4301-7.0103.6188h-.0377l-.4377.0377h-.0151l-.415.0377c-1.1017.1056-2.2487.2339-3.3202.3848-1.3734.1887-2.4977.3773-3.524.5886-.2264.0453-.4754.1056-.7169.1585-.249.0604-.4829.1207-.6716.1811-.1283.0377-.2566.083-.3471.1207-.0453.0151-.083.0377-.1132.0528h0l-.0755.0377c-.1509.0755-.3471.1509-.5509.2264-.2641.0981-.5961.2037-.9583.3094-.3622.1056-.7546.2113-1.1244.3094-1.064.2792-2.1808.5358-3.026.7244-1.0414.2339-2.0903.4603-3.1467.6867l-1.6224.3471h0l-1.0489.2264c-1.1847.2566-2.3393.498-3.4259.732-.981.2113-1.962.4226-2.9429.6414h-.0226c-1.1168.3169-2.2412.6188-3.1542.8527h0l-.5735.1434c-.5509.1358-1.1244.2641-1.6299.3622-.498.0981-.9357.1736-1.2677.2188-.4829.0604-.7471.0604-.8753.0453-.0981-.0075-.1283-.0226-.1283-.0226h0c-.0226-.0075-.0453-.0075-.0679-.0151-.0151,0-.0377-.0075-.0528-.0151-.0302,0-.0453-.0151-.0755-.0226-.0981-.0075-.2264,0-.3848.0151-.1207.0151-.2717.0453-.4452.083-.166.0377-.3547.083-.5509.1358-.3924.1056-.8376.2415-1.2451.3773-.5056.166-1.0338.3547-1.5394.5509l-.2415.0906h0l-.7018.2717c-1.7054.6565-3.4561,1.2979-5.0634,1.8639-.6716.2339-1.4036.4829-2.1053.7169-.2641.0906-.5282.1736-.7772.249h0c-.415.1358-.7999.2566-1.1545.3547-.5056.1509-1.0036.2943-1.4187.3999-.4075.1056-.7395.1736-.981.2113-.3245.0528-.4377.0377-.4528.0302-.0151,0-.0302,0-.0453-.0075-.0226,0-.0453-.0151-.0679-.0151-.0905-.0151-.1887-.0151-.3245.0075-.0905.0151-.2037.0453-.3396.0755-.1283.0377-.2792.083-.4452.1358-.3245.1056-.7093.249-1.0866.3924-.4452.1736-.9206.3698-1.3809.566-.1962.083-.3924.1736-.5735.2566-.5433.2415-1.1093.4905-1.6752.7395-1.6224.7093-3.2297,1.396-4.6559,1.9771-.5735.2339-1.1847.4829-1.7582.7093-.0075,0-.0151.0151-.0302.0151h-.0302c-.581.2339-1.1168.4377-1.5545.5961-.4452.166-.8602.3094-1.1847.415-.3094.0981-.5282.1585-.6791.1811-.0604.0075-.0906.0151-.1056.0151h-.0755c-.0755,0-.1434,0-.2113.0151-.1132.0302-.3094.0906-.5886.2037-.2566.0981-.5886.2415-.9357.3999-.3848.1736-.8074.3698-1.23.5735-.3018.1434-.6037.2943-.8753.4301h0c-.8301.415-1.7129.8602-2.6034,1.2979-.7244.3547-1.4564.7169-2.1582,1.064-.7093.3471-1.396.6791-2.0374.9885l-.7923.3773h0l-.7395.3547c-.4754.2264-.8904.4226-1.2074.5735-.815.3773-1.1696.5207-1.2677.5509h-.0755c-.0151,0-.0302,0-.0453.0075-.0604.0226-.1887.0755-.3999.1811-.1962.0981-.4679.2339-.7697.3999-.3169.166-.6867.3698-1.0715.5735-.3773.2037-.7697.4226-1.1395.6263h0l-.1811.0981c-1.0338.581-2.1733,1.2074-3.275,1.8261-.664.3773-1.3206.7471-1.9469,1.0942-.6188.3547-1.1998.6867-1.728.9885-.5207.3018-.9885.5735-1.3734.7999-.2943.1736-.5282.3169-.7395.4452-3.2448,1.9318-6.3915,3.9315-9.3948,5.984-.1434.0981-.2943.1962-.4377.2943-.2339.1585-.4603.3169-.6716.4603,0,0-.0151.0075-.0151.0151-.2188.1509-.4226.2943-.5961.4226-.0604.0453-.1132.083-.1736.1283-3.7202,2.6109-7.2819,5.3426-10.5946,8.1271-.0075,0-.0151.0151-.0226.0226l-.0151.0151h0c-3.6145,3.0486-7.0254,6.2255-10.1268,9.4552h0c-3.1769,3.3052-6.1123,6.7461-8.7308,10.2173-.0075.0075-.0151.0226-.0226.0302h0c-1.5092,2.0072-2.9429,4.0749-4.2635,6.1349-4.3314,6.7763-7.6064,13.8243-9.7193,20.9402-1.6677,5.5991-2.6336,11.3266-2.8826,17.0087-.0453.9885-.0604,1.9771-.0604,2.9656v30.1841c0,31.5575,21.2572,61.2134,59.8626,83.5043,38.5376,22.2532,89.7675,34.5004,144.2574,34.5004s105.7198-12.2547,144.2574-34.5004c38.6054-22.291,59.8626-51.9393,59.8626-83.5043v-30.1916l-.0529.0679ZM702.6507,491.621c-.2113-.9583-.498-2.0072-.8753-3.109-.2943-.8452-.6339-1.7356-1.0187-2.6411h0c-.1132-.2717-.2188-.5282-.3094-.7772-.2188-.5886-.3697-1.1244-.4452-1.562-.1132-.649-.0302-.8678,0-.9282h.0754c.0377.0075.1132.0302.2264.0905h.0151s.0076.0075.0151.0075c.5207.2792,1.0036.4452,1.4187.4829.0604,0,.1207.0075.1735.0075.3924,0,.7395-.1283,1.0112-.3622.0905,2.9203,0,5.8557-.2792,8.776l-.0076.0151ZM694.7349,516.6964c-.0754-1.2451-.3094-2.6411-.6942-4.1428-.1132-.4226-.1811-.8225-.2188-1.1847-.0377-.4226-.0227-.7848.0453-1.0564.0302-.1283.083-.2339.1358-.3094.0453-.0604.0981-.1056.1585-.1283.0302-.0075.0905-.0226.1811-.0151.083.0075.1887.0377.2868.083.0453.0226.0981.0453.1509.0755h0c.2868.1585.5584.2868.8225.3924.5131.1962,1.0112.3018,1.4564.3094h.0076c.3697,0,.7093-.0905,1.0262-.2264-.981,2.5279-2.0978,5.0483-3.3655,7.5385.0227-.4829.0227-.9433,0-1.3356h.0075ZM687.5738,524.0991c-.0981-.498-.1358-.9659-.1132-1.3507.0227-.3471.0905-.6414.2038-.8376.0528-.0905.1132-.166.1811-.2113.0679-.0453.1358-.0755.2188-.083.0905-.0075.2038,0,.3245.0377.1132.0302.2339.083.3546.1509.0905.0528.1811.0981.2716.1434.5282.2641,1.0565.4603,1.5394.5584.2792.0604.5584.0905.8225.0905.2188,0,.4377-.0226.6414-.0604.1057-.0226.2038-.0528.3019-.083-1.3734,2.3468-2.875,4.6861-4.505,6.9801.0227-.1585.0604-.3094.0754-.4754.1509-1.3809.0377-3.0561-.3169-4.8521v-.0076ZM691.8675,521.79c-.3471.0679-.747.0604-1.1621-.0226s-.8829-.2566-1.3507-.4905c-.083-.0377-.166-.083-.249-.1283h0l-70.178-40.5146v-2.8599c3.5919-.0528,6.9876-.8527,9.6212-2.2713l64.7902,37.4056c.3546,1.396.5735,2.6939.6414,3.8485.0754,1.3583-.0528,2.5279-.3773,3.3882-.0679.166-.1358.332-.2188.4829h0c-.1358.249-.2943.4603-.4754.6339-.2943.2868-.6414.4678-1.0338.5509l-.0076-.0226ZM686.7211,523.4577l-70.6233-40.7712c.1887-.1132.3697-.2264.5433-.332l.5735-.3547c.1887-.1132.3622-.2188.5131-.3094.1509-.0905.3018-.1736.4301-.2339.1283-.0679.2339-.1207.3094-.1585l.0604-.0302,68.9179,39.7902s-.0377.0151-.0528.0302c-.1585.1132-.2868.2641-.3924.4528-.2113.3773-.2792.8452-.3019,1.1696-.0151.2339,0,.4905.0151.7546l.0076-.0075ZM448.4326,386.3162l13.6583-7.8856c2.2261,3.5995,5.3577,5.8784,8.0214,6.0595l-12.2246,7.0555h0c-2.5506,1.4262-5.901,2.2261-9.4476,2.2789v-7.5083h-.0076ZM448.3647,385.4861c-.0453-.2415-.1132-.4829-.2113-.6942-.0981-.2188-.2339-.4226-.3848-.5886-.1585-.1736-.3396-.3245-.5358-.4377-.1434-.083-.2943-.1434-.4528-.1887l12.4132-7.1687c.6339-.3471,1.7205.2867,2.4902,1.3885l-13.3112,7.6894h-.0075ZM472.4064,384.0373c.6339-.3396,1.7205.2867,2.4902,1.3885l-13.3112,7.6894c-.0453-.2415-.1132-.4829-.2113-.6942-.0981-.2188-.2339-.4226-.3848-.5886-.1585-.1736-.3396-.3245-.5358-.4377-.1434-.083-.2943-.1434-.4528-.1887l12.4132-7.1687h-.0075ZM534.1781,399.5142c0-5.4105-3.6221-10.489-10.2022-14.2846-13.3338-7.6969-34.9607-7.7498-48.4228-.166-.5584-.8301-1.2451-1.4187-1.9242-1.6903,2.8071-1.4866,5.9463-2.7241,9.3495-3.6749,3.4636-.9659,7.1385-1.6224,10.9342-1.9544,3.7806-.332,7.6139-.332,11.3945,0,3.7957.332,7.4706.9885,10.9342,1.9544,3.4938.9734,6.7235,2.2487,9.5835,3.7881h0c.332.1811.6565.3547.9734.5433,7.1914,4.1503,11.153,9.6514,11.153,15.4844s-3.856,11.1681-10.8512,15.2958c-.5735-.8527-1.2828-1.4488-1.9846-1.7054,5.8557-3.7126,9.0628-8.5044,9.0628-13.5904h0ZM523.6061,413.1423c-.1358.0755-.2792.1358-.4301.1887-2.86,1.0112-7.0631-1.9469-9.5004-6.6179,3.5466-2.1431,5.4935-4.9577,5.4935-7.9686s-2.0601-5.9915-5.8029-8.1573c-7.5762-4.3767-19.914-4.3767-27.4977,0l-1.0564.6112c-2.5883.8904-6.3311-1.4639-8.8439-5.5086,13.2508-7.4404,34.5155-7.38,47.6305.1887,6.3387,3.6598,9.8249,8.4968,9.8249,13.6281s-3.4863,9.9683-9.8174,13.6281v.0076ZM461.6457,393.9452l13.6583-7.8856c2.1733,3.5089,5.2747,5.8104,7.9233,6.0519l-10.9266,6.3085s-.0075.0075-.0151.0151c0,0-.0151,0-.0151.0075-2.6034,1.8714-6.4669,2.958-10.6248,3.0184v-7.5158ZM486.2382,391.2438c7.3725-4.256,19.3707-4.256,26.7431,0,3.5014,2.0223,5.4256,4.6861,5.4256,7.5007s-1.9242,5.4784-5.4256,7.5007l-13.3716,7.7196-26.3658-15.2203s12.9943-7.5007,12.9943-7.5007ZM499.9871,414.6214l13.032-7.5234c2.1657,4.1201,5.6972,6.9423,8.6553,7.1536l-12.2472,7.0706h0c-2.5506,1.4262-5.8934,2.2185-9.4476,2.2789v-8.9722l.0076-.0075ZM523.9684,413.7988c.5735-.3018,1.6526.1962,2.4826,1.396l-13.3112,7.6894c-.0453-.2415-.1132-.4829-.2113-.6942-.0981-.2188-.2339-.4226-.3849-.5886-.1585-.1736-.3396-.3245-.5358-.4377-.1434-.083-.2943-.1434-.4528-.1887l12.4132-7.1687v-.0075ZM513.2002,423.7143l13.6583-7.8856c2.2261,3.5995,5.3577,5.8784,8.0214,6.0595l-12.2321,7.0631h0c-2.5506,1.4262-5.8934,2.2185-9.4476,2.2789v-7.5158ZM537.1815,421.4279c.5735-.3094,1.6526.1962,2.4826,1.396l-13.3112,7.6894c-.0453-.2415-.1132-.4829-.2113-.6942-.0981-.2188-.2339-.4226-.3849-.5961-.1585-.1736-.3396-.3245-.5358-.4377-.1434-.083-.2943-.1434-.4528-.1887l12.4132-7.1687ZM526.4208,431.3433l13.6583-7.8856c2.2261,3.5995,5.3577,5.8784,8.0214,6.0595l-12.2246,7.0555h0c-2.5506,1.4262-5.8934,2.2185-9.4476,2.2789v-7.5083h-.0076ZM550.4021,429.0644c.6339-.3396,1.7205.2867,2.4826,1.396l-13.3112,7.6894c-.0453-.2415-.1132-.4829-.2113-.6942-.0981-.2188-.2339-.4226-.3849-.5961-.1585-.1736-.3396-.3245-.5358-.4377-.1434-.083-.2943-.1434-.4528-.1887l12.4132-7.1687h0ZM539.6339,438.9724l13.6583-7.8856c2.2261,3.5995,5.3577,5.8784,8.0214,6.0595l-12.2321,7.0631h0c-2.5506,1.4262-5.8934,2.2185-9.4476,2.2789v-7.5158ZM563.6152,436.6935c.5735-.3018,1.6526.1962,2.4826,1.396l-13.3112,7.6894c-.0453-.2415-.1132-.4829-.2113-.6942-.0981-.2188-.2339-.4226-.3849-.5961-.1585-.1736-.3396-.3245-.5358-.4377-.1434-.083-.2943-.1434-.4528-.1887l12.4132-7.1687h0ZM552.847,446.609l13.6583-7.8856c2.2261,3.5995,5.3577,5.8784,8.0214,6.0595l-12.2321,7.0631h0c-2.5506,1.4262-5.8934,2.2185-9.4476,2.2789v-7.5158ZM576.8283,444.3225c.5735-.3094,1.6526.1962,2.4826,1.396l-13.3112,7.6894c-.0453-.2415-.1132-.4829-.2113-.6942-.0981-.2188-.2339-.4226-.3849-.5961-.1585-.1736-.3396-.3245-.5358-.4377-.1434-.083-.2943-.1434-.4528-.1887l12.4132-7.1687ZM566.0676,454.238l13.6583-7.8856c2.2261,3.5995,5.3577,5.8784,8.0214,6.0595l-12.2321,7.0631h0c-2.5506,1.4262-5.8934,2.2185-9.4476,2.2789v-7.5158ZM590.0489,451.9515c.6339-.3396,1.7205.2867,2.4826,1.396l-13.3112,7.6894c-.0453-.2415-.1132-.4829-.2113-.6942-.0981-.2188-.2339-.4226-.3849-.5961-.1585-.1736-.3396-.3245-.5358-.4377-.1434-.083-.2943-.1434-.4528-.1887l12.4132-7.1687ZM579.2807,461.867l13.6583-7.8856c2.2261,3.5995,5.3577,5.8784,8.0214,6.0595l-12.2321,7.0631h0c-2.5506,1.4262-5.8934,2.2185-9.4476,2.2789v-7.5158ZM603.262,459.5806c.6339-.3396,1.7205.2867,2.4902,1.3885l-13.3112,7.6894c-.0453-.2415-.1132-.4829-.2113-.6942-.0981-.2188-.2339-.4226-.3849-.5961-.1585-.1736-.3396-.3245-.5358-.4377-.1434-.083-.2943-.1434-.4528-.1887l12.4132-7.1687-.0075.0075ZM592.5014,469.496l13.6583-7.8856c2.2261,3.5995,5.3577,5.8783,8.0214,6.0595l-12.2321,7.0631h0c-2.5506,1.4262-5.8934,2.2185-9.4476,2.2789v-7.5158ZM616.4751,467.2096c.6339-.3396,1.7205.2868,2.4902,1.3885l-13.3112,7.6894c-.0453-.2415-.1132-.4829-.2113-.6942-.0981-.2188-.2339-.4226-.3849-.5961-.1585-.1736-.3396-.3245-.5358-.4377-.1434-.083-.2943-.1434-.4528-.1887l12.4132-7.1687-.0075.0075ZM605.7145,477.1251l13.6583-7.8856c2.1959,3.5542,5.2294,5.818,7.863,6.0595-2.4675,1.1093-5.5011,1.7205-8.6855,1.7205-.2113,0-.3773.166-.3773.3773v3.2071h-.0226c-.083.0528-.2037.1056-.3396.1811-.1358.0755-.2943.1585-.4528.249s-.3396.2037-.5358.3169l-.5735.3622c-.2264.1434-.4678.2943-.7093.4377-.1207.0755-.249.1434-.3622.2113-2.5581,1.4262-5.901,2.2261-9.4476,2.2789v-7.5083l-.0151-.0076ZM693.0673,511.4444c.0151.1434.0377.3018.0679.4603l-63.8167-36.8472c.1887-.1132.3697-.2264.5433-.332l.3697-.2339h0l1.1545-.6791c.1358-.0755.249-.1283.3396-.1736h.0151l61.8699,35.7078c-.0754.0604-.1434.1283-.2113.2113-.1132.1509-.2038.3471-.2641.566-.1207.4452-.1057.9583-.0679,1.313v.0075ZM697.9496,509.7465c-.249.1434-.5508.2188-.8753.2188h0c-.3471,0-.7622-.0905-1.1847-.2566-.2264-.0905-.4754-.2037-.7244-.3471h0l-63.0395-36.3945c-.0076-.166-.0226-.4301-.0453-.7848l-.1132-2.1808c1.9846-.0679,3.9013-.3698,5.6897-.9206,1.3055-.3999,2.4977-.9282,3.5542-1.5469l56.7235,32.7498c.3697,1.1168.6641,2.1883.8603,3.1769.3094,1.5092.415,2.8675.3019,3.9239-.0453.4452-.1283.8452-.249,1.1847h0c-.0377.1056-.0754.2037-.1207.3018-.1887.4075-.4452.7093-.7622.8904l-.0151-.0151ZM697.5723,499.084c.0076.0453.0302.0981.0377.1434l-55.6972-32.1612c.1057-.0679.2037-.1358.3094-.2037.2566-.1811.498-.3622.7697-.5509l.9885-.7018c.0528-.0377.0981-.0679.1358-.0981l53.6598,30.984c-.1132.1207-.2113.2566-.2716.4377-.0604.1887-.0981.415-.1057.6641-.0151.415.0453.9131.1811,1.479l-.0075.0075ZM698.591,499.9065c-.1132-.3471-.2113-.6791-.2792-.9885-.1132-.498-.1735-.9433-.1585-1.2904,0-.1811.0302-.332.0679-.4452.0227-.0604.0604-.1434.1132-.1887.0151-.0075.0377-.0226.083-.0226.0604,0,.1283.0075.1962.0377.0679.0226.1358.0528.2113.0981h0c.4301.2339.8376.4075,1.2073.498.2566.0679.5131.0981.747.0981.2264,0,.4301-.0302.6263-.0905.1434-.0453.2792-.1132.4075-.1887-.498,2.7015-1.1546,5.4105-1.9771,8.0893-.0528-.6867-.1585-1.4337-.3169-2.211-.2188-1.064-.5282-2.2034-.9281-3.3957h0ZM701.7829,496.4505c-.1057.1509-.3019.3471-.5961.4377-.2566.083-.6037.0755-.9659-.0226-.3094-.083-.6716-.2264-1.0338-.4301l-54.8596-31.6707c-.0377-.083-.1132-.332-.2339-.9885-.1057-.5509-.2264-1.3206-.3697-2.2789,1.8488-.1207,3.6296-.4679,5.3049-1.0564,1.2677-.4452,2.4223-1.0036,3.4485-1.6677l47.6305,27.4977c.3546.8527.6792,1.6828.9508,2.4751.5811,1.6828.9659,3.2372,1.1168,4.4974.0981.8074.0981,1.5017.0151,2.0676-.0754.4829-.2113.8602-.4075,1.1319v.0075ZM699.255,483.6599c.0754.4301.2264.9508.415,1.5017l-46.5137-26.8563c.166-.1283.3396-.2566.498-.3924.1962-.1585.3849-.3245.5584-.4754l.6339-.566c.1057-.0906.1887-.1736.2566-.2415,0,0,.0151-.0151.0226-.0226l44.2575,25.5508s-.0151.0151-.0151.0226c-.2038.3169-.2415.7697-.1207,1.4715l.0076.0075ZM702.7865,481.532c-.0604.3245-.166.5735-.3169.7169-.1887.1887-.4603.2037-.6489.1887-.3019-.0302-.7018-.166-1.147-.4075l-45.4573-26.2451h0c-.0755-.0906-.2415-.3622-.5207-1.2375-.1962-.6037-.415-1.4111-.6489-2.3845,1.7129-.1736,3.3731-.5584,4.9351-1.1621,1.2376-.4829,2.3619-1.0791,3.358-1.7884l36.6963,21.1892c.3245.5961.6263,1.1847.9131,1.7507.9584,1.9167,1.6979,3.6674,2.1959,5.1992.4075,1.2526.6414,2.3166.6942,3.1693.0302.3924.0151.7395-.0377,1.0263l-.0151-.0151ZM697.7609,467.7378c.166.4226.3849.9131.6339,1.4262l-35.4135-20.4497c.1811-.1509.3547-.3018.5131-.4603.1736-.166.3396-.332.483-.4829l.5735-.649c.0755-.0906.1207-.166.1736-.2339l32.7196,18.8877c-.0302.0679-.0453.1434-.0604.2264-.0453.3848.0679.9055.3849,1.728l-.0076.0075ZM700.3265,466.2135c.8829,3.1165,1.5394,6.2707,1.9846,9.4174-.4603-1.1847-1.0187-2.46-1.7054-3.8258-.3019-.6037-.6263-1.23-.9659-1.8639h0c-.1057-.1887-.2038-.3773-.2943-.5584-.3622-.7093-.6641-1.3734-.8753-1.9167-.2264-.5961-.3396-1.0263-.3546-1.2904.0227.0075.0453.0226.0754.0377.1283.0679.2566.1358.3773.1887.332.1434.6414.2188.9131.2188.083,0,.166-.0075.2415-.0226.1735-.0377.4226-.1283.6112-.3848h-.0076ZM699.4814,463.4064c.0905.2868.1735.5584.2339.8225.1207.5056.1585.9282.1207,1.2225-.0528.3622-.2038.3924-.2641.4075-.0604.0075-.2792.0377-.7018-.1509-.0981-.0453-.2113-.0981-.3169-.1585h0l-33.8741-19.5593s-.0604-.0453-.1057-.0981c-.1585-.1736-.4301-.566-.8301-1.4866-.2868-.6565-.6112-1.4941-.9583-2.5053,1.5922-.2188,3.1316-.6339,4.5804-1.2602,1.2074-.5207,2.3015-1.1621,3.2674-1.9016l22.0495,12.7301c.2339.332.4678.6565.6942.981,1.5394,2.2034,2.8977,4.3616,3.939,6.2406,1.0262,1.8563,1.7658,3.441,2.1808,4.7163h-.0151ZM689.4603,446.3373c.2188.6037.7169,1.4111,1.2149,2.1959.2868.4528.6188.9508.981,1.4715l-20.4195-11.7869c.083-.083.1736-.1509.2566-.2339.1962-.2037.3773-.4075.5358-.6037.0905-.1132.1736-.2188.2415-.3169.0453-.0604.0905-.1207.1283-.1811l.0981-.1509c.0377-.0604.0755-.1207.1057-.1736.0604-.1056.1132-.2037.1509-.2867l16.6163,9.591s-.0076.0528,0,.083c.0076.1132.0377.2339.0981.3924h-.0076ZM689.8149,446.126h.0151-.0227.0076ZM691.2713,446.2769c.0453-.0453.0905-.1056.1358-.1887,2.0223,3.3052,3.7881,6.6707,5.2898,10.0664-.8074-1.313-1.6979-2.6939-2.7015-4.1352-.2415-.3471-.4905-.6942-.7395-1.0489h0l-.2264-.3169c-.6489-.9206-1.2225-1.7658-1.6979-2.5128-.3849-.6112-.7923-1.2677-1.0262-1.7884.1132.0453.2264.083.3245.0981.0604.0075.1207.0151.1735.0151.2566,0,.4075-.1056.4905-.1811l-.0227-.0075ZM678.0733,429.5776c3.2523,3.275,6.067,6.399,8.3459,9.2665.6263.7848,1.1923,1.5394,1.7054,2.2487.2264.3169.4603.6414.6792.9583.1887.2717.3622.5509.5433.8301.4.6188.7244,1.1772.9508,1.645.2716.5509.415.9508.4301,1.1772-.0377,0-.1585-.0377-.3622-.1358l-.1132-.0604-17.703-10.2249c-.0905-.0604-.1962-.1509-.3018-.2641-.4528-.4754-1.2451-1.6224-2.5053-4.3918,1.4715-.2641,2.8977-.7093,4.2484-1.3507.8452-.3999,1.6299-.8753,2.3619-1.396.581.566,1.1545,1.1395,1.7205,1.7054v-.0075ZM666.6939,418.6585c.5207.3547,1.0489.7395,1.5847,1.1319.5961.4377,1.1545.8829,1.6828,1.3055.7018.566,1.3583,1.1319,1.9771,1.6903.0905.083.1811.1585.2641.2415l.0302.0226h0c.083.0755.1585.1509.2415.2264.1434.1283.2792.2641.4226.3999.6188.6037,1.1772,1.1923,1.6526,1.7507.5735.6716,1.0262,1.2904,1.3583,1.8488-.6942.4905-1.4337.9433-2.2261,1.3206-1.4187.6716-2.9279,1.1319-4.505,1.3734l.0377.3773-.332.1887c1.1319,2.5355,2.0827,4.2258,2.8298,5.0106.1358.1434.2641.249.3849.3396,0,.0226-.0151.0528-.0302.0906-.0302.0604-.0604.1358-.1132.2113-.0302.0453-.0528.0906-.0905.1434l-.2037.2943c-.0679.0906-.1434.1887-.2264.2943-.1434.1811-.3094.3698-.483.5509-.1736.1811-.3547.3471-.581.5358h0c-.9659.7697-2.0752,1.4262-3.3052,1.9544-1.5168.649-3.1241,1.0791-4.7917,1.2677h-.0453c-.1358.0151-.2339.1056-.2792.2264v.0075c-.0076.0226-.0151.0453-.0151.0679-.0151.0679-.0226.1434,0,.2188.4075,1.1998.7848,2.1959,1.1244,2.9656.3622.8225.6791,1.3734.9659,1.6903.0302.0302.0528.0453.083.0679-.0377.0528-.0755.1132-.1358.1811l-.5282.5961c-.1358.1434-.2868.3018-.4528.4603-.1887.1736-.3773.3547-.581.5207-.0981.083-.1962.1585-.3018.2339-.9961.7244-2.1355,1.3432-3.3957,1.8337-1.6149.6263-3.3354,1.0187-5.1388,1.1621h-.0226c-.1283.0151-.2188.0906-.2792.1887,0,.0075-.0076.0226-.0151.0302-.0076.0226-.0151.0377-.0226.0604-.0226.0679-.0302.1358-.0151.2113.2792,1.1621.5358,2.1129.7622,2.8222.2641.815.4452,1.1772.566,1.3734-.0528.0528-.1132.1056-.1887.1736l-.6263.5509c-.1736.1509-.3547.3018-.5433.4603-.2188.1811-.4377.3547-.6641.5131-.0905.0604-.1736.1207-.2566.1811-1.0187.6867-2.1959,1.2602-3.4863,1.7129-1.7205.5961-3.5542.9508-5.4709,1.0413v.0226h-.0755c-.2037.0302-.3471.2339-.3169.4377.166,1.1395.3094,2.0374.4301,2.6788.0981.5282.1736.8376.2415,1.0338-.0151.0151-.0302.0226-.0528.0377l-1.0414.7395c-.2264.166-.4678.3396-.7169.5207-.2641.1811-.5207.3622-.7622.5056h0s-.0226.0075-.0302.0151c-1.0489.6414-2.2563,1.1772-3.5844,1.5847-1.8261.566-3.7881.8678-5.8482.9055h-.0226c-.2113,0-.3547.1811-.3471.3848,0,.0151,0,.0226.0076.0302h-.0226l.1283,2.5355c.0151.3773.0302.6112.0377.7621-.083.0453-.1887.0981-.3169.166l-1.1998.7093h0l-.3697.2339c-.0905.0604-.1962.1207-.2943.1811-2.5581,1.1847-6.5198-1.1772-9.1382-5.403,23.8303-13.8394,39.8355-31.2556,46.3326-50.4301.1132.0755.2188.1434.332.2264h.0151ZM663.4491,416.2287c.2264.1962.498.4301.8074.6791.1887.1509.3999.3169.6263.4905.1736.1283.3547.2641.5358.3924.1057.0755.1962.1358.2943.2037-6.399,19.0764-22.3211,36.4398-46.0911,50.2339-.5735-.8452-1.2753-1.4413-1.9695-1.6979,23.8002-14.013,39.345-31.6178,45.0271-51.0036.2264.2188.483.4528.7772.7093l-.0075-.0075ZM650.6737,406.6527c.5358.3245,1.0942.6716,1.6677,1.0338.6339.3999,1.2602.8074,1.8563,1.1923.3245.2188.6339.4226.9433.6263.5056.3471,1.0187.6867,1.5092,1.0338h.0076c.3094.2113.6037.4301.9131.649.7848.566,1.5017,1.1093,2.1355,1.6224.9583.7697,1.7356,1.4564,2.3544,2.0902-5.6142,19.6649-21.4986,37.5188-45.9478,51.6375-2.5204,1.3507-6.633-1.0263-9.3042-5.32,25.2716-14.6846,40.7033-34.1005,43.5481-54.7615l.3094.1887.0076.0075ZM649.6625,406.034c-2.6939,20.5554-18.0426,39.9185-43.2614,54.5578-.5735-.8452-1.2753-1.4413-1.9695-1.6979,25.1207-14.8279,39.8883-34.3344,41.6918-55.0935l3.5391,2.2412v-.0075ZM632.0048,395.9148l.1736.0981c.5282.2867,1.1017.5961,1.6979.9131l1.9771,1.0564c.9433.5056,1.8488.9885,2.6637,1.4262l.083.0453c1.2602.6791,2.5053,1.3658,3.6523,2.0223,1.2149.6867,2.2487,1.313,3.1542,1.879-1.6601,20.9704-16.7446,40.7033-42.5068,55.5765-2.5204,1.3507-6.6405-1.0263-9.3042-5.32,26.1998-15.2354,40.1449-36.2058,38.4093-57.6818v-.0151ZM627.198,393.5c.3849.166.7848.3471,1.1998.5509.3245.1585.6942.332,1.0866.5282.2415.1207.498.249.7622.3848.1962.1056.3999.2037.5886.3094.1358.0755.2641.1434.3773.2037,1.9771,21.3553-11.8699,42.2804-38.032,57.4856-.5735-.8452-1.2753-1.4413-1.9771-1.7054,25.9357-15.3637,39.0054-36.3266,35.987-57.7648l.0075.0076ZM612.8379,387.4934c.6641.3018,1.3583.5961,2.0374.8904.9961.4301,1.9846.8376,2.8901,1.2149l.3169.1283c1.1093.4603,2.2261.9206,3.3278,1.3658l.6791.2792c1.6828.6867,3.1316,1.2904,4.3088,1.7733,3.2674,21.5892-10.0966,42.7709-36.7039,58.1346-2.5204,1.3583-6.6405-1.0263-9.3042-5.32,26.7658-15.5825,38.2659-37.6245,30.9387-59.1759.4678.2264.9734.4603,1.5168.7093h-.0076ZM607.4199,385.1164c.3697.1283.7848.2792,1.2074.4452.2566.0981.5282.2113.7923.3245.2037.083.3999.1736.581.2566.1358.0604.249.1207.3622.1736,7.7045,21.4232-3.6447,43.4576-30.3954,59.0175-.5735-.8452-1.2828-1.4413-1.9771-1.7054,26.0489-15.5071,36.6586-37.9641,27.8675-59.0175.5056.1509,1.0414.3245,1.5696.5056h-.0075ZM588.7359,379.404c.6188.2339,1.2828.4679,1.9544.6942.9961.3396,2.0148.664,2.9731.9659l1.1319.3471c1.2074.3698,2.46.7395,3.7202,1.1093,2.0902.6112,4.1352,1.1923,5.9538,1.6903l.4603.1283c9.1986,21.144-1.6903,43.8575-28.4636,59.3193-2.5204,1.3583-6.6405-1.0263-9.3042-5.3275,14.8053-8.6327,24.3586-20.0272,26.9167-32.1234,1.9393-9.1684-.1585-18.5029-6.0444-27.0751.2264.0906.4528.1811.7018.2792v-.0075ZM581.6426,377.1327c.7697.1509,1.5318.3245,2.2638.5131.3999.1056.8301.2188,1.2602.3471.2566.0755.5131.1585.7622.249.1887.0679.3622.1283.5207.1962.1057.0453.1887.083.2641.1132,6.3085,8.6704,8.6025,18.1784,6.633,27.5053-2.5128,11.8925-11.9529,23.121-26.5847,31.648-.5735-.8527-1.2828-1.4488-1.9846-1.7054,14.1186-8.4591,22.9927-19.5065,25.0302-31.2405,1.645-9.4929-1.1998-19.0235-8.2101-27.6335.0151,0,.0377,0,.0528.0075h-.0076ZM561.2231,373.0805c.7244.1962,1.5696.3999,2.5883.6339,1.1093.249,2.3393.5131,3.6447.7772l1.2074.2415c2.5732.5131,5.4784,1.064,8.4063,1.5847,1.1847.2113,2.3091.4075,3.3806.5886,7.2744,8.6176,10.255,18.1935,8.6025,27.709-2.0525,11.8246-11.2134,22.9776-25.7999,31.4066-2.5204,1.3583-6.6405-1.0263-9.3042-5.32,13.7187-8.0214,21.5741-18.6538,22.1098-29.9728.4754-9.9909-4.8898-19.7706-15.16-27.7467.1057.0302.2113.0604.3245.0906v.0076ZM554.2808,371.2921c.566.0755,1.4111.2037,2.2412.3622.3471.0679.7093.1434,1.0414.2188.1962.0453.3924.0981.566.1509.1283.0377.249.0755.332.1132.0302.0151.0528.0226.0755.0302,11.304,8.0592,17.2578,18.1935,16.7673,28.524-.5282,11.0625-8.2629,21.4835-21.7703,29.3691-.5735-.8452-1.2753-1.4413-1.9695-1.6979,12.8735-7.7724,19.9592-17.9595,19.997-28.7881.0377-10.6927-6.8216-20.7818-19.3556-28.5466.7169.0755,1.4262.1585,2.0827.249l-.0076.0151ZM528.5865,368.9679c2.9882.249,6.1802.5207,9.4401.8074l5.0785.4528c2.2789.2037,4.4823.3999,6.5877.581l.7772.0679c13.1527,7.7271,20.3743,17.9143,20.3365,28.7126-.0377,10.8663-7.4102,21.0987-20.7667,28.8107-2.5204,1.3583-6.6405-1.0263-9.3118-5.3275,10.7455-6.3085,16.6692-14.6619,16.6692-23.5587s-6.0368-17.4313-17.0012-23.7624c-.483-.2792-.9734-.5509-1.4715-.815h0c-1.6526-.8904-3.4033-1.728-5.2143-2.4977-1.796-.7621-3.69-1.479-5.6369-2.1129-1.9318-.6339-3.9466-1.2149-5.9915-1.7129-.3622-.0906-.732-.166-1.0942-.249,2.3166.1811,4.8672.3924,7.5913.6188l.0075-.0151ZM509.231,368.3793c.0453-.3471.0981-.6414.1585-.8829.0377-.1434.0604-.2339.0905-.2943,2.0902.2113,4.1805.4905,6.2179.8376,2.1053.3622,4.1956.7923,6.2104,1.2904,2.0223.498,4.022,1.0715,5.9312,1.6979,1.9242.6339,3.8032,1.3356,5.5765,2.0902,1.7884.7546,3.5165,1.5847,5.1539,2.4676h0c.4905.2641.9734.5358,1.4488.8074,10.7229,6.1877,16.6239,14.3978,16.6239,23.1135s-5.8029,16.7597-16.3296,22.9324c-.5735-.8527-1.2828-1.4488-1.9846-1.7054,9.3797-5.7501,14.5337-13.2508,14.5337-21.227s-5.569-16.0806-15.6806-21.9137c-7.6818-4.4371-17.3709-7.3649-28.041-8.4893.0226-.2566.0528-.498.083-.7244h.0076ZM493.7843,367.1418c1.2904-.0075,2.5883-.0151,3.8862-.0226h3.8862c1.2979,0,2.5883.0075,3.8862.0226,1.0866.0075,2.1808.0226,3.2599.0377-.0151.0528-.0302.0906-.0453.1434-.0604.2566-.1207.581-.1736.9508-.0302.2415-.0604.5056-.0905.7772-5.8557-.1736-11.719-.1736-17.5747,0-.0302-.2717-.0528-.5358-.0905-.7772-.0528-.3698-.1132-.6942-.1736-.9508-.0151-.0604-.0302-.0906-.0453-.1434,1.0866-.0151,2.1733-.0226,3.2599-.0377h.0151ZM508.7179,369.813c10.7078,1.0866,20.4195,3.9994,28.1014,8.4365,9.8702,5.6972,15.3033,13.2508,15.3033,21.2647s-5.4331,15.5599-15.2883,21.2572c-2.5204,1.3583-6.6405-1.0263-9.3118-5.3275,7.2216-4.2711,11.1983-9.9155,11.1983-15.9297s-4.0975-11.8397-11.5303-16.1334c-.3245-.1887-.6565-.3698-.9885-.5509h0c-2.9128-1.5696-6.1878-2.8599-9.7419-3.856-3.5089-.981-7.2366-1.645-11.07-1.9771-3.8258-.332-7.7045-.332-11.5303,0-3.8409.332-7.5611,1.0036-11.07,1.9771-3.5466.9885-6.8292,2.2864-9.7419,3.856-.332.1811-.6641.3622-.981.5509h0c-2.5204,1.3583-6.633-1.0187-9.3043-5.3124,7.6215-4.3239,17.2049-7.1763,27.7543-8.2403,6.067-.1887,12.1416-.1887,18.2086,0l-.0075-.0151ZM483.5292,368.0473c2.0299-.3471,4.1201-.6263,6.2179-.8376.0226.0604.0528.1509.0905.2943.0604.2339.1132.5358.1585.8829.0302.2264.0604.4679.083.7244-10.5267,1.1093-20.1026,3.9843-27.7316,8.3233-.5584-.8301-1.2526-1.4187-1.9393-1.6903.083-.0453.166-.0906.249-.1434,1.6299-.8753,3.3655-1.7054,5.1539-2.4676,1.7809-.7546,3.6598-1.4639,5.5765-2.0902,1.9091-.6263,3.9088-1.1998,5.9312-1.6979,2.0223-.498,4.1126-.9282,6.2104-1.2904v-.0075ZM456.1522,370.2281c2.9128-.2566,6.0217-.5358,9.2665-.815,1.796-.1509,3.5391-.3018,5.2218-.4377,2.7543-.2264,5.2973-.4301,7.5838-.6112-.3622.083-.732.1585-1.0866.249-2.045.5056-4.0598,1.0791-5.984,1.7129-1.9393.6414-3.8334,1.3507-5.6369,2.1129-1.811.7697-3.5617,1.6073-5.2143,2.4977-.4905.2641-.981.5358-1.4564.815h0c-2.4676,1.3356-6.3764-.8376-9.0703-4.9502,2.0072-.1736,4.1352-.3622,6.3915-.566l-.0151-.0075ZM448.742,370.877l.166-.0151c2.2185,3.5542,5.3501,5.8104,7.9912,5.9915l-12.2397,7.0631h0c-2.5506,1.4262-5.901,2.2261-9.4476,2.2789v-7.5083s13.53-7.8101,13.53-7.8101ZM439.8226,372.3259s.0075-.0075.0151-.0151c.0075,0,.0226,0,.0302-.0075.0755-.0302.1736-.0679.2792-.0981.1811-.0528.3999-.1132.6263-.166.2339-.0528.4754-.1132.6942-.1585,1.0112-.2113,2.1204-.3924,3.4787-.581.6414-.0906,1.3055-.166,1.9695-.2415l-11.7718,6.799c-.0453-.2415-.1132-.4829-.2113-.6942-.0981-.2188-.2339-.4226-.3848-.5886-.1585-.1736-.3396-.3245-.5358-.4377-.1434-.083-.2943-.1434-.4528-.1887l6.2632-3.6145v-.0075ZM421.9989,376.5818c.8753-.1962,1.7582-.3848,2.6411-.5735,1.0791-.2339,2.2336-.4754,3.4183-.732l1.0489-.2264h0l1.6224-.3471c1.0564-.2264,2.1129-.4603,3.1542-.6942.7244-.166,1.645-.3773,2.5656-.6037l-5.003,2.8901h0c-2.5506,1.4262-5.901,2.2261-9.4476,2.2789v-1.9922h0ZM416.3092,378.008c.5131-.1056,1.0942-.2339,1.6526-.3698l.581-.1434h0c.7923-.1962,1.7356-.4528,2.7015-.7244v2.1883c0,.2113.166.3773.3773.3773,3.8183,0,7.4404-.8452,10.1947-2.3845h0c.1132-.0604.2264-.1207.3396-.166.2113-.0906.4226-.1434.6112-.166.1585-.0151.3169-.0151.4603.0151.1434.0302.2868.083.4075.1509.1283.0755.249.1736.3471.2867.1056.1132.1962.2566.2641.4075.0905.1887.1509.3999.1811.6263.0151.1207.0226.2415.0226.3622v8.1195c0,.2113.166.3773.3773.3773,3.8183,0,7.4404-.8452,10.1947-2.3845h0c.1132-.0604.2264-.1207.3396-.166.2113-.0906.4226-.1434.6112-.166.1585-.0151.3169-.0151.4603.0151s.2868.083.4075.1509c.1283.0755.249.1736.3471.2867.1056.1207.1962.2566.2641.4075.0905.1887.1509.3999.1811.6263.0151.1207.0226.2415.0226.3622h0v8.112c0,.2113.166.3773.3773.3773,3.8183,0,7.4404-.8452,10.1947-2.3845h0c.1132-.0604.2264-.1207.3396-.166.2113-.0906.4226-.1509.6112-.166.1585-.0151.3169-.0151.4603.0151s.2868.083.4075.1509c.1283.0755.249.1736.3471.2867.1056.1207.1962.2566.2641.4075.0905.1887.1509.3999.1811.6263.0151.1207.0226.2415.0226.3622v8.1195c0,.2113.166.3773.3773.3773,4.3541,0,8.4214-1.1093,11.2285-3.0335l26.7356,15.4316v9.3646c0,.2113.166.3773.3773.3773,3.8183,0,7.4404-.8452,10.1947-2.3845h0c.1132-.0604.2264-.1207.3396-.166.2113-.0906.4226-.1434.6112-.166.1585-.0151.3169-.0151.4603.0151.1434.0302.2868.083.4075.1509.1283.0755.249.1736.3471.2867.1057.1132.1962.2566.2641.4075.083.1887.1509.4075.1811.6263.0151.1207.0226.2415.0226.3622v8.1195c0,.2113.166.3773.3773.3773,3.8183,0,7.4404-.8452,10.1947-2.3845h0c.1132-.0604.2264-.1207.3396-.166.2113-.0906.4226-.1509.6112-.166.1585-.0151.3169-.0151.4603.0151.1434.0302.2868.083.4075.1509.1283.0755.249.1736.3471.2867.1057.1207.1962.2566.2641.415.0905.1887.1509.3999.1811.6263.0151.1207.0226.2415.0226.3622v8.1195c0,.2113.166.3773.3773.3773,3.8183,0,7.4404-.8452,10.1947-2.3845.1132-.0604.2264-.1207.3396-.166.2113-.0906.4226-.1434.6112-.166.1585-.0151.3169-.0151.4603.0151.1434.0302.2868.083.4075.1509.1283.0755.249.1736.3471.2867.1057.1207.1962.2566.2641.415.0905.1887.1509.3999.1811.6263.0151.1207.0226.2415.0226.3622v8.1195c0,.2113.166.3773.3773.3773,3.8183,0,7.4404-.8452,10.1947-2.3845h0c.1132-.0604.2264-.1207.3396-.166.2113-.0906.4226-.1434.6112-.166.1585-.0151.3169-.0151.4603.0151.1434.0302.2868.083.4075.1509.1283.0755.249.1736.3471.2867.1057.1207.1962.2566.2641.415.0905.1887.1509.3999.1811.6263.0151.1207.0226.2415.0226.3622v8.1195c0,.2113.166.3773.3773.3773,3.8183,0,7.4404-.8452,10.1947-2.3845h0c.1132-.0604.2264-.1207.3396-.166.2113-.0906.4226-.1509.6112-.166.1585-.0151.3169-.0151.4603.0151.1434.0302.2868.083.4075.1509.1283.0755.249.1736.3471.2867.1057.1207.1962.2566.2641.415.0905.1887.1509.3999.1811.6263.0151.1207.0226.2415.0226.3698v8.1195c0,.2113.166.3773.3773.3773,3.8183,0,7.4404-.8452,10.1947-2.3845h0c.1132-.0604.2264-.1207.3396-.166.2113-.0906.4226-.1434.6188-.166.1585-.0151.3169-.0151.4603.0151.1434.0302.2868.083.4075.1509.1283.0755.249.1736.3471.2867.1057.1207.1962.2566.2641.415.0905.1887.1509.3999.1811.6263.0151.1207.0226.2415.0226.3698v8.1195c0,.2113.166.3773.3773.3773,3.8183,0,7.4404-.8452,10.1947-2.3845h0c.1132-.0604.2264-.1207.3396-.166.2113-.0905.4226-.1509.6188-.166.1585-.0151.3169-.0151.4603.0151.1434.0302.2868.083.4075.1509.1283.0755.249.1736.3471.2868.1057.1207.1962.2566.2641.415.0905.1887.1509.3999.1811.6263.0151.1207.0226.2415.0226.3698v8.1195c0,.2113.166.3773.3773.3773,3.8183,0,7.4404-.8452,10.1947-2.3845h0c.1132-.0604.2264-.1207.3396-.166.2113-.0905.4226-.1509.6188-.166.1585-.0151.3169-.0151.4603.0151.1434.0302.2868.083.4075.1509.1283.0755.249.1736.3471.2868.1057.1132.1962.2566.2641.4075.0905.1887.1509.3999.1811.6263.0151.1207.0226.2415.0226.3698v8.1195c0,.2113.166.3773.3773.3773,3.7353,0,7.2668-.815,9.9985-2.2864l71.5212,41.2919c.3169,1.6601.415,3.1995.2792,4.4597-.1207,1.1319-.4678,2.1431-.9433,2.7845h0c-.0754.0981-.1585.1962-.2415.2792-.2641.2717-.5811.4829-.9131.6188-.3471.1358-.7546.2037-1.1696.1811-.498-.0226-1.0414-.1509-1.6224-.3773-.2792-.1132-.566-.249-.8603-.415h0l-11.6661-6.7386s-.0076,0-.0151-.0075c-3.4712-2.0374-8.0516-5.2294-13.847-9.2741l-.5056-.3547c-5.335-3.7202-11.1078-7.6969-17.1974-11.6058-4.3088-2.7618-8.6704-5.4256-12.9716-7.9233l-.4905-.2792s-.0302-.0075-.0453-.0151c-.0226-.0075-.0453-.0226-.0755-.0226h-.1358c-.0226,0-.0528.0151-.0755.0226-.0151,0-.0302,0-.0453.0151-1.7582,1.0187-3.4033,1.2074-4.6408.5509l-204.4671-118.1557c.332-.0453.732-.1132,1.1923-.2037ZM675.6058,542.768c-.0981.0151-.2037.0151-.3094.0151-2.3996-2.0223-4.9502-4.3691-7.4026-6.6556.4603-.1887.9131-.3999,1.3658-.649.6188-.3471,1.23-.7471,1.8035-1.1998.8829-.6867,1.6903-1.479,2.3996-2.3393l5.2822,3.0486c.0226.1811.0453.3547.0679.5282.1736,1.728.0755,3.275-.3018,4.4672-.166.5358-.3999,1.0263-.6716,1.4187-.1057.1509-.2264.2943-.3471.4301h0c-.2037.2113-.4301.3924-.6716.5282-.3547.2113-.7772.3471-1.2074.3999l-.0075.0076ZM675.8623,543.4848c-.2716.2717-.5358.5433-.8074.8225.1132-.2264.2339-.4528.3396-.6942l.0302-.0755c.0905,0,.1887,0,.2792-.0151.0604,0,.1132-.0302.166-.0377h-.0076ZM323.9232,542.783c-.1056,0-.2113,0-.3169-.0151-.4377-.0528-.8527-.1887-1.2074-.3999-.2415-.1434-.4679-.3169-.6716-.5282h0c-.1283-.1283-.2415-.2792-.3547-.4301-.2717-.3848-.5056-.8753-.6716-1.4187-.3698-1.1923-.4754-2.7392-.3018-4.4672.0151-.1736.0377-.3547.0679-.5282l5.2822-3.0486c.7848.9508,1.6752,1.8035,2.6637,2.543.9206.6867,1.8941,1.23,2.9128,1.6526-3.1693,2.958-5.4784,5.0257-7.4027,6.648v-.0075ZM324.1496,544.2847c-.2717-.2641-.5282-.5358-.7999-.8074.0528.0075.1056.0302.166.0377.0906.0075.1887.0151.2792.0151l.249.566c.0302.0679.0679.1207.0981.1887h.0075ZM311.3365,528.9512c.0151.166.0528.3245.083.4905-6.9876-9.8325-11.6058-20.1252-13.764-30.6746.1509.0905.3094.166.4829.2113.1736.0453.3698.0679.566.0679.2566,0,.5358-.0377.815-.1132.5056-.1358,1.0791-.4075,1.6677-.7923.0226-.0151.0453-.0302.0755-.0528,2.0299,8.3459,5.6444,16.5711,10.7531,24.4567-.1056.4075-.2037.8074-.2943,1.2149-.4075,1.9318-.5433,3.7277-.3848,5.1917h0ZM299.8589,483.6599h0l42.4917-24.5321.0604.0302c.0755.0377.1811.0906.3094.1585s.2792.1509.4301.2339c.1509.0906.332.1962.5207.3094l.5735.3547c.1736.1056.3622.2188.5433.332l-45.1705,26.0791c.1887-.566.332-1.0791.3999-1.5092.1056-.6867.0528-1.147-.1585-1.4488v-.0075ZM345.5426,460.9841c2.6411,1.4187,6.0293,2.2185,9.6212,2.2713v2.792l-53.8635,31.1047s-.0075.0075-.0151.0151c0,0-.0151,0-.0226.0075-.1585.1207-.3245.2339-.4905.332-.5282.3396-1.0338.581-1.4639.6942-.3698.0981-.7244.1132-.9885.0453-.3094-.083-.5056-.2717-.6263-.415-.2113-.2641-.3622-.649-.4452-1.1394h0c-.0906-.5433-.1056-1.2074-.0302-1.9695.1207-1.2451.4754-2.7769,1.0263-4.4371.2717-.815.5886-1.6677.9508-2.5506l46.3401-26.7507h.0075ZM301.9266,497.6578l53.6145-30.9538,26.3658,15.2203-69.3706,40.0468c-5.0558-7.8479-8.6251-16.0278-10.6173-24.3133h.0075ZM312.4533,523.918c.083-.3924.1811-.7923.2867-1.1923l69.9139-40.3637c2.7241,1.8714,6.6405,2.9656,10.8512,3.026v2.8599l-13.9677,8.0667c-1.23.6641-2.875.4678-4.6408-.5509-.0151-.0075-.0302-.0075-.0453-.0151-.0226-.0075-.0453-.0226-.0679-.0226h-.1434c-.0302,0-.0528.0151-.0755.0226-.0151,0-.0302,0-.0377.0151l-2.0676,1.1998c-.6867.3999-1.3734.8074-2.0525,1.2074-2.0525,1.2149-4.1277,2.4676-6.1802,3.7277-3.2297,1.9846-6.5801,4.0975-9.9532,6.2858-5.2671,3.4108-10.4135,6.8895-15.1901,10.1343l-1.4262.9734c-2.875,1.9544-5.5916,3.8032-8.2855,5.5841-2.1883,1.4488-4.7691,3.1316-7.297,4.6106h0l-4.2409,2.4449h0c-.2943.1585-.581.3018-.8602.415-.5735.2339-1.1244.3622-1.6224.3773-.415.0226-.8225-.0453-1.1696-.1811-.3396-.1283-.6565-.3471-.9131-.6188-.083-.083-.166-.1811-.2415-.2792h0c-.4754-.6339-.8225-1.645-.9433-2.7769-.1509-1.3885-.0226-3.1014.3698-4.9502ZM538.1021,545.3713c9.2741,5.7425,14.2469,13.2055,14.0054,21.0157-.249,8.2176-6.1576,15.8467-16.6239,21.4835h0c-1.4564.7772-2.9958,1.5168-4.5955,2.1959-1.6073.6867-3.3052,1.3206-5.0483,1.8941s-3.5693,1.1017-5.4256,1.5545c-1.8563.4603-3.7806.8603-5.7274,1.1923-1.9393.332-3.939.6037-5.9387.8074h0c-1.1923.1358-2.4223.249-3.6372.332-1.2074.083-2.4374.1358-3.6598.166-1.2149.0302-2.4449.0302-3.6598,0-1.2225-.0302-2.4525-.083-3.6598-.166-1.2149-.083-2.4449-.1962-3.6372-.332h0c-1.9997-.2037-3.9918-.4754-5.9387-.8074s-3.8711-.732-5.7274-1.1923c-1.8563-.4603-3.6825-.981-5.4256-1.5545s-3.441-1.2149-5.0483-1.8941c-1.5998-.6791-3.1467-1.4187-4.5955-2.2034-.4528-.2415-.898-.4905-1.3356-.747-9.8626-5.6972-15.2958-13.2433-15.2958-21.2647,0-7.9309,5.32-15.4014,14.9864-21.076,2.2638,3.6523,5.4558,5.9463,8.1422,6.0595-6.2858,4.1428-9.7268,9.4174-9.7268,15.0091,0,6.1123,4.0975,11.8397,11.5303,16.1334,7.5988,4.3918,17.5822,6.5801,27.5656,6.5801s19.9668-2.1959,27.5656-6.5801c7.4328-4.2937,11.5303-10.0211,11.5303-16.1334,0-5.5992-3.441-10.8663-9.7268-15.009,2.6864-.1132,5.8784-2.4072,8.1422-6.0595.3245.1962.6565.3848.9734.581l-.0075.0151ZM537.5361,544.1564c.8301-1.2074,1.9242-1.7054,2.4902-1.396h0c8.3383,4.8144,13.7941,10.8889,15.7938,17.5747,1.7356,5.8104.7169,11.7793-2.9581,17.2578-7.1461,10.6625-23.6643,18.5028-43.1633,20.5252-.0377-.2868-.083-.5584-.1207-.8074-.0604-.3622-.1283-.6791-.1887-.9282-.0151-.0679-.0302-.1132-.0453-.166,1.8412-.1962,3.6749-.4452,5.4709-.747,1.962-.3396,3.9088-.7395,5.7803-1.2074,1.8714-.4603,3.7202-.9961,5.4784-1.5771,1.7658-.581,3.4787-1.23,5.1087-1.9167,1.6149-.6867,3.1844-1.4337,4.6559-2.2261h0c10.7154-5.7652,16.7597-13.6206,17.0238-22.125.249-8.0893-4.8521-15.7863-14.3601-21.6797-.3169-.1962-.6414-.3848-.9659-.5735v-.0075ZM508.9593,598.2388c-6.1198.6716-12.5717.6716-18.6915,0,.0377-.2792.0755-.5584.1207-.8074.0604-.3396.1207-.6339.1736-.8678.0302-.1207.0528-.2037.0755-.2641,1.1319.1283,2.2864.2339,3.4334.3094,1.2149.083,2.46.1358,3.69.166.6112.0151,1.23.0226,1.8488.0226s1.2376,0,1.8488-.0226c1.23-.0302,2.4751-.083,3.69-.166,1.147-.0755,2.3015-.1811,3.4334-.3094.0226.0604.0453.1434.0755.2641.0604.2339.1207.5282.1736.8678.0453.249.083.5207.1207.8074h.0075ZM489.8754,596.2089c-.0151.0528-.0302.1057-.0453.166-.0604.249-.1283.5584-.1887.9282-.0453.249-.083.5282-.1207.8074-11.5454-1.1923-22.0193-4.3465-30.3124-9.1382-10.7229-6.1878-16.6239-14.3978-16.6239-23.1135s5.901-16.9182,16.6164-23.1059h0c.6339-.3471,1.728.2943,2.4902,1.396-9.8853,5.8104-15.3335,13.5074-15.3335,21.7099,0,8.2931,5.569,16.0806,15.6731,21.9137.4452.2566.898.5056,1.3507.7546,1.4715.7923,3.0335,1.5394,4.6559,2.2261,1.6224.6942,3.3429,1.3356,5.1087,1.9167,1.7582.581,3.607,1.1093,5.4784,1.5771,1.8714.4603,3.8183.8678,5.7803,1.2074,1.7884.3094,3.6296.5509,5.4633.747l.0075.0075ZM537.9512,565.8663c0,5.8331-3.9617,11.3266-11.153,15.4844-14.9939,8.6553-39.3903,8.6553-54.3842,0-7.1914-4.1503-11.153-9.6514-11.153-15.4844s3.9541-11.3266,11.1455-15.4769h0c.6339-.3471,1.728.2943,2.4902,1.396-6.3613,3.773-9.8627,8.7609-9.8627,14.0809s3.6221,10.489,10.2022,14.2846c.2868.166.581.332.8829.4905,2.4902,1.3356,5.3124,2.4525,8.3987,3.3127,3.1241.8678,6.4443,1.4639,9.8853,1.7658,1.728.1509,3.4636.2264,5.1992.2264s3.4712-.0755,5.1992-.2264c3.441-.3018,6.7612-.8904,9.8853-1.7658,3.0863-.8603,5.9161-1.9771,8.3987-3.3127,6.9725-3.7504,10.904-8.8741,11.0776-14.4129.1585-5.2822-3.1618-10.3003-9.3495-14.1337-.166-.1056-.332-.2037-.5056-.3018.8301-1.1998,1.9242-1.7054,2.4902-1.396h0c7.1838,4.1503,11.1455,9.6438,11.1455,15.4769l.0076-.0075ZM524.4287,552.7287c5.9538,3.69,9.1458,8.4742,8.9949,13.4697-.1585,5.2671-3.9541,10.1569-10.6776,13.7715-2.4374,1.313-5.2143,2.4072-8.2478,3.2523-3.0788.8603-6.3538,1.4413-9.7495,1.7431-3.4108.2943-6.8593.2943-10.2626,0-3.3957-.2943-6.6707-.8829-9.7495-1.7431-3.0335-.8452-5.8104-1.9393-8.2478-3.2523-.2943-.1585-.581-.3169-.8602-.4754-6.3387-3.6598-9.8249-8.4968-9.8249-13.6281s3.3806-9.8098,9.5155-13.4395c2.3015,3.7202,5.5841,6.0519,8.3082,6.067-2.3166,1.9167-3.5693,4.1956-3.5693,6.6103,0,3.1014,2.0601,5.9915,5.8029,8.1573,3.7881,2.1883,8.7685,3.2825,13.7488,3.2825s9.9608-1.0942,13.7489-3.2825c3.7428-2.1582,5.8029-5.0558,5.8029-8.1573,0-2.4072-1.2526-4.6936-3.5693-6.6103,2.7317-.0226,6.0066-2.3468,8.3157-6.0746.1736.1056.3471.2037.5131.3094h.0076ZM518.4069,565.1042c0,2.8147-1.9242,5.4784-5.4256,7.5008-7.3725,4.256-19.3707,4.256-26.7431,0-3.5014-2.0223-5.4256-4.6861-5.4256-7.5008s1.9242-5.4784,5.4256-7.5008l13.3716-7.7196,13.3716,7.7196c3.5014,2.0223,5.4256,4.6861,5.4256,7.5008ZM499.2325,549.2274l-13.3716,7.7196c-.3018.1736-.5886.3547-.8678.5358-2.5581,1.064-6.4669-1.313-9.0326-5.4482l13.6508-7.8781c2.6411,1.4187,6.0293,2.2185,9.6212,2.2713v2.7996ZM475.5455,551.4082c-.566-.8376-1.2677-1.4337-1.962-1.6979l12.8207-7.4026.0604.0302c.0755.0377.1811.0905.3094.1509.1283.0679.2792.1509.4301.2339.1509.0905.332.1962.5207.3094l.5735.3547c.1736.1056.3622.2188.5433.332l-13.3036,7.6818.0075.0076ZM486.0194,541.6662l-13.9677,8.0591h0c-2.5204,1.3583-6.6405-1.0187-9.3043-5.32l13.6508-7.8781c2.6411,1.4187,6.0293,2.2261,9.6212,2.2789v2.8599h0ZM462.3324,543.7791c-.566-.8376-1.2677-1.4337-1.962-1.6979l12.8207-7.4026.0604.0302c.0755.0377.1811.0905.3094.1509.1283.0679.2792.1509.4301.2339.1509.0905.332.1962.5207.3094l.5735.3547c.1736.1056.3622.2188.5433.332l-13.2961,7.6819v.0075ZM472.7988,534.0297l-13.9677,8.0591h0c-2.5204,1.3583-6.633-1.0187-9.3043-5.32l13.6508-7.8781c2.6411,1.4187,6.0293,2.2185,9.6212,2.2713v2.8675ZM449.1193,536.1426c-.566-.8376-1.2677-1.4337-1.962-1.6979l12.8207-7.4026.0604.0302c.0755.0377.1887.0905.3094.1585.1283.0679.2792.1509.4301.2339.1509.0905.332.1962.5207.3094l.5735.3547c.1736.1056.3622.2188.5433.332l-13.3036,7.6819h.0075ZM448.4704,536.5274c-13.3867,7.8328-20.7742,18.2086-20.8044,29.2635-.0302,9.8928,5.8406,19.2726,16.6465,26.7658-.6037-.166-1.1621-.2641-1.6601-.2868-.4377-.0226-.8301.0076-1.1696.0981-.2641.0679-.498.166-.6942.2943-.1434.0905-.2641.2113-.3773.332-11.1228-8.029-16.9786-18.0727-16.4881-28.3202.5358-11.1455,8.3685-21.642,22.0646-29.5502h0c.6339-.3471,1.7205.2868,2.4902,1.396l-.0076.0075ZM459.5857,526.4006l-13.9677,8.0592h0c-2.5204,1.3583-6.6405-1.0263-9.3043-5.32l13.6508-7.8781c2.6411,1.4187,6.0293,2.2185,9.6212,2.2713v2.8675ZM435.8987,528.5135c-.566-.8376-1.2677-1.4337-1.9544-1.6979l12.8207-7.4026.0604.0302c.0755.0377.1811.0905.3094.1585.1283.0679.2792.1509.4301.2339.1509.0905.332.1962.5207.3094l.5735.3547c.1736.1056.3622.2188.5433.332l-13.3036,7.6818h0ZM416.4903,586.799c-.3848-.2188-.7697-.3924-1.1394-.5282-.498-.1811-.9659-.2716-1.3885-.2868-.3169,0-.6263.0302-.898.1132-.2415.0755-.4603.1887-.6565.332-.0377.0302-.0679.0604-.1056.0981-6.1425-8.5949-8.3685-17.9897-6.4217-27.2034,2.5279-11.9755,12.0736-23.2795,26.8789-31.8216h0c.6339-.3471,1.7205.2868,2.4902,1.396-14.5865,8.5119-23.7549,19.7706-25.83,31.7235-1.5545,8.9571.898,17.952,7.0706,26.1772h0ZM446.3726,518.7716l-13.9677,8.0591h0c-2.5204,1.3583-6.633-1.0263-9.3043-5.32l13.6508-7.8781c2.6411,1.4187,6.0293,2.2185,9.6212,2.2713v2.8675ZM422.6856,520.8845c-.566-.8376-1.2677-1.4337-1.962-1.6979l12.8207-7.4026.0604.0302c.0755.0377.1811.0905.3094.1585.1283.0679.2792.1509.4301.2339.1509.0905.332.1962.5207.3094l.5735.3547c.1736.1056.3622.2188.5433.332l-13.3036,7.6819h.0075ZM422.0366,521.2693c-26.1621,15.243-37.1717,37.4207-29.1427,58.361-.3471-.2943-.6942-.5509-1.0338-.747-.4603-.2641-.9055-.4452-1.3356-.5282-.3245-.0604-.6339-.0755-.9282-.0302-.2566.0377-.498.1207-.7169.249-.0528.0302-.0981.0679-.1509.1057-7.4555-21.3779,4.0145-43.3217,30.818-58.7986h0c.6339-.3396,1.7205.2943,2.4902,1.396v-.0075ZM433.1519,511.1426l-13.9677,8.0592h0c-2.5204,1.3583-6.6405-1.0187-9.3043-5.32l13.6508-7.8781c2.6411,1.4187,6.0293,2.2185,9.6212,2.2713v2.8675ZM409.4725,513.2555c-.566-.8376-1.2677-1.4337-1.962-1.6979l12.8207-7.4026.0604.0302c.0755.0377.1811.0905.3094.1509.1283.0679.2792.1509.4301.2415.1509.0905.332.1962.5207.3094l.5735.3547c.1736.1056.3622.2188.5433.332l-13.3036,7.6818h.0075ZM371.9084,571.0052c-.3245-.3924-.6716-.747-1.0187-1.0187-.3999-.3169-.8074-.5433-1.2149-.6716-.3094-.0981-.6112-.1434-.898-.1207-.2566.0151-.498.0755-.7244.1811-.0302.0151-.0528.0302-.083.0453-1.7356-21.2722,12.2019-42.0766,38.3565-57.1838h0c.6339-.3471,1.7205.2868,2.4902,1.396-26.1243,15.1977-39.4808,36.0096-36.9152,57.3649l.0075.0076ZM419.9389,503.5135l-13.9677,8.0591h0c-2.5204,1.3583-6.6405-1.0187-9.3043-5.32l13.6508-7.8781c2.6411,1.4187,6.0293,2.2261,9.6212,2.2789v2.8599h0ZM396.2519,505.6264c-.566-.8376-1.2677-1.4337-1.962-1.6979l12.8207-7.4026.0604.0302c.0755.0377.1811.0905.3094.1585.1283.0679.2792.1509.4301.2339.1509.0905.332.1962.5207.3094l.5735.3547c.1736.1056.3622.2188.5433.332l-13.2961,7.6819h0ZM395.6029,506.0037c-25.332,14.7223-40.3486,34.1609-42.4389,54.8822-.3018-.5056-.6339-.9433-.981-1.2904-.3471-.3396-.7018-.5886-1.064-.7395-.2792-.1207-.566-.1811-.8376-.1811-.2188,0-.4377.0377-.6414.1132,2.9052-20.4346,18.3067-39.6468,43.4727-54.188h0c.6339-.3471,1.7205.2868,2.4902,1.396v.0075ZM406.7182,495.8845l-13.9677,8.0592h0c-2.5204,1.3583-6.633-1.0187-9.3043-5.32l13.6508-7.8781c2.6411,1.4187,6.0293,2.2185,9.6212,2.2713v2.8675ZM383.0388,497.9974c-.566-.8376-1.2677-1.4337-1.9544-1.6979l12.8207-7.4026.0604.0302c.0755.0377.1887.0905.3094.1585.1283.0679.2792.1509.4301.2415.1509.0905.332.1962.5207.3094l.5735.3547c.1736.1056.3547.2188.5433.332l-13.2961,7.6818-.0076-.0076ZM382.3898,498.3747c-24.0492,13.9677-39.8128,31.5575-45.6836,50.9583-.2566-.6188-.5509-1.147-.8904-1.562-.2867-.3471-.5961-.6112-.9131-.7848-.249-.1358-.5131-.2037-.7697-.2188-.1434-.0075-.2792,0-.4226.0302,6.55-18.9254,22.4947-36.1379,46.1892-49.8189.6339-.3471,1.7205.2868,2.4902,1.396ZM348.9308,512.6065c-2.6939,1.9997-5.4558,4.1201-8.3308,6.3915-2.6185,2.0752-5.1464,4.1201-7.5838,6.1047l-1.0187.8301c-1.879,1.5318-3.9994,3.2448-5.9614,4.7389-.581-.732-1.3507-1.2225-2.1431-1.396,2.0676-1.2602,4.1126-2.5883,5.901-3.773,2.7015-1.7884,5.418-3.6372,8.2931-5.5916l1.4262-.9734c3.0109-2.045,6.1802-4.188,9.425-6.3462l-.0075.0151ZM315.2227,533.4939h.1585c.5886-.0226,1.2149-.1736,1.8714-.4377.3094-.1207.6188-.2792.9433-.4528.083-.0453.166-.083.249-.1207.1585-.0604.3018-.0981.4301-.1056.1056,0,.2037.0075.2943.0377.083.0302.1585.0755.2264.1434.1434.1358.2566.3698.3245.649.083.3471.0981.7848.0528,1.2602-.0075.0755-.0151.1585-.0302.2339-.0377.249-.0679.498-.0906.7395-.1736,1.6828-.0755,3.192.249,4.4295-1.9544-2.128-3.7957-4.3012-5.5237-6.4896.2717.0604.5509.1056.8452.1056v.0076ZM319.5994,531.796l2.8524-1.645h0c.0906-.0528.1887-.0905.2943-.1132h0c.0151,0,.0377,0,.0528-.0075.1207-.0226.249-.0302.3773-.0151.1358.0151.2867.0528.4301.0981.1585.0604.3245.1434.4829.2415.1132.0755.2264.1509.332.249h0l.083.0679c.1358.1132.3094.2566.4905.4301.0906.083.1585.1736.2339.2641l-4.7163,2.7241c.0075-.3848-.0075-.7471-.083-1.0489-.0679-.2943-.2188-.7093-.5282-1.0112-.0981-.0981-.2037-.166-.3245-.2264l.0226-.0076ZM332.2088,536.3387l.0604-.0604c.1509-.1434.1585-.3848.0151-.5358-.0453-.0453-.0981-.0755-.1509-.0905,0,0-.0151-.0075-.0226-.0151-1.1168-.3999-2.211-.9961-3.2523-1.7658-.9508-.7093-1.811-1.5318-2.5581-2.4525,2.0299-1.5318,4.2258-3.3202,6.1726-4.9049l1.0187-.8301c2.4374-1.9771,4.9577-4.0296,7.5762-6.0972,4.9502-3.9164,9.5533-7.3649,14.0809-10.5493,3.1618-2.2261,6.3915-4.3918,9.591-6.4368,1.9846-1.2677,4.0296-2.5355,6.067-3.7655.6716-.4075,1.3507-.8074,2.0374-1.2149l1.879-1.0942c1.0112.5509,1.9997.8527,2.9128.9131-23.121,13.7715-38.6206,30.9764-44.8989,49.8641-.2037.166-.415.3245-.6188.4528-.4754.2943-.9734.4829-1.4639.566-.5131.0905-1.0263.0604-1.5394-.0755-.6641-.1736-1.3055-.5358-1.9242-1.064-.0679-.0604-.1358-.1132-.1962-.1811-.8527-.7923-1.6148-1.879-2.2563-3.2297-.0755-.1585-.1509-.332-.2188-.498,1.9922-1.6828,4.3767-3.8334,7.6969-6.9348h-.0075ZM330.0581,549.1217c.2415,0,.4829-.0226.7244-.0604.5886-.0981,1.1696-.3245,1.728-.6641.2641-.166.5358-.3547.7923-.5735h0c.1283-.1132.2641-.1887.3999-.2415.1283-.0453.2566-.0604.3773-.0604.1509.0075.3094.0528.4603.1358.2339.1207.4603.3245.6791.5886.3547.4377.6716,1.0414.9282,1.7582.0755.2113.1434.4377.2037.6641h0l.0377.1434c.6188,2.2261,1.479,4.1956,2.5506,5.8633.1056.1585.2113.3018.3169.4528-3.5315-2.6109-6.882-5.32-10.0211-8.0893.2717.0528.5358.083.8074.083h.0151ZM337.1363,550.6083v-.0377c5.5539-19.6272,21.3477-37.4509,45.661-51.562,2.2412,3.6145,5.3879,5.901,8.0592,6.0595-24.517,14.6695-39.4204,33.8741-42.0615,54.271-.2113.1962-.4301.3698-.6565.5131-.4905.3245-1.0112.5509-1.5394.6641-.5509.1207-1.1319.1283-1.7129.0151-.7471-.1434-1.5017-.4678-2.2487-.9734h0s-.0528-.0377-.083-.0604h0c-1.0715-.7546-2.0752-1.8412-2.9656-3.2297-1.0263-1.5998-1.8563-3.5089-2.4525-5.6595h0ZM345.7161,561.3614c.3547,0,.7018-.0377,1.0413-.1132.6263-.1358,1.23-.3924,1.796-.7697.2867-.1887.566-.415.8376-.6641h.0075s0-.0076.0075-.0151c0,0,.0075,0,.0151-.0076.1283-.1207.2717-.2113.415-.2641.1358-.0528.2717-.083.415-.083.1736,0,.3698.0377.5584.1207.2717.1132.5509.3094.8301.581.4377.4301.8452,1.0338,1.1923,1.7507.0755.1585.1509.3169.2188.483h0l.0528.1283c.9131,2.1431,2.045,4.0296,3.3655,5.5916.1283.1585.2717.2943.3999.4377-4.0447-2.3015-7.946-4.7087-11.6435-7.1914.1585.0151.3094.0226.4679.0226l.0226-.0076ZM353.813,562.2065l-.0151-.0377c1.5998-20.9402,16.5862-40.6429,42.2125-55.5312,2.2412,3.6221,5.3954,5.901,8.0592,6.0595-25.3999,15.2807-38.7866,36.0549-36.8171,57.2819-.1962.1962-.4075.3849-.6188.5433-.4829.3622-1.0112.6263-1.5696.7772-.581.166-1.1998.2113-1.8412.1434-.815-.083-1.6677-.3547-2.5204-.8074-.0302-.0151-.0604-.0302-.083-.0453h0c-1.2375-.6716-2.4298-1.6752-3.5466-2.9958-1.2753-1.5092-2.3695-3.3202-3.2523-5.403l-.0076.0151ZM363.7662,572.2352c.5131,0,1.0187-.0679,1.5017-.2037.649-.1811,1.2602-.483,1.8186-.9055.2943-.2188.5735-.4678.8301-.747v-.0076s.0075-.0076.0151-.0151c0,0,.0075,0,.0151-.0076.1283-.1283.2641-.2264.415-.2943.1434-.0679.3018-.1057.4603-.1132.1962-.0076.4075.0151.6263.0905.3169.0981.6414.2868.9734.5433.5207.4075,1.0413,1.0036,1.5017,1.7205.0755.1207.1585.249.2264.3773h0l.1736.3018c1.2677,2.1129,2.7468,3.9315,4.4069,5.3954.0604.0528.1207.0981.1811.1434-4.5503-1.9846-8.9722-4.09-13.2131-6.2858h.0604l.0075.0076ZM372.9875,572.5974l-.1358-.2264c-3.3353-21.559,9.9155-42.7105,36.3794-58.0968,2.2412,3.6221,5.403,5.9085,8.0667,6.0595-25.9206,15.6806-36.8095,37.5641-29.1805,58.9043-.1585.1811-.3245.3622-.498.5207-.4528.3999-.9659.7018-1.5243.9131-.581.2113-1.2074.3245-1.879.3245h-.0226c-.8678,0-1.796-.1887-2.7543-.5433-.1056-.0377-.2037-.083-.3094-.1207h0c-1.313-.5433-2.626-1.3885-3.8937-2.5128-1.5998-1.4111-3.0335-3.1693-4.256-5.2143l.0075-.0076ZM386.359,581.3734c.6414-.2415,1.2375-.5886,1.7582-1.0489.2566-.2264.498-.4754.7244-.7546,0,0,0-.0151.0075-.0151h0c.1132-.1358.2415-.2415.3848-.3245s.3018-.1358.4679-.1585c.2037-.0302.4301-.0226.6716.0226.3471.0679.7169.2188,1.1017.4377.6112.3547,1.2451.9055,1.8412,1.5771.1358.1509.2641.3094.3924.4754.2113.2716.4301.5358.649.7999,1.562,1.8488,3.3429,3.4636,5.1992,4.7087-5.0936-1.6601-10.0739-3.4561-14.9034-5.3652.5961-.0377,1.1696-.1509,1.6979-.3471l.0075-.0076ZM394.9389,581.8941c-.2037-.2415-.3999-.4905-.5961-.7395-9.2514-21.0987,1.5167-43.7745,28.1089-59.2514,2.2487,3.6296,5.418,5.9161,8.0893,6.0595-13.93,8.5195-22.9248,19.5367-25.3924,31.2104-1.9997,9.4853.3018,19.1367,6.6556,27.9505-.0905.1207-.1736.2415-.2641.3471-.3848.4301-.8376.7772-1.3507,1.0414-.5358.2792-1.147.4603-1.8186.5509-.8678.1132-1.8186.0679-2.8373-.1434-.3547-.0755-.7244-.166-1.0942-.2792-1.1847-.3622-2.4072-.9206-3.6296-1.6526-2.0903-1.2602-4.1126-3.0184-5.8557-5.086l-.0151-.0076ZM408.4614,589.8099c.7546-.0981,1.4488-.3094,2.0601-.6263.5961-.3094,1.1244-.7169,1.5696-1.2149.1736-.1962.3396-.4075.4829-.6263h0c.083-.1207.1736-.2264.2868-.3094.1207-.0905.2641-.166.4226-.2113.1962-.0604.415-.083.649-.0755.3471.0076.7395.0905,1.1545.2415.6867.249,1.4187.6641,2.1808,1.2376.3471.2641.6942.5509,1.0338.8678h0c1.1168,1.0338,2.3091,1.9922,3.5617,2.86,1.2904.8904,2.626,1.6752,3.9768,2.3317-5.9161-1.3281-11.7341-2.8298-17.4011-4.4673h.0151l.0075-.0076ZM422.3008,591.3266c-1.2149-.8376-2.377-1.7733-3.4636-2.7769-7.3272-8.6327-10.323-18.2463-8.6704-27.792,2.0374-11.7416,11.0851-22.8192,25.498-31.2179,2.2487,3.6296,5.4105,5.9085,8.0818,6.0595-12.7754,7.9082-20.0649,18.1633-20.5856,29.0522-.5056,10.5192,5.4784,20.7968,16.8276,28.9843-.2188.3622-.4829.6942-.8225.981-.3924.3245-.8602.5961-1.4036.7999-.7093.2641-1.5318.4226-2.4525.4678-1.0791.0528-2.2789-.0528-3.5466-.3169h0c-.3848-.0755-.7772-.1736-1.1772-.2792-2.7543-.7395-5.6218-2.1053-8.2855-3.9541v-.0075ZM438.0342,596.1108c.6188-.2339,1.1621-.5433,1.6224-.9282.4528-.3773.8225-.8301,1.0942-1.3432l.0755-.1434h0c.0226-.0528.0528-.0981.0905-.1509.0755-.0981.166-.1811.2717-.2566.1283-.083.2868-.1509.4678-.1962.2641-.0679.581-.0905.9508-.0755.6112.0302,1.3356.1887,2.1582.4603,1.1168.3773,2.3544.9508,3.6825,1.7129h0c.2868.166.581.3245.8678.4905,3.3957,1.8563,7.1385,3.3278,11.1228,4.3918-8.0742-.9131-16.0655-2.1129-23.8832-3.5844.5282-.0905,1.0263-.2113,1.479-.3849v.0076ZM449.6777,595.0242c-.2868-.1585-.5735-.3169-.8527-.4754h0c-13.198-7.7271-20.4422-17.9444-20.4044-28.7504.0377-10.7833,7.297-20.9402,20.4573-28.6296,2.2487,3.6372,5.4256,5.9236,8.1044,6.0595-9.7947,6.1877-15.16,14.1714-15.16,22.6456,0,8.9949,6.0368,17.4313,17.0012,23.7624,8.3233,4.8068,18.8122,7.9837,30.3577,9.2062-.1057.0981-.2339.1962-.3999.2943-.415.249-.9961.498-1.728.732-1.7356.5509-4.173.981-6.8518,1.2225-3.1014.2716-6.316.2716-9.5759,0-3.192-.2641-6.3462-.7923-9.3797-1.562-4.1654-1.064-8.0591-2.5732-11.5756-4.4974l.0075-.0076ZM487.2871,600.5781c.7848-.249,1.4186-.5207,1.8865-.7999.2868-.1736.5056-.3471.6716-.5282.083-.0905.1434-.1811.2037-.2716,3.1241.3471,6.3387.5282,9.5533.5282s6.4292-.1811,9.5608-.5282h0c.1132.1811.2792.3622.483.5282.5509.4377,1.4262.8301,2.6864,1.1998.7848.2264,2.8147.747,5.9085,1.064-12.4132.6565-24.8868.6565-37.3,0,2.4676-.249,4.7012-.6641,6.3462-1.1847v-.0076ZM512.5437,599.9744c-1.147-.332-1.962-.6942-2.4223-1.064-.0302-.0226-.0528-.0528-.083-.0755,19.8989-2.1053,36.1153-9.8702,43.4576-20.827,3.8032-5.6746,4.8521-11.8548,3.0486-17.8916-1.9016-6.3613-6.8367-12.1717-14.3073-16.8956,2.6788-.1358,5.8557-2.4223,8.1044-6.0595,13.1603,7.6894,20.4271,17.8463,20.4573,28.6296.0377,10.8134-7.214,21.0232-20.4045,28.7504h0c-1.4262.8225-2.9279,1.5771-4.4823,2.2563-5.2445,2.294-11.236,3.773-17.3257,4.2786-.6339.0528-1.2677.0981-1.9016.1283-6.2179.3094-11.3794-.4301-14.1412-1.23h0ZM550.7492,536.5274c.8301-1.1998,1.9242-1.7054,2.4902-1.396h0c13.696,7.9082,21.5288,18.4048,22.0646,29.5502.4905,10.2475-5.3652,20.2913-16.4881,28.3202-.0377-.0453-.0755-.0905-.1207-.1358-.1736-.166-.3924-.2943-.6414-.3999-.3094-.1207-.6716-.1887-1.0866-.2037-.566-.0226-1.2149.0679-1.9393.2566-.0453.0076-.0905.0302-.1358.0377,10.8059-7.5008,16.6843-16.8729,16.6541-26.7733-.0377-11.0549-7.4253-21.4307-20.8044-29.2635l.0076.0076ZM546.2141,597.4917c1.5771-.6867,3.109-1.4639,4.5578-2.294h0c1.6375-.9433,3.1769-1.6149,4.4446-1.9469.6565-.166,1.23-.249,1.728-.2339.3245.0076.6037.0604.8301.1509.1585.0604.2943.1434.4075.249.083.083.1585.1736.2113.2792h0c.166.3396.3773.6565.6188.9433.3924.4603.8829.8527,1.4639,1.1545.6339.332,1.3734.566,2.1959.7018-7.8403,1.479-15.8617,2.6788-23.9662,3.5919,2.6109-.6942,5.1388-1.5545,7.5083-2.5958h0ZM560.8307,595.1223c-.4905-.2566-.9131-.5886-1.2376-.9734-.1358-.1585-.249-.332-.3622-.5131,11.3568-8.1874,17.3332-18.4727,16.8352-28.9918-.5207-10.8889-7.8101-21.144-20.5856-29.0522,2.6713-.1434,5.8406-2.4298,8.0818-6.0595,14.4054,8.4063,23.4606,19.4763,25.498,31.2179,1.6526,9.5457-1.3432,19.1593-8.6704,27.792-1.0187.9433-2.1129,1.8337-3.2448,2.626-3.0109,2.1204-6.2255,3.607-9.3042,4.3012-.1283.0226-.249.0528-.3773.083h0c-1.5847.3245-3.041.4075-4.3163.249-.8904-.1132-1.6677-.3396-2.3166-.6867v.0076ZM589.7999,560.6219c-2.0752-11.9605-11.2436-23.2116-25.8301-31.7235.8301-1.2074,1.9242-1.7054,2.4902-1.396h0c14.8053,8.5496,24.351,19.8536,26.8789,31.8216,1.9469,9.2137-.2792,18.6085-6.4217,27.1959-.1057-.0905-.2188-.1811-.3471-.249-.249-.1358-.5282-.2264-.8301-.2716-.3849-.0453-.815-.0226-1.2677.083-.5509.1283-1.1395.3697-1.7431.7169,6.1726-8.2252,8.6251-17.22,7.0706-26.1847v.0076ZM577.5678,591.787c1.1621-.8225,2.2864-1.728,3.3354-2.7015.6867-.6339,1.3734-1.1545,2.0601-1.5545.5961-.3471,1.1545-.581,1.6752-.7093.3697-.083.7018-.1132,1.0036-.0679.2113.0302.3999.0905.5584.1811.1358.0755.2566.1811.3622.3018.0302.0377.0528.0679.0755.1057.2037.3094.4377.5961.6942.8527.483.483,1.0489.8678,1.6828,1.147.5433.2339,1.1319.3924,1.7658.4754-5.6746,1.645-11.4926,3.1391-17.4162,4.4748,1.4262-.6942,2.8373-1.5243,4.2031-2.4902v-.0151ZM589.317,588.6402c-.5509-.2415-1.0414-.5735-1.4488-.9885-.166-.166-.3018-.3547-.4452-.5433,6.3462-8.8062,8.6553-18.4651,6.648-27.9429-2.4675-11.6737-11.4624-22.6909-25.3924-31.2104,2.6713-.1434,5.8406-2.4298,8.0893-6.0595,26.5922,15.4844,37.3604,38.1527,28.1089,59.2514-.8074,1.0338-1.6903,1.9997-2.6109,2.875-2.1355,2.0223-4.4823,3.5391-6.7914,4.3767-.2264.083-.4528.1585-.6791.2264h-.0226c-1.1395.3471-2.2185.5056-3.2071.4754-.8301-.0226-1.5922-.1811-2.2563-.4754l.0075.0151ZM577.1829,521.2693c.7697-1.1093,1.8563-1.7356,2.4902-1.396h0c26.7959,15.4769,38.2734,37.4132,30.818,58.7911-.1132-.0755-.2264-.1434-.3547-.1962-.2641-.1132-.5584-.1736-.8678-.1736-.3773.0076-.8074.083-1.23.249-.566.2188-1.1395.5886-1.7205,1.0791,8.029-20.9402-2.9731-43.1104-29.1427-58.361l.0076.0076ZM602.7866,584.573c.9583-.9131,1.8714-1.9167,2.7166-2.9958h0c.4075-.5207.8376-.981,1.2904-1.3658.5207-.4528,1.0338-.7772,1.5243-.9734.332-.1283.6489-.1962.9357-.1962h.0151c.2113,0,.4075.0377.581.1132.1509.0679.2943.1585.415.2792.0377.0377.0755.083.1132.1283h0c.2264.2792.4754.5358.732.7622.5358.4678,1.1395.8225,1.796,1.0564.5207.1887,1.0715.2943,1.6526.332-4.8295,1.9091-9.8174,3.7051-14.9185,5.3728,1.0791-.7244,2.1355-1.562,3.1467-2.5204v.0076ZM613.1624,580.6792c-.566-.2037-1.0942-.5131-1.5545-.9206-.1811-.1585-.3471-.3396-.5056-.5282,7.629-21.3402-3.2523-43.2236-29.1805-58.9043,2.6713-.1509,5.8331-2.4374,8.0743-6.0595,26.4564,15.3863,39.7147,36.5379,36.3794,58.0893-.6565,1.1244-1.3809,2.1808-2.1733,3.1316-1.6601,2.0148-3.5391,3.5768-5.4407,4.5201-.2264.1132-.4528.2113-.6791.3094h-.0076c-.9508.3924-1.8714.6112-2.7392.6565-.7697.0377-1.5017-.0604-2.1733-.3018v.0076ZM590.4036,513.6328c.8301-1.1998,1.9167-1.7054,2.4902-1.396h0c26.1545,15.1071,40.092,35.9115,38.3565,57.1838-.0981-.0528-.1962-.0981-.3018-.1283-.2716-.0905-.566-.1207-.8678-.0905-.3773.0377-.7697.166-1.1621.3924-.5282.2943-1.0489.747-1.5394,1.3281-.0226.0226-.0377.0528-.0604.0755,2.5656-21.3553-10.7908-42.1672-36.9152-57.3573v-.0075ZM624.7833,575.9705c.8225-1.0036,1.5922-2.1129,2.2789-3.2901.2716-.4754.5735-.898.8829-1.2677.4377-.5131.8829-.9055,1.3356-1.1545.3018-.1736.5961-.2716.8753-.3018.1962-.0226.3849,0,.566.0528.1509.0453.2943.1283.4301.2339.0528.0453.1057.0981.1585.1509h0c.2264.2415.4754.4678.732.6641.5584.4377,1.1772.7546,1.8337.9508.5056.1509,1.0414.2264,1.5847.2264h.0604c-4.2409,2.1959-8.6628,4.3012-13.2131,6.2858.8678-.747,1.6979-1.5922,2.4826-2.5506h-.0075ZM634.08,571.2919c-.566-.166-1.0942-.4452-1.5847-.8225-.1887-.1434-.3622-.3169-.5358-.4905,1.9695-21.227-11.4171-42.0012-36.8246-57.2743,2.6713-.1585,5.8255-2.4374,8.0591-6.0595,25.6263,14.8883,40.6127,34.591,42.2125,55.5237-.5207,1.2225-1.1168,2.3845-1.7884,3.4334-1.3055,2.045-2.8524,3.6598-4.4748,4.6861-.1811.1132-.3697.2264-.5509.3245,0,0-.0151,0-.0151.0076-.8301.4452-1.6601.7244-2.46.8301-.7169.0905-1.4035.0377-2.045-.1509l.0075-.0076ZM603.6167,506.0037c.7697-1.1093,1.8563-1.7356,2.4902-1.396h0c25.1736,14.5336,40.575,33.7534,43.4727,54.188-.0679-.0226-.1358-.0528-.2037-.0679-.2792-.0604-.5584-.0604-.8452,0-.3622.0755-.7244.249-1.0715.5131-.4678.3471-.9055.8527-1.3055,1.4866-.0302.0528-.0604.1132-.0981.166-2.0978-20.7289-17.1069-40.1599-42.4388-54.8898h0ZM644.2671,566.0022c.7093-1.1093,1.3432-2.3317,1.8865-3.6296h0c.1887-.4528.4075-.8753.6414-1.2451.3471-.5584.7244-.9885,1.1168-1.2828.2641-.1962.5207-.3245.7772-.3773.1811-.0377.3547-.0377.5207,0,.1434.0377.2868.0981.4226.1962.0604.0453.1207.0905.1811.1434h.0076c.2264.2113.4603.3999.6942.5735.566.3999,1.1772.6867,1.811.8376.3849.0905.7772.1434,1.1696.1434.1585,0,.3094-.0076.4678-.0226-3.6975,2.4826-7.5837,4.8898-11.6284,7.1838.6791-.747,1.3281-1.5922,1.9242-2.5204h.0076ZM652.5074,560.4936c-.5358-.1283-1.064-.3773-1.5545-.7244-.1811-.1283-.3622-.2792-.5358-.4377-2.6411-20.3894-17.5445-39.594-42.0615-54.2635,2.6637-.1585,5.818-2.4449,8.0591-6.0595,24.3208,14.1186,40.1071,31.9348,45.6761,51.562-.3773,1.3507-.8452,2.626-1.4035,3.7881-1.0036,2.0827-2.2638,3.7655-3.6447,4.8596-.1283.0981-.2566.1962-.3849.2868h0c-.747.5207-1.5092.8678-2.2638,1.0187-.6414.1283-1.2753.1207-1.8865-.0302h0ZM616.8298,498.3747c.7697-1.1017,1.8488-1.7356,2.4902-1.396,23.6945,13.6809,39.6393,30.8934,46.1892,49.8189-.0226,0-.0377-.0151-.0604-.0151-.2716-.0453-.5433-.0226-.8074.0679-.332.1056-.6565.3169-.9583.6112-.3999.3924-.7546.9357-1.064,1.6148-.0377.083-.0679.1736-.1057.2641-5.8708-19.4008-21.6345-36.9982-45.6836-50.9583v-.0075ZM661.3739,554.6831c.5886-1.23,1.0866-2.5807,1.479-4.0145.1283-.4678.2792-.898.4528-1.2828.2641-.581.5735-1.064.898-1.3809.2188-.2113.4377-.3622.6641-.4301.1509-.0528.3094-.0604.4603-.0377.1358.0226.2641.0755.3999.1509.0679.0377.1283.083.1887.1358.1132.0981.2264.1887.3471.2717.5433.3999,1.1168.6942,1.6979.8527.3999.1132.7999.1736,1.2074.1736.2566,0,.5131-.0226.7622-.0679.0151,0,.0226,0,.0377-.0075-3.1241,2.7618-6.4745,5.4633-9.9909,8.0667.5056-.732.981-1.5469,1.4035-2.4298h-.0075ZM669.7953,548.3067c-.5433.0981-1.0942.0679-1.6299-.083-.498-.1434-.981-.3924-1.4564-.7395-.0755-.0604-.1509-.1207-.2264-.1811-6.2783-18.8877-21.7778-36.1002-44.8989-49.8717.9131-.0528,1.9016-.3547,2.9128-.9131l.3094.1811c4.2937,2.4902,8.6477,5.1464,12.9414,7.9007,6.0745,3.8938,11.8397,7.8705,17.1672,11.5832l.5056.3547c5.8104,4.0522,10.3984,7.2517,13.8922,9.3043.8904.5207,1.6224,1.0564,2.2261,1.6375.3396.3245.6414.6565.8904.9961.1585.2113.2943.4226.4075.6263.0905.166.1811.3471.249.5282.0755.1962.1283.3924.166.5735.0377.2113.0377.3999.0151.5735-.0151.0981-.0453.1962-.083.2717-.0302.0604-.0604.1132-.0981.166-.7244.9131-1.562,1.7431-2.4826,2.4676-.5509.4301-1.1244.8074-1.7129,1.1394s-1.1847.6037-1.8035.8225v.0151c-.0528.0226-.1057.0528-.1434.0981-.1434.1509-.1207.3999.0302.5433,2.5279,2.3619,5.2068,4.8295,7.7347,6.965l-.0151.0302c-.6791,1.5469-1.5318,2.8222-2.4751,3.6975h0c-.0981.0905-.2037.1811-.3094.2717-.6867.5584-1.396.9055-2.1204,1.0414h.0075ZM678.7675,533.0336c-.0755.3018-.0905.6641-.083,1.0489l-4.7917-2.7694c.0528-.1283.1057-.2641.1283-.4075.0453-.2566.0377-.5358-.0151-.8301-.0377-.2339-.1057-.4678-.2037-.7169-.083-.2188-.1887-.4301-.2943-.6263-.1283-.2339-.2868-.4754-.4603-.7093-.0151-.0226-.0377-.0453-.0528-.0604l6.6254,3.8258c-.1132.0604-.2264.1358-.3245.2264-.3094.3018-.4603.7169-.5282,1.0112v.0075ZM679.5674,535.4483c-.0226-.2415-.0528-.4905-.0905-.7395-.0076-.083-.0226-.1585-.0302-.2339-.0453-.4754-.0302-.9131.0528-1.2602.0679-.2792.1811-.5131.3245-.649.0679-.0679.1434-.1132.2264-.1434.0905-.0302.1887-.0453.2868-.0377.1358,0,.2792.0453.4377.1056.083.0302.166.0755.249.1207h0c.3169.1736.6339.3245.9357.4528.6565.2641,1.2904.415,1.8714.4377h.1585c.2943,0,.5735-.0453.8452-.1056-1.7205,2.1883-3.5693,4.3616-5.5237,6.4896.3245-1.2375.4226-2.7468.249-4.4295l.0076-.0076ZM411.2987,378.7777c.3924-.1283.8225-.2641,1.1998-.3622.1887-.0528.3622-.0906.5131-.1283.1509-.0302.2792-.0528.3848-.0679s.166-.0151.1887-.0151l204.5501,118.0953c-.6942.2641-1.3885.8602-1.9544,1.6979l-205.8707-118.865c.332-.1207.6641-.249.9961-.3547h-.0076ZM398.2516,383.2978c.4301-.1056.9357-.249,1.4488-.4075.3547-.1056.7471-.2264,1.1621-.3622h0c.2566-.083.5131-.166.7848-.2566.7018-.2339,1.4413-.4829,2.1204-.7244,1.6148-.566,3.3731-1.2149,5.086-1.8714l.5358-.2037,206.3838,119.1517c-2.6713,4.2937-6.7839,6.6782-9.3042,5.32h0l-208.7533-120.5251c.166-.0377.3396-.0755.5358-.1283v.0075ZM394.6069,384.1052c.3622-.1434.7395-.2792,1.0489-.3773.1509-.0528.2868-.0906.4075-.1207.1056-.0302.1962-.0528.2717-.0604.0226,0,.0377,0,.0528-.0075l208.542,120.3968c-.6942.2641-1.3885.8602-1.962,1.6979l-209.606-121.0232c.415-.1811.8452-.3547,1.2375-.5056h.0076ZM381.7107,389.4025c.332-.1056.7546-.2566,1.2149-.4226.4377-.166.981-.3698,1.6299-.6263.5735-.2264,1.1847-.4754,1.7658-.7169,1.4337-.5886,3.0486-1.2753,4.671-1.9846.5131-.2264,1.0112-.4452,1.5017-.664l210.0512,121.2722c-2.6713,4.2937-6.7839,6.6782-9.3042,5.32h0l-211.5755-122.1626s.0302-.0075.0453-.0151ZM377.998,390.7457c.415-.1962.8301-.3999,1.2074-.566.332-.1509.649-.2867.898-.3848.1887-.0755.3245-.1207.4377-.1509l211.168,121.9136c-.6942.2641-1.3885.8602-1.9544,1.6979l-211.9905-122.389c.083-.0377.1585-.0755.2339-.1207ZM367.5694,395.8393c.3245-.1509.7395-.3471,1.2149-.5735l.7471-.3547h0l.7923-.3773c.6414-.3094,1.3281-.6414,2.0374-.9885.7093-.3471,1.4413-.7018,2.1657-1.064.8225-.4075,1.645-.815,2.4223-1.2074l212.3904,122.6229c-2.6713,4.2937-6.7839,6.6782-9.3042,5.32h0l-213.145-123.0681c.1811-.0755.3999-.1811.6791-.3094ZM363.9775,397.5447c.3773-.2037.7471-.4075,1.064-.5735.3018-.1585.566-.2943.7546-.3848.0755-.0377.1434-.0679.1887-.0906l212.5112,122.6908c-.6942.2641-1.3885.8602-1.9544,1.6979l-213.1149-123.038c.1811-.0981.3698-.2037.5509-.3018ZM353.4357,403.5362c.0528-.0377.1283-.083.1962-.1207.6942-.415,1.396-.8301,2.0978-1.2375.5207-.3018,1.1017-.6339,1.7205-.981.6188-.3547,1.2753-.7244,1.9393-1.0942,1.1017-.6188,2.2336-1.2451,3.2674-1.8261l213.462,123.2417c-2.6713,4.2937-6.7839,6.6782-9.3042,5.32h0l-213.462-123.2493s.0528-.0302.083-.0528ZM351.1493,405.0379c.3396-.2113.664-.415.9131-.5735.2641-.166.4754-.3018.6037-.3924h0l212.6017,122.7437c-.6942.2641-1.3885.8602-1.9544,1.6979l-212.9866-122.97c.2717-.166.5433-.3396.815-.5056h.0075ZM341.513,411.3388c.2339-.1887.5358-.415.8829-.6641.2566-.1811.498-.3622.7546-.5358.3698-.2566.7471-.5056,1.1168-.7546.3622-.2415.732-.4905,1.1017-.7244,1.064-.6942,2.5204-1.6073,3.9013-2.46l.332-.2037,213.3035,123.1511c-2.6713,4.2937-6.7839,6.6782-9.3042,5.32h0l-212.5565-122.721c.1132-.1132.2641-.2415.4679-.4075ZM338.5248,413.9271c.3245-.2188.6716-.4679.9734-.6867.3094-.2264.5735-.4301.7697-.581.1434-.1132.249-.2113.3396-.2867l211.4472,122.0796c-.6942.2641-1.3885.8602-1.9544,1.6979l-211.6207-122.1852s.0377-.0226.0528-.0377h-.0075ZM330.8429,419.6621c.249-.2339.566-.5282.9508-.8527.0755-.0604.1585-.1283.2339-.1887.3622-.2943.7546-.6112,1.1545-.9206.4905-.3773,1.064-.7999,1.6526-1.2225.5886-.4301,1.1998-.8527,1.7582-1.2375.3924-.2717.7848-.5358,1.1847-.7999l211.9075,122.3437c-2.6713,4.2937-6.7839,6.6782-9.3042,5.32h0l-210.3756-121.4759c.0755-.1358.2792-.4301.8452-.9734l-.0075.0075ZM328.1716,422.9144c.1585-.1283.3245-.2566.4754-.3773.1585-.1283.3018-.249.4377-.3698.2717-.2415.4829-.4528.6263-.6037.0528-.0604.083-.1056.1207-.1585l209.0174,120.676c-.6942.2641-1.3885.8602-1.9544,1.6979l-208.9947-120.661c.0906-.0679.1811-.1358.2717-.2037ZM320.6558,429.5021c.166-.2566.4075-.5584.6942-.8753.1207-.1283.249-.2717.3848-.415.2264-.2339.4754-.4829.7395-.732.3773-.3622.8452-.7697,1.3432-1.1998.498-.4226,1.0414-.8602,1.5394-1.2526.6188-.4829,1.2526-.9583,1.8865-1.4187l209.2362,120.8043c-2.6713,4.2937-6.7839,6.6782-9.3042,5.32h0l-206.8517-119.4309s-.0679-.2037.332-.7999ZM320.3992,431.2226l205.2293,118.4877c-.6942.2641-1.3885.8602-1.9544,1.6979l-205.0029-118.3594c.1509-.1207.2943-.249.4301-.3698.1585-.1434.3094-.2867.4528-.4301.1434-.1434.2717-.2792.3773-.3999.2037-.2339.3622-.4452.4603-.6263h.0075ZM319.5994,430.4906c.0302.0981.0679.1962.1283.2792.0075.0151.0226.0226.0377.0377,0,.0075-.0075.0226-.0151.0302-.0377.0755-.1434.2415-.3773.5131-.0981.1132-.2188.2415-.3471.3698-.1283.1283-.2717.2641-.4226.3999-.1736.1585-.3547.3094-.5433.4679l-.2792.2188h0c-.249.1962-.5056.3999-.7546.6037.8376-.981,1.6903-1.9544,2.5732-2.9203ZM313.0192,438.4064s0-.0075.0075-.0151h0c.083-.1132.1736-.2264.2641-.3396.2943-.3622.649-.7697,1.0263-1.1621.3848-.4075.8376-.8452,1.3055-1.2753.5282-.4905,1.1168-.9961,1.728-1.5017.2264-.1887.4603-.3698.6942-.5584l205.2142,118.4801c-2.5656,4.1277-6.4745,6.5122-9.0326,5.4482-.2792-.1811-.566-.3622-.8678-.5358l-13.3716-7.7196v-3.1618c0-.2113-.166-.3773-.3773-.3773-3.69,0-7.1838-.815-9.8249-2.2864h0c-.1207-.0679-.2415-.1358-.3622-.2113-.2415-.1434-.4905-.2943-.7093-.4377l-.581-.3622c-.1962-.1207-.3773-.2264-.5358-.3169s-.3169-.1811-.4528-.249c-.1358-.0755-.2566-.1283-.3396-.166h-.0226v-3.2146c0-.2113-.166-.3773-.3773-.3773-3.69,0-7.1838-.815-9.8249-2.2864h0c-.1207-.0679-.2415-.1358-.3622-.2113-.2415-.1434-.4905-.2943-.7093-.4377l-.581-.3622c-.1962-.1207-.3773-.2264-.5358-.3245-.1585-.0905-.3169-.1811-.4528-.249-.1434-.0755-.2566-.1283-.3396-.166h-.0226v-3.2146c0-.2113-.166-.3773-.3773-.3773-3.69,0-7.1838-.815-9.8249-2.2864h0c-.1207-.0679-.2415-.1358-.3622-.2113-.2415-.1434-.4905-.2943-.7093-.4377l-.581-.3622c-.1962-.1207-.3773-.2264-.5358-.3245-.1585-.0905-.3169-.1811-.4528-.249-.1358-.0755-.2566-.1283-.3396-.1736h-.0226v-3.2146c0-.2113-.166-.3773-.3773-.3773-3.69,0-7.1838-.815-9.8249-2.2864h0c-.1207-.0679-.2415-.1358-.3622-.2113-.2415-.1434-.4905-.2943-.7395-.4528l-.5509-.3396c-.1962-.1207-.3773-.2339-.5358-.3169-.1585-.0905-.3169-.1811-.4528-.249-.1434-.0755-.2566-.1283-.3396-.1736h-.0226v-3.2146c0-.2113-.166-.3773-.3773-.3773-3.69,0-7.1838-.815-9.8249-2.2864h0c-.1207-.0679-.2415-.1358-.3622-.2113-.2415-.1434-.4905-.2943-.7093-.4377l-.5735-.3622c-.1962-.1207-.3773-.2339-.5358-.3169-.1585-.0905-.3169-.1811-.4528-.249-.1434-.0755-.2566-.1283-.3396-.1736h-.0226v-3.2146c0-.2113-.166-.3773-.3773-.3773-3.69,0-7.1838-.815-9.8249-2.2864h0c-.1207-.0679-.2415-.1358-.3622-.2113-.2415-.1434-.4905-.2943-.7093-.4377l-.581-.3622c-.1962-.1207-.3773-.2264-.5358-.3169s-.3169-.1811-.4603-.2566c-.1358-.0755-.2566-.1283-.3396-.166h-.0226v-3.2146c0-.2113-.166-.3773-.3773-.3773-3.69,0-7.1838-.815-9.8249-2.2864h0c-.1207-.0679-.2415-.1358-.3698-.2113-.2415-.1434-.4829-.2943-.7093-.4377l-.581-.3622c-.1962-.1207-.3773-.2264-.5358-.3245-.1585-.0905-.3169-.1811-.4528-.249-.1358-.0755-.2566-.1283-.3396-.1736h-.0226v-3.2146c0-.2113-.166-.3773-.3773-.3773-3.69,0-7.1838-.815-9.8249-2.2864h0c-.1207-.0679-.2415-.1358-.3622-.2113-.2415-.1434-.4905-.2943-.732-.4452l-.5584-.3471c-.1962-.1207-.3773-.2264-.5358-.3169s-.3169-.1811-.4603-.249c-.1358-.0755-.2566-.1283-.3396-.1736h-.0226v-3.2146c0-.2113-.166-.3773-.3773-.3773-4.3012,0-8.3157-1.1017-11.0021-3.0335,0,0-.0151,0-.0151-.0075,0,0-.0075-.0075-.0151-.0151l-26.9318-15.5524v-3.1618c0-.2113-.166-.3773-.3773-.3773-3.69,0-7.1838-.815-9.8249-2.2864h0c-.1207-.0679-.2415-.1358-.3622-.2113-.2415-.1434-.4905-.2943-.7244-.4452l-.566-.3471c-.1962-.1207-.3773-.2264-.5358-.3245-.1585-.0906-.3169-.1811-.4528-.249-.1358-.0755-.2566-.1283-.3396-.1736h-.0226v-3.2146c0-.2113-.166-.3773-.3773-.3773-3.69,0-7.1838-.815-9.8249-2.2864h0c-.1207-.0679-.2415-.1358-.3698-.2113-.2415-.1434-.4905-.2943-.732-.4452l-.5584-.3471c-.1962-.1207-.3773-.2264-.5358-.3169-.1585-.0906-.3169-.1811-.4528-.249-.1358-.0755-.2566-.1283-.3396-.1736h-.0226v-3.2146c0-.2113-.166-.3773-.3773-.3773-3.69,0-7.1838-.815-9.8249-2.2864h0c-.1207-.0679-.2415-.1358-.3698-.2113-.2415-.1434-.4905-.2943-.7093-.4377l-.5735-.3622c-.1962-.1207-.3773-.2264-.5358-.3245-.1585-.0906-.3169-.1811-.4528-.249-.1358-.0755-.2566-.1283-.3396-.166h-.0226v-3.2146c0-.2113-.166-.3773-.3773-.3773-1.1847,0-2.3468-.0981-3.4938-.2717.1585-.2943.3698-.6112.6188-.9433l-.0905-.0152ZM301.4361,467.7227c-.0151-.0755-.0377-.1358-.0604-.1962l27.7543-16.0202.0604.0302c.0755.0377.1887.0906.3094.1585.1283.0679.2792.1509.4301.2415s.332.1962.5207.3094l.5735.3547c.1736.1056.3622.2188.5433.332l-31.0594,17.9294c.2415-.5131.4528-1.0036.6112-1.4262.2867-.7999.3924-1.3281.3245-1.7054l-.0075-.0076ZM308.6274,448.0729l7.2895-4.2107.0604.0302c.0755.0377.1811.0906.3094.1585s.2792.1509.4301.2339c.1509.0906.332.1962.5207.3094l.5735.3547c.1736.1056.3622.2188.5433.332l-11.8171,6.8216c.3396-.5131.6565-1.0112.9282-1.4564.4603-.7622.9131-1.5469,1.1017-2.128.0528-.1585.0755-.2867.0755-.3999,0-.0226,0-.0302-.0075-.0528l-.0075.0075ZM307.4352,446.9485c.1887-.4377.4603-.9659.815-1.5696.1736-.2943.3547-.5961.5509-.898.5207-.8225,1.1545-1.728,1.879-2.7015.415-.5584.8602-1.1395,1.3206-1.7205,1.147.1811,2.3317.2867,3.524.3018v2.8599l-7.8101,4.5125h0l-.0981.0528c-.2113.1056-.332.1434-.3924.1509-.0226,0-.0377,0-.0528.0075-.0151-.1358.0226-.415.2717-.9961h-.0075ZM306.4919,448.3144c.0604.1283.1434.2113.2188.2641.0906.0604.2264.1207.4301.1207.0679,0,.1434,0,.2264-.0226.1132-.0226.2415-.0679.3773-.1283-.2037.4905-.5735,1.1319-.9282,1.7129-.4377.7169-.9659,1.5394-1.5771,2.4298l-.2415.3471h0c-.2641.3848-.5282.7622-.7772,1.1395-.9659,1.4337-1.8412,2.8298-2.6109,4.1579,1.3734-3.3806,3.0033-6.7235,4.8898-10.0211h-.0075ZM298.9534,466.0777c.0528-.2641.1207-.5509.2113-.8452.3622-1.2225,1.0263-2.7468,1.9695-4.5276.9734-1.8337,2.2563-3.9466,3.7126-6.1047.2339-.3471.4754-.7018.7244-1.0564l13.5451-7.8177c2.6411,1.4187,6.0293,2.2185,9.6212,2.2714v2.8599l-28.4862,16.4428c-.1056.0528-.2037.1056-.2943.1509-.4301.1962-.6641.1811-.7471.1736-.0679-.0075-.2339-.0377-.3018-.3773-.0604-.2717-.0377-.6791.0528-1.1621l-.0075-.0076ZM298.4177,467.9642c.166.2113.3848.3547.6641.3999.0604.0075.1283.0151.2037.0151.2867,0,.6188-.083.9734-.2415.1132-.0528.2264-.1056.3471-.1736h.0226v-.0151c.0226-.0151.0453-.0226.0604-.0302.0151.2415-.0906.6641-.3018,1.2451-.1962.5358-.4754,1.1847-.8225,1.879-.0906.1887-.1962.3848-.3018.581h0c-.3471.6641-.6791,1.313-.981,1.9393-.649,1.3432-1.1847,2.6034-1.6073,3.7655.3622-3.1316.9357-6.2632,1.728-9.3722l.0151.0075ZM296.916,479.0191c.4528-1.4866,1.1696-3.2523,2.0676-5.1237.2867-.5886.5961-1.1998.9206-1.8261l32.4253-18.7217c2.6411,1.4187,6.0293,2.2185,9.6212,2.2714v2.8599l-43.3972,25.0603c-.4301.2339-.8301.3773-1.147.415-.1962.0226-.4829.0075-.6867-.1736-.1585-.1358-.2792-.3773-.3471-.6867-.0604-.2868-.0906-.6339-.0679-1.0338.0377-.8225.2415-1.8488.6037-3.0486l.0075.0075ZM297.2631,484.7164c.0755,0,.1509,0,.2264-.0151.415-.0453.9055-.2188,1.4262-.5056h0c.1132-.0604.1887-.083.2264-.0981.0528-.0151.083-.0075.0981,0,.0453.0604.1283.2641.0302.8904-.0679.4226-.2113.9583-.415,1.5318-.0906.2566-.1962.5207-.3094.7999h0c-.3848.9357-.732,1.8488-1.0187,2.7166-.3547,1.0715-.6188,2.0903-.8074,3.026-.3471-2.8977-.498-5.8029-.4754-8.7081.2717.2264.6188.3471,1.0112.3471l.0075.0151ZM702.9752,515.1797c0,64.6544-91.2314,117.2502-203.3654,117.2502s-203.3654-52.5958-203.3654-117.2502v-20.0271c.083.5584.1736,1.1093.2641,1.6677h0c2.1129,12.1868,7.4706,24.0567,15.9146,35.2852h0c2.6185,3.4787,5.5614,6.9272,8.7534,10.2475h0c1.6828,1.7507,3.4636,3.4938,5.2973,5.1917,4.7163,4.3691,9.9834,8.5949,15.6429,12.5641.0075,0,.0151.0151.0226.0151h0s.0604.0453.0679.0453h0c5.5765,3.9013,11.6435,7.6366,18.0425,11.0927,6.4669,3.4938,13.3942,6.7688,20.5931,9.7495h0c.0151,0,.0377.0151.0528.0226,7.4102,3.0637,15.2505,5.8633,23.3021,8.3233,8.7987,2.6864,18.0199,5.0257,27.4072,6.9424,12.6094,2.5732,25.7093,4.4371,38.9601,5.5388,9.6363.7999,19.3405,1.1998,29.0371,1.1998s19.4008-.3999,29.0371-1.1998c13.2433-1.1017,26.3432-2.9656,38.945-5.5312h.0377l.3169-.0679s.0302,0,.0377-.0076c9.2514-1.9016,18.3444-4.2031,27.0223-6.8518,8.0667-2.4675,15.9296-5.2747,23.355-8.3459,7.1989-2.9731,14.1262-6.2557,20.5931-9.7495,6.4368-3.4712,12.534-7.2291,18.1331-11.153h0l.0151-.0151c5.6595-3.9692,10.9115-8.1874,15.6278-12.549,1.8337-1.6979,3.6146-3.4485,5.2973-5.1917,3.192-3.3202,6.1425-6.7763,8.7609-10.255h0c2.7241-3.6296,5.1615-7.3725,7.2442-11.1379,2.1959-3.9692,4.0447-8.0592,5.501-12.1566,1.5696-4.3993,2.709-8.9043,3.3957-13.3791.0151-.0981.0227-.1962.0377-.2943v20.0347l.0151-.0076Z"/>
  </g>
  <g id="Layer_3" data-name="Layer 3">
    <path d="M475.54,632.44c-4.84.2-9.7267.3-14.66.3-112.73,0-204.12-52.91-204.12-118.18,0-34,24.74-64.57,64.36-86.12-2.9748,3.1091-5.763,6.3915-8.35,9.83-1.35,1.8-2.63,3.61-3.81,5.44-.16.23-.3.45-.45.68s-.2.31-.29.47c-3.9605,6.1878-7.0685,12.8815-9.24,19.9-.06.17-.11.35-.16.52-1.6569,5.5263-2.6242,11.2363-2.88,17v.32c0,.89-.05,1.78-.05,2.67v30.21c-.01,60.26,78.45,109.99,179.65,116.96Z"/>
  </g>
</svg>