<?xml version="1.0" encoding="UTF-8"?>
<svg id="Layer_1" data-name="Layer 1" xmlns="http://www.w3.org/2000/svg" viewBox="0 0 1000 1000">
  <g id="Layer_2" data-name="Layer 2">
    <path d="M326.7703,442.3379s0,.0399.02.0599l.02.02c.0399.0699.0898.1198.1697.1697h0l5.0807,2.9346h0c.0599.0399.1298.0499.1996.0499.02,0,.0299.01.0399.01h0c.02,0,.0299-.01.0499-.01.0699,0,.1397-.02.1996-.0499h0l7.2667-4.1923c1.4573-.8385,2.166-1.657,2.166-2.4954,0-.6688-.4492-1.2677-1.3276-1.7768-1.2677-.7386-3.4936-1.2078-6.8375.7287l-6.8375,3.9528-.02.02c-.0299.02-.0499.0399-.0799.0699l-.0699.0699-.02.02c-.01.02-.01.0399-.02.0599-.01.0299-.0299.0599-.0299.0998v.1797c0,.0299.02.0699.0299.0998v-.0199l.0003-.0002ZM334.3066,438.6346c2.3258-1.3376,4.3421-1.5871,5.8393-.7287.3793.2196.8285.559.8285.9183,0,.1996-.1597.7686-1.667,1.637l-7.0172,4.0526-4.0825-2.3557,6.0889-3.5136.01-.01h0ZM343.2802,451.8705s0,.0399.02.0599l.02.02c.0399.0699.0898.1198.1697.1697h0l5.9292,3.4237h0c.0599.0399.1298.0499.1996.0499.02,0,.0299.01.0399.01h0c.02,0,.0299-.01.0399-.01.0699,0,.1397-.02.1996-.0499h0l7.8557-4.5317c2.0363-1.1778,2.9845-2.206,2.9845-3.2341,0-.7187-.4691-1.3475-1.3875-1.8766-1.5073-.8684-4.1225-1.4274-8.0254.8185l-7.8557,4.5317-.02.02c-.0299.02-.0499.0399-.0799.0699-.02.02-.0499.0499-.0599.0699l-.02.02c-.01.02-.01.0399-.02.0599-.01.0299-.0299.0599-.0299.0998v.1797c0,.0299.02.0699.0299.0998h.0103ZM351.8446,447.5783c2.7649-1.5971,5.1905-1.8766,7.0272-.8185.5889.3394.8884.6788.8884,1.0181s-.3194,1.118-2.4855,2.3657l-7.6061,4.392-4.931-2.8448,7.107-4.1025v-.01h0ZM790.3042,477.8031c0-.4292-.2795-.8285-.7486-1.088h0l-13.7249-7.9255h-.02c-.7885-.4592-1.9764-.4691-2.7849-.0299h0l-19.175,11.0698-12.3175-30.5243v-.01c-.2695-.6588-1.2178-1.0581-2.2259-.9283-.3094.0399-.5989.1198-.8385.2495h-.01l-16.959,9.7921v-12.7966c0-5.3502-4.3321-10.6805-12.5371-15.4218l-23.9962-13.8547h0c-.6688-.3593-1.667-.3793-2.3757-.0499,0,0-.01,0-.02.01h-.02l-15.901,9.1832s-.01.01-.02.02h-.02c-.3394.2396-.519.559-.539.9083v17.1687l-9.872-5.6996v-31.8219c0-4.1325-2.9047-7.9954-8.3847-11.1596-7.3765-4.2522-16.7594-5.7695-25.9227-4.6216v-9.9019c-.02-.2795-.1597-.529-.4392-.7187-.0399-.0299-.0798-.0499-.1298-.0699h-.0299c-.2895-.1597-.6189-.2396-1.4573-.3593h0l-42.3926-6.0989-5.5099-19.8238h0c-.2296-.7586-.4492-1.098-.8385-1.3475l-.01-.01h-.01s-.01,0-.02-.01c-.01,0-.02,0-.0399-.01-.6388-.3893-1.617-.4392-2.3158-.0898-.0599.0299-.1098.0599-.1597.0898h0l-3.9927,2.3058v-6.6778c0-.3993-.2096-.7886-.5789-1.078,0,0-.02,0-.0299-.02-.01,0-.02-.02-.0299-.02l-11.9981-6.9274h-.0299s-.02-.01-.0299-.02c-.8285-.3494-1.9365-.3494-2.7649,0,0,0-.02.01-.0299.02h-.0299l-5.2804,3.0444v-4.0626c0-.3993-.2096-.7886-.5789-1.078,0,0-.02,0-.0299-.02-.01,0-.02-.02-.0299-.02l-11.9981-6.9274h-.0299s-.02-.01-.0299-.02c-.8285-.3494-1.9365-.3494-2.7649,0,0,0-.02.01-.02.02h-.0299l-.1497.0799v-3.9927c0-.3993-.2096-.7886-.5789-1.078,0,0-.02,0-.0299-.02-.01,0-.02-.02-.0299-.02l-11.9981-6.9274h-.0299s-.02-.01-.02-.02c-.8285-.3494-1.9365-.3494-2.7649,0,0,0-.02.01-.02.02h-.0299l-43.8001,25.2838h-.02c-.3893.2595-.6089.6189-.6089,1.0082h0v12.9963c-12.058-1.5472-25.194.8984-36.2938,7.3067l-21.7803,12.577-.02.01c-.02.01-.01,0-.02,0-.3593.2495-.549.5789-.559.9483v11.3193c-10.5507-1.1479-22.6087,1.1279-32.2012,6.6678-7.4364,4.2922-11.529,9.7921-11.529,15.4817v20.0035c-.8185,0-1.647.02-2.4755.0799,0-.0299,0-.0599-.02-.0799-.0599-2.7849-1.9864-5.4401-5.4201-7.3566h0c-10.1215-5.8393-23.8365-3.1443-32.9499,2.1161l-30.0551,17.3483-.01.01h-.01c-.3893.2595-.5989.6089-.5989.9982h0v20.6922l-25.0143-6.7377h0c-.0599-.02-.1298-.02-.1897-.01-.0699,0-.1298.0299-.1897.0599l-16.5699,9.5126s-.02.02-.0299.0299c-.01,0-.02,0-.0299.02,0,0,0,.01-.02.02-.02.01-.0299.0299-.0399.0399-.02.02-.0299.0399-.0399.0599s-.02.0299-.0299.0499c0,.02-.01.0299-.02.0499,0,.02-.01.0499-.02.0699v58.7727s0,.0399.01.0599c0,.0299,0,.0699.02.0998.01.0299.0299.0599.0499.0898.01.02.02.0399.0299.0599l31.3128,38.7393h0c0,.01.02.02.0299.0299h0c.1996.2695.4392.5191.7287.7486h0c.02.01.0299.0299.0499.0399h.01s0,.01.01.01.0299.01.0499.02.0399.02.0699.0299c.2196.1198.4791.1897.7586.1897.2495,0,.5091-.0499.7187-.1597.01,0,.0699-.0399.0799-.0399h0l5.4201-3.1343v6.5181c0,.3893.2096.7486.5989.9982h.01l.01.01,48.7909,28.1686h.01l.01.01h.02c.01,0,.0299,0,.0399.01.3494.1597.7686.2495,1.1878.2495s.8385-.0898,1.1779-.2495c.01,0,.0299,0,.0399-.01h.0399l4.382-2.5154v5.8493c0,.3993.2296.7686.6388,1.0281h0l48.761,28.1486h.01l.01.01h.02c.01,0,.0299,0,.0399.01.3494.1597.7686.2495,1.1878.2495s.8385-.0898,1.1878-.2495c.01,0,.0299,0,.0399-.01h.02l.01-.01h.01l18.2766-10.5507v14.1242c0,5.5299,3.9129,10.7105,11.3293,14.9926,7.3266,4.2323,16.2004,6.4682,25.4436,6.4682,1.6969,0,3.4138-.0898,5.1306-.2396v10.95c0,.3194.1897.6089.5191.7786h.0299c.3693.1797.7786.3194,1.2078.4292h0l66.0894,18.0071h0c.0299,0,.0699,0,.0998.01h.0299c.1996.0399.3993.0798.6089.0798.4592,0,.9183-.1098,1.2777-.3094h0l13.0562-7.5362h0c.4292-.2495.6688-.6189.6688-1.0181v-11.3792l12.6369,3.7032h0c.2595.0798.529.1098.7985.1098.4592,0,.9083-.1098,1.2577-.3094h0l13.0562-7.5362h0c.4093-.2495.6388-.6089.6388-.9982v-5.9591l1.9764,2.4256h0c.2994.4392.6788.8684,1.1379,1.2477h0c.01,0,.02.02.0299.0299,0,0,.02,0,.0299.01,0,0,0,.01.02.02.01,0,.0299.01.0499.02.02,0,.0299.02.0499.0299.01,0,.0299,0,.0399.01.2196.1098.4791.1797.7386.1797.2495,0,.4991-.0499.7087-.1497.02,0,.0798-.0399.1098-.0599h0l15.4119-8.9038c.4492-.2595.8984-.5789,1.0082-1.0681.0299-.0599.0499-.1298.0499-.1996v-13.6751l14.7231,4.382h.01c.529.1298.9483.2096,1.3276.2096.5989,0,1.088-.1697,1.7169-.529l15.4019-8.8938h.01v-.02c.3094-.1697.4891-.4492.4891-.7586v-2.9845l.4791,1.088h0c0,.02.02.0299.0299.0499.0998.2595.2695.4891.529.6887.01.02.0299.0299.0399.0399l.02.02.01.01h.01s.02,0,.0299.02c.02.01.0499.0299.0798.0399.1897.0998.4192.1697.6588.1697.2096,0,.4292-.0399.6289-.1298h.02s.01-.01.02-.01h.02l17.3982-10.0417h.01c.7287-.3394,1.1579-.8984,1.1579-1.4973v-7.8656l10.3711,1.4174h.0599c.2895.0599.5789.0998.8784.0998.7985,0,1.5871-.2096,2.1361-.5789h0l17.9173-10.3411h0c.01,0,.02-.02.0299-.0299.0299-.02.0499-.0399.0699-.0699.01-.01.02-.0299.0399-.0399.0898-.0898.1597-.1897.1996-.3094.0399-.0699.0699-.1497.0699-.2296v-22.4091l1.5073.2296,17.5679,10.1415h.01l.02.01h.02c.01,0,.02,0,.0299.01.3494.1597.7686.2495,1.1878.2495s.8285-.0898,1.1778-.2495c.01,0,.0299,0,.0399-.01h.02l.01-.01h.01l17.3184-9.9918.01-.01h.01c.3893-.2495.6089-.6189.6089-1.0082v-39.458l5.6796-3.284,12.6968,30.3346.02.02c.2396.569.9882.9383,1.8366.9383.1298,0,.2595,0,.3893-.02.2795-.0399.539-.1198.7686-.2296,0,0,.02,0,.0299-.01,0,0,.02,0,.0299-.01h0l48.7011-28.1187h0c.4392-.2695.6887-.6588.6887-1.078v-58.6829h0v-.01l.1896-.01v.0006ZM674.9847,449.8941c3.9328,2.2659,7.8557,3.4138,11.4391,3.4138,2.5953,0,5.0009-.5989,7.107-1.8167,2.196-1.2677,3.304-2.745,3.304-4.402,0-2.2359-2.0463-4.5517-6.0789-6.8774l-23.567-13.6052c-.1198-.0799-.1497-.1397-.1597-.1497,0,0,.0299-.0599.1098-.1198l15.8411-9.1433c.4192-.1996,1.078-.1797,1.4673.0299l23.9862,13.8447c7.8756,4.5517,12.038,9.5825,12.038,14.5534s-4.0227,9.7722-11.6288,14.1641c-15.7512,9.0934-34.7266,9.0036-50.7374-.2396l-23.9862-13.8447c-.1198-.0799-.1497-.1397-.1497-.1497s.0299-.0599.1098-.1298l15.8311-9.1433c.4292-.1996,1.078-.1897,1.4773.02l23.567,13.6052.03-.01v.0002ZM667.4285,444.3742v-16.4799l22.8283,13.1859c3.6533,2.1062,5.5798,4.1923,5.5798,6.019,0,1.2777-.9483,2.4655-2.8049,3.5435-4.7014,2.715-11.0897,2.1261-17.548-1.5971l-8.0553-4.6515v-.02h0ZM662.208,487.2359h0c0-.3893-.2196-.7387-.6089-.9982h-.02l-18.3465-10.5907v-17.6178h0c0-.3993-.2096-.7786-.5889-1.0681,0,0-.02,0-.0299-.01-.01,0-.02-.02-.0299-.02l-8.215-4.7413v-5.1706l23.2476,13.4255c8.235,4.7513,17.2385,7.137,26.2022,7.137s17.5679-2.2958,25.5334-6.8974c5.6996-3.294,9.4527-6.8974,11.1297-10.6206v8.9636l-29.9553,17.2984h0c-.4093.2595-.6488.6189-.6688,1.0181,0,.02-.01.0399-.01.0499v4.6914l-1.1978-2.6751h0c-.2396-.4891-.3893-.6189-.6488-.7686h-.02s-.01,0-.02-.01c-.4691-.2196-1.108-.1897-1.5372.0599-.01,0-.02,0-.0299.01l-19.2648,11.1197h0c-.529.3094-1.3974.8185-1.4174,1.637v9.9618l-3.4737-.7786v-13.3456h0l-.0299-.0599v.0002ZM644.1211,497.1778c-.4392.2196-1.118.2096-1.5572,0l-32.6803-18.8656c-.7087-.4093-1.8267-.4093-2.5354,0l-13.695,7.9056c-.5789.2296-1.3675.2296-1.9365,0l-13.6351-7.8756c-.1198-.0998-.1897-.1996-.1897-.2795s.0599-.1797.1697-.2695l48.3917-27.939c.5789-.2296,1.3675-.2296,1.9365,0l13.6351,7.8756c.1198.0898.1897.1996.1897.2795h0c0,.0799-.0599.1797-.1697.2695l-13.6751,7.8956h0c-.4292.2396-.6688.6089-.6688,1.0082s.2396.7686.6688,1.0181h0l32.6704,18.8656c.1198.0799.1597.1497.1597.1697,0,.01-.0299.0799-.1398.1597l-16.9491,9.7821h.01ZM660.8405,488.6733v11.5988l-6.9473-1.5472h0c-1.4274-.2695-2.3257.0299-3.4038.6488l-5.6297,3.2541v-4.7114l16.0008-9.2331-.02-.01h0ZM643.8416,498.2858v4.911l-1.0082.5889v-5.5c.1697.0299.3394.0599.519.0599s.3294-.02.4991-.0499l-.01-.01h.0001ZM630.6956,511.2521v4.0526l-.8185-1.9065s-.02-.0299-.0299-.0499c-.1098-.2895-.2994-.549-.5889-.7586h-.02c-.3294-.2296-.8185-.2695-1.2777-.1198h-.0299c-.0499.02-.0998.0299-.1497.0499h0l-16.6596,9.6125v-12.9763h0c0-3.5535-2.2559-6.7377-6.5281-9.2032-3.0944-1.7867-6.5081-2.8448-10.2014-3.1842v-9.8021l13.4854-7.7858c.4093-.2396,1.1279-.2396,1.5372,0l32.4408,18.7358v6.4582l-10.6006,6.1188h-.01v.01c-.2994.1697-.4891.4292-.5091.7187v.0299h-.0399ZM610.3527,526.2347l3.0444,5.6796-3.0444-.4192v-5.2604h0ZM565.7641,543.0441h0c0-.3294-.1897-.6289-.529-.8185h-.02l-.02-.02c-.559-.2495-1.2078-.4093-1.8965-.4791h0l-6.049-.8884v-8.8938c2.9546,1.627,6.7577,2.4256,11.0698,2.4256,8.3248,0,18.5062-2.9346,28.0189-8.4246,7.1969-4.1524,11.8684-8.4346,13.7848-12.587v9.3629c-.4392.3094-.7087.6688-.7386,1.1279,0,.02-.01.0399-.01.0699v7.4364l-9.2731-1.2777h0c-1.7668-.2595-2.4555-.1697-3.4936.4292h0l-17.9772,10.381h0c-.2495.1597-.3893.3893-.3993.6488v16.8892l-12.4173-3.3639v-12.0181h-.0499v.0002ZM543.5247,554.7128l-17.8274-2.735h-.1797c-.02,0-.0399,0-.0599.02-.02,0-.0499.02-.0699.0299h-.0299l-3.1942,1.8466-.02.02c-.0299.02-.0499.0399-.0699.0699-.02.02-.0499.0499-.0699.0799l-.02.02c-.01.02-.01.0399-.02.0599-.01.0299-.0299.0599-.0299.0998v.1797c0,.0399.02.0699.0299.0998,0,.02,0,.0399.02.0599,0,0,.01,0,.02.02.0399.0699.0898.1198.1697.1697h0l10.8103,6.2386c.1198.0799.1597.1497.1597.1697s-.0399.0898-.1597.1697l-17.3583,10.0217c-.4492.2196-1.1379.2196-1.5871,0l-48.741-28.1386c-.1198-.0799-.1497-.1497-.1497-.1697s.0299-.0898.1597-.1697l27.38-15.8111c12.7867-7.3865,29.7956-7.8656,41.3745-1.1878h0c6.019,3.3838,8.5444,8.195,6.7676,12.8565v.0599c0,.0299-.02.0699-.02.0998v.0898c0,.0299.01.0599.02.0898s.0299.0599.0399.0898c.02.0299.0299.0499.0499.0699.02.0299.0499.0499.0798.0699.02.01.0299.0299.0399.0399l.1597.0898h.02c.0499.0299.0998.0499.1597.0599l21.7303,3.2042h.02c.549.0499,1.0581.1797,1.5073.3593-.02.01-.0399.0299-.0699.0499h0l-19.5743,11.2994h0c-.3593.2196-.9283.3294-1.4773.2695l.01.0399h-.0001ZM544.7624,555.6011v4.8312l-.7886.4492v-5.1805c.2695-.01.539-.0499.7886-.1098v.01h0ZM542.9757,562.0094s-.02.0599-.02.0998v6.1488l-2.5254-3.0844h0c-.2096-.2795-.4791-.529-.7985-.7586h0c-.4492-.2895-1.1479-.3094-1.617-.0599-.02,0-.0898.0499-.1198.0699l-3.7332,2.1561v-5.3902h0c0-.3893-.2196-.7387-.5989-.9982h-.0299l-7.3965-4.2722v-2.8248l16.8492,2.5853v6.3784l-.01-.0499h0ZM525.1283,553.3353v1.9664l-1.6969-.9782,1.6969-.9782v-.01h0ZM520.5666,575.1854s-.01.0299-.01.0499v13.156l-4.1924-1.2178v-15.0725l16.4001-9.4727v4.7314l-11.1996,6.4682h0c-.5789.3094-.9383.7486-.9982,1.2477v.1098h.0001ZM515.3661,572.4703v14.4037l-1.0381-.2994v-14.1043c.1697.0299.3394.0499.519.0499s.3494-.0299.529-.0599l-.01.01h.0001ZM500.3435,580.7951v-.0698h0l-1.9065-11.529h0v-.02c-.1198-.7187-.9982-1.2377-2.0662-1.1679h0l-8.3148.4592c-1.9564-2.186-4.4619-4.1824-7.4963-5.9092h0c-4.5717-2.6352-9.6923-4.4619-15.0226-5.5099v-12.5371l47.7928,27.5896v14.1841l-7.7359-2.2559h0c-.6887-.2096-1.4873-.1298-2.0463.1897h0l-3.1642,1.8267v-5.1805s-.01-.0499-.02-.0699h-.02ZM494.7138,589.3096h0c-.3693.2096-.5989.519-.6488.8584v.0699c0,.0299-.02.0599-.02.0898v13.0562l-3.0844-.8684v-19.9137l7.656-.4192h.01c.2695-.02.5191-.0798.7486-.1597v4.5916l-4.6515,2.6851-.01.01h0ZM495.0432,591.855l13.705,15.6415-13.705-3.833v-11.8084h0ZM367.7056,508.8066s-.02,0-.0299-.02c0,0-.01-.02-.02-.02l-12.8765-7.4364s-.02,0-.0299-.01l-.02-.02c-.559-.2396-1.2377-.2995-1.8666-.2196v-10.7903c1.6071,3.7831,5.1107,7.3366,10.2713,10.3212,7.3765,4.2622,16.44,6.3883,25.5334,6.3883s18.5262-2.196,26.1123-6.578c5.5698-3.2141,9.2531-6.7676,10.9001-10.4609v19.3846l-12.7268-1.5372h0c-.9083-.1497-1.8666,0-2.5553.3893h0l-13.126,7.5762-.02.02s-.02,0-.0299.01c-.2995.2296-.4592.529-.4791.8485v33.7584l-28.4081-16.4001v-24.1459c0-.3993-.2096-.7886-.5789-1.078l-.0499.02-.0002-.0002ZM349.6386,497.1678c0-.3993-.2096-.7786-.5789-1.0681,0,0-.02,0-.0299-.02-.01,0-.02-.02-.0299-.02l-2.6751-1.5472v-20.283l29.6359-17.1088c4.9609-2.8648,8.2749-5.8693,9.8121-8.8439v15.1324c-6.9872.4891-14.8429,2.4755-22.3292,6.8076-7.4764,4.3221-11.5988,9.7821-11.5988,15.3719v15.7712l-2.206,1.2777v-5.46h0v-.01l-.0002.0002ZM428.844,455.1345h0c.0599.0399.1298.0499.1996.0499.02,0,.0299.01.0399.01h0c.02,0,.0299-.01.0399-.01.0699,0,.1397-.02.1996-.0499h0l16.2304-9.3729c.0699-.0399.1198-.0998.1697-.1697,0,0,.01,0,.02-.02.01-.02.01-.0399.02-.0599.01-.0299.0299-.0599.0299-.0998v-.1797c0-.0299-.02-.0699-.0299-.0998,0-.02,0-.0399-.02-.0599l-.02-.02c-.02-.0299-.0399-.0499-.0699-.0799-.02-.02-.0499-.0499-.0699-.0599l-.02-.02-17.8674-10.3112h0c-.1397-.0799-.1697-.1497-.1697-.1597,0,0,.0299-.0499.0998-.1098l15.4019-8.8938c.4292-.1897,1.078-.1697,1.4673.0399l48.781,28.1586h0c.1397.0799.1697.1497.1697.1597,0,0-.0299.0499-.0998.1098l-15.4019,8.8938c-.4292.1897-1.088.1697-1.4673-.0399h0l-14.813-8.5544h-.0299c-.02,0-.0399-.02-.0599-.02s-.0399-.01-.0699-.02h-.1996c-.02,0-.0499.01-.0699.02-.02,0-.0399.01-.0599.02h-.0299l-16.2304,9.3729-.02.02c-.0299.02-.0499.0399-.0799.0699-.02.02-.0499.0499-.0599.0699l-.02.02c-.01.02-.01.0399-.02.0599-.01.0299-.0299.0599-.0299.0998v.1797c0,.0299.02.0699.0299.0998,0,.02,0,.0399.02.0599l.02.02c.0399.0699.0898.1198.1697.1697h0l14.813,8.5544c.1397.0799.1697.1497.1697.1597,0,0-.0299.0499-.0998.1098l-15.4019,8.8938c-.4292.1897-1.088.1697-1.4673-.0399l-48.781-28.1586c-.1397-.0799-.1697-.1497-.1697-.1597,0,0,.02-.0499.0998-.1098l15.4019-8.8938c.4292-.1897,1.088-.1697,1.4673.0399l17.8674,10.3212.02-.0101h.0002ZM427.5364,453.228v-17.5879l16.7893,9.6923-15.2322,8.7939-1.5572-.8984h0ZM432.8667,399.566h0c-.9782-.519-2.4156-.519-3.3938-.01h-.01l-4.7413,2.735v-6.6279c0-.529-.3893-1.0381-1.098-1.4474-3.6633-2.1161-8.0553-3.4836-12.7867-4.1424v-10.0017l47.7928,27.5896v7.6161l-9.9718,5.7595h-.0299c-.3893.2595-.5989.6189-.5989.9982v4.2822l-3.0045-1.7368h0c-.6588-.3693-1.657-.4093-2.3757-.0799l-.02.02h-.02l-1.5871.9183v-14.4736c0-4.402-2.8049-8.3448-8.1152-11.4092l-.0399.01h0ZM466.4254,411.9134c.4392-.2196,1.1279-.2196,1.5771,0l48.8508,28.1985c.1198.0799.1497.1497.1497.1697s-.0399.0898-.1497.1697l-17.2685,9.9718c-.4392.2196-1.1379.2196-1.5771,0l-48.8508-28.1985c-.1198-.0799-.1497-.1497-.1497-.1697s.0399-.0898.1497-.1697l17.2685-9.9718h0ZM459.5979,414.6983v-6.6578c.1697.0299.3494.0599.5191.0599.1597,0,.3194-.02.4691-.0499v6.0789l-.9882.569h0ZM461.5942,413.5504v-5.8693l21.6904-12.5271c6.7776-3.9129,11.1896-8.1352,13.0462-12.3974v44.349l-27.8492-16.0806h-.02c-.7187-.3593-1.7668-.3593-2.4855,0h-.02l-4.3521,2.5154-.01.01h.0002ZM485.7801,363.5218c-4.9011-2.8348-10.4609-4.6815-16.3002-5.5898v-11.7186l47.7628,27.5697v9.1832l-.0798-.0499h-.0299c-.7187-.3593-1.7568-.3494-2.4655.02h-.01l-17.3084,9.9918v-14.6932c0-5.2604-3.9927-10.3411-11.5489-14.7032l-.02-.01h0ZM546.1499,400.8037c5.7295,3.304,8.754,7.0871,8.754,10.9201,0,4.402-3.813,8.8339-11.3393,13.1759-15.7712,9.1134-30.3047,7.2068-38.6495,2.3956l-3.304-1.9065c-.2795-.1996-.4292-.4292-.4292-.6488s.1697-.4592.4592-.6588l16.2304-9.3729c.569-.2396,1.3575-.2495,1.9365-.01l2.1261,1.2278c1.3076.7486,2.6751,1.1279,3.9728,1.1279,1.0581,0,2.0662-.2495,2.9446-.7586,1.2677-.7287,1.5272-1.5272,1.5272-2.0662,0-.8984-.6987-1.7568-2.0862-2.5553l-30.4644-17.5879c-.1198-.0799-.1397-.1397-.1397-.1597,0-.01.0299-.0799.1597-.1697l17.2785-9.9718c.4292-.2196,1.118-.2196,1.5572,0l29.4762,17.0189h-.0101ZM518.2309,383.5352v-9.3829c.1697.0299.3394.0499.519.0499s.3494-.0299.529-.0599v9.9818l-1.0381-.5989-.01.01h.0001ZM520.2771,379.9019v-6.1188l42.8218-24.7249v5.9292l-11.8084,6.8176h0c-.8584.4891-1.3276,1.1779-1.3276,1.8965h0v12.9663l-10.97-6.3384h0c-.6688-.3693-1.6769-.3893-2.3956-.0599,0,0-.01.01-.02.01h-.02l-15.8011,9.1233s-.01.01-.02.02c0,0-.02,0-.02.01-.1797.1298-.3194.2895-.4093.4592l-.03.01h.0003ZM597.2067,430.4995c7.097,4.1025,10.8502,8.9836,10.8502,14.1342s-3.853,10.3012-10.8502,14.3438c-12.5072,7.2168-33.8083,9.5326-50.3182,0-7.0871-4.0925-10.8302-8.9736-10.8302-14.1242s3.843-10.3112,10.8302-14.3438c12.5072-7.2168,33.8083-9.5326,50.3182,0v-.01h0ZM570.3457,423.1429v-13.3257c.1697.0299.3494.0599.519.0599.1398,0,.2895-.02.4292-.0399v13.2857c-.3194,0-.6289.02-.9483.0299v-.01h.0001ZM581.176,410.2365h0v13.6251c-2.9247-.4891-5.8992-.7486-8.8838-.7586v-13.6251l14.803-8.5444v5.2404l-5.2804,3.0444h-.02c-.3993.2595-.6089.6189-.6089,1.0082h0l-.01.01h.0001ZM609.0551,444.6237c0-5.5199-3.9328-10.7005-11.3493-14.9926-4.6016-2.6552-9.7722-4.4918-15.1523-5.5299v-12.4074l47.7628,27.5697v10.5308l-1.4474-.8385h-.0299s-.02-.01-.02-.02c-.8185-.3494-1.9165-.3494-2.735-.02-.01,0-.02.01-.0299.02-.01,0-.02,0-.0299.01l-16.959,9.7921v-14.1043h0l-.01-.01h-.0001ZM562.9991,479.2505v-.0299c-.02-.3893-.2495-.7287-.6588-.9682h0l-26.282-15.1723v-13.5053c1.5971,3.7432,5.0807,7.2268,10.3311,10.2613,7.8457,4.5317,16.7594,6.4382,25.3238,6.4382,9.8221,0,19.185-2.5054,26.0025-6.4382,5.2105-3.0045,8.744-6.6179,10.3511-10.4509v9.9319l-30.5343,17.6278s-.02.02-.0299.0299c-.01,0-.02,0-.0399.02-.3593.2895-.549.6588-.559,1.0481v10.4509c-3.8031-.7886-8.5444-.7886-13.9046.2795v-9.5228ZM531.277,511.7312v11.6587c-.6189-.2695-1.2477-.529-1.8866-.7686v-24.096c-.02-.3893-.2495-.7287-.6588-.9682h0l-19.0652-10.9999,38.2003,1.5971h.1198c.4691,0,.9183-.1098,1.2677-.3094h0l12.4373-7.1769v8.3747c-5.2504,1.2078-11.0598,3.4237-17.1387,6.9373-8.5644,4.941-13.2857,10.5408-13.2857,15.7512v.01l.0101-.01h-.0002ZM548.7651,486.9764c-.2196.1198-.539.1797-.8584.1797l-39.5777-1.647h-.0499c-.0299,0-.0599,0-.0898.02-.02,0-.0499,0-.0699.02-.01,0-.0299.01-.0399.02h-.0299l-.2994.1797-.02.02c-.0299.02-.0499.0399-.0798.0699-.02.02-.0499.0399-.0599.0699,0,0-.02.01-.02.02-.01.02-.01.0399-.02.0599-.01.0299-.0299.0599-.0299.0998v.1897c0,.0399.02.0699.0299.0998,0,.02,0,.0399.02.0599,0,0,.01,0,.02.02.0399.0699.0898.1298.1697.1697l20.4626,11.8184c.1298.0799.1697.1497.1697.1597,0,0-.02.0499-.0998.1098l-15.4019,8.8938c-.4392.1897-1.078.1697-1.4773-.0399h0l-48.6811-28.1087c-.1298-.0799-.1697-.1497-.1697-.1597,0,0,.02-.0499.0998-.1098l13.156-7.5961.01-.01h0c.1996-.1298.4991-.1996.8185-.1996l39.5977,1.5771h.02c.0798,0,.1597-.02.2196-.0599h.0299l.2196-.1298h0c.0699-.0399.1198-.0998.1697-.1697,0,0,.01,0,.02-.02s.01-.0399.02-.0599c.01-.0299.0299-.0599.0299-.0998v-.1897c0-.0299-.02-.0699-.0299-.0998,0-.02,0-.0399-.02-.0599,0,0-.01-.01-.02-.02-.02-.0299-.0399-.0499-.0699-.0799-.02-.02-.0499-.0499-.0699-.0699,0,0-.01-.01-.02-.02l-20.4626-11.8184c-.1397-.0799-.1697-.1497-.1697-.1597,0,0,.0299-.0499.0998-.1098l15.3919-8.8838c.4392-.1797,1.0681-.1597,1.4374.0599l48.781,28.1586c.1398.0799.1697.1497.1697.1597,0,0-.0299.0499-.0998.1098l-13.146,7.5862.0199-.01-.0002-.0002ZM528.0829,499.9727v22.2095c-4.5118-1.4673-9.4627-2.1161-14.4736-1.9564v-11.8983l14.4736-8.3547h0ZM512.6111,508.6768v11.6088c-.3094.02-.6189.0299-.9283.0499v-11.6787c.1697.0299.3494.0599.529.0599.1398,0,.2695-.02.3993-.0399h0ZM503.2182,513.7675v-.0399c-.02-.3793-.2595-.7287-.6688-.9583h0l-39.5778-22.8483v-9.1932l47.7029,27.5397v12.1478c-2.5054.2396-5.0009.6788-7.4564,1.3276v-7.9754h0ZM487.1775,522.5315c-.4392.1897-1.0681.1697-1.4474-.0499h0l-20.3229-11.7386h-.0299c-.02-.01-.0399-.02-.0599-.0299-.02,0-.0399-.01-.0699-.02h-.1996c-.02,0-.0499.01-.0699.02-.02,0-.0399.02-.0599.02h-.0299l-.1497.0898-.0399.0399c-.0299.02-.0499.0399-.0799.0699-.02.02-.0399.0499-.0499.0799-.02.0299-.0299.0599-.0399.0898s-.02.0599-.02.0898v.0898c0,.0299,0,.0699.02.0998,0,.02,0,.0399.01.0599l.1497.3893h0l5.9791,15.2222-27.5297-3.6533h-.1597c-.02,0-.0499.01-.0699.02-.02,0-.0399.02-.0599.02h-.0299l-.2196.1298-.02.02c-.0299.02-.0499.0399-.0799.0699-.02.02-.0499.0499-.0599.0699l-.02.02c-.01.02-.01.0399-.02.0599-.01.0299-.0299.0599-.0299.0998v.1797c0,.0299.02.0599.0299.0998,0,.02,0,.0399.02.0599l.02.02c.0399.0599.0898.1198.1697.1597h0l20.3229,11.7286h0c.1298.0799.1697.1497.1697.1597h0c0,.01-.0299.0499-.0898.0998l-14.9627,8.6342c-.4292.1797-1.0681.1597-1.4374-.0499h0l-48.761-28.1486h0c-.1397-.0799-.1697-.1497-.1797-.1597h0s.0299-.0499.0898-.0998l13.0861-7.5562c.4891-.2795,1.2477-.3793,1.9265-.2695h.01l31.5225,3.8031h.0599c.0799,0,.1497-.0299.2196-.0599h.0299l.1497-.0898.0399-.0399c.0299-.02.0499-.0399.0699-.0699.02-.02.0399-.0499.0599-.0799s.0299-.0499.0399-.0799.02-.0599.02-.0898v-.0898c0-.0299,0-.0699-.01-.0998v-.0499l-6.588-18.1968v-.01s0-.02-.01-.0299v-.02c-.1497-.2995.2096-.549.3693-.6488h0l13.0362-7.5562c.4392-.1897,1.088-.1597,1.4673.0599h0l48.781,28.1686h0c.1397.0799.1697.1497.1697.1597,0,0-.02.0499-.0898.0998l-14.9627,8.6342.02.0499v-.0004ZM501.9306,515.1649v6.9373c-3.3938.9882-6.6878,2.3457-9.7322,4.1125l-4.3121,2.4855v-5.4301l14.0444-8.1052h0ZM471.9354,527.5923s0-.0599-.02-.0898v-.02h0v-.01l-5.999-15.2821,19.3247,11.1596h0c.3593.2096.8185.3094,1.2677.3094.1298,0,.2595-.02.3793-.0399v5.6497l-14.9427,8.6342v-10.2413s-.01-.0399-.01-.0699h0ZM464.1596,543.054h0v13.7449h-.0499v-20.5126c-.02-.3793-.2595-.7287-.6688-.9583h0l-18.4962-10.6805,26.0125,3.4537v10.381l-6.1488,3.5535h-.02c-.3893.2595-.6089.6189-.6089.9982h0l-.02.02h0ZM462.822,537.7138v18.8755c-4.6315-.6588-9.3829-.7486-14.0444-.2296v-10.5408l14.0444-8.1052h0ZM438.4465,510.8927v-14.224l5.3902,14.8728-5.3902-.6488ZM445.1443,488.1043v-5.2205l14.4736-8.3547v13.4455l-5.8393-3.3738h-.02c-.6488-.3793-1.637-.4292-2.3657-.1098l-.02.02h-.0299l-6.1987,3.5934h0ZM460.2567,472.1235h0l-14.0743-8.1252,14.7331-8.5045v17.5979c-.02-.3793-.2595-.7287-.6588-.9583v-.01h0ZM460.9155,473.1117v.02h0v-.02ZM461.9137,478.4919v-23.008l14.0743,8.1252h0c.3593.1996.8085.2995,1.2677.2995.1397,0,.2695-.02.3993-.0399v6.5181l-.9782-.0399h0c-.4891,0-.9483.1198-1.3076.3294-.02,0-.0399,0-.0499.02l-13.1959,7.6161-.02.02s-.02,0-.0299.01c-.0599.0499-.1098.0998-.1597.1497h0v-.0002ZM478.6631,470.4366v-6.9074l14.4736-8.3547v15.8411l-14.4736-.5789h0ZM495.682,458.9376l-.02.02s-.02,0-.0299.01c-.3194.2396-.4891.539-.4991.8784v11.2495l-.6788-.0299v-17.3284c-.02-.3893-.2495-.7287-.6588-.9682h0l-44.399-25.6332v-3.6234l47.8926,27.6495v6.8675l-1.5971.9183-.01-.01h.0001ZM496.1212,461.1136l18.646,10.7604-18.646-.7486v-10.0217.01h0ZM498.2773,457.4403v-5.9092c.1697.0299.3394.0499.5191.0499s.3494-.0299.5191-.0499v5.3203l-1.0381.5989v-.01h-.0001ZM500.3036,456.2724v-5.1107l16.3202-9.4228v10.1215l-3.0744-1.7768h0c-.6488-.3693-1.617-.4093-2.3357-.0998,0,0-.02.01-.02.02,0,0-.02,0-.0299.01l-10.8502,6.2586h-.01ZM517.3924,439.2835h-.02l-.01-.01-15.5316-8.9636v-3.6234l2.5853,1.4873c4.2223,2.4356,9.9918,4.1524,16.6795,4.1524s14.773-1.8267,22.9581-6.548c5.5898-3.2341,9.2132-6.558,10.8402-9.9319v10.0017c-2.9746.9982-5.8393,2.2559-8.5145,3.7931-7.3067,4.2123-11.3293,9.6224-11.3293,15.2122h0v17.6578l-17.0589-9.852v-12.3674c0-.3893-.2096-.7486-.5989-.9982v-.01h0ZM569.3475,423.1729c-4.5916.2196-9.1333.9982-13.4455,2.3457v-13.7848h0c0-4.2123-3.2041-8.2849-9.2531-11.7785l-25.0842-14.4836v-3.6234l47.7928,27.5896v13.7449l-.01-.01h0ZM500.1938,424.75h0v4.5916l-2.1361-1.2377v-32.7402l29.7457,17.1687c1.0281.5889,1.5871,1.1878,1.5871,1.6869s-.6488.9782-1.0281,1.1978c-1.647.9582-3.8629.8185-5.9192-.3693l-2.1661-1.2477s-.02,0-.0299-.01c-.01,0-.02-.01-.0299-.02-.8285-.3394-1.9265-.3294-2.745.02,0,0-.02.01-.0299.02h-.0299l-16.2903,9.4028-.02.01h-.02c-.5789.3993-.8984.9183-.8984,1.4773h0l.01.0499h0ZM442.4692,482.9637h0c.3593.1996.8085.2995,1.2677.2995.1397,0,.2695-.02.3993-.0399v5.4501l-5.8793,3.4038h0c-.569.3294-.8784.8185-.8984,1.3176v17.3483l-10.7005-1.2876v-23.9563h0c0-5.1905-4.0526-10.381-11.4092-14.6333l-4.402-2.5354c-.7187-.4192-1.8067-.4192-2.5354,0l-2.765,1.5971v-2.2758s-.01-.0399-.01-.0699c-.02-.3494-.2096-.6887-.549-.9483-.0699-.0499-.1397-.0898-.2096-.1397h0c-2.4455-1.4074-6.2087-2.5254-10.7703-2.9945v-8.5244l48.4516,27.9789.01.0099h.0002ZM404.2789,467.3722h0c.0399.02.0799.0499.1098.0699.0998.0799.1697.1597.1597.2196,0,.0799-.1298.2196-.3793.3294,0,0-.01.01-.02.01h-.0299l-13.2957,7.676c-.6289.3294-1.5172.4592-2.3557.3394h-.02c-3.2341-.2995-6.4582.4991-9.842,2.4555-2.745,1.5871-4.1923,3.5735-4.1923,5.7495,0,2.4356,1.8666,4.8511,5.2604,6.8076.5989.3494,1.2078.6488,1.8167.9283.0299.02.0599.0299.0998.0399.0998.0499.2096.0898.3094.1397.0299.02.0699.0399.1098.0499,2.9746,1.2876,5.9292,1.8267,8.6742,1.8267.3294,0,.6388-.02.9583-.0299.0299,0,.0699.02.0998.02.0499,0,.0998-.01.1397-.0299.6688-.0399,1.3276-.1098,1.9664-.1996.02,0,.0399.01.0599.01.0799,0,.1597-.02.2196-.0599,2.5653-.4192,4.8312-1.2477,6.578-2.2559,2.5354-1.4673,3.853-2.7849,4.5018-3.8929.0599-.0599.0998-.1298.1198-.2096.0299-.0499.0499-.0998.0699-.1497.0499-.0599.0898-.1397.0998-.2196.5191-1.2577.1697-2.1561-.0499-2.5354l-.02-.02c-.01-.02-.02-.0299-.0399-.0499l-.0499-.0499c-.02-.01-.0299-.0299-.0499-.0399l-.02-.02-.1597-.0898h-.0299c-.02,0-.0399-.02-.0599-.0299-.02,0-.0399-.01-.0699-.02h-.1897c-.02,0-.0499.01-.0699.02-.02,0-.0399.01-.0599.02h-.0299l-10.9001,6.2985c-.539.1897-1.2577.1697-1.7468-.0599l-9.5326-5.5c-.1198-.0898-.1897-.1797-.1996-.2595,0-.0699.0499-.1397.0998-.1897l26.4717-15.2821c.4093-.2396,1.1279-.2396,1.5372,0l4.402,2.5354c7.0372,4.0626,10.9101,8.9537,10.9101,13.7649s-3.9428,9.7422-11.3992,14.0444c-14.773,8.5244-36.0742,8.6143-50.6476.1897-6.9473-4.0127-10.7703-9.0335-10.7703-14.1542s3.9428-10.381,11.0997-14.5135c7.4764-4.3121,15.3021-6.2686,22.2095-6.7177.0399.01.0799.02.1198.02.0699,0,.1397-.01.1996-.0399,2.4156-.1397,4.7114-.0998,6.8375.0898.0599.0299.1298.0399.1996.0399.0299,0,.0599-.01.0898-.02,4.5317.4292,8.2749,1.5172,10.6805,2.9147l.02.0299-.0002-.0003ZM403.8896,469.3186v1.5871l-12.3075,7.107v-1.5871l12.3075-7.107ZM390.5839,476.8549v1.7268l-1.667.9583v-2.4855c.0599,0,.1198.01.1797.01.5191,0,1.0181-.0799,1.4773-.2196l.01.01h0ZM387.9187,477.0046v3.1143l-6.1288,3.5435-.0399.0399c-.01.01-.0299.02-.0499.0299l-.0599.0599h0c-.2396.2396-.3693.529-.3793.8285v6.1088c-.3494-.1797-.7087-.3593-1.0581-.559-3.0644-1.7668-4.7613-3.8829-4.7613-5.9392,0-1.7967,1.2777-3.4936,3.6933-4.8811,3.0444-1.7568,5.9192-2.5154,8.794-2.3457h-.01v.0002ZM382.6683,491.3884v-5.1805l8.5943,4.9609v1.8466c-2.6951.0699-5.6297-.3893-8.5943-1.627h0ZM392.2608,492.9655v-1.4074c.2196.0399.4392.0699.6688.0699.1697,0,.3394-.02.4991-.0399v1.2677c-.3793.0499-.7686.0898-1.1679.1198v-.01h0ZM394.4268,492.686v-1.4474l9.9518-5.7495v1.5871c-.5989,1.0082-1.8766,2.216-4.1524,3.5335-1.5572.8984-3.5535,1.647-5.7994,2.0662v.01h0ZM397.6909,517.9299l48.4316,27.959h0c.3593.2096.8185.3094,1.2777.3094.1198,0,.2495-.02.3693-.0299v10.3112c-3.284.4192-6.5081,1.1279-9.6125,2.1461v-7.4165c0-.3993-.2096-.7886-.5789-1.078-.01,0-.02,0-.0299-.02,0,0-.01-.02-.02-.02l-13.7249-7.9255h-.0299s-.02-.01-.0299-.02c-.8285-.3494-1.9365-.3494-2.765,0,0,0-.02.01-.0299.02h-.0299l-19.2748,11.1297-3.9628-2.2858v-33.0796h.01-.0002ZM480.0705,563.4169h0c3.0145,1.7169,5.5099,3.6933,7.4065,5.8793,0,0,.01,0,.02.01.0299.0299.0699.0599.1098.0799.02.01.0299.02.0499.0299.0599.0299.1298.0399.1897.0399h.0299l8.5344-.4691c.6289-.01,1.0181.2396,1.0281.3294h0l1.9065,11.5289c-.02.0798-.2895.2895-.8085.3294h0l-8.1252.4492s-.0399.01-.0699.02c-.0299,0-.0599,0-.0898.02h-.02c-.0299.01-.0499.0299-.0699.0499s-.0499.0299-.0699.0499c0,0,0,.01-.01.02-.02.02-.0399.0499-.0499.0798,0,0-.01.01-.01.02s-.02.02-.0299.0399c-1.657,3.7731-5.0907,7.2068-9.9219,9.9518h0c-12.5072,7.2168-33.7983,9.5326-50.3182,0-7.0871-4.0925-10.8302-8.9736-10.8302-14.1342s3.843-10.3112,10.8302-14.3438c12.5072-7.2168,33.7983-9.5326,50.3182,0v.0201-.0003ZM542.3768,535.7074c-.0599-3.9927-2.8248-7.8856-7.8058-10.6805h0c-.7386-.4292-1.5073-.8285-2.2858-1.1978v-8.0653c1.108,2.1461,3.1243,4.0825,5.9791,5.7295,3.4836,2.0163,7.5063,3.0145,11.9582,3.0145,5.7295,0,12.1778-1.657,19.1351-4.9709h0l12.7667-6.049h0c2.3257-1.108,3.6433-1.3775,4.412-.9383h0c.4192.2396.4192.5091.4192.5989,0,.3094-.2595,1.4673-3.6134,3.4038-3.4737,2.0063-6.4882,2.8947-8.9636,2.6352h0c-1.5472-.2495-3.2041.02-4.3321.6987h-.01l-13.5952,7.8756h-.02c-.7386.4891-1.1379,1.1279-1.1579,1.8167v10.95l-12.8465-1.8965v-2.8348s-.01-.0699-.02-.1098l-.02.0199h.0001ZM545.7606,555.1519l19.0053-10.97v10.6206l-5.8493-1.5871h0c-.6788-.1797-1.4673-.0998-2.0063.2196l-11.1397,6.4283v-4.7114h-.01ZM595.8192,525.0868c-14.0543,8.1052-30.1749,10.5807-38.34,5.8693l-.4791-.2795h0c-.4791-.3094-.7486-.6788-.7586-1.0381,0-.3593.2495-.7187.7087-1.0181l13.5752-7.8656h0c.9283-.569,2.3857-.7886,3.7132-.569h.0299c.3094.0299.6289.0499.9582.0499,2.4855,0,5.3702-.9483,8.6143-2.8149,2.735-1.5771,4.1125-3.0145,4.1125-4.2722,0-.6089-.3294-1.1279-.9183-1.4673h0c-1.118-.6388-2.6152-.3893-5.3403.9083h0l-12.7667,6.049h0c-8.4047,4.0027-20.4726,7.5862-30.1649,1.9864-4.2323-2.4455-6.4782-5.5199-6.4782-8.8838h0v-.02c0-4.8412,4.5417-10.1215,12.7867-14.8828,9.4727-5.47,22.6187-9.5326,32.0615-7.3466.0798.0599.1797.0998.2895.0998.02,0,.0499-.01.0699-.01h.0399c.0798.0599.1797.0998.2795.0998.02,0,.0399,0,.0599-.01,1.3875.3793,2.6951.8984,3.8829,1.5871h0c.4991.2695.7886.6189.7985.9583.01.3094-.2096.6289-.6089.8884l-14.6832,8.4745h-.0299c-.5989.3993-1.5472.5889-2.4755.4991h-.0299c-2.3857-.1298-4.6615.4292-6.7876,1.657-2.4755,1.4274-3.7232,2.7849-3.7232,4.0426,0,.6488.3394,1.1978.9483,1.5472.3494.1996.7786.3094,1.2677.3094.8884,0,1.9964-.3194,3.3239-.9682h0l12.4473-5.9491c7.097-3.3938,13.5552-5.0907,19.3247-5.1306h.02c.7886,0,1.5572.02,2.3158.0799h.02c3.7132.2895,7.117,1.3176,10.2014,3.0944,3.9428,2.2758,6.029,5.1606,6.029,8.3448,0,4.9609-5.0707,10.6206-14.2839,15.9409l-.01.0399v-.0003ZM583.5516,492.2268v-.0399c-.0299-.6987-.4891-1.3376-1.3076-1.7768h0c-1.118-.6488-2.4455-1.1679-3.9328-1.5771v-9.2232l12.7268,7.3466v9.7023c-2.3857.0499-4.8711.3593-7.4664.9583v-5.3802l-.02-.01h0ZM581.715,494.4128v3.6633c-3.1742.8684-6.4882,2.1261-9.9618,3.7731l-3.7432,1.7967v-1.3276l13.705-7.9155v.01ZM567.0118,502.8275v1.2976l-1.8067.8584v-1.8466c.6388,0,1.2577-.1198,1.8067-.3194v.01h0ZM564.2069,503.107v2.3557l-4.9011,2.3457h0c-2.3058,1.118-3.284.9183-3.6633.6987-.2994-.1697-.4492-.4093-.4492-.6887,0-.3993.3194-1.4973,3.2241-3.1842,1.8466-1.0681,3.7532-1.5671,5.7894-1.5372v.01h.0001ZM592.0162,496.6288v-9.313c.2296.0399.4592.0599.6887.0599s.4492-.02.6588-.0599v9.3629c-.4492-.0299-.8984-.0499-1.3575-.0499h.01,0ZM631.3144,450.3732v-10.7404c.1697.0299.3394.0499.519.0499s.3494-.0299.529-.0599v11.3393l-1.0381-.5989-.01.01h.0001ZM633.3507,444.7335v-5.48l16.3302-9.3929v5.4401c-.0599.02-.1298.0299-.1797.0599,0,0-.01,0-.02.01h-.02l-15.891,9.1733s-.01.01-.02.02h-.02c-.0699.0499-.1198.0998-.1797.1597v.01h.0002ZM641.8652,459.5365v15.2921l-12.9763-7.4963h0c-.1298-.0699-.1597-.1397-.1697-.1497,0-.01.0399-.0799.1697-.1597h0l12.9763-7.4963v.01h0ZM650.4595,427.4051h-.01l-.01-.01-9.2431-5.3403,4.1924-2.4156c4.8911-2.8248,8.235-6.049,9.7821-9.3729v27.0307l-3.264-1.8866h0c-.2396-.1298-.529-.1996-.8185-.2396v-6.7577c0-.3893-.2096-.7486-.5989-.9982l-.0299-.01v.0002ZM647.2753,395.7529c5.1606,2.9746,7.8856,6.5381,7.8856,10.2912,0,4.372-3.6533,8.8938-10.2812,12.7168l-4.941,2.8548-.02.02c-.0299.02-.0499.0399-.0699.0599-.0299.0299-.0499.0499-.0699.0799,0,0-.01.01-.02.02-.01.02-.01.0399-.02.0599-.01.0299-.0299.0699-.0299.0998v.1797c0,.0399.02.0699.0299.0998,0,.02,0,.0399.02.0599,0,0,.01,0,.02.02.0399.0699.0898.1298.1697.1697h0l9.9718,5.7595c.1098.0799.1497.1497.1497.1697s-.0399.0898-.1497.1697l-17.2884,9.9518c-.4392.2196-1.1479.2196-1.5771,0l-48.7111-28.1287c-.1198-.0799-.1497-.1497-.1497-.1697s.0399-.0898.1597-.1697l23.2376-13.4155c12.7368-7.3566,29.8855-7.7259,41.7139-.8984h-.0301ZM588.4127,399.5161v-.02c-.02-.3893-.2495-.7287-.6488-.9782h0l-6.5081-3.7631-1.3575-5.0907,19.3447,2.8149v6.6778l-10.8302,6.2486v-5.8892h-.0001ZM600.2412,398.5778v-5.9991c.0699,0,.1398.02.1996.02.4991,0,.9882-.0898,1.4274-.2296v5.2704l-1.637.9483.01-.01h0ZM602.8664,397.0605v-5.1706l17.6678-10.2014v8.764c-5.4301.8385-10.7404,2.6052-15.4618,5.3303l-2.206,1.2677v.01h0ZM568.9782,352.7414s.02-.02.0399-.0299c.02-.01.0499-.01.0699-.0299.4093-.1996,1.0481-.1797,1.3875.0499h.01l.02.01c.1098.0599.2296.1298.4292.7985h0l5.5898,20.1233h0c.0299.0898.0898.1697.1597.2396.01.01.02.02.0299.0299.0599.0399.1298.0799.2096.0898l42.712,6.1488h0c.7087.0998.9483.1597,1.088.2296l-18.616,10.7504h-.02c-.559.3593-1.4474.5091-2.2858.3693h0l-20.5225-2.9845h-.0399c-.1198,0-.2396.02-.3294.0998-.02.02-.0399.0399-.0599.0699s-.0499.0499-.0699.0799c-.02.0399-.0399.0898-.0499.1397,0,.02-.01.0299-.02.0499h0v.1897h0l1.5971,6.019h0c.0299.0898.0898.1697.1597.2396.01.01.02.02.0399.0399.01,0,.02.02.0299.0299l6.6778,3.863c.1298.0799.1697.1497.1697.1597,0,0-.02.0599-.1098.1198l-15.7313,9.0834c-.4392.1996-1.088.1797-1.4873-.0399l-48.771-28.1586c-.1298-.0799-.1597-.1497-.1597-.1597,0,0,.0299-.0599.1098-.1198l15.7313-9.0834c.4392-.1996,1.088-.1797,1.4873.0399h0l16.42,9.4827h0c.0798.0399.1597.0699.2495.0699s.1697-.02.2495-.0699h0l.2296-.1298s.02-.02.0299-.0299c.0299-.02.0499-.0399.0798-.0699.02-.02.0399-.0399.0599-.0699s.0299-.0599.0399-.0898.02-.0599.0299-.0898v-.2296l-4.8412-15.9509s0-.01-.01-.02v-.02c-.2695-.6688.519-1.1779.7586-1.3176h0l17.1986-9.9319.0299.01h.0005ZM551.041,377.3066v-9.7622l3.5934,11.8384-3.5934-2.0762ZM469.2503,344.5863l43.7402-25.2539c.5789-.2396,1.3775-.2396,1.9465,0l11.9182,6.8774c.1198.0898.1897.1996.1897.2795s-.0699.1797-.1897.2795l-25.4036,14.6632-.02.02c-.0299.02-.0499.0399-.0799.0699-.02.02-.0499.0499-.0599.0699l-.02.02c-.01.02-.01.0399-.02.0599-.01.0299-.0299.0599-.0299.0998v.1797c0,.0299.02.0699.0299.0998,0,.02,0,.0399.02.0599l.02.02c.0399.0699.0898.1198.1697.1697h0l3.8031,2.196h0c.0599.0399.1298.0499.1996.0499.02,0,.0299.01.0399.01h0c.02,0,.0299-.01.0399-.01.0699,0,.1397-.02.1996-.0499h0l22.8783-13.2059c.5789-.2396,1.3675-.2396,1.9465,0l11.9182,6.8774c.1198.0898.1897.1996.1897.2795s-.0699.1797-.1897.2795l-22.8183,13.2358s-.01.01-.02.02c-.0299.02-.0499.0399-.0699.0699-.02.02-.0499.0499-.0699.0799,0,0-.01.01-.02.02-.01.02-.01.0399-.02.0599-.01.0299-.0299.0599-.0299.0998v.1797c0,.0299.02.0599.0299.0998,0,.02,0,.0399.02.0599,0,0,.01,0,.02.02.0399.0699.0898.1198.1697.1697l3.813,2.196h0c.0798.0399.1597.0699.2495.0699s.1697-.02.2495-.0699h0l25.4236-14.6832c.5789-.2396,1.3675-.2396,1.9465,0l11.9182,6.8774c.1198.0898.1897.1996.1897.2795s-.0699.1797-.1897.2795l-43.7501,25.2639c-.4392.2196-1.1379.2296-1.5771,0l-48.7111-28.1287c-.1098-.0799-.1497-.1497-.1497-.1697s.0399-.0898.1597-.1697h0l.0003-.0002ZM526.6555,328.0365v3.2441l-21.1314,12.1977-2.8149-1.627,23.9463-13.8248v.01ZM542.3069,339.9947v3.314l-18.5461,10.7105-2.8149-1.627,21.361-12.3974h0ZM410.5574,378.4745l21.7503-12.5571c16.6396-9.6025,37.9308-10.2213,52.9733-1.5372,7.2268,4.1724,11.0498,8.9636,11.0498,13.8347,0,5.4001-4.6815,10.96-13.5453,16.0707l-21.92,12.6569c-.4392.2096-1.108.1996-1.5372-.02l-48.761-28.1486c-.1298-.0799-.1597-.1497-.1597-.1597h0c0-.01.0299-.0699.1298-.1397h.02ZM377.7173,397.4398c9.5925-5.5399,21.6904-7.7658,32.1513-6.4981.02,0,.0299.01.0499.01h.02c.0699,0,.1397.01.2196.02.0499.02.0998.0299.1597.0299h.0299c4.7314.6288,9.1233,1.9764,12.7667,4.0825.4392.2495.5989.4891.5989.5889,0,.0499-.0799.1497-.2595.2595l-14.8629,8.5744c-.539.3094-1.3276.3194-2.3258.01h0c-4.951-1.5871-9.4827-1.2278-13.4455,1.0581-2.166,1.2577-3.3639,2.9945-3.3639,4.911,0,1.6171.8584,4.0326,4.951,6.3983,3.3838,1.9564,7.0771,2.7749,10.431,2.7749.4292,0,.8485-.02,1.2677-.0399h.02c.02,0,.0299,0,.0499-.01,2.6252-.1697,4.9809-.8484,6.7377-1.8566.7686-.4492,1.4174-.9083,1.9464-1.3975,0,0,.01,0,.02-.01.1298-.1198.2396-.2296.3494-.3494.02-.02.0399-.0399.0499-.0599.6788-.7386,1.108-1.5172,1.2577-2.3357.2296-1.2677-.1897-2.5653-1.2477-3.853,0,0-.01,0-.02-.02,0-.01-.02-.02-.0299-.0299v-.01c-.0998-.0898-.2296-.2296-.2096-.3893.02-.1597.1797-.3494.4392-.4991h0l14.4836-8.3647c.6987-.3593,1.7768-.3593,2.4655,0,4.9809,2.8747,7.6061,6.5181,7.6061,10.5408,0,5.1107-4.3521,10.5507-11.9482,14.9427-14.8229,8.5544-36.164,8.6642-50.7474.2396-6.8375-3.9528-10.6106-8.9537-10.6106-14.1043s3.9228-10.5108,11.0299-14.6233l-.03.01v.0002ZM414.0011,409.2682v6.4882c-.4492.3893-.9782.7586-1.6071,1.1279-1.5272.8784-3.5335,1.4873-5.7894,1.6969v-12.9564c.3394.0699.6688.1098.9682.1098.5789,0,1.078-.1198,1.5072-.3693l14.6333-8.4346v5.9491l-8.764,5.0608h0c-.549.3194-.8884.7586-.9383,1.2577v.0898l-.01-.02h0ZM405.5965,405.3654v13.2758c-3.3938.1397-7.2168-.6089-10.7204-2.6352-2.8648-1.657-4.4519-3.6234-4.4519-5.5299,0-1.5372,1.0181-2.9746,2.8648-4.0426,3.6134-2.0862,7.7558-2.4356,12.2976-1.0681h.01-.0001ZM415.3686,413.9297v-2.0562c.1897.529.2396,1.0381.1497,1.5372-.0299.1797-.0898.3494-.1497.519ZM366.6875,416.8045c1.5871,3.7631,5.0308,7.2867,10.1115,10.2213,7.3566,4.2522,16.41,6.3684,25.5034,6.3684s18.606-2.206,26.2421-6.6179c5.8194-3.3639,9.7322-7.2368,11.4491-11.2295v10.4709l-12.8865,7.4464-.02.02s-.02,0-.0299.01c-.3194.2396-.4891.539-.4991.8784v18.2766l-15.0725-8.7041h0c-.6588-.3693-1.657-.3993-2.3757-.0799,0,0-.01.01-.02.01h-.02l-15.4718,8.9337-.02.02s-.02,0-.0299.01c-.3194.2396-.4891.549-.4991.8784v9.6923c-1.9564-.1597-4.0526-.1897-6.2386-.0799v-18.8556c0-3.274-2.3258-6.3384-6.7177-8.8838h0c-3.5535-2.1261-8.3548-3.3539-13.3656-3.5236v-15.2821l-.0399.02h.0002ZM295.2878,445.023l30.0252-17.3384c8.8638-5.1207,22.1895-7.7558,31.9617-2.1161h0c3.3239,1.8466,5.1207,4.402,4.921,6.9972v.0699c0,.0399,0,.0799.01.1098,0,.0299.0299.0599.0399.0799.02.0299.0299.0599.0499.0898.01.02.0299.0299.0399.0399s.0299.02.0399.0299c.02.01.0299.0299.0499.0499l.0799.0499s.0299,0,.0499.01c.0499.02.0998.0299.1497.0399h.0998c6.1588-.4991,12.4074.7386,16.7095,3.314h0c4.0726,2.3457,6.2186,5.1207,6.2186,8.0154,0,3.8031-3.5635,7.8656-10.3112,11.7685l-29.8655,17.2385c-.4392.2196-1.1279.2196-1.5671,0l-48.751-28.1486c-.1298-.0799-.1497-.1497-.1597-.1697h0c0-.01.0299-.0799.1497-.1597l.0599.0299h.0002ZM345.3365,474.609v19.3247l-1.0281-.5889v-18.7358c.1697.0299.3394.0499.519.0499s.3394-.0299.5091-.0499ZM338.1596,478.452c0-.2895-.1697-.549-.539-.7686h-.01c-.4192-.1897-.8784-.3394-1.3775-.4492h0l-40.7057-10.97v-19.6142l47.7928,27.5896v18.5362l-5.1506-2.9746v-11.3393l-.01-.01h0ZM283.3097,565.1637l-30.3147-37.5016v-57.0958l30.3147,37.5016v57.0958ZM284.218,507.6087l-.01-.01v-.02l-30.9535-38.2801,15.8211-9.1333,66.8979,18.0271h.02c.3494.0699.6588.1797.9582.2995l-15.2122,8.784s-.0299.0299-.0499.0399h-.01c-.4592.3494-1.4274.4093-2.0562.1397h-.0299s-.01,0-.02-.01l-5.7994-1.7368h-.0799c-.02,0-.0399-.01-.0499-.01h-.0499c-.0299,0-.0499.02-.0799.02s-.0599.01-.0799.0299c0,0-.02,0-.0299.01h0l-15.1024,8.7241s-.02.02-.0399.0299c-.01.01-.0299.01-.0399.0299-.01.01-.02.0299-.0299.0399-.02.0299-.0399.0499-.0599.0799s-.0299.0499-.0399.0799c-.01.0299-.02.0599-.02.0898v.0898c0,.0299,0,.0599.01.0898,0,.0299.02.0599.0299.0898,0,.02,0,.0299.02.0499,0,.01.02.02.0299.0299.01.02.02.0399.0299.0499l2.9945,3.3539s.0299.02.0399.0299c.01.01.02.0299.0299.0399.1098.0898.1797.1797.1697.2495-.01.0998-.1497.2495-.4392.3693,0,0-.02.01-.02.02h-.0299l-15.4318,8.9137h-.02c-.1797.0898-.4691.0699-.5889-.01-.2495-.1996-.4592-.4093-.6089-.6289l-.0699.0399v.0004ZM337.1614,479.53v9.6923l-1.8766-1.088s-.02,0-.0299-.01c0,0-.02-.01-.02-.02-.8285-.3494-1.9464-.3494-2.7749,0l-.02.02s-.02,0-.0299.01l-9.9219,5.7295v-5.8593l14.6832-8.4745h-.01ZM321.48,488.5036v5.9392l-1.5671.9083v-6.7676c.1996.0299.3993.0599.5989.0599.3394,0,.6688-.0499.9682-.1397h0ZM318.9147,488.294v7.6261l-4.8012,2.7749v-11.8384l4.8012,1.4374ZM302.3549,498.8447c-.02-.3194-.1797-.6289-.4791-.8984v-.01l-2.5853-2.9047,13.8248-7.9854v12.2177l-10.7404,6.1987v-6.578s0-.0399-.01-.0599l-.01.0199h0ZM291.9938,511.4717h-.02c-.3893.2595-.5989.6189-.5989.9982v51.0069l-5.9292,3.4237h-.02c-.1098.0499-.2495.0599-.3793.0499v-57.6847h.0599c.2795,0,.559-.0599.8285-.1897h0l14.6832-8.4745v5.8693l-8.6342,4.9809h-.01l.02.02h0ZM340.5452,599.0518l-47.7928-27.5896v-57.525l47.7928,27.5896v57.525h0ZM342.5715,599.5609c-.3294.0898-.7087.0898-1.0381,0v-57.6647c.1697.0299.3394.0499.519.0499s.3494-.0299.519-.0499v57.6647h0ZM342.851,540.7882c-.4492.2196-1.1379.2196-1.5771,0l-48.741-28.1386c-.1198-.0799-.1597-.1497-.1597-.1697s.0399-.0898.1597-.1697l40.3364-23.2875c.5789-.2396,1.3775-.2495,1.9564,0l13.6351,7.8756c.1198.0998.1897.1996.1797.2795,0,.0799-.0699.1897-.1897.2795l-22.0098,12.7068-.02.02c-.0299.02-.0499.0399-.0799.0699-.02.02-.0499.0499-.0599.0699l-.02.02c-.01.02-.01.0399-.02.0599-.01.0299-.0299.0599-.0299.0998v.1797c0,.0299.02.0599.0299.0998,0,.02,0,.0399.02.0599l.02.02c.0399.0699.0898.1198.1697.1697h0l5.0807,2.9346h0c.0599.0399.1397.0499.2096.0599.01,0,.02.01.0399.01h0c.01,0,.02,0,.0399-.01.0699,0,.1497-.02.2096-.0599h0l20.3329-11.7386c.5789-.2396,1.3675-.2396,1.9464,0l12.7867,7.3865c.1198.0998.1897.1996.1897.2795s-.0699.1797-.1897.2795l-20.3229,11.7386s-.01.01-.02.02c-.0299.02-.0499.0399-.0799.0699-.02.02-.0499.0499-.0599.0699,0,0-.01.01-.02.02-.01.02-.01.0399-.02.0599-.01.0299-.0299.0599-.0299.0998v.1797c0,.0299.02.0599.0299.0998,0,.02,0,.0399.02.0599,0,0,.01.01.02.02.0399.0699.0898.1198.1697.1697h0l13.3856,7.7259c.1198.0799.1597.1497.1597.1697h0s-.0399.0898-.1597.1697l-17.3184,9.9618v-.02l.0002-.0002ZM348.2511,498.725v4.7114l-16.4699,9.5126-4.0826-2.3557,20.5525-11.8683h0ZM361.3173,530.6467c0-.3893-.2196-.7387-.5989-.9982h-.0299l-12.6669-7.3067,18.8755-10.9001v22.2594c-.4492,0-.8984.0998-1.2677.2995h0l-4.3021,2.4855v-5.8294h0l-.01-.01h0ZM348.331,543.9824l-.01.01h-.02c-.3793.2495-.5889.5989-.5989.9782v51.6956l-4.1325,2.3757v-57.525l16.3601-9.4128v5.1706l-11.5988,6.6978v.01h0ZM396.8624,631.5725l-47.7628-27.5697v-57.525l47.7628,27.5697v57.525ZM398.8987,632.0815c-.3294.0898-.7087.0898-1.0381,0v-57.6647c.1697.0299.3394.0499.5191.0499s.3494-.0299.5191-.0499v57.6647h-.0001ZM399.1682,573.3088c-.4392.2196-1.1379.2196-1.5871,0l-48.7211-28.1286h0c-.1298-.0799-.1697-.1597-.1697-.1797,0-.02.0399-.0898.1497-.1697l17.2585-9.9618h0c.4392-.2396,1.1878-.2396,1.637,0h0l33.6685,19.4345h0c.0599.0399.1397.0499.2096.0599.01,0,.02.01.0399.01h0c.01,0,.02,0,.0399-.01.0699,0,.1497-.02.2096-.0599h0l19.4844-11.2495c.5789-.2396,1.3775-.2396,1.9564,0l13.6351,7.8756c.1198.0998.1897.1996.1897.2795s-.0699.1797-.1897.2795l-37.801,21.8301-.01-.01h.0004ZM417.9239,621.1615l-18.0271,10.411v-57.525l36.8727-21.2911v6.3684c-2.6152.9383-5.1506,2.0662-7.5263,3.4337-7.3067,4.2123-11.3293,9.6224-11.3293,15.2122v43.4008l.01-.01h0ZM460.3465,609.1534h-.01c-.3094.1697-.4991.4292-.5091.7287v46.7646c-10.8801.9882-21.5507-1.1679-30.0751-6.0889-7.0871-4.0925-10.8302-8.9736-10.8302-14.1342v-53.9515c1.5971,3.7432,5.0807,7.2268,10.3311,10.2613,7.8457,4.5317,16.7494,6.4383,25.3238,6.4383,9.8121,0,19.185-2.5054,25.9925-6.4383h0c4.2423-2.4056,7.4364-5.3602,9.3829-8.6043v18.087l-9.9618-2.7849c-1.647-.4592-2.3258-.2994-3.3239.2795l-16.3302,9.4228.01.02h0ZM461.2449,668.6947c-.0599-.02-.1098-.0399-.1597-.0699v-57.6148c.0499.02.1098.0299.1597.0499v57.6348h0ZM542.4467,679.0857s-.0399.0798-.1697.1597h0l-13.0562,7.5362h0c-.3194.1797-.8285.2296-1.2477.1198h0l-65.72-17.9073v-57.6448l65.4605,17.8374h0c.0299,0,.0699,0,.0998.01h.0299c.1996.0399.3993.0798.6089.0798.4592,0,.9183-.1098,1.2777-.3094h0l12.7268-7.3466v57.4751l-.01-.01h0ZM570.4655,662.9552l-12.8066,7.3965h0c-.3194.1897-.8584.2296-1.2777.0998h0l-12.9264-3.7931v-46.2656c0-.0699-.01-.1298-.0399-.1897-.0299-.1497-.0898-.2795-.1897-.4192-.02-.0399-.0299-.0699-.0599-.1098h0l-12.7467-14.4836,25.6831,7.5263h0c.2595.0798.529.1098.7985.1098.4592,0,.9083-.1098,1.2677-.3094h0l12.3075-7.107v57.525l-.01.02h0ZM570.7051,604.1425h0l-13.0462,7.5362h0c-.3194.1897-.8584.2296-1.2777.1098h0l-27.0207-7.9255h-.0699c-.02,0-.0399-.01-.0599-.01h-.0998c-.02,0-.0299.01-.0499.01-.0299,0-.0499.01-.0699.02-.01,0-.02,0-.0399.02h0l-.1597.0898s-.02.02-.0399.0299c-.01,0-.0299.01-.0399.02s-.02.0299-.0299.0399c-.02.0299-.0399.0499-.0599.0798s-.0299.0499-.0399.0798-.02.0599-.02.0898v.0898c0,.0299,0,.0599.01.0998,0,.0299.02.0599.0299.0898,0,.02,0,.0299.02.0499,0,.01.02.02.0299.0299.01.02.02.0399.0299.0499l13.7249,15.6015s.01,0,.02.01c0,.01.01.0299.02.0399h0c0,.01-.0399.0798-.1697.1597h0l-13.0562,7.5362h0c-.3194.1797-.8285.2296-1.2477.1198h0l-66.0894-18.0071h0c-.2995-.0699-.5789-.1697-.8385-.2795l16.1605-9.323c.7786-.4492,1.1679-.569,2.5553-.1797l29.9154,8.3747s.0898.02.1398.02c.0798,0,.1697-.02.2495-.0699l.2296-.1298.0299-.0299c.01-.01.0299-.02.0499-.0299.01-.01.02-.0299.0299-.0399.02-.02.0399-.0499.0599-.0798s.0299-.0599.0399-.0898.02-.0599.02-.0898v-.0898c0-.0299,0-.0599-.01-.0898,0-.0299-.02-.0599-.0299-.0998,0-.02,0-.0299-.02-.0499,0-.01-.02-.02-.0299-.0399,0-.01-.01-.0299-.02-.0399l-15.3021-17.4681h-.01c0-.01-.01-.0299-.02-.0399,0-.01.0399-.0798.1697-.1597h0l8.8239-5.0907h0c.3194-.1797.8485-.2296,1.2677-.0998h0l30.2548,8.8239s.0898.02.1398.02c.0798,0,.1697-.02.2495-.0699l.1497-.0798s.02-.02.0299-.02.0299-.01.0399-.0299c.02-.01.02-.0299.0399-.0399.02-.02.0399-.0499.0599-.0798s.0299-.0499.0399-.0798.02-.0599.0299-.0898v-.1797c0-.0299-.02-.0599-.0299-.0998,0-.02,0-.0399-.02-.0499,0-.01-.02-.02-.0299-.0299,0-.01-.01-.0299-.02-.0399l-14.4237-17.2984s-.01,0-.02-.01l-.0299-.0299v-.01c-.0998-.0898-.2196-.2296-.1996-.3693.02-.1697.2096-.3593.4891-.4991l.01-.01h0l16.3302-9.4228s.02-.02.0299-.02h.0299c.1797-.0898.4891-.0699.6189.01.2396.1697.4392.3593.5789.549h0l31.1731,38.1504h0s0,.02.02.0299c0,.01-.0399.0798-.1597.1497l-.0399-.0199.0004-.0006ZM521.9141,588.7906v-11.4591l12.6369,15.1523-12.6369-3.6833v-.01h0ZM573.7196,657.4153l-1.8666-2.2958v-51.1367c0-.0599-.01-.1098-.0299-.1597-.0299-.1797-.0898-.3593-.2196-.519l-27.6595-33.8382v-5.7794l29.7657,36.6132v57.0958l.01.0199h-.0001ZM574.8276,658.7928s-.0798-.0898-.1098-.1398v-57.1856l.1098.1098v57.2255-.0099h0ZM575.9954,659.6911h-.1697v-57.6847s.0599.01.0898.01h.0699v57.6847l.01-.01ZM592.2158,650.3083s-.0798.1398-.549.4093l-14.6632,8.4646v-57.525l15.1623-8.754s.0299-.02.0499-.0299v57.4352h0ZM607.5778,639.8773l-14.3738-4.2722v-43.9697s-.01-.0399-.01-.0699c-.02-.3593-.2296-.6887-.4292-.9383l-.01-.01v-.01l-15.5316-17.3982,30.3646,9.0335v57.6348h-.01ZM625.6747,631.0834l-15.1623,8.754c-.6688.3793-1.0481.4891-1.9265.3094v-57.6647c.2595.0399.4891.0699.7087.0699.5889,0,1.088-.1697,1.7169-.529l14.6632-8.4645v57.525-.0002ZM610.5024,581.1645c-.7486.4292-1.1479.519-2.2958.2196l-31.5125-9.3829h-.0798c-.02,0-.0399-.01-.0599-.01h-.0499c-.02,0-.0499.02-.0699.02-.0299,0-.0599.01-.0898.0299,0,0-.02,0-.0299.01h0l-.4292.2495s-.02.02-.0399.0299c-.01.01-.0299.01-.0499.0299-.01.01-.02.0299-.0299.0399-.02.0299-.0399.0499-.0599.0799s-.0299.0499-.0399.0799-.02.0599-.02.0898v.0898c0,.0299,0,.0599.01.0898,0,.0299.02.0599.0299.0998,0,.01,0,.0299.02.0399,0,.01.02.02.0299.0299.01.02.02.0399.0299.0599l16.2304,18.1768c.2196.2795.2196.3793.2296.3793-.01.0299-.0798.1398-.549.4093l-15.4119,8.9038-.02.02h-.02c-.1697.0798-.4592.0699-.5789,0-.3993-.3394-.7386-.7087-.9882-1.088l-.02-.02s0-.01-.01-.02l-30.6341-37.6812h0s0-.02-.01-.0299c0-.01.0399-.0799.1697-.1597h0l13.2758-7.666c.3194-.1797.8285-.2296,1.2477-.1198h0l65.2509,17.6877h.01c.6189.1397,1.2078.3194,1.7668.5191l-15.1923,8.774-.0101.0199.0002.0003ZM580.4074,559.0349v-16.3601l36.8727,5.0907v21.2612l-36.8727-9.9918h0ZM627.3616,626.5716l-.4392-.9982v-53.2428c-.01-.2795-.1597-.529-.4192-.6887-.02-.01-.0998-.0599-.1198-.0699h-.02s-.01,0-.02-.01c-.6688-.2695-1.3974-.4891-2.1661-.6588h0l-5.8892-1.5971v-19.5942l9.0834,20.6623v56.1974h-.01.0002ZM646.1773,619.2649l-16.4001,9.4727v-57.525l16.4001-9.4727v57.525h0ZM658.0357,610.9601l-9.9418-1.3575v-49.849c0-.2396-.0798-.4691-.2196-.6887h0l-3.6234-7.646,13.7948,1.8766v57.6747l-.01-.01h0ZM660.8006,610.8104c-.4691.2495-1.118.3494-1.7668.2895v-57.6847c.1298.01.2495.0399.3693.0399.4891,0,.9682-.0898,1.3974-.2296v57.5949-.01h0ZM661.0501,551.9977l-.02.02s-.02,0-.02.01c-.549.3893-1.5272.529-2.3657.3394h-.0399l-14.9327-2.0363h-.1497c-.0299,0-.0599.01-.0798.02-.02,0-.0299.01-.0499.02h-.0299l-.1497.0799s-.0399.0299-.0599.0499c-.0299.02-.0599.0399-.0798.0699-.02.02-.0299.0499-.0499.0799s-.0299.0599-.0399.0898c0,.0299-.01.0599-.01.0898v.0998c0,.0299.01.0599.02.0898,0,.0299,0,.0599.02.0799l3.9628,8.3747s.02.02.02.0299c0,.02.01.0399.02.0499.0998.1497.0898.2495.0798.3094-.0499.1897-.2795.3993-.6189.539l-.02.02h-.0299l-17.3883,10.0417h0c-.1298.0599-.3494.0399-.4093,0h0c-.1497-.0998-.2495-.2196-.2695-.3194,0-.01-.01-.02-.02-.0299v-.0399h0l-10.0816-22.9381s-.02-.0299-.0299-.0499c-.02-.0299-.0299-.0499-.0499-.0799,0-.01-.02-.02-.0299-.0299s-.0299-.02-.0499-.0299c-.02-.02-.0499-.0399-.0798-.0499-.01,0-.0299-.02-.0399-.02-.02,0-.0399,0-.0599-.01-.02,0-.0399-.02-.0599-.02l-37.8709-5.2305h0c-.1597-.02-.2895-.0699-.4392-.1098l17.548-10.1315h0c.7386-.4292,1.1479-.559,2.8548-.3094h0l14.0843,1.9464h.0699c.0798,0,.1497-.0299.2196-.0599h.0299l.1497-.0898s.0499-.0399.0699-.0599c.02-.02.0499-.0399.0699-.0599.02-.0299.0299-.0599.0399-.0799.01-.0299.0299-.0599.0399-.0898v-.1897c0-.0399-.02-.0699-.0299-.0998,0-.0299-.01-.0499-.02-.0799h0v-.01h0l-4.1125-7.676c-.1198-.2196-.1897-.3793-.1996-.5091v-.0699c.01-.1996.1996-.3394.6488-.5889l17.2485-9.9618h0c.1298-.0599.3394-.0399.4093.01h0c.1497.0998.2396.2196.2695.3194,0,.02.01.0299.02.0399v.0299l1.7768,4.1325h0l.1797.4093h0l7.6361,17.7875s.02.02.02.0299c.0399.0699.0898.1298.1497.1797l.02.02c.0599.0399.1198.0599.1996.0699l39.1385,5.3702h.0299c.1597,0,.3194.0399.4691.0699l-17.538,10.1215.01.0199h-.0003ZM678.7179,600.4792l-16.9191,9.7622v-57.525l16.9191-9.7622v57.525ZM681.0636,577.2616l-1.1778-.1797v-35.2856c0-.2795-.1797-.5191-.5091-.7087,0,0-.01-.01-.02-.01h-.01c-.3294-.1497-.7087-.2396-1.118-.2695h0l-38.8591-5.3403-6.5281-15.1923v-7.8756l48.232,7.1869v57.6747h-.01,0ZM698.7114,587.1635l-16.6496-9.6125v-57.525l16.6496,9.6125v57.525ZM700.7377,587.6726c-.3294.0898-.7087.0898-1.0381,0v-57.6647c.1697.0299.3394.0499.519.0499s.3494-.0299.519-.0499v57.6647h.0001ZM718.0561,577.7507l-16.3202,9.4228v-57.525l16.3202-9.4228v57.525ZM718.2857,518.9381l-17.2685,9.9718c-.4392.2196-1.1379.2196-1.5771,0l-17.6178-10.1714h0s-.02-.01-.0299-.01c-.0299-.01-.0599-.02-.0898-.0299-.02,0-.0399-.02-.0599-.02h-.01l-49.2202-7.3366h0c-.1597-.02-.3194-.0599-.4691-.0998l19.0452-10.9999c.9283-.539,1.5771-.7486,2.715-.529h0l19.9037,4.4419s.0699.01.1098.01c.0798,0,.1497-.02.2196-.0599h.0299l.3394-.1996.01-.01h.01c.0299-.02.0399-.0399.0599-.0599s.0499-.0399.0699-.0699c.02-.0299.0299-.0599.0399-.0898s.0299-.0499.0299-.0799v-.1897c0-.0299-.02-.0699-.0299-.0998,0-.02-.01-.0499-.02-.0699l-.01-.01v-.02l-7.676-11.479c-.1497-.2695-.2396-.4492.8385-1.0681h0l19.2648-11.1297.01-.01h0c.1298-.0799.4192-.1098.6089-.02.0798.0499.1098.0799.2296.3194h0l2.1461,4.7813h0l10.6006,23.6368s.02.02.02.0299c.0299.0699.0798.1198.1398.1697.01,0,.02.02.0299.0299h0l17.5979,10.1515c.1198.0799.1597.1497.1597.1697s-.0399.0898-.1597.1697l.01-.0199h-.0001ZM666.8396,501.6097v-8.0154l6.2985,9.4128-6.2985-1.4074v.01ZM691.3448,485.3993v-6.4981l12.7068,7.3366v22.988l-2.725-1.5671-9.9818-22.2594ZM705.0498,509.8047v-23.1378c.2196.0499.4492.0799.6887.0799.2096,0,.4192-.0299.6189-.0699v23.8864l-1.3076-.7586h0ZM724.7139,533.7909l-5.2704,3.0444v-18.067h0c0-.3893-.2196-.7387-.5989-.9982h-.0299l-11.4491-6.6079v-24.8546l17.3483-10.0217v57.525-.02h0ZM740.1557,564.9141c-.0798.02-.1398.0499-.2196.0599-.6289.0799-1.1279-.1597-1.1878-.3094h0l-12.7767-30.5243v-56.0976l11.8584,28.3283s.01.01.02.02c.2396.569.9882.9383,1.8366.9383.1298,0,.2595,0,.3893-.02.0299,0,.0599-.01.0898-.02v57.6448l-.01-.02ZM788.8569,536.8653l-47.7029,27.5397v-57.525l47.7029-27.5397v57.525ZM789.0964,478.0527l-48.6811,28.1087c-.1298.0699-.2994.1198-.4891.1397-.6289.0799-1.1279-.1597-1.1878-.3094h0l-12.8166-30.6141s-.02-.0299-.0299-.0499c-.02-.0299-.0299-.0499-.0499-.0799,0,0-.01-.02-.02-.0299-.02-.02-.0399-.02-.0499-.0399-.02-.01-.0299-.0299-.0499-.0399l-.2495-.1497h-.0299c-.02,0-.0399-.02-.0599-.02s-.0499-.01-.0699-.02h-.1897c-.02,0-.0399.01-.0699.02-.02,0-.0399.01-.0599.02h-.0299l-18.3365,10.5907c-.5091.2695-1.3376.2595-1.8167-.0299h0l-13.705-7.9155h0c-.1797-.0998-.2495-.1996-.2495-.2495,0-.0299.0399-.1198.1996-.2196l47.8826-27.6495c.1298-.0699.2994-.1198.4891-.1397.6289-.0699,1.118.1597,1.1778.3194h0l12.4672,30.8936s.02.02.02.0299c.0299.0699.0798.1298.1497.1797.01,0,.02.02.0299.0299l.01.01.1697.0998h0c.0798.0399.1597.0699.2495.0699s.1697-.02.2495-.0699h0l19.5543-11.2894h0c.4991-.2695,1.3475-.2595,1.8167.02h0l13.7249,7.9255h0c.1797.0998.2495.1996.2495.2495,0,.0299-.0399.1198-.2096.2296l.0099-.02.0002-.0003ZM616.0323,408.5196s0,.0399.02.0599c0,0,.01,0,.02.02.0399.0699.0898.1298.1697.1697h0l9.313,5.3802h0c.0798.0399.1597.0699.2495.0699s.1697-.02.2495-.0699h0l2.6352-1.5172h0c.0399-.02.0699-.0399.1098-.0599.02,0,.0299-.02.0399-.0299,1.3974-.7586,2.206-1.8067,2.2758-2.9845.0599-1.1279-.5789-2.196-1.8167-3.0045-.1398-.0898-.2895-.1797-.4392-.2695h0c-.01,0-.0299-.01-.0399-.02h0c-2.9746-1.6869-6.8675-1.647-9.9319.1298h0l-2.6352,1.5172s-.01.01-.02.02c-.0299.02-.0499.0399-.0699.0599-.02.02-.0499.0499-.0699.0799,0,0-.01.01-.02.02-.01.02-.01.0399-.02.0599-.01.0299-.0299.0699-.0299.0998v.1797c0,.0399.02.0699.0299.0998l-.0199-.01.0002-.0002ZM629.1084,407.6512c.6788.549,1.0481,1.1878,1.0082,1.8366-.0299.5889-.3993,1.1679-1.0082,1.667v-3.5036ZM619.3563,407.2419h0c2.7051-1.5572,6.0989-1.627,8.744-.2196v4.7813l-2.3058,1.3376-8.3148-4.8012,1.8866-1.088-.01-.01h0ZM446.1724,583.091c3.314,1.9165,6.9573,2.715,10.3112,2.715s6.3384-.7786,8.5045-2.0263c2.3357-1.3475,3.6234-3.1842,3.6234-5.1606,0-2.2559-1.7069-4.4818-4.8112-6.2785-6.6778-3.8629-14.6133-3.314-18.9953-.7786-2.3457,1.3575-3.6334,3.1842-3.6334,5.1406,0,1.6071.8684,4.0127,4.9909,6.3983l.01-.01h-.0001ZM445.314,572.4105c4.1325-2.3856,11.6388-2.8847,17.9971.7786,2.7849,1.6071,4.3121,3.5236,4.3121,5.4101,0,1.6071-1.108,3.1343-3.1243,4.3021-4.0326,2.3257-11.6487,2.8748-17.8275-.6887-2.8947-1.6769-4.4918-3.6433-4.4918-5.5299,0-1.5871,1.118-3.1143,3.1343-4.2822v.01h0ZM443.5572,377.3565s0,.0399.02.0599l.02.02c.0399.0699.0898.1198.1697.1697h0l18.626,10.7604h0c.0599.0299.1298.0499.1996.0499.02,0,.0299.01.0499.01h0c.02,0,.0299-.01.0499-.01.0699,0,.1397-.02.1996-.0499h0l4.2323-2.4455h0c3.1942-1.8466,4.8112-3.813,4.8112-5.8493s-1.5971-3.9927-4.7413-5.8094c-5.9891-3.4537-13.1959-3.4238-19.2848.0898l-4.1524,2.3956-.02.02c-.0299.02-.0499.0399-.0799.0699l-.0699.0699-.02.02c-.01.02-.01.0399-.02.0599-.01.0299-.0299.0599-.0299.0998v.1797c0,.0299.02.0699.0299.0998l.01-.01v-.0002ZM448.4083,375.2004c5.7695-3.3339,12.607-3.3639,18.2866-.0898,2.7749,1.6071,4.2423,3.314,4.2423,4.941s-1.4474,3.3339-4.3121,4.9909h0l-3.9827,2.2958-17.6378-10.1814,3.4038-1.9664v.01h-.0001ZM288.6599,484.7006s.0399.0299.0599.0399c.0699.0299.1397.0599.2196.0599h0c.0799,0,.1497-.02.2196-.0599h.0299l6.2286-3.5934.02-.02c.01,0,.02-.02.0399-.0299.0699-.0499.1198-.1198.1497-.1996l.02-.02v-.02c.01-.0399.01-.0699.01-.1098v-.0799c0-.0299-.02-.0599-.02-.0898s-.02-.0699-.0299-.0998v-.02c-.01-.02-.0299-.0399-.0499-.0599-.02-.0299-.0399-.0599-.0699-.0799s-.0599-.0399-.0998-.0599c-.02-.01-.0399-.0299-.0599-.0299l-13.8347-4.7314h-.02c-.0299,0-.0599,0-.0898-.01-.02,0-.0399-.01-.0599-.01h-.0499c-.0299,0-.0599.01-.0799.02-.0299,0-.0499.01-.0799.02,0,0-.02,0-.0299.01h-.02l-.569.3294-.0499.0499c-.02.01-.0399.02-.0499.0399,0,0-.01.02-.02.0299-.02.0299-.0399.0599-.0599.0898-.01.0299-.0299.0499-.0399.0799s-.01.0599-.02.0998v.0898c0,.0299.01.0599.02.0898,0,.0299.02.0599.0299.0898,0,0,0,.02.01.0299,0,.01.02.02.0299.0299.02.0299.0299.0499.0499.0799l8.1751,7.9954s.0499.0299.0699.0499h.02v.0003ZM293.9602,480.8276l-4.951,2.8548-7.137-6.9872,12.0879,4.1325h0ZM515.1864,536.2065c-1.8766-1.078-5.3103-1.627-8.8239.3993l-7.0571,4.0726-.02.02c-.0299.02-.0499.0399-.0799.0699-.02.02-.0499.0499-.0599.0699l-.02.02c-.01.02-.01.0399-.02.0599-.01.0299-.0299.0599-.0299.0998v.1797c0,.0299.02.0599.0299.0998,0,.02,0,.0399.02.0599l.02.02c.0399.0699.0898.1198.1697.1697h0l7.6161,4.402h0c.0599.0399.1397.0499.2096.0599.01,0,.02.01.0399.01h0c.01,0,.02,0,.0399-.01.0699,0,.1497-.02.2096-.0599h0l7.0571-4.0726c1.6869-.9782,2.5453-2.0263,2.5453-3.1343,0-.9483-.6588-1.8466-1.8466-2.5354h.0002ZM513.9886,541.0178l-6.8076,3.9328-6.6279-3.823,6.3085-3.6433c3.1443-1.8167,6.1787-1.3475,7.8257-.3993.4991.2895,1.3475.8884,1.3475,1.6769,0,.7087-.7087,1.4973-2.0463,2.2659v-.01h.0001ZM563.3086,450.1636c3.314,1.9165,6.9573,2.715,10.3112,2.715s6.3384-.7786,8.5045-2.0263c2.3357-1.3475,3.6334-3.1842,3.6334-5.1706,0-1.5971-.8385-3.9827-4.8112-6.2785-6.9573-4.0227-14.7032-3.2141-18.9454-.7586-2.3557,1.3575-3.6533,3.1942-3.6533,5.1506,0,1.5971.8584,3.9927,4.9709,6.3684h-.0101ZM562.4901,439.5031c4.1325-2.3856,11.6288-2.8947,17.9473.7586,2.7849,1.6071,4.3121,3.5336,4.3121,5.4101,0,1.6071-1.108,3.1343-3.1343,4.3021-4.0326,2.3258-11.6488,2.8748-17.8275-.6887-2.8847-1.667-4.4718-3.6134-4.4718-5.5,0-1.5871,1.118-3.1143,3.1542-4.2922l.02.01h0Z"/>
  </g>
  <g id="Layer_3" data-name="Layer 3">
    <path d="M601.6395,639.5257l-8.7995,1.1543v-4.78l8.8776,2.6481c.5184.1546.4582.9072-.0781.9776Z"/>
    <path d="M725.84,533.97l12.5246,29.9265c.154.368-.1018.7779-.5001.8011l-18.5645,1.0825v-28.33l6.28-3.63.26.15Z"/>
    <path d="M552.41,669.79v.01l-8.6157,2.1036c-.4094.1-.8043-.2101-.8043-.6315v-3.3742c0-.4337.4166-.7458.8328-.6238l8.5871,2.5159Z"/>
    <path d="M460.48,669c.3647.1843.751.322,1.15.41l60.79,16.57-71.42,15.59c-.0822.02-.1678.02-.25,0l-61.14-17.33c-.2671-.0703-.4266-.3438-.3563-.6108.0268-.1017.085-.1924.1663-.2592l9.63-8.3c.0804-.0731.1819-.1187.29-.13l17.72-1.51c.0819-.0081.1608-.0355.23-.08l6.5-4.17c.2377-.1511.3079-.4662.1568-.704-.0605-.0952-.1508-.1676-.2568-.206l-8.56-2.95c-.0944-.0299-.1956-.0299-.29,0-26.21,6.79-44.27,6.79-56.18,2.06-18.09-7.17-13.43-19-12.2-21.45.1346-.2629.0374-.5852-.22-.73l-4.44-2.51c-.1029-.0589-.2231-.0801-.34-.06l-20.31,3.68c-.1169.021-.2374-.0002-.34-.06l-46-26.12c-.243-.1425-.3245-.4549-.182-.6979.0557-.095.1406-.1694.242-.2121l8.66-3.45c.2618-.1038.3899-.4003.286-.6621-.0167-.0421-.0389-.0817-.066-.1179l-3.18-4.13c-.1208-.1663-.3311-.2416-.53-.19l-14,3.8c-.1313.0385-.2727.0204-.39-.05l-46.76-28.16c-.2412-.1454-.319-.4588-.1736-.7001.0623-.1033.1592-.1813.2736-.2199l13.01-4.34c.2676-.088.4131-.3762.3251-.6438-.0423-.1287-.1341-.2353-.2551-.2962l-8.31-4.21c-.1217-.05-.2583-.05-.38,0l-15.38,4.67c-.2008.0651-.4209-.0029-.55-.17l-29.13-37.43c-.1721-.223-.131-.5432.092-.7153.0274-.0212.0569-.0395.088-.0547l15.89-7.82h.13l37.57-7.15c.2764-.0544.4563-.3226.4019-.5989-.0282-.143-.1162-.2672-.2419-.3411l-11.25-6.62c-.243-.1424-.3246-.4549-.1821-.6979.0441-.0753.1068-.138.1821-.1821l31-18.26v27.09l31.37,38.81c.2047.2883.4545.5415.74.75.3455.1763.7545.1763,1.1,0h0l6.19-3.57v7.44c.0194.248.1622.4697.38.59l48.87,28.21c.6355.2884,1.3645.2884,2,0l5.13-2.95v6.73c.0242.2573.1791.4839.41.6l48.85,28.2c.6355.2884,1.3645.2884,2,0l19.06-11v15c0,5,3.44,10.17,11.09,14.59,9.32,5.37,20.49,7.15,30.89,6.13v11.51c.0055.217.183.39.4.39h0Z"/>
    <path d="M681.86,577.67l15.6342,9.0337c.6097.3523.395,1.2812-.3078,1.3257-5.0705.3211-16.6721,1.043-17.5064.9806v-11.67l2.18.33h0Z"/>
  </g>
</svg>