<?xml version="1.0" encoding="UTF-8"?>
<svg xmlns="http://www.w3.org/2000/svg" viewBox="0 0 1000 1000">
  <g id="Layer_2" data-name="Layer 2">
    <path d="M680.7434,381.276v-.0641c-.0128-.1795-.0769-.3718-.1923-.5642v-.0128c-.2564-.4359-.5001-.8462-.7436-1.2565h0c-4.2696-7.0391-7.6801-9.3598-10.6932-11.4113-.5257-.359-1.0514-.718-1.5642-1.0898-2.7566-2.0002-10.0265-6.398-13.9371-8.77-1.2822-.7821-2.2182-1.3463-2.5387-1.5514-.7821-.5-1.6155-1.3976-2.5387-2.731-.7052-1.0386-1.4745-2.3335-2.3207-3.9491h0c-.7949-1.4745-2.0002-3.4106-3.3977-5.4492h0c-2.0258-2.9874-7.3853-10.4625-13.2319-15.1936l-1.2437-1.0129c-6.8339-5.5646-18.2708-14.8859-32.708-16.6681-5.7185-.7052-10.8856.2436-15.3731,2.8336l-7.7058,4.4491s-.0256.0256-.0513.0385c-3.8593,2.2438-6.3467,5.1671-7.8084,6.9109-.4103.4872-.7308.8719-1.0001,1.1283,0,0-.0128.0256-.0256.0385-.0256.0385-.0513.0769-.0769.1154s-.0385.0641-.0513.1026-.0128.0769-.0256.1154v.1154c0,.0385,0,.0769.0256.1154,0,.0385.0128.0769.0256.1026-4.6927,6.257-6.7057,11.8215-8.6674,17.2323-2.1284,5.8723-4.1286,11.4113-9.5521,16.9758-4.3337,4.4491-17.9759,14.8603-33.7722,26.9254-24.8868,19.0145-55.8639,42.6704-69.3907,57.223-2.1925,2.3592-5.1158,4.7184-8.7315,7.0775h0c-10.1547,5.2825-23.9508,10.5907-41.0036,15.7706h0c-1.295.3975-2.6028.7821-3.8978,1.1539-21.6686,6.3211-42.4524,10.7702-52.4405,12.9114-2.4746.5257-4.244.9103-5.1543,1.1283-.7308.1795-1.2437.3334-1.6796.5129-.0513.0256-.1026.0641-.141.0898-.3334.1282-.6667.2564-.936.4231h0l-7.7058,4.4491s-.0385.0385-.0641.0641c-1.3847.8334-2.0515,2.0771-1.8976,3.6157v.1667c0,.0769.0385.1539.0513.2308.0128.1026.0256.2052.0513.3205.0128.0769.0513.1539.0641.2308.0128.0513.0256.1026.0513.1539.1154.3462.2436.6924.4231,1.0385.3077.5898.7052,1.1924,1.2052,1.7822.718.859,1.6027,1.6668,2.6028,2.3848,1.295.9232,2.731,1.6412,4.2696,2.1669,2.1669.8206,4.5773,1.3078,7.0263,1.2309,2.7567-.0898,7.5135-.5898,13.5397-1.2181,18.3221-1.9232,48.9787-5.1287,70.3395-1.6412,28.9384,4.7184,45.9015,8.7059,64.0441,18.5786,3.4747,1.8848,7.0263,3.9619,10.783,6.1544,7.4109,4.3209,15.0654,8.7828,23.2456,12.5011.0513.9232.1154,1.8335.2052,2.7566h0l12.5267,137.8839h0c.5129,5.8082,4.4363,10.2445,9.1162,10.3086h.1154c.218,0,.4231,0,.6283-.0256l6.6672-.5898h.0256c1.7566-.1667,3.4234-.9745,4.7697-2.3335,2.0643-2.0899,3.2054-5.2312,3.1156-8.6161h0l-2.1797-99.1625c-.2949-13.7576,5.6159-25.5535,15.4501-30.7976,3.3208-.141,6.7057-.4488,10.1035-.9616,3.9619,1.295,7.6545,3.7311,10.9753,7.2314l61.4926,64.916h0c1.7181,1.9489,3.9619,3.0387,6.2313,3.0387.218,0,.4231,0,.6411-.0256l6.6673-.5898s.0385-.0128.0641-.0128c2.231-.218,4.2568-1.4489,5.7313-3.5131,3.1413-4.4106,2.7438-11.3728-.8719-15.5398h0l-56.5819-70.6344c2.1284-1.6796,4.0901-3.5003,5.821-5.5133h0c3.5003-3.9875,6.2313-8.7187,8.1161-14.0653h0c3.6029-10.2445,6.039-22.2199,7.2058-35.6057,1.2693-14.4243,1.077-29.9001-.5642-45.9656l-.0513-.4488h0c-.8334-8.0776-1.1924-12.4754-1.1411-17.1169.0256-2.4874.1795-5.1287.4231-8.8597h0c.0641-.8719.1667-1.7566.3077-2.6541h0c.5385-3.2182,1.4745-5.8595,2.0515-6.5647,0,0,0-.0128.0128-.0256h0c2.1284-2.5387,4.0901-5.3466,5.8595-8.3341h0c.1923-.3462.3718-.7052.5513-1.0514h0c.2308-.4488.4488-.8847.6667-1.3206.6283-1.2437,1.2181-2.4105,1.9745-3.4618,1.9361-.2564,3.8978.0256,5.9492.8847h0c6.7314,2.5259,13.4627,4.603,20.0146,6.1929h.0128c1.2437.2436,2.1412.3334,2.7823.3334s1.0385-.1026,1.3078-.2564h.0256l7.7058-4.4491h0c.3462-.2051.5385-.5385.5385-.9103v-.0385l.0512-.0769ZM580.8757,315.4882c4.2311-2.4489,9.1418-3.3464,14.5654-2.6669,14.0782,1.7437,24.8996,10.5522,32.0541,16.3861l1.2437,1.0129c5.7185,4.6286,10.9881,11.9754,12.9755,14.9244h0c1.2181,1.7694,2.2566,3.4362,3.0259,4.7953l-6.5903,3.808c-1.0642-1.8976-2.6541-4.3594-4.5645-6.9878-3.1798-4.4363-7.4237-9.5906-11.7446-13.0909l-1.2309-1.0001c-6.8339-5.5646-18.2708-14.8859-32.7208-16.6681-3.1156-.3846-5.8595-.2436-8.2956.2308l1.2693-.7308.0128-.0128ZM331.3154,485.2595c.9232-.218,2.6413-.5898,5.0261-1.1027,10.0009-2.1412,30.8232-6.6031,52.5303-12.937,1.295-.3847,2.6028-.7693,3.9106-1.1539h0c8.0392-2.4361,15.3475-4.9107,21.8994-7.3981-13.7191,5.7954-31.7079,11.5395-53.9406,17.2066-13.7063,3.4618-25.5407,6.0005-32.349,7.4622-.3846.0769-.7437.1539-1.0898.2308l4.026-2.3207-.0128.0128ZM533.6664,496.2476l4.4491-.3975c-10.924,9.5778-16.6553,25.7587-15.0911,42.9268l-5.3979.4872c-1.5642-17.2194,4.6799-34.0286,16.027-43.0038l.0128-.0128ZM517.742,540.5335l5.3979-.4872,12.4113,136.6017-5.3979.4872-12.4114-136.6017h0ZM538.6669,686.8925c-.2052.0128-.4103.0256-.6154.0256-3.7824-.0513-7.1032-3.7311-7.7699-8.5008l5.3979-.4872c.5257,3.9747,2.6541,7.2186,5.5005,8.7444l-2.513.2308v-.0128ZM579.2217,545.2647c.9488-.1795,1.8848-.359,2.8208-.577,4.1029,1.0514,7.9238,3.2952,11.3856,6.6801l-5.0004.4488c-2.8208-2.9233-5.9108-5.1158-9.2059-6.5519h0ZM589.5688,552.9962l5.0389-.4488,60.3771,63.7235-5.0389.4488-60.3771-63.7235ZM655.972,619.5661c-1.7181.1539-3.3977-.4359-4.8337-1.6668l4.9748-.4488c.7308.7821,1.5386,1.4232,2.3976,1.8848l-2.5387.2308h0ZM666.6781,601.9876h0v.0128c3.2695,3.7439,3.6285,10.0137.8078,13.9756-1.3078,1.8463-3.1156,2.9105-5.0902,3.0131-2.0386.1026-4.0132-.8334-5.5646-2.6156h0l-61.4926-64.916c-3.2952-3.4875-6.9493-5.9364-10.8599-7.3468,5.2825-1.3976,10.4112-3.4362,15.0654-6.3339l6.3211-3.6542c1.4873-.859,2.8721-1.8079,4.2183-2.7951l56.6075,70.66h-.0128ZM615.9429,524.1988h0c-2.5259,2.9361-5.5646,5.5133-8.9751,7.693,1.3591-1.3334,2.6284-2.7951,3.8208-4.3593,2.9874-3.885,5.0389-7.9751,6.4493-11.8857l5.9492-3.4362c-1.795,4.5132-4.2183,8.5392-7.2442,11.9882h0ZM630.957,475.2586c-1.1539,13.1806-3.5388,24.9765-7.0775,35.0672l-6.039,3.4875c3.308-9.8855,5.5646-21.2967,6.6801-33.9902,1.2693-14.4115,1.077-29.8744-.5513-45.9527v-.0513l6.4749-3.7439c1.5771,15.7963,1.7566,31.0027.5129,45.1834h0ZM630.3159,428.6647l-6.4877,3.7439c-.7565-7.4622-1.0898-11.6933-1.0385-16.1424.0256-2.3976.1667-4.8722.3975-8.5136l6.3724-3.6798c-.2052,3.1285-.3205,5.4877-.3462,7.7314-.0641,4.6286.2949,8.988,1.1027,16.8605ZM629.9569,400.111h0c-.1282.8078-.218,1.6155-.2821,2.4233l-6.3467,3.667c.0641-.6026.1539-1.2052.2436-1.7694.0385-.218.0769-.4359.1282-.6539.0128-.0769.0256-.1539.0513-.2308.5257-2.5643,1.2565-4.5901,1.7694-5.2697l5.7569-3.3208c-.5129,1.3719-.9873,3.2182-1.3206,5.1671v-.0128ZM632.3546,392.8411l-4.7312,2.731c1.3206-1.7694,2.5771-3.6413,3.7311-5.5902l5.3723-3.1028c-1.3591,2.1156-2.8208,4.1157-4.3722,5.9621ZM639.2398,382.4171c-.218.4231-.4359.859-.6667,1.295h0c-.141.2949-.2949.577-.4616.8719l-5.6415,3.2567c.0769-.141.141-.2821.218-.4231,1.0514-2.0771,1.9617-3.9234,3.6798-5.321.2308-.1923.4872-.3718.7437-.5385,1.1668-.7565,2.3079-1.2822,3.4618-1.6412-.4744.7949-.8975,1.6155-1.3206,2.4874l-.0128.0128ZM668.6398,385.3276c-7.0904-1.7694-13.5653-3.7696-19.7966-6.1416h0c-2.3464-.9744-4.6286-1.2693-6.8724-.9232-.0256,0-.0641,0-.0898.0128-1.8207.2949-3.6157,1.0001-5.4107,2.1669-.3205.2051-.6154.4231-.8847.6539-2.0002,1.6155-3.0516,3.7183-4.1414,5.9492-.2436.4872-.5.9744-.7437,1.4745-.1026.1923-.2052.3975-.3205.5898h0c-1.8976,3.2054-3.7824,5.8723-5.7697,8.1674v.0128h-.0128c-.6924.8847-1.4873,3.1157-2.0386,5.7697-.0769.3462-.141.6924-.2052,1.0385v.0256c-.1923,1.0514-.3334,2.154-.4359,3.2695-.7693,9.4752-.4616,13.296.4616,24.6175l.1282,1.5771v.0256c.9616,7.8084,5.1287,48.4402-6.5775,81.5969-1.9617,5.5646-4.744,10.1419-8.0904,13.9115-12.219,13.514-31.9131,16.3604-48.0427,15.9629-.359,0-.6411.2693-.6539.6283,0,.1539.0513.2949.141.4103.0256.3205.2821.5898.6154.5898.7308.0128,1.4617.0256,2.2181.0256.6411,0,1.2822,0,1.9232-.0128-9.0393,5.9492-14.3859,17.4631-14.1038,30.7463l2.1797,99.1625h0c.0769,3.0387-.9232,5.8467-2.7438,7.693-1.3078,1.3206-2.9233,1.9617-4.603,1.9873-3.9491-.0513-7.3981-4.0645-7.8468-9.1418h0l-12.5267-137.8839h0c-1.7437-17.1682,4.3081-33.9902,15.4501-43.1833l9.347,24.0919c.1026.2564.3462.4103.6026.4103.0769,0,.1539-.0128.2308-.0385.3334-.1282.5-.5.3718-.8334l-9.6675-24.9381s-.0128-.0256-.0256-.0385c-.0128-.0256-.0256-.0513-.0513-.0769,0-.0128,0-.0385-.0256-.0513l-.0256-.0256c-.0128-.0128-.0256-.0385-.0513-.0513-.0256-.0256-.0513-.0385-.0769-.0641-.0256-.0128-.0385-.0256-.0641-.0385-.0128,0-.0385-.0128-.0513-.0256-.0385-.0128-.0641-.0256-.1026-.0256-.0256,0-.0513,0-.0769-.0128h-.1026l-6.6672.5898s-.0385,0-.0513.0128c-.0385,0-.0769.0256-.1282.0385-.0385.0128-.0769.0385-.1154.0641-.0128,0-.0385.0128-.0513.0256-11.0394,8.6418-17.2707,23.7328-16.8733,40.1445-7.7571-3.6029-15.0782-7.8597-22.1558-11.9882-3.7311-2.1669-7.2442-4.2183-10.6932-6.1031h0c-18.1298-9.924-35.1826-13.9499-64.3133-18.7196-7.3468-1.2052-16.5015-1.7181-27.2203-1.5386-15.5783.2693-31.4515,1.9232-43.0294,3.1285-2.4105.2564-4.6158.4872-6.5903.6667l-7.1545.5513c-2.949.2308-4.2952.0256-6.3467-.5257-.7821-.2052-1.5258-.4872-2.2438-.8078-3.3464-1.5899-5.7697-4.026-6.4493-6.0775,0-.0256-.0128-.0385-.0256-.0641-.0513-.1667-.0769-.3205-.1154-.4744-.0385-.2308-.0641-.4488-.0385-.6667.0256-.3077.1026-.5898.2308-.8462.1795-.3718.4872-.7052.8847-1.0001.2949-.218.6411-.4103,1.0514-.577.2436-.0898.4872-.1667.7308-.2308.8975-.218,2.6541-.6026,5.1158-1.1283,10.9112-2.3464,21.0659-4.7055,30.5155-7.0775,7.1929-1.7822,14.9757-3.8465,22.8738-6.1416,32.4516-9.4624,53.5047-19.194,62.5568-28.9256,13.4499-14.45,44.3885-38.0418,69.2497-57.005,15.7322-12.0011,29.3231-22.3609,33.7209-26.8485,5.6287-5.7313,7.6417-11.4882,9.7957-17.5785,2.1797-6.18,4.4235-12.5652,10.6291-19.7325,5.68-6.4365,12.5267-9.0649,20.9121-8.0392h0c14.1807,1.7822,25.451,11.0266,32.1823,16.5399l1.0001.8206c3.9875,3.2567,8.1417,8.1674,11.3856,12.6165,2.1284,2.9746,3.7824,5.6159,4.6158,7.1801,1.1283,2.1027,2.1027,3.7055,3.0131,4.8979.9232,1.2565,1.7822,2.1027,2.6028,2.5771,1.3591.7949,12.8473,7.693,16.3091,10.2188h0c.5513.3975,1.1026.7821,1.654,1.1668,2.9874,2.0386,6.0646,4.1414,10.1163,10.7445.2436.4103.5001.8334.7565,1.2822-.3205.0641-1.1283.1026-3.0259-.2821l-.0513.0513ZM672.5119,384.5198c-.1282-.218-.2564-.4359-.3846-.6539-4.2824-7.0775-7.693-9.3983-10.7189-11.4625-.5257-.359-1.0514-.718-1.5642-1.0898-2.7566-2.0002-10.0265-6.398-13.9243-8.77-1.2822-.7821-2.2181-1.3463-2.5515-1.5514-.6924-.4488-1.4232-1.1924-2.231-2.2822-.7052-.9873-1.4873-2.2694-2.3464-3.8593l6.5903-3.808c.7565,1.3847,1.436,2.5515,2.0899,3.5003h0c1.0385,1.4873,1.9617,2.4746,2.9105,3.0772.3205.2051,1.2693.7821,2.5643,1.5642,3.885,2.3592,11.1292,6.7442,13.8474,8.7059.5257.3846,1.0514.7437,1.5899,1.1027,3.0387,2.0771,6.1928,4.2183,10.3214,11.0266h0c.1282.218.2692.4488.3975.6795l-6.5903,3.808v.0128ZM610.4296,343.1444c-2.3207-1.9745-4.7568-2.7951-6.5262-2.2181-1.1411.3718-1.9361,1.3078-2.2566,2.6413-.7821,3.3336,1.5642,8.4623,5.3466,11.6805.2564.218.5129.4103.7565.6026,1.6668,1.2822,3.3593,1.9874,4.8081,1.9874.4231,0,.8206-.0641,1.2052-.1795,1.1411-.3718,1.9361-1.3078,2.2438-2.6284.7437-3.1926-1.3847-8.0135-4.8722-11.2446-.2308-.218-.4616-.4359-.7052-.6411ZM614.5197,354.53c-.2052.8975-.6795,1.4745-1.3976,1.7053-1.1411.3846-2.8336-.141-4.526-1.3719-.1795-.1282-.3462-.2693-.5257-.4103-3.3208-2.8336-5.5646-7.5904-4.9107-10.3855.2052-.8975.6795-1.4617,1.3976-1.7053,1.295-.4359,3.2952.3077,5.2056,1.9104.2564.218.4872.4616.7308.7052.7693,1.7437,1.9104,3.449,3.2695,4.8722.7308,1.7181,1.0514,3.3977.7565,4.6671v.0128ZM606.301,397.2646l-.1923-.8334s-.0256-.0641-.0385-.0898c-.0128-.0385-.0256-.0898-.0513-.1282-.0256-.0385-.0641-.0641-.0898-.0898s-.0513-.0513-.0769-.0769c-.0513-.0256-.1026-.0513-.1539-.0641-.0256,0-.0385-.0256-.0769-.0256h-.0256c-7.2699-1.5899-14.5654-2.8592-21.707-3.7952-7.1288-.9232-14.2705-1.5386-21.2455-1.795h0c-.3847-.0513-.7437-.0513-1.0642,0-.3975.0641-.7437.218-1.0257.4488-.2436.2051-.4359.4616-.5513.7565-.1026.2693-.1539.5642-.1539.8847s.0641.6667.1795,1.0385c.1282.4231.3334.8847.6026,1.3463.3718.6411.8847,1.3335,1.5129,2.0643h0c1.8207,2.1027,5.244,7.0904,7.116,9.8855,2.7438,4.0901,5.6287,8.552,7.5135,11.6549,1.0257,1.6796,2.0386,3.9491,2.7823,6.2441.8462,2.5772,1.3463,5.1158,1.5001,7.5391.1667,2.6541-.1026,5.0902-.7949,7.2314-.8719,2.6541-2.4105,4.885-4.5901,6.6031-4.3978,3.4875-15.6937,9.5906-33.0157,15.3475-19.1812,6.3595-39.6189,10.1932-59.0949,11.0907h0c-9.2957.3847-17.2579.6539-23.6687.8206-6.0646.1539-11.0779.218-14.8859.1795h0s-.0769.0128-.1154.0256h-.1154c-.0513.0128-.0769.0513-.1282.0769-.0256.0256-.0641.0385-.0898.0641-.0256.0256-.0513.0641-.0769.1026s-.0513.0641-.0641.1026-.0256.0769-.0256.1026c0,.0385-.0256.0898-.0256.1282v.0256c0,.0385.0128.0641.0256.1026,0,.0385,0,.0769.0128.1026l.2821.8462h0c.0385.1154.1154.2052.2052.2693.0256.0128.0385.0256.0641.0385.0898.0641.2052.1026.3205.1026h2.1925c3.4875,0,7.7571-.0641,12.7447-.1923,9.7701-.2436,20.2582-.6795,23.7072-.8206h.2693c13.1165-.6026,39.465-3.2567,68.5701-14.5013,10.6291-4.1029,19.6684-8.6931,24.1944-12.2703,1.3334-1.0642,2.4746-2.2951,3.3721-3.6926.8334-1.295,1.4873-2.731,1.9361-4.2824.718-2.4746.936-5.2697.6411-8.3084-.2821-2.872-1.0129-5.9621-2.1412-8.9367-.7308-1.9104-1.5771-3.6926-2.4618-5.1415-2.4618-4.0388-7.2186-11.36-10.924-16.6168-1.7437-2.4618-3.0772-4.244-3.9875-5.2953-.2949-.3462-.6026-.718-.8719-1.1155-.1795-.2693-.3718-.5642-.5129-.859-.1026-.2051-.1667-.3846-.2052-.5385-.0256-.1154-.0385-.2051-.0385-.2821,0-.0513.0128-.0898.0385-.1282.0256-.0513.0898-.0898.141-.1026.2693-.1154.5129-.0898.8206-.0513h.0769c2.5771.1154,10.4368.4103,21.1044,1.795,7.1032.9232,14.3602,2.1925,21.5916,3.7696.0513,0,.0898.0128.141.0128s.1026,0,.141-.0128c0,0,.0128,0,.0256-.0128.0513-.0128.1026-.0385.1539-.0641.0256,0,.0385-.0256.0641-.0385.0641-.0513.1154-.1026.1539-.1667,0,0,0-.0256.0128-.0385.0256-.0513.0513-.1026.0641-.1667h0v-.2693h.0128Z"/>
  </g>
  <g id="Layer_3" data-name="Layer 3">
    <path d="M654.28,620.53s.8,5.07-12.19,5.29c0,0-44.79,0-89.89.24h0l-.32-14.59h.35l95.37,3.39,3,3.15c.9727,1.1612,2.2457,2.0329,3.6801,2.52Z"/>
    <path d="M538.57,688.39h.68c-2.71,7.82-16,4.4-24.2,2.09-7.56-2.12-54.28-16.83-83.53-25.89-4.7243-1.4534-9.7657-1.5263-14.53-.21-41.86,11.46-122.12,9.68-159.46,7.74-4.947-.2548-9.9034.2648-14.69,1.54-5.896,1.5096-11.8859,2.6254-17.93,3.34-.6795.085-1.1615.7047-1.0766,1.3843.035.2798.1643.5393.3666.7357,5.64,5.38,21.1,20.76,13.75,20.62-6.73-.12-24.44-10.29-32.74-15.29-2.7849-1.6655-5.8584-2.7918-9.06-3.32-8.18-1.36-26.48-5.48-49.5-17.48-42-21.89,20.6-33.42,44.4-35.59,2.8115-.2535,5.418-1.5782,7.28-3.7,18-20.33,79-53.79,95.65-62.73,2.726-1.4575,4.7644-3.9345,5.67-6.89,3.83-12.42,14.08-45.75,14.75-48.7.83-3.63.66-7.1,6.27-9.08.7375.8588,1.5771,1.6245,2.5,2.28,1.0889.7734,2.2717,1.4051,3.52,1.88l.18.07c2.29.9467,4.7529,1.4032,7.23,1.34h.76c-10,52.09,56.54,91.08,76.47,101.48,3.4697,1.8236,7.3032,2.8486,11.22,3l101.32,3.59,1.43,15.78c-29.56.23-55.12.61-62.64,1.2-20.81,1.65-30,14.79-18,19.74l86.36,35.43c1.5001,3.2499,4.36,5.5999,7.55,5.64Z"/>
  </g>
</svg>