<?xml version="1.0" encoding="UTF-8"?>
<svg xmlns="http://www.w3.org/2000/svg" viewBox="0 0 1000 1000">
  <g id="Layer_2" data-name="Layer 2">
    <path d="M626.1649,423.7009l-120.3712-69.5012c-4.1415-2.3889-10.8617-2.3889-15.0032,0l-120.3713,69.5012c-2.1545,1.2391-3.3378,2.947-3.3378,4.789v20.5065c0,1.6298.9823,3.1926,2.7126,4.3871v110.3245c0,.3572.0223.6921.0558,1.027.0893.7591.2679,1.4512.547,2.0428.3684.7926.893,1.44,1.5852,1.9312.134.0893.2679.1786.413.2567h0l120.4829,69.557h0c.4019.2344.8372.3572,1.2614.3572.1674,0,.3349-.0223.5023-.0558.6921-.1563,1.2503-.614,1.5963-1.3061.0558-.1116.0781-.2344.1228-.3572.6363.067,1.2838.1116,1.92.1116h.4242c.5023,0,1.0047-.0446,1.4958-.1005.1674.4688.413.8707.7591,1.1721.413.3572.9265.5358,1.4512.5358.1563,0,.3126-.0112.48-.0447.2568-.0558.5023-.1563.7479-.3014.0223,0,.0335,0,.0558-.0112l120.4829-69.557c.5247-.3014.9824-.6921,1.3507-1.1386.4577-.5693.7926-1.2503,1.0047-2.0428.1674-.6251.2456-1.3284.2456-2.0652v-110.3245c1.7303-1.1944,2.7126-2.7573,2.7126-4.3871v-20.5065c0-1.8419-1.1833-3.5387-3.3378-4.789l.0112-.0112ZM373.1877,567.5927h0c-.1005-.0558-.2009-.1228-.2902-.1898-.4688-.3349-.8149-.7591-1.0717-1.3061-.2009-.4465-.3461-.9712-.413-1.5628-.0335-.2679-.0447-.5582-.0447-.8484v-102.5439c0-1.8977.6028-3.2819,1.6856-3.9182h0c1.0828-.6251,2.5898-.4465,4.2308.4912l53.3148,30.7877,53.3148,30.7766c3.695,2.1321,6.709,7.3453,6.709,11.6207v102.5439c0,.3572.0223.6921.0558,1.027.0447.3684.1005.7144.1898,1.0493l-117.681-67.9272ZM371.3681,456.5872v-2.2549l1.7749,1.027v.0223l-.8819.5023c-.3349.1898-.6251.4354-.893.7033ZM494.9878,635.9887c0,.3126-.067.614-.1674.8261-.1228.2567-.3126.413-.5247.4688-.2344.0558-.4688-.0335-.6475-.134h0s-.1005-.0781-.1451-.1005c-.3349-.2567-.6251-.6586-.8372-1.161-.2009-.4577-.3349-.9824-.3907-1.5628-.0335-.2679-.0447-.5582-.0447-.8484v-102.5439c0-2.7796-1.1386-5.9053-2.9136-8.5174l1.4847.8596c.6363.3684,1.3619.6586,2.1098.9154.7033,1.6633,1.0828,3.3154,1.0828,4.8001v102.7113c.0223.5805.134,1.0717.2233,1.3731.0335.1005.067.1898.0893.2679.1563.4019.3237.6698.5358.8261.0447.0335.1005.0558.1451.0781v1.7414ZM500.0112,632.1152v2.2326c-1.1386.1005-2.2996.1005-3.4382,0v-2.3554c.5582.1116,1.1386.1786,1.7191.1786s1.161-.067,1.7191-.1786v.1228ZM500.0112,630.3626c-1.1051.2679-2.3331.2679-3.4382,0v-.7144c.5693.067,1.1386.1116,1.7191.1116s1.1498-.0446,1.7191-.1116v.7144ZM501.0159,627.8397c-1.7526.4242-3.695.4242-5.4476,0v-8.8077c.4465-.1786.9042-.3126,1.3954-.4019.7703-.134,1.5182-.1451,2.2884-.0558.6251.0781,1.2056.2344,1.7638.4577,0,0,0,8.8077,0,8.8077ZM501.0159,617.3576c-.5023-.1563-1.027-.2902-1.574-.3572-.9265-.1116-1.8307-.0893-2.7461.067-.3907.067-.7591.1563-1.1275.2679v-88.3444c0-1.3507-.2679-2.8131-.7703-4.2866.4242.0893.8596.1674,1.2949.2233h.0223v.0223c.6028.3461,1.3842.5247,2.1656.5247s1.5628-.1786,2.1768-.5247h.0223c.4354-.067.8707-.1451,1.2949-.2344-.5023,1.4735-.7703,2.9359-.7703,4.2866v88.3668l.0112-.0112ZM504.3648,633.4771c0,.6028-.067,1.1721-.1898,1.6745-.1451.5582-.3572,1.0493-.6363,1.4289-.2902.3907-.6251.6475-.9489.7144-.2233.0446-.4242,0-.5916-.1451-.2121-.1786-.3461-.48-.3907-.8596,0-.0893-.0112-.1786-.0112-.2902v-1.7191h0c.2009-.134.3795-.3684.547-.6921.134-.2679.2568-.5916.3349-.9377.0447-.2009.0781-.413.1005-.6251,0-.1005.0112-.2121.0223-.3461v-102.6778c0-1.4847.3795-3.1368,1.0828-4.8001.7479-.2567,1.4624-.547,2.1098-.9154l1.4847-.8596c-1.7638,2.601-2.9136,5.7378-2.9136,8.5174v102.5439-.0112ZM625.216,563.7079c0,.614-.067,1.1721-.2009,1.6745-.1451.5693-.3907,1.0605-.7033,1.4512-.2456.3014-.547.5582-.9042.7703l-117.7033,67.9495v-.0112c.1563-.6363.2456-1.3284.2456-2.0652v-102.5439c0-4.2755,3.0029-9.4774,6.709-11.6207l106.6407-61.5754c1.641-.9489,3.1368-1.1163,4.2196-.4912s1.6856,2.0205,1.6856,3.9182v102.5439h.0112ZM625.216,456.5872c-.2679-.2679-.5582-.5135-.893-.7033l-.8819-.5023v-.0223l1.7749-1.027s0,2.2549,0,2.2549ZM627.9175,448.9964c0,1.2391-.9265,2.4782-2.5452,3.4159l-6.8653,3.9629h0l-106.6295,61.5643h0l-6.8653,3.9629c-1.3842.7926-3.081,1.2949-4.8671,1.4958h-.067c-1.1721.1228-2.3777.1228-3.5499,0h-.0558c-1.7861-.2009-3.494-.7033-4.8783-1.4958l-60.1912-34.7506-53.3148-30.7877h0l-6.8653-3.9629c-1.6186-.9377-2.5452-2.1768-2.5452-3.4159v-17.0572c.48.48,1.0605.9377,1.7526,1.3284l120.3713,69.5012c2.0652,1.1945,4.789,1.7861,7.5016,1.7861s5.4364-.5916,7.5016-1.7861l120.3713-69.5012c.6921-.4019,1.2726-.8484,1.7526-1.3284v17.0572l-.0112.0111ZM627.9175,428.4898h0c0,1.2614-.9042,2.467-2.5452,3.4159l-120.3713,69.5012c-3.695,2.1321-9.723,2.1321-13.418,0l-120.3713-69.5012c-1.641-.9489-2.5452-2.1656-2.5452-3.4159s.9042-2.467,2.5452-3.4159l120.3713-69.5012c3.695-2.1321,9.723-2.1321,13.418,0l120.3713,69.5012c1.641.9489,2.5452,2.1545,2.5452,3.4159h0Z"/>
  </g>
  <g id="Layer_3" data-name="Layer 3">
    <path d="M493.57,639c.3599.2265.7934.3053,1.21.22.4693-.1219.8587-.4489,1.06-.89.1334-.2725.2148-.5676.24-.87.9766.1418,1.9636.1987,2.95.17,0,3.87-10,3.18-16.31,3.18h-170.39c-4.2773-.0002-8.4824-1.1024-12.21-3.2l-122.36-69c-2.303-1.3017-3.1148-4.2239-1.8131-6.5269.4284-.7579,1.0552-1.3848,1.8131-1.8131l115.33-65.52c2.9282-1.6673,6.2404-2.5427,9.61-2.54h67.48v72.24c-.0038.3141.0129.6281.05.94.0576.6259.2199,1.2377.48,1.81.2833.6366.728,1.1882,1.29,1.6001.11.08.23.15.35.22l121.22,69.98Z"/>
  </g>
</svg>