<?xml version="1.0" encoding="UTF-8"?>
<svg xmlns="http://www.w3.org/2000/svg" viewBox="0 0 1000 1000">
  <g id="Layer_2" data-name="Layer 2">
    <path d="M314.9557,482.0311h-2.1091c-.0151,0-.0301,0-.0452.0151-.0301,0-.0753.0151-.1055.0301-.0301,0-.0603.0151-.0904.0301s-.0603.0301-.0753.0452c0,0-.0301,0-.0452.0151,0,0-.0151.0301-.0301.0301-.0301.0151-.0452.0452-.0603.0603-.0301.0301-.0452.0603-.0603.0753-.0151.0301-.0301.0603-.0452.0904,0,.0301-.0301.0452-.0301.0753s-.0151.0603-.0301.1055c0,.0301,0,.0753-.0151.1055v.1356c.2561,2.3351.6478,4.7003,1.1751,7.0203,0,0,0,.0301.0151.0452,0,.0301.0301.0753.0452.1055.0301.0452.0452.1055.0753.1356.0151.0301.0452.0603.0753.0753.0452.0452.0753.0753.1356.1055.0301.0151.0603.0301.0904.0452.0603.0301.1205.0452.1808.0452.0301,0,.0452.0151.0603.0151,1.4914.1055,2.9829.1958,4.4743.2862h.1055c6.5533.3917,13.0613.6026,19.5091.6026,49.5034,0,95.6323-11.374,129.7694-30.2655.1205,0,.241-.0301.3465-.0904.6327-.3766,1.2654-.7683,1.8982-1.16,28.7439-16.4359,48.5844-38.3252,54.1434-63.2577,2.0639-9.2649,2.0639-18.6655,0-27.9455,0,0,0-.0301-.0151-.0301,0-.0452-.0301-.0904-.0602-.1205,0-.0301-.0151-.0603-.0452-.0904,0-.0151-.0301-.0301-.0301-.0452-.0301-.0301-.0602-.0603-.0753-.0753-.0452-.0452-.0904-.0753-.1356-.1055-.0301-.0151-.0753-.0301-.1055-.0452-.0301,0-.0602-.0301-.1055-.0452h-.0904c-3.9922-.3013-8.0447-.5273-12.0369-.6629h-.0301c-.0301,0-.0452,0-.0753.0151-.0452,0-.0753,0-.1205.0151-.2862.0603-.467.2712-.5122.5423,0,.0301-.0151.0603-.0151.0904v2.3501c-1.0847,61.7964-88.7175,111.6312-195.7991,111.6162l-.1055.0151ZM314.7146,489.0062c-.2561-1.1751-.467-2.3501-.6478-3.5403.9491,1.2353,1.8982,2.4707,2.8623,3.6909-.7382-.0452-1.4764-.0904-2.2145-.1506ZM468.0908,459.3132c-25.2187,14.146-57.2167,24.119-92.3632,28.3221,76.2587-13.694,131.9388-51.9289,141.7762-98.2385-.5725,25.9117-18.1985,51.0099-49.413,69.9164ZM522.7916,396.2513c-3.6156,16.1948-13.3626,31.079-27.7044,43.9896,17.3699-17.5959,25.7912-37.9637,23.6068-58.5122,0-1.401-.0452-2.8171-.1356-4.2182,1.5366-2.2597,3.0582-4.5195,4.5797-6.7792,1.6421,8.4816,1.5517,17.0535-.3465,25.52ZM522.1589,369.4659c-1.4462,2.1543-2.9075,4.3236-4.3688,6.4779-1.5818-2.3351-3.1787-4.6701-4.8057-6.9901,3.0582.1205,6.1164.3013,9.1595.5122h.0151ZM512.2612,370.5204c1.612,2.32,3.2239,4.6551,4.7906,7.0052.0753,1.401.1356,2.8171.1356,4.2031-5.559,53.7969-73.7278,98.1331-165.8048,107.8499h-.0452c-10.6359.4369-21.4525.3465-32.4047-.3013-1.5065-1.8982-2.9979-3.8265-4.4743-5.7548h.467c107.8349,0,196.1305-50.4525,197.3056-113.0172l.0301.0151ZM571.6322,376.5916s.0151.0753.0301.1055c0,.0151,0,.0452.0151.0603,11.133,21.2566,11.133,43.7335,0,64.9902-31.2296,59.6421-140.812,93.4629-244.2781,75.4151h-.2109c-.0603,0-.1205.0151-.1657.0301-.0301,0-.0603.0301-.0753.0301-.0603.0301-.1205.0753-.1657.1205,0,0-.0301,0-.0301.0301,0,0-.0151.0301-.0301.0452-.0301.0301-.0603.0603-.0753.0904,0,.0151-.0151.0452-.0301.0603-.0151.0452-.0301.0753-.0452.1205,0,.0301-.0301.0452-.0301.0753h0v.1958c0,.0452,0,.1055.0301.1506,0,.0452.0301.0753.0603.1205.0151.0301.0301.0603.0452.0904h0c.7231.9792,1.4613,1.9584,2.2296,2.9226.0151.0151.0452.0301.0603.0452.0452.0452.0904.0904.1507.1205.0452.0301.0753.0452.1205.0603.0301,0,.0452.0301.0603.0301.3164.0904.6327.1506.9491.241.0753.0301.1507.0452.226.0603,24.827,6.4327,50.8291,9.506,76.4546,9.506,4.5647,0,9.1143-.1055,13.6488-.2862.0452,0,.0904.0301.1356.0301h.0753c.1657-.0151.3465-.0452.5122-.0603,43.2213-1.9283,84.4691-12.4738,116.0603-29.9792.0301,0,.0753,0,.1055-.0301.1356-.0904.2712-.1657.4068-.2561,16.3455-9.1294,30.0696-20.1268,40.0878-32.7663,22.8234-28.8192,22.8234-61.8868.0151-90.706h0s0-.0151-.0151-.0301c-.0151-.0301-.0452-.0301-.0602-.0603-.0301-.0301-.0602-.0603-.1055-.0904,0,0-.0151-.0151-.0301-.0301h0c-.0301-.0151-.0753-.0301-.1055-.0452-.0301,0-.0452-.0301-.0753-.0301-1.6722-.4369-3.3444-.8587-5.0317-1.2805h-.2712c-.0301,0-.0602,0-.0904.0151-.0452,0-.0753.0151-.1055.0301-.0151,0-.0452,0-.0602.0151l-.0151.0151c-.0301,0-.0452.0301-.0753.0452-.0151,0-.0301.0151-.0602.0301-.0151,0-.0301.0301-.0452.0452-.0151.0151-.0452.0452-.0602.0603s-.0301.0452-.0452.0753-.0452.0753-.0602.1055c0,.0301-.0301.0603-.0301.0904v.2862c0,.0301,0,.0603.0151.0753l-.0151.0151ZM420.8622,529.5309c-29.9039,1.2805-60.7419-1.5818-89.9227-9.1294-.467-.452-.934-.9039-1.401-1.3558,18.1533,3.0281,36.4572,4.4894,54.505,4.4894,84.6951,0,163.2287-31.8322,189.0048-81.0645,10.2442-19.5694,11.2234-40.133,3.013-59.8982.2109.3917.4218.7683.6327,1.16,3.8566,7.4421,6.6135,15.0951,8.1953,22.7481,1.0395,5.0468,1.5667,10.1688,1.5818,15.2457-5.559,53.7517-73.6224,98.0577-165.5788,107.8198l-.0301-.0151ZM536.6966,499.6872s-.0301.0301-.0452.0452c-25.3392,14.0707-57.0057,23.6068-90.9169,27.7496,75.8821-13.7995,131.2157-51.9439,141.023-98.118-.5725,26.0925-18.4244,51.3715-50.0608,70.3232h0ZM577.4473,379.0321c21.6785,28.0359,21.4675,60.0489-.6629,87.9943-3.6608,4.6249-7.8338,9.0088-12.4286,13.1818,17.3548-17.5959,25.7611-37.9486,23.5917-58.4972-.0151-5.1673-.5574-10.4099-1.612-15.547-1.5969-7.7886-4.399-15.5772-8.3309-23.1398-.452-.8587-.919-1.7174-1.401-2.5912,0,0,.8436-1.401.8436-1.401ZM576.2119,378.1734l-.5725.9491c-.3917-.467-.7834-.934-1.1901-1.401.5875.1507,1.1751.3013,1.7626.4519ZM656.2219,417.6285v.0904c0,.0301.0151.0452.0301.0603.0151.0452.0301.0753.0602.1205,0,.0151.0151.0452.0301.0753,21.2416,28.3522,21.2416,60.8624,0,89.2146-42.8748,57.2167-158.4682,83.6104-257.7009,58.8437h-.2561c-.0452,0-.0904.0151-.1356.0301-.0452,0-.0904.0301-.1356.0452-.0452.0301-.0753.0602-.1205.0904-.0301.0301-.0753.0602-.1055.0904-.0301.0452-.0603.0753-.0753.1205-.0151.0301-.0452.0602-.0603.0904v.0452s0,.0151-.0151.0301v.2712c0,.0452.0151.0904.0301.1205,0,.0452.0301.1055.0603.1507.0151.0452.0452.0753.0753.1055.0301.0452.0603.0753.1055.1055.0301.0301.0753.0452.1205.0753.0301.0151.0603.0452.0904.0602,31.2899,11.6151,66.3611,17.159,101.0707,17.159,4.5195,0,9.0239-.1055,13.5133-.2862.0904.0301.1808.0452.2712.0452h.0753c.3013-.0301.6177-.0753.919-.1055,56.5237-2.5761,110.4411-19.7953,143.4032-49.413,19.5844-17.5959,29.9491-37.9787,29.9491-58.9491s-10.3496-41.3533-29.9491-58.9491c-.0151-.0151-.0452-.0301-.0602-.0452-.0301-.0151-.0452-.0452-.0753-.0603-.0301,0-.0452-.0151-.0753-.0301-.0452-.0151-.0753-.0301-.1205-.0452-.0301,0-.0602-.0151-.0753-.0151h-.2862c-.0301,0-.0452.0151-.0753.0301-.0452,0-.0753.0301-.1055.0603-.0301,0-.0452.0151-.0753.0301h0c-.0151,0-.0301.0301-.0452.0452,0,0-.0301.0151-.0452.0301-.0151.0151-.0301.0452-.0452.0603-.0151.0301-.0452.0452-.0602.0753,0,.0151-.0151.0452-.0301.0753-.0151.0452-.0301.0753-.0452.1205,0,.0301-.0151.0452-.0151.0753v.2109l-.0151.0452ZM513.5116,582.8156c-34.2727,1.5065-69.5097-2.4255-101.5679-12.293,21.1512,4.2483,42.8296,6.3122,64.252,6.3122,76.319,0,149.158-25.746,181.3669-68.7413,17.0686-22.7933,20.6842-48.2229,10.8468-72.131,6.7943,12.7299,10.3496,25.972,10.3647,39.0785-5.559,53.6764-73.4717,97.9523-165.2775,107.7746h.0151ZM629.0447,553.0021s-.0301.0301-.0452.0452c-25.52,14.1912-57.1413,23.6068-90.7211,27.7195,75.7616-13.8447,131.0048-51.959,140.8271-98.0728-.5725,26.0925-18.4244,51.3715-50.0608,70.3232v-.0151ZM685.8998,475.8997c0,20.3829-10.0483,40.2385-29.0452,57.4577,17.2494-17.5657,25.6104-37.8582,23.426-58.3616-.0452-16.9631-5.8603-34.1372-16.9029-50.1512,14.7637,15.6675,22.507,33.1579,22.507,51.0702l.0151-.0151ZM643.7933,397.7578l-4.7906-2.772c-.1055-.0603-.226-.0904-.3465-.0904-35.7039-20.5335-84.8609-33.2483-139.0495-33.2483s-103.3455,12.7148-139.0494,33.2483c-.1205,0-.241.0301-.3465.0904l-4.7907,2.772c-38.6566,22.3263-59.9434,52.0343-59.9434,83.6858v38.747c0,65.1559,91.5798,118.1694,204.13,118.1694s204.13-53.0135,204.13-118.1694v-38.747c0-31.6515-21.2868-61.3595-59.9434-83.6858h0ZM499.6067,363.1536c107.9855,0,195.8443,50.5881,195.8443,112.746s-87.8588,112.746-195.8443,112.746-195.8443-50.573-195.8443-112.746,87.8588-112.746,195.8443-112.746ZM702.2302,520.1906c0,64.3273-90.9019,116.6629-202.6235,116.6629s-202.6235-52.3356-202.6235-116.6629v-24.2696c5.4686,26.1527,25.746,50.332,58.4369,69.2083,39.7564,22.959,91.9715,34.4234,144.1866,34.4234s104.4302-11.4795,144.1866-34.4234c32.706-18.8764,52.9684-43.0556,58.4369-69.2084v24.2696ZM643.04,563.8187c-79.091,45.6618-207.7757,45.6618-286.8667,0-38.1746-22.04-59.1902-51.2961-59.1902-82.3751,0-22.8686,11.3891-44.7429,32.6005-63.4837-17.3548,16.9933-27.3278,36.8037-27.3278,57.9398,0,63.0016,88.5367,114.2525,197.3508,114.2525s197.3508-51.2509,197.3508-114.2525c0-21.1361-9.973-40.9315-27.3128-57.9398,21.1964,18.7408,32.5855,40.6151,32.5855,63.4686,0,31.079-21.0156,60.3351-59.1902,82.3751v.0151ZM532.5839,369.722v.1055c1.6873,8.4816,1.6873,17.0836,0,25.5501-12.2779,61.8115-109.5824,106.3284-216.89,99.2328h-.0753c-.0753,0-.1507,0-.226.0301h0c-.0301,0-.0452.0301-.0753.0452-.0603.0301-.1055.0452-.1657.0904h0s-.0301.0301-.0301.0452c-.0452.0452-.0904.0904-.1205.1506,0,0-.0151.0151-.0151.0301,0,.0301-.0151.0603-.0301.0904v.0301c-.0151.0603-.0452.1055-.0452.1657h0v.1055c0,.0603,0,.1055.0151.1657h0v.0151h0c.6026,1.8831,1.2956,3.7964,2.0639,5.6494,0,.0151.0301.0301.0301.0452.0603.1055.1205.1958.226.2712,0,0,.0151.0301.0301.0301.0904.0603.1808.0904.3013.1055,1.0244.1356,2.0639.2712,3.0883.3917h.0753c13.4982,1.7174,27.0114,2.561,40.3289,2.561,4.5044,0,8.9787-.1205,13.4379-.3013h.1356c.0603,0,.1055,0,.1657-.0151,43.8842-1.8831,84.9211-12.6997,116.1507-29.9491.1205,0,.241-.0301.3616-.1055.5423-.3314,1.0696-.6629,1.5969-.9792,24.2546-13.7995,42.3476-31.546,50.8291-52.0494,6.8546-16.5865,6.8546-34.1221,0-50.7237,0-.0301-.0301-.0452-.0452-.0603-.0151-.0301-.0301-.0603-.0452-.0904,0-.0151-.0301-.0301-.0452-.0452-.0301-.0301-.0602-.0603-.1055-.0904-.0151-.0151-.0301-.0452-.0602-.0452h0c-.0151,0-.0452-.0151-.0602-.0301-.0452-.0151-.0904-.0301-.1356-.0452-.0301,0-.0602-.0301-.0904-.0301h0c-3.1938-.4369-6.4779-.8436-9.732-1.1901h-.2712c-.0602.0151-.1055.0452-.1657.0753-.0301,0-.0602.0301-.0753.0452h-.0151c-.0452.0301-.0602.0753-.1055.1055-.0301.0301-.0602.0603-.0753.0904,0,0,0,.0151-.0151.0301-.0151.0301-.0151.0603-.0301.0904v.0151c-.0151.0452-.0301.0904-.0452.1356v.0452h0v.1205l-.0452.0904ZM318.2097,500.2898c-.1808-.4218-.3314-.8587-.4971-1.2956.3917.452.7683.919,1.16,1.3709-.226-.0301-.4369-.0603-.6629-.0904v.0151ZM491.2005,472.6306c-25.3242,14.1912-57.3221,24.0888-92.1523,28.292,76.1382-13.7242,131.6977-51.9439,141.5352-98.2084-.5725,25.8966-18.1834,50.9948-49.3829,69.9013v.0151ZM542.3309,420.7168c-4.9564,11.9917-13.2722,23.0343-24.1943,32.8717,17.3849-17.6109,25.8063-37.9787,23.6369-58.5424,0-5.1673-.5574-10.4099-1.612-15.547-.1356-.693-.3013-1.386-.452-2.0639,1.0545-1.6421,2.1091-3.2842,3.1636-4.9112,6.1465,15.8031,5.9808,32.4348-.5273,48.2078l-.0151-.0151ZM541.7584,371.4544c-.9642,1.5065-1.9283,2.9979-2.8925,4.5044-1.2805-1.7927-2.5912-3.5704-3.9018-5.333,2.2748.2561,4.5496.5273,6.7943.8286ZM534.6026,372.6747c1.2052,1.6421,2.4104,3.2842,3.6005,4.9413.1657.7382.3314,1.4613.4821,2.1995,1.0395,5.0468,1.5667,10.1688,1.5818,15.2457-5.559,53.7819-73.6826,98.1029-165.7295,107.8349-4.4442.1808-8.9184.3013-13.4078.3013-13.227,0-26.6348-.8286-40.0577-2.5309-1.2655-1.4613-2.5158-2.9527-3.7512-4.4291,6.9901.4218,13.92.6478,20.7896.6478,98.826,0,184.3949-43.0405,195.9347-101.1912,1.5216-7.6229,1.7023-15.3512.5423-23.0042l.0151-.0151ZM311.8222,477.2706s.0151.1055.0301.1506c0,.0452,0,.0904.0301.1205.0151.0452.0603.0904.0904.1356.0301.0301.0452.0753.0753.1055.0452.0452.0904.0603.1356.0904.0301.0151.0603.0452.0904.0603.0603.0301.1205.0301.1958.0452.0301,0,.0603.0151.0904.0151h2.3803c1.3558,0,2.7117,0,4.0525-.0301h.0151c3.1335-.0452,6.2369-.1205,9.3252-.2561h.0603c44.8935-1.853,85.5538-12.9257,116.3014-29.9642h0c.1356,0,.2712-.0301.3917-.1055.8436-.4971,1.6722-1.0093,2.4857-1.5216,33.4743-19.3735,54.4447-46.0083,55.0925-75.4904.0151-.919.0151-1.8379,0-2.7418v-.0452c0-.0452-.0151-.0904-.0301-.1356,0-.0301,0-.0603-.0301-.0904,0,0,0-.0151-.0151-.0301h0c-.0151-.0452-.0452-.0753-.0753-.1205s-.0602-.0753-.1055-.1205c-.0151,0-.0301-.0301-.0452-.0452-.0151,0-.0452-.0151-.0602-.0301-.0452-.0301-.0904-.0452-.1507-.0603-.0452,0-.0904-.0301-.1356-.0301-.0301,0-.0452-.0151-.0753-.0151h-.0301c-4.866-.0301-9.8073.0452-14.6733.226h-.0452c-.0603,0-.1055.0151-.1506.0301s-.0904.0301-.1356.0603c-.0151,0-.0301,0-.0452.0151-.0301.0151-.0452.0452-.0603.0603-.0452.0301-.0753.0603-.1055.1055-.0301.0452-.0603.0753-.0753.1205-.0151.0452-.0452.0904-.0603.1356,0,.0151-.0151.0452-.0301.0603h0c-4.7605,25.4296-24.6764,49.413-56.0868,67.5512-31.5008,18.1834-73.2458,29.7231-117.5518,32.4951h-.1356c-.0452,0-.0753.0301-.1055.0452-.0301,0-.0753.0301-.1055.0452-.0151,0-.0301,0-.0452.0151h0c-.0301.0151-.0452.0452-.0753.0753-.0301.0301-.0603.0603-.0753.0904-.0151.0151-.0301.0301-.0452.0603,0,.0301-.0151.0452-.0301.0753-.0151.0452-.0301.0753-.0452.1205,0,.0301-.0151.0603-.0301.0904v.0151c-.3164,2.8322-.4519,5.7096-.3917,8.5418h0v.0151l.0151.0602ZM445.162,445.8753c-25.0681,14.1309-57.0208,24.2094-92.5891,28.4275,74.692-13.4078,130.1009-50.4826,141.3242-96.1445h.4369c-1.4312,25.3091-18.8462,49.3076-49.172,67.7169h0ZM501.2036,370.6108c-.4369,20.3527-10.7714,39.3346-28.307,55.4541,14.2062-14.6883,22.1756-31.2447,22.974-48.4037,1.7927-2.4556,3.5553-4.9262,5.333-7.3969v.3616-.0151ZM500.4805,368.6825c-1.8982,2.6665-3.8114,5.3179-5.7397,7.9694h-1.0093c-1.6572-2.5761-3.3595-5.1823-5.0618-7.7886,3.932-.1356,7.894-.1958,11.8109-.1808ZM431.2269,436.8664c31.0489-17.9273,51.0099-41.5792,56.4333-66.7829,1.6421,2.4857,3.2691,4.9865,4.8509,7.4722-12.0821,49.9554-78.0063,89.5912-164.1928,98.6905-2.9527.1205-5.9205.2109-8.9034.241-1.7023-2.3351-3.3896-4.6852-5.0468-7.0353,44.0348-2.9226,85.4936-14.4774,116.8738-32.5855h-.0151ZM313.5396,470.8981c1.3257,1.868,2.6665,3.7361,4.0223,5.5891-.8738,0-1.7325.0151-2.6062.0151h-1.627c-.0151-1.868.0603-3.7361.2109-5.6042ZM313.1479,463.4259s.0301.0904.0603.1356c.0151.0452.0452.0753.0753.1055.0301.0452.0603.0753.1055.1055.0301.0301.0753.0452.1055.0603.0452.0301.0904.0452.1507.0603.0151,0,.0301.0151.0603.0301.0452,0,.1055,0,.1507.0151h.0452c86.4878-5.9205,154.0842-45.0141,164.4037-95.0899h0v-.1507c0-.0301.0151-.0603,0-.1055v-.0603c0-.0452-.0301-.0753-.0301-.1205s-.0151-.0753-.0452-.1205l-.0151-.0301c-.0151-.0301-.0603-.0603-.0753-.0904-.0301-.0301-.0452-.0603-.0753-.0753,0,0,0-.0151-.0301-.0301h-.0151c-.0452-.0301-.0904-.0452-.1356-.0603h0c-.0151,0-.0301-.0151-.0452-.0301-.0301,0-.0452-.0151-.0753-.0301h-.1959c-6.1164.4218-12.2629,1.0244-18.2888,1.7777h0c-.0301,0-.0603.0151-.0753.0301-.0452,0-.1055.0301-.1506.0452-.0151,0-.0452,0-.0603.0301h0c-.0151,0-.0301.0301-.0452.0452-.0452.0301-.0753.0603-.1055.0904-.0151.0151-.0301.0301-.0452.0603s-.0301.0603-.0452.0753c0,.0151-.0301.0301-.0452.0603-17.626,40.2385-71.9652,71.5735-141.8214,81.7725h0c-.0301,0-.0603.0301-.1055.0301s-.0904.0301-.1205.0452c-.0151,0-.0452,0-.0603.0301h0c-.0301.0151-.0452.0452-.0603.0603-.0301.0301-.0603.0603-.0904.0904,0,.0151-.0301.0301-.0452.0452-.0151.0301-.0301.0603-.0452.0904,0,.0301-.0301.0452-.0452.0753-1.3408,3.4951-2.3803,7.0805-3.1184,10.6509v.1055c0,.0301-.0151.0603,0,.1055v.0452c0,.0452.0151.0904.0301.1356l-.0753-.0151ZM421.0279,433.281c-24.827,13.7392-56.2826,23.5314-91.5647,27.6894,65.6229-11.841,117.2806-42.5133,135.8557-80.959,1.0696-.1205,2.1242-.226,3.1938-.3314-6.267,20.1418-22.5673,38.5813-47.2437,53.36-.1055.0603-.1808.1506-.241.241ZM448.0394,414.495c10.9522-10.8166,18.4998-22.7481,22.2208-35.3273,1.8982-2.3501,3.8265-4.8057,5.7699-7.2914-4.0525,15.5922-13.7844,30.0395-27.9756,42.6187h-.0151ZM475.9246,369.5562c-2.2748,2.9226-4.5346,5.7849-6.734,8.5418-1.3257.1356-2.6514.2712-3.9771.4218-1.5216-2.5008-3.0582-4.9865-4.6099-7.4571,5.0618-.6177,10.199-1.1299,15.321-1.5065ZM459.4285,372.0269c1.5216,2.4405,3.0431,4.881,4.5346,7.3366-18.9366,39.199-72.8239,70.2629-140.8874,81.185-1.6421-2.4255-3.254-4.866-4.866-7.3216,69.0577-10.3346,122.9149-41.3382,141.2188-81.2001ZM317.1401,454.3267c1.5668,2.3953,3.1486,4.7756,4.7455,7.1408-.0301.1055-.0753.2109-.1055.3164-2.3049.2109-4.64.3917-6.96.5574.6026-2.6816,1.3709-5.3782,2.32-8.0296v.0151ZM589.8306,381.7287s.0151.0603.0301.1055c0,.0301.0301.0603.0452.0904,0,0,0,.0301.0151.0452,17.6109,26.213,17.6109,55.0624,0,81.2754-30.0395,44.7128-104.2795,72.131-182.8432,72.131-23.5616,0-47.5148-2.4707-70.7751-7.6831h-.2561c-.0301,0-.0603,0-.0904.0151-.0301,0-.0753.0151-.1055.0301-.0301,0-.0452.0301-.0753.0452-.0301.0151-.0603.0452-.0904.0603-.0151.0151-.0452.0301-.0603.0452,0,0,0,.0151-.0151.0301,0,0-.0151,0-.0301.0151,0,0,0,.0301-.0151.0301-.0301.0301-.0452.0603-.0603.0904s-.0452.0603-.0603.1055c0,.0151,0,.0452-.0151.0603v.2862c0,.0301,0,.0753.0301.1055,0,.0301.0151.0603.0301.1055,0,.0301.0151.0452.0301.0603.0151.0301.0452.0603.0753.0904.0151.0151.0151.0452.0452.0603.3917.4067.7834.8135,1.1901,1.2052h.0151c.0301.0301.0753.0603.1205.0904s.0904.0603.1356.0753h.0151c.1055.0301.2109.0603.3164.1055h.0452c29.226,9.6265,61.0883,14.1912,92.559,14.1912,4.5346,0,9.0691-.1055,13.5735-.3013.0753.0301.1506.0452.241.0452h.0753c.2862-.0301.5574-.0603.8286-.0904,42.8748-1.9434,84.0925-12.3382,115.8042-29.9642h.0301c.0602-.0301.1055-.0603.1657-.1055,12.4436-6.9299,23.426-14.9746,32.4499-24.0587,33.2182-33.4592,33.2182-75.0234,0-108.4676h-.0151c-.0301-.0301-.0452-.0452-.0753-.0603-.0151,0-.0301-.0301-.0452-.0452-.0151,0-.0301,0-.0452-.0151-.0301,0-.0452-.0301-.0753-.0301h-.0151c-.693-.226-1.386-.4519-2.094-.6779h-.0452c-.0301,0-.0602,0-.0904-.0151h-.1959c-.0301,0-.0602,0-.0904.0151-.0301,0-.0602.0151-.0904.0301-.0301,0-.0602.0301-.0904.0452,0,0-.0301,0-.0452.0151-.0151,0-.0301.0301-.0452.0452-.0151,0-.0301.0151-.0452.0301,0,0,0,.0301-.0301.0301-.0151.0301-.0452.0452-.0602.0753s-.0452.0603-.0602.0904-.0301.0603-.0452.0904c0,0,0,.0151-.0151.0301v.0452c0,.0301,0,.0603-.0151.1055v.1958c0,.0301,0,.0603.0151.0904l-.0603-.0151ZM444.1225,542.8483c-34.0468,1.4764-69.118-2.3953-101.2515-12.2629,21.1512,4.2332,42.7844,6.267,64.1164,6.267,79.0608,0,153.8733-27.6894,184.184-72.7787,14.6582-21.814,17.3548-45.4509,8.0899-67.9278,1.401,2.6213,2.6514,5.2577,3.7662,7.9091,3.2691,7.8036,5.333,15.7881,6.1314,23.7273.241,2.3953.3616,4.8509.3616,7.2764-5.5439,53.7065-73.532,98.0125-165.4131,107.8047l.0151-.0151ZM559.7911,513.0197s-.0301.0301-.0452.0452c-25.4296,14.1309-57.0359,23.5917-90.706,27.7195,75.7616-13.8447,131.0048-51.959,140.812-98.0728-.5725,26.0925-18.4244,51.3715-50.0608,70.3232v-.0151ZM592.0904,489.0966c-1.4764,1.4914-3.013,2.9377-4.5797,4.3688,17.3096-17.5808,25.6857-37.9034,23.5164-58.4219,0-2.4707-.1356-4.9714-.3766-7.412-.7984-8.0899-2.8925-16.2099-6.2369-24.1642-2.6213-6.252-6.041-12.4436-10.1688-18.4546,30.3709,32.4047,29.6629,72.0406-2.1543,104.0988v-.0151ZM318.9178,446.8394s.0452.1055.0753.1506c.0151.0301.0452.0603.0753.0904.0452.0452.0904.0753.1356.1055.0151,0,.0301.0301.0603.0452h.0301c.0904.0452.1958.0753.3013.0753h.1205c63.3029-10.3195,111.7819-38.3553,129.7092-74.9782v-.0452c0-.0301.0151-.0452.0301-.0753,0-.0301,0-.0603.0151-.1055v-.2109c0-.0151-.0151-.0452-.0151-.0603,0-.0301-.0151-.0753-.0301-.1055,0-.0301-.0151-.0452-.0301-.0753-.0151-.0301-.0301-.0603-.0603-.0904-.0151-.0301-.0452-.0603-.0753-.0753,0,0-.0151-.0301-.0301-.0452,0,0-.0151,0-.0301-.0151-.0301-.0151-.0603-.0452-.0904-.0603-.0151,0-.0301-.0301-.0452-.0452h-.0452c-.0301,0-.0452-.0151-.0753-.0301h-.3164c-8.4665,1.386-16.8426,3.1184-24.8873,5.1823-.0301,0-.0603.0301-.0904.0452-.0301,0-.0603.0151-.0904.0301h-.0151s-.0151.0151-.0301.0301c-.0452.0301-.0753.0603-.1055.0904-.0151.0151-.0452.0301-.0603.0603-19.4187,24.119-53.1642,43.5829-94.9845,54.8213-.0301,0-.0603.0301-.0904.0452-.0301,0-.0753.0151-.1055.0301h0s-.0151.0151-.0301.0301c-.0452.0301-.0753.0603-.1055.0904-.0151.0151-.0452.0301-.0753.0603v.0151h0c-3.5704,4.6701-6.6135,9.521-9.0088,14.4322,0,.0301,0,.0452-.0151.0753-.0151.0452-.0301.1055-.0452.1506v.226c0,.0301.0151.0452.0301.0753,0,.0301.0301.0753.0452.1055l-.0452-.0452ZM401.5038,417.6737c-19.1927,11.2384-42.6037,20.0816-68.6811,25.6104.4519-.6629.9039-1.3257,1.386-1.9735,41.3834-11.5247,75.159-31.0187,95.1653-54.9419,2.3803-.5875,4.8208-1.1299,7.2462-1.6571-8.0447,12.2327-19.8255,23.3055-35.1164,32.9772v-.0151ZM427.5963,398.4809c4.3538-4.6099,8.12-9.4307,11.2686-14.4473,1.9886-2.1242,4.0223-4.3538,6.0561-6.6286-4.4442,7.412-10.2743,14.4774-17.3247,21.0608v.0151ZM446.7739,373.0965c-.2862.3164-.5725.6478-.8587.9642-2.6966,3.0431-5.4083,6.0109-8.0447,8.8281-2.8623.6026-5.7247,1.2504-8.5268,1.9283-1.401-2.3953-2.8171-4.7907-4.2483-7.186,7.0353-1.7626,14.3117-3.2842,21.6785-4.5496v.0151ZM423.815,378.4446c1.4161,2.3803,2.8322,4.7756,4.2182,7.1558-19.7803,23.5465-53.1039,42.7543-93.945,54.1735-1.4613-2.3652-2.9226-4.7304-4.3839-7.1107,41.2177-11.2234,74.5413-30.4312,94.1107-54.2338v.0151ZM328.4991,433.5672c1.4462,2.3652,2.8925,4.7153,4.3538,7.0655-.7532,1.0244-1.4764,2.0639-2.1694,3.1184-3.1938.6478-6.4327,1.2504-9.7018,1.7927,2.094-4.0675,4.6099-8.0748,7.5174-11.9766ZM552.7106,372.5542v.1958c5.6343,15.3964,5.6343,30.9886,0,46.385-19.4187,53.0738-100.9502,89.5762-191.5508,89.5762-13.3927,0-26.9964-.7984-40.6151-2.4556h-.2109c-.0452,0-.0753,0-.1205.0151-.0151,0-.0452.0151-.0603.0301h-.0452c-.0151,0-.0301.0301-.0452.0301-.0301.0151-.0753.0452-.1055.0753h-.0151s-.0151.0301-.0301.0452c-.0301.0301-.0452.0603-.0753.0904-.0151.0301-.0452.0603-.0603.0904,0,.0301-.0151.0452-.0301.0753,0,.0301-.0151.0753-.0301.1055,0,.0301-.0151.0452-.0151.0603v.1055c0,.0452,0,.0753.0151.1205,0,.0301,0,.0603.0151.0904,0,.0301.0151.0452.0301.0753v.0452c.7532,1.4613,1.5818,2.9226,2.4405,4.3387h0c.0603.1055.1507.1808.2561.241.0301.0151.0603.0301.0904.0452.0452.0151.0904.0452.1507.0603.6026.1205,1.2052.226,1.7927.3314.0904.0452.1958.0603.3013.0603h.0151c19.5694,3.7662,39.5003,5.5891,59.1148,5.5891,4.5496,0,9.0842-.1055,13.5886-.3013h.1507c.0603,0,.1205,0,.1808-.0151,43.613-1.8982,84.891-12.5943,116.3466-30.0094.0452-.0151.1055,0,.1507-.0452.3465-.2109.6779-.4218,1.0244-.6327,20.2021-11.3891,36.2764-25.5652,46.1439-41.986,13.8597-23.0644,13.8597-48.479,0-71.5585h0s0-.0151-.0151-.0301c-.0151-.0301-.0452-.0452-.0753-.0753,0,0-.0151-.0151-.0301-.0301-.0301-.0301-.0452-.0603-.0753-.0753,0,0-.0151,0-.0301-.0151h0c-.0301-.0151-.0753-.0301-.1055-.0452-.0452-.0151-.0753-.0452-.1205-.0452h-.0452c-2.4707-.4971-4.9413-.9491-7.4421-1.386h-.3917c-.0301,0-.0602.0452-.0904.0603-.0301.0151-.0602.0301-.0904.0452h-.0301s0,.0151-.0151.0151c-.0301.0301-.0602.0603-.0904.1055-.0301.0301-.0452.0452-.0602.0904,0,.0151-.0151.0301-.0301.0452-.0151.0452-.0301.0753-.0452.1205,0,.0301-.0301.0452-.0301.0753v.1958l.0151.0753ZM397.602,516.2285c-4.4894.1958-9.0088.3013-13.5434.3013-19.5242,0-39.3798-1.8078-58.8738-5.559-.934-.9943-1.8681-2.0036-2.8021-3.013,12.986,1.5065,25.9268,2.2447,38.7018,2.2447,91.2333,0,173.4277-36.9091,193.0573-90.5554,5.2577-14.372,5.6945-28.9247,1.3558-43.3117.6478.8135,1.2956,1.627,1.9283,2.4556,2.9377,7.3668,4.8208,14.8842,5.559,22.3262.241,2.3953.3616,4.8358.3616,7.2764-5.559,53.7819-73.6977,98.118-165.7445,107.8349ZM513.6924,486.3096c-25.2338,14.0255-56.9154,23.667-91.0676,27.84,75.8821-13.7995,131.2307-51.9439,141.038-98.118-.5725,26.0624-18.3943,51.3263-49.9704,70.2629v.0151ZM560.2582,444.2633c-4.9112,8.1803-11.3891,15.7881-19.1476,22.7782,17.4603-17.626,25.9268-38.039,23.7423-58.6629,0-2.4857-.1356-4.9865-.3766-7.412-.7382-7.5023-2.6213-15.0649-5.559-22.4769l1.9434-3.1184c12.9107,22.2811,12.7299,46.7013-.6177,68.9071l.0151-.0151ZM559.6857,374.4072l-1.6572,2.6816c-.9039-1.1751-1.8229-2.3351-2.7418-3.4951,1.4764.2712,2.9527.5423,4.414.8286l-.015-.0151ZM633.1424,404.296v.0904c0,.0301.0151.0452.0301.0603.0151.0452.0301.0753.0602.1205,0,.0151.0151.0452.0301.0753,21.2416,28.3522,21.2416,60.8624,0,89.2146-42.8748,57.2167-158.4682,83.6105-257.7009,58.8437h-.2561c-.0452,0-.1055.0151-.1506.0301-.0452,0-.0753.0301-.1205.0452-.0452.0301-.0904.0603-.1356.0904-.0301.0301-.0603.0452-.0904.0904l-.0904.1356c-.0151.0301-.0452.0603-.0603.0904v.0452s0,.0301-.0151.0301v.2561c0,.0452.0151.0904.0301.1356,0,.0452.0301.0904.0452.1356s.0603.0753.0904.1205.0603.0753.0904.1055c.0452.0301.0904.0603.1356.0753.0301.0151.0603.0452.0904.0603,31.2899,11.6151,66.3611,17.159,101.0707,17.159,4.5195,0,9.0239-.1055,13.5133-.2862.0904.0301.1808.0452.2712.0452h.0753c.3164-.0301.6327-.0753.9491-.1055,56.5086-2.5761,110.426-19.8104,143.3731-49.413,19.5844-17.5959,29.9491-37.9787,29.9491-58.9491s-10.3496-41.3533-29.9491-58.9491c-.0151-.0151-.0452-.0301-.0753-.0452s-.0452-.0452-.0753-.0603c-.0301,0-.0452-.0151-.0753-.0301-.0452-.0151-.0753-.0301-.1205-.0452-.0301,0-.0452-.0151-.0753-.0151h-.2862c-.0301,0-.0452.0151-.0602.0301-.0452.0151-.0753.0301-.1205.0603-.0301,0-.0452.0151-.0753.0301h0c-.0151,0-.0301.0301-.0301.0452,0,0-.0301.0151-.0452.0301s-.0301.0452-.0452.0603c-.0151.0301-.0452.0452-.0602.0753,0,.0151-.0151.0452-.0301.0753-.0151.0452-.0301.0753-.0452.1205,0,.0301-.0151.0452-.0151.0753v.2411ZM490.4623,569.4831c-34.2878,1.5065-69.5247-2.4255-101.598-12.293,21.1512,4.2483,42.8296,6.3122,64.252,6.3122,76.319,0,149.158-25.746,181.3669-68.7413,17.0686-22.7933,20.6842-48.2229,10.8468-72.131,6.7943,12.7299,10.3346,25.972,10.3647,39.0634-5.5439,53.6764-73.4567,97.9523-165.2474,107.7897h.0151ZM605.9652,539.6847s-.0301.0301-.0452.0301c-25.52,14.1912-57.1263,23.6068-90.691,27.7195,75.7616-13.8447,130.9897-51.959,140.797-98.0728-.5725,26.0925-18.4244,51.3715-50.0608,70.3232h0ZM662.8203,462.5823c0,20.3829-10.0483,40.2385-29.0603,57.4577,17.2494-17.5657,25.6104-37.8431,23.4411-58.3465-.0301-16.9782-5.8603-34.1522-16.9029-50.1813,14.7637,15.6675,22.5221,33.1579,22.5221,51.0702h0ZM334.8715,424.2119l.0151.0151c.0452.1055.0904.2109.1808.3013.0151.0151.0452.0151.0603.0301.0151.0151.0452.0301.0753.0452.1205.0753.2561.1205.3917.1205.0753,0,.1507,0,.226-.0301,14.6733-4.64,28.0961-10.3797,39.9974-17.0083h.0452c.0753-.0452.1356-.0904.2109-.1205,13.4831-7.5325,25.0078-16.2099,34.1372-25.8213.0301-.0301.0301-.0603.0452-.0753.0301-.0301.0603-.0603.0753-.1055,0,0,0-.0301.0151-.0452.0151-.0452.0151-.0753.0301-.1205,0-.0452.0301-.0753.0301-.1205v-.0452c0-.0452,0-.0904-.0151-.1356v-.1055h0s0-.0301-.0151-.0301c-.0151-.0452-.0452-.0753-.0753-.1205-.0151-.0301-.0452-.0753-.0603-.1055h0s-.0151,0-.0301-.0151c0,0,0-.0151-.0151-.0301s-.0452-.0301-.0753-.0452c-.0301-.0301-.0753-.0603-.1055-.0753,0,0-.0301,0-.0452-.0151-.0452-.0151-.0753-.0151-.1205-.0301-.0452,0-.0753-.0301-.1205-.0301h-.0452c-.0452,0-.0904,0-.1356.0151h-.1055c-31.4104,9.9429-57.1263,24.7969-74.3756,42.9652-.0301.0301-.0301.0603-.0452.0753-.0301.0452-.0603.0904-.0904.1356-.0151.0452-.0301.0904-.0452.1356,0,.0452-.0151.0904-.0301.1356,0,.0603,0,.1055.0151.1506,0,.0301,0,.0603,0,.1055ZM406.4149,383.0846c-2.2145,1.9434-4.414,3.8416-6.5683,5.6042-5.4234,4.4592-10.9221,8.6021-16.3455,12.293-7.2161,3.4951-14.0104,7.3366-20.2021,11.4343-7.8036,3.6608-16.1647,6.96-24.9777,9.8675,16.3605-16.3003,39.7715-29.7834,68.0785-39.199h.0151ZM610.0629,390.9786v.0904c0,.0301.0151.0452.0301.0603.0151.0452.0301.0753.0602.1205,0,.0151.0151.0452.0301.0753,21.2416,28.3522,21.2416,60.8624,0,89.2146-42.8748,57.2167-158.4682,83.6104-257.7009,58.8437h-.2561c-.0452,0-.0904.0151-.1356.0301-.0452,0-.0904.0301-.1356.0452-.0452.0301-.0753.0603-.1205.0904-.0301.0301-.0753.0603-.1055.0904-.0301.0452-.0603.0904-.0753.1356-.0151.0301-.0452.0603-.0603.0904v.0452s0,.0301-.0151.0301v.2561c0,.0452.0151.0904.0301.1356,0,.0452.0301.0904.0452.1356s.0603.0753.0904.1205.0603.0753.0904.1055c.0452.0301.0904.0603.1356.0753.0301.0151.0603.0452.0904.0603,31.2899,11.6151,66.3611,17.159,101.0707,17.159,4.5195,0,9.0239-.1055,13.5133-.2862.0904.0301.1808.0452.2712.0452h.0753c.3164-.0301.6327-.0753.9491-.1055,56.5086-2.5761,110.426-19.8104,143.3731-49.413,19.5844-17.5959,29.9491-37.9787,29.9491-58.9491s-10.3496-41.3533-29.9491-58.9491c-.0151-.0151-.0452-.0301-.0602-.0452-.0301-.0151-.0452-.0452-.0753-.0603-.0301,0-.0452-.0151-.0753-.0301-.0452-.0151-.0753-.0301-.1205-.0301-.0301,0-.0452-.0151-.0753-.0151h-.2712c-.0301,0-.0452.0151-.0753.0301-.0452.0151-.0753.0301-.1205.0603-.0301,0-.0452.0151-.0753.0301h0c-.0151,0-.0301.0301-.0301.0452,0,0-.0301.0151-.0452.0301s-.0301.0452-.0452.0603c-.0151.0301-.0452.0452-.0602.0753,0,.0151-.0151.0452-.0301.0753-.0151.0452-.0301.0753-.0452.1205,0,.0301-.0151.0452-.0151.0753v.2109l-.0301.0151ZM467.3526,556.1507c-34.2878,1.5065-69.5247-2.4255-101.5829-12.293,21.1512,4.2483,42.8296,6.3122,64.252,6.3122,76.319,0,149.158-25.746,181.3669-68.7413,17.0686-22.7933,20.6842-48.2078,10.8468-72.1159,6.7943,12.7299,10.3346,25.9569,10.3647,39.0634-5.5439,53.6764-73.4567,97.9523-165.2624,107.7897l.0151-.0151ZM582.8707,526.3522s-.0301.0301-.0452.0301c-25.52,14.1912-57.1263,23.6068-90.706,27.7195,75.7616-13.8447,131.0047-51.959,140.812-98.0728-.5725,26.0774-18.4244,51.3715-50.0608,70.3232ZM639.7408,449.2498c0,20.3829-10.0483,40.2385-29.0603,57.4577,17.2494-17.5657,25.6104-37.8582,23.4411-58.3465-.0301-16.9782-5.8603-34.1673-16.9029-50.1813,14.7637,15.6675,22.5221,33.1579,22.5221,51.0702Z"/>
  </g>
  <g id="Layer_3" data-name="Layer 3">
    <path d="M500,638.11c9.7,0,19.24-.39,28.57-1.14-17,4.81-66.28,4.2-99.47,4.2-90.31,0-192.66-53.56-195.12-114.08-2.2-54.16,68.37-87.84,78.66-92.57-11.18,14.91-16.76,30.88-16.76,46.85v38.89c0,65.09,91.39,117.85,204.12,117.85Z"/>
  </g>
</svg>