<svg width="1000" height="1000" viewBox="0 0 1000 1000" fill="none" xmlns="http://www.w3.org/2000/svg">
<path d="M308.5 484.1L315.3 484.3L320.1 485.9L463 568.4L466.6 571.8L467.4 574.2L466.9 576L464.8 578.1L435.6 594.9L430.4 596.2H426.4L421.7 595.2L398.3 581.5L395.7 580.5L395.2 581V594.9L394.4 597L392.8 598.6L364.2 615.1L361 616.4L356.1 617L352.1 616.4L347.9 614.9L346.1 613.3L344.8 610.9V565.2L344.2 564.7L221.3 635.6L217.1 637.5L213.7 638H209.5L203.4 636.2L201.1 633.8L200.3 632.2V630.9L201.1 628.8L203.7 626.4L322.4 558.1L327.2 555L248.1 554.7L245.2 554.5L243.1 553.9L241.3 552.9H240.2L237.6 550.3L237.1 548.7V546.6L239.2 543.9L269.4 526.6L275.1 525.6H299.6V524.5L274.6 510.3L273 508.2L272.8 505.3L274.4 502.7L277.8 500.6L303.3 485.9L306.1 484.6L308.2 484.3L308.5 484.1Z" fill="#2A2824"/>
<path fill-rule="evenodd" clip-rule="evenodd" d="M527.3 608.3H519.2L518.9 608.6L516.3 608.8L511.3 610.4L347.9 704.7L344.8 707.6L343.4 710.2V713.6L344.8 716.3L346.6 718.4L348.2 719.2L349 720.2L350.3 721L480.8 796.4L483.5 797.2L485 798.2L489.8 799.5L492.9 800.1H498.4L503.4 799.3L507.6 798L669.2 704.7L673.4 701.8L674.9 699.7L675.7 697.6V694.5L674.9 692.9L672.3 689.7L671 689.2L670 687.9L668.6 687.1L537.6 611.5L536 611.2L533.9 609.9L527.3 608.3ZM524.2 654.8L525.5 655.1H525.7L620.8 710L623.5 711.8L623.2 712.3L523.6 769.9L521.8 769.6L424.3 713.1V712.6L425.7 711.5L451.7 696.6H453.2L454.3 697.1L465.6 703.7L469.3 704.4H473.2L476.6 703.9L483.5 700.5L507.1 686.8L509.5 684.7L510 683.7L510.2 681.1L508.4 678.4L496.8 671.9L496.3 671.1L497.1 670.3L522.6 655.6L524.2 654.8Z" fill="#2A2824"/>
<path d="M372.08 482.02V338.83" stroke="#2A2824" stroke-width="1.8" stroke-linecap="round" stroke-linejoin="round"/>
<path d="M332.65 413.73L372.08 482.02" stroke="#2A2824" stroke-width="1.8" stroke-linecap="round" stroke-linejoin="round"/>
<path d="M359.74 398.09L372.08 419.45" stroke="#2A2824" stroke-width="1.8" stroke-linecap="round" stroke-linejoin="round"/>
<path d="M320.68 406.82L320.75 406.78L320.83 406.74L320.9 406.71L320.97 406.67L321.05 406.63L321.12 406.6L321.2 406.57L321.27 406.54L321.35 406.51L321.42 406.49L321.5 406.46L321.58 406.44L321.66 406.42L321.74 406.39L321.82 406.38L321.9 406.36L321.98 406.34L322.06 406.33L322.14 406.31L322.22 406.3L322.3 406.29L322.38 406.28L322.47 406.27H322.55L322.64 406.26H322.73H322.81H322.89H322.97H323.05H323.13L323.24 406.27L323.36 406.28L323.5 406.29L323.65 406.31L323.81 406.33L323.95 406.36L324.1 406.39L324.24 406.42L324.39 406.46L324.53 406.5L324.68 406.54L324.83 406.58L324.98 406.63L325.13 406.69L325.28 406.74L325.43 406.8L325.58 406.87L325.73 406.93L325.88 407L326.03 407.07L326.18 407.15L326.33 407.23L326.48 407.31L326.63 407.39L326.78 407.48L326.94 407.57L327.09 407.67L327.24 407.77L327.39 407.87L327.54 407.97L327.69 408.07L327.84 408.18L327.99 408.3L328.15 408.42L328.31 408.54L328.47 408.67L328.63 408.81L328.79 408.95L328.94 409.09L329.1 409.23L329.25 409.37L329.41 409.52L329.56 409.67L329.72 409.83L329.87 409.99L330.02 410.15L330.17 410.31L330.32 410.48L330.47 410.65L330.62 410.82L330.76 410.99L330.91 411.17L331.05 411.35L331.19 411.54L331.33 411.72L331.47 411.91L331.61 412.1L331.75 412.3L331.88 412.5L332.01 412.7L332.14 412.9L332.27 413.1L332.4 413.31L332.53 413.52L332.65 413.73" stroke="#2A2824" stroke-width="1.8" stroke-linecap="round" stroke-linejoin="round"/>
<path d="M347.77 391.18L347.84 391.14L347.92 391.1L347.99 391.06L348.06 391.03L348.14 390.99L348.21 390.96L348.29 390.93L348.36 390.9L348.44 390.87L348.51 390.85L348.59 390.82L348.67 390.8L348.75 390.78L348.83 390.75L348.91 390.74L348.99 390.72L349.07 390.7L349.15 390.69L349.23 390.67L349.31 390.66L349.39 390.65L349.47 390.64L349.56 390.63H349.64L349.73 390.62H349.82H349.9H349.98H350.06H350.14H350.22L350.33 390.63L350.45 390.64L350.59 390.65L350.74 390.67L350.9 390.69L351.04 390.72L351.19 390.75L351.33 390.78L351.48 390.82L351.62 390.86L351.77 390.9L351.92 390.94L352.07 390.99L352.22 391.05L352.37 391.1L352.52 391.16L352.67 391.22L352.82 391.29L352.97 391.36L353.12 391.43L353.27 391.51L353.42 391.59L353.57 391.67L353.72 391.75L353.87 391.84L354.03 391.93L354.18 392.03L354.33 392.13L354.48 392.23L354.63 392.33L354.78 392.43L354.93 392.54L355.08 392.66L355.24 392.78L355.4 392.9L355.56 393.03L355.72 393.17L355.88 393.31L356.03 393.44L356.19 393.59L356.34 393.73L356.5 393.88L356.65 394.03L356.81 394.19L356.96 394.34L357.11 394.51L357.26 394.67L357.41 394.84L357.56 395.01L357.71 395.18L357.85 395.35L358 395.53L358.14 395.71L358.28 395.9L358.42 396.08L358.56 396.27L358.7 396.46L358.84 396.66L358.97 396.85L359.1 397.05L359.24 397.26L359.36 397.46L359.49 397.67L359.62 397.88L359.74 398.09" stroke="#2A2824" stroke-width="1.8" stroke-linecap="round" stroke-linejoin="round"/>
<path d="M320.68 406.82L347.77 391.18" stroke="#2A2824" stroke-width="1.8" stroke-linecap="round" stroke-linejoin="round"/>
<path d="M320.68 420.64L320.56 420.43L320.44 420.22L320.33 420L320.21 419.79L320.1 419.57L320 419.36L319.89 419.14L319.79 418.93L319.7 418.71L319.6 418.5L319.51 418.28L319.42 418.07L319.34 417.85L319.26 417.64L319.18 417.42L319.1 417.21L319.03 417L318.96 416.78L318.89 416.57L318.83 416.36L318.77 416.15L318.71 415.94L318.66 415.73L318.61 415.52L318.56 415.31L318.51 415.11L318.47 414.9L318.43 414.7L318.39 414.49L318.36 414.29L318.33 414.08L318.31 413.89L318.28 413.7L318.26 413.51L318.25 413.33L318.23 413.15L318.22 412.97L318.21 412.79V412.61L318.2 412.44V412.26V412.09L318.21 411.92L318.22 411.75L318.23 411.58L318.24 411.41L318.25 411.25L318.27 411.08L318.29 410.92L318.32 410.76L318.34 410.6L318.37 410.45L318.4 410.29L318.44 410.14L318.47 409.99L318.51 409.85L318.55 409.71L318.6 409.56L318.65 409.42L318.7 409.28L318.76 409.14L318.82 409L318.87 408.87L318.93 408.76L318.97 408.66L319.01 408.59L319.05 408.52L319.09 408.45L319.13 408.38L319.17 408.31L319.22 408.24L319.27 408.16L319.32 408.09L319.36 408.03L319.41 407.96L319.46 407.89L319.51 407.83L319.57 407.77L319.62 407.7L319.67 407.64L319.73 407.58L319.79 407.52L319.84 407.46L319.9 407.41L319.96 407.35L320.02 407.3L320.08 407.24L320.15 407.19L320.21 407.14L320.27 407.09L320.34 407.04L320.41 407L320.47 406.95L320.54 406.91L320.61 406.86L320.68 406.82" stroke="#2A2824" stroke-width="1.8" stroke-linecap="round" stroke-linejoin="round"/>
<path d="M360.11 488.93L320.68 420.64" stroke="#2A2824" stroke-width="1.8" stroke-linecap="round" stroke-linejoin="round"/>
<path d="M308.47 459.11L360.11 488.93" stroke="#2A2824" stroke-width="1.8" stroke-linecap="round" stroke-linejoin="round"/>
<path d="M300 464V463.82L300.01 463.65V463.47L300.02 463.3L300.03 463.13L300.05 462.96L300.07 462.8L300.09 462.64L300.11 462.48L300.14 462.32L300.16 462.17L300.2 462.02L300.23 461.87L300.26 461.72L300.3 461.58L300.34 461.43L300.39 461.3L300.43 461.16L300.48 461.03L300.53 460.89L300.58 460.77L300.64 460.64L300.7 460.52L300.75 460.4L300.82 460.28L300.88 460.17L300.94 460.05L301.01 459.94L301.09 459.83L301.16 459.73L301.24 459.63L301.31 459.53L301.38 459.45L301.44 459.37L301.51 459.3L301.57 459.23L301.64 459.17L301.71 459.1L301.78 459.03L301.85 458.97L301.93 458.9L302 458.84L302.08 458.78L302.16 458.73L302.24 458.67L302.32 458.62L302.4 458.57L302.48 458.52L302.56 458.47L302.65 458.43L302.73 458.39L302.82 458.35L302.91 458.31L303 458.27L303.09 458.23L303.18 458.2L303.27 458.17L303.36 458.14L303.46 458.12L303.55 458.09L303.64 458.07L303.74 458.05L303.84 458.03L303.94 458.01L304.06 458L304.18 457.98L304.31 457.97L304.44 457.96H304.57H304.7H304.84L304.97 457.97H305.1L305.24 457.99L305.37 458L305.51 458.02L305.65 458.04L305.79 458.07L305.93 458.1L306.07 458.13L306.21 458.16L306.36 458.2L306.5 458.24L306.65 458.29L306.8 458.34L306.94 458.39L307.09 458.45L307.24 458.51L307.39 458.57L307.54 458.64L307.69 458.71L307.85 458.78L308 458.86L308.16 458.94L308.31 459.03L308.47 459.11" stroke="#2A2824" stroke-width="1.8" stroke-linecap="round" stroke-linejoin="round"/>
<path d="M329.57 442.88L329.6 442.86L329.63 442.85L329.66 442.83L329.69 442.82L329.71 442.8L329.74 442.79L329.77 442.77L329.8 442.76L329.83 442.74L329.86 442.73L329.89 442.71L329.92 442.7L329.95 442.69L329.98 442.67L330.01 442.66L330.05 442.65L330.08 442.63L330.11 442.62L330.14 442.61L330.17 442.6L330.2 442.59L330.23 442.57L330.26 442.56L330.3 442.55L330.33 442.54L330.36 442.53L330.39 442.52L330.42 442.51L330.46 442.5L330.49 442.49L330.52 442.48L330.55 442.47L330.59 442.46H330.62L330.66 442.45L330.7 442.44L330.73 442.43L330.77 442.42L330.81 442.41H330.84L330.88 442.4L330.92 442.39H330.96L330.99 442.38L331.03 442.37H331.07L331.11 442.36H331.14L331.18 442.35H331.22L331.26 442.34H331.3H331.34L331.37 442.33H331.41H331.45L331.49 442.32H331.53H331.57H331.61H331.65H331.69H331.73H331.77H331.81H331.86H331.91H331.95H332H332.05L332.09 442.33H332.14H332.19L332.24 442.34H332.28L332.33 442.35H332.38L332.43 442.36H332.47L332.52 442.37H332.57L332.62 442.38L332.67 442.39L332.72 442.4L332.77 442.41H332.82L332.87 442.42L332.91 442.43L332.96 442.44L333.01 442.45L333.06 442.46L333.11 442.48L333.16 442.49L333.21 442.5L333.26 442.51L333.32 442.53" stroke="#2A2824" stroke-width="1.8" stroke-linecap="round" stroke-linejoin="round"/>
<path d="M308.47 478.66L308.34 478.59L308.21 478.51L308.08 478.43L307.95 478.35L307.83 478.27L307.7 478.18L307.58 478.1L307.45 478.01L307.33 477.92L307.2 477.83L307.08 477.73L306.96 477.64L306.83 477.54L306.71 477.44L306.59 477.34L306.47 477.24L306.35 477.14L306.23 477.03L306.12 476.93L306 476.82L305.88 476.71L305.77 476.6L305.65 476.49L305.54 476.37L305.42 476.25L305.31 476.13L305.19 476.02L305.09 475.9L304.98 475.79L304.88 475.68L304.77 475.55L304.65 475.41L304.51 475.25L304.36 475.07L304.21 474.88L304.06 474.69L303.91 474.5L303.77 474.32L303.63 474.13L303.5 473.94L303.36 473.75L303.23 473.55L303.1 473.35L302.97 473.15L302.85 472.95L302.72 472.75L302.6 472.55L302.48 472.35L302.36 472.14L302.25 471.93L302.13 471.72L302.02 471.51L301.92 471.3L301.81 471.09L301.71 470.88L301.61 470.67L301.51 470.45L301.42 470.24L301.33 470.03L301.24 469.8L301.15 469.58L301.06 469.35L300.98 469.13L300.91 468.93L300.85 468.76L300.79 468.6L300.75 468.46L300.7 468.31L300.66 468.16L300.61 468L300.56 467.84L300.52 467.69L300.48 467.53L300.44 467.37L300.4 467.22L300.37 467.06L300.33 466.91L300.3 466.75L300.27 466.6L300.24 466.44L300.21 466.28L300.18 466.13L300.16 465.98L300.13 465.82L300.11 465.67L300.09 465.51L300.08 465.36L300.06 465.21L300.05 465.06L300.03 464.9L300.02 464.75V464.6L300.01 464.45V464.3L300 464.15V464" stroke="#2A2824" stroke-width="1.8" stroke-linecap="round" stroke-linejoin="round"/>
<path d="M452.62 561.89L308.47 478.66" stroke="#2A2824" stroke-width="1.8" stroke-linecap="round" stroke-linejoin="round"/>
<path d="M461.08 557V557.18V557.36L461.07 557.53L461.06 557.7L461.05 557.87L461.04 558.04L461.02 558.21L461 558.37L460.97 558.53L460.95 558.68L460.92 558.84L460.89 558.99L460.86 559.14L460.82 559.29L460.78 559.43L460.74 559.57L460.7 559.71L460.65 559.85L460.6 559.98L460.55 560.11L460.5 560.24L460.45 560.37L460.39 560.49L460.33 560.61L460.27 560.72L460.21 560.84L460.14 560.95L460.07 561.06L460 561.17L459.92 561.28L459.85 561.38L459.78 561.47L459.71 561.56L459.64 561.63L459.58 561.7L459.51 561.77L459.45 561.84L459.38 561.91L459.3 561.97L459.23 562.04L459.16 562.1L459.08 562.16L459 562.22L458.93 562.28L458.85 562.33L458.77 562.38L458.69 562.44L458.61 562.48L458.52 562.53L458.44 562.58L458.35 562.62L458.26 562.66L458.18 562.7L458.09 562.74L458 562.77L457.91 562.8L457.81 562.83L457.72 562.86L457.63 562.89L457.53 562.91L457.44 562.94L457.35 562.96L457.25 562.97L457.14 562.99L457.03 563.01L456.9 563.02L456.77 563.03L456.64 563.04L456.51 563.05H456.38H456.25L456.12 563.04L455.98 563.03L455.85 563.02L455.71 563L455.57 562.99L455.44 562.96L455.3 562.94L455.16 562.91L455.01 562.88L454.87 562.84L454.73 562.8L454.58 562.76L454.44 562.71L454.29 562.67L454.14 562.61L453.99 562.56L453.84 562.5L453.69 562.43L453.54 562.37L453.39 562.3L453.24 562.22L453.08 562.14L452.93 562.06L452.77 561.98L452.62 561.89" stroke="#2A2824" stroke-width="1.8" stroke-linecap="round" stroke-linejoin="round"/>
<path d="M488.17 541.36V541.47V541.57V541.67V541.77L488.16 541.87V541.97L488.15 542.07V542.17L488.14 542.26L488.13 542.36L488.12 542.46L488.11 542.55L488.1 542.64L488.09 542.74L488.07 542.83L488.06 542.92L488.04 543.01L488.03 543.1L488.01 543.19L487.99 543.28L487.98 543.36L487.96 543.45L487.94 543.53L487.92 543.62L487.9 543.7L487.87 543.78L487.85 543.86L487.83 543.95L487.8 544.03L487.77 544.11L487.75 544.19L487.72 544.26L487.7 544.33L487.68 544.39L487.65 544.44L487.63 544.5L487.61 544.56L487.58 544.61L487.56 544.67L487.53 544.73L487.51 544.79L487.48 544.84L487.46 544.9L487.43 544.95L487.4 545L487.37 545.06L487.35 545.11L487.32 545.16L487.29 545.21L487.26 545.26L487.23 545.31L487.2 545.36L487.17 545.41L487.13 545.46L487.1 545.51L487.07 545.56L487.04 545.6L487 545.65L486.97 545.7L486.94 545.74L486.9 545.79L486.87 545.83L486.83 545.88L486.8 545.92L486.76 545.95L486.73 545.99L486.7 546.02L486.67 546.06L486.64 546.09L486.61 546.12L486.58 546.16L486.55 546.19L486.51 546.22L486.48 546.25L486.45 546.28L486.42 546.31L486.38 546.34L486.35 546.37L486.31 546.4L486.28 546.43L486.25 546.46L486.21 546.49L486.18 546.52L486.14 546.55L486.1 546.57L486.07 546.6L486.03 546.63L486 546.65L485.96 546.68L485.92 546.7L485.89 546.73L485.85 546.75L485.81 546.77L485.77 546.8L485.73 546.82L485.7 546.84" stroke="#2A2824" stroke-width="1.8" stroke-linecap="round" stroke-linejoin="round"/>
<path d="M452.62 542.34L452.75 542.42L452.88 542.49L453 542.57L453.13 542.65L453.26 542.74L453.38 542.82L453.51 542.91L453.63 543L453.76 543.09L453.88 543.18L454.01 543.27L454.13 543.37L454.25 543.46L454.37 543.56L454.49 543.66L454.61 543.76L454.73 543.87L454.85 543.97L454.97 544.08L455.09 544.19L455.2 544.3L455.32 544.41L455.43 544.52L455.55 544.63L455.66 544.75L455.78 544.87L455.89 544.99L456 545.1L456.1 545.21L456.21 545.33L456.32 545.45L456.44 545.59L456.57 545.75L456.72 545.93L456.87 546.12L457.03 546.31L457.17 546.5L457.31 546.69L457.45 546.88L457.59 547.07L457.72 547.26L457.85 547.45L457.98 547.65L458.11 547.85L458.24 548.05L458.36 548.25L458.49 548.46L458.61 548.66L458.72 548.87L458.84 549.07L458.95 549.28L459.06 549.49L459.17 549.7L459.27 549.91L459.38 550.13L459.48 550.34L459.57 550.55L459.67 550.76L459.76 550.98L459.85 551.2L459.94 551.43L460.02 551.66L460.11 551.87L460.18 552.07L460.24 552.25L460.29 552.4L460.34 552.55L460.38 552.7L460.43 552.85L460.47 553L460.52 553.16L460.56 553.32L460.61 553.48L460.65 553.63L460.68 553.79L460.72 553.94L460.75 554.1L460.79 554.25L460.82 554.41L460.85 554.57L460.88 554.72L460.9 554.88L460.93 555.03L460.95 555.18L460.97 555.34L460.99 555.49L461.01 555.64L461.02 555.8L461.04 555.95L461.05 556.1L461.06 556.25L461.07 556.4L461.08 556.55V556.7V556.85V557" stroke="#2A2824" stroke-width="1.8" stroke-linecap="round" stroke-linejoin="round"/>
<path d="M479.71 526.7L479.84 526.78L479.97 526.85L480.09 526.93L480.22 527.01L480.35 527.1L480.47 527.18L480.6 527.27L480.72 527.36L480.85 527.45L480.97 527.54L481.1 527.63L481.22 527.73L481.34 527.82L481.46 527.92L481.58 528.02L481.7 528.12L481.82 528.23L481.94 528.33L482.06 528.44L482.18 528.55L482.29 528.66L482.41 528.77L482.52 528.88L482.64 528.99L482.76 529.11L482.87 529.23L482.98 529.35L483.09 529.46L483.19 529.57L483.3 529.69L483.41 529.81L483.53 529.95L483.66 530.11L483.81 530.29L483.96 530.48L484.12 530.67L484.26 530.86L484.4 531.05L484.54 531.24L484.68 531.43L484.81 531.62L484.94 531.81L485.07 532.01L485.2 532.21L485.33 532.41L485.45 532.61L485.58 532.82L485.7 533.02L485.81 533.23L485.93 533.43L486.04 533.64L486.15 533.85L486.26 534.06L486.36 534.27L486.47 534.49L486.57 534.7L486.66 534.91L486.76 535.12L486.85 535.34L486.94 535.56L487.03 535.79L487.12 536.01L487.2 536.23L487.27 536.43L487.33 536.61L487.38 536.76L487.43 536.91L487.47 537.05L487.52 537.21L487.56 537.36L487.61 537.52L487.65 537.68L487.7 537.84L487.74 537.99L487.77 538.15L487.81 538.3L487.84 538.46L487.88 538.61L487.91 538.77L487.94 538.92L487.97 539.08L487.99 539.23L488.02 539.39L488.04 539.54L488.06 539.7L488.08 539.85L488.1 540L488.11 540.16L488.13 540.31L488.14 540.46L488.15 540.61L488.16 540.76L488.17 540.91V541.06V541.21V541.36" stroke="#2A2824" stroke-width="1.8" stroke-linecap="round" stroke-linejoin="round"/>
<path d="M400.98 512.53L452.62 542.34" stroke="#2A2824" stroke-width="1.8" stroke-linecap="round" stroke-linejoin="round"/>
<path d="M428.07 496.89L479.71 526.7" stroke="#2A2824" stroke-width="1.8" stroke-linecap="round" stroke-linejoin="round"/>
<path d="M440.4 489.77L400.98 512.53" stroke="#2A2824" stroke-width="1.8" stroke-linecap="round" stroke-linejoin="round"/>
<path d="M440.4 489.77L467.49 474.12" stroke="#2A2824" stroke-width="1.8" stroke-linecap="round" stroke-linejoin="round"/>
<path d="M440.4 475.94L440.52 476.16L440.64 476.37L440.76 476.58L440.87 476.8L440.98 477.01L441.09 477.23L441.19 477.44L441.29 477.66L441.39 477.88L441.48 478.09L441.57 478.31L441.66 478.52L441.75 478.74L441.83 478.95L441.91 479.16L441.98 479.38L442.06 479.59L442.13 479.8L442.19 480.02L442.26 480.23L442.32 480.44L442.37 480.65L442.43 480.86L442.48 481.07L442.53 481.27L442.57 481.48L442.61 481.69L442.65 481.89L442.69 482.1L442.72 482.3L442.75 482.5L442.78 482.7L442.8 482.89L442.82 483.07L442.84 483.25L442.85 483.43L442.86 483.61L442.87 483.79L442.88 483.97V484.15V484.32V484.5V484.67L442.87 484.84L442.86 485.01L442.85 485.18L442.83 485.34L442.81 485.5L442.79 485.66L442.77 485.82L442.74 485.98L442.71 486.14L442.68 486.29L442.65 486.44L442.61 486.59L442.57 486.74L442.53 486.88L442.49 487.02L442.44 487.16L442.39 487.3L442.33 487.45L442.27 487.59L442.21 487.72L442.16 487.83L442.11 487.92L442.07 488L442.03 488.07L442 488.13L441.95 488.2L441.91 488.28L441.86 488.35L441.82 488.42L441.77 488.49L441.72 488.56L441.67 488.63L441.62 488.69L441.57 488.76L441.52 488.82L441.47 488.88L441.41 488.95L441.36 489.01L441.3 489.06L441.24 489.12L441.18 489.18L441.12 489.24L441.06 489.29L441 489.34L440.94 489.39L440.88 489.45L440.81 489.5L440.75 489.54L440.68 489.59L440.61 489.64L440.54 489.68L440.47 489.72L440.4 489.77" stroke="#2A2824" stroke-width="1.8" stroke-linecap="round" stroke-linejoin="round"/>
<path d="M467.49 460.3L467.61 460.52L467.73 460.73L467.85 460.94L467.96 461.16L468.07 461.37L468.18 461.59L468.28 461.8L468.38 462.02L468.48 462.23L468.57 462.45L468.66 462.67L468.75 462.88L468.84 463.09L468.92 463.31L469 463.52L469.07 463.74L469.15 463.95L469.22 464.16L469.28 464.37L469.35 464.59L469.41 464.8L469.46 465.01L469.52 465.22L469.57 465.43L469.62 465.63L469.66 465.84L469.7 466.04L469.74 466.25L469.78 466.46L469.81 466.66L469.84 466.86L469.87 467.06L469.89 467.25L469.91 467.43L469.93 467.61L469.94 467.79L469.95 467.97L469.96 468.15L469.97 468.33V468.51V468.68V468.86V469.03L469.96 469.2L469.95 469.37L469.94 469.54L469.92 469.7L469.9 469.86L469.88 470.02L469.86 470.18L469.83 470.34L469.8 470.5L469.77 470.65L469.74 470.8L469.7 470.95L469.66 471.1L469.62 471.24L469.58 471.38L469.53 471.52L469.48 471.66L469.42 471.81L469.36 471.95L469.3 472.08L469.25 472.19L469.2 472.28L469.16 472.36L469.12 472.43L469.09 472.49L469.04 472.56L469 472.63L468.95 472.71L468.91 472.78L468.86 472.85L468.81 472.92L468.76 472.99L468.71 473.05L468.66 473.12L468.61 473.18L468.56 473.24L468.5 473.3L468.45 473.37L468.39 473.42L468.33 473.48L468.27 473.54L468.21 473.59L468.15 473.65L468.09 473.7L468.03 473.75L467.97 473.81L467.9 473.85L467.84 473.9L467.77 473.95L467.7 473.99L467.63 474.04L467.56 474.08L467.49 474.12" stroke="#2A2824" stroke-width="1.8" stroke-linecap="round" stroke-linejoin="round"/>
<path d="M428.43 469.03L428.5 468.99L428.58 468.95L428.65 468.91L428.72 468.88L428.8 468.84L428.87 468.81L428.95 468.78L429.02 468.75L429.1 468.72L429.17 468.7L429.25 468.67L429.33 468.65L429.41 468.63L429.49 468.6L429.57 468.59L429.65 468.57L429.73 468.55L429.81 468.54L429.89 468.52L429.97 468.51L430.05 468.5L430.13 468.49L430.22 468.48H430.3L430.39 468.47H430.48H430.56H430.64H430.72H430.8H430.88L430.99 468.48L431.11 468.49L431.25 468.5L431.4 468.52L431.56 468.54L431.7 468.57L431.85 468.6L431.99 468.63L432.14 468.67L432.28 468.71L432.43 468.75L432.58 468.79L432.73 468.84L432.88 468.9L433.03 468.95L433.18 469.01L433.33 469.07L433.48 469.14L433.63 469.21L433.78 469.28L433.93 469.36L434.08 469.44L434.23 469.52L434.38 469.6L434.53 469.69L434.69 469.78L434.84 469.88L434.99 469.98L435.14 470.08L435.29 470.18L435.44 470.28L435.59 470.39L435.74 470.51L435.9 470.63L436.06 470.75L436.22 470.88L436.38 471.02L436.54 471.16L436.69 471.29L436.85 471.44L437 471.58L437.16 471.73L437.31 471.88L437.47 472.04L437.62 472.19L437.77 472.36L437.92 472.52L438.07 472.69L438.22 472.86L438.37 473.03L438.51 473.2L438.66 473.38L438.8 473.56L438.94 473.75L439.08 473.93L439.22 474.12L439.36 474.31L439.5 474.51L439.63 474.7L439.76 474.9L439.89 475.11L440.02 475.31L440.15 475.52L440.28 475.73L440.4 475.94" stroke="#2A2824" stroke-width="1.8" stroke-linecap="round" stroke-linejoin="round"/>
<path d="M455.52 453.39L455.59 453.35L455.67 453.31L455.74 453.27L455.81 453.24L455.89 453.2L455.96 453.17L456.04 453.14L456.11 453.11L456.19 453.08L456.26 453.06L456.34 453.03L456.42 453.01L456.5 452.98L456.58 452.96L456.66 452.94L456.74 452.93L456.82 452.91L456.9 452.9L456.98 452.88L457.06 452.87L457.14 452.86L457.22 452.85L457.31 452.84H457.39L457.48 452.83H457.57H457.65H457.73H457.81H457.89H457.97L458.08 452.84L458.2 452.85L458.34 452.86L458.49 452.88L458.65 452.9L458.79 452.93L458.94 452.96L459.08 452.99L459.23 453.03L459.37 453.07L459.52 453.11L459.67 453.15L459.82 453.2L459.97 453.26L460.12 453.31L460.27 453.37L460.42 453.43L460.57 453.5L460.72 453.57L460.87 453.64L461.02 453.72L461.17 453.8L461.32 453.88L461.47 453.96L461.62 454.05L461.78 454.14L461.93 454.24L462.08 454.34L462.23 454.43L462.38 454.54L462.53 454.64L462.68 454.75L462.83 454.87L462.99 454.99L463.15 455.11L463.31 455.24L463.47 455.38L463.63 455.51L463.78 455.65L463.94 455.8L464.09 455.94L464.25 456.09L464.4 456.24L464.56 456.4L464.71 456.55L464.86 456.72L465.01 456.88L465.16 457.05L465.31 457.22L465.46 457.39L465.6 457.56L465.75 457.74L465.89 457.92L466.03 458.11L466.17 458.29L466.31 458.48L466.45 458.67L466.59 458.87L466.72 459.06L466.85 459.26L466.98 459.47L467.11 459.67L467.24 459.88L467.37 460.09L467.49 460.3" stroke="#2A2824" stroke-width="1.8" stroke-linecap="round" stroke-linejoin="round"/>
<path d="M428.43 469.03L455.52 453.39" stroke="#2A2824" stroke-width="1.8" stroke-linecap="round" stroke-linejoin="round"/>
<path d="M389.01 491.79L428.43 469.03" stroke="#2A2824" stroke-width="1.8" stroke-linecap="round" stroke-linejoin="round"/>
<path d="M389.01 348.6V491.79" stroke="#2A2824" stroke-width="1.8" stroke-linecap="round" stroke-linejoin="round"/>
<path d="M416.1 332.96V476.15" stroke="#2A2824" stroke-width="1.8" stroke-linecap="round" stroke-linejoin="round"/>
<path d="M380.54 333.94L380.67 334.02L380.8 334.09L380.93 334.17L381.05 334.25L381.18 334.33L381.31 334.42L381.43 334.51L381.56 334.59L381.68 334.68L381.81 334.78L381.93 334.87L382.05 334.97L382.17 335.06L382.29 335.16L382.42 335.26L382.54 335.36L382.66 335.47L382.77 335.57L382.89 335.68L383.01 335.79L383.13 335.89L383.24 336L383.36 336.12L383.47 336.23L383.59 336.35L383.7 336.47L383.81 336.59L383.92 336.7L384.03 336.81L384.13 336.93L384.24 337.05L384.36 337.19L384.5 337.35L384.64 337.53L384.8 337.72L384.95 337.91L385.1 338.1L385.24 338.29L385.37 338.48L385.51 338.67L385.64 338.86L385.78 339.05L385.91 339.25L386.04 339.45L386.16 339.65L386.29 339.85L386.41 340.05L386.53 340.26L386.65 340.46L386.76 340.67L386.87 340.88L386.98 341.09L387.09 341.3L387.2 341.51L387.3 341.73L387.4 341.94L387.49 342.15L387.59 342.36L387.68 342.58L387.77 342.8L387.86 343.03L387.95 343.25L388.03 343.47L388.1 343.67L388.16 343.84L388.21 344L388.26 344.15L388.31 344.29L388.35 344.44L388.4 344.6L388.44 344.76L388.49 344.92L388.53 345.08L388.57 345.23L388.61 345.39L388.64 345.54L388.68 345.7L388.71 345.85L388.74 346.01L388.77 346.16L388.8 346.32L388.83 346.47L388.85 346.63L388.87 346.78L388.9 346.94L388.91 347.09L388.93 347.24L388.95 347.4L388.96 347.55L388.97 347.7L388.98 347.85L388.99 348L389 348.15V348.3L389.01 348.45V348.6" stroke="#2A2824" stroke-width="1.8" stroke-linecap="round" stroke-linejoin="round"/>
<path d="M407.63 318.3L407.76 318.38L407.89 318.45L408.02 318.53L408.14 318.61L408.27 318.69L408.4 318.78L408.52 318.87L408.65 318.95L408.77 319.04L408.9 319.14L409.02 319.23L409.14 319.32L409.26 319.42L409.38 319.52L409.51 319.62L409.63 319.72L409.75 319.83L409.86 319.93L409.98 320.04L410.1 320.15L410.22 320.25L410.33 320.36L410.45 320.48L410.56 320.59L410.68 320.71L410.79 320.83L410.91 320.95L411.01 321.06L411.12 321.17L411.22 321.29L411.33 321.41L411.45 321.55L411.59 321.71L411.73 321.89L411.89 322.08L412.04 322.27L412.19 322.46L412.33 322.65L412.46 322.84L412.6 323.02L412.73 323.22L412.87 323.41L413 323.61L413.13 323.81L413.25 324.01L413.38 324.21L413.5 324.41L413.62 324.62L413.74 324.82L413.85 325.03L413.96 325.24L414.07 325.45L414.18 325.66L414.29 325.87L414.39 326.09L414.49 326.3L414.59 326.51L414.68 326.72L414.77 326.94L414.86 327.16L414.95 327.39L415.04 327.61L415.12 327.83L415.19 328.03L415.25 328.2L415.3 328.36L415.35 328.51L415.4 328.65L415.44 328.8L415.49 328.96L415.53 329.12L415.58 329.28L415.62 329.43L415.66 329.59L415.7 329.75L415.73 329.9L415.77 330.06L415.8 330.21L415.83 330.37L415.86 330.52L415.89 330.68L415.92 330.83L415.94 330.99L415.96 331.14L415.99 331.3L416 331.45L416.02 331.6L416.04 331.76L416.05 331.91L416.06 332.06L416.07 332.21L416.08 332.36L416.09 332.51V332.66L416.1 332.81V332.96" stroke="#2A2824" stroke-width="1.8" stroke-linecap="round" stroke-linejoin="round"/>
<path d="M372.08 338.83V338.65V338.47L372.09 338.3L372.1 338.13L372.11 337.96L372.13 337.79L372.14 337.63L372.16 337.46L372.19 337.3L372.21 337.15L372.24 336.99L372.27 336.84L372.31 336.69L372.34 336.55L372.38 336.4L372.42 336.26L372.46 336.12L372.51 335.98L372.56 335.85L372.61 335.72L372.66 335.59L372.71 335.47L372.77 335.34L372.83 335.22L372.89 335.11L372.96 334.99L373.02 334.88L373.09 334.77L373.16 334.66L373.24 334.55L373.31 334.45L373.39 334.36L373.45 334.28L373.52 334.2L373.58 334.13L373.65 334.06L373.72 333.99L373.79 333.92L373.86 333.86L373.93 333.79L374.01 333.73L374.08 333.67L374.16 333.61L374.23 333.55L374.31 333.5L374.39 333.45L374.47 333.4L374.56 333.35L374.64 333.3L374.72 333.25L374.81 333.21L374.9 333.17L374.98 333.13L375.07 333.1L375.16 333.06L375.25 333.03L375.35 333L375.44 332.97L375.54 332.94L375.63 332.92L375.72 332.89L375.81 332.87L375.91 332.86L376.02 332.84L376.14 332.82L376.26 332.81L376.39 332.8L376.52 332.79L376.65 332.78H376.78H376.91L377.04 332.79L377.18 332.8L377.31 332.81L377.45 332.83L377.59 332.85L377.73 332.87L377.86 332.89L378.01 332.92L378.15 332.95L378.29 332.99L378.43 333.03L378.58 333.07L378.73 333.12L378.87 333.17L379.02 333.22L379.17 333.27L379.32 333.33L379.47 333.4L379.62 333.46L379.77 333.53L379.92 333.61L380.08 333.69L380.23 333.77L380.39 333.85L380.54 333.94" stroke="#2A2824" stroke-width="1.8" stroke-linecap="round" stroke-linejoin="round"/>
<path d="M401.65 317.71L401.69 317.68L401.72 317.66L401.76 317.64L401.8 317.62L401.84 317.6L401.88 317.58L401.92 317.56L401.96 317.54L402 317.52L402.04 317.5L402.09 317.49L402.13 317.47L402.17 317.45L402.21 317.44L402.25 317.42L402.29 317.4L402.34 317.39L402.38 317.37L402.42 317.36L402.47 317.35L402.51 317.33L402.55 317.32L402.6 317.31L402.64 317.3L402.68 317.28L402.73 317.27L402.77 317.26L402.82 317.25L402.86 317.24L402.91 317.23H402.95L403 317.22L403.05 317.21L403.11 317.2L403.16 317.19L403.22 317.18H403.28L403.34 317.17L403.39 317.16H403.45L403.51 317.15H403.56H403.62H403.68L403.74 317.14H403.8H403.86H403.91H403.97L404.03 317.15H404.09H404.15H404.21L404.27 317.16H404.34L404.4 317.17L404.46 317.18H404.52L404.58 317.19L404.64 317.2L404.7 317.21L404.76 317.22L404.83 317.23L404.9 317.24L404.97 317.26L405.05 317.27L405.14 317.29L405.22 317.31L405.3 317.33L405.39 317.35L405.47 317.37L405.55 317.39L405.63 317.42L405.72 317.44L405.8 317.47L405.89 317.5L405.97 317.53L406.06 317.56L406.14 317.59L406.23 317.62L406.31 317.65L406.4 317.69L406.49 317.73L406.57 317.76L406.66 317.8L406.75 317.84L406.83 317.88L406.92 317.92L407.01 317.96L407.1 318.01L407.19 318.05L407.28 318.1L407.36 318.15L407.45 318.2L407.54 318.25L407.63 318.3" stroke="#2A2824" stroke-width="1.8" stroke-linecap="round" stroke-linejoin="round"/>
<path d="M302.48 458.52L329.57 442.88" stroke="#2A2824" stroke-width="1.8" stroke-linecap="round" stroke-linejoin="round"/>
<path d="M458.61 562.48L485.7 546.84" stroke="#2A2824" stroke-width="1.8" stroke-linecap="round" stroke-linejoin="round"/>
<path d="M374.56 333.35L401.65 317.71" stroke="#2A2824" stroke-width="1.8" stroke-linecap="round" stroke-linejoin="round"/>
<path d="M655.98 659.75V512.51" stroke="#2A2824" stroke-width="1.8" stroke-linecap="round" stroke-linejoin="round"/>
<path d="M528.76 586.3L655.98 659.75" stroke="#2A2824" stroke-width="1.8" stroke-linecap="round" stroke-linejoin="round"/>
<path d="M560 573.06L655.98 628.47" stroke="#2A2824" stroke-width="1.8" stroke-linecap="round" stroke-linejoin="round"/>
<path d="M528.76 586.3L547.96 575.21" stroke="#2A2824" stroke-width="1.8" stroke-linecap="round" stroke-linejoin="round"/>
<path d="M528.76 564.13V586.3" stroke="#2A2824" stroke-width="1.8" stroke-linecap="round" stroke-linejoin="round"/>
<path d="M548.61 575.59L528.76 564.13" stroke="#2A2824" stroke-width="1.8" stroke-linecap="round" stroke-linejoin="round"/>
<path d="M557.08 570.7L557.07 570.88V571.05L557.06 571.23L557.05 571.4L557.04 571.57L557.03 571.74L557.01 571.9L556.99 572.06L556.97 572.22L556.94 572.38L556.91 572.53L556.88 572.69L556.85 572.84L556.81 572.98L556.77 573.13L556.73 573.27L556.69 573.41L556.64 573.54L556.6 573.68L556.55 573.81L556.49 573.94L556.44 574.06L556.38 574.18L556.32 574.3L556.26 574.42L556.2 574.54L556.13 574.65L556.06 574.76L555.99 574.87L555.91 574.97L555.84 575.08L555.77 575.17L555.7 575.25L555.63 575.33L555.57 575.4L555.51 575.47L555.44 575.54L555.37 575.6L555.3 575.67L555.22 575.74L555.15 575.8L555.07 575.86L555 575.92L554.92 575.97L554.84 576.03L554.76 576.08L554.68 576.13L554.6 576.18L554.51 576.23L554.43 576.27L554.34 576.32L554.26 576.36L554.17 576.4L554.08 576.43L553.99 576.47L553.9 576.5L553.81 576.53L553.71 576.56L553.62 576.59L553.52 576.61L553.43 576.63L553.34 576.65L553.24 576.67L553.13 576.69L553.02 576.7L552.89 576.72L552.76 576.73L552.63 576.74H552.5L552.37 576.75L552.24 576.74H552.11L551.98 576.73L551.84 576.72L551.7 576.7L551.57 576.68L551.43 576.66L551.29 576.64L551.15 576.61L551.01 576.57L550.86 576.54L550.72 576.5L550.57 576.46L550.43 576.41L550.28 576.36L550.13 576.31L549.98 576.25L549.84 576.19L549.68 576.13L549.53 576.06L549.38 575.99L549.23 575.92L549.08 575.84L548.92 575.76L548.77 575.67L548.61 575.59" stroke="#2A2824" stroke-width="1.8" stroke-linecap="round" stroke-linejoin="round"/>
<path d="M584.17 555.06V555.16L584.16 555.27V555.37V555.47V555.57L584.15 555.67L584.14 555.77V555.86L584.13 555.96L584.12 556.06L584.11 556.15L584.1 556.25L584.09 556.34L584.08 556.43L584.06 556.53L584.05 556.62L584.04 556.71L584.02 556.8L584 556.88L583.99 556.97L583.97 557.06L583.95 557.15L583.93 557.23L583.91 557.32L583.89 557.4L583.87 557.48L583.84 557.56L583.82 557.64L583.79 557.73L583.77 557.81L583.74 557.89L583.71 557.96L583.69 558.02L583.67 558.08L583.65 558.14L583.62 558.2L583.6 558.25L583.58 558.31L583.55 558.37L583.53 558.43L583.5 558.48L583.47 558.54L583.45 558.59L583.42 558.65L583.39 558.7L583.37 558.75L583.34 558.81L583.31 558.86L583.28 558.91L583.25 558.96L583.22 559.01L583.19 559.06L583.16 559.11L583.13 559.16L583.09 559.21L583.06 559.25L583.03 559.3L583 559.35L582.96 559.39L582.93 559.44L582.89 559.48L582.86 559.53L582.82 559.57L582.79 559.61L582.76 559.65L582.72 559.69L582.69 559.72L582.66 559.75L582.63 559.79L582.6 559.82L582.57 559.85L582.54 559.89L582.51 559.92L582.47 559.95L582.44 559.98L582.41 560.01L582.37 560.04L582.34 560.07L582.31 560.1L582.27 560.13L582.24 560.16L582.2 560.19L582.17 560.22L582.13 560.24L582.1 560.27L582.06 560.3L582.02 560.32L581.99 560.35L581.95 560.37L581.91 560.4L581.88 560.42L581.84 560.45L581.8 560.47L581.76 560.5L581.72 560.52L581.69 560.54" stroke="#2A2824" stroke-width="1.8" stroke-linecap="round" stroke-linejoin="round"/>
<path d="M548.61 556.04L548.74 556.11L548.87 556.19L548.99 556.27L549.12 556.35L549.25 556.43L549.37 556.52L549.5 556.6L549.63 556.69L549.75 556.78L549.87 556.88L550 556.97L550.12 557.06L550.24 557.16L550.36 557.26L550.48 557.36L550.6 557.46L550.72 557.57L550.84 557.67L550.96 557.78L551.08 557.88L551.19 557.99L551.31 558.1L551.43 558.22L551.54 558.33L551.66 558.45L551.77 558.57L551.88 558.69L551.99 558.8L552.09 558.91L552.2 559.03L552.31 559.15L552.43 559.29L552.56 559.45L552.71 559.63L552.87 559.82L553.02 560.01L553.16 560.2L553.31 560.39L553.44 560.58L553.58 560.76L553.71 560.96L553.84 561.15L553.98 561.35L554.1 561.55L554.23 561.75L554.36 561.95L554.48 562.15L554.6 562.36L554.71 562.56L554.83 562.77L554.94 562.98L555.05 563.19L555.16 563.4L555.27 563.61L555.37 563.82L555.47 564.04L555.56 564.25L555.66 564.46L555.75 564.68L555.84 564.9L555.93 565.13L556.02 565.35L556.1 565.57L556.17 565.77L556.23 565.94L556.28 566.1L556.33 566.25L556.37 566.39L556.42 566.54L556.47 566.7L556.51 566.86L556.56 567.02L556.6 567.17L556.64 567.33L556.67 567.49L556.71 567.64L556.75 567.8L556.78 567.95L556.81 568.11L556.84 568.26L556.87 568.42L556.89 568.57L556.92 568.73L556.94 568.88L556.96 569.04L556.98 569.19L557 569.34L557.02 569.49L557.03 569.65L557.04 569.8L557.05 569.95L557.06 570.1L557.07 570.25V570.4V570.55L557.08 570.7" stroke="#2A2824" stroke-width="1.8" stroke-linecap="round" stroke-linejoin="round"/>
<path d="M578.74 542.8L578.83 542.9L578.93 543L579.02 543.1L579.12 543.2L579.21 543.3L579.3 543.4L579.4 543.51L579.49 543.61L579.58 543.72L579.67 543.83L579.76 543.93L579.85 544.04L579.94 544.15L580.02 544.26L580.11 544.37L580.2 544.49L580.28 544.6L580.37 544.71L580.45 544.83L580.54 544.94L580.62 545.05L580.7 545.17L580.78 545.29L580.86 545.41L580.94 545.52L581.02 545.64L581.1 545.76L581.18 545.88L581.25 546L581.33 546.12L581.4 546.24L581.48 546.37L581.56 546.5L581.65 546.65L581.73 546.8L581.82 546.95L581.9 547.1L581.98 547.25L582.06 547.4L582.14 547.54L582.22 547.69L582.29 547.84L582.37 547.99L582.44 548.15L582.51 548.3L582.58 548.45L582.65 548.6L582.72 548.76L582.79 548.91L582.85 549.06L582.91 549.22L582.98 549.37L583.04 549.53L583.1 549.68L583.15 549.84L583.21 549.99L583.27 550.15L583.32 550.3L583.37 550.46L583.42 550.61L583.47 550.78L583.52 550.94L583.57 551.09L583.61 551.24L583.64 551.37L583.68 551.49L583.71 551.61L583.74 551.72L583.76 551.84L583.79 551.96L583.82 552.09L583.85 552.21L583.87 552.33L583.9 552.45L583.92 552.57L583.94 552.69L583.96 552.81L583.98 552.93L584 553.05L584.02 553.17L584.04 553.29L584.06 553.41L584.07 553.53L584.08 553.65L584.1 553.77L584.11 553.89L584.12 554.01L584.13 554.13L584.14 554.24L584.15 554.36V554.48L584.16 554.6V554.71V554.83L584.17 554.94V555.06" stroke="#2A2824" stroke-width="1.8" stroke-linecap="round" stroke-linejoin="round"/>
<path d="M528.76 544.57L548.61 556.04" stroke="#2A2824" stroke-width="1.8" stroke-linecap="round" stroke-linejoin="round"/>
<path d="M528.76 544.57L547.91 533.52" stroke="#2A2824" stroke-width="1.8" stroke-linecap="round" stroke-linejoin="round"/>
<path d="M528.76 522.46V544.57" stroke="#2A2824" stroke-width="1.8" stroke-linecap="round" stroke-linejoin="round"/>
<path d="M567.86 545.03L528.76 522.46" stroke="#2A2824" stroke-width="1.8" stroke-linecap="round" stroke-linejoin="round"/>
<path d="M576.32 540.14V540.32L576.31 540.5V540.67L576.3 540.84L576.29 541.01L576.27 541.18L576.26 541.35L576.23 541.51L576.21 541.67L576.19 541.82L576.16 541.98L576.13 542.13L576.09 542.28L576.06 542.42L576.02 542.57L575.98 542.71L575.94 542.85L575.89 542.99L575.84 543.12L575.79 543.25L575.74 543.38L575.68 543.5L575.63 543.63L575.57 543.75L575.51 543.86L575.44 543.98L575.38 544.09L575.31 544.2L575.24 544.31L575.16 544.42L575.09 544.52L575.01 544.61L574.95 544.69L574.88 544.77L574.82 544.84L574.75 544.91L574.68 544.98L574.61 545.05L574.54 545.11L574.47 545.18L574.39 545.24L574.32 545.3L574.24 545.36L574.16 545.42L574.09 545.47L574.01 545.52L573.93 545.58L573.84 545.62L573.76 545.67L573.67 545.72L573.59 545.76L573.5 545.8L573.41 545.84L573.33 545.88L573.24 545.91L573.14 545.94L573.05 545.97L572.96 546L572.86 546.03L572.77 546.05L572.68 546.08L572.58 546.1L572.49 546.11L572.38 546.13L572.26 546.15L572.14 546.16L572.01 546.17L571.88 546.18L571.75 546.19H571.62H571.49L571.36 546.18L571.22 546.17L571.09 546.16L570.95 546.14L570.81 546.13L570.67 546.1L570.53 546.08L570.39 546.05L570.25 546.02L570.11 545.98L569.96 545.94L569.82 545.9L569.67 545.85L569.53 545.81L569.38 545.75L569.23 545.7L569.08 545.64L568.93 545.57L568.78 545.51L568.63 545.44L568.48 545.36L568.32 545.28L568.17 545.2L568.01 545.12L567.86 545.03" stroke="#2A2824" stroke-width="1.8" stroke-linecap="round" stroke-linejoin="round"/>
<path d="M603.41 524.5V524.61V524.71V524.81V524.91L603.4 525.01V525.11L603.39 525.21L603.38 525.31V525.4L603.37 525.5L603.36 525.6L603.35 525.69L603.34 525.78L603.32 525.88L603.31 525.97L603.3 526.06L603.28 526.15L603.27 526.24L603.25 526.33L603.23 526.42L603.21 526.5L603.19 526.59L603.18 526.67L603.15 526.76L603.13 526.84L603.11 526.92L603.09 527L603.06 527.09L603.04 527.17L603.01 527.25L602.99 527.33L602.96 527.4L602.94 527.47L602.91 527.53L602.89 527.58L602.87 527.64L602.85 527.7L602.82 527.75L602.8 527.81L602.77 527.87L602.75 527.93L602.72 527.98L602.69 528.04L602.67 528.09L602.64 528.14L602.61 528.2L602.58 528.25L602.55 528.3L602.52 528.35L602.5 528.4L602.47 528.45L602.43 528.5L602.4 528.55L602.37 528.6L602.34 528.65L602.31 528.7L602.28 528.74L602.24 528.79L602.21 528.84L602.17 528.88L602.14 528.93L602.1 528.97L602.07 529.02L602.03 529.06L602 529.09L601.97 529.13L601.94 529.16L601.91 529.2L601.88 529.23L601.85 529.26L601.82 529.3L601.78 529.33L601.75 529.36L601.72 529.39L601.69 529.42L601.65 529.45L601.62 529.48L601.59 529.51L601.55 529.54L601.52 529.57L601.48 529.6L601.45 529.63L601.41 529.66L601.38 529.69L601.34 529.71L601.31 529.74L601.27 529.77L601.23 529.79L601.2 529.82L601.16 529.84L601.12 529.87L601.08 529.89L601.05 529.91L601.01 529.94L600.97 529.96L600.93 529.98" stroke="#2A2824" stroke-width="1.8" stroke-linecap="round" stroke-linejoin="round"/>
<path d="M567.86 525.48L567.99 525.56L568.11 525.64L568.24 525.71L568.37 525.79L568.49 525.88L568.62 525.96L568.75 526.05L568.87 526.14L569 526.23L569.12 526.32L569.24 526.41L569.37 526.51L569.49 526.6L569.61 526.7L569.73 526.8L569.85 526.9L569.97 527.01L570.09 527.11L570.21 527.22L570.32 527.33L570.44 527.44L570.56 527.55L570.67 527.66L570.79 527.77L570.9 527.89L571.02 528.01L571.13 528.13L571.24 528.24L571.34 528.36L571.44 528.47L571.55 528.59L571.67 528.73L571.81 528.89L571.96 529.07L572.11 529.26L572.26 529.45L572.41 529.64L572.55 529.83L572.69 530.02L572.82 530.21L572.96 530.4L573.09 530.59L573.22 530.79L573.35 530.99L573.48 531.19L573.6 531.39L573.72 531.6L573.84 531.8L573.96 532.01L574.08 532.21L574.19 532.42L574.3 532.63L574.41 532.84L574.51 533.05L574.61 533.27L574.71 533.48L574.81 533.69L574.9 533.9L575 534.12L575.09 534.34L575.18 534.57L575.26 534.8L575.34 535.01L575.41 535.21L575.48 535.39L575.53 535.54L575.58 535.69L575.62 535.84L575.67 535.99L575.71 536.14L575.76 536.3L575.8 536.46L575.84 536.62L575.88 536.77L575.92 536.93L575.96 537.08L575.99 537.24L576.02 537.39L576.06 537.55L576.09 537.71L576.11 537.86L576.14 538.02L576.17 538.17L576.19 538.32L576.21 538.48L576.23 538.63L576.25 538.78L576.26 538.94L576.28 539.09L576.29 539.24L576.3 539.39L576.31 539.54V539.7L576.32 539.85V539.99V540.14" stroke="#2A2824" stroke-width="1.8" stroke-linecap="round" stroke-linejoin="round"/>
<path d="M594.95 509.84L595.08 509.92L595.2 509.99L595.33 510.07L595.46 510.15L595.59 510.24L595.71 510.32L595.84 510.41L595.96 510.5L596.09 510.59L596.21 510.68L596.33 510.77L596.46 510.87L596.58 510.96L596.7 511.06L596.82 511.16L596.94 511.26L597.06 511.37L597.18 511.47L597.3 511.58L597.41 511.69L597.53 511.8L597.65 511.91L597.76 512.02L597.88 512.13L597.99 512.25L598.11 512.37L598.22 512.49L598.33 512.6L598.43 512.71L598.53 512.83L598.64 512.95L598.76 513.09L598.9 513.25L599.05 513.43L599.2 513.62L599.35 513.81L599.5 514L599.64 514.19L599.78 514.38L599.91 514.57L600.05 514.76L600.18 514.95L600.31 515.15L600.44 515.35L600.57 515.55L600.69 515.75L600.81 515.96L600.93 516.16L601.05 516.37L601.17 516.57L601.28 516.78L601.39 516.99L601.5 517.2L601.6 517.41L601.7 517.63L601.8 517.84L601.9 518.05L601.99 518.26L602.09 518.48L602.18 518.7L602.27 518.93L602.35 519.15L602.43 519.37L602.51 519.57L602.57 519.75L602.62 519.9L602.67 520.05L602.71 520.19L602.76 520.35L602.8 520.5L602.85 520.66L602.89 520.82L602.93 520.98L602.97 521.13L603.01 521.29L603.05 521.44L603.08 521.6L603.12 521.75L603.15 521.91L603.18 522.06L603.2 522.22L603.23 522.37L603.26 522.53L603.28 522.68L603.3 522.84L603.32 522.99L603.34 523.14L603.35 523.3L603.37 523.45L603.38 523.6L603.39 523.75L603.4 523.9V524.05L603.41 524.2V524.35V524.5" stroke="#2A2824" stroke-width="1.8" stroke-linecap="round" stroke-linejoin="round"/>
<path d="M528.76 502.91L567.86 525.48" stroke="#2A2824" stroke-width="1.8" stroke-linecap="round" stroke-linejoin="round"/>
<path d="M560.05 489.69L594.95 509.84" stroke="#2A2824" stroke-width="1.8" stroke-linecap="round" stroke-linejoin="round"/>
<path d="M528.76 502.91L547.91 491.85" stroke="#2A2824" stroke-width="1.8" stroke-linecap="round" stroke-linejoin="round"/>
<path d="M528.76 480.79V502.91" stroke="#2A2824" stroke-width="1.8" stroke-linecap="round" stroke-linejoin="round"/>
<path d="M548.61 492.25L528.76 480.79" stroke="#2A2824" stroke-width="1.8" stroke-linecap="round" stroke-linejoin="round"/>
<path d="M557.08 487.36L557.07 487.54V487.72L557.06 487.89L557.05 488.06L557.04 488.23L557.03 488.4L557.01 488.56L556.99 488.73L556.97 488.89L556.94 489.04L556.91 489.2L556.88 489.35L556.85 489.5L556.81 489.64L556.77 489.79L556.73 489.93L556.69 490.07L556.64 490.2L556.6 490.34L556.55 490.47L556.49 490.6L556.44 490.72L556.38 490.85L556.32 490.97L556.26 491.08L556.2 491.2L556.13 491.31L556.06 491.42L555.99 491.53L555.91 491.64L555.84 491.74L555.77 491.83L555.7 491.91L555.63 491.99L555.57 492.06L555.51 492.13L555.44 492.2L555.37 492.27L555.3 492.33L555.22 492.4L555.15 492.46L555.07 492.52L555 492.58L554.92 492.64L554.84 492.69L554.76 492.74L554.68 492.79L554.6 492.84L554.51 492.89L554.43 492.94L554.34 492.98L554.26 493.02L554.17 493.06L554.08 493.09L553.99 493.13L553.9 493.16L553.81 493.19L553.71 493.22L553.62 493.25L553.52 493.27L553.43 493.3L553.34 493.32L553.24 493.33L553.13 493.35L553.02 493.37L552.89 493.38L552.76 493.39L552.63 493.4L552.5 493.41H552.37H552.24L552.11 493.4L551.98 493.39L551.84 493.38L551.7 493.36L551.57 493.34L551.43 493.32L551.29 493.3L551.15 493.27L551.01 493.24L550.86 493.2L550.72 493.16L550.57 493.12L550.43 493.07L550.28 493.02L550.13 492.97L549.98 492.92L549.84 492.86L549.69 492.79L549.53 492.73L549.38 492.66L549.23 492.58L549.08 492.5L548.92 492.42L548.77 492.34L548.61 492.25" stroke="#2A2824" stroke-width="1.8" stroke-linecap="round" stroke-linejoin="round"/>
<path d="M584.17 471.72V471.83L584.16 471.93V472.03V472.13V472.23L584.15 472.33L584.14 472.43V472.53L584.13 472.62L584.12 472.72L584.11 472.81L584.1 472.91L584.09 473L584.08 473.1L584.06 473.19L584.05 473.28L584.04 473.37L584.02 473.46L584 473.55L583.99 473.63L583.97 473.72L583.95 473.81L583.93 473.89L583.91 473.98L583.89 474.06L583.87 474.14L583.84 474.22L583.82 474.31L583.79 474.39L583.77 474.47L583.74 474.55L583.71 474.62L583.69 474.69L583.67 474.75L583.65 474.8L583.62 474.86L583.6 474.92L583.58 474.97L583.55 475.03L583.53 475.09L583.5 475.14L583.47 475.2L583.45 475.25L583.42 475.31L583.39 475.36L583.37 475.42L583.34 475.47L583.31 475.52L583.28 475.57L583.25 475.62L583.22 475.67L583.19 475.72L583.16 475.77L583.13 475.82L583.09 475.87L583.06 475.92L583.03 475.96L583 476.01L582.96 476.05L582.93 476.1L582.89 476.15L582.86 476.19L582.82 476.24L582.79 476.28L582.76 476.31L582.73 476.35L582.7 476.38L582.67 476.41L582.63 476.45L582.6 476.48L582.57 476.51L582.54 476.55L582.51 476.58L582.47 476.61L582.44 476.64L582.41 476.67L582.37 476.7L582.34 476.73L582.31 476.76L582.27 476.79L582.24 476.82L582.2 476.85L582.17 476.88L582.13 476.91L582.1 476.93L582.06 476.96L582.02 476.99L581.99 477.01L581.95 477.04L581.91 477.06L581.88 477.09L581.84 477.11L581.8 477.13L581.76 477.16L581.73 477.18L581.69 477.2" stroke="#2A2824" stroke-width="1.8" stroke-linecap="round" stroke-linejoin="round"/>
<path d="M548.61 472.7L548.74 472.78L548.87 472.85L548.99 472.93L549.12 473.01L549.25 473.1L549.37 473.18L549.5 473.27L549.63 473.36L549.75 473.45L549.87 473.54L550 473.63L550.12 473.73L550.24 473.82L550.36 473.92L550.48 474.02L550.6 474.12L550.72 474.23L550.84 474.33L550.96 474.44L551.08 474.55L551.19 474.66L551.31 474.77L551.43 474.88L551.54 474.99L551.66 475.11L551.77 475.23L551.88 475.35L551.99 475.46L552.09 475.57L552.2 475.69L552.31 475.81L552.43 475.95L552.56 476.11L552.71 476.29L552.87 476.48L553.02 476.67L553.16 476.86L553.31 477.05L553.44 477.24L553.58 477.43L553.71 477.62L553.84 477.81L553.98 478.01L554.1 478.21L554.23 478.41L554.36 478.61L554.48 478.82L554.6 479.02L554.71 479.22L554.83 479.43L554.94 479.64L555.05 479.85L555.16 480.06L555.26 480.27L555.37 480.49L555.47 480.7L555.56 480.91L555.66 481.12L555.75 481.34L555.84 481.56L555.93 481.79L556.02 482.01L556.1 482.23L556.17 482.43L556.23 482.61L556.28 482.76L556.33 482.91L556.37 483.05L556.42 483.21L556.47 483.36L556.51 483.52L556.56 483.68L556.6 483.84L556.64 483.99L556.67 484.15L556.71 484.3L556.75 484.46L556.78 484.61L556.81 484.77L556.84 484.92L556.87 485.08L556.89 485.23L556.92 485.39L556.94 485.54L556.96 485.7L556.98 485.85L557 486L557.02 486.16L557.03 486.31L557.04 486.46L557.05 486.61L557.06 486.76L557.07 486.91V487.06V487.21L557.08 487.36" stroke="#2A2824" stroke-width="1.8" stroke-linecap="round" stroke-linejoin="round"/>
<path d="M584.15 471.04V471.05V471.06V471.07V471.08V471.09V471.1V471.11V471.12V471.13V471.14V471.15V471.16V471.17V471.18V471.19V471.2L584.16 471.21V471.22V471.23V471.24V471.25V471.26V471.27V471.28V471.29V471.3V471.31V471.32V471.33V471.34V471.35V471.36V471.37V471.38V471.39V471.4V471.41V471.42V471.43V471.44V471.45V471.46V471.47V471.48V471.49V471.5V471.51V471.52V471.53L584.17 471.54V471.55V471.56V471.57V471.58V471.59V471.6V471.61V471.62V471.63V471.64V471.65V471.66V471.67V471.68V471.69V471.7V471.71V471.72" stroke="#2A2824" stroke-width="1.8" stroke-linecap="round" stroke-linejoin="round"/>
<path d="M528.76 461.24L548.61 472.7" stroke="#2A2824" stroke-width="1.8" stroke-linecap="round" stroke-linejoin="round"/>
<path d="M528.76 461.24L547.96 450.15" stroke="#2A2824" stroke-width="1.8" stroke-linecap="round" stroke-linejoin="round"/>
<path d="M528.76 439.06V461.24" stroke="#2A2824" stroke-width="1.8" stroke-linecap="round" stroke-linejoin="round"/>
<path d="M655.98 512.51L528.76 439.06" stroke="#2A2824" stroke-width="1.8" stroke-linecap="round" stroke-linejoin="round"/>
<path d="M658.8 494.59L659.01 494.72L659.23 494.85L659.44 494.98L659.65 495.11L659.86 495.25L660.07 495.39L660.28 495.54L660.49 495.68L660.7 495.83L660.9 495.99L661.11 496.14L661.31 496.3L661.52 496.46L661.72 496.63L661.92 496.79L662.12 496.96L662.32 497.14L662.52 497.31L662.72 497.49L662.91 497.67L663.11 497.85L663.3 498.03L663.49 498.22L663.68 498.41L663.88 498.61L664.07 498.81L664.25 499L664.43 499.19L664.61 499.38L664.78 499.57L664.96 499.78L665.16 500.01L665.39 500.28L665.64 500.58L665.89 500.89L666.14 501.21L666.39 501.53L666.62 501.84L666.85 502.15L667.08 502.47L667.3 502.79L667.52 503.11L667.74 503.44L667.96 503.77L668.17 504.11L668.37 504.44L668.58 504.78L668.78 505.12L668.97 505.47L669.16 505.81L669.35 506.16L669.53 506.51L669.71 506.86L669.89 507.21L670.06 507.57L670.23 507.92L670.39 508.27L670.54 508.63L670.7 508.99L670.85 509.36L671 509.74L671.14 510.12L671.28 510.48L671.4 510.81L671.5 511.1L671.59 511.36L671.66 511.61L671.74 511.85L671.82 512.1L671.89 512.36L671.97 512.62L672.04 512.89L672.11 513.15L672.18 513.41L672.24 513.67L672.3 513.93L672.36 514.19L672.41 514.45L672.47 514.71L672.52 514.97L672.56 515.22L672.61 515.48L672.65 515.74L672.69 516L672.72 516.25L672.75 516.51L672.78 516.76L672.81 517.02L672.83 517.27L672.85 517.53L672.87 517.78L672.88 518.03L672.89 518.28L672.9 518.53L672.91 518.78V519.03" stroke="#2A2824" stroke-width="1.8" stroke-linecap="round" stroke-linejoin="round"/>
<path d="M685.89 478.95L686.1 479.08L686.32 479.21L686.53 479.34L686.74 479.47L686.95 479.61L687.16 479.75L687.37 479.9L687.58 480.04L687.79 480.19L687.99 480.35L688.2 480.5L688.4 480.66L688.61 480.82L688.81 480.99L689.01 481.15L689.21 481.32L689.41 481.5L689.61 481.67L689.81 481.85L690 482.03L690.2 482.21L690.39 482.39L690.58 482.58L690.77 482.77L690.97 482.97L691.16 483.17L691.34 483.36L691.52 483.55L691.7 483.74L691.87 483.93L692.05 484.14L692.25 484.37L692.48 484.64L692.73 484.94L692.98 485.25L693.23 485.57L693.48 485.89L693.71 486.2L693.94 486.51L694.17 486.83L694.39 487.15L694.61 487.47L694.83 487.8L695.05 488.13L695.26 488.47L695.46 488.8L695.67 489.14L695.87 489.48L696.06 489.82L696.25 490.17L696.44 490.52L696.62 490.87L696.8 491.22L696.98 491.57L697.15 491.93L697.32 492.28L697.48 492.63L697.63 492.99L697.79 493.35L697.94 493.72L698.09 494.1L698.23 494.48L698.37 494.84L698.49 495.17L698.59 495.46L698.68 495.72L698.75 495.97L698.83 496.21L698.91 496.46L698.98 496.72L699.06 496.98L699.13 497.25L699.2 497.51L699.27 497.77L699.33 498.03L699.39 498.29L699.45 498.55L699.5 498.81L699.56 499.07L699.61 499.33L699.65 499.58L699.7 499.84L699.74 500.1L699.78 500.36L699.81 500.61L699.84 500.87L699.87 501.12L699.9 501.38L699.92 501.63L699.94 501.89L699.96 502.14L699.97 502.39L699.98 502.64L699.99 502.89L700 503.14V503.39" stroke="#2A2824" stroke-width="1.8" stroke-linecap="round" stroke-linejoin="round"/>
<path d="M525.93 417.88L658.8 494.59" stroke="#2A2824" stroke-width="1.8" stroke-linecap="round" stroke-linejoin="round"/>
<path d="M553.02 402.24L685.89 478.95" stroke="#2A2824" stroke-width="1.8" stroke-linecap="round" stroke-linejoin="round"/>
<path d="M511.82 426.03L511.83 425.73L511.84 425.44L511.85 425.15L511.86 424.86L511.88 424.58L511.91 424.3L511.94 424.02L511.97 423.75L512.01 423.49L512.05 423.23L512.1 422.97L512.15 422.72L512.21 422.47L512.27 422.22L512.33 421.98L512.4 421.75L512.47 421.52L512.54 421.29L512.62 421.07L512.71 420.85L512.8 420.63L512.89 420.42L512.98 420.22L513.08 420.02L513.18 419.83L513.29 419.64L513.4 419.45L513.51 419.26L513.64 419.08L513.76 418.9L513.89 418.74L514.01 418.58L514.12 418.44L514.23 418.32L514.33 418.2L514.44 418.08L514.56 417.97L514.67 417.86L514.79 417.74L514.91 417.63L515.04 417.53L515.16 417.43L515.29 417.33L515.42 417.24L515.55 417.15L515.68 417.06L515.82 416.97L515.96 416.89L516.1 416.81L516.24 416.74L516.38 416.67L516.52 416.6L516.67 416.54L516.82 416.47L516.97 416.42L517.12 416.36L517.28 416.31L517.43 416.26L517.59 416.22L517.74 416.18L517.9 416.14L518.05 416.11L518.22 416.08L518.39 416.05L518.59 416.02L518.8 416L519.01 415.98L519.23 415.96H519.45L519.67 415.95L519.88 415.96L520.1 415.97L520.33 415.98L520.55 416L520.78 416.03L521.01 416.06L521.24 416.09L521.47 416.14L521.71 416.18L521.94 416.24L522.18 416.3L522.42 416.36L522.66 416.43L522.91 416.51L523.15 416.59L523.4 416.68L523.64 416.77L523.89 416.87L524.14 416.98L524.4 417.09L524.65 417.2L524.9 417.33L525.16 417.46L525.42 417.6L525.68 417.74L525.93 417.88" stroke="#2A2824" stroke-width="1.8" stroke-linecap="round" stroke-linejoin="round"/>
<path d="M543.05 401.25L543.11 401.22L543.18 401.18L543.24 401.14L543.31 401.11L543.37 401.08L543.44 401.04L543.51 401.01L543.57 400.98L543.64 400.95L543.71 400.92L543.78 400.89L543.85 400.86L543.92 400.83L543.99 400.8L544.06 400.78L544.13 400.75L544.2 400.73L544.27 400.7L544.34 400.68L544.41 400.65L544.48 400.63L544.56 400.61L544.63 400.59L544.7 400.57L544.78 400.55L544.85 400.53L544.93 400.51L545 400.5L545.07 400.48L545.15 400.47L545.22 400.45L545.3 400.44L545.39 400.42L545.48 400.41L545.58 400.39L545.67 400.38L545.77 400.37L545.86 400.36L545.96 400.35L546.05 400.34L546.15 400.33H546.24L546.34 400.32H546.43H546.53L546.63 400.31H546.73H546.83L546.93 400.32H547.03H547.13L547.23 400.33H547.33L547.43 400.34L547.53 400.35L547.63 400.36L547.74 400.37L547.84 400.38L547.94 400.4L548.04 400.41L548.14 400.42L548.24 400.44L548.35 400.46L548.46 400.48L548.59 400.5L548.72 400.53L548.86 400.56L549 400.59L549.14 400.62L549.28 400.66L549.42 400.7L549.55 400.73L549.69 400.77L549.83 400.82L549.97 400.86L550.11 400.91L550.25 400.96L550.4 401.01L550.54 401.06L550.68 401.11L550.82 401.17L550.97 401.23L551.11 401.28L551.26 401.35L551.4 401.41L551.55 401.48L551.69 401.54L551.84 401.61L551.99 401.68L552.13 401.76L552.28 401.83L552.43 401.91L552.58 401.99L552.73 402.07L552.87 402.16L553.02 402.24" stroke="#2A2824" stroke-width="1.8" stroke-linecap="round" stroke-linejoin="round"/>
<path d="M511.82 579.78V426.03" stroke="#2A2824" stroke-width="1.8" stroke-linecap="round" stroke-linejoin="round"/>
<path d="M525.93 604.22L525.72 604.09L525.51 603.96L525.29 603.83L525.08 603.7L524.87 603.56L524.66 603.42L524.45 603.28L524.24 603.13L524.04 602.98L523.83 602.82L523.62 602.67L523.42 602.51L523.22 602.35L523.01 602.18L522.81 602.02L522.61 601.85L522.41 601.67L522.21 601.5L522.02 601.32L521.82 601.14L521.63 600.96L521.43 600.78L521.24 600.59L521.05 600.4L520.86 600.2L520.67 600L520.48 599.81L520.3 599.62L520.13 599.43L519.95 599.24L519.77 599.03L519.57 598.8L519.34 598.53L519.1 598.23L518.84 597.92L518.59 597.6L518.34 597.28L518.11 596.97L517.88 596.66L517.66 596.34L517.43 596.02L517.21 595.7L516.99 595.37L516.78 595.04L516.57 594.7L516.36 594.37L516.16 594.03L515.96 593.69L515.76 593.34L515.57 593L515.38 592.65L515.2 592.3L515.02 591.95L514.84 591.6L514.67 591.24L514.51 590.89L514.35 590.54L514.19 590.18L514.04 589.82L513.88 589.45L513.73 589.07L513.59 588.7L513.46 588.33L513.34 588L513.24 587.71L513.15 587.45L513.07 587.2L512.99 586.96L512.92 586.71L512.84 586.45L512.77 586.19L512.69 585.92L512.62 585.66L512.56 585.4L512.49 585.14L512.43 584.88L512.38 584.62L512.32 584.36L512.27 584.1L512.22 583.85L512.17 583.59L512.13 583.33L512.09 583.07L512.05 582.81L512.01 582.56L511.98 582.3L511.95 582.05L511.92 581.79L511.9 581.54L511.88 581.28L511.86 581.03L511.85 580.78L511.84 580.53L511.83 580.28V580.03L511.82 579.78" stroke="#2A2824" stroke-width="1.8" stroke-linecap="round" stroke-linejoin="round"/>
<path d="M658.8 680.93L525.93 604.22" stroke="#2A2824" stroke-width="1.8" stroke-linecap="round" stroke-linejoin="round"/>
<path d="M672.91 672.78L672.9 673.08V673.37L672.89 673.66L672.87 673.95L672.85 674.24L672.83 674.51L672.8 674.79L672.76 675.06L672.72 675.32L672.68 675.58L672.64 675.84L672.58 676.09L672.53 676.34L672.47 676.59L672.41 676.83L672.34 677.06L672.27 677.29L672.19 677.52L672.11 677.74L672.03 677.96L671.94 678.18L671.85 678.39L671.75 678.59L671.65 678.79L671.55 678.99L671.45 679.18L671.33 679.36L671.22 679.55L671.1 679.73L670.97 679.91L670.85 680.08L670.73 680.23L670.62 680.37L670.51 680.5L670.4 680.61L670.29 680.73L670.18 680.84L670.06 680.96L669.94 681.07L669.82 681.18L669.69 681.28L669.57 681.38L669.44 681.48L669.31 681.57L669.18 681.66L669.05 681.75L668.91 681.84L668.78 681.92L668.64 682L668.5 682.07L668.35 682.14L668.21 682.21L668.06 682.28L667.92 682.34L667.77 682.4L667.61 682.45L667.46 682.5L667.3 682.55L667.14 682.59L666.99 682.63L666.83 682.67L666.68 682.71L666.52 682.74L666.34 682.76L666.14 682.79L665.94 682.81L665.72 682.83L665.5 682.85L665.28 682.86H665.07L664.85 682.85L664.63 682.84L664.41 682.83L664.18 682.81L663.96 682.78L663.73 682.75L663.49 682.72L663.26 682.67L663.03 682.63L662.79 682.57L662.55 682.51L662.31 682.45L662.07 682.38L661.83 682.3L661.58 682.22L661.34 682.13L661.09 682.04L660.84 681.94L660.59 681.83L660.34 681.72L660.09 681.61L659.83 681.48L659.57 681.35L659.32 681.21L659.06 681.07L658.8 680.93" stroke="#2A2824" stroke-width="1.8" stroke-linecap="round" stroke-linejoin="round"/>
<path d="M700 657.14V657.31V657.49L699.99 657.66V657.82L699.98 657.99L699.97 658.16L699.96 658.32L699.95 658.48L699.94 658.64L699.92 658.8L699.91 658.96L699.89 659.12L699.87 659.28L699.85 659.43L699.83 659.59L699.81 659.74L699.78 659.89L699.76 660.04L699.73 660.18L699.7 660.33L699.67 660.48L699.64 660.62L699.6 660.76L699.57 660.9L699.53 661.04L699.5 661.18L699.46 661.31L699.42 661.45L699.38 661.59L699.33 661.72L699.29 661.85L699.25 661.98L699.21 662.08L699.17 662.18L699.13 662.28L699.1 662.37L699.06 662.47L699.02 662.56L698.98 662.66L698.93 662.75L698.89 662.85L698.85 662.94L698.8 663.03L698.76 663.12L698.71 663.21L698.67 663.3L698.62 663.39L698.57 663.47L698.52 663.56L698.47 663.64L698.42 663.73L698.37 663.81L698.32 663.89L698.27 663.97L698.21 664.05L698.16 664.13L698.1 664.21L698.05 664.29L697.99 664.36L697.94 664.44L697.88 664.52L697.82 664.59L697.76 664.66L697.7 664.73L697.65 664.79L697.6 664.85L697.55 664.91L697.5 664.96L697.45 665.02L697.39 665.07L697.34 665.13L697.29 665.18L697.23 665.24L697.18 665.29L697.12 665.34L697.07 665.39L697.01 665.45L696.96 665.5L696.9 665.54L696.84 665.59L696.78 665.64L696.73 665.69L696.67 665.74L696.61 665.78L696.55 665.83L696.49 665.87L696.43 665.91L696.37 665.96L696.31 666L696.25 666.04L696.18 666.08L696.12 666.12L696.06 666.16L695.99 666.2L695.93 666.24L695.87 666.28" stroke="#2A2824" stroke-width="1.8" stroke-linecap="round" stroke-linejoin="round"/>
<path d="M672.91 519.03V672.78" stroke="#2A2824" stroke-width="1.8" stroke-linecap="round" stroke-linejoin="round"/>
<path d="M700 503.39V657.14" stroke="#2A2824" stroke-width="1.8" stroke-linecap="round" stroke-linejoin="round"/>
<path d="M554.6 576.18L581.69 560.54" stroke="#2A2824" stroke-width="1.8" stroke-linecap="round" stroke-linejoin="round"/>
<path d="M573.84 545.62L600.93 529.98" stroke="#2A2824" stroke-width="1.8" stroke-linecap="round" stroke-linejoin="round"/>
<path d="M554.6 492.84L581.69 477.2" stroke="#2A2824" stroke-width="1.8" stroke-linecap="round" stroke-linejoin="round"/>
<path d="M515.96 416.89L543.05 401.25" stroke="#2A2824" stroke-width="1.8" stroke-linecap="round" stroke-linejoin="round"/>
<path d="M668.78 681.92L695.87 666.28" stroke="#2A2824" stroke-width="1.8" stroke-linecap="round" stroke-linejoin="round"/>
</svg>
