<svg width="315" height="107" viewBox="0 0 315 107" fill="none" xmlns="http://www.w3.org/2000/svg">
<path d="M76.2985 26.764H92.2885C99.2858 26.764 104.506 29.1693 107.95 33.98C111.394 38.7907 113.116 45.9247 113.116 55.382C113.116 64.8393 111.394 71.9733 107.95 76.784C104.506 81.5947 99.2858 84 92.2885 84H76.2985V26.764ZM91.9605 78.014C96.5525 78.014 99.9965 76.4287 102.292 73.258C104.643 70.0873 105.818 65.6047 105.818 59.81V50.954C105.818 45.1593 104.643 40.6767 102.292 37.506C99.9965 34.3353 96.5525 32.75 91.9605 32.75H83.1865V78.014H91.9605ZM144.9 32.34C142.987 32.34 141.648 31.9573 140.882 31.192C140.117 30.372 139.734 29.3607 139.734 28.158V26.846C139.734 25.6433 140.117 24.6593 140.882 23.894C141.648 23.074 142.987 22.664 144.9 22.664C146.814 22.664 148.153 23.074 148.918 23.894C149.684 24.6593 150.066 25.6433 150.066 26.846V28.158C150.066 29.3607 149.684 30.372 148.918 31.192C148.153 31.9573 146.814 32.34 144.9 32.34ZM126.368 78.424H141.62V47.264H126.368V41.688H148.18V78.424H162.448V84H126.368V78.424ZM171.272 84V41.688H177.34V46.608H177.668C178.324 44.968 179.254 43.574 180.456 42.426C181.659 41.278 183.436 40.704 185.786 40.704C188.246 40.704 190.078 41.3327 191.28 42.59C192.483 43.7927 193.221 45.378 193.494 47.346H193.74C194.506 45.4327 195.599 43.8473 197.02 42.59C198.442 41.3327 200.41 40.704 202.924 40.704C206.368 40.704 208.664 41.9067 209.812 44.312C211.015 46.7173 211.616 50.1613 211.616 54.644V84H205.548V55.71C205.548 52.102 205.166 49.6147 204.4 48.248C203.69 46.8267 202.35 46.116 200.382 46.116C198.633 46.116 197.212 46.69 196.118 47.838C195.025 48.9313 194.478 50.626 194.478 52.922V84H188.41V55.71C188.41 52.102 188.028 49.6147 187.262 48.248C186.552 46.8267 185.24 46.116 183.326 46.116C181.577 46.116 180.128 46.69 178.98 47.838C177.887 48.9313 177.34 50.626 177.34 52.922V84H171.272ZM241.104 84.984C236.676 84.984 232.85 84.246 229.624 82.77C226.454 81.2393 223.748 79.2167 221.506 76.702L225.934 72.848C227.957 74.98 230.171 76.62 232.576 77.768C234.982 78.916 237.879 79.49 241.268 79.49C244.548 79.49 247.227 78.916 249.304 77.768C251.436 76.5653 252.502 74.7067 252.502 72.192C252.502 71.0987 252.284 70.1967 251.846 69.486C251.464 68.7207 250.917 68.1193 250.206 67.682C249.496 67.2447 248.703 66.9167 247.828 66.698C246.954 66.4247 246.024 66.206 245.04 66.042L238.398 65.058C236.922 64.8393 235.31 64.5387 233.56 64.156C231.866 63.7733 230.308 63.172 228.886 62.352C227.465 61.4773 226.262 60.3293 225.278 58.908C224.349 57.4867 223.884 55.628 223.884 53.332C223.884 51.2 224.294 49.3687 225.114 47.838C225.989 46.2527 227.192 44.9407 228.722 43.902C230.253 42.8087 232.057 42.016 234.134 41.524C236.212 40.9773 238.48 40.704 240.94 40.704C244.767 40.704 248.074 41.3053 250.862 42.508C253.705 43.7107 256.138 45.378 258.16 47.51L253.896 51.528C253.404 50.9267 252.776 50.3253 252.01 49.724C251.3 49.068 250.398 48.494 249.304 48.002C248.266 47.4553 247.036 47.018 245.614 46.69C244.193 46.362 242.553 46.198 240.694 46.198C237.36 46.198 234.79 46.772 232.986 47.92C231.237 49.068 230.362 50.7353 230.362 52.922C230.362 54.0153 230.554 54.9447 230.936 55.71C231.374 56.4207 231.948 56.9947 232.658 57.432C233.369 57.8693 234.162 58.2247 235.036 58.498C235.966 58.7167 236.895 58.908 237.824 59.072L244.466 60.056C245.997 60.2747 247.61 60.5753 249.304 60.958C250.999 61.3407 252.557 61.9693 253.978 62.844C255.4 63.664 256.575 64.7847 257.504 66.206C258.488 67.6273 258.98 69.486 258.98 71.782C258.98 75.9913 257.34 79.244 254.06 81.54C250.835 83.836 246.516 84.984 241.104 84.984ZM289.78 84.738C287.539 84.738 285.954 84.2733 285.024 83.344C284.15 82.4147 283.712 81.2393 283.712 79.818V78.342C283.712 76.9207 284.15 75.7453 285.024 74.816C285.954 73.8867 287.539 73.422 289.78 73.422C292.022 73.422 293.58 73.8867 294.454 74.816C295.384 75.7453 295.848 76.9207 295.848 78.342V79.818C295.848 81.2393 295.384 82.4147 294.454 83.344C293.58 84.2733 292.022 84.738 289.78 84.738Z" fill="black"/>
<path d="M3 80.9839L54.0841 80.9839" stroke="black" stroke-width="6" stroke-linecap="round"/>
<path d="M26.4208 83.1052C27.5923 84.2768 29.4918 84.2768 30.6634 83.1052L49.7553 64.0133C50.9269 62.8418 50.9269 60.9423 49.7553 59.7707C48.5837 58.5991 46.6842 58.5991 45.5126 59.7707L28.5421 76.7412L11.5715 59.7707C10.3999 58.5991 8.50045 58.5991 7.32888 59.7707C6.15731 60.9423 6.15731 62.8418 7.32888 64.0133L26.4208 83.1052ZM31.5421 29.7974C31.5421 28.1405 30.1989 26.7974 28.5421 26.7974C26.8852 26.7974 25.5421 28.1405 25.5421 29.7974L28.5421 29.7974L31.5421 29.7974ZM28.5421 80.9839L31.5421 80.9839L31.5421 29.7974L28.5421 29.7974L25.5421 29.7974L25.5421 80.9839L28.5421 80.9839Z" fill="black"/>
</svg>
