<?xml version="1.0" encoding="UTF-8"?>
<svg xmlns="http://www.w3.org/2000/svg" viewBox="0 0 1000 1000">
  <defs>
    <style>
      .cls-1 {
        fill: #333;
      }
    </style>
  </defs>
  <g id="Layer_2" data-name="Layer 2">
    <path class="cls-1" d="M610,610.74c-38.88,21-69.21,38-92.42,49.6-23.65,11.84-52,18.28-61.32,19.16s-13.21-3.08-16.07-5.18-3.64-4.07,1.76-6.6,69.47-33.47,77.61-37.54c8.14-4.07,13.14-7.32,11.87-15.26l9.14,5.28c1.1525.6595,2.3564,1.2247,3.6,1.69,1.2725.4686,2.5755.8495,3.9,1.14,1.3538.2936,2.7225.5139,4.1.66,1.39.15,2.8.23,4.23.27s2.86,0,4.29,0h2.33c4.83-.5,9.6-1.21,14.24-2.11s9.16-2,13.5-3.32c4.2404-1.2613,8.4098-2.7501,12.49-4.46,2.3301-1.18,4.5801-2.23,6.7501-3.33Z"/>
    <path class="cls-1" d="M400.34,521.94c.6994-2.5588,1.7351-5.0135,3.08-7.3,1.4206-2.4037,3.097-4.6468,5-6.69,2.04-2.1875,4.2649-4.195,6.65-6,2.5938-1.9698,5.3276-3.7478,8.18-5.32,3.0954-1.7147,6.295-3.2343,9.58-4.55,3.5301-1.4174,7.1355-2.6392,10.8-3.66,3.8-1.07,7.76-2,11.83-2.69s8.32-1.26,12.61-1.61,8.71-.5,13.11-.46,8.9.3,13.3.74,8.85,1.11,13.14,2c4.2441.8396,8.4429,1.8943,12.58,3.16,3.736,1.1343,7.408,2.4696,11,4,3.3735,1.4346,6.6592,3.0675,9.84,4.89l22.9601,13.2c-.51.17-1,.32-1.54.47-3.71,1.06-7.58,2-11.56,2.69s-8.05,1.27-12.2,1.65h0l-1.29.12-1.28.14-1.28.15-1.27.18-1.24.18h0c-1.5171.2368-3.0121.5981-4.47,1.08-2.5249.8582-4.8903,2.1288-7,3.76-.9952.7722-1.9281,1.6214-2.79,2.54-.8663.9399-1.6617,1.9427-2.38,3-.7487,1.0831-1.4171,2.2194-2,3.4-.6071,1.236-1.1283,2.5124-1.56,3.82-.4523,1.378-.8131,2.7844-1.08,4.21-.5393,2.9205-.704,5.8978-.49,8.86.0952,1.425.2889,2.8417.58,4.24l5.56,27.17s-80.49-60.2101-116.37-57.3701Z"/>
    <path class="cls-1" d="M385.21,530.5c.9675.562,2.0118.9797,3.1,1.24.6563.152,1.3265.2358,2,.25-8.65,7.32-77.07,37.09-84.77,40.5s-12.22-1.43-16.19-4.51-1.32-8.81,6.17-19.16,22.46-20.48,32.36-24.6,38.35-16.29,38.35-16.29h0l.4,2c.2672,1.3275.6179,2.6367,1.05,3.92.42,1.23.9245,2.4296,1.51,3.59.55,1.1086,1.1923,2.169,1.92,3.17.6778.9538,1.4445,1.8411,2.29,2.65.6177.5889,1.287,1.121,2,1.59.21.15.43.28.65.41l9.16,5.2399Z"/>
  </g>
  <g id="Layer_3" data-name="Layer 3">
    <path d="M643.7827,561.3186h0c-.1-.63-.2-1.25-.33-1.88l-19.37-94.66c-.58-2.82-1.5-5.65-2.73-8.4-1.22-2.73-2.77-5.43-4.61-8.03-1.82-2.58-3.96-5.11-6.35-7.52-2.37-2.39-5.05-4.72-7.95-6.9-2.88-2.17-6.04-4.26-9.38-6.19l-59.56-34.39c-3.13-1.81-6.49-3.52-9.98-5.09-3.47-1.56-7.15-3.01-10.93-4.31-2.44-.84-4.96-1.62-7.49-2.34-2.52-.71-5.12-1.38-7.74-1.97-2.59-.59-5.26-1.12-7.92-1.59-2.64-.46-5.35-.87-8.05-1.2-2.67-.33-5.4-.61-8.12-.82-2.69-.21-5.43-.35-8.14-.43-2.69-.08-5.42-.1-8.11-.05-2.67.04-5.37.15-8.03.32-2.64.17-5.3.4-7.9.69-2.59.29-5.19.64-7.73,1.05-2.53.41-5.06.88-7.52,1.4s-4.9,1.11-7.27,1.74c-2.38.63-4.73,1.33-6.99,2.07-2.27.74-4.51,1.54-6.67,2.38-2.16.84-4.28,1.75-6.32,2.69-2.03.94-4.03,1.95-5.93,2.98-1.9,1.04-3.75,2.14-5.51,3.26-1.76,1.13-3.46,2.32-5.06,3.53-1.6,1.21-3.14,2.48-4.57,3.77-1.43,1.29-2.8,2.63-4.05,3.99-1.25,1.35-2.43,2.76-3.49,4.18-1.06,1.41-2.04,2.87-2.92,4.34-.87,1.46-1.65,2.97-2.33,4.47-.67,1.5-1.25,3.04-1.73,4.57h0l-.41,1.52h0c-.18.77-.4,1.62-.68,2.6-.27.94-.58,1.96-.91,3.03l-1.07,3.43c-.37,1.21-.76,2.47-1.13,3.78-.42,1.46-.77,2.8-1.08,4.07-.36,1.48-.67,2.92-.92,4.29-.28,1.51-.5,3-.65,4.43-.16,1.52-.26,3.03-.29,4.48-.03,1.51.02,3,.14,4.43.13,1.47.33,2.92.61,4.29l9.55,46.66c.28,1.37.64,2.71,1.07,3.98.43,1.28.95,2.51,1.53,3.66.59,1.16,1.25,2.25,1.96,3.24.73,1.01,1.52,1.92,2.36,2.72.87.83,1.79,1.52,2.74,2.07l9.14,5.28c1.06.61,2.15,1.05,3.24,1.3.74.17,1.48.26,2.21.26.42,0,.84-.03,1.26-.09,1.14-.16,2.28-.55,3.28-1.14.96-.56,1.83-1.31,2.59-2.21.68-.82,1.28-1.77,1.78-2.84.12-.27.25-.54.36-.81s.23-.54.33-.82c.11-.27.21-.55.3-.83.1-.28.19-.55.27-.83.09-.28.17-.56.24-.84h0c.65-2.43,1.67-4.85,3.03-7.18,1.32-2.26,2.97-4.48,4.91-6.6,1.91-2.08,4.12-4.08,6.58-5.96,2.45-1.87,5.18-3.65,8.12-5.28,2.95-1.64,6.15-3.16,9.52-4.52,3.39-1.37,7.01-2.6,10.75-3.65,3.78-1.06,7.74-1.96,11.78-2.67,4.09-.72,8.32-1.26,12.56-1.6,4.3-.35,8.7-.5,13.07-.46,4.42.04,8.88.29,13.26.74,4.42.45,8.82,1.11,13.09,1.96,4.3.85,8.51,1.91,12.54,3.15,3.81,1.17,7.5,2.52,10.97,4,3.46,1.48,6.75,3.12,9.79,4.87l21.91,12.65c-.14.04-.28.09-.43.13-3.69,1.06-7.56,1.96-11.51,2.68-3.95.72-8.05,1.27-12.17,1.64h0c-.43.04-.86.08-1.29.12s-.86.09-1.29.14-.86.1-1.28.16c-.43.06-.85.11-1.28.17-.42.06-.85.12-1.27.19-1.57.24-3.1.61-4.55,1.1-1.35.45-2.65,1.02-3.88,1.68-1.16.63-2.28,1.35-3.31,2.15-1.01.78-1.97,1.65-2.85,2.59-.88.93-1.69,1.95-2.43,3.02-.74,1.08-1.42,2.24-2.02,3.46-.61,1.24-1.14,2.54-1.59,3.89-.45,1.37-.82,2.81-1.1,4.27-.28,1.48-.46,3.01-.54,4.53-.08,1.48-.07,2.99.04,4.46.11,1.46.3,2.91.59,4.3l9.55,46.66c.29,1.42.67,2.79,1.14,4.1.48,1.33,1.04,2.61,1.69,3.79.66,1.21,1.41,2.35,2.24,3.39.84,1.06,1.77,2.03,2.78,2.89.59.51,1.21.97,1.85,1.41.31.22.63.41.95.61.15.09.3.2.45.29l9.14,5.28h0c1.14.66,2.38,1.24,3.67,1.72,1.24.46,2.57.85,3.96,1.16,1.3.29,2.7.51,4.15.67,1.34.14,2.78.23,4.27.27.48.01.97.02,1.47.02.91,0,1.85-.02,2.86-.06h0l2.34-.16h.02c4.83-.5,9.64-1.21,14.28-2.12,4.65-.91,9.21-2.03,13.55-3.33,4.36-1.31,8.58-2.81,12.53-4.48,3.98-1.68,7.76-3.55,11.25-5.55,3.51-2.02,6.79-4.22,9.74-6.54,2.97-2.34,5.67-4.83,8-7.42,2.36-2.61,4.4-5.36,6.07-8.17.84-1.41,1.6-2.87,2.25-4.33.66-1.46,1.23-2.96,1.7-4.45.47-1.5.85-3.03,1.12-4.55.42-2.29.61-4.62.58-6.93-.02-1.68-.16-3.38-.42-5.06l.06-.0101ZM601.8427,434.7086c2.86,2.16,5.5,4.45,7.84,6.81,2.36,2.37,4.46,4.86,6.25,7.4,1.8,2.55,3.32,5.2,4.51,7.86,1.2,2.68,2.1,5.44,2.66,8.19,1.99,9.73-.4,19.58-6.91,28.49-12.66,17.32-39.49,29.75-71.83,33.3-.06-.87-.19-1.77-.34-2.46,33.62-3.57,60.58-16.74,72.18-35.3,6.19-9.9,7.42-20.7,3.56-31.24-3.09-8.46-9.31-16.36-18.22-23.26.09.07.2.14.29.21h.01ZM365.6827,418.8086c.66-1.47,1.42-2.94,2.27-4.37.85-1.44,1.82-2.87,2.86-4.25,1.05-1.39,2.2-2.77,3.43-4.1s2.57-2.65,3.98-3.92,2.92-2.52,4.5-3.72c.17-.13.36-.26.53-.39-8.71,6.74-14.63,14.58-17.34,23.04-.45,0-.87.07-1.26.22.31-.85.65-1.69,1.02-2.52l.01.01ZM365.5527,422.1186c-.04.12-.08.24-.12.37-.39.02-.76.09-1.1.22.29-.31.72-.51,1.22-.58v-.01ZM357.1827,450.2386c.15-1.4.37-2.87.64-4.35.25-1.35.55-2.78.91-4.23.31-1.26.66-2.58,1.07-4.03.37-1.3.76-2.56,1.13-3.76l1.07-3.43c.34-1.09.65-2.11.92-3.05.29-1,.51-1.86.69-2.65h0c.14-.6.72-1.04,1.48-1.18-.5,1.54-1.12,3.26-1.86,5.3l-.09.25c-1.28,3.51-2.73,7.48-3.93,11.81-1.2,4.34-1.95,8.44-2.25,12.23.05-.95.11-1.91.22-2.88v-.03ZM357.8327,455.2786c.15-4.28.93-9.03,2.34-14.12,1.19-4.28,2.63-8.24,3.9-11.73l.09-.25c.86-2.36,1.56-4.31,2.1-6.04.07-.23.15-.46.22-.68.01-.04.03-.07.04-.11l9.72,5.61c-1.24,2.29-2.3,4.36-3.29,6.46-2.41,5.11-4.24,10.05-5.42,14.67-1.39,5.41-1.97,10.77-1.68,15.52.07,1.18.21,2.33.39,3.45l-7.86-4.54c-.46-2.58-.65-5.34-.56-8.24h.01ZM593.2927,497.0986c1.49-1.28,2.88-2.6,4.13-3.95,1.88-2.04,3.51-4.18,4.83-6.36,1.31-2.16,2.33-4.39,3.06-6.64.72-2.23,1.15-4.51,1.27-6.79.13-2.27-.04-4.57-.51-6.85-2.29-11.19-11.12-21.82-24.87-29.97.1-.97.74-2.09,1.53-2.67,12.61,7.34,21,16.51,24.28,26.53,2.9,8.87,1.56,17.92-3.88,26.18-3.38,5.13-8.15,9.76-14.02,13.78.61-.43,1.2-.87,1.78-1.31.8-.61,1.57-1.25,2.31-1.89.04-.02.06-.05.09-.08v.02ZM581.4027,437.8586c13.09,7.94,21.5,18.16,23.69,28.87.45,2.19.61,4.4.49,6.59s-.53,4.39-1.22,6.54c-.7,2.17-1.69,4.33-2.96,6.42-1.29,2.12-2.87,4.21-4.71,6.2-1.05,1.14-2.2,2.25-3.43,3.33l-11.86-57.95ZM580.2827,436.0186l-58.64-33.85c.11-.97.75-2.08,1.54-2.66l58.64,33.85c-.75.68-1.32,1.67-1.54,2.66ZM520.7227,401.6486c-33.24-19.14-85.8-19.86-117.6-1.5-11.66,6.73-19.31,15.31-22.24,24.86-.49-.58-1.19-1.02-2-1.21,2.82-9.81,10.68-18.67,22.78-25.66,32.64-18.84,86.54-18.42,120.59.85-.74.68-1.31,1.67-1.53,2.66ZM380.4927,426.2886c-.24.85-.55,1.69-.89,2.52-.47-.64-1.17-1.14-1.98-1.4.38-.88.71-1.77.97-2.67.91.2,1.66.81,1.91,1.55h-.01ZM379.1027,429.9786l-.18.39c-.82,1.75-1.76,3.74-2.74,5.99-2.21,5.06-3.79,9.53-4.81,13.67-1.24,5.03-1.73,9.96-1.41,14.26.1,1.28.27,2.53.5,3.74-.91.45-2.2.68-3.11.55-.23-1.3-.4-2.66-.48-4.04-.28-4.64.29-9.9,1.65-15.21,1.17-4.56,2.97-9.44,5.36-14.49,1-2.12,2.06-4.2,3.32-6.51.89.25,1.64.89,1.91,1.64l-.01.01ZM370.6427,469.0386l9.34,45.66c-.91.45-2.21.68-3.11.54l-9.34-45.64c.12,0,.23.02.35.02.9,0,1.92-.22,2.76-.59v.01ZM358.6427,464.8186l7.82,4.51,9.28,45.35-7.82-4.51-9.28-45.35ZM376.3727,524.7886h0c-.33-.19-.65-.42-.98-.65-1.32-.98-2.58-2.33-3.67-3.99-1.58-2.4-2.79-5.38-3.52-8.66l7.82,4.51c.64,3.28,1.74,6.33,3.22,8.85.57.97,1.19,1.86,1.85,2.66l-4.72-2.73v.01ZM396.8227,528.3986c-.68.82-1.47,1.49-2.33,1.99-.89.52-1.9.87-2.91,1.01s-2.06.09-3.11-.15c-1-.23-1.99-.63-2.96-1.19h0c-2.04-1.18-3.91-3.16-5.42-5.72-1.35-2.3-2.37-5.09-2.99-8.07.11,0,.22.02.34.02.91,0,1.94-.22,2.78-.6.64,2.83,1.68,5.46,3.03,7.63,1.66,2.65,3.81,4.68,6.05,5.7,1.13.52,2.27.77,3.37.77s2.14-.25,3.1-.76c.4-.21.77-.47,1.13-.76-.03.04-.06.09-.1.13h.02ZM398.5527,524.4486c-.81,1.72-1.93,3-3.24,3.7-1.64.87-3.62.86-5.59-.04-2.07-.94-4.06-2.83-5.62-5.32-1.4-2.23-2.45-4.97-3.06-7.93l-9.55-46.66c-.26-1.27-.44-2.61-.55-3.99-.31-4.2.17-9.02,1.38-13.94,1.01-4.08,2.56-8.5,4.75-13.51.98-2.24,1.91-4.22,2.73-5.97l.27-.58c.3-.65.58-1.3.82-1.96l18.96,92.67c-.33,1.19-.77,2.37-1.31,3.53h.01ZM531.4427,493.0686c-3.5-1.5-7.23-2.86-11.07-4.04-4.05-1.25-8.3-2.31-12.63-3.17-4.3-.85-8.73-1.52-13.18-1.97-4.4-.45-8.9-.7-13.35-.74-4.4-.05-8.83.11-13.16.46-4.28.35-8.54.89-12.66,1.62-4.07.72-8.06,1.62-11.87,2.69-3.78,1.06-7.43,2.3-10.85,3.68-3.41,1.37-6.65,2.91-9.63,4.57-2.98,1.66-5.75,3.46-8.24,5.36-1.96,1.5-3.77,3.08-5.39,4.71,3.59-3.87,8.14-7.42,13.6-10.57,29.78-17.19,77.95-17.51,110.98-1.48-.83-.38-1.67-.76-2.52-1.12h-.03ZM422.4927,494.8086c-11.35,6.55-18.92,14.85-22.01,24.1l-18.95-92.6c2.61-9.71,10.24-18.46,22.09-25.3,31.66-18.28,84.12-17.48,117.06,1.76l19.11,93.37c-33.26-18.97-85.59-19.63-117.29-1.33h-.01ZM540.9327,496.7786l-19.1-93.35,58.4,33.72,12.16,59.41c-.68.58-1.38,1.15-2.11,1.71-2.41,1.85-5.1,3.61-7.99,5.23-2.91,1.63-6.07,3.14-9.39,4.5-2.47,1.01-5.06,1.94-7.73,2.78l-24.24-13.99v-.01ZM538.9927,517.4686c29.93-2.68,54.22-14.01,64.97-30.32,5.62-8.52,7-17.87,4-27.04-3.38-10.33-12.02-19.75-25-27.24l-59.56-34.39c-34.28-19.79-89.13-20.34-122.25-1.22-12.55,7.25-20.64,16.51-23.4,26.79-.27,1.01-.64,2.01-1.07,2.99l-9.8-5.66c3.48-10.86,12.39-20.68,25.81-28.43,37.62-21.72,99.92-21.1,138.87,1.4l59.56,34.39c14.07,8.12,23.65,18.28,27.71,29.37,3.75,10.24,2.55,20.74-3.47,30.37-11.49,18.38-38.35,31.41-71.85,34.89l-9.26-5.35c1.56-.22,3.16-.4,4.75-.54l-.01-.01ZM524.1527,557.0086c-.89.38-2.05.56-2.88.44-.66-3.75-.65-7.76.04-11.61.69-3.87,2.07-7.52,3.98-10.56,2.15-3.42,5.09-6.19,8.5-8.03,2.12-1.14,4.47-1.95,6.98-2.44.15.66.29,1.53.39,2.38-2.29.36-4.42,1.03-6.33,2.03-3.1,1.61-5.73,4.14-7.62,7.3-1.65,2.78-2.8,6.15-3.32,9.75-.51,3.54-.42,7.24.25,10.75l.01-.01ZM521.8227,558.4886c.82,0,1.73-.18,2.53-.48l9.35,45.67c-.89.38-2.05.56-2.88.44l-9.34-45.64c.12,0,.23.02.35.02l-.01-.01ZM525.2027,557.1986c-.72-3.51-.83-7.24-.32-10.79.5-3.48,1.6-6.72,3.19-9.38,1.79-3,4.29-5.4,7.22-6.92,1.81-.94,3.84-1.58,6.02-1.93l19.13,93.48c-2.47.04-4.67-.05-6.68-.31-3.85-.48-7.15-1.55-9.81-3.19-2.91-1.79-5.23-4.34-6.9-7.59-1.03-2.01-1.81-4.27-2.31-6.71l-9.55-46.66h.01ZM541.7627,524.6286c.2-.03.39-.07.59-.1.23-.03.45-.06.68-.1.15.65.28,1.57.34,2.45-.21.02-.42.05-.63.07-.19.02-.39.05-.58.08-.1-.84-.25-1.72-.4-2.4h0ZM510.9527,543.5686v-.08c.08-1.48.26-2.96.53-4.4.27-1.42.62-2.81,1.06-4.14.43-1.3.95-2.56,1.53-3.76.58-1.17,1.23-2.29,1.95-3.33.71-1.03,1.49-2.01,2.34-2.9.84-.9,1.76-1.73,2.73-2.48.35-.27.72-.52,1.08-.77-2.84,2.11-5.29,4.89-7.14,8.14-2.03,3.57-3.4,7.78-3.95,12.18-.06.51-.09,1.03-.14,1.55l.01-.01ZM512.0827,542.1486c.54-4.27,1.86-8.35,3.83-11.81,2.04-3.59,4.84-6.59,8.1-8.68,2.58-1.66,5.5-2.8,8.66-3.39l9.24,5.33c-.28.04-.56.09-.84.14h0c-2.79.48-5.4,1.37-7.74,2.64-3.56,1.92-6.62,4.82-8.87,8.38-1.98,3.14-3.41,6.92-4.12,10.92-.66,3.73-.71,7.59-.15,11.25l-7.85-4.53c-.58-3.27-.67-6.8-.24-10.24l-.02-.01ZM512.5727,553.6886l7.82,4.51,9.28,45.36-7.82-4.51-9.28-45.36ZM531.7427,614.4886h-.01c-.15-.09-.29-.19-.43-.28-.3-.19-.61-.38-.9-.58-1.22-.86-2.34-1.85-3.32-2.98-1.58-1.81-2.86-3.99-3.81-6.46-.46-1.2-.82-2.49-1.12-3.81l7.79,4.5c.52,2.68,1.36,5.17,2.51,7.37.85,1.64,1.88,3.12,3.05,4.42l-3.76-2.17v-.01ZM560.4427,623.4286c-1.42.05-2.73.06-3.99.03-1.47-.03-2.88-.12-4.19-.26-1.42-.15-2.78-.37-4.04-.65-1.34-.3-2.63-.67-3.83-1.12-1.24-.46-2.43-1.02-3.53-1.65-3.21-1.86-5.75-4.54-7.54-7.99-1.03-1.99-1.8-4.23-2.31-6.64.11,0,.22.02.34.02.82,0,1.74-.18,2.54-.49.52,2.3,1.27,4.45,2.26,6.37,1.75,3.41,4.2,6.09,7.27,7.98,2.78,1.71,6.21,2.83,10.21,3.33,1.77.22,3.67.33,5.76.33.37,0,.75,0,1.14-.01-.03.38-.06.62-.09.77v-.02ZM562.7327,623.2786l-1.26.09c.03-.21.06-.46.07-.74.22-.01.44-.02.66-.04.19-.01.38-.03.57-.05,0,.37-.02.6-.04.75v-.01ZM623.8627,601.4486c-2.91,2.29-6.15,4.46-9.62,6.46-3.46,1.99-7.2,3.84-11.14,5.5-3.92,1.66-8.11,3.15-12.43,4.45-4.31,1.29-8.84,2.4-13.46,3.31-4.38.86-8.91,1.53-13.46,2.02.02-.21.03-.46.02-.75,28.34-3.1,52.51-12.99,66.79-27.03-2.02,2.1-4.25,4.13-6.7,6.05v-.01ZM635.5627,588.1286c-12.73,17.41-39.78,29.88-72.36,33.36-.36.04-.72.07-1.08.1-.22.02-.44.03-.66.04l-19.15-93.6c.18-.02.37-.05.55-.07.36-.05.72-.09,1.08-.13,32.85-3.5,60.16-16.13,73.06-33.76,4.85-6.63,7.46-13.79,7.75-21.04l17.73,86.63c1.99,9.73-.4,19.58-6.91,28.49l-.01-.02Z"/>
  </g>
</svg>