<?xml version="1.0" encoding="UTF-8"?>
<svg xmlns="http://www.w3.org/2000/svg" viewBox="0 0 1000 1000">
  <g id="Layer_2" data-name="Layer 2">
    <path d="M426.2546,526.936c-.9653-1.3192-2.0647-2.4615-3.2659-3.3839,0,0-.0107,0-.0107-.0054h0s-.0054-.0107-.0107-.0107l-.1287-.0751s-.0322-.0107-.0483-.0161c-.0965-.0375-.2038-.0644-.3164-.0644-.1877,0-.3754.0429-.5685.1394-.1823.0858-.3593.2145-.5309.3754-.0965.0912-.1823.1877-.2681.2949-.0858.1073-.1609.2199-.236.3379l-1.2334,2.0432h0c-.1233.2092-.2252.4237-.295.6489-.0751.2252-.1126.4505-.1233.6596-.0054.2199.0214.4237.0912.5953.0483.1234.118.2252.1984.311.0107.0161.0214.0268.0375.0429.0054.0054.0107.0161.0214.0268.0107.0054.0161.0161.0268.0215.0054,0,.0107.0107.0161.0161.311.2413.6167.5095.9117.783.0375.0375.0804.0751.118.1126.2628.2574.5256.5256.7722.8044.0322.0322.059.0644.0912.1019.5416.6167,1.0457,1.3085,1.5123,2.0539,1.7858,2.8637,3.0032,6.6338,3.5502,10.9401.0054.0536.0161.1073.0214.1662.0214.1984.0429.3968.0644.5953.0214.2092.0483.4183.0644.6275.0107.1287.0214.2628.0322.3915.0214.2842.0429.5685.0644.8527.0054.1019.0107.2038.0161.3057.0161.311.0322.6275.0429.9439v.1877c.0214.7025.0268,1.4211.0107,2.1451v.0804c-.0429,2.2846-.2521,4.6657-.606,7.0896v.0268c-.118.783-.2467,1.5659-.3969,2.3543-.0107.0536-.0214.1073-.0268.1555-.1394.7508-.3003,1.5016-.4666,2.2577-.0214.0912-.0429.1823-.0644.2735-.1662.7293-.3486,1.4533-.5416,2.1773-.0268.1073-.059.2199-.0858.3271-.1984.724-.4022,1.4426-.6274,2.1612-.0375.1287-.0804.2574-.1233.3861-.1073.3379-.2145.6704-.3271,1.0028-.0429.1341-.0912.2681-.1341.4022-.1073.3218-.2199.6435-.3325.9599-.059.1609-.1126.3218-.1716.4826-.0912.2467-.1823.4934-.2789.7401-1.8823,4.966-4.3546,9.7335-7.1486,13.7771-.5631.8151-1.1476,1.6035-1.7429,2.365-.0214.0268-.0375.0483-.059.0751-.6221.7937-1.2603,1.5552-1.9038,2.2792-1.9682,2.2041-4.0328,4.0757-6.1243,5.5398-.2789.1984-.5631.3861-.8473.5685-.0536.0375-.1073.0697-.1609.1073-.3057.1984-.6167.3861-.9224.5631-.0965.0536-.1931.1073-.2896.1609-.2413.1341-.4827.2681-.724.3915-.1019.0536-.2038.0965-.3057.1502-2.0057.9868-4.0114,1.582-5.9152,1.759-.0804.0054-.1555.0161-.236.0214-.295.0214-.5899.0375-.8795.0375-.4719,0-.9385-.0214-1.3997-.0751-.0644-.0054-.1233-.0161-.1823-.0268-.1609-.0214-.3164-.0429-.4719-.0697-.1126-.0214-.2199-.0429-.3325-.0644-.1019-.0214-.2091-.0429-.311-.0644-.1287-.0268-.2521-.0644-.3808-.0965-.0858-.0214-.1662-.0429-.2521-.0697-.1341-.0375-.2681-.0805-.3968-.1287-.0751-.0268-.1502-.0483-.2199-.0751-.1341-.0483-.2681-.1019-.4022-.1555-.0697-.0268-.1341-.0536-.2038-.0858-.1341-.059-.2681-.118-.3968-.177-.0644-.0322-.1341-.0644-.1984-.0965-.1287-.0644-.2574-.1287-.3861-.1984-.0697-.0375-.1341-.0751-.2038-.1126-.1233-.0697-.2467-.1394-.3647-.2145-.0751-.0429-.1448-.0912-.2199-.1394-.1126-.0751-.2252-.1448-.3325-.2252-.0858-.059-.1662-.118-.2467-.1823-.0965-.0697-.1931-.1448-.2896-.2145-.1019-.0804-.2038-.1609-.3003-.2467-.0751-.0644-.1502-.1234-.2252-.1877-.1394-.1234-.2735-.2467-.4129-.3754-.0322-.0322-.0697-.059-.1019-.0912-.1716-.1662-.3432-.3432-.5095-.5202-.1984-.2145-.3968-.4398-.5845-.6704-.0483-.0536-.0912-.1126-.1394-.1716-.1394-.177-.2789-.3593-.4183-.547-.0644-.0858-.1233-.1716-.1877-.2628-.1073-.1555-.2145-.311-.3164-.4719-.0804-.118-.1555-.2413-.2306-.3647-.0697-.1126-.1341-.2306-.2038-.3432-.5256-.8956-1.0082-1.8716-1.4265-2.9227-.0107-.0215-.0161-.0429-.0268-.0697-.1126-.2789-.2199-.5685-.3218-.8581,0-.0054,0-.0161-.0054-.0215-.6918-1.9467-1.1959-4.1186-1.5069-6.4407-.0375-.2842-.0751-.5738-.1073-.8634-.0107-.1073-.0215-.2145-.0322-.3271-.0268-.2735-.0483-.547-.0751-.8205-.0375-.4666-.0697-.9331-.0912-1.4104,0-.1126-.0107-.2252-.0161-.3379-.0215-.5685-.0322-1.1476-.0322-1.7322v-.4773c0-.5524.0161-1.1047.0375-1.6678,0-.0644,0-.1287.0054-.1877.0322-.6757.0751-1.3622.1287-2.0593.0161-.2145.0375-.4344.059-.6489.0268-.2949.0536-.5845.0858-.8849.429-3.9095,1.2603-7.8833,2.483-11.825,1.0565-3.4161,2.3918-6.7732,3.9631-9.9748,1.4051-2.8637,2.9817-5.5505,4.6764-7.9852,1.5391-2.2095,3.1962-4.2313,4.9177-6.0064,1.4426-1.4909,2.971-2.8262,4.4511-3.9041.4451-.3218.8956-.6221,1.3407-.9117.1019-.0644.1984-.1287.3003-.1877.1931-.118.3861-.236.5792-.3486.0697-.0429.1448-.0804.2145-.1234.2145-.1234.429-.2413.6435-.3539.0161-.0054.0322-.0161.0429-.0215.7079-.37,1.4104-.6864,2.1129-.9599.0965-.0375.1931-.0751.2896-.1126.1555-.059.311-.1073.4666-.1609.8205-.2789,1.641-.4934,2.4508-.6328.0107,0,.0161-.0054.0268-.0107h.0107c.1502-.0429.3003-.1126.4451-.2038.177-.1126.3486-.2628.5095-.4398.1448-.1662.2789-.3539.3915-.5524.1126-.1984.1984-.4076.2628-.6221l.6382-2.1719h0c.0644-.2252.1019-.4451.1019-.6543,0-.2199-.0375-.4183-.1126-.5845-.0804-.1823-.2091-.3271-.3647-.4183-.0912-.0536-.1984-.0912-.311-.1073-.0804-.0107-.1662,0-.2521,0h-.0751c-3.0354.5256-6.1458,1.8287-9.2562,3.872-4.7085,3.0943-9.2884,7.8297-13.2461,13.6805-4.2849,6.3281-7.7117,13.761-9.9212,21.4888-2.2309,7.819-3.1319,15.9061-2.5366,22.7705.6006,6.8966,2.6278,12.5704,5.8669,16.3995,2.9388,3.4805,6.8,5.3199,11.16,5.3199h.0483c3.2981-.0107,6.918-1.0994,10.4682-3.1533.7401-.429,1.4909-.9009,2.2256-1.4104,1.33-.9171,2.66-1.9735,3.9524-3.1372,3.3678-3.0193,6.6177-6.8912,9.4064-11.1922,3.1855-4.9123,5.9205-10.5755,7.9155-16.3727,1.9896-5.7811,3.2928-11.884,3.7647-17.6383.1877-2.3114.2467-4.5745.1662-6.725-.2681-7.2613-2.1237-13.5947-5.2234-17.826l-.0322.0108ZM411.9735,521.5946c.0429.0965.0644.2252.0697.3647,0,.0858-.0107.177-.0268.2735-.0268-.2574-.0697-.5148-.1341-.7722.0375.0375.0697.0751.0965.1287l-.0054.0054ZM419.7924,528.2713c-.0429-.1019-.059-.236-.0536-.3861.0054-.1609.0375-.3325.0965-.5148.059-.1823.1448-.3647.2467-.5363h0l1.2334-2.0432c.059-.0965.1233-.1931.1931-.2789s.1448-.1662.2199-.2413c.1287-.1234.2628-.2199.3969-.2789.118-.059.2199-.0804.3271-.0858.0375,0,.0751.0054.1073.0161.0912,1.7536-1.0833,3.6092-2.7565,4.3707,0-.0107-.0107-.0161-.0107-.0268v.0054ZM430.7755,551.444c-.4719,5.7114-1.7644,11.766-3.7379,17.5042-1.9789,5.7597-4.6978,11.3799-7.8565,16.2547-2.7618,4.2634-5.9849,8.0978-9.3152,11.0849-1.2764,1.1476-2.5902,2.188-3.8988,3.0943-.724.4987-1.4587.9653-2.188,1.389-3.4697,2.0057-6.9985,3.0675-10.2054,3.0782-4.2152.0161-7.953-1.759-10.8007-5.1322-3.1641-3.7486-5.1537-9.3152-5.7436-16.1045-.5899-6.8.3003-14.8174,2.5152-22.5774,2.1934-7.6742,5.5988-15.0534,9.8461-21.3386,3.9202-5.7972,8.4518-10.4736,13.1013-13.5357,2.9656-1.9521,5.9313-3.207,8.8165-3.7432.5148,1.8824-.0214,3.888-1.271,4.6764-.724.1287-1.4533.3164-2.1827.547h-.0215c-.0804.0268-.1609.059-.2413.0858-.1662.0536-.3325.1126-.5041.177-.0912.0322-.1823.0697-.2735.1073-.7293.2789-1.4587.6114-2.188.9921-.0107.0054-.0215.0107-.0375.0161-.2199.118-.4451.2413-.665.3647-.0697.0429-.1394.0804-.2145.1234-.1984.118-.4022.236-.6006.3593-.0965.059-.1984.1234-.295.1877-.1126.0697-.2199.1341-.3325.2092-.1823.118-.3593.2413-.5416.3647h0c-.1609.1126-.3271.2306-.488.3486-.0322.0215-.0644.0429-.0965.0697h0c-1.4748,1.0833-2.9978,2.4186-4.435,3.8988-1.7429,1.7965-3.4107,3.8398-4.9713,6.0761-1.7107,2.4562-3.2981,5.1644-4.7139,8.0549-1.582,3.2284-2.9281,6.6123-3.9899,10.0553-1.2281,3.9738-2.07,7.9852-2.5044,11.9269-.0107.118-.0215.2306-.0322.3432,0,.0054,0,.0107-.0054.0161-.0161.177-.0322.3486-.0483.5256-.0215.2145-.0429.429-.059.6382v.0268c-.059.6972-.1019,1.389-.1287,2.07,0,.0644,0,.1287-.0054.1931-.0215.5685-.0375,1.1315-.0375,1.6893v.4773c0,.5899.0107,1.1798.0322,1.759,0,.1073.0107.2145.0161.3218.0215.488.0536.9707.0912,1.448.0054.0912.0107.1877.0161.2842.0161.1823.0375.3593.0536.5363.0107.118.0215.236.0375.3539.0322.2789.0644.5577.1019.8312.0161.1234.0268.2467.0429.37v.0161c.2789,1.9467.6972,3.7808,1.2442,5.4701,0,.0161,0,.0322.0054.0536.5685,1.7536,1.2763,3.3196,2.1022,4.7032.059.0965.118.1984.177.2949.0858.1341.1716.2681.2574.3968.1019.1555.2038.311.311.4612.0697.0965.1341.1877.2038.2842.1341.1877.2735.3647.4183.5416.0536.0644.1019.1287.1555.1931.0375.0429.0697.0912.1073.1394,2.5473,3.0139,5.8562,4.6067,9.5726,4.6067h.0375c.1073,0,.2145-.0107.3218-.0161.1984,0,.3968-.0107.6006-.0268.0912-.0054.1877-.0161.2789-.0268.118-.0107.236-.0161.3593-.0322l.0912-.0107s.0375-.0107.0536-.0161c1.5981-.2092,3.2552-.6865,4.9177-1.4372.0107,0,.0215,0,.0268-.0054.2145-.0965.4344-.2092.6543-.3164.0965-.0483.1931-.0912.295-.1394.2681-.1341.5309-.2842.7937-.429.0858-.0483.1716-.0912.2574-.1394.311-.1823.6274-.3754.9385-.5738.0536-.0375.1126-.0697.1662-.1073.2896-.1877.5845-.3861.8741-.5899.0161-.0107.0268-.0215.0429-.0268h0c2.0969-1.4801,4.1669-3.3518,6.1404-5.5612h0c.0054-.0107.0161-.0161.0214-.0268.6489-.7293,1.2924-1.4962,1.9199-2.2953.0268-.0322.0483-.0644.0751-.0965.3003-.3861.6006-.7776.8956-1.1798.2842-.3861.5685-.7883.8473-1.1905.0375-.0536.0751-.1019.1126-.1555.1126-.1609.2252-.3271.3325-.4934v-.0107c1.1637-1.7322,2.2631-3.5824,3.2874-5.5183,0-.0054.0107-.0107.0161-.0161,1.3139-2.4884,2.4723-5.0732,3.4751-7.7278.0912-.2413.1823-.4826.2735-.7293.059-.1662.118-.3325.177-.4934.1126-.3164.2252-.6382.3325-.9546.0483-.1394.0912-.2789.1394-.4129.0536-.1555.1073-.311.1555-.4666.059-.177.1126-.3539.1662-.5309.0268-.0912.059-.1877.0912-.2789.0107-.0429.0214-.0858.0375-.1287.2145-.6972.4183-1.3943.606-2.0969.0536-.1877.1019-.3754.1502-.5577.1555-.6006.3057-1.1959.4505-1.7965.0751-.3164.1448-.6328.2145-.9439.0804-.37.1555-.7401.2306-1.1101.1073-.5309.2091-1.0618.3003-1.5928.0322-.177.059-.3539.0912-.5256.1126-.6757.2145-1.3514.3057-2.0271.0268-.1931.0483-.3861.0751-.5792.0697-.5845.1341-1.1691.1877-1.7483.0322-.3432.059-.6864.0858-1.0243.0268-.3539.0483-.7025.0697-1.0511.0322-.5577.0536-1.1101.0644-1.6571,0-.1287.0107-.2628.0107-.3915.0107-.7025.0054-1.3943-.0107-2.0754v-.4451c-.0107-.2252-.0214-.4451-.0322-.6704-.0054-.1287-.0107-.2574-.0214-.3861-.0161-.2628-.0375-.5256-.059-.7883-.0107-.1555-.0214-.3164-.0375-.4719-.0161-.1823-.0375-.3647-.059-.547-.0268-.236-.0483-.4666-.0751-.6972,0-.0215-.0054-.0375-.0107-.059-.2467-1.9735-.6274-3.8398-1.1476-5.5827,0-.0161-.0161-.0268-.0214-.0375-.606-2.0164-1.389-3.8344-2.3382-5.4004,0-.0107,0-.0161-.0107-.0268l-.059-.1019c-.0268-.0483-.059-.0858-.0912-.1341-.2252-.3593-.4558-.7079-.6972-1.0404-.2681-.3647-.547-.7079-.8366-1.035l-.1287-.1448c-.2521-.2789-.5095-.547-.7722-.8044-.0429-.0429-.0858-.0858-.1341-.1287-.2145-.1984-.429-.3861-.6489-.5685,1.6517-.8312,2.794-2.5795,2.8852-4.36.9921.8259,1.9092,1.7965,2.7243,2.912,3.0354,4.1455,4.8533,10.3717,5.1161,17.531.0804,2.129.0214,4.3707-.1662,6.6606l-.0107.0054ZM565.3445,448.95c-.0429-.2306-.0912-.4612-.1448-.6864-.0483-.1931-.1019-.3754-.1555-.5631-.0375-.1233-.0644-.2521-.1073-.3754-.0697-.2199-.1502-.429-.2252-.6382-.0322-.0804-.059-.1716-.0912-.2521-.1073-.2735-.2252-.5416-.3539-.7991-.0054-.0107-.0107-.0214-.0161-.0375-.118-.2413-.2467-.4719-.3754-.6972-.0161-.0268-.0268-.0536-.0429-.0804-.1394-.2413-.2896-.4666-.4505-.6864-.0054-.0107-.0161-.0214-.0215-.0322-.1502-.2091-.3057-.4022-.4666-.5953-.0215-.0214-.0375-.0483-.0536-.0697-.1609-.1877-.3379-.37-.5148-.5416-.0215-.0214-.0375-.0429-.059-.059-.1662-.1609-.3432-.3057-.5202-.4505-.0322-.0268-.0644-.059-.0965-.0858-.1555-.1233-.3218-.2306-.488-.3432-.059-.0429-.118-.0858-.1823-.1287-.1341-.0858-.2735-.1555-.4129-.2306-.1019-.0536-.1931-.118-.2949-.1662h-.0054c-.2574-.1287-.5148-.2413-.7776-.3539-.059-.0268-.1234-.0483-.1823-.0751-.2413-.0965-.488-.1931-.7347-.2735-.0215-.0054-.0429-.0161-.0644-.0214-1.1047-.37-2.2524-.6006-3.4429-.6864-4.1133-.3003-8.6824,1.1155-13.2032,4.0865-.2252.1448-.4451.311-.6704.4666-.0751.0536-.1502.1019-.2252.1555-.7937.5631-1.5874,1.1691-2.3811,1.8234-.2413.2038-.488.4076-.7293.6167-.1502.1287-.2949.2521-.4451.3861-.0268.0214-.0536.0429-.0804.0697-.3647.3271-.724.6596-1.0833,1.0028-.0429.0429-.0858.0804-.1341.1233,0,0-.0054.0107-.0107.0161-1.8341,1.7697-3.6145,3.7701-5.3092,5.9742-.0912.118-.1823.2467-.2735.3647-.0054.0054-.0107.0107-.0161.0161-.1394.1877-.2789.3808-.4183.5738-.1394.1877-.2789.3754-.4183.5685-.2038.2842-.4076.5738-.6114.8688-.118.1716-.2413.3379-.3539.5095-.0322.0483-.0644.0965-.1019.1448-.0965.1448-.1931.295-.2896.4398-.236.3539-.4666.7079-.6972,1.0672-.0375.059-.0751.1126-.1126.1716,0,.0054,0,.0107-.0054.0214-1.4748,2.3275-2.8477,4.7943-4.0918,7.3846-.7508,1.5606-1.448,3.1533-2.0969,4.7675,0,.0054-.0054.0107-.0107.0161-.0215.059-.0429.118-.0697.177-.1341.3379-.2628.6757-.3915,1.0136-.118.311-.2413.6221-.3539.9331-.0536.1502-.1073.3057-.1609.4558-.606,1.6786-1.1584,3.3678-1.641,5.0518-2.2309,7.819-3.1319,15.9061-2.5366,22.7705.6006,6.8966,2.6278,12.5704,5.8669,16.3995,1.0082,1.1905,2.1237,2.1827,3.3249,2.9817l.0054.0054.0215.0107c2.3114,1.523,4.9499,2.3221,7.8083,2.3221h.0483c3.2981-.0107,6.918-1.0994,10.4682-3.1533,4.553-2.6278,9.0524-6.8269,13.0477-12.1575.0375-.0536.0804-.1073.1234-.1609.0268-.0322.0483-.0697.0751-.1019.0429-.059.0858-.1126.1287-.1716.118-.1555.2252-.3218.3432-.4826.2252-.311.4505-.6275.6757-.9492.0483-.0751.1019-.1502.1502-.2199,2.365-3.4376,4.5369-7.2988,6.3335-11.3102,0-.0107,0-.0161.0054-.0268,0-.0161.0054-.0322.0107-.0429l.0107-.0107.0215-.0429h0c.1019-.2199.1716-.4451.2092-.665.0429-.2252.0429-.4398.0107-.6328-.0322-.2092-.1073-.3861-.2199-.5309-.0644-.0858-.1448-.1502-.2306-.2038s-.1823-.0912-.2896-.1073l-1.3997-.2628c-.6757-.1234-1.5123.5041-1.9467,1.4694-.2306.5095-.4666,1.0136-.7025,1.5123-.0268.059-.059.118-.0858.177-1.7912,3.7003-3.9095,7.1862-6.1887,10.1625-2.6868,3.5126-5.6846,6.4515-8.677,8.4947-2.0432,1.3943-4.0972,2.4025-6.1029,2.9871-.6489.1877-1.2871.3325-1.9199.429-.059.0107-.118.0161-.1716.0268-.2467.0375-.488.0644-.7293.0858-.0644.0054-.1287.0161-.1877.0215-.2574.0215-.5095.0268-.7669.0322h-.3539c-.1555,0-.311-.0054-.4666-.0161-.118-.0054-.236-.0107-.3539-.0161-.2306-.0161-.4612-.0429-.6918-.0751-.118-.0161-.2306-.0375-.3432-.0536-.1662-.0268-.3271-.059-.488-.0912-.0965-.0215-.1931-.0375-.2842-.059-.2413-.059-.4826-.1234-.7186-.1984-.118-.0375-.2306-.0751-.3432-.1126-.0751-.0268-.1555-.0536-.2306-.0804-.0965-.0375-.1984-.0751-.2949-.118-.1019-.0429-.2038-.0804-.3003-.1234-.0697-.0322-.1341-.0644-.2038-.0965-.1126-.0536-.2306-.1073-.3432-.1662-.2467-.1234-.4826-.2574-.7186-.3968-.1019-.0644-.2038-.1287-.311-.1931-.1555-.0965-.3057-.2038-.4505-.3057-.1984-.1394-.3915-.2842-.5792-.4398-.059-.0483-.1234-.0965-.1823-.1502-1.4533-1.212-2.7189-2.8101-3.754-4.7514-.2681-.5041-.5202-1.035-.7562-1.582-.0161-.0322-.0268-.0697-.0429-.1019-.3164-.7401-.6006-1.523-.8527-2.3382-.0483-.1502-.0965-.3003-.1394-.4558-.059-.1984-.118-.4022-.1716-.6114-.0644-.236-.1234-.4773-.1823-.7186-.0429-.1716-.0858-.3379-.1234-.5095-.0804-.3486-.1555-.7025-.2252-1.0618-.0322-.1662-.059-.3379-.0912-.5095-.0536-.2896-.1019-.5792-.1448-.8741-.0215-.1502-.0429-.2949-.0644-.4451-.0483-.3379-.0912-.6757-.1287-1.0189-.0107-.118-.0268-.236-.0375-.3539-.0429-.4183-.0804-.8473-.1126-1.2764,0-.0483-.0107-.0965-.0107-.1448-.0697-.9814-.1073-1.9896-.1073-3.0139v-.4183c0-.3486.0054-.7025.0161-1.0565.0054-.2092.0107-.4183.0215-.6275.0107-.2949.0268-.5953.0429-.8956.0107-.2145.0215-.4344.0375-.6543.0161-.2521.0375-.4987.059-.7508.0215-.236.0375-.4719.059-.7079h0c.3754-4.006,1.1959-8.13,2.4347-12.2487,1.0243-3.4054,2.3167-6.7464,3.8451-9.9212,1.3568-2.8155,2.8852-5.4862,4.5423-7.9316,1.5123-2.2309,3.1319-4.2688,4.8158-6.0546,1.4319-1.523,2.9603-2.9066,4.4565-4.0436.0322-.0268.0644-.0483.0965-.0751.177-.1341.3539-.2628.5309-.3861.0429-.0322.0858-.059.1287-.0912.236-.1662.4666-.3271.7025-.4826.0268-.0161.0536-.0375.0804-.0536.2413-.1609.4826-.311.7293-.4612.0215-.0107.0429-.0268.0644-.0375.2467-.1502.4934-.295.7401-.4344.0161-.0107.0375-.0214.0536-.0322.2521-.1394.5041-.2735.7562-.4022.0107,0,.0215-.0107.0322-.0161,2.1558-1.0886,4.2795-1.7161,6.3174-1.8716h.0483c.236-.0161.4719-.0268.7025-.0322h.1394c.2092,0,.4183,0,.6221.0107.0536,0,.1019,0,.1555.0054.2467.0161.4934.0322.7347.0644h.0375c.2252.0268.4505.0644.6704.1019.0912.0161.1823.0375.2681.0536.1448.0322.2842.059.429.0965.0965.0268.1931.0483.2896.0751.1341.0375.2681.0751.4022.118.0912.0322.1877.059.2789.0912.1448.0483.2896.1073.4344.1609.0751.0322.1502.059.2252.0912.2199.0912.4344.1877.6489.295,2.424,1.2066,3.813,4.1133,3.813,7.9745,0,7.8243-5.513,17.3755-12.2916,21.285l-17.7509,10.2483c-.7508.4344-1.3407,1.4533-1.3407,2.3167v1.9145c0,.4719.1716.8312.488,1.0136.1341.0804.2842.118.4451.118.2092,0,.4398-.0697.6704-.1984h0l17.7509-10.2483c.6275-.3647,1.2656-.7722,1.8931-1.2174,1.523-1.0779,3.0032-2.365,4.4082-3.8291,1.3782-1.4319,2.6653-3.0246,3.8398-4.73,1.1637-1.7,2.2041-3.5019,3.0943-5.3574.8902-1.8663,1.6249-3.7808,2.1773-5.6899.5631-1.9413.9385-3.872,1.1101-5.7275.1877-2.0111.1234-3.8827-.1716-5.5666-.0161-.1019-.0429-.1984-.0644-.3003l.0161-.0161ZM562.6202,493.0484l1.3997.2628c.0375.0054.0751.0215.1073.0429s.0644.0483.0858.0804c.0536.0697.0912.1662.1126.2842.0215.1341.0161.2896-.0107.4558-.0161.1073-.0483.2145-.0858.3218l-2.1827-1.2603c.2092-.1448.4129-.2092.5738-.1823v-.0054ZM561.6388,493.6115l1.8073,1.0404c-.4558-.1126-1.1369-.3271-2.0486-.6918.0751-.1287.1555-.2467.2467-.3486h-.0054ZM531.1405,491.0427l-.8956-.5148v-1.759c0-.5738.3647-1.2817.8312-1.6786.783,1.6249.8151,3.2713.0644,3.9578v-.0054ZM565.0496,454.7632c-.1716,1.8234-.5363,3.7164-1.094,5.631-.547,1.877-1.2656,3.7647-2.1451,5.6041-.8741,1.8341-1.9038,3.6092-3.0514,5.2877-1.153,1.6839-2.4294,3.2499-3.7808,4.6603-1.3782,1.4372-2.8369,2.7029-4.3278,3.7593-.6114.4344-1.2334.8366-1.8502,1.1905l-16.732,9.6584c.3271-.9921.1555-2.3918-.5309-3.7701l17.531-10.1196c6.9234-3.9953,12.5597-13.7556,12.5597-21.7516,0-4.0757-1.4962-7.1594-4.1079-8.4572-.2252-.1126-.4558-.2145-.6864-.311-.0697-.0322-.1448-.059-.2145-.0858-.1609-.0644-.3271-.1287-.488-.1823-.0858-.0268-.1662-.0536-.2521-.0804-.1609-.0536-.3218-.1019-.4826-.1448-.0804-.0214-.1609-.0429-.2413-.0644-.1877-.0483-.3754-.0912-.5685-.1287-.0536-.0107-.1073-.0214-.1609-.0322-.5148-.0965-1.0404-.1555-1.5713-.1877h-.0536c-.2521-.0107-.5095-.0161-.7615-.0161h-.0644c-1.7429.0214-3.5609.3861-5.4111,1.0994-.6382.2467-1.2817.5363-1.9199.8581l-.0322.0161c-.0161.0054-.0268.0161-.0429.0214-.236.1233-.4773.2467-.7132.3808-.0429.0214-.0858.0483-.1287.0751-.2199.1233-.4398.2521-.6596.3861-.059.0375-.118.0697-.177.1073-.2038.1233-.4022.2521-.606.3808-.0804.0483-.1555.1019-.236.1502-.177.118-.3539.2413-.5363.3647-.059.0429-.118.0804-.1823.1233h0c-.0483.0375-.0965.0751-.1502.1073-.1019.0751-.2038.1502-.311.2252-.1287.0965-.2521.1877-.3808.2896-.1341.1019-.2735.2091-.4076.3164-.059.0483-.1234.0965-.1823.1448-6.0224,4.8212-11.5408,12.7313-15.2518,22.1752-1.5177,3.8612-2.6439,7.7493-3.3947,11.5354-.0322.1716-.0644.3379-.0965.5095-.059.3164-.1234.6328-.177.9492-.0804.4558-.1555.9117-.2252,1.3622-.0107.0536-.0161.1073-.0268.1609-.1662,1.1155-.3057,2.2202-.4129,3.3196h0c-.0804.8741-.1448,1.7429-.1823,2.5849-.177,3.7593.059,7.2827.6918,10.4736.5524,2.7779,1.3997,5.2555,2.5205,7.3631.3968.7454.8312,1.4426,1.2924,2.0861.0215.0322.0429.059.0644.0912.1877.2628.3861.5148.5845.7615.0429.0536.0912.1126.1394.1662.1823.2145.3647.4183.5524.6221.0912.0965.1877.1984.2789.2949.1877.1877.3754.37.5685.547.1019.0912.2092.1823.3164.2735.1394.118.2842.236.429.3486.118.0912.2306.1823.3486.2681.2038.1502.4129.2896.6221.4237.0912.059.177.1126.2681.1662.2521.1502.5041.2949.7669.4237.0215.0107.0429.0268.0644.0375.0751.0375.1555.0697.236.1073.0965.0483.1984.0912.2949.1341.0912.0429.1877.0804.2842.118.118.0483.236.0965.3539.1394.0858.0322.1716.059.2521.0912.0697.0268.1394.0536.2145.0751.0429.0161.0858.0215.1287.0375.2038.0644.4022.118.6114.1716.0697.0161.1394.0375.2145.0536.2521.059.5095.1073.7669.1502.118.0215.236.0322.3539.0483.1555.0215.311.0375.4719.0536.1287.0107.2574.0215.3861.0322.1823.0107.37.0161.5577.0215.0804,0,.1609.0107.2413.0107.3861,0,.7776-.0215,1.1691-.059.1287-.0107.2574-.0268.3915-.0429.2467-.0268.4987-.059.7508-.1019.177-.0322.3593-.0644.5363-.1019.2038-.0429.4076-.0912.6114-.1394.1984-.0483.4022-.0965.6006-.1555.0322-.0107.0644-.0161.1019-.0268.2842-.0858.5738-.177.8634-.2789.0536-.0161.1019-.0322.1555-.0483,7.5347-2.6975,15.0266-10.7042,20.2768-21.5907.0322-.0644.059-.1287.0912-.1931.2038-.4237.4022-.8527.6006-1.2871.9653.3915,2.0432.7669,2.7297.8259-1.7858,3.8988-3.8344,7.5294-6.1082,10.8329-.0375.0536-.0697.1019-.1073.1555-.2413.3432-.4826.6811-.724,1.0189-.1341.1823-.2681.3754-.4022.5524-.0804.1126-.1662.2199-.2467.3271-2.6814,3.5555-5.6953,6.7035-8.7253,9.1007-.5309.4183-1.0618.8205-1.5874,1.1905-3.0622,2.1719-6.253,3.6628-9.2187,4.3171-2.8637.6275-5.572.5202-8.0388-.3164-2.8369-.9653-5.2716-2.8637-7.2291-5.647-2.0057-2.8477-3.4805-6.6499-4.2634-10.9991-.6114-3.4054-.8205-7.1433-.6167-11.1117.2252-4.36.9385-8.8969,2.1183-13.4714.5953-2.306,1.3032-4.5906,2.1129-6.8376.0536-.1502.1073-.3003.1609-.4505.1126-.311.2306-.6167.3486-.9224.1287-.3379.2574-.6757.3915-1.0082.665-1.6678,1.3836-3.3089,2.1558-4.9231,1.2764-2.6492,2.676-5.1644,4.1884-7.5348.2252-.3486.4505-.6918.6811-1.035.1287-.1931.2521-.3861.3861-.5792.1234-.1823.2467-.3593.3754-.5363.1931-.2789.3861-.5524.5792-.8259.1502-.2091.3057-.4183.4612-.6274.2199-.3003.4398-.6006.665-.8902,1.7161-2.2363,3.5287-4.2634,5.395-6.0493.3754-.3647.7562-.7133,1.1369-1.0565.1555-.1394.311-.2735.4666-.4076.2252-.1984.4558-.3861.6811-.5792.7883-.6543,1.5874-1.2656,2.3811-1.8287.059-.0429.1126-.0804.1716-.118,1.2066-.8366,2.4133-1.5659,3.6253-2.1773,2.6385-1.3353,5.2395-2.1076,7.7224-2.2899,1.9467-.1448,3.7969.0751,5.5237.6489.0215.0054.0429.0161.0644.0214.236.0804.4719.1716.7079.2628.059.0268.118.0483.177.0751.2521.1073.5041.2199.7454.3379h.0054c.0965.0483.1931.1073.2896.1609.1287.0697.2628.1394.3861.2199.0644.0429.1234.0912.1823.1287.1502.1019.3003.2038.4451.3164.0375.0322.0751.0697.1126.1019.1609.1341.3218.2681.4719.4129.0268.0268.0536.059.0858.0912.1555.1555.311.3164.4558.488.0268.0322.0536.0697.0804.1019.1394.1716.2789.3432.4129.5309.0375.0536.0697.1126.1073.1662.118.1716.2306.3432.3379.5256.0268.0429.0483.0912.0697.1341.1126.1984.2252.4022.3271.6114.0161.0375.0322.0804.0483.118.1019.2252.2038.4505.2949.6864.0375.1019.0751.2145.1126.3164.0644.177.1287.3486.1877.5363.0536.177.1019.3593.1502.5416.0322.118.0697.236.0965.3593.0697.2896.1287.5845.1823.8849,0,.0214.0107.0429.0107.0644.2789,1.6196.3379,3.4215.1555,5.3628v.0267ZM660.3092,336.7653h0c0-3.0729-1.0511-5.3682-2.9549-6.4676h-.0054l-9.6263-5.5559-2.2738-1.3139c-1.9038-1.0994-4.419-.858-7.0789.6757l-288.975,166.8317c-5.3843,3.1104-9.7657,10.6988-9.7657,16.9143v155.7146c0,3.0729,1.0511,5.3682,2.9549,6.4675l2.2738,1.3139,9.6316,5.5612c.7883.4558,1.6786.6811,2.6439.6811,1.3675,0,2.8745-.4558,4.435-1.3568l288.9697-166.8371c5.3843-3.1104,9.7657-10.6988,9.7657-16.9143h0v-155.7146h.0053ZM342.8522,669.5706c-1.7322-1.0028-2.6868-3.1319-2.6868-6.0064v-155.7146c0-6.0493,4.2634-13.4285,9.4975-16.4531l288.9697-166.837c2.4884-1.4372,4.8104-1.6732,6.5426-.6757l.3218.1877c-1.4748-.1073-3.1372.3432-4.8587,1.3353l-288.9697,166.8371c-5.3843,3.1104-9.7657,10.6988-9.7657,16.9143v155.7146c0,1.995.4505,3.6574,1.2871,4.8855l-.3325-.1931-.0054.0054ZM345.126,670.8792c-1.7322-1.0028-2.6868-3.1319-2.6868-6.0064v-155.7146c0-6.0493,4.2634-13.4285,9.4975-16.4531l288.9697-166.8317c2.4884-1.4372,4.8104-1.6732,6.5426-.6757l7.6795,4.435c-1.4748-.1073-3.1372.3432-4.8587,1.3353l-288.9697,166.8424c-5.3843,3.1104-9.7657,10.6988-9.7657,16.9143v155.7146c0,1.995.4505,3.6574,1.2871,4.8855l-7.6956-4.4404v-.0053ZM659.7729,492.4799c0,6.0493-4.2634,13.4285-9.4976,16.4477l-288.975,166.8424c-2.4883,1.4372-4.8104,1.6732-6.5426.6757-1.7322-1.0028-2.6868-3.1319-2.6868-6.001v-155.7146c0-6.0493,4.2634-13.4285,9.4975-16.4531l288.9697-166.8424c2.483-1.4372,4.8051-1.6732,6.5426-.6757h0c1.7322,1.0028,2.6868,3.1319,2.6868,6.001h0v155.7146h0l.0053.0054ZM496.0892,486.613c-2.7833-3.8022-6.5373-5.9795-10.8543-6.2959-4.1186-.3003-8.6824,1.1155-13.2032,4.0865-4.7085,3.0943-9.2884,7.8297-13.2461,13.6805-4.2849,6.3281-7.7117,13.761-9.9212,21.4888-1.7751,6.2101-2.7136,12.5651-2.7189,18.3783v65.3459h0c0,.4666.177.8205.488.9975.1341.0805.2842.118.4451.118.2091,0,.4398-.0697.6704-.2038h0l1.6893-.976c.7401-.429,1.3193-1.4265,1.3353-2.2846v-.0107h0v-65.362c0-1.3568.059-2.7672.177-4.1884h0c.0429-.5524.0965-1.1101.1609-1.6732.4344-3.9095,1.2764-7.8833,2.4937-11.8196,1.0618-3.4107,2.3918-6.7625,3.9685-9.9587,1.4104-2.8637,2.9817-5.5451,4.6764-7.9745,1.5391-2.2095,3.1962-4.2259,4.9123-5.9903,1.6035-1.6517,3.3142-3.1158,4.9392-4.242h0c.1662-.1126.3325-.2252.4987-.3379,3.6199-2.3811,7.272-3.5073,10.5755-3.2713,2.5312.1823,4.8319,1.1691,6.7947,2.8798.1662.1448.3325.3003.4934.4558.5899.5685,1.1423,1.2013,1.6625,1.9092,2.6975,3.6842,4.3117,9.2348,4.5477,15.638.2306,6.2852-.8634,13.525-3.089,20.3787-2.1237,6.548-5.3467,12.9512-9.0739,18.019-3.3518,4.553-7.1218,8.1193-10.908,10.3073-2.8423,1.641-5.7382,2.5152-8.3767,2.5205-.606-.0107-1.212-.0429-1.8019-.1287h-.1019c-.1341,0-.2735.0268-.4129.0804-.1823.0697-.3647.177-.5416.3271-.1716.1448-.3325.3164-.4719.5095-.1287.177-.2413.37-.3271.5685l-.9653,2.1612c-.1019.2199-.1662.4451-.2038.665-.0375.2252-.0429.4398-.0107.6328.0322.2038.1073.3808.2145.5202v.0054h0c.0697.0858.1502.1609.2413.2092.0912.0536.1931.0858.3003.1019h.0054c.7186.1073,1.464.1662,2.2041.1662h.0536c3.2981-.0107,6.918-1.0994,10.4682-3.1533.7293-.4183,1.4587-.8849,2.1827-1.3836,1.3568-.9385,2.7136-2.0164,4.0436-3.207,3.3678-3.03,6.6177-6.9073,9.4064-11.2244,3.1801-4.9231,5.9098-10.5916,7.8994-16.3941,1.9842-5.7865,3.2767-11.884,3.7432-17.6329.1823-2.2792.2413-4.5101.1609-6.6338-.2681-7.2613-2.1237-13.5947-5.2234-17.826v.0215ZM447.4914,603.7636h0c-.2306.1341-.4451.1609-.5845.0858-.0912-.0536-.1502-.1555-.1877-.2949.5953-.0375,1.1584-.1448,1.6625-.3057l-.8902.5148ZM461.1933,563.3334l-.1823-.1073c-.0429-.0644-.0804-.1502-.0965-.2521-.0214-.1341-.0161-.2896.0107-.4558.0322-.177.0858-.3539.1662-.5363l.9653-2.1612c.0751-.1662.1662-.3218.2735-.4719.118-.1609.2413-.3003.3808-.4129.1287-.1073.2628-.1877.3915-.236.0214-.0054.0375-.0107.059-.0161.2842,1.8502-.547,3.8237-1.9682,4.6496h0ZM500.6154,511.0352c-.4612,5.706-1.7483,11.7606-3.7164,17.5042-1.9735,5.765-4.6871,11.3906-7.8404,16.2761-2.7618,4.2742-5.9849,8.1193-9.3152,11.1117-1.3085,1.1798-2.6492,2.2417-3.9899,3.1641-.7079.488-1.4319.9492-2.1451,1.3622-3.4697,2.0057-6.9985,3.0675-10.2054,3.0782-.488,0-.9707-.0322-1.448-.0751,1.2978-1.0458,2.0003-2.9335,1.7429-4.7729.1877.0215.3754.0483.5631.0644h.0214c.3003.0215.606.0322.9063.0322h.0429c2.735-.0107,5.7221-.9063,8.6448-2.5956,3.8505-2.2256,7.6795-5.8401,11.0742-10.4521,3.7593-5.1161,7.0092-11.5676,9.149-18.1692,2.2417-6.918,3.3464-14.2222,3.1104-20.5664-.2413-6.5105-1.8931-12.1682-4.6496-15.9383-.5041-.6864-1.0458-1.3085-1.6249-1.8716-.0107-.0107-.0161-.0268-.0268-.0375-.0965-.0965-.1984-.1823-.3003-.2735h0c-.1073-.1019-.2145-.2038-.3271-.3003-.0161-.0161-.0375-.0215-.0536-.0322-2.0325-1.7268-4.4404-2.7511-7.0038-2.9388-3.4215-.2467-7.1915.9117-10.908,3.3571-.1716.1126-.3379.2252-.5095.3432h0c-1.6571,1.1423-3.3893,2.6331-5.0196,4.3063-1.7376,1.7912-3.4107,3.8291-4.9713,6.06-1.7107,2.4508-3.2981,5.1537-4.7193,8.0442-1.5874,3.2177-2.9281,6.5963-4.0007,10.0338-1.2334,3.9685-2.0808,7.9799-2.5152,11.9215-.0644.5685-.118,1.1369-.1609,1.6947h0c-.118,1.4319-.177,2.853-.177,4.2205v65.3298c-.0858,1.0833-1.6249,1.9735-3.5609,2.0968v-65.0616c0-5.765.9385-12.0663,2.6975-18.2282,2.1934-7.6742,5.5988-15.0534,9.8461-21.3386,3.9202-5.7972,8.4518-10.4736,13.1014-13.5357,4.419-2.9067,8.8701-4.2902,12.8654-4.0007,4.1562.3003,7.7707,2.4025,10.4575,6.0761,3.0354,4.1455,4.8533,10.3717,5.1161,17.531.0804,2.1022.0268,4.3171-.1609,6.5748l.0107.0054ZM635.415,425.6164c-.0107-.2038-.0214-.4076-.0375-.606-.0429-.5524-.0965-1.0886-.1555-1.6249-.0054-.0644-.0107-.1341-.0214-.1984-.0697-.5845-.1502-1.1637-.2413-1.7268,0-.0161,0-.0322-.0054-.0483-.0912-.5845-.1984-1.153-.3111-1.7161v-.0214c-.1126-.5577-.2413-1.0994-.3754-1.6357-.0054-.0214-.0107-.0483-.0161-.0697-.1341-.5148-.2735-1.0189-.429-1.5177-.0161-.0429-.0268-.0858-.0429-.1341-.1502-.4826-.3111-.9492-.4827-1.4104,0-.0107-.0107-.0268-.0107-.0375-.0107-.0322-.0268-.0644-.0375-.0965-.4558-1.212-.976-2.3435-1.5552-3.3893-.0375-.0644-.0697-.1287-.1019-.1931-.1555-.2735-.3164-.5363-.4827-.7991-.0912-.1448-.177-.2842-.2681-.4237-.1502-.2306-.3057-.4505-.4612-.6704-.118-.1609-.2413-.3218-.3593-.4773-.1502-.1931-.2949-.3861-.4505-.5738-.177-.2145-.3647-.4183-.5524-.6221-.1877-.2038-.3754-.3969-.5685-.5899-.1823-.177-.3593-.3593-.547-.5309l-.1126-.0965c-.1019-.0912-.2038-.1716-.3057-.2574-.2413-.2038-.488-.3969-.7401-.5845-.0858-.0644-.1716-.1287-.2628-.1931-.3325-.236-.6757-.4558-1.0243-.6596-.0214-.0107-.0429-.0322-.0697-.0429-.0965-.059-.2038-.1019-.3003-.1609-.1662-.0912-.3325-.1823-.5041-.2681-.1448-.0697-.2896-.1341-.4344-.2038-.1609-.0697-.3164-.1394-.4773-.2091-.1502-.059-.3057-.118-.4558-.1716-.1609-.059-.3271-.118-.4934-.1662-.1502-.0483-.3057-.0965-.4612-.1394-.177-.0483-.3539-.0965-.5309-.1394-.1448-.0375-.2949-.0697-.4398-.1019-.059-.0107-.118-.0268-.177-.0429-.1823-.0375-.37-.0644-.5577-.0912-.0644-.0107-.1233-.0214-.1823-.0322-.3379-.0483-.6757-.0804-1.0189-.1073h-.059c-.3218-.0214-.6435-.0322-.9707-.0322h-.1662c-.3111,0-.6221.0161-.9385.0375-.0375,0-.0751,0-.1126.0054-.7293.0536-1.4694.1555-2.2148.311-.0107,0-.0214,0-.0322.0054-.2306.0483-.4558.0965-.6864.1502-.1019.0268-.2092.059-.311.0858-.1126.0268-.2252.059-.3379.0912-.2681.0751-.5363.1555-.8044.2413-.1234.0375-.2413.0804-.3647.1233-.2628.0912-.5202.1823-.783.2842-.1287.0483-.2628.1019-.3915.1555-.2521.1019-.5041.2091-.7615.3218-.1394.0644-.2842.1287-.429.1931-.2413.1126-.4826.2306-.724.3539-.1555.0804-.311.1555-.4666.2413-.2306.1233-.4612.2467-.6864.3754-.0965.0536-.1931.1019-.2896.1609-.0644.0375-.1234.0751-.1823.1126-.311.1823-.6167.37-.9278.5685-.1341.0858-.2681.1662-.3968.2521-.4076.2681-.8098.5416-1.2174.8312-.1234.0912-.2467.1823-.37.2735-.2949.2199-.5899.4398-.8849.6704-.177.1394-.3539.2842-.5309.4237-.236.1877-.4666.3861-.7025.5792-.177.1502-.3539.3003-.5309.4558-.2574.2252-.5148.4612-.7722.6972-.1394.1287-.2789.2521-.4183.3861-.3861.3647-.7722.7454-1.1584,1.1316-.0912.0965-.1877.1931-.2789.2896-.311.3218-.6275.6489-.9385.9868-.0965.1019-.1877.2091-.2842.311-.3379.37-.6757.7508-1.0082,1.1423-.0429.0483-.0858.0965-.1234.1448-.1073.1233-.2145.2467-.3164.37-3.148,3.7593-5.9742,8.1139-8.3982,12.9351-1.8287,3.6306-3.4,7.524-4.6496,11.4603-.0215.0697-.0429.1341-.0644.2038-.1716.547-.3325,1.094-.4934,1.641-.0429.1448-.0858.2896-.1287.4344-.1341.4826-.2628.9599-.3915,1.4372-.059.2199-.118.4398-.1716.6596-.0268.1073-.059.2145-.0858.3218-.0697.2896-.1341.5792-.2038.8688-.0751.311-.1502.6221-.2199.9331-.059.2574-.1126.5202-.1662.7776-.0965.4612-.1931.917-.2789,1.3782-.0161.0965-.0322.1931-.0536.2896-.6006,3.2284-.976,6.4568-1.0833,9.637-.0215.6435-.0322,1.2817-.0322,1.9092v37.1214h0c0,.4666.177.8205.488.9975.1341.0804.2842.118.4451.118.2092,0,.4398-.0697.6704-.2038l1.6839-.9707c.7401-.429,1.3246-1.4265,1.3353-2.2899v-.0107h0v-37.1375c0-1.3782.059-2.8047.177-4.2527v-.0107c.0536-.6543.118-1.3139.1984-1.9842.4505-3.7969,1.2924-7.6849,2.4991-11.5569,1.0618-3.3893,2.3865-6.7089,3.9363-9.8568,1.3729-2.7887,2.9174-5.4218,4.5852-7.8243,1.5177-2.188,3.1319-4.183,4.7997-5.9259,1.6464-1.7215,3.4107-3.2499,5.1054-4.419h0c.3754-.2628.7562-.5095,1.1315-.7454,3.9309-2.4347,7.8458-3.3678,11.3209-2.6975,2.0647.3969,3.9417,1.3514,5.5827,2.8262,1.9092,1.7215,3.5073,4.1991,4.612,7.1808,1.2978,3.4912,1.9842,7.7868,1.9842,12.431v37.1214h0c0,.4666.177.8205.488.9975.1341.0804.2842.118.4451.118.2145,0,.4398-.0697.6704-.2038l1.6839-.9707c.7401-.429,1.3246-1.4265,1.3353-2.2899v-.0107h0v-37.1375c0-.6757-.0161-1.3514-.0429-2.0111-.0161-.4398-.0483-.8688-.0751-1.2978l-.0052.059ZM581.6689,498.0733c-.2306.1341-.4451.1662-.5845.0858-.0912-.0536-.1502-.1555-.1877-.2949.5953-.0375,1.1584-.1448,1.6625-.3057l-.8902.5148ZM632.2348,468.8728c-.2306.1341-.4451.1662-.5846.0858-.0912-.0536-.1502-.1555-.1877-.2949.5953-.0375,1.1584-.1448,1.6625-.3057l-.8956.5148h.0054ZM634.9913,466.0359c-.0912,1.0779-1.6303,1.9682-3.5555,2.0969v-36.8372c0-4.7032-.6972-9.0685-2.0164-12.6187-1.153-3.1051-2.7511-5.588-4.7568-7.39-1.7161-1.5445-3.6789-2.5366-5.8401-2.9549-3.6092-.6972-7.6581.2574-11.707,2.7672-.3861.2413-.7722.4934-1.153.7562h0c-1.7215,1.1905-3.518,2.7458-5.1912,4.4887-1.6893,1.7644-3.3196,3.7754-4.8533,5.9903-1.6786,2.424-3.2391,5.0839-4.6227,7.8941-1.5659,3.1748-2.9013,6.5158-3.9685,9.9373-1.2174,3.9041-2.07,7.8243-2.5205,11.6588-.0804.6757-.1448,1.3461-.2038,2.0111v.0107c-.118,1.4533-.1823,2.8959-.1823,4.2849v37.1053c-.0912,1.0779-1.6303,1.9682-3.5555,2.0969v-36.8372c0-.6274.0107-1.2549.0322-1.8877.1287-3.7325.6382-7.6956,1.4962-11.6534.0107-.0536.0215-.1126.0375-.1662.118-.5363.2467-1.0726.3754-1.6088.0375-.1555.0751-.311.1126-.4719.1234-.4987.2574-1.0028.3968-1.5016.0483-.1877.0965-.3754.1502-.5577.1394-.4934.2896-.9921.4398-1.4855.0536-.1823.1073-.3647.1662-.547.1555-.4934.3164-.9868.4826-1.4801.0644-.1877.1234-.37.1823-.5577.1502-.4451.311-.8902.4719-1.33.0858-.2413.1716-.4826.2574-.7186.118-.3164.2413-.6328.3647-.9492.1448-.37.2842-.7401.4344-1.1101.0322-.0858.0697-.1662.1073-.2521,2.0754-5.0625,4.6496-9.8461,7.5937-14.072.0215-.0268.0375-.0536.059-.0804.3325-.4719.665-.9385,1.0082-1.3997.1555-.2145.3164-.4183.4773-.6274.2038-.2681.4076-.5363.6114-.7991.2467-.3164.4987-.6221.7562-.9278.1287-.1555.2574-.3164.3861-.4719.2145-.2574.4344-.5095.6543-.7615.1394-.1555.2735-.3164.4129-.4719.236-.2628.4719-.5256.7132-.783.1126-.1233.2306-.2413.3486-.3647.8259-.8741,1.6678-1.6947,2.5205-2.4615.1287-.118.2628-.2413.3915-.3539.236-.2091.4666-.4076.7025-.606.1716-.1448.3379-.2842.5095-.4237.2145-.177.4344-.3539.6543-.5256.2306-.1823.4666-.3593.7025-.5309.1609-.118.3164-.2413.4773-.3593.0268-.0161.0536-.0375.0751-.0536.3808-.2681.7615-.5309,1.1423-.783.1287-.0858.2574-.1609.3861-.2413.311-.1984.6221-.3861.9331-.5738.1502-.0912.3057-.177.4558-.2628.2252-.1287.4505-.2521.6757-.37.1502-.0804.3003-.1555.4505-.2306.236-.118.4773-.236.7132-.3432.1394-.0644.2735-.1287.4129-.1877.2521-.1126.4987-.2145.7454-.3164.1234-.0483.2467-.1019.37-.1448.2574-.1019.5202-.1931.7776-.2842.1126-.0375.2252-.0751.3379-.1126.2681-.0858.5363-.1662.8044-.2413.1019-.0268.2038-.059.3057-.0858.3325-.0858.6596-.1662.9868-.236h.0054c.7401-.1502,1.4694-.2574,2.1827-.311h.0322c.3325-.0268.665-.0375.9921-.0429h.1126c.3325,0,.665.0054.9975.0268h.0107c.3432.0214.6865.059,1.0243.1019.0161,0,.0268,0,.0429.0054.2896.0429.5738.0912.858.1502.1233.0268.2413.0536.3593.0804.1931.0429.3808.0912.5685.1448.1394.0375.2735.0804.4129.1233.1662.0536.3325.1073.4987.1716.1448.0536.2896.1073.4344.1662.1555.0644.3057.1287.4612.1984.1448.0644.2896.1287.429.1984.1609.0804.3164.1609.4719.2467.1233.0644.2467.1341.37.2038.3379.1984.665.4076.9868.6328.0912.0644.177.1287.2681.1984.2413.177.4719.3647.7025.5577.1019.0858.2092.1716.3111.2628.2038.177.3968.37.5899.5631.252.2521.5041.5095.7454.783.1233.1394.2467.2735.3647.4129.1716.2091.3379.4237.5041.6435.0912.118.1823.236.2681.3593.177.2413.3486.4934.5148.7508.059.0858.1126.177.1716.2681.8312,1.3193,1.5606,2.7994,2.1719,4.4458.9063,2.4347,1.5445,5.2234,1.8984,8.2266,0,.0214,0,.0375.0054.059.0644.5685.1233,1.1476.1662,1.7322.0107.1609.0214.3271.0322.4934.0322.4558.059.917.0805,1.3782.0268.6489.0375,1.3085.0375,1.9789v37.1053l-.0162-.0107Z"/>
  </g>
  <g id="Layer_3" data-name="Layer 3">
    <path d="M354.29,676.72l.13.08c-3.09,1.71-6.92,2.29-11.93,2.29H122c-1.6309-.0004-3.2275-.469-4.6-1.35l-9.62-6.18c-.8592-.553-1.1074-1.6977-.5544-2.5569.1602-.2489.3778-.4557.6344-.6031l231.8-133.32v128.59c0,3,1,5.2,2.83,6.24l2.28,1.32,9.52,5.49Z"/>
  </g>
</svg>