<svg width="422" height="186" viewBox="0 0 422 186" fill="none" xmlns="http://www.w3.org/2000/svg">
<path d="M28.1405 2.24804H5.57851V89.0249H28.1405V53.0745C28.1405 44.7687 32.4793 39.3142 39.1736 39.3142C45.3719 39.3142 47.6033 43.1571 47.6033 51.4629V89.0249H70.1653V45.3885C70.1653 29.5208 61.9835 20.4712 47.9752 20.4712C38.9256 20.4712 33.0992 24.0662 28.1405 30.5125V2.24804ZM141.501 22.3307H118.94V58.9009C118.94 66.215 114.725 71.5456 108.154 71.5456C102.948 71.5456 100.22 69.0662 100.22 61.8761V22.3307H77.6585V67.3307C77.6585 83.8183 87.4519 90.7604 99.6007 90.7604C108.526 90.7604 114.849 87.5373 119.931 80.8431V89.0249H141.501V22.3307ZM230.213 20.4712C221.04 20.4712 214.098 24.0662 209.263 31.2563C206.288 24.4381 200.089 20.4712 191.164 20.4712C182.486 20.4712 176.784 23.4464 171.577 30.1406V22.3307H150.131V89.0249H172.693V52.0828C172.693 44.1489 176.66 39.3142 181.866 39.3142C187.941 39.3142 189.18 42.6613 189.18 52.2067V89.0249H211.742V52.0828C211.742 44.1489 215.461 39.3142 220.916 39.3142C226.37 39.3142 228.23 42.6613 228.23 52.2067V89.0249H250.792V45.8844C250.792 29.3968 243.726 20.4712 230.213 20.4712ZM288.907 20.4712C269.568 20.4712 258.659 28.1571 258.163 42.5373H280.477C280.725 37.7026 282.833 35.4712 288.535 35.4712C294.361 35.4712 295.849 37.5786 295.849 42.9092V45.6365L284.072 47.1241C263.122 49.7274 255.56 57.2894 255.56 70.3059C255.56 82.2067 263.494 90.7604 277.502 90.7604C285.436 90.7604 291.882 88.529 296.469 82.4547C296.841 84.81 297.709 87.0414 298.824 89.0249H320.642C318.783 84.3142 318.411 79.8513 318.411 74.1489V41.5456C318.411 28.1571 310.105 20.4712 288.907 20.4712ZM295.849 58.777V64.1075C295.849 69.934 291.386 74.1489 285.188 74.1489C280.849 74.1489 278.37 71.7935 278.37 67.8266C278.37 63.4877 281.221 61.0084 289.155 59.7687L295.849 58.777ZM369.291 20.4712C360.241 20.4712 352.927 23.8183 347.968 31.3803V22.3307H326.522V89.0249H349.084V53.0745C349.084 44.7687 353.423 39.3142 360.117 39.3142C366.316 39.3142 368.547 43.1571 368.547 51.7108V89.0249H391.109V45.3885C391.109 29.3968 382.927 20.4712 369.291 20.4712ZM37.8099 113.471C15.9917 113.471 2.35537 128.099 2.35537 148.802C2.35537 169.256 15.8678 183.76 37.686 183.76C54.0496 183.76 64.5868 175.951 70.4132 164.05L51.0744 156.612C49.3388 162.066 45.8678 166.405 39.0496 166.405C31.1157 166.405 26.0331 160.703 26.0331 148.554C26.0331 136.033 31.2397 130.827 38.9256 130.827C44.5041 130.827 48.4711 133.926 50.4545 139.752L70.0413 132.19C64.0909 120.165 53.8017 113.471 37.8099 113.471ZM112.733 113.471C105.791 113.471 99.5929 116.694 94.8822 125.992V115.331H73.4359V182.025H95.9979V157.108C95.9979 139.008 103.932 135.041 113.849 135.041C114.717 135.041 115.461 135.041 117.94 135.165V113.843C116.081 113.595 114.593 113.471 112.733 113.471ZM150.713 113.471C131.374 113.471 120.465 121.157 119.969 135.537H142.283C142.531 130.703 144.638 128.471 150.341 128.471C156.167 128.471 157.655 130.579 157.655 135.909V138.636L145.878 140.124C124.928 142.727 117.366 150.289 117.366 163.306C117.366 175.207 125.3 183.76 139.308 183.76C147.242 183.76 153.688 181.529 158.275 175.455C158.647 177.81 159.514 180.041 160.63 182.025H182.448C180.589 177.314 180.217 172.851 180.217 167.149V134.546C180.217 121.157 171.911 113.471 150.713 113.471ZM157.655 151.777V157.108C157.655 162.934 153.192 167.149 146.994 167.149C142.655 167.149 140.176 164.793 140.176 160.827C140.176 156.488 143.027 154.008 150.961 152.769L157.655 151.777ZM215.105 93.3885C198.617 93.3885 191.427 100.951 191.427 112.479V117.314H182.502V132.934H191.427V182.025H213.989V132.934H229.485V117.314H213.989V114.463C213.989 110.744 215.725 109.628 220.436 109.628C223.039 109.628 226.014 109.876 230.105 110.868V95.496C224.402 94.0084 219.94 93.3885 215.105 93.3885ZM258.119 100.207H235.557V117.314H226.631V132.934H235.557V161.57C235.557 175.703 241.383 183.76 258.738 183.76C264.441 183.76 269.771 183.017 274.234 181.529V164.67C271.135 165.413 268.656 165.909 265.433 165.909C259.606 165.909 258.119 163.43 258.119 157.975V132.934H273.366V117.314H258.119V100.207ZM308.429 113.471C286.859 113.471 274.09 127.975 274.09 148.678C274.09 169.132 287.85 183.76 309.792 183.76C324.916 183.76 335.33 177.81 342.024 167.521L324.297 159.215C321.445 163.802 317.602 167.025 311.032 167.025C303.47 167.025 298.016 162.934 297.272 154.256H342.52V150.289C342.52 127.232 329.379 113.471 308.429 113.471ZM308.305 128.967C314.999 128.967 319.214 132.438 319.71 141.24H297.148C297.644 132.314 302.602 128.967 308.305 128.967ZM414.283 95.248H391.721V119.793C387.63 115.827 381.928 113.471 374.49 113.471C358.25 113.471 344.49 126.984 344.49 148.554C344.49 169.008 356.019 183.76 373.498 183.76C381.308 183.76 388.002 180.909 392.713 175.207V182.025H414.283V95.248ZM380.812 130.703C388.374 130.703 393.333 136.405 393.333 148.678C393.333 160.703 388.622 166.281 380.812 166.281C372.878 166.281 368.167 160.579 368.167 148.678C368.167 136.777 372.63 130.703 380.812 130.703Z" fill="currentColor"/>
</svg>