<svg width="360" height="143" viewBox="0 0 360 143" fill="none" xmlns="http://www.w3.org/2000/svg">
<path d="M284.897 7.45331C285.762 2.54879 290.439 -0.726289 295.343 0.138488C300.248 1.00328 303.523 5.68027 302.658 10.5847L280.736 134.911C279.871 139.815 275.194 143.09 270.29 142.226C265.386 141.361 262.11 136.684 262.975 131.779L265.964 114.824C264.222 117.082 262.487 119.228 260.765 121.243C255.641 127.245 250.409 132.399 245.398 135.959C240.916 139.143 234.413 142.647 227.571 141.13L227.134 141.033L226.709 140.893C224.399 140.134 220.805 138.894 217.985 136.124C214.673 132.87 213.606 128.829 213.392 125.067C213.194 121.589 213.674 117.438 214.4 112.754C215.147 107.94 216.29 101.772 217.699 94.039C221.098 75.3865 237.301 61.5727 256.41 61.5726H275.354L284.897 7.45331ZM11.2037 68.7094C12.0686 63.805 16.7455 60.5305 21.6499 61.3953C26.5543 62.2602 29.8288 66.9371 28.964 71.8415L26.0653 88.2801C27.7455 86.1094 29.4202 84.0438 31.0806 82.0992C36.2048 76.0981 41.4372 70.9439 46.4483 67.3841C50.8605 64.2497 57.2307 60.8047 63.9549 62.1452L64.2752 62.2132L64.7118 62.3099L65.1365 62.4494C67.8626 63.3448 72.6301 64.9435 75.6641 69.3682C78.6809 73.7681 78.6934 78.984 78.3582 83.2528C78.2248 84.9513 77.9941 86.864 77.6832 89.0048C79.5504 86.568 81.4123 84.259 83.2564 82.0992C88.3807 76.0981 93.6131 70.9439 98.6241 67.3841C103.036 64.2497 109.406 60.8048 116.131 62.1452L116.451 62.2132L116.888 62.3099L117.312 62.4494C120.038 63.3448 124.806 64.9435 127.84 69.3682C130.857 73.7681 130.869 78.984 130.534 83.2528C130.175 87.8256 129.113 93.9505 127.671 101.904C126.197 110.034 124.244 120.491 121.932 134.248C121.106 139.159 116.456 142.471 111.544 141.645C106.633 140.82 103.321 136.169 104.146 131.258C106.483 117.354 108.467 106.732 109.925 98.6871C111.416 90.4656 112.282 85.3178 112.555 81.8413C112.614 81.0872 112.634 80.4988 112.637 80.0492C112.073 80.257 110.921 80.7706 109.068 82.0866C105.735 84.4547 101.596 88.3953 96.9722 93.8105C87.7779 104.578 77.6612 120 69.2688 136.786C67.6619 139.999 64.3943 141.833 61.026 141.769C60.4804 141.779 59.9261 141.739 59.3685 141.645C54.4572 140.82 51.1448 136.169 51.9703 131.258C54.3073 117.354 56.291 106.732 57.7495 98.6871C59.24 90.4656 60.1061 85.3178 60.3791 81.8413C60.4384 81.0872 60.4586 80.4988 60.4611 80.0492C59.8967 80.257 58.745 80.7706 56.8924 82.0866C53.5589 84.4547 49.4202 88.3953 44.7963 93.8105C35.7939 104.354 25.9074 119.359 17.6207 135.737C16.2864 139.997 11.9661 142.707 7.4527 141.911C2.93705 141.115 -0.196728 137.087 0.00961932 132.625C0.0197894 131.868 0.126006 131.105 0.334115 130.354L11.2037 68.7094ZM202.262 61.8508C203.612 61.853 204.983 62.1577 206.273 62.8026C209.487 64.41 211.321 67.6789 211.256 71.0482C211.264 71.608 211.22 72.1767 211.12 72.7484L200.263 134.319C199.399 139.224 194.721 142.499 189.816 141.634C184.912 140.769 181.638 136.092 182.502 131.188L185.324 115.182C183.603 117.411 181.887 119.53 180.186 121.522C175.062 127.523 169.83 132.678 164.819 136.237C160.337 139.422 153.834 142.926 146.992 141.408L146.556 141.312L146.13 141.172C143.819 140.413 140.225 139.172 137.406 136.402C134.094 133.148 133.027 129.107 132.813 125.345C132.615 121.867 133.095 117.717 133.821 113.032C134.567 108.219 135.711 102.051 137.121 94.3172C140.52 75.6647 156.723 61.8508 175.832 61.8508H202.262ZM341.129 61.2579C348.198 61.2579 354.419 64.9194 357.675 70.5499C361.064 76.4095 360.945 84.0212 356.007 90.11C345.492 103.076 329.73 114.559 313.646 117.809C314.761 120.708 317.568 122.827 320.945 122.827H347.095C352.075 122.827 356.112 126.864 356.112 131.844C356.112 136.825 352.075 140.862 347.095 140.862H320.945C304.873 140.862 292.697 126.351 295.488 110.523L298.656 92.5546C301.848 74.4542 317.575 61.2579 335.954 61.2579H341.129ZM175.832 79.8859C165.585 79.8859 156.727 87.3226 154.863 97.5503C153.425 105.442 152.342 111.285 151.643 115.796C151.037 119.703 150.812 122.083 150.803 123.572C151.366 123.365 152.519 122.853 154.374 121.535C157.708 119.167 161.847 115.226 166.471 109.811C173.218 101.909 180.461 91.5001 187.155 79.8859H175.832ZM256.41 79.6077C246.164 79.6078 237.306 87.0444 235.442 97.272C234.004 105.163 232.921 111.007 232.222 115.517C231.616 119.424 231.39 121.804 231.381 123.293C231.945 123.086 233.098 122.575 234.954 121.257C238.287 118.889 242.426 114.948 247.05 109.533C253.797 101.631 261.039 91.2218 267.734 79.6077H256.41ZM335.954 79.293C326.327 79.293 318.089 86.205 316.417 95.686L315.939 98.3948C324.771 95.0311 334.178 88.1893 341.525 79.3288C341.414 79.307 341.283 79.293 341.129 79.293H335.954Z" fill="currentColor"/>
</svg>
