<?xml version="1.0" encoding="UTF-8"?>
<svg xmlns="http://www.w3.org/2000/svg" viewBox="0 0 1000 1000">
  <g id="Layer_2" data-name="Layer 2">
    <path d="M684.4731,434.1211c-18.3104-33.766-43.1304-61.3968-69.8805-77.7991-26.8088-16.439-52.3627-19.6461-71.9574-9.0194l-151.1875,81.9969s-.0147.0147-.022.0147c-10.3037,5.5995-18.3911,14.8612-23.8219,27.0583-2.5246-4.3006-5.8197-7.603-9.768-9.8047l-9.0121-5.3647c-9.5038-5.6583-22.178-4.6675-35.6741,2.7741-13.4374,7.4122-26.1043,20.3433-35.6741,36.4227-19.7855,33.2523-19.969,69.7704-.411,81.4024l9.5845,5.7023s.0367.0073.0514.0147c3.9703,2.3484,8.5938,3.5814,13.7016,3.5814h.5578c.5871-.0073,1.1669-.0294,1.754-.066,6.6783-.3816,13.5035-2.2604,20.2919-5.5775,2.8988-1.4164,5.7977-3.1043,8.6231-5.0271l53.4708,31.8139c30.4342,58.175,79.2008,96.1976,118.5443,96.1902,8.1755,0,15.9473-1.6439,23.0587-5.0858.6532-.3156,1.2916-.6605,1.9228-.9981.0147,0,.0367,0,.0514-.0147l151.1875-81.9969c19.5874-10.6267,30.8451-33.788,31.6891-65.2276.844-31.3662-8.7773-67.2385-27.095-101.0045l.0147.0147ZM277.4389,561.1785c-19.2058-11.4266-18.9049-47.497.6678-80.397,9.5038-15.9693,22.0679-28.8123,35.3952-36.1585,13.2613-7.3168,25.6713-8.3076,34.9476-2.7888l4.418,2.6273c-1.5118-.4477-3.0823-.7706-4.7262-.9614-14.6116-1.6586-32.423,7.4343-47.6511,24.3283-24.9741,27.7041-35.4686,67.899-23.3962,89.5999,1.3724,2.4732,3.0236,4.6235,4.8877,6.4508,0,0-4.5427-2.7007-4.5427-2.7007ZM322.6902,564.7966c-6.7004,3.2731-13.4374,5.1298-20.013,5.5041-.5724.0294-1.1449.0514-1.7246.066-10.1203.1468-18.3544-4.5427-23.2201-13.2907-11.933-21.4514-1.4824-61.272,23.3008-88.756,15.0666-16.7179,32.6432-25.7153,47.0273-24.0861,3.4786.3963,6.649,1.4164,9.4891,3.0163l.4917.2935s.0367,0,.0514.0147c3.7061,2.2163,6.8031,5.4674,9.1589,9.6506-.9174,2.1283-1.754,4.3446-2.5099,6.649-4.3813-4.851-10.3551-7.3168-17.371-7.126-13.6576.3669-29.304,10.3918-41.8534,26.8088-19.7562,25.8401-25.2383,59.2758-12.2118,74.526,4.3519,5.0932,10.2524,7.6544,17.0555,7.6544,6.0619,0,12.843-2.0402,19.8662-6.1206l.7192.433c-2.708,1.82-5.4748,3.4346-8.2489,4.7849l-.0073-.022ZM301.7965,539.4482h0c.3009.6385.6238,1.2549.9834,1.8421.0147.0294.0294.0514.044.0807.0734.1174.1394.2348.2128.3523h0c.1394.2128.3376.3449.5798.389.9834,1.4091,2.1429,2.6346,3.4786,3.6254.0514.1761.1394.3229.2569.4403.0294.044.0587.0881.1101.1174.9247.6165,1.9301,1.1302,2.9796,1.5265l19.0516,11.3312c-14.4355,8.2635-27.7261,7.6911-35.6374-1.5705-12.8136-15.0079-7.3242-48.0254,12.2339-73.6086,12.4173-16.2409,27.8582-26.1556,41.2957-26.5226,6.9279-.1835,12.8356,2.3044,17.0922,7.1994-1.71,5.3867-2.9722,11.2211-3.7722,17.4518l-9.3717-5.5775c-.0514-.1321-.1321-.2495-.2275-.3376l-.0073-.0073c-.0147-.022-.0367-.0367-.0514-.0514s-.022-.0294-.044-.044c0,0-.0073,0-.0147-.0073h-.0147c-.3669-.2569-.7412-.4697-1.1228-.6825l-.1321-.0807s-.0367-.0147-.0514-.022c-.844-.4403-1.732-.7999-2.6493-1.0715h-.0147c-4.2785-1.2623-9.269-.6972-14.4208,1.4898-.0514.0073-.1027.0294-.1468.066-1.5412.6605-3.097,1.4678-4.6602,2.4145-.022.0073-.0367.022-.0587.0367-4.3373,2.6493-8.6745,6.3775-12.6815,11.0743h0c-.2642.3082-.455.6752-.5578,1.0494-1.6659,2.0255-3.2438,4.1905-4.7042,6.4729-.3082.1761-.6018.4624-.8219.8219h0c-.1615.2642-.3229.5284-.477.7926,0,.0073-.0147.0147-.022.022,0,.0073,0,.0147-.0073.022-4.9023,8.1681-7.8672,16.8426-8.7112,24.6659,0,.0294-.0073.0587-.0073.0881-.066.6165-.1174,1.2256-.1541,1.8347-.0073.0367-.0073.0734,0,.1101-.3302,5.3867.3963,10.2964,2.2383,14.2594l-.0147.0074ZM308.695,545.9284c-1.9008-1.1302-3.4933-2.6934-4.7556-4.6235-.022-.044-.044-.0881-.0807-.1248-.3523-.5431-.6678-1.1302-.9614-1.7246-.0073-.022-.0147-.044-.0294-.066-2.0402-4.1685-2.8255-9.6286-2.1723-15.9546v-.0587c0-.0294,0-.0514-.0073-.0807,0-.022-.022-.044-.0294-.066-.0073-.022-.0147-.044-.0294-.0587-.0147-.022-.0367-.0367-.0587-.0587-.0147-.0147-.022-.0294-.0367-.0367l-.044-.0294c.7119-6.3775,2.8621-13.3273,6.3334-20.1011.0147,0,.0294.0147.044.0147.066,0,.1248-.0147.1835-.0514.022-.0073.0294-.0294.044-.044.0294-.0294.066-.044.0881-.0807v-.0147h0c2.2677-4.374,4.9611-8.425,7.9333-12.0284,0,0,.0073-.0073.0147-.0147,5.3574-6.4875,11.6174-11.4926,17.9508-14.1493.0073,0,.0147-.0073.022-.0147.0147,0,.0294-.0147.0367-.0294.0367-.022.066-.0514.0954-.0881,0-.0073.0147-.0147.022-.022,0-.0073,0-.0147.0073-.022.0147-.022.022-.044.022-.0734,0-.022.0147-.044.0147-.066v-.066c4.851-1.9742,9.5185-2.4585,13.5181-1.2696l1.0054.5944h.022c.0147,0,.022.0147.0294.022.7265.2789,1.4311.6238,2.0916,1.0128l85.6003,50.9316h0l.2128.1248h0c.0587.0367.1321.0954.2202.1761.2275.2202.5211.5944.888,1.0641l.3082.3963c.5577.7119,1.2403,1.5485,2.2383,2.5025,1.1816,1.1302,2.5613,2.1576,4.2198,3.141,2.0329,1.2109,4.3813,2.2897,6.4142,3.1924.9687.4256,1.9595.8587,2.9722,1.2916,1.4237.6165,2.8768,1.2476,4.3373,1.9081,2.8255,1.2696,5.2473,2.4658,7.3975,3.6401.8366.455,1.6512.9247,2.4365,1.3871h0l12.6962,7.5517c-1.5045-.3449-3.1043-.477-4.7923-.389-.5944.0294-1.1962.0881-1.798.1688-9.0561,1.2403-19.0296,8.2048-27.0216,18.9709-.5577.7486-1.1008,1.5118-1.6292,2.2897-.2128.3156-.4183.6458-.6311.9687-.3009.4624-.6091.9174-.9027,1.3797-.2495.3963-.477.7999-.7192,1.2036-.2422.4036-.4844.7999-.7192,1.2036-.2422.4256-.4697.8587-.6972,1.2843-.2128.389-.433.7779-.6385,1.1742-.2202.4256-.4257.866-.6385,1.2916-.1982.4036-.4036.8073-.5944,1.2109-.1982.4256-.3816.8513-.5651,1.277-.1835.4183-.3743.8366-.5504,1.2623-.1761.4183-.3302.8293-.4917,1.2476-.1688.4403-.3523.8733-.5137,1.3137-.1541.411-.2862.8219-.4257,1.2329-.0807.2275-.1615.455-.2348.6825l-36.2832-21.5909h0c-.8807-.5284-1.8714-.8073-2.8475-.8146h-.0734c-.0514,0-.0954,0-.1468.0073h-.0881c-.0587-.0073-.1174,0-.1761.0147-.1835.0147-.3596.044-.5431.0734-.066,0-.1321,0-.1982.0367-.5431.1174-1.0788.3009-1.5632.5724-.866.4844-1.6512,1.2256-2.2237,2.0916-.5871.888-.9834,1.9521-1.1522,3.0823-.6238,4.1171-.6752,7.9773-.1541,11.478.1394.9467.5064,1.9962,1.0568,3.0383.5211.9834,1.2329,2.0182,2.0769,3.0016.7632.888,1.6586,1.7833,2.5979,2.5759.8953.7559,1.8274,1.4311,2.6934,1.9521l30.0379,17.8701s.0147.0367.0294.0514c.0147.022.022.0367.0367.0587s.0367.0367.0587.0514c.0147.0073.022.022.0367.0294l.7045.4183h.0147c.0514.0294.1027.044.1615.044h0c.0147,0,.0294,0,.044-.0073l5.4454,3.2364c.0294.066.066.1321.0954.1981.066.1394.1321.2789.2055.4183.0734.1468.1468.2862.2275.433.0734.1394.1468.2789.2275.4183.0734.1321.1541.2569.2275.389.0881.1394.1688.2862.2569.4256.0734.1174.1541.2275.2275.3449.0954.1468.1908.2862.2935.4256.0734.1028.1468.1981.2202.3009.1101.1468.2128.2862.3302.4256.0734.0881.1468.1761.2202.2569.0734.0807.1394.1688.2128.2495l-129.9489-77.322.0074.0586ZM447.4872,521.2405c.3523-.022.7045-.044,1.0641-.044h.0073c12.7769.0073,28.1591,15.096,34.654,33.8101l-15.6391-9.3056h0c-.7926-.4697-1.6146-.9394-2.4585-1.4017-2.1723-1.1889-4.6088-2.3851-7.4489-3.6621-1.4678-.6605-2.9282-1.2916-4.3519-1.9081-1.0054-.433-1.9962-.866-2.9649-1.2916-2.0108-.888-4.3299-1.9595-6.3334-3.1484-1.6072-.954-2.9429-1.9521-4.0877-3.0456-.9614-.9174-1.6219-1.732-2.1723-2.4218l-.3082-.389c-.3816-.4917-.6899-.8807-.9541-1.1375-.022-.022-.044-.044-.0734-.066l1.4311-.7779h0l9.6139-5.2106h.022ZM439.3558,524.8219c1.6953-1.6512,3.7355-2.7594,6.0472-3.2805l-6.0472,3.2805ZM441.2418,603.098s-.0147-.0514-.022-.0734v-.022c-.0073-.0147-.022-.022-.0294-.0367h0c-.0147-.0147-.022-.0294-.044-.044-.0073-.0073-.0147-.0147-.0294-.022,0,0-.0147-.0073-.022-.0147,0,0-.0073-.0147-.0147-.0147-.0073,0-.0147,0-.022-.0073,0,0-.0073,0-.0147-.0073h-.0147c-.022-.0073-.0367-.0147-.0587-.022h-.0954c.0734-.6825.1615-1.3797.2789-2.0696.4844-3.0016,1.321-6.1132,2.5025-9.2543,1.2036-3.2144,2.7301-6.3921,4.5427-9.4451,1.798-3.0309,3.8455-5.8784,6.0766-8.4617,2.1576-2.4952,4.4473-4.6969,6.8104-6.5536,2.2017-1.7246,4.5207-3.163,6.693-4.1538,2.1796-.9907,4.3299-1.5852,6.2013-1.7173,1.0935-.0807,2.1136,0,3.0236.2275,2.187.5504,4.0657,1.6659,5.5922,3.3245,7.3755,8.0067,4.6382,26.273-6.0912,40.7232-6.8545,9.2249-15.4703,14.9712-23.0513,15.3749-3.8676.1981-7.1921-1.0715-9.6065-3.6988-.6825-.7412-1.2696-1.6733-1.7393-2.7667-.6825-1.5852-1.1449-3.5593-1.321-5.7023-.1101-1.2916-.1101-2.686-.0294-4.1318l.499-1.1815v-.022c.0073-.022.0147-.0514.0147-.0734s.0073-.044,0-.066c0-.022-.0073-.044-.0147-.066l-.0147-.0221ZM441.4106,614.6347c.5064,1.1742,1.1375,2.1723,1.8787,2.9796,2.3925,2.598,5.6069,3.9556,9.3497,3.9556.2789,0,.5578,0,.8366-.022,7.7938-.411,16.6225-6.2674,23.6017-15.6684,10.9349-14.7217,13.6429-33.4064,6.0399-41.6626-1.6219-1.7613-3.618-2.9502-5.9445-3.5373h-.0073c-.9834-.2495-2.0769-.3303-3.2584-.2495-.6385.044-1.299.1468-1.9888.2862,2.1209-.6825,4.1611-1.0421,6.0839-1.0421,2.5612,0,4.917.6091,6.9719,1.8347,10.0395,5.9738,9.8561,24.8714-.411,42.1176-4.9904,8.3883-11.588,15.1327-18.582,18.9856-6.9279,3.8235-13.4081,4.3446-18.237,1.4678-3.7135-2.209-6.0252-6.1866-6.9426-11.1917.1835.6165.3743,1.2036.6091,1.7466h0ZM485.5831,560.496c-10.5092-6.2527-27.6748,3.1484-38.2721,20.9597-5.1152,8.6011-7.9626,17.8554-8.0214,26.0676-.0587,8.2856,2.7374,14.5236,7.8599,17.5692,2.2017,1.3063,4.7042,1.9595,7.4269,1.9595,1.2843,0,2.6273-.1541,3.9997-.4403-2.5099.7559-4.9831,1.1302-7.3975,1.1302-1.6733-.0073-3.3098-.2128-4.8657-.6091-.2715-.066-.5431-.1468-.8146-.2275-.1321-.044-.2642-.0881-.389-.1394-.1321-.044-.2642-.0881-.3963-.1394-.1615-.0587-.3156-.1321-.4697-.1981-.0954-.044-.1908-.0807-.2862-.1174-.1688-.0734-.3302-.1615-.499-.2422-.0807-.0367-.1615-.0734-.2422-.1174-.1688-.0881-.3302-.1835-.4917-.2789-.0734-.044-.1468-.0807-.2202-.1248-.1615-.0954-.3229-.2055-.477-.3082-.066-.044-.1394-.0881-.2128-.1394-.1541-.1101-.3082-.2202-.455-.3303-.066-.0514-.1394-.1028-.2055-.1541-.1468-.1101-.2862-.2348-.4257-.3523-.066-.0587-.1394-.1174-.2055-.1761-.1321-.1174-.2642-.2422-.3963-.3669-.0734-.066-.1394-.1321-.2128-.1981-.1248-.1248-.2422-.2495-.3669-.3816-.0734-.0807-.1468-.1541-.2202-.2348-.1101-.1248-.2202-.2569-.3302-.3816-.0734-.0881-.1541-.1761-.2275-.2715-.1027-.1248-.1982-.2569-.2935-.389-.0734-.1028-.1541-.2055-.2275-.3082-.0881-.1248-.1761-.2569-.2642-.389-.0807-.1174-.1541-.2275-.2275-.3449-.0807-.1248-.1615-.2569-.2348-.389-.0734-.1248-.1541-.2569-.2275-.3816-.0734-.1248-.1394-.2569-.2128-.389-.0734-.1394-.1468-.2789-.2202-.4183-.066-.1321-.1321-.2642-.1908-.3963-.0954-.1981-.1835-.389-.2715-.5871-2.8181-6.4875-2.686-15.7712.3669-25.4731.1688-.5284.3523-1.0568.5357-1.5852.1394-.3963.2642-.7926.411-1.1889.1615-.4403.3376-.8807.5137-1.321.1615-.4036.3156-.8146.4844-1.2183.1761-.4183.3669-.8366.5504-1.2476.1835-.4256.3669-.844.5651-1.2623.1835-.3963.3816-.7853.5724-1.1742.2128-.433.4183-.8733.6458-1.3063.1908-.3743.4036-.7486.6018-1.1155.2348-.4403.4697-.8807.7192-1.3137.2128-.3816.4477-.7486.6678-1.1228.2495-.4183.4917-.844.7486-1.2549.2715-.433.5577-.8587.8366-1.2843.2275-.3449.4477-.6972.6825-1.0421.5211-.7632,1.0568-1.5191,1.6072-2.2604,8.403-11.3092,18.9709-18.3545,28.2692-18.8461,3.2511-.1688,6.1866.5137,8.6672,1.9888h.0147v.0073c1.1449.6825,2.1943,1.5338,3.1337,2.5539,1.7687,1.9228,3.1851,4.2419,4.1978,6.8838.499,1.3063.8953,2.686,1.1962,4.1244-1.2476-4.1831-3.5447-7.3755-6.7811-9.3056h-.0221ZM431.7234,614.664c-.022-.0367-.0514-.066-.0807-.0954.0073-.0734,0-.1468-.0367-.2202-.0954-.1761-.3229-.2422-.499-.1468l-.2348.1321c.0881-.1101.1027-.2642.0367-.3963-.0954-.1761-.3229-.2422-.499-.1468l-.7339.3963-30.0893-17.9068h0c-.7853-.4624-1.6659-1.1082-2.4732-1.8053-.8513-.7265-1.6953-1.5778-2.3851-2.3998-.7486-.888-1.387-1.8274-1.842-2.708-.477-.91-.7853-1.82-.91-2.6346-.5064-3.4272-.455-7.2214.1541-11.2651.1468-.9614.477-1.8641.9687-2.6126.4697-.7265,1.1155-1.343,1.8274-1.7466.6972-.3963,1.5118-.5944,2.2897-.6091.7926,0,1.6292.2495,2.3558.6825h0l36.408,21.6643c-2.9135,9.4157-3.1337,18.1123-.6605,24.6879l-3.8676-2.3044.1321-.0734c.1761-.0954.2422-.3156.1468-.499l-.0074.0074ZM526.3944,682.6951c-40.7746,19.7488-103.4116-20.4607-140.0692-89.7247l55.6798,33.1275c.0367.022.0807.0514.1174.0734.0734.044.1468.0807.2202.1248.1761.1028.3449.1981.5284.2935.0807.044.1688.0807.2495.1248.1761.0881.3449.1761.5211.2495.1027.044.2055.0881.3082.1248.1615.066.3229.1394.4917.2055.1394.0514.2862.1028.433.1468.1321.044.2642.0954.3963.1394.2789.0881.5651.1688.8586.2422,1.6145.4036,3.3098.6165,5.0418.6311h.1468c3.4419,0,7.0233-.7706,10.656-2.3044,3.4786-1.4678,6.9279-3.5887,10.245-6.3187,3.163-2.598,6.1353-5.6876,8.836-9.1736,2.664-3.4419,4.9978-7.1847,6.9279-11.1257,1.9668-4.007,3.4639-8.1094,4.4473-12.1898,1.0054-4.1685,1.4531-8.2122,1.3283-12.021-.1174-3.6107-.7632-6.9572-1.9008-9.9295-1.0494-2.7301-2.5099-5.1298-4.3446-7.1187-.9907-1.0788-2.1062-1.9815-3.3171-2.7007-6.4215-19.3672-22.3761-35.1164-35.6301-35.1237h-.0073c-.3963,0-.7853.022-1.1669.044h-.0514c-4.0143.3082-7.4122,2.1283-9.8781,5.328l-1.7026.9247-2.187-1.3063c.1615-.2935.3449-.5871.5504-.844l.044-.0587c.1321-.1541.1027-.389-.0514-.5137s-.389-.1027-.5137.0514l-.0514.066c-.2202.2789-.4257.6018-.6018.9247l-.0954-.0587c.0514-.0954.1027-.1982.1615-.2935.1688-.2715.3523-.5357.5577-.7853.0954-.1174.1908-.2275.2935-.3376.1394-.1468.1321-.3816-.022-.5211-.1174-.1101-.2789-.1248-.411-.0587-.1394-.0587-.3009-.0294-.411.0881l-.0954.1027c-.3449.3963-.6532.844-.91,1.299l-.499-.2935c.1394-.2202.2715-.4477.4257-.6532.0734-.1027.1468-.1982.2275-.2935.1248-.1541.1027-.389-.0514-.5137s-.389-.1027-.5137.0514c-.0807.1027-.1688.2128-.2495.3156-.1688.2202-.3156.4697-.4624.7119l-.0954-.0587c.3229-.5211.6678-1.0054,1.0494-1.4384.1321-.1541.1174-.3816-.0294-.5211-.1174-.1027-.2862-.1174-.4183-.044-.1394-.0514-.3009-.0147-.4036.1027-.0807.0954-.1615.1908-.2422.2862-.2789.3449-.5357.7265-.7779,1.1228l-1.1669-.6972c.1174-.1908.2422-.3816.389-.5871l.0294-.0367c.1174-.1615.0734-.3743-.0881-.4917-.1615-.1248-.4036-.066-.5284.0954l-.044.0587c-.1321.1835-.2569.389-.3743.5944l-.0881-.0514c.2422-.3963.499-.7779.7853-1.1228.1321-.1541.1101-.389-.044-.5137-.1248-.1027-.2862-.1101-.411-.0367-.1394-.0514-.3009-.0073-.4036.1101l-.1394.1761c-.2128.2789-.4183.5798-.6091.8953l-1.5778-.9394c.1027-.1615.1982-.3229.3009-.477.1174-.1615.0807-.3963-.0807-.5137-.1688-.1174-.3963-.0807-.5137.0807-.1174.1688-.2275.3523-.3376.5284l-.0881-.0514c.2128-.3449.433-.6752.6825-.9687.1248-.1541.1027-.389-.0514-.5137-.1248-.1027-.2862-.1027-.4183-.0294-.1394-.044-.3082,0-.4036.1174-.0514.066-.1027.1321-.1541.2055-.1688.2202-.3156.4697-.4697.7192l-.5357-.3156c.1101-.1615.0734-.3816-.0807-.499-.1615-.1248-.389-.0881-.5137.0734-.0147.0147-.022.0294-.0367.0514l-.0881-.0514c.0514-.066.0954-.1394.1394-.2055.0734-.0954.1541-.1982.2348-.2862.1321-.1541.1101-.389-.044-.5211-.1174-.1027-.2862-.1101-.4183-.0367-.1394-.0514-.3009-.0073-.4036.1101-.1174.1394-.2202.3009-.3302.455l-60.7069-36.1218c3.2438-26.0162,14.7217-45.0385,32.357-53.5809,41.0021-19.8589,104.1162,20.9084,140.6856,90.8769,23.6237,45.1999,31.3736,94.2528,20.2185,128.0114-5.4528,16.4977-15.2208,28.5554-28.2545,34.8595v.0514ZM710.8342,535.0963c-.8366,31.1681-11.955,54.1093-31.3075,64.6038l-143.8266,78.0046c8.7552-6.9205,15.4556-16.9894,19.6388-29.6416,11.2138-33.9421,3.4493-83.2078-20.2625-128.5839-35.0797-67.1284-94.583-107.448-135.8934-93.5482l143.8046-77.9826c19.3525-10.4945,44.6422-7.2948,71.2235,8.9974,26.64,16.3363,51.3646,43.8643,69.6163,77.5202s27.8436,69.3961,27.0069,100.6302ZM404.1293,586.1012c-.2569-.5137-.5798-1.0054-.9247-1.4091-.3596-.4183-.7632-.7632-1.1742-1.0128-.4257-.2495-.8733-.4036-1.2916-.4403-.1248-.0073-.2495,0-.3743,0h-.0073c-.0367,0-.066.0073-.0954.0147-.022,0-.0367,0-.0587.0073-.2348.0367-.4624.1174-.6678.2348-.3523.2055-.6458.5211-.844.9247-.1908.3816-.2935.8513-.3009,1.3503,0,.4844.0807,1.0128.2422,1.5412.1615.5137.4036,1.0421.7045,1.5412.2935.477.6532.9394,1.0348,1.3357.3816.389.7999.7265,1.2036.9687.4257.2495.844.411,1.2329.4624.0954.0147.1835.022.2789.022.3156,0,.6018-.0734.8513-.2202.1615-.0954.3082-.2202.433-.3669,0-.0073.0147-.0147.0147-.022.0147-.0147.022-.0367.0367-.0514.0073-.0147.022-.022.022-.0367.0881-.1248.1688-.2569.2348-.4036.1541-.3596.2422-.8146.2422-1.3063,0-.477-.0587-1.0128-.1908-1.5485-.1321-.5357-.3376-1.0862-.5871-1.5925l-.0147.0073ZM403.9899,590.2624c-.044.1028-.0954.1835-.1541.2642-.1174.0807-.2422.1394-.3816.1688-1.1228.2348-2.7374-1.1595-3.5153-3.0236-.499-1.1962-.5724-2.3925-.1908-3.1117.1615-.3082.3963-.499.6972-.5724.0367,0,.0734-.0147.1101-.0147h.1248c.3082.022.6532.1468.9761.3376.3449.2055.6825.499.9907.8587.3082.3596.5944.7926.8293,1.2549.2275.455.411.954.5284,1.4384.1174.4624.1761.9467.1688,1.365,0,.3963-.0734.7632-.1835,1.0274v.0073ZM402.1698,586.637c-.1982-.1248-.4183-.1394-.6018-.0367-.3156.1761-.389.6165-.1615,1.0348.1688.3082.4403.4917.6972.4917.0881,0,.1761-.022.2569-.066.3156-.1761.389-.6165.1615-1.0348-.0881-.1615-.2128-.3009-.3596-.389h.0073Z"/>
  </g>
  <g id="Layer_3" data-name="Layer 3">
    <path d="M428.66,651.87c-31.89,100.71-35.15,110.84-55.85,123.13s-131.23,72.26-141.81,78-25.54-3.52-11.44-82.78c-7-2.65-27.31-11.45-21.58-25.55s73.92-185.44,73.92-185.44l.41-.42c1.3426,1.2924,2.8289,2.4264,4.43,3.38l9.57,5.69h0c4.2863,2.4881,9.1868,3.7184,14.14,3.55.58,0,1.16,0,1.74-.07,7.0339-.4785,13.8998-2.3658,20.19-5.55,3.0496-1.4964,5.9872-3.2109,8.79-5.13l53.84,32c12.24,23.4,27.37,43.5,43.65,59.19Z"/>
  </g>
</svg>