<?xml version="1.0" encoding="UTF-8"?>
<svg xmlns="http://www.w3.org/2000/svg" viewBox="0 0 1000 1000">
  <g id="Layer_2" data-name="Layer 2">
    <path d="M779.09,406.02c0-4.0743-2.7162-7.8864-7.6429-10.7338l-35.7604-20.6526c-3.6903-2.1355-8.3453-3.5404-13.4593-4.0837l-29.5413-143.2571c-.4683-2.2947-1.714-4.0462-3.4187-4.8049-.2248-.103-.4589-.178-.6931-.2435-.0094,0-.0187-.0094-.0281-.0094l-2.735-.7306c-1.3206-.3466-2.7256-.1218-4.0743.6556l-131.1372,75.7076h0c-3.4374,1.9857-5.5074,7.1184-4.6269,11.4456h0v.0281l.0937.4683c-.6369-1.4049-1.611-2.4727-2.838-3.0253-.2248-.103-.4589-.178-.6931-.2435,0,0-.0187-.0094-.0281-.0094l-2.735-.7306c-1.3206-.3466-2.7256-.1218-4.065.6556h0l-131.1278,75.7076c-3.4374,1.9856-5.5167,7.1184-4.6363,11.4549h0v.0281l.0937.4683c-.6369-1.4049-1.6204-2.4727-2.838-3.0253-.2248-.103-.459-.178-.6931-.2435,0,0-.0187-.0094-.0281-.0094l-2.7349-.7306c-1.3206-.3465-2.7256-.1218-4.0743.6556l-131.1278,75.7356h0c-3.4374,1.9856-5.5074,7.1184-4.6269,11.4456h0v.0281l28.3517,137.525-23.9027,13.7965c-4.9267,2.8567-7.6429,6.6688-7.6429,10.7431h0v27.5275c0,4.0743,2.7162,7.8864,7.6429,10.7337l35.7604,20.6433c4.9922,2.8848,11.558,4.3272,18.1144,4.3272s13.1221-1.4424,18.1144-4.3272l154.9743-89.476,286.1114-165.1835c4.9267-2.8473,7.6429-6.6594,7.6429-10.7338h0v-27.5275h.0094ZM688.8928,223.3403c1.4237.6369,2.4727,2.1449,2.8848,4.1399l33.3158,161.6056-142.1987,82.1047-33.2596-161.2965c-.8242-3.9807,1.0584-8.6825,4.1773-10.4809l131.1372-75.7169c1.33-.768,2.735-.8992,3.9432-.3559h0ZM582.0331,471.6775l-1.4611.843-33.5312-162.6172,1.7328.4589,33.2596,161.3153h0ZM685.5303,222.4036c-.2904.103-.5807.2342-.8617.384l-1.227-.3278c.7118-.1967,1.4143-.2342,2.0887-.0656v.0094ZM682.0461,223.0686l1.4518.384-129.9851,75.0426-1.4518-.384,129.9851-75.0426ZM550.9183,298.7762l1.5548.4121c-2.7443,2.1542-4.3741,6.3691-3.887,10.153l-1.7515-.4683c-.665-3.8495,1.1146-8.2798,4.0743-10.1062l.0093.0094ZM542.8539,307.6554c1.4237.6369,2.4727,2.1449,2.8848,4.1399l33.3158,161.6056-140.3817,81.0557-1.8171,1.049-33.2596-161.2965c-.8242-3.9807,1.0584-8.6825,4.1774-10.4809l131.1372-75.7076c1.33-.768,2.735-.8992,3.9432-.3559v-.0093ZM436.0036,555.9927l-1.4611.843-33.5312-162.6172,1.7234.459,33.2596,161.3153h.0094ZM539.4915,306.7188c-.2904.103-.5807.2342-.8617.384l-1.227-.3278c.7118-.1967,1.4143-.2342,2.0887-.0656v.0094ZM536.0072,307.3838l1.4518.384-129.9851,75.0426-1.4518-.384,129.9851-75.0426h0ZM404.8888,383.0913l1.5548.4121c-2.7443,2.1542-4.374,6.3691-3.887,10.153l-1.7515-.459c-.665-3.8495,1.1146-8.2798,4.0743-10.1062h.0093ZM396.8151,391.9706c1.4237.6369,2.4727,2.1449,2.8848,4.1399l33.3158,161.6056-142.1987,82.1047-33.2503-161.3059c-.8242-3.9807,1.0584-8.6825,4.1774-10.4809l131.1371-75.7076c1.33-.768,2.7349-.8992,3.9432-.3559h-.0094ZM393.4526,391.0339c-.2904.103-.5807.2342-.8617.384l-1.227-.3278c.7118-.1967,1.4143-.2342,2.0887-.0656v.0094ZM389.9683,391.699l1.4518.384-129.9757,75.0425-1.4518-.384,129.9851-75.0425h-.0094ZM258.8499,467.4065l1.5548.4121c-2.7443,2.1542-4.374,6.3691-3.887,10.153l-1.7515-.4589c-.665-3.8495,1.1146-8.2798,4.0743-10.1062h.0094ZM254.9723,478.5336l1.7234.4589,33.2596,161.3153-1.4611.843-33.5219-162.6172ZM287.6512,641.6472l-9.9189,5.7228c-1.4143.8149-3.7559.843-5.2545.1124v-2.8755l14.1056-8.1393,1.0678,5.1889v-.0093ZM258.1287,677.0611c-4.1774-2.6132-6.4721-5.9663-6.4721-9.4974v-23.4812c1.1521,2.4446,3.3531,4.6925,6.4721,6.5377v26.441ZM293.8891,697.7231l-34.8238-20.1094v-26.4503l34.8238,20.1094v26.4503ZM329.6589,698.2569c-9.6754,5.4418-25.1578,5.4418-34.8238,0v-26.4784c4.8986,2.6319,11.1459,3.9619,17.4119,3.9619s12.5133-1.33,17.4119-3.9619v26.4784ZM770.7447,443.6068l-285.8773,165.0524-154.2718,89.0732v-26.4503l154.7401-89.3448,285.409-164.7808v26.4504h0ZM770.9788,415.9388l-286.1114,165.1835-154.9743,89.476c-9.7316,5.6198-25.5606,5.6198-35.2921,0l-35.7604-20.6433h0c-4.6269-2.6694-7.1746-6.1911-7.1746-9.9189s2.5476-7.2495,7.1746-9.9189l23.6311-13.6467,3.9245,19.0229-14.6114,8.439c-.946.5432-1.4705,1.3019-1.4705,2.1261s.5245,1.5829,1.4705,2.1261c.0094,0,.0281.0094.0468.0187h.0187c.8898.4964,2.0231.7493,3.1564.7493s2.3135-.2623,3.2126-.7774l160.9406-92.9228,292.0684-168.6303c.946-.5432,1.4705-1.3019,1.4705-2.1261s-.5245-1.5829-1.4705-2.1261c-1.7796-1.0303-4.5707-1.0397-6.3691-.0281h-.0094c-.0187,0-.0281.0094-.0468.0187l-.103.0656-2.2479-10.9211c4.8611.5526,9.282,1.9014,12.785,3.9245l35.7604,20.6526c4.6269,2.6694,7.1745,6.1911,7.1745,9.9189s-2.5476,7.2495-7.1745,9.9189l-.0188.0188ZM271.5412,645.3188v1.4705c-.1873-.2342-.2997-.487-.2997-.7399s.103-.5058.2997-.7399v.0094ZM725.4869,386.3695v-3.2782c1.508-.7399,3.8402-.7118,5.2545.1124.6463.3746,1.0022.843,1.0022,1.3113s-.3559.946-1.0022,1.3113l-4.7955,2.7724-.4589-2.2292h0ZM778.1534,433.5474c0,3.5311-2.2947,6.8748-6.4721,9.4974v-26.441c3.119-1.8452,5.32-4.0837,6.4721-6.5377v23.4812h0ZM762.5023,400.4564c-5.0578-2.9223-13.2907-2.9223-18.3485,0l-286.1114,165.1835-35.7604,20.6526c-2.5383,1.4611-3.9338,3.4468-3.9338,5.5636s1.3956,4.1024,3.9338,5.5636c2.0512,1.1802,4.6269,1.8826,7.2963,2.1074.0281,0,.0562.0281.0937.0281.0187,0,.0281-.0094.0468-.0094.5807.0468,1.1614.0749,1.7421.0749,3.325,0,6.6501-.7306,9.1789-2.1917l35.7604-20.6433,286.1114-165.1835c2.5383-1.4705,3.9338-3.4468,3.9338-5.5636s-1.3956-4.1024-3.9338-5.5636l-.0093-.0187ZM422.7503,596.6142c-2.2385-1.2925-3.4655-2.9785-3.4655-4.7581,0-1.6672,1.0959-3.2501,3.0721-4.5052l6.4534,11.1646c-2.2198-.281-4.3272-.9085-6.0506-1.9107l-.0094.0093ZM475.9226,575.9616l-35.7604,20.6433c-2.7818,1.611-6.5751,2.276-10.2186,2.0231l-6.7905-11.764,35.3577-20.4185,285.7087-164.9494,8.4765,14.6769-276.7639,159.7886h-.0094ZM762.034,410.778l-8.5327,4.9267-8.4671-14.6582c4.8237-2.5476,12.326-2.4821,16.9998.2154,2.2386,1.2925,3.4655,2.9785,3.4655,4.7581s-1.2364,3.4655-3.4655,4.7581h0Z"/>
  </g>
  <g id="Layer_3" data-name="Layer 3">
    <path d="M294,698.91c.8018.4642,1.6299.8815,2.48,1.25-31.57.93-31.57-1.49-37.26-4.7s-29.6-17.46-35.47-20.67-10.05-8.72-4.14-15.18l-191.46-16.45c-1.331-.1215-2.3115-1.299-2.1901-2.6299.0711-.7791.5144-1.4757,1.1901-1.8701l124-71.59c2.9685-1.7069,6.3884-2.4642,9.8-2.17l112.81,9.68h.09l8.53,41.42-24.24,14c-4.95,2.85-7.42,6.6-7.42,10.34v27.58c0,3.88,2.67,7.6,7.42,10.35l35.86,20.64Z"/>
    <path d="M259.47,504.86l14.37,69.7h-.09l-2.07-9.87-95-8c-1.045-.0955-1.8147-1.0201-1.7192-2.0651.0557-.6094.4016-1.1548.9292-1.465l83.58-48.3Z"/>
  </g>
</svg>