<?xml version="1.0" encoding="UTF-8"?>
<svg id="Layer_3" data-name="Layer 3" xmlns="http://www.w3.org/2000/svg" viewBox="0 0 1000 1000">
  <path d="M479.47,722.1l5.65,3.26-.07.12h-.06l-.09.05c-1.46.83-15.38,8.65-121.82,68.07-58.49,32.72-101.08,56.97-102.2,57.5-1.9.93-3.42,1.41-4.41.76-1.27-.84-1.9-1.23-2.89-1.89s-1.32-1.16,0-2,76.07-44.42,84.66-49.21,8.37-2.53,15.58-6.78c5.42-3.1799,125.65-69.8799,125.65-69.8799Z"/>
  <path d="M556.7931,225.8433l-6.2989-3.6347c-1.7431-1.0003-4.3874.4358-6.0216,3.2683-.7527,1.3073-1.1786,2.7236-1.1786,3.9715v17.4705c0,2.0303-.3664,4.2092-1.0894,6.4871-2.7533,8.6362-9.8346,15.9453-15.9156,16.5197-.614-1.3568-.931-3.0306-.9112-4.9718.0693-6.497-2.0897-11.3598-6.0711-13.7169-.0198-.0099-.0495-.0297-.0693-.0396l-.0099-.0099-6.2989-3.6347h0c-3.9715-2.2878-9.2106-1.7926-14.7568,1.4163-5.4571,3.1494-10.5873,8.5669-14.4399,15.2322s-5.9919,13.8061-5.9919,20.1149v436.6736c0,.6636.2575,1.1885.7131,1.446h0l6.2989,3.6348h0c.1981.1188.416.1684.6537.1684.307,0,.6339-.0891.9508-.2773,1.0102-.5843,1.8124-1.961,1.8223-3.1296l4.4171-439.4071c.0792-7.9132,5.6848-17.4804,12.4987-21.3231,1.5648-.8814,3.0801-1.3965,4.4766-1.5351.6239,1.3766.9607,3.0801.9409,4.9916-.0693,6.4474,2.1789,11.4687,6.1503,13.7664l6.2989,3.6347h.0297c1.6242.931,3.4664,1.4064,5.467,1.4064,2.783,0,5.8433-.9013,9.0225-2.6939,11.2608-6.3484,20.5209-22.1452,20.6596-35.2183v-17.7478c0-1.3469-.4853-2.3769-1.3568-2.8721l.0099.0099ZM543.1356,253.6931c.7527-2.367,1.139-4.6548,1.139-6.7842v-17.4606c0-1.0696.3763-2.3373,1.0399-3.4763,1.3172-2.2779,3.4565-3.6149,4.6747-2.9018l4.5657,2.6344c-.307.099-.614.2278-.931.416-2.2581,1.3073-4.0309,4.3676-4.0309,6.9823v17.629c-.0792,7.9132-5.6848,17.4804-12.4987,21.3231-3.1792,1.7926-6.1404,2.0699-8.3193.7725-.7923-.4655-1.4559-1.139-1.9808-1.961,6.3484-.8914,13.5486-8.3589,16.3514-17.1536l-.0099-.0198ZM484.0489,287.6734v436.842l-5.1005-2.9415h0c-.1288-.0792-.2179-.2971-.2179-.5942v-436.6637c0-6.0414,2.1293-13.2019,5.8433-19.6296,3.7635-6.5267,8.765-11.8055,14.0834-14.8757,5.2293-3.0207,10.1119-3.5258,13.7664-1.4163h0l2.476,1.4262c-3.0801-.2971-6.5663.5843-10.1911,2.6245-11.2608,6.3484-20.5209,22.1452-20.6596,35.2183v.0099ZM517.1676,278.4628c-3.6545-2.1095-5.7146-6.8139-5.6551-12.8949.0198-1.9115-.2872-3.5951-.8715-5.0312,1.0201.0396,1.961.307,2.7929.7923,2.2284,1.3172,3.4367,4.1101,3.397,7.8736-.0396,4.4072.9409,8.0618,2.8127,10.6863l-2.4661-1.4262h-.0099ZM557.1497,246.1859v.2674c-.1287,12.7562-9.171,28.1766-20.1545,34.3666-5.1797,2.9217-10.0129,3.3574-13.6179,1.238-3.6645-2.1591-5.6452-6.7248-5.5759-12.8553.0396-4.1299-1.337-7.2299-3.8823-8.7353-1.1885-.7032-2.5552-.9904-4.0309-.9211h-.0495c-1.6341.099-3.4069.6537-5.2293,1.6837-7.0912,4.0012-12.9246,13.9447-13.0038,22.1749l-4.4171,439.4071c0,.822-.614,1.8719-1.3271,2.2878-.2575.1486-.4853.1882-.6239.1089s-.2179-.2971-.2179-.5942v-436.9311c.1288-12.7562,9.171-28.1766,20.1545-34.3666,5.1798-2.9217,10.0129-3.3574,13.6179-1.238,3.6645,2.1591,5.6452,6.7248,5.5759,12.8454-.0198,2.2383.3863,4.1497,1.1588,5.6948.0099.0297.0297.0594.0396.0792.6537,1.2677,1.545,2.2779,2.684,2.9514,1.0696.6339,2.2779.9409,3.5852.9409,1.7728,0,3.714-.5744,5.7344-1.7035,7.0912-4.0012,12.9147-13.9447,13.0038-22.1749v-17.6488c0-2.2482,1.5846-4.9916,3.5357-6.1206.8517-.4853,1.6242-.5843,2.1789-.2674h0c.5546.3169.8616,1.0399.8616,2.0204v17.4903Z"/>
</svg>