<?xml version="1.0" encoding="UTF-8"?>
<svg xmlns="http://www.w3.org/2000/svg" viewBox="0 0 1000 1000">
  <g id="Layer_2" data-name="Layer 2">
    <path d="M506.5209,370.0224l-66.7674-38.5515c-3-1.7326-5.8335-2.0014-7.9843-.7596l-5.0398,2.9104h0c-2.1465,1.2418-3.3328,3.8321-3.3328,7.2929v16.1691l-1.6131-.9303s-.0256-.0085-.0384-.0128c-.0171-.0085-.0384-.0171-.0555-.0171h-.1152c-.0213,0-.0384.0128-.0555.0171-.0128.0043-.0256.0043-.0384.0128l-1.6131.9303v-16.1691c0-3.4651-1.1821-6.0554-3.3328-7.2929l-5.0398-2.9104c-2.1508-1.2418-4.9843-.9687-7.9843.7596l-66.7716,38.5515c-6.0725,3.5035-11.0141,12.0639-11.0141,19.0752v72.0034c0,.3243.0128.6614.0341.9986h0v.0085h0c.1024,2.8677,1.3954,5.4068,3.5419,6.9644.2518.1835.5249.3585.8065.5206l.0043.0043,66.6095,38.4576h.0128c2.4068,1.3784,5.2233,2.091,8.2147,2.091,1.0967,0,2.219-.0982,3.3499-.2902h5.3257c.2048.064.4139.1238.623.1835l7.2375,4.1778h0c.0043,0,.0085,0,.0171.0043.0427.0213.0853.0341.1323.0341h0c.0469,0,.0939-.0128.1323-.0341.0043,0,.0085,0,.0128-.0043h0l7.2375-4.1778c.2091-.0597.4182-.1195.623-.1835h5.3257c1.1522.1963,2.2873.2944,3.3926.2944,2.5519,0,4.9672-.5163,7.1137-1.5363.3542-.1707.6999-.3585,1.0412-.5548.0085,0,.0171,0,.0256-.0085l66.6095-38.4576s.0171-.0171.0256-.0213c.5633-.3243,1.0754-.6956,1.5277-1.1052,1.7112-1.5533,2.7055-3.815,2.7994-6.3584h0v-.0043h0c.0213-.3371.0341-.6742.0341-.9986v-72.0034c0-7.0113-4.9416-15.5717-11.0141-19.0752v-.0043ZM424.0027,340.9146c0-3.2389,1.0754-5.6415,3.0298-6.7723,1.9545-1.1266,4.5746-.8577,7.3783.7596l66.7674,38.5472c4.8477,2.7994,9.0084,8.8932,10.3057,14.987l-2.3215-1.34c-2.1508-1.2418-4.9843-.9687-7.9843.7596l-12.2388,7.0668-64.9409-37.4932v-16.5147h.0043ZM467.6451,449.6132v2.3385c0,5.8378-1.835,12.6229-5.0739,18.9557l-40.6382,23.462v-18.3668l45.7121-26.3895h0ZM421.933,475.3028v-18.3668l45.7121-26.3895v18.3668l-45.7121,26.3895h0ZM468.2511,451.9518v-32.0096h0c0-6.8193,4.8051-15.1449,10.7111-18.5545l22.5232-13.0027c2.8037-1.6173,5.4238-1.8904,7.3783-.7596l2.8378,1.6387c-1.6643-.1195-3.5377.3841-5.4793,1.5064l-22.5232,13.0027c-6.0725,3.5078-11.0141,12.0639-11.0141,19.0752h0v32.0096c0,6.5547-2.3044,14.3042-6.3243,21.2601l-12.8533,22.2629-4.3741-2.5263-.1408-.0811,12.8533-22.2629c4.1308-7.1521,6.4053-14.8121,6.4053-21.563v.0043ZM416.2275,334.1466h0c1.9545,1.1266,3.0298,3.5334,3.0298,6.7723v16.519l-64.9409,37.4932-12.2388-7.0668c-3-1.7326-5.8335-2.0014-7.9843-.7596l-2.3215,1.34c1.293-6.0938,5.4537-12.1876,10.3057-14.987l66.7716-38.5515c2.8037-1.6173,5.4238-1.8904,7.3783-.7639h0v.0043ZM381.4185,473.5148l12.8533,22.2629-.1408.0811-4.3741,2.5263-12.8533-22.2629c-4.0199-6.9601-6.3243-14.7096-6.3243-21.2601v-32.0096c0-7.0113-4.9416-15.5717-11.0141-19.0794l-22.5232-13.0027c-1.9417-1.1223-3.815-1.6259-5.4793-1.5064l2.8378-1.6387c1.9545-1.1266,4.5746-.8577,7.3783.7596l12.3925,7.1521h0l10.1307,5.8506c5.906,3.4096,10.7111,11.7353,10.7111,18.5545v32.0096c0,6.7553,2.2745,14.4109,6.4053,21.563h0ZM326.331,389.0976c0-6.8193,4.8051-15.1449,10.7111-18.5545l66.7674-38.5472c2.8037-1.6173,5.4238-1.8904,7.3783-.7596l2.8421,1.6387c-1.6643-.1195-3.5377.3841-5.4793,1.5064l-66.7716,38.5515c-5.1294,2.9616-9.512,9.4906-10.7026,15.9173l-2.0185,1.165c-1.2546.7212-2.1764,1.9075-2.7269,3.4523v-4.3698h0ZM330.4149,469.0767l-.0043-.0043c-.2646-.1536-.5206-.3158-.7553-.4907-1.9971-1.4466-3.1963-3.8193-3.2901-6.5035v-.0085c-.0213-.3286-.0341-.6572-.0341-.9687v-63.793c0-3.2389,1.0754-5.6415,3.0298-6.7723h0c1.9545-1.1266,4.5746-.8577,7.3783.7596l22.5232,13.0027c5.906,3.4096,10.7111,11.7353,10.7111,18.5545v32.0096c0,6.7553,2.2745,14.4109,6.4053,21.563l12.9942,22.5061c.9431,2.5434,2.3129,4.741,4.0156,6.4992l-62.9737-36.3538ZM408.5761,509.2541v-2.4793l4.2973,2.4793h-4.2973ZM421.327,513.4361l-17.2999-9.9857c-.1451-.0854-.3286-.0341-.4139.111s-.0341.3286.1109.4139l4.246,2.4495v2.8719c-4.4381.7084-8.667-.1323-11.9316-2.3855-2.6458-1.8264-4.7197-4.5832-6.0213-7.9843l4.4082-2.5434.1536-.0896c1.963,3.1152,4.8136,5.4878,8.0568,6.6955.303.111.6188.2176.9388.3158.0299.0085.0597.0128.0896.0128.128,0,.2475-.0854.2902-.2134.0469-.1579-.0427-.3286-.2006-.3755-.3073-.0939-.6145-.1963-.9047-.303-3.2048-1.1949-6.0127-3.5675-7.9074-6.687l-13.0027-22.5189c-.2518-.431-.495-.8705-.7297-1.3058l40.1176,23.1633v18.3668-.0086ZM421.327,494.3695l-40.6382-23.462c-3.2389-6.3328-5.0739-13.1179-5.0739-18.9557v-2.3385l45.7121,26.3895v18.3668h0ZM421.327,475.3028l-45.7121-26.3895v-18.3668l45.7121,26.3895v18.3668ZM421.63,456.4154l-46.0151-26.5644v-9.9046c0-7.0113-4.9416-15.5717-11.0141-19.0752l-9.6784-5.5903,66.7076-38.5173,66.7076,38.5131-9.6784,5.5903c-6.0725,3.5078-11.0141,12.0639-11.0141,19.0752h0v9.9046l-46.0151,26.5644v.0043ZM434.6839,509.2541h-4.2972l4.2973-2.4793v2.4793h0ZM445.2158,508.072c-2.9061,1.3784-6.3285,1.8008-9.9216,1.2247v-2.8719l4.246-2.4495c.1451-.0854.1963-.2688.111-.4139-.0811-.1451-.2688-.192-.4139-.111l-17.2999,9.9857v-18.3668l40.1176-23.1633c-.2347.4395-.4779.8748-.7297,1.3058l-12.9984,22.5189h0c-.9986,1.6429-2.2062,3.0554-3.5889,4.1991-1.5064,1.2461-3.2645,2.1806-5.2318,2.7823-.1579.0469-.2475.2176-.2006.3755.0384.1323.1579.2134.2902.2134.0299,0,.0597,0,.0896-.0128,2.0398-.623,3.8705-1.596,5.4409-2.8933,1.3656-1.1266,2.5604-2.5092,3.5633-4.1009l.1536.0896,4.4125,2.5476c-1.6045,4.1948-4.4466,7.438-8.0269,9.1407h-.0128ZM516.9333,461.101c0,.3158-.0085.6444-.0299.9687v.0085c-.0854,2.3855-1.0071,4.4978-2.6031,5.9445-.4267.3883-.9132.7383-1.4466,1.0455-.0085.0043-.0128.0128-.0213.0213l-62.9609,36.3495c1.7112-1.7624,3.0896-3.9729,4.0241-6.5077l12.9942-22.5019c4.1308-7.1521,6.4053-14.8121,6.4053-21.563v-32.0053h0c0-6.8193,4.8051-15.1449,10.7111-18.5545l22.5232-13.0027c2.8037-1.6173,5.4238-1.8904,7.3783-.7596,1.9545,1.1266,3.0298,3.5334,3.0298,6.7723v63.793l-.0043-.0085ZM516.9333,393.4674c-.5548-1.5448-1.4765-2.7311-2.7269-3.4523h0l-2.0185-1.165c-1.1949-6.4267-5.5775-12.9558-10.7026-15.9173l-66.7716-38.5515c-1.9417-1.1223-3.815-1.6259-5.4793-1.5064l2.8378-1.6387c1.9545-1.1266,4.5746-.8577,7.3783.7596l66.7674,38.5472c5.906,3.4096,10.7111,11.731,10.7111,18.5545v4.3655l.0043.0043Z"/>
    <path d="M743.2241,506.1053l-110.3325-63.6988c-3.003-1.7343-5.8394-2.0034-7.9923-.7604l-5.0448,2.9133h0c-2.1486,1.2431-3.3362,3.8359-3.3362,7.3002v15.9333l-1.6147-.9312s-.0256-.0085-.0384-.0128c-.0171-.0085-.0384-.0171-.0598-.0214h-.1153c-.0214,0-.0384.0128-.0555.0171-.0128.0043-.0256.0043-.0384.0128l-1.6147.9312v-15.929c0-3.4686-1.1832-6.0615-3.3362-7.3002l-5.0448-2.9133c-2.1529-1.2431-4.9893-.9697-7.9923.7604h0l-110.3282,63.6988c-6.0786,3.5113-11.0251,12.0802-11.0251,19.0985v72.0756c0,.3289.0128.6707.0342,1.0124h0c.094,2.5502,1.0893,4.8099,2.8022,6.3648.4528.4101.9654.7817,1.5293,1.1064.0085.0085.0171.0171.0256.0214l110.1701,63.6091h.0085c2.4092,1.3797,5.2285,2.0931,8.2229,2.0931,1.0978,0,2.2213-.0982,3.3532-.2905h3.8957c.9056.3503,1.8624.6536,2.8577.897l6.4459,3.7206h0c.0043,0,.0085,0,.0171.0043.0427.0214.0854.0342.1367.0342h0c.047,0,.094-.0128.1324-.0342.0043,0,.0085,0,.0128-.0043h0l6.4459-3.7206c.991-.2435,1.9521-.5468,2.8577-.897h3.8957c1.1534.1965,2.2896.2947,3.4002.2947,2.5545,0,4.9722-.5169,7.1166-1.5378.3545-.1709.7048-.3588,1.0423-.5553.0085,0,.0171,0,.0256-.0086l110.1701-63.6091h.0043c.2819-.1623.5553-.3375.8073-.5211,2.1487-1.5591,3.4387-4.0965,3.5455-6.9713h0v-.0086h0c.0214-.3375.0342-.6749.0342-.9996v-72.0755c0-7.0183-4.9466-15.5873-11.0251-19.0943l.0043-.0043ZM617.125,451.8596c0-3.2422,1.0765-5.6471,3.0329-6.7791,1.9564-1.1277,4.5792-.8586,7.3857.7604l110.3325,63.6988c4.8526,2.8022,9.0174,8.9021,10.316,15.002l-2.3238-1.3413c-2.1529-1.2431-4.9893-.9697-7.9923.7604l-12.0332,6.9457-108.7178-62.7633v-16.2835ZM660.0167,611.6022v3.0115c0,5.5574-1.6617,11.9692-4.6134,18.0392l-40.35,23.2933v-18.3852l44.9591-25.9588h.0043ZM615.0533,636.8605v-18.3852l44.9591-25.9588v18.3852l-44.9591,25.9588ZM660.6233,614.6137v-32.9601c0-6.8261,4.8099-15.1601,10.7218-18.5731l54.6515-31.5504h0l12.187-7.0354c2.8065-1.619,5.4293-1.8923,7.3857-.7604l2.8407,1.6403c-1.666-.1196-3.5412.3844-5.4848,1.5079l-66.8342,38.5858c-6.0786,3.5113-11.0251,12.0759-11.0251,19.0943v32.9601c0,6.557-2.3067,14.3143-6.3306,21.2814l-12.0674,20.9054-4.3784-2.5288h0l-.141-.0812,12.0674-20.9055c4.135-7.1593,6.4118-14.8269,6.4118-21.5846l-.0043.0043ZM609.3464,445.0847h0c1.9564,1.1277,3.0329,3.5369,3.0329,6.7791v16.2835l-108.7178,62.7676-12.0332-6.9457c-3.003-1.7343-5.8393-2.0034-7.9923-.7604l-2.3238,1.3413c1.2943-6.0999,5.4592-12.1998,10.316-15.002l110.3324-63.7031c2.8065-1.619,5.4293-1.8923,7.3857-.7646h0v.0043ZM575.2928,636.1984l12.0674,20.9055-.141.0812h0l-4.3784,2.5288-12.0674-20.9055c-4.0239-6.9671-6.3306-14.7244-6.3306-21.2814v-32.9601c0-7.0183-4.9466-15.5872-11.0251-19.0943l-66.8342-38.5943c-1.9436-1.1234-3.8189-1.6275-5.4848-1.5079l2.8406-1.6403c1.9564-1.132,4.5792-.8586,7.3857.7604l12.187,7.0354h0l54.6515,31.5504c5.912,3.413,10.7218,11.747,10.7218,18.5731v32.9601c0,6.7578,2.2768,14.4254,6.4117,21.5846l-.0043.0043ZM475.8616,525.2038c0-6.8261,4.8099-15.1601,10.7218-18.5731l110.3282-63.6988h0c2.8065-1.619,5.4293-1.8923,7.3857-.7604l2.8406,1.6403c-1.6659-.1196-3.5412.3844-5.4848,1.5079l-110.3282,63.6988c-5.1345,2.9645-9.5215,9.5002-10.7133,15.9333l-2.0205,1.1662c-1.2559.7219-2.1785,1.9094-2.7296,3.4558v-4.3742.0043ZM479.9666,605.2716s-.0128-.0128-.0214-.0171c-.534-.3033-1.0209-.6578-1.4481-1.0466-1.5933-1.4481-2.5203-3.5626-2.6057-5.9504v-.0043h0c-.0214-.3289-.0299-.6536-.0299-.9697v-63.8569c0-3.2422,1.0765-5.6471,3.0329-6.7791h0c1.9564-1.1277,4.5792-.8586,7.3857.7604l66.8342,38.5858c5.912,3.413,10.7218,11.747,10.7218,18.5731v32.9601c0,6.7578,2.2768,14.4254,6.4117,21.5846l12.2126,21.1489c.944,2.5459,2.3152,4.7458,4.0196,6.5057l-106.5136-61.4947ZM601.683,670.5894v-2.2341l3.8658,2.2341h-3.8658ZM614.451,675.0319l-17.7273-10.2349c-.1452-.0812-.3289-.0342-.4144.1111s-.0342.3289.1111.4143l4.6604,2.6911v2.6228c-4.4425.7091-8.6714-.1324-11.9435-2.3836-2.6484-1.8283-4.7244-4.5877-6.0273-7.9923l4.4126-2.5459h0l.1538-.0897c1.965,3.1183,4.8184,5.4933,8.0649,6.7022.1495.0555.299.1068.4485.1623.0342.0128.0641.0171.0983.0171.1239,0,.2435-.0812.2862-.205.0555-.158-.0299-.3289-.188-.3845l-.4357-.1538c-3.208-1.1961-6.0188-3.5711-7.9154-6.6937l-12.2169-21.166c-.4314-.7475-.8372-1.5036-1.2302-2.264l39.8588,23.0114v18.3852l.0043-.0042ZM614.451,655.9462l-40.35-23.2976c-2.9517-6.0657-4.6134-12.4818-4.6134-18.0392v-3.0115l44.9591,25.9588v18.3852l.0043.0043ZM614.451,636.8605l-44.9591-25.9588v-18.3852l44.9591,25.9588v18.3852ZM614.7543,617.9499l-45.2624-26.134v-10.1665c0-7.0183-4.9466-15.5872-11.0251-19.0943l-54.1987-31.2898,110.4862-63.7928,110.4862,63.7885-54.1987,31.2898c-6.0786,3.5113-11.0251,12.0759-11.0251,19.0943v10.1665l-45.2624,26.134v.0043ZM627.8213,670.5894h-3.8658l3.8658-2.2298v2.2298ZM638.3594,669.4062c-2.909,1.3797-6.3391,1.8026-9.9316,1.226v-2.6271l4.6604-2.6911c.1452-.0854.1965-.2691.1111-.4143-.0812-.1452-.2691-.1922-.4144-.1111l-17.7273,10.2349v-18.3852l39.8588-23.0114c-.3887.7604-.7988,1.5164-1.2302,2.264l-12.2169,21.1618h0v.0043h0c-.9953,1.6403-2.2042,3.05-3.5882,4.1948-1.384,1.1405-2.9859,2.029-4.7629,2.6313-.158.0555-.2435.2264-.188.3845.0427.1239.1623.205.2862.205.0342,0,.0641-.0043.0983-.0171,1.8496-.6279,3.5156-1.5506,4.9551-2.7381,1.3669-1.132,2.563-2.5117,3.5668-4.105l.1538.0897h0l4.4169,2.5502c-1.6061,4.199-4.4511,7.4455-8.035,9.1499l-.0128.0042ZM753.6427,597.2794c0,.3161-.0086.645-.0299.9697h0v.0043c-.094,2.6869-1.2986,5.0619-3.2935,6.51-.2392.1709-.4913.3375-.7561.4912l-.0043.0043-106.5349,61.5075c1.7129-1.7642,3.0884-3.9726,4.0282-6.5143l12.2084-21.1447c4.135-7.1593,6.4118-14.8269,6.4118-21.5846v-32.9601c0-6.8261,4.8099-15.1601,10.7218-18.5731l66.8342-38.5858c2.8065-1.619,5.4293-1.8923,7.3857-.7604,1.9564,1.1277,3.0329,3.5369,3.0329,6.7791v63.8569h-.0042ZM753.6427,529.5737c-.5553-1.5463-1.478-2.7339-2.7296-3.4558h0l-2.0205-1.1662c-1.1918-6.4331-5.583-12.9687-10.7133-15.9333l-110.3325-63.6988c-1.9436-1.1234-3.8189-1.6275-5.4848-1.5079l2.8406-1.6403c1.9564-1.1277,4.5792-.8586,7.3857.7604l110.3324,63.6988c5.912,3.4131,10.7218,11.7428,10.7218,18.5731v4.3699h0Z"/>
  </g>
  <g id="Layer_3" data-name="Layer 3">
    <path d="M621.25,672c.9946-.2463,1.9731-.5536,2.93-.92h4c2.1823.3951,4.4177.3951,6.6,0h0c-2.78,2.78-4.91,3-7.84,3h-9.35l3.66-2.08Z"/>
    <path d="M429.89,512h-4.79l3.82-2.21h0c.24-.06.46-.13.69-.21h5.39c2.3813.432,4.8244.3912,7.19-.12l.06.23c-3.37,3.62-5.92,3.48-7.25,3.48-.9147-.0858-1.8096-.3188-2.65-.69-.7821-.3148-1.6169-.4777-2.46-.48Z"/>
    <path d="M475.26,597.3v1c.0287,2.3392,1.0069,4.5663,2.71,6.17.462.4174.9684.7829,1.51,1.09l110.41,63.75c3.4935,1.8965,7.5367,2.522,11.44,1.77h4c.9535.3665,1.9286.6737,2.92.92h0l6.49,3.75,2.81-1.62-13.13,7.67c-2.7294,1.6021-5.8351,2.451-9,2.46h-63.22c-3.9556.0117-7.8438-1.0233-11.27-3l-28.39-16.53c-2.3685-1.3775-5.06-2.1022-7.8-2.1h-37.21c-5.8592.0021-11.6181-1.5211-16.71-4.42l-71-40.34c-.6848-.3934-.9211-1.2675-.5277-1.9523.1261-.2195.3082-.4016.5277-.5277l5.75-3.26c1.0968-.6395,2.3405-.9841,3.61-1h21.26c3.39-.11,7-4.59,1.94-4.59-4.05,0-18.41-.09-24.11-.13-1.5329-.004-3.0324-.4483-4.32-1.28l-4.51-2.9c-.6046-.3872-.7809-1.1912-.3937-1.7958.1119-.1747.2641-.3202.4437-.4241l115.78-66.7-.01,63.9901Z"/>
    <path d="M425.1,512l-13.33,8.25c-1.901,1.1782-4.0935,1.8016-6.33,1.8h-67.78c-3.7329.0026-7.4038-.9547-10.66-2.78l-30.56-17.16c-.8702-.4864-1.8532-.7347-2.85-.72-2.88.05-10.28.13-25.57,0-20.92-.21-30-3.6-34-5.87s-18-10.32-22.69-13-2.19-4.18-1.13-4.81,1.27-.71,3.67-2.12c2.3813-1.2197,5.0366-1.8052,7.71-1.7h20.42c4,0,4.88-3.6,3.18-3.6s-19.51.21-24.39,0-3.86-.15-9.33-2.78-1.32-5.09,2.83-7.55,45.62-26,60.13-34.12c9.7023-5.548,20.6834-8.4708,31.86-8.48h19.48v44.64c.025,2.663,1.2894,5.1623,3.42,6.76.25.18.52.35.79.51l66.81,38.57h0c3.4936,1.8962,7.538,2.5185,11.44,1.76h5.4c.23.08.47.15.7.21l7.3,4.21,3.48-2.02Z"/>
  </g>
</svg>