<?xml version="1.0" encoding="UTF-8"?>
<svg xmlns="http://www.w3.org/2000/svg" viewBox="0 0 1000 1000">
  <g id="Layer_2" data-name="Layer 2">
    <path d="M599.4647,571.439s0-.0147-.0073-.0147h0c-.0073-.0147-.022-.022-.0367-.0367s-.0293-.0367-.0513-.0513l-.0147-.0147c-.264-.2566-.6526-.3006-1.0485-.0953-.0147,0-.022.0073-.0367.0147-.0073,0-.0147,0-.0293.0073h0c-.374.22-.7039.6306-.8872,1.0925-.0733.1907-.11.3666-.1247.5426,0,.0293-.0147.0586-.0147.0953v.0293c0,.1833.0293.3446.0953.4913,0,.0513.0147.0953.044.1467.0367.0586.088.1027.1393.1393.1467.1467.3373.22.5499.22.176,0,.3666-.0513.5573-.1613h0c.0147,0,.022-.0147.0367-.022h0c.3446-.2126.6453-.5866.8286-1.0192h0s0-.0147.0073-.0147v-.0147s0-.0147.0073-.022h0c0-.0073,0-.022.0073-.0293v-.0147c.1687-.4619.1613-.9092-.0293-1.2172,0-.0147-.0147-.0293-.022-.044l.0293-.0074ZM598.2476,573.0008h0l.0367-.0513c-.0073.0147-.022.0367-.0367.0513ZM529.4767,627.9427s0-.0147-.0073-.0147h0c-.0073-.0147-.022-.022-.0367-.0367h0s-.0293-.0293-.0513-.044c0,0-.0073-.0147-.0147-.0147-.264-.2566-.6526-.3006-1.0485-.0953-.0147,0-.0293.0073-.0367.0147h-.0293c-.374.22-.7112.6306-.8946,1.0999-.0733.1833-.1027.3666-.1247.5426-.0073.0367-.0147.066-.0147.1027v.0293c0,.1833.0293.3446.0953.4913,0,.0513.0147.1027.044.1467.0367.0586.088.1027.1393.132.1467.1393.3373.22.5499.22.1833,0,.374-.0513.5646-.1613h0c.0073,0,.0147-.0147.0293-.022h.0073c.352-.22.6599-.6013.8359-1.0412v-.0073s0-.0147.0073-.022h0c0-.0073,0-.022.0073-.0293v-.0147c.1687-.4693.1613-.9166-.0293-1.2245,0-.0147-.0073-.0293-.0147-.0367l.0219-.0147ZM528.2522,629.5045h0l.044-.0586c-.0147.022-.022.0367-.0367.0586h-.0073ZM637.718,366.0211c0-33.9565-11.4752-59.2827-32.2993-71.3078l-1.7525-1.0119c-20.8314-12.0252-48.4967-9.2975-77.907,7.6844-29.3444,16.9452-56.929,46.0623-77.6724,81.9912-20.7434,35.9289-32.1674,74.3801-32.1674,108.2633v54.9785l-81.4779,47.0375c-6.3499,3.6662-9.8474,8.5643-9.8474,13.785h0v1.3858c0,5.228,3.4976,10.1187,9.8474,13.785l81.4779,47.0449v18.6464c0,3.0136,1.0339,5.272,2.9183,6.3572l1.7451,1.0045h0c.7772.4473,1.6645.6746,2.6103.6746,1.3418,0,2.823-.4473,4.3555-1.3272l200.6519-115.845c5.2427-3.0283,9.5102-10.4194,9.5175-16.476h0v-196.6704h0ZM334.2582,621.6514c-3.3656-2.0384-5.8366-4.4288-7.3178-7.0245,1.6351,2.405,4.1062,4.6121,7.3178,6.4965v.5279ZM415.9194,668.8136l-80.928-46.7222v-.5353l80.928,46.7222v.5353ZM415.9194,667.4278l-81.1113-46.8322c-6.1152-3.5269-9.4808-8.1976-9.4808-13.1544,0-4.9494,3.3656-9.6201,9.4808-13.1544l81.1113-46.8322v119.9732ZM448.7247,383.7435c20.6774-35.8189,48.1667-64.8406,77.4084-81.7199,21.33-12.3111,41.7068-17.0699,59.1727-14.1003-17.2092-2.3684-37.0654,2.515-57.7942,14.4742-60.3825,34.8657-109.5391,119.8045-109.8324,189.6239l-1.0192-.5866c.044-33.7072,11.4313-71.9384,32.0647-107.684v-.0073ZM416.6527,492.2708l1.0192.5866v195.8198l-1.0192-.5866v-195.8198ZM416.682,688.9558l.9972.5792c.0293,1.6205.3666,3.0136.9752,4.1135-1.1585-.9605-1.8478-2.6177-1.9724-4.6854v-.0073ZM636.9848,562.6914h0c0,5.8219-4.1062,12.9344-9.1509,15.8454l-200.6519,115.845c-2.3757,1.3712-4.5901,1.6058-6.2326.6526-1.6425-.9459-2.5517-2.9843-2.5517-5.7266v-196.6703c0-69.702,49.1126-154.7655,109.4731-189.6166,29.1757-16.8353,56.5843-19.5629,77.1811-7.6697,20.5894,11.8859,31.9327,36.9921,31.9327,70.6773h0v196.663h0ZM601.5691,570.4051l-.066-.44c-.11-.7772-.4619-1.3565-.9752-1.6938-.022-.0293-.0513-.0513-.0806-.0733l-.3666-.2126h0c-1.4152-.8139-3.5782.3593-4.9127,2.6837-.6233,1.0779-.9605,2.2364-.9605,3.2629,0,1.0925.3886,1.9211,1.0852,2.3317l.0073.0073.3666.2126c.2933.1687.6306.2566.9972.2566.3373,0,.6966-.0733,1.0632-.22l.4106-.1687s.0073,0,.0147-.0073c.1467-.0586.3006-.132.4546-.22.8066-.4693,1.5618-1.2612,2.1264-2.2364s.8726-2.0238.8726-2.955c0-.154-.022-.286-.0367-.4326,0-.0293.0073-.0586,0-.088v-.0074ZM600.0953,573.5141c-.4986.8652-1.1585,1.5618-1.8551,1.9651-.6379.3666-1.2098.4326-1.6205.198-.4106-.242-.6379-.7699-.6379-1.5031,0-.8066.2786-1.7231.7772-2.5883.7992-1.3858,2.0164-2.3024,2.9256-2.3024.2053,0,.3886.044.5573.1393.4106.242.6453.7772.6453,1.5031,0,.8066-.2786,1.7231-.7772,2.5883h-.0147ZM531.5738,626.9015l-.0586-.44h0c-.11-.7772-.4619-1.3565-.9752-1.6938-.022-.0293-.0513-.0513-.0806-.0733l-.3666-.2126c-.7112-.4106-1.6205-.33-2.5737.22-.8872.5133-1.7231,1.3858-2.339,2.4637-.6233,1.0779-.9605,2.2364-.9605,3.2629,0,1.0925.3886,1.9211,1.0852,2.3317l.0073.0073.3666.2126c.2933.1687.6306.2566.9972.2566.3373,0,.6966-.0733,1.0632-.22l.3446-.1393s.0293-.0147.0513-.022h.0147v-.0147c.9312-.374,1.8844-1.2392,2.5883-2.4637.5646-.9752.8726-2.0238.8726-2.955,0-.154-.022-.2933-.044-.4326,0-.0293.0073-.0586,0-.088h.0073ZM530.1,630.0104c-.6086,1.0559-1.4591,1.8331-2.2291,2.1484h-.022c-.4619.1907-.8946.2053-1.2245.0147-.9092-.5206-.8432-2.3977.132-4.0988.4986-.8652,1.1585-1.5618,1.8551-1.9651.6306-.3666,1.2098-.4326,1.6205-.198.4106.242.6379.7699.6379,1.5031,0,.8066-.2786,1.7231-.7772,2.5883l.0074.0073ZM456.5924,617.1493h0c.1613.088.33.132.5133.132.6233,0,1.3492-.5059,1.8331-1.3345.6233-1.0779.5646-2.2291-.132-2.6323-.5573-.3226-1.3272-.0367-1.9358.6379-.0147.0147-.0293.0293-.044.0513-.132.154-.264.3226-.3739.5133s-.1906.3886-.2566.5793c-.0073.022-.0147.044-.022.066-.2786.8579-.1393,1.6645.418,1.9871h0ZM456.8637,615.3969c.242-.2933.4326-.6233.5646-.9825.3739-.418.7919-.6013,1.0119-.4693.286.1687.2933.9019-.132,1.6351-.4253.7332-1.0632,1.0925-1.3492.9312-.22-.1247-.2713-.5793-.0953-1.1145h0ZM461.5785,651.2231l-.0587-.44c-.11-.7772-.4619-1.3565-.9752-1.6938-.022-.0293-.0513-.0513-.0807-.0733l-.3666-.2126h0c-1.4152-.8139-3.5782.3593-4.9201,2.6837s-1.2832,4.7807.132,5.602l.3666.2126c.2933.1687.6306.2566.9972.2566.3373,0,.6966-.0733,1.0632-.22l.3446-.1393s.0367-.0147.0513-.022h.0147v-.0073c.9312-.374,1.8844-1.2392,2.5883-2.4637.5646-.9752.8726-2.0238.8726-2.955,0-.154-.022-.286-.044-.4326,0-.0293.0073-.0586,0-.088l.0147-.0074ZM460.1046,654.3394c-.6086,1.0559-1.4592,1.8331-2.2291,2.1484h-.022c-.4546.1907-.8872.2053-1.2245.0147-.9092-.5206-.8432-2.3977.132-4.0988.4986-.8652,1.1585-1.5618,1.8551-1.9651.6306-.3666,1.2098-.4326,1.6205-.198.4106.242.6379.7699.6379,1.5031,0,.8066-.2786,1.7231-.7772,2.5883l.0073.0073ZM526.5878,592.8204h0c.1613.088.33.132.5133.132.6233,0,1.3492-.5059,1.8331-1.3345.6233-1.0779.5646-2.2291-.132-2.6323-.5573-.3226-1.3272-.044-1.9358.6379-.0147.0147-.0293.0293-.044.0513-.132.154-.264.3226-.374.5133-.11.1907-.1907.3886-.2566.5793-.0073.022-.0147.044-.022.066-.2786.8579-.1393,1.6645.418,1.9871ZM526.8591,591.0752c.242-.2933.4326-.6233.5646-.9825.374-.418.7992-.6013,1.0119-.4693.286.1687.2933.9019-.132,1.6351s-1.0632,1.0925-1.3492.9312c-.22-.1247-.2713-.5793-.0953-1.1145ZM459.474,652.2643v-.0147h0c-.0073-.0147-.0293-.022-.0367-.0367-.0147-.0147-.0293-.0293-.0513-.044-.264-.2713-.6599-.3153-1.0632-.11-.0147,0-.022.0073-.0367.0147-.0073,0-.0147,0-.0293.0073-.3739.22-.7112.6306-.8946,1.0999-.0733.1833-.1027.3666-.1246.5426-.0073.0367-.0147.066-.0147.1027v.0293c0,.1833.0293.3446.0953.4913,0,.0513.0147.0953.044.1467.0367.0586.0807.1027.1393.132.1466.1467.3373.22.5499.22.176,0,.3739-.0513.5573-.1613h0c.0073,0,.022-.0147.0293-.022h.0073c.3446-.2126.6453-.5866.8286-1.0192h0s0-.0147.0073-.0147v-.0073c0-.0073.0073-.0147.0073-.022s0-.022.0073-.0293v-.0147c.1686-.4619.1613-.9092-.0293-1.2172,0-.0147-.0147-.0293-.022-.044l.0293-.0293ZM458.2569,653.8261h0l.044-.0586c-.0147.022-.022.0367-.0367.0586h-.0073ZM596.5831,536.324c.1613.0953.3373.1393.5206.1393.242,0,.5059-.0733.7699-.2273.4033-.2346.7772-.6306,1.0559-1.1072.6233-1.0779.5646-2.2291-.132-2.6323-.3666-.2126-.8212-.1833-1.2905.088-.2273.132-.4473.3226-.6453.5499-.0147.0147-.022.0293-.0367.044-.1393.1613-.264.33-.374.5206-.11.1907-.1907.3886-.2566.5793-.0073.022-.022.044-.022.0733-.2786.8579-.1393,1.6645.418,1.9871l-.0073-.0147ZM596.8544,534.5716c.2346-.286.4253-.6233.5646-.9752.1467-.1613.3006-.2933.4619-.3886.1467-.088.286-.132.396-.132.0586,0,.1173.0147.1613.0367.286.1687.286.9019-.132,1.6351-.2126.3666-.4986.6746-.7919.8432-.2273.132-.4253.1613-.5573.088-.22-.1247-.2713-.5793-.0953-1.1145l-.0073.0073Z"/>
  </g>
  <g id="Layer_3" data-name="Layer 3">
    <path d="M419.46,694.65c-1.75-1-2.74-3.19-2.74-6.06v-116.9301h-14.82c-10,0-20,.48-30,1.37l-37,21.36h0c-6.08,3.52-9.43,8.16-9.43,13.07s3.35,9.55,9.43,13.07h0l81.31,46.94v1.15l-81.06-46.8v.23l81.06,46.81v1.14l-81.81-47.24c-6.31-3.64-9.93-8.71-9.93-13.92v-1.39c0-5.28,3.52-10.23,9.93-13.93h0l35.13-20.28c-150.89,14.45-282.4,123.32-131.7,123.32h170.57c6.33,0,8.11-.44,11.24-1.81l-.18-.1Z"/>
  </g>
</svg>