<?xml version="1.0" encoding="UTF-8"?>
<svg id="Layer_1" data-name="Layer 1" xmlns="http://www.w3.org/2000/svg" viewBox="0 0 1000 1000">
  <g id="Layer_2" data-name="Layer 2">
    <path d="M564.6651,448.5301c-1.8804,1.0875-2.4582,3.2568-1.7672,6.6382.4021,1.9654.9685,3.1208,1.7672,3.6249.0283.0283.068.051.1133.0623.0397.0227.0736.051.1189.068.2266.1019.4644.1529.7137.1529.4078,0,.8496-.1359,1.314-.4021,1.8804-1.0875,2.4582-3.2568,1.7672-6.6382-.4418-2.1523-1.0705-3.3474-1.9881-3.7609-.5947-.2662-1.2744-.1813-2.0334.2549h-.0057,0ZM564.9539,458.3004c-.6344-.4191-1.1385-1.5066-1.4953-3.2455-.6344-3.1152-.1473-5.0862,1.4953-6.0321.3512-.2039.6683-.3002.9572-.3172.6344.4248,1.1158,1.484,1.4783,3.2455.6344,3.1152.1473,5.0862-1.4953,6.0321-.3398.1982-.6514.3002-.9346.3229l-.0057-.0057h0ZM568.1371,452.1437c.64,3.1152.1473,5.0862-1.4953,6.0321-.068.0397-.1303.0623-.1926.0963,1.6482-1.1385,2.1466-3.2398,1.4896-6.4456-.1982-.9685-.4361-1.7332-.7193-2.3279.3682.5721.6683,1.4443.9119,2.6451h.0057ZM640.7208,574.3381v-.0113l-12.7099-62.111,1.5123-.8723.0057-.0057c.017-.0113.034-.0283.0453-.0397l.034-.034c.0113-.017.017-.034.0227-.051s.017-.034.0227-.051v-.1189l-1.399-6.8364s-.0113-.0227-.017-.0397-.0113-.0397-.0227-.0566c-.0113-.017-.0227-.0283-.034-.0397-.0113-.0113-.017-.0227-.034-.034h-.0113c-.0113-.0113-.0283-.017-.0453-.0227-.0113,0-.0227-.0113-.0283-.017,0,0-.0113-.0057-.017-.0057l-1.0875-.2945h0c-.068-.017-.1473-.0113-.2152.0283l-.4305.2492-2.9793-14.5507,1.5179-.8723.0057-.0057c.017-.0113.034-.0283.0453-.0397l.034-.034c.0113-.017.017-.034.0227-.051s.017-.034.0227-.051v-.1189l-1.399-6.8364s-.0113-.0283-.017-.0397c-.0057-.017-.0113-.0397-.0227-.051-.0113-.017-.0227-.0283-.034-.0397-.0113-.0113-.017-.0227-.0283-.034h-.0113c-.017-.0113-.0283-.017-.0453-.0227-.0113,0-.017-.0113-.0283-.017,0,0-.0057,0-.0113-.0057h0l-1.0875-.2889c-.034-.0113-.0736-.0113-.1133-.0057-.0283,0-.0566.017-.085.0283-.0057,0-.017,0-.0227.0057l-.4305.2492-2.9793-14.5451,1.5179-.8723.0057-.0057c.017-.0113.034-.0283.0453-.0397l.034-.034c.0113-.017.017-.034.0227-.051s.017-.034.0227-.051v-.1189l-1.399-6.8364s-.0113-.0227-.017-.0397-.0113-.0397-.0227-.0566c-.0113-.017-.0227-.0283-.0397-.0397-.0113-.0113-.017-.0227-.0283-.034,0,0-.0057,0-.0113-.0057-.017-.0113-.0283-.017-.0453-.0227s-.0283-.017-.0453-.0227l-1.0875-.2889c-.068-.017-.1473-.0113-.2152.0283l-.4305.2492-2.9793-14.5451,1.5123-.8723.0057-.0057c.017-.0113.034-.0283.0453-.0397l.034-.034c.0113-.017.017-.034.0227-.051s.017-.034.0227-.051v-.1189l-1.399-6.8364s-.0113-.0227-.017-.0397c-.0057-.017-.0113-.0397-.0227-.0566-.0113-.017-.0227-.0283-.0397-.0453-.0113-.0113-.017-.0227-.0283-.034h-.0057c-.017-.0113-.034-.017-.051-.0283-.0057,0-.017-.0113-.0227-.0113,0,0-.0057,0-.0113-.0057l-1.0875-.2945c-.034-.0113-.0736-.0113-.1133-.0057-.0397,0-.0736.017-.1019.034l-.4305.2492-2.9793-14.5451,1.5123-.8722.0057-.0057c.017-.0113.034-.0283.0453-.0397s.0227-.0227.034-.034c.0113-.017.017-.034.0227-.051s.017-.034.0227-.051v-.1189l-1.399-6.8364s-.0113-.0227-.017-.0397c-.0057-.017-.0113-.0397-.0227-.0566-.0113-.017-.0227-.0283-.034-.0397s-.017-.0227-.0283-.034c0,0-.0057,0-.0113-.0057-.017-.0113-.034-.017-.051-.0227s-.0283-.017-.0453-.0227l-1.0875-.2889c-.034-.0113-.0736-.0113-.1133-.0057-.0227,0-.0397.0113-.0623.0227-.017,0-.0283.0057-.0453.017l-.4305.2492-2.9793-14.5451,1.5179-.8722.0057-.0057c.017-.0113.034-.0283.0453-.0397s.0227-.0227.034-.034c.0113-.017.017-.034.0227-.051s.017-.034.0227-.051v-.1189l-1.399-6.8364s-.0113-.0227-.017-.0397c-.0057-.017-.0113-.0397-.0227-.0566-.0113-.017-.0227-.0283-.034-.0397s-.017-.0227-.034-.034c0,0-.0057,0-.0113-.0057-.0113-.0113-.0283-.0113-.0397-.017-.017-.0057-.034-.017-.051-.0227l-1.0875-.2889c-.034-.0113-.0736-.0113-.1133-.0057-.0113,0-.017.0057-.0283.0113-.0227.0057-.051.0113-.0736.0227l-.4305.2492-2.9793-14.5451,1.5179-.8722.0057-.0057c.017-.0113.034-.0283.0453-.0397s.0227-.0227.034-.034c.0113-.017.017-.034.0227-.051s.017-.034.0227-.051v-.1189l-1.399-6.8364s-.0113-.0227-.017-.0396-.0113-.0396-.0227-.0566c-.0113-.017-.0227-.0283-.0397-.0453-.0113-.0113-.017-.0227-.0283-.034,0,0-.0057,0-.0113-.0057-.0113-.0113-.0283-.017-.0453-.0227s-.0283-.017-.051-.0227l-1.0875-.2889c-.034-.0113-.0736-.0113-.1133-.0057-.0113,0-.017.0057-.0227.0057-.0283.0057-.0566.0113-.0793.0283l-.4305.2492-13.5878-66.41s-.0113-.0227-.017-.0396-.0113-.0396-.0227-.0566c-.0113-.017-.0227-.0283-.0397-.0453-.0113-.0113-.017-.0227-.0283-.034,0,0-.0057,0-.0113-.0057-.017-.0113-.034-.017-.051-.0227-.0113-.0057-.0283-.017-.0397-.017l-3.4777-.9346c-.034-.0113-.0736-.0113-.1133-.0057-.034,0-.068.017-.0963.034h-.0057l-2.7923,1.6142.725-2.7074v-.1133c0-.017-.0113-.0283-.017-.0453,0-.017-.0113-.034-.017-.051-.0113-.017-.0227-.034-.0397-.051-.0113-.0113-.0113-.0227-.0227-.034l-3.4833-3.0869s-.0057,0-.0113-.0057c-.017-.0113-.034-.0227-.051-.0283-.017-.0057-.0283-.017-.0453-.0227-.017,0-.034,0-.051-.0057h-.0566c-.017,0-.0283.0057-.0453.0113-.0227,0-.0397.0113-.0623.0227h-.0113l-158.5174,91.5127s-.0227.0227-.034.0283c-.0113.0113-.0283.017-.034.0283v.0057l-.0057.0057c-.0113.017-.017.034-.0227.051s-.017.0283-.0227.0453v.0113l-55.9883,208.8983v.0397c0,.0226-.0057.0397,0,.0623,0,.017.0057.034.0113.051,0,.017.0113.034.017.051.0113.017.0227.034.0396.051.0113.0113.0113.0226.0227.034l3.4833,3.0869h.0057c.0113.0057.017.0113.0283.017s.017.0113.0283.017.0227.0113.0396.017c0,0,.0057,0,.0113.0057.0227.0057.051.0113.0736.0113h0c.0453,0,.085-.0113.1303-.034h.0113l21.9365-12.6646h0l.0057-.0057c.0396-.0226.068-.0566.0906-.0906,0,0,.0113-.0057.0113-.0113l15.6779-29.5999,48.4212-27.9573,27.8724,136.1957s.017.0397.0227.0623c0,.0113.0057.017.0113.0283.017.0283.0397.0566.068.0793,0,0,.0113.0057.017.0113.0227.017.0453.0283.0736.034h.0113l3.4833.9346s.0453.0113.0736.0113h.0566c.0227,0,.0397-.017.0623-.0283.0057,0,.017,0,.0227-.0057l21.9365-12.6646s.0113-.0113.0227-.017c.017-.0113.034-.0226.0453-.0397.0113-.0113.0227-.0226.0283-.0397.0113-.017.017-.034.0227-.051s.0113-.034.0113-.051c0-.0113.0057-.017.0057-.0283l2.6451-37.065,93.8009-54.1532,14.2732,24.1738h0c.0227.034.0566.0623.0906.0906.0113.0057.0227.0113.034.017s.0227.017.0397.0226l3.4833.9346s.051.0113.0736.0113c.0453,0,.0963-.0113.1416-.0397h0l21.9309-12.6646.0057-.0057c.017-.0113.034-.0283.0453-.0397l.034-.034c.0113-.017.017-.034.0227-.051s.017-.034.0227-.051v-.1076l.0113-.0228.0014.0031ZM629.0643,510.9527l-158.0813,91.2691-1.2801-6.253,158.0812-91.2691,1.2801,6.253h.0001ZM459.6552,551.8974v-.0113l-.3172-1.5576.4758.1303,1.2744,6.219-.4758-.1303-.3738-1.8351s-.0113-.0227-.017-.0397-.0113-.0397-.0227-.0566c-.0113-.017-.0227-.0283-.034-.0397-.0113-.017-.0227-.0283-.0397-.0397-.017-.0113-.0283-.017-.0453-.0227s-.0283-.017-.0453-.0227l-.742-.1982-.0906-.4361-.3625-1.7672.4701.1246s.0453.0113.0736.0113h.0566c.0397-.0113.0793-.0283.1076-.051,0,0,.0057-.0057.0113-.0113.0397-.034.068-.0793.085-.1303,0,0,.0057-.0057.0057-.0113v-.1246h.0058ZM459.7118,555.0013l.3738,1.8351s.017.0397.0227.0566c0,.0113.0057.0227.0113.0283.017.0283.0397.0566.068.0793.0057,0,.0113.0057.017.0113.0227.017.0453.0283.0736.034h.0113l1.0875.2945s.0453.0113.0736.0113h.0566c.0227,0,.0397-.017.0623-.0283.0057,0,.017,0,.0227-.0057l7.0913-4.0951c-.6174,1.9541-.6853,4.3329-.1813,6.7968.6683,3.2738,2.0447,5.3468,3.8685,5.8339h0l.5154.1359-3.1662,1.8295-.0057.0057c-.017.0113-.034.0283-.0453.0397,0,0-.0113.0113-.017.017,0,0-.0057,0-.0113.0113,0,0,0,.0057-.0057.0113-.0113.017-.017.0283-.0227.0453s-.017.034-.0227.051v.1189l.1529.759-6.2587,3.6136-.0057.0057c-.017.0113-.034.0283-.0453.0397-.0057,0-.0113.0113-.017.017,0,0-.0057,0-.0113.0113,0,0,0,.0057-.0057.0113-.0113.017-.017.0283-.0227.0453-.0057.0113-.017.0227-.017.0397h0v.1302l.2266,1.1158-.2549.1473-3.9138-19.1329.3002.0793h-.0057l.0004.0002ZM500.2828,537.3127v-.0113l-.4248-2.0787.8949-.5154,2.781,13.5878-.8949.5154-.4531-2.2033s-.0113-.0227-.017-.0397-.0113-.0397-.0227-.0566c-.0113-.017-.0227-.0283-.0397-.0453-.0113-.0113-.017-.0227-.0283-.034h-.0113c-.017-.0113-.034-.017-.051-.0227-.0113-.0057-.0283-.017-.0397-.017l-.7533-.2039c-.068-.017-.1473-.0113-.2152.0283l-4.9673,2.866-.4531-2.2089,5.0069-2.8886.0057-.0057c.017-.0113.034-.0283.0453-.0397l.034-.034c.0113-.017.017-.034.0227-.051s.017-.034.0227-.051v-.1189l-.6174-3.0189s-.0113-.0227-.017-.0397c0-.0113-.0057-.0227-.0113-.034v-.0227h0c-.0113-.017-.0227-.0227-.034-.0397-.0113-.0113-.017-.0283-.034-.034,0,0-.0057,0-.0113-.0057-.0113-.0057-.0227-.0113-.0397-.017-.017-.0057-.034-.017-.051-.0227l-.7533-.1982c-.068-.017-.1473-.0113-.2152.0283l-4.2083,2.4298-.3625-1.7785,5.7659-3.3304.0057-.0057c.017-.0113.034-.0283.0453-.0397l.034-.034c.0113-.017.017-.034.0227-.051s.017-.0283.017-.0453v-.1076l.0227-.0056-.0002.0003ZM508.4219,536.3839l-3.8685-3.8685,2.7527-1.5916,1.1158,5.4544v.0057h0ZM507.8215,530.6293l.1189-.068,1.3763,6.7175-.1643-.1643-1.3254-6.4796-.0057-.0057h.0002ZM509.583,538.3436s.0057,0,.0113.0057c.017.017.0397.0283.0623.0397.0113,0,.017.0113.0227.0113.034.0113.068.017.1019.017h.0566c.0113,0,.017-.0057.0227-.0113.017,0,.034-.0113.051-.0227.017-.0113.034-.017.051-.034.0057,0,.017-.0057.0227-.0113.0057-.0057.0113-.017.017-.0227.0113-.017.0227-.0283.034-.051.0057-.017.017-.034.0227-.051,0-.017.0057-.034.0113-.051v-.085l-1.6029-7.8219,2.0107-1.1611,2.9396,14.3582s.017.0453.0283.068v.017h0c.017.0283.034.051.0623.0736l-1.5689.9062s0-.017-.0057-.0227c0-.017-.0113-.034-.017-.051-.0113-.017-.0227-.034-.034-.051-.0057-.0113-.0113-.0227-.017-.0283l-6.3267-6.304s-.0113-.0057-.0227-.0113c-.017-.0113-.034-.0227-.051-.034-.017-.0057-.0283-.0113-.0453-.017s-.0397-.0113-.0566-.0113h-.085c-.0113,0-.017.0057-.0227.0113-.017,0-.034.0113-.051.0227-.017.0113-.034.017-.051.034-.0057,0-.017.0057-.0227.0113-.0057.0057-.0113.017-.017.0227-.0113.017-.0227.0283-.034.051-.0057.017-.017.034-.0227.051,0,.017-.0057.034-.0113.051v.085l1.8238,8.9038s.017.0453.0283.068v.017h0c.017.0283.034.051.0623.0736l-2.0843,1.2064h0l-2.9736-14.5451,2.1353-1.2347,5.5394,5.5337.0057-.0057h.0002ZM510.4439,544.3134l-3.2058,1.8521-1.2971-6.3436,4.5085,4.4915h-.0057,0ZM504.2362,548.2555l-.1416-.0397-2.8263-13.8031.1189-.068,2.849,13.9107h0ZM493.9221,540.5469l-.0057.0057c-.017.0113-.034.0283-.0453.0397l-.034.034c-.0113.017-.017.0283-.0227.0453s-.017.034-.0227.051v.1189l.6004,2.9283s.017.0397.0227.0623c0,.0057,0,.017.0057.0227h0c.0227.0397.0566.068.0906.0906.0113,0,.017.0113.0283.017.0397.017.0793.034.1246.034h.0566c.0227,0,.0397-.017.0623-.0283.0057,0,.017,0,.0227-.0057l4.8427-2.798.4984,2.4355-5.0069,2.8886-.0057.0057c-.017.0113-.034.0283-.0453.0397l-.034.034c-.0113.017-.017.0283-.0227.0453s-.017.034-.0227.051v.1189l.6853,3.3587s.017.0397.0227.0623c0,.0057,0,.017.0057.0227h0c.0227.0397.0566.068.0906.0906.0113,0,.017.0113.0283.017.0397.017.0793.034.1246.034h.0566c.0227,0,.0397-.017.0623-.0283.0057,0,.017,0,.0227-.0057l5.6017-3.2341.5664,2.7753s.017.0453.0283.068v.017h0c.017.0283.034.051.0623.068l-7.9975,4.6161h0l-2.9736-14.5451,7.9409-4.5878.3455,1.6935-5.7659,3.3304.0056.0114.0002-.0002ZM493.7296,554.3216l-.1416-.0397-2.8263-13.8031.1189-.068,2.849,13.9107h0ZM493.0273,554.3669l-7.4085,4.2763-1.0082-4.9333,2.2089-1.2744c2.8943-1.6709,3.9704-4.1064,3.2851-7.4481-.3229-1.5746-.9572-2.5884-1.8804-3.0415l2.0164-1.1668,2.781,13.5878h.0057ZM489.5496,545.1007c.6344,3.1152-.3229,5.2845-3.0132,6.8421l-2.3845,1.3763-.0057.0057c-.017.0113-.034.0283-.0453.0397l-.034.034c-.0113.017-.017.0283-.0227.0453s-.017.034-.0227.051v.1189l1.2461,6.0888s.017.0397.0227.0623c0,.0057,0,.017.0057.0227h0c.017.0283.034.051.0566.068l-2.0673,1.1951h0l-2.9736-14.5451,7.2839-4.2083c.9685.2549,1.6256,1.1894,1.9541,2.7923v.0114-.0002ZM482.6395,560.7219l-.1416-.0397-2.8263-13.8031.1189-.068,2.849,13.9107h0ZM481.9429,560.7672l-2.4751,1.4273c1.0648-2.1466,1.3254-4.9503.691-8.0598-.6004-2.9283-1.7615-4.888-3.3078-5.6243l2.3166-1.3367,2.781,13.5878-.0057.0057ZM479.598,554.2537c.3512,1.7105.8439,5.63-1.1215,8.5413,0,.0057-.0113.017-.0113.0227-.2889.4248-.6287.8326-1.0365,1.2008-.0057.0057-.0113.017-.017.0227-.0113.017-.0227.0283-.034.0453s-.017.0283-.0227.0453-.0113.034-.0113.051v.051c0,.017,0,.034.0057.051,0,.017.0113.034.017.051,0,.0057,0,.017.0057.0227,0,.0057.0113.0113.017.017.0057.0113.0113.0227.0227.034.0057.0113.017.0113.0283.0227l-2.1693,1.2517h0v-.0227c0-.0113-.0113-.0227-.017-.034,0-.0113,0-.0227-.0113-.034,0-.0057-.0113-.0113-.0113-.017-.0113-.017-.0227-.0283-.0397-.0397-.0113-.0113-.0283-.0283-.0397-.034-.0113-.0113-.0283-.017-.0453-.0227s-.0397-.017-.0566-.017h-.1246c-.8779.2379-1.6822.1416-2.3902-.2889-1.2347-.759-2.1976-2.5601-2.7074-5.0749-.6287-3.0812-.3455-5.9132.793-7.9918l5.6017-3.2341c1.5689.4701,2.7697,2.3732,3.3814,5.3751l-.0056.0057-.0002-.0004ZM469.2613,560.2178c.2039.9855.5267,2.1297,1.0365,3.1492-.5267-.8892-.9459-2.056-1.2347-3.4663-.5381-2.6337-.4021-5.1599.3851-7.1196l.2889-.1643c-.8836,2.0957-1.0592,4.7521-.4758,7.601h0ZM470.3884,568.5099l-.1189.068-.0227-.1246.1416.0397v.017h0ZM463.9711,575.0177s.0453.0113.0736.0113h.0566c.0397-.0113.0793-.0283.1076-.051,0,0,.0057-.0057.0113-.0113.0397-.034.0736-.0793.085-.1303,0,0,.0057-.0057.0057-.0113v-.1359l-.3172-1.5576.4758.1303,1.2744,6.219-.4758-.1303-.3738-1.8351s-.0113-.0227-.017-.0397-.0113-.0397-.0227-.0566l-.034-.034c-.0113-.017-.0283-.0283-.0453-.0453-.0113-.0113-.0283-.0113-.0397-.0227-.017-.0057-.0283-.017-.0453-.0227l-.742-.1982-.3568-1.7388-.0963-.4701.4701.1246.0057.0057h0ZM464.3789,577.7988l.3738,1.8351s.017.0397.0227.0566c0,.0113.0057.0227.0113.0283.017.0283.0397.0566.068.0793.0057,0,.0113.0057.017.0113.0227.017.0453.0283.0736.034h.0113l1.0875.2945s.0453.0113.0736.0113h.0566c.0227,0,.0397-.017.0623-.0283.0057,0,.017,0,.0227-.0057l7.1479-4.1234-.7137,1.1724s0,.0113-.0057.017c-.0057.0113-.0113.0227-.017.0397,0,.0057-.0057.0113-.0113.017v.1303c0,.0113,0,.017.0057.0283,0,.0113.0113.0227.017.034,0,.0113.0113.0227.017.034s.0113.017.017.0283c0,0,0,.0113.0113.017l1.6425,1.7615s.0113.0057.017.0113c.017.017.034.0227.051.034s.0283.017.0453.0227c.0057,0,.0113.0057.017.0113l.7533.2039s.051.0113.0736.0113h0c.0397,0,.0793-.0113.1189-.0283.0113,0,.0227-.0113.034-.0227h0c.0057,0,.017-.0057.0227-.0113,0,0,.0113-.0057.017-.0113.0113-.0113.017-.0227.0227-.034,0-.0057.0113-.0113.017-.017l.4418-.6514,1.9994,9.7647-3.6079,2.0843-.0057.0057c-.017.0113-.034.0283-.0453.0397-.0057.0057-.017.017-.0283.0226h0s0,.0057-.0057.0113c-.0113.017-.017.0283-.0227.0453s-.017.034-.0227.051v.119l.1529.7476-6.2587,3.6136-.0057.0057c-.017.0113-.034.0283-.0453.0397h0c-.0057.0057-.017.0113-.0283.0226,0,0,0,.0057-.0057.0113-.0113.017-.017.0283-.0227.0453-.0057.0113-.017.0226-.017.0397h0v.1303l.2266,1.1158-.2549.1473-3.9138-19.1329.3002.0793h-.0113l.0003.0003ZM480.9913,578.2859c.6683,3.2681,2.1353,5.511,3.9251,5.9868l.3115.085-3.5286,2.039s-.0283.0226-.0397.0397h-.0113l-2.781-13.5935,2.2259-1.2857c-.5324,1.9541-.5721,4.3556-.085,6.7288h-.017,0ZM497.4621,568.7761c.6683,3.2738,2.1353,5.511,3.9251,5.9868l.3115.085-3.54,2.0447s-.034.0283-.0453.0397l-.0963.0566c.017-.2605.0113-.5154-.0397-.759-.1473-.7193-.589-1.2347-1.1441-1.3933-.0057,0-.0113-.0057-.017-.0113l-.3455-.0906-.4871-2.3789c-.0057-.034,0-.0736.017-.085h0c.5607-.6967.8099-1.6935.6344-2.5431-.1303-.6344-.4814-1.1215-.9572-1.3367-.051-.0227-.1019-.0283-.1529-.0453-.017-.0113-.034-.0227-.0566-.0283l-.7533-.2039h0c-.3908-.1019-.8099-.0397-1.2064.1926-.9685.5607-1.5349,1.9314-1.2857,3.1265.1473.725.5834,1.2461,1.1668,1.4047h0l.4588.1246.4701,2.2882c.0057.034,0,.0736-.017.085h0c-.5777.6853-.8383,1.6879-.657,2.5601.1076.5324.3795.9515.7533,1.1951l-3.3134,1.9144c1.0818-2.4242,1.0478-5.545.5381-8.0428-.2832-1.3707-1.1271-4.5085-3.1265-5.6696l9.068-5.2335c-.5324,1.9541-.5721,4.3556-.0906,6.7288l-.0113-.0114-.0002-.0002ZM508.807,562.2285c.6683,3.2681,2.1353,5.5054,3.9251,5.9868h0l.3115.085-5.5337,3.1945c1.0818-2.4242,1.0478-5.545.5381-8.0428-.2775-1.365-1.1215-4.4915-3.1152-5.664l3.9648-2.2882c-.5324,1.9597-.5721,4.3613-.0906,6.7288v-.0002ZM526.8298,547.6098s.0453.0113.0736.0113h.0566c.0227,0,.0397-.017.0623-.0283.0057,0,.017,0,.0227-.0057l2.4865-1.4387,2.3109,11.2996-3.8062,2.1976h0l-.0057.0057c-.017.0113-.0283.0227-.0453.0397-.0113.0113-.0227.017-.0283.0283,0,0,0,.0057-.0057.0113-.0113.017-.017.034-.0227.051s-.017.034-.0227.051v.1246l.1529.759-6.0095,3.4663s-.0113-.017-.0113-.0283c-.0057-.0227-.0113-.0397-.0227-.0566-.0057-.0113-.017-.0227-.0283-.034s-.0227-.0283-.034-.0397c0,0-.0113,0-.0113-.0057-.0113-.0057-.017-.0113-.0283-.0113-.017-.0113-.0397-.0227-.0566-.0283l-.7476-.1982c-.068-.017-.1473-.0113-.2152.0283l-2.005,1.1555c1.0818-2.4242,1.0478-5.545.5381-8.0428-.2832-1.3707-1.1271-4.5085-3.1265-5.6696l9.3116-5.3751.2719,1.3367s.017.0397.0227.0566c0,.0113.0057.0227.0113.0283.017.0283.0397.0566.068.0793,0,0,.0113.0057.017.0113.0227.017.051.0283.0736.0397h.0113l.7533.2039-.0113-.0226h0ZM526.1161,545.5538l.1189-.068.3002,1.4556-.1416-.0397-.2775-1.348h0ZM536.6398,541.8269v-.0113l-.4248-2.09,1.2744-.7363c-.6117,1.9484-.6797,4.3273-.1756,6.7911.6683,3.2738,2.0447,5.3411,3.8685,5.8339h0l.5154.1359-6.1737,3.5626-2.3109-11.3053,3.2908-1.8974.0057-.0057c.017-.0113.034-.0283.0453-.0397l.034-.034c.0113-.017.017-.034.0227-.051s.017-.034.0227-.051v-.1076l.0057.0057h-.0001ZM572.3454,525.543c.6683,3.2738,2.1353,5.511,3.9251,5.9868h0l.3115.085-3.5287,2.039-.034.034-.0113.0113-.0963.0566c.017-.2605.0113-.5154-.0397-.759h0c-.1473-.7137-.5891-1.2291-1.1441-1.3933-.0057,0-.0113-.0057-.0227-.0113l-.3455-.0906-.4871-2.3789c-.0057-.034,0-.0736.017-.085h0c.5607-.691.8099-1.6935.6344-2.5431-.1303-.6344-.4814-1.1215-.9572-1.3367-.051-.0227-.1019-.0283-.1586-.0453-.017-.0113-.034-.0227-.0566-.0283l-.7533-.2039h0c-.3908-.1019-.8099-.0397-1.2121.1926-.9685.5607-1.5349,1.9314-1.2857,3.1265.1473.725.5834,1.2461,1.1724,1.4047h0l.4588.1246.4701,2.2882c.0057.034,0,.0736-.017.085h0c-.5777.6853-.8383,1.6879-.657,2.5601h0c.1076.5324.3795.9515.7533,1.1894l-2.2769,1.314-.4475-2.1806.742-.4305.0057-.0057c.017-.0113.034-.0283.0453-.0397l.034-.034c.0113-.017.017-.034.0227-.051s.017-.034.0227-.051v-.1189l-.6004-2.9453s-.0113-.0283-.017-.0397c-.0057-.017-.0113-.034-.0227-.051-.0113-.017-.0227-.0283-.0397-.0453-.0113-.0113-.017-.0227-.0283-.0283h-.0113c-.017-.0113-.034-.017-.051-.0227-.0113,0-.0227-.017-.0397-.017h0l-.7533-.2039h0c-.051-.0113-.1019-.0057-.1529.0057l-.5494-2.6734s-.0057-.017-.0113-.0227v-.0283c0-.0057-.0057-.0113-.0113-.017,0-.0113-.0057-.017-.0113-.0283-.0057-.0113-.017-.0227-.0227-.0283-.0113-.0113-.017-.0227-.0283-.0283-.0057-.0057-.0113-.0113-.0227-.017-.0113-.0057-.0227-.0113-.034-.017s-.0227-.0113-.0397-.017c-.0057,0-.0113-.0057-.017-.0113l-.7533-.2039h-.0906c-.017,0-.0283,0-.0453.0113-.017,0-.0283,0-.0453.0057l-1.7105.7137.9629-4.4349,9.1473-5.2788c-.5324,1.9541-.5721,4.3556-.0906,6.7288l.0056-.0171v.0004ZM583.7017,518.9842c.6683,3.2738,2.1353,5.511,3.9251,5.9868l.3115.085-5.528,3.1888c1.0818-2.4242,1.0478-5.545.5381-8.0428-.2775-1.365-1.1215-4.4915-3.1152-5.664l3.9535-2.2826c-.5381,1.9597-.5721,4.3669-.0906,6.7288h.0057-.0001ZM591.8634,523.6682s.0113.0397.017.0566c0,.0057,0,.0113.0057.017,0,.0057.0113.0113.017.017.0113.0113.0113.0283.0283.0397.0057.0057.017.0113.0227.017l-1.8181,1.0535v-.0113c0-.017-.0113-.0283-.017-.0397,0-.0113-.0057-.0227-.0113-.0397l-.0113-.0113c-.0113-.017-.0283-.034-.0453-.051-.0113-.0113-.0227-.0227-.034-.0283-.017-.0113-.034-.017-.051-.0283-.017-.0057-.0283-.0113-.0453-.017h-.1246c-.725.1699-1.4047.051-2.022-.3512-1.2404-.7986-2.2429-2.6961-2.764-5.2165-.5947-2.8999-.3682-5.8282.5891-7.8616l5.0069-2.8943c1.399.6174,2.5658,2.6337,3.1435,5.4431.6174,3.0246.5154,7.3632-1.8181,9.6344,0,0-.0057.0113-.0113.017-.0113.017-.0227.0283-.034.0453s-.017.0283-.0227.0453-.0057.034-.0113.051v.0566c0,.017,0,.034.0113.051v.0057h-.0003ZM584.4493,519.188c.1473.7307.4871,2.0617,1.1158,3.2964-.5607-.9346-1.0139-2.1636-1.3084-3.6136-.5154-2.5148-.4191-5.0693.2549-7.029l.2832-.1643c-.759,2.0787-.8892,4.8087-.3398,7.5104h-.0057ZM582.3933,520.3208c.6174,3.0246.5154,7.3632-1.8181,9.6344,0,0-.0057.0113-.0113.017-.0113.017-.0227.0283-.034.0453s-.017.0283-.0227.0453-.0057.034-.0113.051v.0566c0,.017,0,.034.0113.051,0,.017.0113.0397.017.0566,0,.0057,0,.0113.0057.017,0,.0057.0113.0113.017.017.0113.0113.0113.0283.0283.0397.0057.0057.017.0113.0227.017l-1.8181,1.0535v-.0113c0-.017-.0113-.0283-.017-.0397,0-.0113-.0057-.0283-.0113-.0397l-.0113-.0113c-.0113-.017-.0227-.0283-.0397-.0453-.0113-.0113-.0227-.0283-.0397-.034-.0113-.0113-.0283-.017-.0453-.0227s-.034-.017-.0566-.0227h-.1189c-.725.1643-1.4047.051-2.022-.3512-1.2404-.7986-2.2429-2.6961-2.7583-5.2165-.5947-2.9113-.3738-5.8395.5947-7.8616l5.0069-2.8886c1.399.6174,2.5714,2.6337,3.1435,5.4431h-.0117ZM573.093,525.7469c.1473.7307.4871,2.0617,1.1158,3.2964-.5607-.9346-1.0139-2.1636-1.314-3.6136-.5154-2.5261-.4191-5.0749.2549-7.029l.2832-.1643c-.759,2.073-.8892,4.803-.3398,7.5104h0ZM571.864,535.2794s0,.0227.0113.034h0c.0113.0227.034.0397.051.0566l-.9572.5494s-.0113-.0397-.017-.0566c0-.0057,0-.017-.0057-.0227,0-.0057-.0113-.0113-.017-.017-.0113-.017-.0227-.0283-.0397-.0453-.0113-.0113-.0283-.0227-.0397-.034-.017-.0113-.0283-.017-.0453-.0227s-.034-.0113-.0566-.017c-.0113,0-.017-.0057-.0227-.0057-.4361-.0283-.776-.4021-.8892-.9629-.1473-.708.068-1.5236.5381-2.0843h0c.1246-.1473.1813-.3625.1416-.5664h0l-.4928-2.4129v-.0113c-.051-.2209-.1982-.3625-.3851-.3908-.034-.0113-.0736-.017-.1189-.0057-.1246.017-.2435,0-.3512-.0283l-.034-.0113c-.3455-.1133-.6117-.4588-.7137-.9572-.1982-.9572.2605-2.09,1.0139-2.5261.3172-.1813.64-.2152.9062-.0906.3115.1416.5437.4814.6344.9346.1416.6853-.068,1.5179-.5211,2.0787v.0113c-.1189.1473-.1699.3568-.1303.5551l.5041,2.4751h0c.0113.051.0283.0906.0453.1303,0,.0113,0,.017.0113.0283.034.0566.0736.1019.1189.1416.017.017.034.0227.0566.034.0397.0227.0793.0397.1246.0453h.0397c.017,0,.0283.0113.0453.0113h.034c.4984-.017.8892.3625,1.0195.9969h0c.1246.606-.0397,1.3537-.4248,1.9031-.0113.0113-.0113.0283-.017.0453s-.017.034-.0227.051v.1076c0,.0227.0113.0453.0227.068l-.017.0114h.0004ZM569.2755,534.8546c.0227.1076.051.2152.0906.3115-.1359-.1643-.2322-.3738-.2889-.6287h0c-.1473-.708.0623-1.5236.5324-2.0787h0c.1246-.1473.1813-.3682.1416-.5664h0l-.4191-2.0504h.1303l.4871,2.3675c.0057.034,0,.0736-.017.085h0c-.5777.6853-.8383,1.6879-.657,2.5601h0ZM567.8539,528.392c.0227.1189.0566.2322.0963.3398-.1359-.1699-.2379-.3908-.2945-.657-.1982-.9572.2605-2.09,1.0139-2.5261.068-.0397.1303-.068.1982-.0963-.7986.64-1.2347,1.8578-1.0139,2.9339v.0057h0ZM562.0766,529.6437l.0283-.1303.085.0227.6853,3.3474-.1416-.0397-.657-3.2001h0ZM562.1729,532.9288l-.9232.5324.5324-2.4525.3908,1.9144v.0057ZM560.4001,534.696v.1076c0,.0227.0113.0397.017.0566,0,.0113.0057.0283.0113.0397h0c.0227.0397.0566.068.0906.0906.0113.0057.0227.0113.034.017.017.0057.034.017.051.0227.0227,0,.0397.0057.0623.0057.0453,0,.085-.017.1246-.034h.017l2.5658-1.484.0057-.0057c.0057,0,.0113-.0057.017-.0113l.0113-.0113.0227-.0227.034-.034c.0113-.017.017-.034.0227-.051.0057-.0113.017-.0283.0227-.0397h0v-.1359l-.7646-3.7382,1.9257-.8043.6683,3.2738s.017.0453.0283.068v.017h0c.0227.0397.0566.068.0963.0906.0113,0,.017.0113.0227.017.0397.017.0793.034.1246.034h.0566c.0227,0,.0397-.017.0623-.0283.0057,0,.017,0,.0227-.0057l.5777-.3342.4814,2.3562-.742.4305-.0057.0057c-.017.0113-.034.0283-.0453.0397l-.034.034c-.0113.017-.017.034-.0227.051s-.017.034-.0227.051v.1189l.6853,3.3361s.017.0453.0283.068v.017h0c.0113.0227.034.0453.051.0623l-1.9314,1.1158h0l-.6797-3.3361s-.0113-.0283-.0227-.0453c0-.0113-.0057-.0283-.0113-.0397l-.0057-.0057c-.0113-.017-.0283-.034-.0453-.051l-.034-.034c-.017-.0113-.0283-.017-.0453-.0227s-.034-.017-.051-.0227h-.1189c-.017,0-.0283.0113-.0453.017-.0113,0-.0283.0057-.0397.0113l-5.1655,2.9793-.4418-2.158,2.4865-11.124,2.0504-1.1838-2.2203,10.2178.017.0113-.0002.0002ZM564.144,539.1535l-.1416-.0397-.4928-2.3959.1189-.068.5098,2.5035h.0057ZM557.5851,536.4348l-.2039-.0566,2.2769-10.1895.2492-.1416-2.3222,10.3877ZM557.9589,538.9949l-.1416-.0397-.4078-1.9824.1416.0397.4078,1.9824ZM556.7695,536.5198h0v.1189h0l.5324,2.5998s.017.0397.0227.0566c0,.0113.0057.0227.0113.0283.017.0283.0397.0566.068.0793,0,0,.0113.0057.017.0113.0227.017.051.0283.0736.0397h.0113l.7533.2039s.0453.0113.0736.0113h.0566c.0227,0,.0397-.017.0623-.0283.0057,0,.017,0,.0227-.0057l4.5255-2.6111.4475,2.1806-6.355,3.6703-.0057.0057c-.017.0113-.034.0283-.0453.0397l-.034.034c-.0113.017-.017.034-.0227.051-.0057.0113-.017.0227-.017.0397h0v.1359l.1529.759-6.0661,3.5003h0s-.0113-.0283-.017-.0397c-.0057-.017-.0113-.0397-.0227-.0566-.0057-.0113-.017-.0227-.0283-.034s-.0227-.0283-.034-.0397c0,0-.0113,0-.0113-.0057-.0113-.0057-.0227-.0113-.034-.017-.0113,0-.0227-.0113-.034-.017-.0057,0-.0113-.0057-.017-.0113l-.7533-.1982c-.0397-.0113-.0736-.0113-.1133-.0057-.017,0-.0283.0113-.0453.017s-.0397.0113-.0566.017l-1.6142.9346c1.0648-2.1466,1.3254-4.9503.691-8.0598-.6004-2.9283-1.7615-4.888-3.3078-5.6243l13.3556-7.7086-2.2203,9.9459-.0226-.017h.0001ZM557.7437,543.5601l-.1189.068-.0227-.1246.1416.0397v.017h0ZM548.3925,540.0201c.3512,1.7105.8439,5.63-1.1215,8.5413,0,.0057-.0057.0113-.0113.0227-.2889.4248-.6344.8326-1.0365,1.2064-.0057.0057-.0113.017-.017.0227-.0113.0113-.0227.0283-.034.0453s-.017.0283-.0227.0453-.0113.034-.0113.051v.0566c0,.017,0,.034.0057.051,0,.017.0113.0397.017.0566,0,.0057,0,.017.0057.0227,0,.0057.0113.0113.017.017.0057.0113.0113.0227.0227.034.0057.0113.017.0113.0283.0227l-2.1636,1.2461h0v-.0227c0-.0113-.0113-.0227-.017-.034,0-.0113,0-.0227-.0113-.034l-.0113-.0113c-.0113-.017-.0227-.034-.0397-.0453-.0113-.0113-.0227-.0227-.0397-.034s-.0283-.017-.0453-.0227-.034-.017-.0566-.017h-.1246c-.8779.2379-1.6822.1416-2.3902-.2889-1.2347-.759-2.192-2.5601-2.7074-5.0749-.6287-3.0869-.3512-5.9132.7873-7.9862l5.6017-3.2341c1.5689.4701,2.7697,2.3732,3.3814,5.3751l-.0057-.0113-.0002-.0002ZM538.0614,545.9843c.2039.9855.5267,2.124,1.0365,3.1492-.5211-.8892-.9402-2.056-1.2291-3.4607-.5381-2.6394-.4021-5.1599.3738-7.1139l.2889-.1643c-.8779,2.09-1.0478,4.7464-.4644,7.5954l-.0057-.0057h0ZM532.7543,543.6281l-.0057.0057c-.017.0113-.034.0283-.0453.0397l-.034.034c-.0113.017-.017.034-.0227.051s-.017.034-.0227.051v.1189l2.5488,12.4551s.017.0453.0283.068v.017h0c.017.0283.034.051.0623.068l-2.0673,1.1951h0l-2.5488-12.4551s-.0113-.0283-.017-.0453c0-.0113-.0057-.0283-.0113-.0397l-.0057-.0057c-.0113-.017-.0283-.034-.0453-.051l-.034-.034c-.017-.0113-.034-.017-.051-.0227s-.0283-.017-.0453-.017h-.1189c-.017,0-.0283.0113-.0453.017-.0113,0-.0283.0057-.0397.0113l-3.1265,1.8068-.3512-1.7049,8.9434-5.1599.3512,1.7049-3.2908,1.8974-.0057-.0057h0ZM532.5447,557.3972l-.1416-.0397-2.3562-11.5148.1189-.068,2.3789,11.6224h0ZM528.6932,560.3368l-.1189.068-.0227-.1246.1416.0397v.017h0ZM518.8606,557.0177c.6174,3.0246.5154,7.3632-1.8181,9.6344,0,0-.0057.0113-.0113.017-.0113.017-.0227.0283-.034.0453s-.017.0283-.0227.0453-.0057.034-.0113.051v.0566c0,.017,0,.034.0113.051,0,.017.0113.0397.017.0566,0,.0057,0,.0113.0057.017,0,.0057.0113.0113.017.017.0113.0113.0113.0283.0283.0397,0,0,.0057,0,.0113.0057l-1.8125,1.0478v-.0113c0-.017-.0113-.0283-.017-.0397,0-.0113-.0057-.0283-.0113-.0397l-.0113-.0113c-.0113-.017-.0283-.034-.0397-.0453l-.034-.034c-.017-.0113-.0283-.017-.0453-.0227s-.034-.017-.051-.0227h-.1189c-.725.1699-1.4047.051-2.022-.3512-1.2404-.7986-2.2429-2.6961-2.764-5.2165-.5947-2.8999-.3738-5.8282.5891-7.8559l5.0013-2.8886c1.4047.6117,2.5828,2.6337,3.1548,5.4487l-.0114.0057h0ZM509.5604,562.4268c.1473.7307.4871,2.0617,1.1158,3.2964-.5607-.9346-1.0139-2.1636-1.314-3.6136-.5154-2.5148-.4191-5.0636.2492-7.029l.2832-.1643c-.7533,2.0787-.8892,4.8087-.3342,7.5048v.0057h0ZM507.493,563.5652c.6174,3.0246.5154,7.3632-1.8181,9.6344,0,0-.0057.0113-.0113.017-.0113.017-.0227.0283-.034.0453s-.017.0283-.0227.0453-.0057.034-.0113.051v.0566c0,.017,0,.034.0113.051,0,.017.0113.0397.017.0566,0,.0057,0,.0113.0057.017,0,.0057.0113.0113.017.017.0113.0113.0113.0283.0283.0397.0057.0057.017.0113.0227.017l-1.8011,1.0365v-.0113c0-.017-.0113-.0283-.017-.0397,0-.0113-.0057-.0227-.0113-.0397,0,0-.0057-.0057-.0113-.0113-.0113-.017-.0283-.034-.0397-.0453s-.0227-.0227-.034-.034c-.017-.0113-.034-.017-.051-.0227s-.034-.017-.051-.017h-.1189c-.725.1699-1.4047.051-2.022-.3512-1.2404-.7986-2.2429-2.6961-2.7583-5.2165-.5947-2.9113-.3738-5.8452.5947-7.8616l4.9843-2.8773c1.399.6174,2.5658,2.6337,3.1435,5.4431h-.0116ZM498.2154,568.98c.1473.7307.4814,2.0617,1.1101,3.2964-.5607-.9346-1.0138-2.1636-1.3084-3.6079-.5154-2.5261-.4191-5.0806.2549-7.029l.2832-.1643c-.759,2.0673-.8892,4.803-.3398,7.5104v-.0057h0ZM496.9694,578.5068s.0057.0283.0113.0397h0c.0113.0227.034.0397.051.0566l-.9572.5551h0c0-.017-.0113-.034-.017-.0566,0-.0057,0-.017-.0057-.0227,0-.0057-.0113-.0113-.017-.017-.0113-.017-.0227-.0283-.0397-.0453-.0113-.0113-.0227-.0227-.0397-.034s-.034-.017-.051-.0227-.034-.0113-.0566-.017c-.0113,0-.017-.0057-.0227-.0057-.4361-.0283-.776-.4021-.8892-.9629-.1473-.708.0623-1.5236.5324-2.0787h0c.1303-.1473.1813-.3682.1416-.5721h0l-.4928-2.4129h0c-.0453-.2266-.1982-.3738-.3908-.4021-.034-.0113-.0736-.017-.1189-.0113-.5267.0623-.9629-.3229-1.0988-.9969-.1982-.9572.2605-2.09,1.0138-2.5261.3172-.1813.6344-.2152.9062-.0906.3115.1416.5437.4814.6344.9346.1416.6797-.068,1.5179-.5211,2.0787h0c-.1189.1473-.1699.3625-.1303.5551l.5041,2.4751c.0113.051.0283.1019.051.1473,0,0,0,.0113.0057.017.034.0566.0736.1019.1189.1416.017.017.0397.0283.0623.0397.0397.0227.085.0397.1303.0453h.0113s.0113,0,.017.0057c.0113,0,.0283.0057.0397.0057h.0283c.4871-.017.8892.3625,1.0195.9969.1246.6117-.0397,1.3537-.4248,1.9031-.0057.0113-.0113.0283-.017.0397-.0113.017-.0227.0397-.0227.0566v.1076c0,.0227.0113.0397.017.0566l.017.017h.0003ZM494.3809,578.0989c.0227.1076.051.2152.0906.3172-.1359-.1643-.2379-.3738-.2889-.6287-.1473-.708.068-1.5236.5381-2.0843h0c.1246-.1473.1756-.3625.1359-.5664h0l-.4191-2.0504h.1303l.4814,2.3675h0c.0057.034,0,.0736-.017.085h0c-.5777.6853-.8383,1.6879-.657,2.5601h.0057ZM492.9593,571.6307c.0227.1189.0566.2322.0963.3455-.1359-.1699-.2435-.3908-.2945-.657-.1982-.9572.2605-2.09,1.0195-2.5261.0623-.0397.1303-.068.1926-.0906-.793.64-1.2347,1.8578-1.0138,2.9339v-.0057h-.0001ZM491.0562,573.0693c.6174,3.0246.5154,7.3632-1.8181,9.6344,0,0-.0057.0113-.0113.017-.0113.017-.0227.0283-.034.051-.0113.017-.017.0283-.0227.0453s-.0113.034-.0113.051v.051c0,.017,0,.034.0113.051,0,.017.0113.034.017.0566,0,.0057,0,.0113.0057.0227,0,.0057.0113.0113.017.017.0113.0113.0113.0283.0227.0397,0,0,.0057,0,.0113.0057l-1.8238,1.0535v-.0113c0-.0113-.0113-.0227-.017-.0397,0-.0113-.0057-.0283-.0113-.0397,0,0-.0057-.0057-.0113-.0113-.0113-.017-.0227-.0283-.0397-.0453-.0113-.0113-.0227-.0283-.0397-.034-.0113-.0113-.0283-.017-.0453-.0227s-.034-.017-.0566-.0227h-.1246c-.725.1643-1.4047.051-2.022-.3512-1.2404-.7986-2.2429-2.6961-2.7583-5.2165-.5947-2.9113-.3738-5.8395.5947-7.8616l5.0069-2.8886c1.4047.6117,2.5828,2.6281,3.1548,5.4487h.0057v-.0002ZM481.7446,578.4841c.1473.7307.4871,2.0673,1.1158,3.3021-.5607-.9402-1.0195-2.1636-1.314-3.6193-.5154-2.5261-.4191-5.0749.2549-7.029l.2832-.1643c-.759,2.0673-.8892,4.803-.3398,7.5048v.0057h-.0001ZM481.2802,587.5125s.017.0397.0227.0623c0,.0057,0,.017.0057.0226h0c.0113.0226.034.0453.051.0623l-2.0107,1.1611-2.3789-11.6281s-.0113-.0227-.0113-.0283c-.0057-.0227-.017-.0453-.0283-.068-.017-.0227-.034-.0397-.051-.0566-.0057-.0057-.0113-.017-.0227-.0227h0c-.0227-.017-.0453-.0227-.0736-.0283-.0453-.017-.0963-.0227-.1416-.0113h0c-.0113,0-.017.0113-.0283.0113-.0227.0057-.051.017-.0736.0283-.0227.017-.0397.034-.051.051-.0057.0113-.017.0113-.0227.0227l-1.1668,1.7219-1.2574-1.348,1.7388-2.8546,2.5544-1.4783,2.9396,14.3695.0057.0113h0ZM478.7087,588.4923l-.1416-.0397-2.1127-10.3367.1019-.1529,2.1523,10.5236v.0057h0ZM473.5602,577.1757l-.1813-.051,1.0535-1.7332.3285-.1869-1.2008,1.9711h.0001ZM475.0498,591.3017l-.1189.068-.0227-.1133.1416.0397h0v.0057h0ZM468.6326,597.8096s.0453.0113.0736.0113h.0566c.0397-.0113.0793-.0283.1076-.051,0,0,.0057-.0057.0113-.0113.0397-.034.068-.0793.085-.1303,0,0,.0057-.0057.0057-.0113v-.1359l-.3172-1.5576.4758.1303,1.2744,6.219-.4758-.1303-.3738-1.8351s-.0113-.0226-.017-.0397-.0113-.0397-.0227-.0566c-.0113-.017-.0227-.0283-.034-.0397s-.0227-.0283-.034-.034c-.017-.0113-.0397-.0226-.0566-.0283-.0113,0-.0227-.0113-.034-.017l-.742-.1982-.3002-1.4783-.1473-.725.4701.1246-.0057-.0056h.0002ZM626.9347,504.2692l.3172.085-157.9057,91.1672-.3172-.085,157.9057-91.1672h0ZM625.8076,504.2692l-28.8636,16.6634h0s-.0113-.0283-.017-.0397c-.0057-.0227-.0113-.0397-.0283-.0623-.0057-.0113-.017-.0227-.0283-.034s-.0227-.0283-.034-.0397c0,0-.0113,0-.0113-.0057-.0113-.0057-.0227-.0113-.0283-.017-.017-.0113-.034-.0227-.0566-.0283l-.7533-.1982c-.034-.0113-.0736-.0113-.1133-.0057-.0113,0-.0227.0057-.034.0113-.0227.0057-.0453.0113-.068.0227l-2.005,1.1555c1.0818-2.4242,1.0478-5.545.5381-8.0428-.2775-1.365-1.1215-4.4915-3.1152-5.664l31.6389-18.2663,2.9793,14.5507h-.0001ZM624.4029,488.1552l-64.2294,37.082h0l-.9119.5267h0l-14.4204,8.326h0l-78.5082,45.3287-1.2801-6.253,158.0813-91.2691,1.2801,6.253-.0114.0057h0ZM622.2733,481.4717l.3172.085-157.9057,91.1672-.3172-.085,157.9057-91.1672h0ZM621.1405,481.4717l-106.154,61.2841h0s-.0113-.0283-.017-.0397c-.0057-.0227-.0113-.0397-.0227-.0566l-.034-.034c-.0113-.0113-.0227-.0283-.034-.0397,0,0-.0113,0-.0113-.0057-.0113-.0057-.0227-.0113-.034-.017-.017-.0113-.034-.0227-.051-.0227l-.7533-.2039c-.034-.0113-.0736-.0113-.1133-.0057h0c-.034,0-.068.017-.1019.034l-.051.0283-2.781-13.5878,107.1792-61.8788,2.9793,14.5451h0ZM619.7358,465.3634l-132.3102,76.3899h-.0057l-11.3846,6.5702h0l-14.3808,8.3034-1.2801-6.253,158.0813-91.2691,1.2801,6.253v.0057h0ZM617.6061,458.6799l.3172.085-157.9057,91.1672-.3172-.085,157.9057-91.1672h0ZM616.479,458.6743l-157.6508,91.0199-.0057.0057c-.017.0113-.034.0283-.0453.0397,0,0-.0113.0113-.017.0113,0,0-.0057.0057-.0113.0113,0,0,0,.0057-.0057.0113-.0113.017-.017.0283-.0227.0453-.0057.0113-.017.0227-.017.0397h0v.1302l.2266,1.1158-.2549.1473-3.9138-19.1329.3002.0793.3738,1.8351s.017.0397.0227.0623c0,.0113.0057.017.0113.0283.017.0283.0397.0566.068.0793,0,0,.0113.0057.017.0113.0227.017.0453.0283.0736.034h.0113l1.0875.2945s.0453.0113.0736.0113h.0566c.0227,0,.0397-.017.0623-.0283.0057,0,.017,0,.0227-.0057l156.569-90.3912,2.9793,14.5451h-.0113v.0002ZM450.3266,506.3082v-.0113l-.3172-1.5576.4758.1303,1.2744,6.219-.4758-.1303-.3738-1.8351s-.0113-.0227-.017-.0397-.0113-.0397-.0227-.0566c-.0113-.017-.0227-.0283-.034-.0397-.0113-.0113-.0227-.0283-.0397-.0397-.017-.0113-.034-.017-.051-.0283-.0113-.0057-.0227-.017-.0397-.017l-.742-.1982-.0397-.1869-.4135-2.0164.4701.1246s.0453.0113.0736.0113h.0566c.0397-.0113.0793-.0283.1076-.051l.0113-.0113c.0397-.034.0736-.0793.085-.1303,0,0,.0057-.0057.0057-.0113v-.1246h.006ZM450.3833,509.4121l.3738,1.8351s.017.0397.0227.0566c0,.0113.0057.0227.0113.0283.017.0283.0397.0566.068.0793.0057,0,.0113.0057.017.0113.0227.017.0453.0283.0736.034h.0113l1.0875.2945s.0453.0113.0736.0113h.0566c.0227,0,.0397-.017.0623-.0283.0057,0,.017,0,.0227-.0057l41.834-24.1512,2.781,13.5878-.8496.4928-.0057.0057c-.017.0113-.034.0283-.0453.0397-.0057.0057-.017.0113-.0227.0227h0s0,.0057-.0057.0113c-.0113.017-.017.0283-.0227.0453s-.017.034-.0227.051v.1189l.1529.759-41.8907,24.1851-.0057.0057c-.017.0113-.034.0283-.0453.0397,0,0-.0057.0057-.0113.0113,0,0-.0113.0113-.017.017,0,0,0,.0057-.0057.0113-.0113.017-.017.0283-.0227.0453-.0057.0113-.017.0227-.017.0397h0v.1302l.2266,1.1158-.2549.1473-3.9138-19.1329.3002.0793-.017.0057.0004.0002ZM501.8687,487.6398l-3.2511,1.8748-.8326-4.0667,3.2511-1.8748.8326,4.0667ZM501.5515,483.2729l.1189-.068.8949,4.3839-.1416-.0397-.8779-4.282.0057.0057h0ZM498.2551,490.585s.017.0397.0227.0623c0,.0057,0,.017.0057.0227h0c.0227.0397.0566.068.0906.0906.0113,0,.017.0113.0283.017.0397.017.0793.034.1246.034h.0566c.0227,0,.0397-.017.0623-.0283.0057,0,.017,0,.0227-.0057l4.4066-2.5431.0057-.0057c.0057,0,.0113-.0057.017-.0113l.0113-.0113.0227-.0227.034-.034c.0113-.017.017-.034.0227-.051s.017-.034.0227-.051v-.1246l-1.0252-5.0183,2.0107-1.1611,2.9396,14.3582s.017.0453.0283.068v.017h0c.017.0283.034.051.0623.068l-2.0673,1.1951h0l-1.331-6.5079s-.0113-.034-.0227-.0453c0-.0113-.0057-.0283-.0113-.0397l-.0057-.0057c-.0113-.017-.0283-.034-.0453-.051-.0113-.0113-.017-.0227-.0283-.0283-.017-.0113-.034-.017-.051-.0283-.017-.0057-.0283-.017-.0453-.017h-.1246c-.017,0-.0283.0113-.0453.017-.0113,0-.0283.0057-.0397.0113l-4.4066,2.5431-.0057.0057c-.017.0113-.034.0283-.0453.0397l-.034.034c-.0113.017-.017.0283-.0227.0453s-.017.034-.0227.051v.1189l1.331,6.5079s.017.0453.0283.068v.017h0c.017.0283.034.051.0623.068l-2.0673,1.1951h0l-2.9736-14.5451,2.0107-1.1611.9912,4.837v.0057h0ZM506.3262,487.2093c.6683,3.2738,2.0447,5.3468,3.8685,5.8339h0l.5154.1359-3.2171,1.8578-2.781-13.5935,1.7898-1.0365c-.6174,1.9541-.6853,4.3329-.1813,6.7968l.0057.0057h0ZM524.6775,477.8751l-3.6872-5.8169,4.5085-2.6054-.8213,8.4223h0ZM526.0991,469.1016l.2152-.1246-.9685,9.9516-.1756-.2775.9289-9.5494h0ZM525.3062,479.9255s.0057,0,.0113.0113c.0227.034.0566.068.0963.0906h0c.034.017.068.0283.1019.034h.0283c.051,0,.0963-.017.1359-.0397h.017c.0057,0,.0113-.0113.017-.017.017-.0113.0283-.0283.0453-.0453.0113-.0113.017-.0227.0283-.034.0113-.017.017-.034.0227-.051,0-.017.0113-.0283.0113-.0453v-.017l1.0875-11.1693,2.1863-1.2631,2.9396,14.3582s.017.0453.0283.068v.017h0c.017.0283.034.051.0623.068l-2.0843,1.2064h0l-1.5009-7.3405s0-.0113-.0057-.017c0-.017-.0113-.034-.0227-.051-.0057-.017-.017-.034-.0283-.051l-.034-.034c-.017-.0113-.0283-.0283-.0453-.034-.017-.0113-.034-.0113-.0453-.017-.017-.0057-.034-.0113-.0566-.017h-.1019s-.0113,0-.017.0057c-.017,0-.034.0113-.051.0227-.017.0057-.0283.0113-.0453.0227-.017.0113-.0283.0283-.0453.0453-.0113.0113-.0227.0227-.0283.034-.0113.017-.0113.034-.0227.051-.0057.017-.0113.034-.017.0566v.0113l-.8666,8.7055v.0283c0,.0227,0,.0397.0057.0566,0,.017.0113.034.017.051,0,.0113,0,.017.0113.0283,0,0,.0113.0057.0113.0113.017.0227.034.0397.051.0566l-1.1328.6514s-.0113-.0283-.017-.0397c-.0057-.017-.0113-.0397-.0227-.0566v-.0057l-3.8515-5.9868h0c-.017-.0227-.034-.0397-.0566-.0566-.0057-.0057-.0113-.017-.0227-.0227-.017-.0113-.034-.017-.0566-.0227-.017-.0057-.0283-.017-.0453-.017h-.1133c-.017,0-.034.0113-.0453.0227-.017.0057-.034.0113-.051.017h0c-.0227.0113-.0397.034-.051.051-.0057.0113-.017.017-.0283.0283-.0113.017-.0113.034-.0227.0453-.0057.017-.017.034-.0227.051v.1076h0l1.5009,7.3405s.017.0453.0283.068v.017h0c.017.0283.034.051.0623.0736l-2.0843,1.2064h0l-2.9736-14.5451,2.2656-1.3084,4.8144,7.5897.0283-.0056v.0003ZM540.5649,463.0808v-.0113l-.4248-2.0787,8.4903-4.905c-.6174,1.9597-.6853,4.3386-.1813,6.7968.674,3.2851,2.0504,5.3638,3.8855,5.8565l.4814.1303-2.6337,1.5179-.0057.0057c-.017.0113-.034.0283-.0453.0397h-.0057c-.0057.0057-.017.0113-.0227.017,0,0,0,.0057-.0057.0113-.0113.017-.017.034-.0227.051,0,.0113-.0113.017-.0113.0283,0,0,0,.0057-.0057.0113v.1359l.1529.759-6.0548,3.4947h0s-.0113-.0283-.017-.0397c-.0057-.0227-.0113-.0397-.0227-.0566l-.034-.034c-.0113-.0113-.0227-.0283-.034-.0397,0,0-.0057,0-.0113-.0057-.0113-.0057-.0227-.0113-.0397-.017s-.034-.017-.051-.0227l-.7476-.1982c-.034-.0113-.0736-.0113-.1133-.0057-.0397,0-.0736.017-.1019.034l-.051.0283-.4531-2.2033s-.0113-.0227-.017-.0397-.0113-.0397-.0227-.0566c-.0113-.017-.0227-.0283-.034-.0397-.0113-.0113-.017-.0227-.0283-.034,0,0-.0057,0-.0113-.0057-.0113-.0057-.0283-.0113-.0397-.017-.017-.0057-.034-.017-.051-.0227l-.7476-.1982c-.068-.017-.1473-.0113-.2152.0283l-4.9673,2.866-.4531-2.2089,5.0069-2.8886.0057-.0057c.017-.0113.034-.0283.0453-.0397l.034-.034c.0113-.017.017-.034.0227-.051s.017-.034.0227-.051v-.1189l-.6174-3.0189s-.0113-.0283-.017-.0397c-.0057-.017-.0113-.0397-.0227-.051-.0113-.017-.0283-.034-.0397-.0453-.0113-.0113-.017-.0227-.0283-.0283h-.0113c-.017-.0113-.034-.017-.051-.0283-.0113-.0057-.0283-.017-.0397-.017l-.7476-.1982c-.068-.017-.1473-.0113-.2152.0283l-4.2083,2.4298-.3625-1.7785,5.7659-3.3304.0057-.0057c.017-.0113.034-.0283.0453-.0397l.034-.034c.0113-.017.017-.034.0227-.051s.017-.034.0227-.051v-.1245l.0004.0005ZM559.5958,456.4653c.6683,3.2738,2.0447,5.3468,3.8685,5.8339h0l.5154.1359-2.5375,1.467h0c-.0397,0-.0736.017-.1076.0397l-.5607.3229-1.5916-7.788s-.0113-.0227-.017-.0397-.0113-.0397-.0227-.0566c-.0113-.017-.0227-.0283-.0397-.0453-.0113-.0113-.017-.0227-.0283-.034h-.0113c-.017-.0113-.034-.017-.0453-.0227-.017-.0057-.0283-.017-.0453-.0227l-.7476-.1982c-.068-.017-.1473-.0113-.2152.0283l-4.6841,2.7017s-.0057.0057-.0113.0057c-.017.0113-.0283.0227-.0397.034-.0113.0113-.0227.017-.034.0283v.0113c-.0113.017-.017.034-.0227.051,0,.0057-.0057.017-.0113.0227,0,.0057-.0057.0113-.0113.017v.1359l.5607,2.73s.017.0397.0227.0566c0,.0113.0057.0227.0113.0283.017.0283.0397.0566.068.0793,0,0,.0113,0,.017.0113.0227.017.051.0283.0793.0397h.0113l.7533.2039s.0453.0113.068.0113h0c.017,0,.0397,0,.0566-.0057.0227,0,.0397-.017.0623-.0283.0057,0,.017,0,.0227-.0057l1.1441-.657c.0227.8496-.1473,2.2033-1.3254,2.8773-.3398.1926-.6514.3002-.9346.3172-.6514-.4248-1.1668-1.5009-1.5179-3.2285-.6344-3.1152-.1473-5.0862,1.4953-6.0321.4021-.2322.7476-.3342,1.0648-.3285.2209.1133.4588.2719.742.5098h0c.0057.0057.017.0113.0283.017.0227.0113.0453.0283.068.034h.0113l.7533.2039s.051.0113.0736.0113c.0453,0,.0963-.017.1359-.0397.0113,0,.017-.0113.0227-.017.0113-.0057.017-.017.0227-.0227.0113-.0113.0227-.017.034-.0283.0113-.017.017-.034.0283-.051,0-.0057.0113-.0113.017-.017l1.3537-3.0529v-.017c.0057-.017.0113-.0397.0113-.0566v-.051c0-.017,0-.034-.0113-.051,0-.017-.0057-.034-.017-.051-.0057-.017-.017-.0283-.0283-.0453s-.0227-.034-.0397-.0453c0,0-.0057-.0113-.0113-.0113-.5041-.4191-.9572-.7137-1.399-.9176l3.1265-1.8068c-.623,1.9597-.691,4.3386-.1869,6.8137l.0057-.0056-.0002.0002ZM592.3789,433.6169c.0453.2266.1019.4305.1643.6287-.4814-1.2008-1.0931-2.0164-1.9597-2.3675l1.8748-1.0818c-.2435.9346-.2719,1.8804-.0793,2.8207h-.0001ZM592.9453,437.8195c1.2234,5.9698.3285,8.3147-4.1573,10.9088-.1359.0793-.1813.2492-.1019.3851.017.034.051.0566.0793.0793l-3.0302,1.7502v-.017l-2.9736-14.5337,7.1309-4.1177c1.4217.2039,2.2826,1.7728,3.0585,5.545h-.0057ZM593.1322,433.8151c.0793.3965.1926.7476.3229,1.0535-.2322-.3568-.4078-.8099-.5211-1.3707-.2152-1.0478-.1246-2.1013.2492-3.1265l.2832-.1643c-.4644,1.1668-.5834,2.4015-.3398,3.6079h.0057,0ZM594.4802,436.3016l.7533.2039s.051.0113.0736.0113h0c1.0365.2492,2.2316-.0453,3.3134-.3285.5891-.1529,1.1555-.2945,1.5972-.3229.0906.0906.1586.2152.1926.3851h0c.2662,1.2914-.8213,2.4525-1.5689,2.883-.4531.2605-.8553.3965-1.2121.4078-.2719-.1813-.5098-.4758-.708-.8892l-.0057-.0057c-.0057-.0113-.017-.0227-.0227-.034,0-.0057-.0057-.017-.0113-.0227,0,0-.0113-.0057-.017-.0113-.0057-.0057-.0113-.0113-.017-.017l-.034-.017c-.0113-.0113-.0283-.017-.0397-.0227-.0057,0-.017-.0057-.0227-.0113h-.0113l-.7533-.2039h-.0793c-.0227,0-.0397,0-.0566.0057-.017,0-.0283.0113-.0453.017s-.034.017-.051.0283c-.0057,0-.017.0057-.0227.0113l-1.8521,1.6256c-.085-.7023-.2096-1.4613-.3795-2.2826-.2379-1.1498-.4871-2.158-.7816-3.0076.3795.8553.9572,1.3877,1.7672,1.6029l-.0057-.0057v.0002ZM595.6639,432.3538c.0397.1982.1303.3568.2492.4871.0283.068.085.1189.1473.1473.017.0113.0283.034.0453.0453.5551.3512,1.467.1246,2.5205-.1303,1.3197-.3229,2.815-.691,3.8515-.034.606.3851,1.0025,1.0761,1.2177,2.124.5437,2.6507-.7646,5.0409-2.1636,6.389-.0057.0057-.0113.017-.017.0283-.0113.017-.0227.0283-.034.0453s-.017.034-.0227.051c0,.017-.0113.034-.0113.051v.1019s.0057.0113.0113.017c0,.0057,0,.0113.0057.017,0,.0057,0,.0113.0113.0227,0,.0057,0,.017.0057.0227h0c.017.0283.034.051.0623.068l-2.5375,1.467v-.0283c0-.0113-.0113-.0227-.017-.034,0-.0113,0-.0227-.0113-.034l-.0113-.0113c-.0113-.017-.0283-.034-.0397-.0453l-.034-.034c-.017-.0113-.034-.017-.051-.0227s-.034-.0113-.051-.017h-.1303c-1.6652.4305-2.9793-.3229-3.9025-2.2033l1.8351-1.6086c.2322.3795.5041.6683.8156.8496.017.0113.0397.017.0566.0283.1019.051.1982.1076.3059.1416.1699.051.3512.0793.5437.0793.4701,0,.9912-.1643,1.5576-.4928,1.1101-.64,2.1297-2.0787,1.8408-3.489-.0793-.3851-.2605-.6683-.5381-.8439-.6287-.3908-1.5859-.1416-2.7017.1416-1.2517.3229-2.6791.691-3.6419.085-.5664-.3568-.9459-1.0138-1.1498-2.022-.2719-1.3424-.051-2.7187.6344-3.9874l5.7036-3.2964c.6004.1926,1.1668.623,1.7219,1.3084l-1.5746,2.0843c-.4701-.4758-.9402-.7193-1.4556-.7363-.0283-.0057-.0566-.0057-.085,0-.4248.0057-.8836.1529-1.399.4531-.6627.3851-1.8408,1.4613-1.5633,2.8207v-.0057l.0002-.0002ZM594.248,441.0933c-.017-.0283-.034-.0566-.051-.0906h.0113c.0113.034.0283.0623.0397.0906h0ZM594.2366,440.4306l1.7502-1.5349.0963.0227-1.7502,1.5349-.0963-.0227h0ZM596.1511,443.4099h0l.5098.1359-3.523,2.0334c.606-1.0705.8779-2.2996.8666-3.8119.5947.8666,1.314,1.4217,2.1466,1.6425h0ZM600.9654,436.1373h0c-.0057-.034-.017-.068-.0283-.1019.1076.0906.1869.2209.2266.4191.2662,1.2914-.8213,2.4525-1.5689,2.883-.051.0283-.1019.051-.1529.0793.9742-.708,1.7841-2.005,1.5236-3.2794h-.0001ZM585.0837,450.5861l-.1416-.0397-2.8207-13.7918.1189-.068,2.8433,13.8994h0ZM584.3813,450.6371l-2.4751,1.4273c1.0648-2.1466,1.3254-4.9503.691-8.0598-.6004-2.9169-1.7558-4.8767-3.2964-5.6187l2.3052-1.331,2.7753,13.5765v.0057ZM582.0364,444.1179c.3512,1.7105.8439,5.63-1.1215,8.5413,0,0-.0057.0113-.0113.017-.2889.4248-.6344.8326-1.0365,1.2064-.0057.0057-.0113.0113-.017.0227-.0113.017-.0227.0283-.034.0453s-.017.0283-.0227.0453-.0113.034-.0113.051v.0566c0,.017,0,.034.0057.051,0,.017.0113.0397.017.0566,0,.0057,0,.017.0057.0227,0,.0057.0113.0113.017.017.0057.0113.0113.0227.0227.034.0113.0113.0283.017.0397.0283l-2.1806,1.2574v-.0397c0-.0113-.0113-.0227-.017-.034,0-.0113,0-.0227-.0113-.034l-.0113-.0113c-.0113-.017-.0227-.034-.0397-.0453-.0113-.0113-.0227-.0227-.0397-.034s-.0283-.017-.0453-.0227-.034-.017-.051-.017h-.1303c-.8836.2435-1.6822.1416-2.3902-.2889-1.2347-.759-2.1976-2.5601-2.7074-5.0749-.6287-3.0699-.3455-5.8962.7816-7.9692l5.63-3.2511c1.5633.4814,2.7527,2.3789,3.3644,5.3694h-.0057v.0002ZM571.6997,450.0877c.2039.9855.5267,2.1297,1.0365,3.1492-.5267-.8892-.9459-2.056-1.2291-3.4663-.5381-2.6281-.4021-5.1429.3738-7.1026l.2889-.1643c-.8779,2.0957-1.0478,4.7464-.4644,7.5841h-.0057,0ZM571.4222,451.6679c.7533,2.2373,1.9257,3.6533,3.3927,4.0497h0l.5154.1359-4.7861,2.764c.9402-1.8861,1.2461-4.282.8779-6.9497h0ZM570.7595,448.7737c-.6514-1.9371-1.6199-3.2568-2.8207-3.8288l3.1831-1.8351c-.5211,1.6539-.6457,3.6136-.3625,5.6696v-.0057h0ZM570.6802,450.6767c.3512,1.7105.8439,5.63-1.1215,8.5413,0,0-.0057.0113-.0113.017-.2889.4305-.6344.8326-1.0365,1.2064-.0057.0057-.0113.0113-.017.0227-.0113.017-.0227.0283-.034.0453s-.017.0283-.0227.0453-.0113.034-.0113.051v.0566c0,.017,0,.034.0057.051,0,.017.0113.0397.017.0566,0,.0057,0,.017.0057.0227,0,.0057.0113.0113.017.017.0057.0113.0113.0227.0227.034.0113.0113.0283.017.0397.0283l-2.1806,1.2574v-.0113c0-.0113-.0113-.0227-.017-.034,0-.0113,0-.0227-.0113-.034,0-.0057-.0113-.0113-.0113-.017-.0113-.017-.0227-.0283-.0397-.0453-.0113-.0113-.0283-.0227-.0397-.034-.0113-.0113-.0283-.017-.0453-.0227s-.0397-.017-.0566-.017h-.1246c-.8779.2435-1.6822.1416-2.3902-.2889-1.2347-.759-2.192-2.5601-2.7074-5.0749-.6344-3.0925-.3455-5.9358.8099-8.0145l5.6017-3.2341c1.5633.4814,2.7527,2.3789,3.3644,5.3694l-.0057.0057h-.0001ZM560.3491,456.6692c.2039.9855.5267,2.124,1.0365,3.1492-.5211-.8892-.9402-2.056-1.2291-3.4607-.5437-2.6451-.4021-5.1712.3908-7.1366l.2889-.1643c-.8949,2.1013-1.0648,4.7634-.4814,7.618l-.0057-.0057h0ZM554.4076,461.5742l-.1416-.0397-.4305-2.107.1416.0397.4305,2.107ZM556.6053,461.2344l.1529-.0906c.1189.9119.1416,2.6677-1.2744,3.4833-.0623.034-.1189.0566-.1756.085.9515-.7137,1.416-1.9541,1.2914-3.4777h.0057ZM557.5228,452.6818l-1.1158,2.5205c-.4644-.3455-.9289-.5664-1.4387-.606-.0227,0-.0397-.0057-.0623-.0057-.4305-.017-.8892.0963-1.416.4021-1.8521,1.0705-2.4468,3.3021-1.7672,6.6382.3908,1.9201.9799,3.1039,1.7898,3.6079.0283.0283.068.051.1133.0623.0397.0227.0736.0453.1133.0623.2266.1019.4701.1529.725.1529.4078,0,.8439-.1359,1.3027-.4021,1.3367-.7703,1.8918-2.4412,1.484-4.4575h0v-.0227c0-.017-.0113-.0283-.017-.0453,0-.0113-.0057-.0283-.0113-.0397l-.0057-.0057c-.0113-.017-.0283-.034-.0453-.051l-.034-.034c-.0113-.0113-.0283-.017-.0453-.0227s-.034-.017-.051-.0227h-.1246c-.017,0-.0283.0113-.0397.017-.017,0-.0283.0057-.0453.017l-1.8578,1.0705-.4361-2.141,4.1687-2.4072,1.7105,8.3543s.017.0453.0283.068c0,.0057,0,.0113.0057.017h0c.017.0283.0397.0566.068.0793l-1.6709.9685v-.017l-.2322-1.1385s-.0113-.0227-.017-.034c-.0057-.017-.0113-.0397-.0227-.0566-.0113-.017-.0227-.0283-.034-.0397-.0113-.017-.0283-.0283-.0397-.0397-.017-.0113-.0283-.017-.0453-.0227-.0113-.0057-.0227-.017-.0397-.0227h-.1416c-.0113,0-.017.0113-.0283.0113-.0227.0057-.0453.017-.0623.0283-.0113.0057-.0227.017-.034.0283-.017.0113-.0283.0283-.0453.0453-.0113.017-.017.034-.0283.051,0,.0113-.0113.0227-.017.034-.2209.725-.5551,1.3084-1.0195,1.7841,0,0,0,.0113-.0113.017-.0113.017-.0227.034-.034.051-.0057.017-.017.0283-.0227.0453s-.0057.034-.0113.051v.051c0,.017.0057.034.0113.051,0,.017.0113.0397.017.0566v.017c0,.0057.0113.0113.017.017.0113.017.017.0283.0283.0453.0057.0057.017.0113.0283.017l-1.9257,1.1158h0v-.017c0-.0113-.0113-.0227-.017-.034,0-.0113,0-.0227-.0113-.034l-.0113-.0113c-.0113-.017-.0227-.034-.0397-.0453-.0113-.0113-.0227-.0227-.0397-.034s-.0283-.017-.0453-.0227-.034-.017-.051-.017h-.1303c-.8496.2266-1.6312.1189-2.3279-.3115-1.2347-.7703-2.2033-2.5771-2.7187-5.0862-.6287-3.0755-.3455-5.9075.793-7.9918l5.4771-3.1605c.4644.1473.9459.4248,1.4953.8609l.0112-.0169v.0004ZM549.2024,463.0922c.2549,1.2347.6174,2.3052,1.0705,3.1945-.5437-.9062-.9799-2.09-1.2687-3.506-.5381-2.6337-.4021-5.1542.3851-7.1196l.2889-.1643c-.8836,2.1013-1.0592,4.7577-.4758,7.601v-.0057h0ZM550.8393,471.084l-.1189.068-.0227-.1246.1416.0397v.017h0ZM534.2043,466.315l-.0057.0057c-.017.0113-.034.0283-.0453.0397l-.034.034c-.0113.017-.017.034-.0227.051s-.017.034-.0227.051v.1189l.6004,2.9283s.017.0453.0283.068c0,.0057,0,.0113.0057.017h0c.0227.0397.0566.068.0906.0906.0113,0,.017.0113.0283.017.0397.017.0793.034.1246.034h0c.017,0,.0397,0,.0566-.0057.0227,0,.0397-.017.0623-.0283.0057,0,.017,0,.0227-.0057l4.8427-2.798.4984,2.4355-5.0069,2.8886-.0057.0057c-.017.0113-.034.0283-.0453.0397l-.034.034c-.0113.017-.017.034-.0227.051s-.017.034-.0227.051v.1189l.6853,3.3587s.017.0453.0283.068c0,.0057,0,.0113.0057.017h0c.0227.0397.0566.068.0906.0906.0113,0,.017.0113.0283.017.0397.017.0793.034.1246.034h0c.017,0,.0397,0,.0566-.0057.0227,0,.0397-.017.0623-.0283.0057,0,.017,0,.0227-.0057l5.6017-3.2341.5664,2.7753s.017.0453.0283.068c0,.0057,0,.0113.0057.017h0c.017.0283.034.051.0623.068l-8.0089,4.6218h0l-2.9736-14.5451,7.9522-4.5935.3455,1.6935-5.7659,3.3304-.0113.0113h.0002ZM534.0004,480.0954l-.1416-.0397-2.8263-13.8031.1189-.068,2.849,13.9107h0ZM533.298,480.1407l-.8949.5154-2.781-13.5878.8949-.5154,2.781,13.5878ZM528.3251,478.1187l.0453-.4361,1.0365,5.0579-.1416-.0397-.9402-4.5878v.0057ZM528.7046,482.7971l-.8949.5154.3285-3.2851.5664,2.7697h0ZM524.6661,485.125l-1.1158.6457-.7137-3.4833,1.8238,2.8377h.0057ZM520.5541,487.855l-.1416-.0397-2.8263-13.8031.1189-.068,2.849,13.9107h0ZM519.8574,487.906l-2.5771,1.4896c1.0648-2.1466,1.3254-4.9503.691-8.0598-.6004-2.9283-1.7615-4.888-3.3078-5.6243l2.4129-1.3933,2.781,13.5935v-.0057h0ZM517.4106,481.4434c.3512,1.7105.8439,5.63-1.1215,8.5413,0,0-.0057.0113-.0113.017-.2889.4305-.6344.8326-1.0365,1.2064-.0057.0057-.0113.017-.017.0227-.0113.0113-.0227.0283-.034.0453s-.017.0283-.0227.0453-.0113.034-.0113.051v.0566c0,.017,0,.034.0057.051,0,.017.0113.0397.017.0566,0,.0057,0,.017.0057.0227,0,.0057.0113.0113.017.017.0057.0113.0113.0227.0227.034.0057.0113.017.0113.0283.0227l-2.1693,1.2517h0v-.0227c0-.0113-.0113-.0227-.017-.034,0-.0113,0-.0227-.0113-.034l-.0113-.0113c-.0113-.017-.0227-.034-.0397-.0453-.0113-.0113-.0227-.0227-.0397-.034s-.0283-.017-.0453-.0227-.034-.017-.051-.017h-.1303c-.8779.2379-1.6822.1416-2.3902-.2889-1.2347-.759-2.192-2.5601-2.7074-5.0749-.6287-3.0812-.3455-5.9132.793-7.9918l5.6017-3.2341c1.5689.4701,2.7697,2.3732,3.3814,5.3751l-.0057-.0057h0ZM507.0739,487.4132c.2039.9855.5267,2.124,1.0308,3.1435-.5211-.8892-.9402-2.056-1.2291-3.4607-.5381-2.6337-.4021-5.1599.3851-7.1196l.2889-.1643c-.8836,2.0957-1.0592,4.7521-.4758,7.601h0ZM503.2394,491.5139l.1189-.068,1.1611,5.6696-.1416-.0397-1.1385-5.5677v.0057h0ZM503.8171,497.1666l-3.2511,1.8748-1.0931-5.3525,3.2511-1.8748,1.0931,5.3525ZM497.5867,501.12l-.1416-.0397-2.8263-13.8031.1189-.068,2.849,13.9107h0ZM496.6862,502.3491l-.1189.068-.0227-.1246.1416.0397v.017h0ZM454.6426,529.4285s.0453.0113.0736.0113h.0566c.0397-.0113.0793-.0283.1076-.051,0,0,.0057-.0057.0113-.0113.0397-.034.0736-.0793.0906-.1303,0,0,.0057-.0057.0057-.0113v-.1303l-.3172-1.5576.4758.1303,1.2744,6.219-.4758-.1303-.3738-1.8351s-.0113-.0283-.017-.0397c-.0057-.017-.0113-.0397-.0227-.051-.0113-.017-.0227-.0283-.034-.0397-.0113-.0113-.0227-.0283-.0397-.034-.017-.0113-.034-.017-.051-.0283-.0113-.0057-.0227-.017-.0397-.017l-.742-.1982-.4531-2.2033.4701.1246v-.017l.0003.0003ZM615.0743,442.5659l-158.0813,91.2691-1.2801-6.253,158.0812-91.2691,1.2801,6.253h.0001ZM612.9447,435.8825l.3172.085-157.9057,91.1672-.3172-.085,157.9057-91.1672h0ZM611.8119,435.8825l-6.0548,3.4947h0s-.0113-.0283-.017-.0397c-.0057-.0227-.0113-.0397-.0227-.0566-.0113-.017-.0227-.0283-.034-.0397s-.017-.0227-.034-.034c0,0-.0057,0-.0113-.0057-.0113-.0113-.0283-.017-.0453-.0227s-.0283-.017-.0453-.0227l-.7476-.1982c-.034-.0113-.0736-.0113-.1133-.0057-.017,0-.0283.0113-.0453.017s-.0397.0113-.0566.017l-1.0365.5947c.6853-1.3367,1.0592-2.9679.7023-4.7068-.2435-1.1894-.7363-2.0277-1.4726-2.4921-.2209-.1416-.4588-.2322-.7023-.3002-.017-.0113-.0397-.0227-.0623-.0283l-.7533-.2039c-1.1158-.3002-2.3959.017-3.5287.2945-.5381.1303-1.0422.2549-1.4443.2832-.0283-.0453-.0566-.1076-.0736-.1926-.1982-.9629.6627-1.8521,1.2914-2.2146.4078-.2379.7533-.3625,1.0648-.3795.2039.1303.4191.3229.6457.5947,0,.0057.0113.0113.017.017.017.017.034.0283.0566.0453.017.0113.0283.017.0453.0227.0057,0,.0113.0113.0227.0113l.7533.2039s.051.0113.0736.0113c.0397,0,.0736-.0113.1133-.0283.0113,0,.0227-.0113.034-.017.0057,0,.0113-.0057.017-.0113,0,0,.0113,0,.0113-.0057h.0113c.0113-.0057.017-.017.0227-.0283.0057-.0057.017-.0113.0227-.017l1.9144-2.5318s0-.0113.0057-.017c.0113-.017.017-.034.0283-.051.0057-.017.0113-.034.017-.051v-.1019c0-.017-.0113-.034-.017-.051s-.017-.034-.0227-.051c0,0,0-.0113-.0057-.017-.5381-.7023-1.0931-1.1894-1.6822-1.484l8.1844-4.7237,2.9793,14.5451-.0057-.0227v.0003ZM610.4072,419.7741l-10.552,6.0888h0l-32.7151,18.8893h0l-53.2866,30.761h0l-61.5276,35.5244-1.2801-6.253,158.0813-91.2691,1.2801,6.253v.0057h0ZM608.2776,413.0907l.3172.085-157.9057,91.1672-.3172-.085,157.9057-91.1672ZM607.1505,413.085l-157.6508,91.0199-.0057.0057c-.017.0113-.034.0283-.0453.0397,0,0-.0113.0057-.0113.0113,0,0-.0113.0057-.0113.0113,0,0,0,.0057-.0057.0113-.0113.017-.017.0283-.0227.0453-.0057.0113-.017.0227-.017.0397h0v.1302l.2266,1.1158-.2549.1473-3.9138-19.1329.3002.0793.3738,1.8351s.017.0397.0227.0623c0,.0113.0057.017.0113.0283.017.0283.0397.0566.068.0793,0,0,.0113.0057.017.0113.0227.017.0453.0283.0736.034h.0113l1.0875.2945s.0453.0113.0736.0113h.0566c.0227,0,.0397-.017.0623-.0283.0057,0,.017,0,.0227-.0057l156.5633-90.3912,2.9793,14.5451h-.0113ZM440.9981,460.719v-.0113l-.3172-1.5576.4758.1303,1.2744,6.219-.4758-.1303-.3738-1.8351-.017-.034c-.0057-.0227-.0113-.0397-.0227-.0566-.0113-.017-.0227-.0283-.034-.0397-.0113-.017-.0227-.0283-.0397-.0397-.017-.0113-.034-.017-.051-.0227-.0113-.0057-.0283-.017-.0397-.0227l-.742-.1982-.4531-2.2089.4701.1246s.0453.0113.0736.0113h0c.017,0,.0397,0,.0566-.0057.0397-.0057.0793-.0283.1076-.051l.0113-.0113c.0397-.034.0736-.0793.0906-.1303,0,0,.0057-.0057.0057-.0113v-.1246.0057h.0003ZM441.0547,463.8228l.3738,1.8351s.017.0397.0227.0566c0,.0113.0057.0227.0113.0283.017.0283.0397.0566.068.0793,0,0,.0113.0057.017.0113.0227.017.0453.0283.0736.0397h.0113l1.0875.2945s.0453.0113.0736.0113h0c.017,0,.0397,0,.0566-.0057.0227,0,.0397-.017.0623-.0227.0057,0,.017,0,.0227-.0057l6.2077-3.5853,2.781,13.5878-.8496.4928-.0057.0057c-.017.0113-.0283.0227-.0397.034s-.0227.017-.034.0283c0,0,0,.0057-.0057.0113-.0113.017-.017.034-.0227.0453-.0057.017-.017.034-.0227.051v.1189l.1529.759-6.2587,3.6136-.0057.0057c-.017.0113-.034.0283-.0453.0397,0,0-.0113.0113-.017.0113,0,0-.0113.0057-.0113.0113,0,0,0,.0057-.0057.0113-.0113.017-.017.0283-.0227.0453-.0057.0113-.017.0227-.017.0397h0v.1302l.2266,1.1158-.2549.1473-3.9138-19.1329.3002.0793-.017.0114.0004.0002ZM461.3883,461.6025l-3.8798-3.8741,2.7583-1.5916,1.1215,5.4657h0ZM460.788,455.8366l.1189-.068,1.3763,6.7288-.1643-.1643-1.331-6.4909v-.0057h0ZM462.5495,463.5623s.0057,0,.0113.0057c.017.017.0397.0283.0623.0397.0113,0,.017.0113.0283.017.034.0113.068.017.1019.017h0c.017,0,.0397,0,.0566-.0057.0057,0,.017-.0057.0227-.0113.017,0,.034-.0113.051-.0227.017-.0113.034-.017.0453-.034.0057,0,.017-.0057.0227-.0113.0057-.0057.0113-.017.017-.0227.0113-.017.0227-.0283.034-.051.0057-.017.017-.034.0227-.051,0-.017.0057-.034.0113-.051v-.085l-1.6029-7.8333,2.0107-1.1611,2.9396,14.3582s.017.0397.0227.0623c0,.0057,0,.017.0057.0227h0c.017.0283.034.051.0623.068l-1.5802.9119s0-.0113-.0057-.0227c0-.017-.0113-.034-.017-.051v-.017h0c-.0057-.0113-.017-.017-.0227-.0283s-.0113-.0227-.017-.0283l-6.3266-6.304s-.017-.0113-.0227-.017c-.017-.0113-.034-.0227-.051-.034-.017-.0057-.0283-.017-.0453-.017s-.034-.0113-.0566-.0113h-.085c-.0113,0-.017.0057-.0227.0113-.017,0-.034.0113-.051.0227-.017.0113-.034.017-.0453.034-.0057,0-.017.0057-.0227.0113-.0057.0057-.0113.017-.017.0227-.0113.017-.0227.0283-.034.051-.0057.017-.017.034-.0227.051,0,.017-.0057.034-.0113.051v.085l1.8238,8.9038s.017.0397.0227.0623c0,.0057,0,.017.0057.0227h0c.017.0283.034.051.0623.068l-2.0673,1.1951h0l-2.9736-14.5451,2.124-1.2234,5.545,5.5394-.0113.0057v-.0003ZM476.1996,454.262c1.2234,5.9698.3285,8.3147-4.1573,10.9088-.1359.0793-.1813.2492-.1019.3851.017.0283.0453.0453.068.068l-3.0246,1.7445h0l-2.9736-14.5451,7.1139-4.1064c1.4386.1926,2.3052,1.7615,3.0812,5.545h-.0057ZM473.8207,448.3092l2.3109-1.331c-.3172.9969-.4871,2.107-.5098,3.2908-.4588-.9799-1.0308-1.6482-1.8011-1.9541v-.0057h0ZM557.4605,406.1353l-3.8798-3.8741,2.7583-1.5916,1.1215,5.4657h0ZM556.8545,400.3694l.1189-.068,1.3763,6.7288-.1643-.1643-1.331-6.4909v-.0057h.0001ZM558.616,408.0951s.0057,0,.0113.0057c.017.017.0397.0283.0623.0397.0113,0,.017.0113.0227.0113.034.0113.068.017.1019.017h0c.017,0,.0397,0,.0566-.0057.0113,0,.017-.0057.0227-.0113.017,0,.034-.0113.051-.0227.017-.0113.034-.017.0453-.034.0057,0,.017-.0057.0227-.0113.0057-.0057.0113-.017.017-.0227.0113-.017.0227-.0283.034-.051.0057-.017.017-.034.017-.0453,0-.017.0057-.034.0113-.051v-.085l-1.6029-7.8333,2.0107-1.1611,2.9396,14.3582s.017.0453.0283.068c0,.0057,0,.0113.0057.017h0c.017.0283.034.051.0623.068l-1.5803.9119s0-.017-.0057-.0227c0-.017-.0113-.034-.017-.051-.0113-.017-.0227-.034-.034-.051-.0057-.0113-.0113-.017-.017-.0283l-6.3267-6.304s-.0113-.0057-.017-.0113c-.017-.017-.034-.0283-.0566-.034-.017-.0057-.0283-.0113-.0453-.017-.017,0-.034-.0113-.0566-.0113h-.085c-.0057,0-.017.0057-.0227.0113-.017,0-.034.0113-.051.0227-.017.0113-.034.017-.0453.0283-.0057,0-.017.0057-.0227.017-.0057.0057-.0113.017-.017.0227-.0113.017-.0227.0283-.034.0453-.0057.017-.017.034-.0227.051,0,.017-.0057.034-.0113.051v.085l1.8238,8.9038s.017.0453.0283.068c0,.0057,0,.0113.0057.017h0c.017.0283.034.051.0623.068l-2.0673,1.1951h0l-2.9736-14.5451,2.124-1.2234,5.545,5.5394v.0113l.0002-.0002ZM561.6349,400.0749s.0453.0113.0736.0113h0c.017,0,.0397,0,.0566-.0057.0227,0,.0397-.017.0623-.0283.0057,0,.017,0,.0227-.0057l2.4921-1.4386,2.3109,11.2996-3.8515,2.2259-2.781-13.5879.3851-.2209.2719,1.3367s.017.0397.0227.0566c0,.0113.0057.0227.0113.0283.017.0283.0397.0566.068.0793,0,0,.0113.0057.017.0113.0227.017.0453.0283.0736.0397h.0113l.7533.2039v-.0057.0002ZM560.9212,398.0245l.1189-.068.3002,1.4556-.1416-.0397-.2775-1.348h0ZM571.4505,394.2863v-.0113l-.4248-2.09.8496-.4928c-.2492.9402-.2775,1.8918-.085,2.8376.3115,1.5123.9969,2.3902,2.1013,2.6847h0l.7533.2039s.051.0113.0736.0113h0c1.0365.2492,2.2316-.051,3.3134-.3285.5891-.1529,1.1555-.2945,1.5972-.3229.0906.0906.1586.2152.1926.3851h0c.2662,1.2914-.8213,2.4525-1.5689,2.883-.4531.2605-.8609.3965-1.2121.4078-.2719-.1813-.5098-.4758-.708-.8892l-.0057-.0057c-.0057-.0113-.017-.0227-.0227-.034,0-.0057-.0057-.017-.0113-.0227,0,0-.0113-.0057-.017-.0113-.0057-.0057-.0113-.0113-.017-.017-.0113-.0057-.0227-.0113-.034-.0227-.0113-.0113-.0283-.017-.0453-.0227-.0057,0-.0113-.0057-.0227-.0057h-.0113l-.7533-.2039h-.085c-.017,0-.0397,0-.0566.0057-.017,0-.034.0113-.0453.017-.017.0057-.034.017-.051.0283-.0057,0-.017.0057-.0227.0113l-2.2656,1.9824s-.0057.0113-.0113.0113c-.0057.0057-.0113.0113-.017.017-.0113.0113-.017.0227-.0227.034s-.017.0227-.0227.0397c0,.0057-.0057.017-.0113.0227,0,0,0,.0057-.0057.0113v.0963c0,.017,0,.0283.0057.0453,0,.0113.0057.0283.0113.0397v.017c0,.0057.0057.017.0113.0227h0c.691,1.4953,1.6142,2.4072,2.7414,2.7074h0l.5154.1359-5.7376,3.3134-2.3166-11.3166,3.2908-1.8974.0057-.0057c.017-.0113.034-.0283.0453-.0397s.0227-.0227.034-.034c.0113-.017.017-.034.0227-.051s.017-.034.0227-.051v-.1076l.0226.0113.0004.0004ZM572.5436,394.7394c.0793.3965.1926.7476.3229,1.0592-.2322-.3568-.4078-.8099-.5211-1.3707-.2152-1.0535-.1246-2.1127.2549-3.1492l.2889-.1643c-.4701,1.1724-.5947,2.4128-.3455,3.6249h0ZM575.0811,393.2725c.0397.1982.1303.3568.2492.4871.0283.068.085.1189.1529.1473.017.0113.0227.0283.0453.0397.5551.3512,1.467.1246,2.5205-.1303,1.3197-.3229,2.815-.691,3.8515-.034.606.3851,1.0025,1.0761,1.2177,2.124.5437,2.6507-.7646,5.0409-2.1636,6.389,0,0-.0057.0113-.0113.017-.0113.017-.0227.0283-.034.0453s-.017.0283-.0227.0453-.0113.034-.0113.051v.0566c0,.017,0,.034.0113.051,0,.017.0113.0397.017.0566,0,.0057,0,.0113.0057.0227,0,.0057.0113.0113.017.017.0113.0113.0113.0283.0227.0397.0057.0057.017.0113.0227.017l-2.5375,1.467h0c0-.0113-.0113-.0227-.017-.0397,0-.0113,0-.0227-.0113-.034,0,0-.0057-.0057-.0113-.0113-.0113-.017-.0227-.034-.0397-.0453-.0113-.0113-.0227-.0227-.0397-.034s-.034-.017-.0453-.0227c-.017-.0057-.034-.017-.051-.017h-.1303c-1.6992.4248-2.9736-.3115-3.9081-2.2146l1.8351-1.6086c.2322.3795.5041.6683.8156.8496.017.0113.034.017.0566.0283.1019.051.1982.1076.3059.1416.1699.051.3512.0793.5381.0793.4701,0,.9912-.1643,1.5576-.4928,1.1101-.64,2.1297-2.0787,1.8408-3.489-.0793-.3851-.2605-.6683-.5381-.8439-.6287-.3908-1.5859-.1416-2.7017.1416-1.2574.3229-2.6791.691-3.6419.085-.5664-.3568-.9459-1.0138-1.1498-2.022-.2775-1.348-.051-2.73.6457-4.0044l5.6753-3.2794c.606.1926,1.1781.623,1.7388,1.3084l-1.5746,2.0843c-.4701-.4758-.9402-.7193-1.4556-.7306-.0283-.0057-.0566-.0057-.0906,0-.4248.0057-.8779.1586-1.399.4531-.6627.3851-1.8408,1.467-1.5633,2.8207l.0056-.0113v-.0003ZM573.6538,401.3549l1.7502-1.5349.0963.0227-1.7502,1.5349-.0963-.0227ZM573.6651,402.0233c-.017-.034-.0397-.0623-.0566-.0963h.0113c.017.034.0283.0623.0453.0963h0ZM580.3826,397.0617h0c-.0057-.034-.017-.068-.0283-.1019.1076.0906.1869.2209.2266.4191.2662,1.2914-.8213,2.4525-1.5689,2.883-.051.0283-.1019.051-.1529.0793.9742-.708,1.7841-2.005,1.5236-3.2794h-.0001ZM567.5707,396.0875l-.0057.0057c-.017.0113-.034.0283-.0453.0397s-.0227.0227-.034.034c-.0113.017-.017.034-.0227.051s-.017.034-.0227.051v.1189l2.5488,12.4664s.017.0453.0283.068c0,.0057,0,.0113.0057.017h0c.0113.0227.034.0453.051.0623l-2.0673,1.1951h0l-2.5488-12.4551s-.0113-.0283-.0227-.0453c0-.0113-.0057-.0283-.0113-.0397l-.0057-.0057c-.0113-.0227-.0283-.034-.0453-.051-.0113-.0113-.017-.0227-.0283-.0283-.017-.0113-.034-.017-.051-.0283-.017-.0057-.0283-.017-.0453-.017h-.1189c-.017,0-.0283.0113-.0397.017-.017,0-.0283.0057-.0453.017l-3.1265,1.8068-.3512-1.7049,8.9491-5.1655.3455,1.7049-3.2908,1.8974v-.0113h0ZM567.3498,409.8622l-.1416-.0397-2.3562-11.5148.1189-.068,2.3789,11.6225ZM559.4655,414.0592l-3.2058,1.8521-1.2971-6.3436,4.5085,4.4915h-.0057.0001ZM553.2805,417.9843l-.1416-.0397-2.8263-13.8031.1189-.068,2.8433,13.9107h.0057ZM552.5782,418.0353l-.1529.0906-6.9384-11.192,4.3103-2.4865,2.781,13.5879h0ZM552.3799,419.1228s.0397.0397.0623.0623l-2.2826,1.3197c-.0057-.034-.017-.0623-.034-.0906h0l-1.9201-3.2681s-.0227-.0283-.034-.0397c-.0113-.017-.0227-.034-.0397-.0453,0,0-.0113,0-.017-.0113-.0227-.017-.051-.0283-.0793-.0397h-.0397c-.0227,0-.0453-.0057-.068,0-.017,0-.0397.0113-.0566.017s-.034.0057-.0453.017l-4.0044,2.3109s-.017.017-.0227.0227c-.0113.0113-.0227.017-.034.0283-.017.017-.0283.0283-.0397.051-.0057.0113-.017.0283-.0227.0453s-.0113.0397-.017.0566c0,.0113-.0057.017-.0057.0227l-.3172,4.5595v.0283c0,.017,0,.034.0057.0566,0,.017.0113.0397.017.0566,0,.0057,0,.017.0057.0227,0,.0057.0113.0057.0113.0113.017.0227.034.0397.051.0566l-2.2656,1.3084,1.4443-17.0995,2.3619-1.365,7.3801,11.9057h.0059ZM548.7437,420.2499l-4.7351,2.7357.2209-3.2171,3.1548-1.8238,1.3537,2.3052h.0057ZM540.6499,425.3758l-.1982-.051,1.3763-16.2782.2096-.1246-1.3877,16.4538h0ZM539.9135,425.0303l-.3795-1.8464s-.0113-.0227-.017-.0397c-.0057-.017-.0113-.0397-.0227-.0566-.0113-.017-.0227-.0283-.0397-.0453-.0113-.0113-.017-.0227-.0283-.0283h-.0113c-.017-.0113-.034-.017-.051-.0227-.0113-.0057-.0227-.017-.0397-.017l-.7476-.1982c-.034-.0113-.0736-.0113-.1133-.0057-.0397,0-.0736.017-.1076.034l-4.2536,2.4582-2.1523-10.5067,9.2776-5.3581-1.3197,15.6439.0057-.0113h0ZM533.7455,426.3217s.017.0453.0283.068c0,.0057,0,.0113.0057.017h0c.0227.0397.0566.068.0906.0906.0113,0,.017.0113.0283.017.0397.017.0793.034.1246.034h0c.017,0,.0397,0,.0566-.0057.0227,0,.0397-.017.0623-.0283.0057,0,.017,0,.0227-.0057l4.8937-2.8263.5494,2.696s.017.0453.0283.068c0,.0057,0,.0113.0057.017h0c.017.0283.034.051.0623.0736l-7.2669,4.197h0l-2.9736-14.5451,1.9767-1.1441,2.3052,11.277h.0002ZM531.7858,430.3941l-.1416-.0397-2.8263-13.8031.1189-.068,2.8433,13.9107h.0057ZM531.0834,430.4451l-7.4141,4.282-1.0082-4.9333,2.2089-1.2744c2.8943-1.6709,3.9704-4.1064,3.2851-7.4481-.3229-1.5746-.9572-2.5884-1.8804-3.0415l2.0277-1.1724,2.781,13.5879h0v-.0002ZM527.6001,421.1845c.6287,3.0699-.3568,5.3071-3.0132,6.8421l-2.3845,1.3763-.0057.0057c-.017.0113-.034.0283-.0453.0397s-.0227.0227-.034.034c-.0113.017-.017.034-.0227.051s-.017.034-.0227.051v.1189l1.2461,6.0888s.017.0453.0283.068c0,.0057,0,.0113.0057.017h0c.017.0283.034.051.0623.068l-2.0673,1.1951h0l-2.9736-14.5451,7.2839-4.2083c.9685.2549,1.6256,1.1894,1.9541,2.7923l-.0113.0057v-.0002ZM520.6901,436.8l-.1416-.0397-2.8263-13.8031.1189-.068,2.8433,13.9107h.0057ZM519.9877,436.851l-.8496.4928-.0057.0057c-.017.0113-.0283.0227-.0397.034-.0113.0113-.0227.017-.034.0283v.0113c-.0113.017-.017.034-.0227.051,0,.0057-.0057.017-.0113.0227,0,.0057-.0057.0113-.0113.017v.1359l.1529.759-6.0548,3.4947h0s-.0113-.0283-.017-.0397c-.0057-.0227-.0113-.0397-.0227-.0566l-.034-.034c-.0113-.0113-.0227-.0283-.034-.0397,0,0-.0057,0-.0113-.0057-.0113-.0113-.0283-.0113-.0397-.0227-.017-.0057-.0283-.017-.0453-.0227l-.7533-.2039h0c-.068-.017-.1473-.0113-.2152.0283l-.4928.2832-3.5683-3.557h0c-.1303-.1246-.2945-.2775-.4531-.4021,1.2347-1.5293,1.7785-3.6872,1.3877-5.6017-.3738-1.8125-1.1611-2.6337-1.9201-2.9906l10.3311-5.9642,2.781,13.5879-.017-.0113.0002.0002ZM519.7951,438.0348l-.1189.068-.0227-.1246.1416.0397v.017h0ZM508.2407,432.3312c.3795,1.8521-.1926,3.9591-1.4556,5.3638-.0113.0113-.0113.0227-.017.034s-.017.017-.0227.0283v.017c-.0057.017-.0113.0397-.017.0566,0,.017-.0057.034-.0057.051s0,.034.0057.0566c0,.017.0057.034.0113.051.0057.017.017.034.0283.0453.0113.017.0227.034.034.0453,0,0,.0057.0113.0113.017.0113.0113.0283.017.0397.0227.0113.0057.017.017.0283.0227.1586.0793.4305.3342.5947.4928h0l4.1234,4.1177s.0113.0057.017.0113l-2.4808,1.433s0-.0113-.0057-.017c0-.017-.0113-.034-.017-.051s-.017-.034-.0283-.051c-.0057-.0057-.0113-.017-.017-.0283l-3.5513-3.8119h0c-.4531-.5041-.7703-.7476-1.3084-.5947-.034,0-.0623.017-.0906.0283-.1359.0453-.2832.1133-.4531.2096l-.6174.3568-.0057.0057c-.017.0113-.034.0283-.0453.0397l-.034.034c-.0113.017-.017.034-.0227.051s-.017.034-.0227.051v.1189l1.2857,6.2927s.017.0453.0283.068c0,.0057,0,.0113.0057.017h0c.017.0283.034.051.0623.068l-2.0673,1.1951h0l-2.9736-14.5451,6.9837-4.0327c1.0082.2435,1.6879,1.1554,2.0107,2.73h-.0113v-.0002ZM507.6573,443.9706l-3.0982,1.7898-1.0535-5.1372.4418-.2549c.0906-.051.1643-.0906.2322-.1246.0566.0566.1019.1019.1643.1756h0l3.3078,3.5513h.0057-.0001ZM501.5742,447.8391l-.1416-.0397-2.8263-13.8031.1189-.068,2.8433,13.9107h.0057ZM500.8775,447.8844l-2.6167,1.5123c1.0648-2.1466,1.3254-4.9503.691-8.0598-.6004-2.9283-1.7615-4.888-3.3078-5.6243l2.4525-1.416,2.781,13.5878h0ZM498.391,441.4501c.3512,1.7105.8439,5.63-1.1215,8.5413,0,.0057-.0057.0113-.0113.0227-.2889.4248-.6344.8326-1.0365,1.2064l-.017.017c-.0113.017-.0227.0283-.034.0453s-.017.0283-.0227.0453-.0113.034-.0113.051v.051c0,.017,0,.034.0057.051,0,.017.0113.034.017.051,0,.0057,0,.017.0057.0227,0,.0057.0113.0113.017.017.0057.0113.0113.0227.0227.034.0057.0113.017.0113.0283.0227l-2.1636,1.2461h0v-.0227c0-.0113-.0113-.0227-.017-.034,0-.0113,0-.0227-.0113-.034,0-.0057-.0113-.0113-.0113-.017-.0113-.017-.0227-.0283-.034-.0397-.0113-.0113-.0283-.0283-.0453-.0397-.0113-.0057-.0283-.0113-.0397-.0227-.017-.0057-.0397-.017-.0566-.0227h-.1246c-.8836.2379-1.6879.1416-2.3902-.2889-1.2347-.759-2.1976-2.5601-2.7074-5.0749-.6287-3.0812-.3455-5.9132.7986-7.9919l5.596-3.2285c1.5689.4701,2.7697,2.3732,3.3814,5.3751l-.017.017-.0002.0002ZM488.0656,447.4086c.2039.9855.5267,2.124,1.0308,3.1492-.5211-.8892-.9402-2.056-1.2291-3.4607-.5381-2.6337-.4021-5.1599.3851-7.1196l.2889-.1643c-.8836,2.0957-1.0592,4.7521-.4758,7.601v-.0057h0ZM487.7881,448.9945c.7533,2.2373,1.9257,3.6589,3.3927,4.0497l.5154.1359-4.786,2.764c.9402-1.8861,1.2461-4.2876.8779-6.9553v.0057h0ZM487.1254,446.1003c-.6514-1.9427-1.6256-3.2624-2.832-3.8345l3.2001-1.8465c-.5211,1.6595-.6514,3.6193-.3682,5.6866v-.0057h0ZM487.0461,447.9977c.3512,1.7105.8439,5.63-1.1215,8.5413,0,.0057-.0057.0113-.0113.0227-.2889.4248-.6344.8326-1.0365,1.2064l-.017.017c-.0113.017-.0227.0283-.034.0453s-.017.0283-.0227.0453-.0113.034-.0113.051v.051c0,.017,0,.034.0057.051,0,.017.0113.034.017.051,0,.0057,0,.017.0057.0227,0,.0057.0113.0113.017.017.0057.0113.0113.0227.0227.034.0057.0113.017.0113.0283.0227l-2.1806,1.2574h0v-.0227c0-.0113-.0113-.0227-.017-.034,0-.0113,0-.0227-.0113-.034,0-.0057-.0113-.0113-.017-.017-.0113-.017-.0227-.0283-.034-.0397-.017-.017-.0283-.0283-.0453-.0397-.0113-.0057-.0227-.0113-.034-.017-.0227-.0113-.0397-.017-.0623-.0227h-.1189c-.8836.2379-1.6822.1416-2.3902-.2889-1.2347-.759-2.1976-2.5601-2.7074-5.0749-.6287-3.0812-.3455-5.9132.793-7.9918l5.613-3.2398c1.5689.4701,2.7697,2.3732,3.3814,5.3751l-.0113.0114h-.0003ZM477.2248,457.3546c.6967,1.2064,1.5746,1.9767,2.5941,2.2543l.5154.1359-3.9421,2.2769c.7137-1.2687.9629-2.747.8326-4.6671h0ZM476.8396,454.5849c.1926.7873.4588,1.6312.8326,2.4185-.2775-.4984-.5041-1.0195-.6683-1.5009h0c-.0453-.2945-.1019-.6004-.1643-.9119v-.0057ZM476.6301,453.554c-.1189-.5381-.2435-1.0365-.3738-1.5009-.2096-2.056.0057-3.9535.6287-5.511l.2889-.1643c-.8439,1.9937-1.0252,4.4915-.5437,7.1763h0ZM468.338,467.0286l-.1416-.0397-2.8263-13.8031.1189-.068,2.849,13.9107h0ZM467.6357,467.0739l-.9062.5211-2.781-13.5878.9062-.5211,2.781,13.5878ZM463.399,469.5208l-3.2058,1.8521-1.297-6.3436,4.5085,4.4915h-.0057ZM457.214,473.4515l-.1416-.0397-2.8263-13.8031.1189-.068,2.849,13.9107h0ZM456.5117,473.4969l-.9062.5211-2.781-13.5878.9062-.5211,2.781,13.5878ZM455.2486,475.0884s.017.0397.0227.0623c0,.0057,0,.017.0057.0227h0c.017.0283.034.051.0566.068l-2.0673,1.1951h0l-2.9736-14.5451,2.0107-1.1611,2.9396,14.3582h.0057-.0002ZM452.6262,476.0966l-.1416-.0397-2.8263-13.8031.1189-.068,2.849,13.9107h0ZM451.7313,477.3314l-.1189.068-.0227-.1246.1416.0397v.017h0ZM445.314,483.8393s.0453.0113.0736.0113h.0566c.0397-.0113.0793-.0283.1076-.051l.0113-.0113c.0397-.034.068-.0793.085-.1303,0,0,.0057-.0057.0057-.0113v-.1359l-.3172-1.5576.4758.1303,1.2744,6.219-.4758-.1303-.3738-1.8351s-.0113-.0227-.017-.0397-.0113-.0397-.0227-.0566c-.0113-.017-.0227-.0283-.034-.0397-.0113-.0113-.0227-.0283-.0397-.0397-.017-.0113-.034-.017-.051-.0283-.0113,0-.0227-.017-.0397-.017l-.742-.1982-.4531-2.2033.4701.1246h.0059ZM605.7458,396.9767l-158.0813,91.2691-1.2801-6.253,158.0813-91.2691,1.2801,6.253h0ZM603.6162,390.2932l.3172.085-157.9057,91.1672-.3172-.085,157.9057-91.1672ZM602.4834,390.2932l-17.3261,10.0026h0s-.0113-.0283-.017-.0397c-.0057-.0227-.0113-.0397-.0283-.0623-.0057-.0113-.017-.0227-.0283-.034s-.0227-.0283-.0397-.0397c0,0-.0057,0-.0113-.0057-.0113-.0057-.0283-.0113-.0397-.017-.0057,0-.017-.0057-.0227-.0113-.0113,0-.017-.0113-.0227-.0113l-.7533-.2039h0c-.034-.0113-.0736-.0113-.1133-.0057-.034,0-.068.017-.0963.034h0l-1.0139.5834c.6797-1.3367,1.0478-2.9566.6967-4.6898-.2435-1.1894-.7363-2.0277-1.4726-2.4921-.2209-.1416-.4588-.2322-.708-.3002-.017-.0113-.034-.0227-.0566-.0283l-.7533-.2039c-1.1158-.3002-2.3959.017-3.5287.2945-.5381.1303-1.0422.2549-1.4443.2832-.0283-.0453-.0566-.1076-.0736-.1926-.1982-.9629.6627-1.8521,1.2914-2.2146.4078-.2379.7533-.3625,1.0648-.3795.2039.1303.4191.3229.6457.5947,0,.0057.0113.0113.017.017.017.017.034.034.0566.0453.017.0057.0283.017.0453.0227.0057,0,.0113.0113.0227.0113l.7533.2039s.051.0113.0736.0113c.0397,0,.0736-.0113.1133-.0283.0113,0,.0227-.0113.034-.017,0,0,.0113-.0057.017-.0113,0,0,.0113,0,.017-.0057h.0113c.0113-.0057.017-.017.0227-.0283.0057-.0057.017-.0113.0227-.017l1.9144-2.5318s0-.0113.0057-.017c.0113-.017.017-.034.0283-.051.0057-.017.0113-.034.017-.051v-.1019c0-.017-.0113-.034-.017-.051s-.017-.034-.0283-.051c0,0,0-.0113-.0057-.017-.5437-.708-1.0988-1.2008-1.6992-1.4896l19.4557-11.2316,2.9793,14.5451-.0057-.017ZM601.0787,374.1849l-75.6083,43.6522h0l-19.4161,11.209h0l-63.0626,36.408-1.2801-6.253,158.0813-91.2691,1.2801,6.253h.0057ZM598.949,367.5014l.3172.085-157.9057,91.1672-.3172-.085,157.9057-91.1672ZM597.8162,367.4958l-157.6508,91.0199-.0057.0057c-.017.0113-.0283.0227-.0453.0397-.0113.0113-.0227.017-.0283.0283,0,0,0,.0057-.0057.0113-.0113.017-.017.034-.0227.0453-.0057.017-.017.034-.0227.051v.1189l.2266,1.1158-.2549.1473-13.8201-67.5258,158.0812-91.2634,13.5482,66.2117v-.0057h.0002ZM581.0283,300.2192l2.7074.725-157.9057,91.1672-2.7074-.725,10.2235-5.9018,25.233-14.5677h0l86.5057-49.9448h0l25.233-14.5677h0l10.7106-6.185h0v-.0002ZM432.3945,380.891c-.1926-.1529-.3851-.2549-.5777-.3342l24.3834-14.075c.2549-.1473.6683-.0396,1.0705.2889.7533.6004,1.2687,1.7615,1.1271,2.5318l-.2209,1.1951-24.5873,14.1939.1303-.7193c.1813-.9855-.4021-2.3336-1.331-3.0812h.0057-.0001ZM432.0433,381.3328c.7533.6004,1.2687,1.7615,1.1271,2.5318l-.2209,1.1951-.0566.034-.0397-.2039.0283-.1416v-.0453c0-.0113,0-.0227-.0057-.034,0-.017,0-.0397-.0113-.0566,0-.017-.0113-.034-.0227-.051-.0113-.017-.017-.0283-.0283-.0453s-.0227-.0283-.0397-.0397c-.0113-.0113-.0283-.0227-.0453-.0283-.017-.0113-.034-.017-.051-.0227-.0113,0-.0227-.0113-.034-.0113h-.0453c-.2379-.0057-.5154-.1303-.793-.3512-.102-.085-.2039-.1813-.2945-.2832-.085-.0906-.1643-.1926-.2379-.2945-.034-.0453-.0623-.0963-.0963-.1473-.0453-.068-.0906-.1359-.1303-.2096-.034-.0566-.0623-.1189-.0906-.1756-.034-.068-.0623-.1416-.0906-.2152-.0227-.0566-.0453-.1133-.0623-.1699-.0283-.0906-.0566-.1869-.0736-.2775-.0623-.2719-.085-.5324-.0396-.759.034-.1869.1246-.4305.3568-.5211.2605-.0963.6344.0227,1.0025.3172l-.0057.0057h.0002ZM432.3719,385.3882l-1.2178.7023.4078-1.5123c.2379.1756.4814.3002.725.3568v.0113h0l.0906.4361-.0057.0057h0ZM430.9615,384.0119c.034.0397.068.0793.102.1189l.0113.068-.6174,2.2996-.1926.1133.6967-2.5941v-.0057h0ZM544.1389,316.3785c-.1926-.1529-.3851-.2549-.5777-.3342l24.3834-14.075c.2549-.1473.6683-.0396,1.0705.2889.7533.6004,1.2687,1.7615,1.1271,2.5318l-.2209,1.1951-24.5873,14.1939.1359-.7193c.1813-.9855-.4021-2.3336-1.331-3.0812h0ZM543.782,316.8203c.7533.606,1.2687,1.7615,1.1271,2.5318l-.2209,1.1951-.0566.034-.0397-.2039.0283-.1359v-.0453c0-.0113,0-.0227-.0057-.034,0-.017,0-.034-.0113-.0566,0-.017-.0113-.034-.0227-.051-.0057-.017-.017-.0283-.0283-.0453s-.0227-.0283-.0397-.0396c-.0113-.0113-.0283-.0227-.0453-.0283-.017-.0113-.034-.017-.051-.0227-.0113,0-.017-.0113-.0283-.0113h-.0453c-.2379-.0057-.5154-.1303-.793-.3512-.1133-.0906-.2152-.1926-.3115-.3002-.0793-.085-.1529-.1756-.2209-.2719l-.1019-.1529c-.0453-.068-.085-.1359-.1246-.2039-.034-.0566-.0623-.1189-.0906-.1756-.034-.0736-.068-.1416-.0963-.2152-.0227-.0566-.0453-.1076-.0623-.1643-.034-.0963-.0623-.1982-.0793-.2945-.0566-.2662-.0793-.5211-.0397-.7476.034-.1869.1246-.4305.3568-.5211.2549-.0963.6344.0227,1.0025.3172v-.0059ZM544.1105,320.8757l-1.2177.7023.4078-1.5123c.2379.1756.4814.3002.7193.3568v.0113l.0906.4418h0ZM542.7002,319.4937l.1019.1189.0113.068-.6174,2.2996-.1926.1133.6967-2.5941v-.0057h0ZM541.3125,322.4899l-82.49,47.6226.1303-.7193c.0793-.4361,0-.9515-.1813-1.4443l83.2319-48.0531-.6967,2.5941h.0058ZM577.358,301.6805l-6.7968,3.9251.1303-.7193c.0793-.4361,0-.9515-.1813-1.4443l7.5387-4.3499-.6967,2.5941.0057-.0057h.0001ZM574.9848,295.7616l3.0359,2.6904-7.7426,4.4689c-.2322-.4248-.5437-.8156-.9119-1.1158-.6004-.4814-1.2404-.606-1.7105-.3342l-25.233,14.5677s-.0227.0227-.034.0283c-.2719.1699-.4588.4588-.5267.8439-.051.2662-.0397.5664.017.8666v.017l.2605,1.3707-83.6001,48.2683c-.2322-.4248-.5437-.8156-.9119-1.1101-.6004-.4814-1.2404-.606-1.7105-.3342l-25.233,14.5677s-.0227.0227-.034.0283c-.2719.1699-.4588.4588-.5267.8439-.051.2662-.0396.5664.017.8666v.017l.2605,1.3707-10.4613,6.0378-3.0359-2.6904,158.0813-91.2691h-.0001ZM363.7756,598.4553l-3.0076-2.6677,55.8127-208.2923,3.0076,2.6677-55.8127,208.2923h0ZM401.4409,556.389s-.0113.0113-.017.0113c-.017.0113-.0283.0227-.0453.0397-.0113.0113-.0227.0283-.034.0397,0,.0057-.0113.0113-.017.017l-15.6779,29.5999-21.2739,12.2795,55.7731-208.1224,10.1215-5.8452-.6967,2.5941-7.3235,4.231-.0057.0057c-.017.0113-.0283.0227-.0453.0397-.0113.0113-.0227.017-.0283.0283,0,0,0,.0057-.0057.0113-.0113.017-.017.034-.0227.0453-.0057.017-.017.034-.0227.051v.1189l27.9857,136.7564-48.6591,28.0933-.0057.0057h.0002ZM478.6068,664.7916l-55.8467-272.9181,2.8716.7703,14.1146,68.9814.3625,1.7841h0l4.0837,19.9655h0l.5381,2.6394,4.4519,21.7553.2492,1.2234h0l4.0837,19.9655h0l.5777,2.8263h0l4.0837,19.9655h0l.5777,2.8263h0l4.0837,19.9655h0l.5777,2.8263h0l4.0837,19.9655h0l.3342,1.6199,13.6275,66.5856-2.8716-.7703.017.0227h0ZM615.2103,585.8699l-14.2109-24.0718,1.6935-.9799,15.2191,25.771-2.7017-.725v.0057ZM618.6087,586.6629l-15.5702-26.3714s-.0227-.0227-.034-.0397-.0227-.034-.0397-.0453c-.0113-.0057-.0227-.0113-.0283-.017-.0227-.0113-.0453-.0283-.068-.034h-.034c-.0227,0-.051-.0057-.0736,0-.0227,0-.0453.0113-.0623.0227-.0113,0-.0283.0057-.0397.0113h0l-2.1863,1.2631h0l-94.1691,54.3684s-.017.017-.0283.0226c-.0057,0-.0113.0113-.017.017-.0227.017-.0397.0397-.051.0623l-.017.034c-.0113.0226-.017.0397-.017.0623,0,.0057-.0057.017-.0057.0226l-2.6451,37.065-21.4664,12.3928-13.299-64.9997.3002.0793.3738,1.8351s.017.0397.0227.0623c0,.0113.0057.017.0113.0283.017.0283.0397.0566.068.0793,0,0,.0113.0057.017.0113.0227.017.0453.0283.0736.034h.0113l1.0875.2945s.0453.0113.0736.0113h.0566c.0227,0,.0397-.017.0623-.0283.0057,0,.017,0,.0227-.0057l156.569-90.3912,12.6306,61.7259-21.5174,12.4211-.0114.0056h.0002ZM486.7856,545.214c-.5664-.2549-1.2347.0566-1.7502.3568l-2.2089,1.2744-.0057.0057c-.017.0113-.034.0283-.0453.0397l-.034.034c-.0113.017-.017.0283-.0227.0453s-.017.034-.0227.051v.1189l.708,3.4607s.017.0397.0227.0623c0,.0057,0,.017.0057.0227h0c.0227.0397.0566.068.0906.0906.0113,0,.017.0113.0283.017.0397.017.0793.034.1246.034h.0566c.0227,0,.0397-.017.0623-.0283.0057,0,.017,0,.0227-.0057l2.2089-1.2744c1.0082-.5834,1.8974-1.3593,1.5463-3.0642-.1359-.657-.3908-1.0648-.7873-1.2404h0ZM484.9901,548.8276l-1.2291.7137-.4701-2.3109,2.0277-1.1724c.2775-.1586.5154-.2662.7137-.3229.1019.1473.1813.3568.2322.6287.2605,1.2857-.2945,1.8918-1.2744,2.4582h0v.0057h0ZM485.7377,549.0258l-.0793.0453c.8326-.5607,1.4613-1.3424,1.1611-2.8263-.034-.1529-.0736-.2889-.1189-.4135.1359.1416.2435.3851.3172.7307.2605,1.2857-.2945,1.8918-1.2744,2.4638h-.0057,0ZM576.01,441.9769c-1.8804,1.0875-2.4582,3.2568-1.7672,6.6382.4021,1.9654.9742,3.1265,1.7728,3.6249.0283.0283.068.0453.1076.0623.0397.0227.0736.051.1189.068.2266.1019.4644.1529.7137.1529.4078,0,.8496-.1359,1.314-.4021,1.8804-1.0875,2.4582-3.2568,1.7672-6.6382-.4418-2.1523-1.0705-3.3474-1.9881-3.7609-.5947-.2662-1.2744-.1813-2.0334.2549h-.0057.0001ZM576.2989,451.7472c-.6344-.4191-1.1385-1.5066-1.4953-3.2455-.6344-3.1152-.1473-5.0862,1.4953-6.0321.3512-.2039.6683-.3002.9572-.3172.6344.4248,1.1158,1.484,1.4783,3.2455.6344,3.1152.1473,5.0862-1.4953,6.0321-.3398.1982-.6514.3002-.9346.3229l-.0057-.0057h0ZM579.482,445.5962c.6344,3.1152.1473,5.0862-1.4953,6.0321-.068.0397-.1303.0623-.1982.0963,1.6482-1.1385,2.1466-3.2398,1.4896-6.4456-.1982-.9685-.4361-1.7332-.7193-2.3279.3682.5721.6683,1.4443.9119,2.6451h.0113,0ZM578.2869,517.6814c-.2322-.1019-.4701-.1359-.708-.1133-.0113,0-.0227,0-.034.0057-.2152.0283-.4305.1019-.6514.2266-1.9767,1.1441-1.6142,4.5425-1.2177,6.4626.2379,1.1781.7873,3.1548,1.8181,3.8741h0c.085.0566.1699.1133.2605.1529.1869.085.3795.1246.5777.1246.2775,0,.5664-.085.8609-.2549,1.8295-1.0592,1.6425-4.0667,1.1668-6.4059-.3229-1.5859-.9459-3.5796-2.0787-4.0837l.0057.0113h.0001ZM578.168,527.4801h0c-.1416.0793-.2775.1303-.4078.1529-.6117-.4814-1.1724-1.7445-1.5293-3.4777-.2945-1.4273-.7816-4.8597.9459-5.8622.1246-.0736.2435-.1133.3625-.1416.606.4814,1.1555,1.7502,1.5179,3.5287.3625,1.7672.725,4.8653-.8892,5.7999h0ZM578.9156,527.684c-.051.0283-.1019.051-.1586.0736,1.4953-1.2064,1.3027-3.9931.8553-6.1907-.1756-.8439-.4418-1.8351-.8326-2.6394.4078.6457.7646,1.6595,1.0308,2.9566.3625,1.7672.725,4.8653-.8949,5.7999h0ZM486.9272,570.4299c-.2322-.1019-.4701-.1359-.7137-.1133-.0113,0-.0227,0-.034.0057-.2152.0283-.4305.1019-.6514.2266-1.9767,1.1441-1.6142,4.5425-1.2177,6.4626.2379,1.1724.7873,3.1548,1.8181,3.8741h0c.085.0566.1699.1133.2605.1529.1869.085.3795.1246.5777.1246.2775,0,.5664-.085.8609-.2549,1.8295-1.0592,1.6425-4.0667,1.1668-6.4059-.3229-1.5859-.9459-3.5796-2.073-4.0837l.0056.0113h.0002ZM486.8026,580.2286c-.1416.0793-.2775.1246-.4078.1529-.6117-.4814-1.1724-1.7445-1.5293-3.4777-.2945-1.4273-.7873-4.8597.9459-5.8622.1246-.0736.2492-.1133.3625-.1416.6004.4814,1.1498,1.7502,1.5179,3.5287.3625,1.7672.725,4.8653-.8949,5.7999h.0057ZM487.5559,580.4325c-.051.0283-.1019.051-.1529.0736,1.4896-1.2064,1.297-3.9931.8496-6.1907-.1756-.8496-.4418-1.8351-.8326-2.6394.4078.6457.7646,1.6595,1.0308,2.9566.3625,1.7672.725,4.8653-.8949,5.7999h0ZM542.3717,537.8791h0c-1.8804,1.0875-2.4525,3.2568-1.7615,6.6382.3965,1.9314.9799,3.1152,1.7672,3.6193.0283.034.068.051.1133.068.0397.0227.0736.051.1133.068.2266.1019.4644.1529.7137.1529.4078,0,.8439-.1359,1.3084-.4021,1.8804-1.0875,2.4582-3.2568,1.7672-6.6382-.4418-2.158-1.0761-3.3531-1.9937-3.7665-.5947-.2662-1.2744-.1756-2.0277.2605h-.0002ZM542.6662,547.6438c-.64-.4191-1.1441-1.5066-1.4953-3.2455-.6344-3.1095-.1473-5.0862,1.4953-6.0321h0c.3512-.2039.6627-.3059.9515-.3229.6344.4248,1.1215,1.484,1.4783,3.2455.6344,3.1152.1473,5.0862-1.4953,6.0321-.3398.1982-.6514.3002-.9346.3172v.0057h.0001ZM545.8437,541.4927c.6344,3.1152.1473,5.0862-1.4953,6.0321-.068.0397-.1303.0623-.1982.0963,1.6539-1.1385,2.1523-3.2398,1.4953-6.4456-.1926-.9402-.4248-1.6935-.6967-2.2826.3568.5777.657,1.4443.8949,2.5998h0ZM524.8304,421.2921c-.5664-.2549-1.2347.0566-1.7502.3512l-2.2089,1.2744-.0057.0057c-.017.0113-.034.0283-.0453.0397s-.0227.0227-.034.034c-.0113.017-.017.034-.0227.051s-.017.034-.0227.051v.1189l.708,3.4607s.017.0453.0283.068c0,.0057,0,.0113.0057.017h0c.0227.0397.0566.068.0906.0906.0113,0,.017.0113.0227.017.0397.017.0793.034.1246.034h0c.017,0,.0397,0,.0566-.0057.0227,0,.0397-.017.0623-.0283.0057,0,.017,0,.0227-.0057l2.2089-1.2744h0c1.0082-.5834,1.8974-1.3593,1.5463-3.0642-.1359-.657-.3908-1.0648-.7873-1.2404v.0057-.0002ZM521.8059,425.6194l-.4701-2.3052,2.0277-1.1724c.2775-.1586.5154-.2662.7137-.3229.1019.1473.1813.3568.2322.6287.2605,1.2857-.2945,1.8974-1.2744,2.4638l-1.2291.7137v-.0057h0ZM523.7882,425.1096h0l-.0793.0453c.8326-.5607,1.4613-1.3424,1.1555-2.8207-.034-.1529-.0736-.2889-.1189-.4135.1359.1416.2435.3851.3115.7306.2605,1.2857-.2945,1.8918-1.2744,2.4638l.0057-.0057v.0002ZM514.7542,554.3669c-.2322-.1019-.4701-.1359-.7137-.1133h-.0227c-.2152.0283-.4361.1019-.657.2266-1.9767,1.1441-1.6142,4.5425-1.2177,6.4626.2379,1.1724.7873,3.1548,1.8181,3.8741h0c.085.0566.1699.1133.2605.1529.1869.085.3795.1246.5777.1246.2775,0,.5664-.085.8609-.2549,1.9541-1.1271,1.5689-4.4915,1.1668-6.4059h0c-.3229-1.5859-.9459-3.5796-2.073-4.0837v.017h0ZM514.6296,564.1656c-.1416.0793-.2775.1246-.4078.1529-.6117-.4814-1.1724-1.7445-1.5293-3.4777-.2945-1.4273-.7873-4.8597.9459-5.8622.1246-.0736.2492-.1133.3625-.1416.606.4814,1.1555,1.7502,1.5179,3.5287h0c.3002,1.416.8099,4.8144-.8949,5.7999h.0057ZM516.2721,558.5696h0c.3002,1.416.8099,4.8144-.8949,5.7999-.0566.034-.1133.0566-.1699.0793,1.6086-1.2914,1.2461-4.3896.8666-6.1907h0c-.1756-.8439-.4418-1.8295-.8269-2.6394.4078.6457.7646,1.6595,1.0252,2.9509h0ZM503.398,560.9202c-.2322-.1019-.4701-.1359-.7137-.1133-.0113,0-.0227,0-.0283.0057-.2152.0283-.4305.1019-.6514.2266-1.9767,1.1441-1.6142,4.5425-1.2177,6.4626.2379,1.1781.7873,3.1548,1.8181,3.8741h0c.085.0566.1699.1133.2605.1529.1869.085.3795.1246.5777.1246.2775,0,.5664-.085.8609-.2549,1.8295-1.0592,1.6425-4.0667,1.1668-6.4059-.3229-1.5859-.9459-3.5796-2.0787-4.0837l.0056.0113h.0002ZM503.2734,570.7188h0c-.1416.0793-.2775.1303-.4078.1529-.6117-.4814-1.1724-1.7445-1.5293-3.4777-.2945-1.4273-.7873-4.8597.9459-5.8622.1246-.0736.2435-.1133.3625-.1416.606.4814,1.1554,1.7502,1.5179,3.5287.3625,1.7672.725,4.8653-.8892,5.7999h0ZM504.021,570.9227c-.0566.034-.1076.051-.1586.0736,1.4953-1.2064,1.3027-3.9931.8553-6.1907-.1756-.8439-.4418-1.8295-.8326-2.6394.4078.6457.7646,1.6595,1.0252,2.9509.3625,1.7672.725,4.8653-.8949,5.7999l.0057.0057h0ZM544.7562,411.3065s-.0227-.0283-.0397-.0453c-.0113-.0113-.0283-.0227-.0397-.034-.017-.0113-.0283-.017-.0453-.0227s-.034-.0113-.0566-.017c-.0057,0-.017-.0057-.0227-.0057h-.0227c-.0227,0-.0453,0-.068.0113-.0113,0-.0227.0057-.034.0113-.0113,0-.0227.0057-.034.0113-.0113.0057-.017.017-.0283.0227s-.0227.017-.0283.0283c-.017.017-.0283.034-.0397.051-.0057.0113-.0113.0283-.017.0397-.0057.017-.0113.0397-.017.0566,0,.0113-.0057.017-.0057.0227l-.3342,4.8653v.0283c0,.017,0,.034.0057.0566,0,.017.0113.0397.017.0566,0,.0057,0,.017.0057.0227,0,.0057.0113.0057.0113.0113.0227.034.0453.0566.0793.0793.0057,0,.0113.0113.017.017.034.017.0736.034.1133.034h.017c.0453,0,.085-.0113.1246-.034h.017l2.3845-1.3763h0c.0057,0,.0113-.0113.017-.017s.0113-.0113.0227-.017c.017-.0113.034-.0227.0453-.0397.0113-.0113.0113-.0283.0227-.0453.0113-.017.0227-.034.0227-.051h0v-.051c0-.017.0057-.0397,0-.0566h0c0-.0397-.017-.0736-.034-.1076h0l-2.056-3.489s-.0113-.0113-.017-.017h.017v.0002ZM544.5637,415.1637l.1246-1.8011.759,1.2914-.8836.5098h0ZM505.5106,432.4784c-.5551-.2492-1.2177.0566-1.7275.3512l-2.0164,1.1668-.0057.0057c-.017.0113-.034.0283-.0453.0397l-.034.034c-.0113.017-.017.034-.0227.051s-.017.034-.0227.051v.1189l.7023,3.421s.017.0453.0283.068c0,.0057,0,.0113.0057.017h0c.0227.0397.0566.068.0906.0906.0113,0,.017.0113.0283.017.0397.017.0793.034.1246.034h0c.017,0,.0397,0,.0566-.0057.0227,0,.0397-.017.0623-.0283.0057,0,.017,0,.0227-.0057l2.0164-1.1668c.8892-.5154,1.8691-1.3254,1.5179-3.0472h0c-.1303-.6457-.3851-1.0422-.7703-1.2177l-.0114.0057.0003-.0002ZM502.69,436.6528l-.4644-2.2712,1.8408-1.0648c.2719-.1529.4984-.2549.691-.3172.0906.1416.1643.3455.2209.6004.2266,1.0988-.1359,1.8068-1.2461,2.4468l-1.0422.6004v.0057h0ZM504.4854,436.2563l-.1076.0623c.7703-.5267,1.4613-1.331,1.1554-2.8207-.0283-.1473-.068-.2775-.1133-.4021.1359.1359.2379.3738.3115.7137h0c.2266,1.0931-.1359,1.8011-1.2461,2.4468h.0001ZM589.7904,435.5709c-.3002-.3115-.657-.4191-1.0648-.3851h-.0566c-.5211.0566-1.1328.3398-1.8578.7533l-1.5179.8779-.0057.0057c-.017.0113-.034.0283-.0453.0397s-.0227.0227-.034.034c-.0113.017-.017.034-.0227.051s-.017.034-.0227.051v.1189l1.9031,9.2946s.017.0453.0283.068c0,.0057,0,.0113.0057.017h0c.0227.0397.0566.068.0906.0906.0113,0,.017.0113.0283.017.0397.017.0793.034.1246.034h0c.017,0,.0397,0,.0566-.0057.0227,0,.0397-.017.0623-.0283.0057,0,.017,0,.0227-.0057l1.5066-.8723h0c1.2857-.742,2.1353-1.45,2.3789-2.6507h0c.1586-.7533.068-1.6256-.3908-3.8855-.4814-2.3619-.7476-3.1775-1.1781-3.6249h0l-.0113.0057v-.0002ZM587.4115,445.3526l-1.6652-8.1448,1.3424-.776c.7137-.4135,1.1951-.6117,1.5406-.674.3285.3455.5891,1.1894,1.0308,3.3474.4871,2.3789.5154,3.0755.3908,3.6589h0c-.1756.8723-.7476,1.4896-2.107,2.2769l-.5324.3059v.0057ZM590.8043,442.9681h0c-.1699.8496-.7193,1.4613-2.005,2.2146.9629-.6287,1.6029-1.2857,1.8068-2.2996h0c.1586-.759.068-1.6256-.3908-3.8855-.3059-1.5009-.5267-2.3732-.7533-2.9283.2945.3965.5437,1.2631.9515,3.2454.4871,2.3789.5154,3.0755.3908,3.6589v-.0057.0002ZM511.3898,479.3024c-1.8804,1.0875-2.4582,3.2568-1.7672,6.6382.4021,1.9654.9685,3.1208,1.7672,3.6249.0283.0283.068.051.1133.0623.0397.0227.0736.051.1189.068.2266.1019.4644.1529.7137.1529.4078,0,.8496-.1359,1.314-.4021,1.8804-1.0875,2.4582-3.2568,1.7672-6.6382-.4418-2.1523-1.0705-3.3474-1.9881-3.7609-.5947-.2662-1.2801-.1813-2.0334.2549h-.0057,0ZM511.673,489.0728c-.6344-.4191-1.1385-1.5066-1.4953-3.2455-.6344-3.1152-.1473-5.0862,1.4953-6.0321.3512-.2039.6683-.3002.9572-.3172.6344.4248,1.1158,1.484,1.4783,3.2455.6344,3.1152.1473,5.0862-1.4953,6.0321-.3398.1982-.6514.3002-.9346.3229l-.0057-.0057h.0002ZM514.8562,482.9217c.6344,3.1152.1473,5.0862-1.4953,6.0321-.068.0397-.1303.0623-.1982.0963,1.6482-1.1385,2.1466-3.2398,1.4896-6.4456-.1982-.9629-.4361-1.7332-.7137-2.3222.3682.5721.6683,1.4443.9119,2.6394h.0057,0ZM473.5715,552.1127c-1.8804,1.0875-2.4582,3.2568-1.7672,6.6382.4021,1.9654.9685,3.1208,1.7728,3.6249.0283.0283.068.051.1076.0623.0397.0227.0736.051.1189.068.2266.1019.4644.1529.7137.1529.4078,0,.8496-.1359,1.314-.4021,1.8804-1.0875,2.4582-3.2568,1.7672-6.6382-.4418-2.1523-1.0705-3.3474-1.988-3.7609-.5947-.2662-1.2801-.1813-2.0334.2549h-.0057,0ZM473.8604,561.883c-.6344-.4191-1.1385-1.5066-1.4953-3.2455-.6344-3.1152-.1473-5.0862,1.4953-6.0321.3512-.2039.6683-.3002.9572-.3172.6344.4248,1.1158,1.484,1.4783,3.2455.6344,3.1095.1473,5.0862-1.4953,6.0321-.3398.1982-.6514.3002-.9346.3229l-.0057-.0057h0ZM477.0435,555.7263c.6344,3.1095.1473,5.0862-1.4953,6.0321-.068.0397-.1303.0623-.1982.0963,1.6482-1.1385,2.1466-3.2398,1.4953-6.4456-.1982-.9629-.4361-1.7275-.7137-2.3222.3682.5721.6683,1.4443.9119,2.6394h0ZM492.3759,439.3035c-1.8804,1.0875-2.4582,3.2568-1.7672,6.6382.4021,1.9654.9685,3.1208,1.7672,3.6249.0283.0283.068.051.1133.0623.0397.0227.0736.051.1133.068.2266.1019.4644.1529.7137.1529.4078,0,.8496-.1359,1.314-.4021,1.8804-1.0875,2.4582-3.2568,1.7672-6.6382-.4418-2.1523-1.0705-3.3474-1.988-3.7609-.5947-.2662-1.2801-.1813-2.0334.2549h-.0002ZM492.6647,449.0738c-.6344-.4191-1.1385-1.5066-1.4953-3.2455-.6344-3.1152-.1473-5.0862,1.4953-6.0321.3512-.2039.6683-.3002.9572-.3172.6344.4248,1.1158,1.484,1.4783,3.2455.6344,3.1152.1473,5.0862-1.4953,6.0321-.3398.1982-.6514.3002-.9346.3229l-.0057-.0057h0ZM495.8479,442.9171c.6344,3.1152.1473,5.0862-1.4953,6.0321-.068.0397-.1303.0623-.1926.0963,1.6482-1.1385,2.1466-3.2398,1.4896-6.4456-.1982-.9685-.4361-1.7332-.7137-2.3279.3682.5721.6683,1.4443.9119,2.6394v.0057h.0001ZM591.7218,515.212c-.3229-1.5859-.9459-3.5796-2.073-4.0837-.2322-.1019-.4701-.1359-.7137-.1133-.0113,0-.0227,0-.0283.0057-.2152.0283-.4305.1019-.6514.2266-1.9767,1.1441-1.6142,4.5425-1.2177,6.4626.2379,1.1724.7873,3.1492,1.8181,3.8741,0,0,.0057,0,.0113.0057.085.0566.1643.1076.2549.1473.1869.085.3795.1246.5777.1246.2775,0,.5664-.085.8609-.2549,1.8295-1.0592,1.6425-4.0667,1.1668-6.4059l-.0057.0113h.0001ZM589.5185,520.9269c-.1416.0793-.2775.1246-.4078.1529-.6117-.4814-1.1724-1.7445-1.5293-3.4777-.2945-1.4273-.7873-4.8597.9459-5.8622.1246-.0736.2492-.1133.3625-.1416.606.4814,1.1555,1.7502,1.5179,3.523h0c.3625,1.7672.725,4.8653-.8949,5.7999l.0057.0057h0ZM590.2719,521.1251c-.051.0283-.1019.051-.1586.0736,1.4953-1.2064,1.3027-3.9931.8553-6.1907h0c-.1756-.8439-.4418-1.8295-.8326-2.6394.4078.6457.7646,1.6595,1.0252,2.9509.3625,1.7672.725,4.8653-.8949,5.7999l.0057.0057h0ZM473.0448,452.0134c-.3002-.3115-.657-.4191-1.0705-.3851h-.0566c-.5211.0566-1.1328.3398-1.8578.7533l-1.5293.8836-.0057.0057c-.017.0113-.0283.0227-.0453.0397-.0113.0113-.0283.0227-.034.034-.0113.017-.017.034-.0227.0453-.0057.017-.017.034-.0227.051v.1189l1.9031,9.2946s.017.0397.0227.0623c0,.0057,0,.017.0057.0227h0c.0227.0397.0566.068.0906.0906.0113.0057.017.0113.0283.017.0397.017.0793.034.1246.034h0c.017,0,.0397,0,.0566-.0057.0227,0,.0397-.017.0623-.0227.0057,0,.017,0,.0227-.0057l1.5179-.8779c1.2857-.742,2.1353-1.45,2.3789-2.6507h0c.1586-.7533.068-1.6256-.3908-3.8855-.4814-2.3675-.7476-3.1775-1.1781-3.6249h0v.0057-.0002ZM470.6603,461.8008l-1.6652-8.1448,1.3537-.7816c.7137-.4135,1.1951-.6117,1.5406-.674h0c.3285.3455.589,1.1894,1.0308,3.3474.4871,2.3789.5154,3.0755.3908,3.6589h0c-.1756.8723-.7476,1.4896-2.107,2.2769l-.5437.3115v.0057ZM474.0586,459.4106h0c-.1699.8496-.7193,1.4613-2.005,2.2146.9629-.6287,1.6029-1.2857,1.8068-2.2996h0c.1586-.7533.068-1.6256-.3908-3.8855-.3059-1.5009-.5267-2.3789-.7533-2.9339.2945.3965.5437,1.2631.9515,3.2455.4871,2.3789.5154,3.0755.3908,3.6589h0ZM481.0196,445.8567c-1.8804,1.0875-2.4582,3.2568-1.7672,6.6382.4021,1.9654.9685,3.1208,1.7672,3.6249.0283.0283.068.051.1133.0623.0397.0227.0736.051.1189.068.2266.1019.4644.1529.7137.1529.4078,0,.8496-.1359,1.314-.4021,1.8804-1.0875,2.4582-3.2568,1.7672-6.6382-.4418-2.1523-1.0705-3.3474-1.988-3.7609-.5947-.2662-1.2801-.1813-2.0334.2549h-.0057ZM481.3085,455.627c-.6344-.4191-1.1385-1.5066-1.4953-3.2455-.6344-3.1152-.1473-5.0862,1.4953-6.0321.3512-.2039.6683-.3002.9572-.3172.6344.4248,1.1158,1.484,1.4783,3.2455.6344,3.1152.1473,5.0862-1.4953,6.0321-.3398.1982-.6514.3002-.9346.3229l-.0057-.0057h0ZM484.4917,449.476c.6344,3.1152.1473,5.0862-1.4953,6.0321-.068.0397-.1303.0623-.1982.0963,1.6482-1.1385,2.1466-3.2398,1.4953-6.4456-.1982-.9629-.4361-1.7275-.7137-2.3222.3682.5721.6683,1.4443.9119,2.6394h0Z"/>
  </g>
  <g id="Layer_3" data-name="Layer 3">
    <path d="M615.51,586.28l1.82.48-.08.29-2.31,1.8-52.2662,5.9548c-.0883.0101-.1736.0379-.2509.0817l-56.4729,32.0635.76-10.66,68.36-39.47v.01l34.6-.44,5.84,9.89Z"/>
    <path d="M478.58,665.33l1.74.47-3.26,2.01-379.77,5.72,2.5385-2.7199c.245-.2625.1214-.6914-.2257-.7832l-6.7128-1.7769,156.49-90.87,124.62-31.97-13.57,50.65,3.49,3.1,21.98-12.69,3.84-7.2599,70.8-.91.22-.05,13.64,66.63-8.96,5.09,10.45,2.21,2.69,13.15Z"/>
    <path d="M450.58,528.48l1.55,7.57-.24.05-57.1223,34.313c-.1488.0894-.321-.0737-.2398-.2271l7.122-13.4559,48.93-28.25Z"/>
  </g>
</svg>