<?xml version="1.0" encoding="UTF-8"?>
<svg xmlns="http://www.w3.org/2000/svg" viewBox="0 0 1000 1000">
  <g id="Layer_3" data-name="Layer 3">
    <g id="LINE">
      <path d="M311.7105,561.9281v-127.0789c0-1.1036-.919-1.985-2.0216-1.9391h0s-.3369-1.0108-.3369-1.0108l-369.0991,53.3414c-.2798.0404-.5475.1415-.7842.2962l-356.0501,232.6998c-5.0617,3.3081-2.8808,11.1645,3.1619,11.39l251.1412,9.3739c.1238.0046.2477-.0026.3701-.0216l624.7478-96.9939c1.8716-.2906,2.2612-2.8154.5642-3.6566l-150.6146-74.6616c-.6608-.3276-1.0788-1.0013-1.0788-1.7388Z"/>
    </g>
  </g>
  <g id="Layer_4" data-name="Layer 4">
    <path d="M747.39,328.58s0-.09-.02-.14c-.01-.04-.04-.08-.06-.11-.02-.04-.05-.09-.08-.13,0-.01-.01-.02-.02-.03l-84-86.94c-.15-.15-.35-.22-.54-.21h-.03c-.12,0-.23.04-.33.09,0-.06,0-.11-.03-.17-.1-.27-.31-.47-.56-.55-.15-.05-.33-.02-.51.03l-83.51,3.52c-.09-.03-.18-.05-.27-.05-.33.02-.62.23-.75.54-.05.13-.07.27-.07.41,0,.1,0,.21.04.31l.35.95-11.58,7.8-2.69.11c-.09-.03-.18-.05-.28-.05-.33.01-.63.23-.76.54-.05.13-.07.27-.07.41,0,.1,0,.21.04.31l.35.95-11.58,7.79-2.69.11c-.09-.03-.19-.05-.29-.04-.33.01-.63.23-.76.54-.06.14-.07.29-.06.45-.01.11-.01.23.03.34l.34.88-11.64,7.8-2.68.11c-.09-.04-.19-.05-.29-.05-.33.01-.62.22-.76.54-.06.14-.07.29-.06.45-.01.11-.01.23.03.34l.34.88-11.67,7.86-2.6.11c-.09-.03-.19-.05-.29-.05-.33.02-.62.22-.75.54-.05.13-.07.27-.07.41,0,.11,0,.21.04.32l.34.88-11.67,7.86-2.67.11c-.09-.03-.18-.05-.28-.05-.33.02-.62.23-.75.54-.06.13-.07.28-.06.42,0,.11,0,.22.04.33l.38.93-11.63,7.79-2.68.11c-.09-.03-.19-.05-.3-.05-.33.01-.62.22-.76.55-.05.13-.07.27-.06.41,0,.1,0,.21.04.31l.35.95-11.58,7.8-2.71.11c-.08-.03-.17-.05-.27-.05-.33.01-.62.22-.76.55-.05.13-.07.27-.06.41,0,.1,0,.21.04.31l.35.95-11.58,7.79-2.77.12c-.08-.03-.17-.05-.27-.05-.33.01-.62.22-.76.55-.05.13-.07.27-.06.42,0,.11,0,.22.04.33l.38.93-11.63,7.79-2.7.11c-.09-.03-.18-.05-.28-.05-.33.02-.62.22-.75.55-.06.14-.07.29-.06.44-.01.11-.01.23.03.34l.34.88-11.58,7.79-2.7.11c-.09-.03-.18-.05-.29-.05-.33.02-.62.22-.75.55-.06.14-.07.29-.06.45-.01.11-.01.23.03.34l.34.88-11.67,7.86-2.67.11c-.09-.03-.18-.05-.28-.05-.33.02-.62.23-.75.54-.05.13-.07.27-.07.41,0,.1,0,.21.04.31l.35.95-11.58,7.8-2.7.11c-.08-.03-.18-.05-.28-.05-.34.01-.63.22-.76.54-.05.13-.07.27-.07.41,0,.1,0,.21.04.31l.35.95-11.58,7.79-2.71.11c-.08-.03-.17-.05-.27-.04-.34.01-.63.22-.76.54-.05.13-.07.27-.07.41,0,.1,0,.21.03.31l.35.95-11.64,7.8-2.7.11c-.08-.03-.18-.05-.27-.05-.34.01-.63.22-.76.54-.05.13-.07.27-.07.41,0,.1,0,.21.04.31l.35.95-11.58,7.8-2.69.11c-.09-.03-.19-.05-.29-.05-.33.02-.62.23-.75.54-.06.14-.07.3-.06.45-.01.11-.01.23.03.34l.34.88-11.58,7.79-2.76.11c-.09-.03-.18-.05-.28-.05-.33.02-.62.23-.75.54-.06.14-.07.3-.06.46-.01.12,0,.24.04.36l.37.87-11.72,7.85-2.6.11c-.09-.03-.18-.05-.28-.05-.34.01-.63.22-.76.54-.05.13-.07.27-.07.41,0,.11,0,.21.04.32l.34.89-11.73,7.92-2.55.11c-.08-.03-.17-.05-.26-.05-.33.01-.62.23-.73.55v.06c-.1.18-.13.39-.06.6l.54,1.44c.11.28.38.47.67.47h.03l1.69,4.57s0,.01.01.02c.02.04.04.08.06.12.02.03.04.06.06.08.03.04.07.07.11.1.02.02.04.03.07.04.04.03.09.05.14.07.07.02.15.04.22.04h.03l1.23-.05v129.53c0,.4.38.72.78.72.02,0,.03,0,.05-.01l1.38.66h.02s.01,0,.02.01h.02c.02.01.03.03.05.04l6.54,3.24s.03,0,.05.01c.02.02.04.03.07.05l6.6,3.3h.02c.01,0,.02.01.03.02h.02c.02.01.03.03.05.04l6.54,3.24s.04,0,.06.01.04.04.06.05l6.5,3.19h.01c.03.04.08.06.12.09.03.02.05.05.09.07l6.54,3.24h.02c.02,0,.04.01.05.02.02,0,.03.03.04.03l6.54,3.24h.02c.04.02.09.03.13.04,0,0,.02.01.03.02l6.44,3.19.01.01c.03.04.08.06.12.09.03.02.05.05.09.07l6.54,3.24h.02c.04.02.09.03.14.04l.02.02,6.54,3.24h.02c.02,0,.04.01.05.02.02,0,.03.02.04.03l6.54,3.3h.02c.04.02.09.03.14.04l.02.02,6.54,3.24h.02c.02,0,.04.01.05.02.02.01.03.03.04.03l6.54,3.24h.02c.04.02.09.03.13.04l.02.02,6.54,3.3h.02c.02,0,.04.02.06.02s.03.03.04.03l6.54,3.24h.02c.02,0,.04.01.06.02.02.01.03.03.05.04l6.6,3.24h.02c.02,0,.03.01.05.02.02,0,.03.02.04.03l6.54,3.3h.02c.02,0,.04.02.06.02.02.01.03.03.05.04l6.6,3.24h.02c.02,0,.04.01.05.02.02.01.03.03.05.04l6.44,3.19s.01,0,.01.01c.03.04.08.06.12.09.03.02.05.05.09.07l6.6,3.24h.02c.02,0,.04.01.05.02.02,0,.03.03.04.03l6.54,3.24h.02c.02,0,.04.01.05.02.02.01.03.03.05.04l6.54,3.24h.02s.01.01.02.01c.02.01.03.02.05.03.03.02.05.05.09.07l6.54,3.24h.02c.02,0,.04.01.05.02.02,0,.03.03.04.03l6.54,3.24h.02c.04.02.09.03.13.04l.02.02,6.54,3.3h.02c.02,0,.04.02.06.02.02.01.03.03.06.04l1.28.59c.06.09.14.17.23.23l.66.36c.11.06.23.09.34.09h0c.11,0,.22-.02.32-.07l.12-.06s.03-.02.04-.03h0c.03,0,.05-.02.07-.04.03-.01.06-.02.08-.04l5.62-3.83s.03-.02.05-.03c.03-.01.05-.02.08-.04l5.63-3.77s.03-.02.05-.03c.03-.01.06-.02.08-.04l5.58-3.78.05-.05c.03-.03.06-.05.09-.08l5.61-3.76s.03-.02.05-.03c.03-.01.06-.02.08-.04l5.63-3.77s.03-.02.05-.03c.03-.01.05-.02.08-.04l5.64-3.78.05-.05c.03-.03.06-.05.09-.08l3.04-2.03.05-.05c.04-.03.07-.06.1-.1.03-.04.06-.07.08-.11s.04-.08.05-.12c.02-.05.02-.1.03-.15,0-.02.01-.04.01-.07v-.46l66.23-44.45.33.18h0c.09.05.19.07.29.07.01,0,.03.01.04.01h0c.14,0,.28-.04.4-.12l3.96-2.7h0c.04-.02.08-.03.11-.05l5.64-3.78s.08-.07.11-.11c0,0,.02-.01.03-.02l5.61-3.76s.03-.02.05-.03c.03-.01.05-.02.08-.04l5.63-3.77s.03-.02.05-.03c.03-.01.05-.02.08-.04l5.64-3.78s.03-.03.05-.05c.03-.03.06-.05.09-.08l5.61-3.76s.03-.02.05-.03c.03-.01.05-.02.08-.04l5.63-3.77s.03-.02.05-.03c.03-.01.06-.02.08-.04l5.64-3.78s.03-.03.05-.05c.04-.03.07-.06.1-.1.02-.02.04-.04.06-.07l5.49-3.68h0c.04-.02.08-.03.11-.05l5.64-3.78h0c.04-.02.08-.03.11-.05l5.64-3.78s.08-.08.11-.12c0,0,.02-.01.02-.02l5.61-3.76s.03-.02.05-.03c.03-.01.06-.02.08-.04l5.63-3.77s.03-.02.05-.03c.03-.01.06-.02.08-.04l5.62-3.83s.03-.02.05-.03c.03-.01.05-.02.08-.04l5.63-3.77s.03-.02.05-.03c.03-.01.05-.02.08-.04l5.64-3.78s.03-.03.05-.05c.04-.03.07-.07.1-.1.02-.02.04-.04.06-.07l5.49-3.68h0c.01,0,.02-.01.04-.02.03-.01.05-.02.08-.04l5.63-3.77s.03-.02.05-.03c.03-.01.06-.02.08-.04l5.64-3.78s.03-.03.05-.05c.03-.03.06-.05.09-.08l5.61-3.76s.03-.02.05-.03c.03-.01.05-.02.08-.04l5.63-3.77s.03-.02.05-.03c.03-.01.05-.02.08-.04l5.64-3.78s.03-.03.05-.05c.03-.03.06-.05.09-.08l5.62-3.77h0c.04-.02.08-.03.11-.05l5.64-3.78s.04-.04.06-.06h0l5.64-3.78s.08-.08.12-.12h0l5.64-3.78h0c.04-.02.08-.03.11-.05l5.64-3.78h0c.04-.02.08-.03.11-.05l5.64-3.78s.08-.08.12-.12h0l1.44-.96s.03-.03.05-.05c.04-.03.07-.06.1-.1.03-.04.05-.07.08-.11.02-.04.04-.08.05-.12.01-.05.02-.09.03-.15,0-.02.01-.04.01-.07v-131.7s0-.06-.01-.09v-.07c-.02-.08-.05-.16-.1-.23h0s-.01-.01-.02-.02h0l1.15-.78c.09-.06.15-.13.2-.21h0l1.78-2.9s.01-.01.02-.01c.04-.02.07-.05.11-.08s.08-.07.11-.11c.03-.03.07-.05.09-.09l.48-.84s0-.03.01-.04c.02-.05.03-.09.05-.14.01-.04.02-.09.03-.13v-.13l.1404.16ZM578.13,247.07h0c.01,0,.03-.01.04-.02.34-.24.48-.71.33-1.13-.04-.09-.09-.18-.15-.24l-.11-.31,82.5-3.48.27.66-12.95,8.71c-.14-.11-.3-.16-.46-.16h-.03c-.1,0-.19.03-.28.06,0-.05,0-.09-.02-.14-.1-.27-.31-.47-.56-.55-.15-.05-.33-.02-.51.03l-78.05,3.29,9.98-6.72h.0001ZM563.13,257.15h0c.01,0,.03-.01.04-.02.34-.24.48-.71.33-1.12-.04-.09-.09-.18-.15-.24l-.11-.31,2.32-.1s.03.01.05.01c.04,0,.09-.01.13-.02l79.97-3.37.26.69-12.91,8.68c-.23-.18-.52-.2-.77-.07,0-.06,0-.11-.03-.17-.1-.27-.31-.47-.56-.55-.14-.04-.33-.02-.5.03l-78.05,3.29,9.98-6.72v-.01ZM548.13,267.23h0c.01,0,.03-.01.04-.02.34-.24.48-.71.33-1.12-.04-.1-.09-.18-.16-.25l-.12-.31,2.33-.1s.04.01.06.01c.05,0,.1-.01.16-.02l79.94-3.37.26.69-12.94,8.66c-.24-.17-.56-.17-.8,0,0-.05,0-.1-.02-.15-.1-.27-.3-.47-.56-.55-.14-.05-.33-.02-.5.03l-78.05,3.23,10.04-6.72-.01-.01ZM577.11,567.88l2.7,1.33-64.78,43.48v-91.5l.17-.11,17.45,8.64c.1.05.21.07.32.07h0c.12,0,.25-.04.36-.1h.04l43.34-29.11v66.68c0,.27.16.52.4.65v-.03ZM578.15,566.78v-67.2l2.34-1.57v69.92l-2.34-1.15h0ZM532.92,521.16l-28.45-14.08,1.29-.86s.03-.02.05-.03c.03-.01.06-.02.08-.04l5.64-3.78s.03-.03.05-.05c.03-.03.06-.05.09-.08l5.61-3.76s.03-.02.05-.03c.03-.01.05-.02.08-.04l5.63-3.77s.04-.02.05-.03c.03-.01.06-.02.08-.04l5.62-3.83s.03-.02.05-.03c.03-.01.06-.02.08-.04l5.63-3.77s.03-.02.05-.03c.03-.01.06-.02.08-.04l5.58-3.78s.03-.03.05-.05c.03-.03.06-.05.09-.08l5.61-3.76s.03-.02.05-.03c.03-.01.05-.02.08-.04l5.63-3.77s.03-.02.05-.03c.03-.01.06-.02.08-.04l5.64-3.78s.03-.03.05-.05c.03-.03.06-.05.09-.08l5.61-3.76s.03-.02.05-.03c.03-.01.05-.02.08-.04l5.63-3.77s.03-.02.05-.03c.03-.01.05-.02.08-.04l5.64-3.78s.03-.03.05-.05c.03-.03.06-.05.09-.08l5.61-3.76s.04-.02.05-.03c.03-.01.06-.02.08-.04l5.57-3.77s.03-.02.05-.03c.03-.01.05-.02.08-.04l5.64-3.78s.03-.03.05-.05c.03-.03.06-.05.09-.08l1.08-.72,3.78,1.88s.08.05.13.07c.04.02.08.05.13.06l5.37,2.66c.07.07.16.12.26.16.06.04.13.06.21.08l5.5,2.73h.01l.1.05s.01,0,.02.01l5.49,2.72c.06.04.12.08.18.1.05.03.1.05.16.07l7.04,3.49-88.74,59.62h.0198ZM451.89,384.77h0c.01,0,.03-.01.04-.02.04-.02.05-.06.08-.09.04-.03.07-.07.1-.12.02-.03.05-.05.07-.08.03-.04.06-.08.08-.12.08-.08.14-.17.17-.27l82.96,85.87-.27.45-13.37,9.03-82.97-85.87,13.09-8.77.02-.0101ZM619.73,417.98v41l-4.2-2.08v-36.1l4.2-2.82ZM613.97,421.82v34.3l-4.2-2.08v-29.41l4.2-2.82v.01ZM608.21,425.72v27.55l-4.2-2.08v-22.65l4.2-2.82ZM685.26,369.6l-4.22,2.85-9,6.08-83-85.85,13.03-8.77h0c.01,0,.03-.01.04-.02.09-.06.16-.14.22-.22.07-.07.13-.15.17-.23.06-.06.1-.13.14-.2l82.97,85.81-.35.57v-.02ZM670.61,379.11l-.35.57-13.25,8.94-82.99-85.89,13.05-8.74h0c.01,0,.03-.01.04-.02.1-.07.17-.15.23-.25.04-.04.08-.08.11-.13,0,0,.01,0,.02-.02l.16-.28,82.97,85.82h.0101ZM655.57,389.21l-.13.23-.17.27-13.32,9-82.97-85.87,13.03-8.76h0c.01,0,.03-.01.04-.02.03-.02.05-.05.07-.07.17-.09.28-.24.34-.41.06-.07.1-.14.14-.22l82.97,85.87v-.02ZM640.53,399.31l-.23.41-.06.09-12.09,8.17-1.2.8-82.97-85.87,12.99-8.74.08-.04c.13-.07.24-.18.31-.31.12-.08.21-.19.26-.32l82.9,85.81h.01ZM625.53,409.39l-.3.51s-.08.08-.12.12l-7.23,4.87-5.92,3.97-83.03-85.87,13.09-8.77h0c.01,0,.03-.01.04-.02.09-.06.16-.14.22-.22l.02-.02s.04-.06.06-.09c.01-.02.03-.03.05-.04l.18-.29,82.95,85.85h-.01ZM610.51,419.45l-.37.6-.38.26-12.87,8.63-82.97-85.82,12.83-8.69c.09-.02.17-.05.25-.1.09-.06.16-.14.22-.22h0c.02-.02.03-.04.05-.06.02-.02.04-.05.06-.08s.04-.05.06-.08v-.01c.07-.07.12-.15.15-.23l82.97,85.81v-.01ZM602.45,429.56v20.85l-4.2-2.08v-15.95l4.2-2.81v-.01ZM595.4901,429.57l-.35.57-13.25,8.89-82.97-85.81,13.03-8.77h0c.01,0,.03-.01.04-.02.09-.06.16-.14.22-.22.09-.08.15-.19.19-.31l.07-.12s.02-.02.02-.03l82.99,85.83.01-.01ZM596.69,433.4v14.15l-3.16-1.57s-.06-.01-.08-.02c-.05-.02-.1-.03-.15-.04h-.13c-.05,0-.09,0-.14.02-.05.01-.09.03-.14.06-.03.01-.05.02-.08.03l-.32.21v-10.03l4.2-2.82v.01ZM590.9301,437.3v10.03l-4.2,2.81v-10.03l4.2-2.82v.01ZM585.17,441.15v10.02l-4.14,2.8v-10.02l4.14-2.81v.01ZM580.4901,439.65l-.33.53-.07.07-4.76,3.22-8.46,5.67-83.01-85.85,13.09-8.77h0c.01,0,.03-.01.04-.02.13-.09.21-.21.28-.35,0,0,0-.02.01-.03,0-.02.02-.03.02-.05l.03-.05c.06-.06.11-.13.15-.21l82.99,85.84h.02ZM579.47,444.98v10.03l-4.2,2.82v-10.03l4.2-2.82ZM573.71,448.88v10.03l-4.2,2.82v-10.03l4.2-2.82ZM567.95,452.72v10.03l-4.2,2.81v-10.03l4.2-2.82v.01ZM565.4301,449.73l-.35.57-4.16,2.81-9.09,6.13-82.97-85.87,13.03-8.77h0c.01,0,.03,0,.04-.02.09-.06.16-.14.22-.22l.02-.02s.03-.04.04-.06c.01-.01.02-.03.03-.05s.03-.02.04-.04l.04-.08c.05-.06.09-.12.12-.19l82.97,85.81h.02ZM562.19,456.56v10.03l-4.2,2.81v-10.03l4.2-2.82v.01ZM556.4301,460.46v10.03l-4.2,2.82v-10.03l4.2-2.82ZM550.41,459.85l-.34.56s-.03.04-.05.06l-6.08,4.09-7.11,4.77-82.99-85.9,13.06-8.74h0c.01,0,.03-.01.04-.02.09-.06.16-.14.22-.23.02-.02.03-.04.05-.06.03-.03.05-.06.07-.09,0,0,.01,0,.02-.02l.16-.28,82.95,85.86h0ZM550.67,464.3v10.03l-4.2,2.82v-10.03l4.2-2.81v-.01ZM544.91,468.14v10.03l-4.2,2.81v-10.03l4.2-2.82v.01ZM539.15,472.05v10.02l-4.14,2.8v-10.02l4.14-2.8ZM533.45,475.88v10.03l-4.2,2.82v-10.03l4.2-2.82ZM527.69,479.73v10.02l-4.2,2.86v-10.02l4.2-2.86ZM521.9301,483.62v10.03l-4.2,2.81v-10.03l4.2-2.82v.01ZM520.35,480.01l-.32.56-.05.05-.49.33-12.72,8.53-82.94-85.84,12.8-8.66c.09-.02.17-.05.25-.1.1-.07.18-.16.24-.27.03-.03.05-.06.07-.1l.03-.06c.09-.08.16-.17.2-.27l82.93,85.83h0ZM516.17,487.46v10.03l-4.2,2.82v-10.03l4.2-2.82ZM510.41,491.36v10.03l-4.2,2.82v-10.03l4.2-2.82ZM700.46,359.28l-.12.18-11.29,7.62-2.01,1.35-83-85.84,12.89-8.69c.09-.02.17-.05.25-.1.13-.09.21-.21.28-.35,0-.01.01-.02.02-.03.01-.03.03-.05.04-.08.08-.08.13-.17.16-.27h0l82.97,85.87-.2.35.01-.01ZM532.8701,277.45c.09-.02.17-.05.25-.1.34-.24.48-.71.33-1.12-.03-.07-.07-.13-.12-.19l-.17-.43,2.34-.1h.04c.04,0,.07-.01.11-.02l80.03-3.32.26.61-12.99,8.73c-.13-.08-.27-.13-.42-.13h-.03c-.04,0-.08.02-.13.04-.03,0-.06.01-.09.03-.02,0-.04,0-.06.02,0-.05,0-.1-.02-.15-.1-.27-.3-.47-.56-.55-.15-.05-.34-.02-.51.03l-78.15,3.29,9.87-6.65.0201.01ZM517.8701,287.53c.09-.02.17-.05.25-.1.34-.24.48-.71.33-1.12-.03-.07-.07-.13-.12-.19l-.14-.38,82.48-3.48.23.64-12.9,8.73c-.14-.11-.3-.16-.46-.15h-.03c-.1,0-.19.02-.28.06,0-.04,0-.09-.02-.13-.1-.27-.3-.47-.56-.55-.15-.05-.33-.02-.5.03l-78.15,3.29,9.87-6.64.0002-.01ZM503.07,297.53h0c.01,0,.03-.01.04-.02.34-.24.48-.71.33-1.12-.04-.1-.1-.19-.18-.26l-.12-.3,82.52-3.48.25.69-12.94,8.67c-.13-.09-.28-.14-.43-.14h-.03c-.12,0-.23.04-.34.09,0-.06,0-.11-.03-.17-.1-.27-.3-.47-.56-.55-.18-.06-.36-.03-.53.03l-78.02,3.29,10.03-6.72.0101-.01ZM488.01,307.61h0c.01,0,.03-.01.04-.02.35-.24.48-.71.33-1.12-.04-.09-.09-.18-.15-.25l-.11-.32,2.32-.1s.03.01.05.01c.04,0,.09-.01.13-.02l79.99-3.37.25.69-12.91,8.68c-.14-.11-.3-.16-.46-.16h-.03c-.1,0-.19.02-.28.06,0-.04,0-.09-.02-.13-.1-.27-.3-.47-.56-.55-.18-.05-.36-.03-.53.03l-78.03,3.29,9.98-6.72h-.0099ZM473.01,317.69h0c.01,0,.03-.01.04-.02.34-.24.48-.71.33-1.12-.04-.09-.09-.18-.15-.25l-.11-.32,2.32-.1s.03.01.05.01c.05,0,.09-.01.13-.02l79.98-3.37.25.69-12.94,8.67c-.22-.16-.5-.17-.74-.05,0-.06,0-.11-.03-.17-.1-.27-.3-.47-.56-.55-.17-.05-.35-.03-.52.03l-78.03,3.29,9.98-6.72h.0001ZM458.01,327.77h0c.01,0,.03-.01.04-.02.34-.24.48-.71.33-1.12-.04-.1-.1-.19-.17-.26l-.12-.3,2.34-.1s.04.01.06.01c.05,0,.11-.01.16-.02l79.94-3.37.26.69-12.97,8.68c-.23-.18-.52-.2-.77-.07,0-.06,0-.11-.03-.17-.1-.27-.3-.47-.56-.55-.15-.05-.33-.02-.51.03l-78.04,3.29,10.03-6.72h.0099ZM442.75,337.99c.09-.02.17-.05.25-.1.34-.24.48-.71.33-1.12-.03-.07-.07-.13-.11-.19l-.17-.44,2.34-.1s.03.01.05.01c.04,0,.09-.01.13-.02l79.97-3.37.26.69-12.95,8.71c-.13-.09-.28-.13-.44-.12-.1,0-.2.01-.29.05,0-.04,0-.09-.02-.13-.1-.27-.3-.47-.56-.55-.15-.05-.34-.02-.51.03l-78.05,3.23,9.78-6.59-.0101.01ZM427.75,348.07c.09-.02.17-.05.25-.1.34-.24.48-.71.33-1.12-.03-.07-.07-.13-.11-.18l-.17-.44,2.34-.1s.03.01.05.01c.04,0,.09-.01.13-.02l79.99-3.31.24.63-12.94,8.72c-.14-.09-.29-.14-.45-.13-.12,0-.23.01-.34.07h-.01s0-.1-.02-.15c-.1-.27-.3-.47-.56-.55-.15-.05-.34-.02-.51.03l-78.08,3.29,9.87-6.64-.0099-.01ZM412.89,358.07h0c.01,0,.03-.01.04-.02.35-.24.48-.71.33-1.12-.04-.09-.09-.18-.15-.25l-.11-.32,82.5-3.48.27.66-12.95,8.71c-.14-.11-.29-.16-.46-.16h-.04c-.07,0-.12.03-.19.05h-.01c-.03,0-.05,0-.08.02,0-.05,0-.09-.02-.14-.1-.27-.3-.47-.56-.55-.15-.05-.34-.02-.51.03l-78.05,3.29,9.98-6.72h.0101ZM397.89,368.15h0c.01,0,.03-.01.04-.02.34-.24.48-.71.33-1.12-.04-.09-.09-.18-.15-.25l-.11-.32,2.32-.1s.03.01.05.01c.04,0,.09-.01.13-.02l79.99-3.37.25.69-12.91,8.69c-.14-.1-.29-.16-.46-.16h-.04c-.1,0-.19.02-.28.06,0-.04,0-.09-.02-.13-.1-.27-.3-.47-.56-.55-.15-.05-.33-.02-.5.03l-78.05,3.29,9.98-6.72-.01-.01ZM382.89,378.23h0c.01,0,.03-.01.04-.02.34-.24.48-.71.33-1.12-.04-.09-.09-.18-.15-.25l-.12-.32,2.32-.1s.04.01.06.01c.05,0,.11-.01.16-.02l79.96-3.37.25.69-12.94,8.67c-.13-.09-.28-.14-.43-.14h-.04c-.12,0-.23.04-.33.09,0-.06,0-.11-.03-.17-.1-.27-.3-.47-.56-.55-.15-.05-.33-.02-.5.03l-78.04,3.29,10.03-6.72h-.01ZM367.83,388.31h0c.01,0,.03-.01.04-.02.34-.24.48-.71.33-1.12-.04-.1-.09-.18-.15-.25l-.11-.32,2.32-.1s.03.01.05.01c.04,0,.09-.01.13-.02l79.98-3.37.29.67-12.94,8.7c-.23-.17-.52-.2-.77-.07,0-.06,0-.11-.03-.17-.1-.27-.3-.47-.56-.55-.15-.04-.33-.02-.5.03l-78.05,3.29,9.98-6.72-.01.0099ZM352.83,398.39h0c.01,0,.03-.01.04-.02.34-.24.48-.71.33-1.12-.04-.1-.09-.18-.16-.25l-.12-.31,2.33-.1s.03.01.05.01c.04,0,.09-.01.13-.02l79.97-3.37.26.69-12.91,8.68c-.23-.18-.53-.2-.78-.06,0-.04,0-.08-.02-.11-.1-.27-.3-.47-.56-.55-.15-.05-.33-.02-.5.03l-78.06,3.23,9.99-6.72.01-.0101ZM337.62,408.61c.09-.02.17-.05.25-.1.35-.24.48-.71.33-1.12-.03-.09-.08-.16-.14-.22l-.17-.4,2.36-.1s.03.01.05.01c.04,0,.09-.01.13-.02l79.99-3.31.24.63-12.98,8.69c-.12-.07-.26-.11-.4-.1-.12,0-.23.01-.34.07h-.02s0-.1-.02-.15c-.1-.27-.3-.47-.56-.55-.15-.05-.33-.02-.51.03l-78.14,3.29,9.92-6.65h.0101ZM322.57,418.69c.09-.02.17-.05.25-.1.35-.24.49-.71.33-1.13-.03-.07-.07-.13-.11-.18l-.14-.38,82.48-3.48.23.64-12.93,8.71c-.24-.17-.54-.17-.79-.01,0-.05,0-.09-.02-.14,0-.02-.03-.04-.04-.06v-.02c0-.01-.02-.02-.03-.03-.1-.21-.26-.38-.48-.44-.15-.04-.32-.02-.48.04l-78.22,3.3,9.94-6.71.0101-.01ZM390.39,423.56l.07.19-82.49,3.48-.07-.19,82.49-3.48ZM312.95,562.79l-.06-.03v-129.15h.06v129.18ZM314.51,433.53l5.1-.22v132.75l-5.1-2.53v-130.01.01ZM321.17,433.25l5.16-.22v136.39l-5.16-2.58v-133.59h0ZM327.89,432.97l5.1-.22v139.98l-5.1-2.53v-137.24.01ZM386.91,497.62s.04,0,.06.01h0c.02.01.03.03.05.04l6.54,3.24h.02s.01.01.02.01c.02.01.03.02.05.03.03.02.05.05.09.07l5.34,2.65-23.82,15.99-34.66-17.21v-27.82l6.16,3.05h.02c.02,0,.04.01.06.02.02,0,.03.03.04.03l6.54,3.24h.02c.04.02.09.03.14.04l.02.02,6.54,3.3h.02c.02,0,.04.02.06.02s.03.03.04.03l6.54,3.24s.09.02.14.03h.01c.01,0,.02.02.03.02l6.44,3.19c.06.07.13.13.22.17l6.54,3.24s.09.02.14.03h.01c.01,0,.02.02.03.02l6.54,3.24.01.0601ZM381.41,493.28v-62.59l5.1-.22v65.33l-5.1-2.53v.01ZM388.07,496.58v-66.17l3.43-.15,1.67,1.73v67.12l-5.1-2.53h0ZM406.95,507.58h.02c.02,0,.04.01.05.02.02,0,.03.02.04.03l6.6,3.3h.02c.02,0,.04.01.06.02.02,0,.03.03.04.03l6.54,3.24h.02c.02,0,.04.01.06.02.02.01.03.03.05.04l6.6,3.24h.02c.02,0,.03.01.05.02.02,0,.03.02.04.03l6.54,3.3h.02c.02,0,.04.02.06.02.02.01.03.03.05.04l6.6,3.24h.02c.02,0,.04.01.05.02.02,0,.03.03.04.03l6.54,3.24h.02c.02,0,.03.01.05.02.02,0,.03.02.04.03l4.1,2.08v27.8l-74.55-37.02,23.82-15.99,6.37,3.16.0202.0401ZM401.45,503.24v-62.68l5.1,5.28v59.94l-5.1-2.53v-.01ZM408.11,506.54v-59.1l5.16,5.34v56.34l-5.16-2.58ZM414.83,509.9v-55.5l5.1,5.28v52.76l-5.1-2.53v-.01ZM421.4901,513.2v-51.91l5.16,5.34v49.11l-5.16-2.53v-.01ZM428.21,516.51v-48.27l5.1,5.28v45.57l-5.1-2.57v-.01ZM434.8701,519.86v-44.73l5.16,5.34v41.93l-5.16-2.53v-.01ZM441.59,523.16v-41.08l5.1,5.28v38.34l-5.1-2.53v-.01ZM399.89,502.47l-5.1-2.53v-66.27l5.1,5.28v63.53-.01ZM337.37,473.04l1.8.89v28.6l-1.8,1.21v-30.7ZM379.79,492.51l-5.1-2.53v-59.01l5.1-.22v61.76ZM373.13,489.15l-5.1-2.53v-55.36l5.1-.22v58.11ZM366.41,485.85l-5.1-2.53v-51.78l5.1-.22v54.53ZM359.75,482.54l-5.1-2.57v-48.14l5.1-.22v50.93h0ZM353.03,479.19l-5.1-2.53v-44.55l5.1-.22v47.3ZM346.37,475.89l-5.1-2.53v-40.97l5.1-.22v43.72ZM339.71,472.59l-2.54-1.25c-.11-.12-.26-.19-.43-.21l-.37-.18h-.02c-.05-.02-.1-.03-.15-.04-.04,0-.09-.02-.13-.03h-.02c-.04,0-.08.02-.12.02-.05,0-.09.01-.14.03-.05.02-.09.05-.13.07-.04.02-.07.04-.11.07-.04.04-.07.08-.1.12-.02.03-.05.05-.06.08v.02c-.02.04-.03.09-.04.14-.01.05-.03.09-.03.14v33.92s.01.04.02.06c0,.09.03.17.07.25.02.03.03.06.05.09.05.08.12.14.2.2.01,0,.02.03.03.03h.01s.01,0,.02.01l3.99,2.02v67.88l-5.16-2.53v-140.82l5.16-.22v40.13ZM379.79,596l-5.1-2.57v-67.93l5.1,2.57v67.93ZM373.13,592.65l-5.1-2.53v-67.93l5.1,2.53v67.93ZM366.41,589.35l-5.1-2.53v-67.93l5.1,2.53v67.93ZM359.75,585.99l-5.1-2.53v-67.92l5.1,2.57v67.88h0ZM353.03,582.69l-5.1-2.53v-67.93l5.1,2.53v67.93ZM346.37,579.39l-5.1-2.53v-67.93l5.1,2.53v67.93ZM386.51,599.31l-5.1-2.53v-67.93l5.1,2.53v67.93ZM393.17,602.61l-5.1-2.53v-67.93l5.1,2.53v67.93ZM399.89,605.96l-5.1-2.57v-67.88l5.1,2.53v67.92ZM406.55,609.27l-5.1-2.53v-67.93l5.1,2.53v67.93ZM413.27,612.57l-5.16-2.53v-67.93l5.16,2.53v67.94-.01ZM419.9301,615.92l-5.1-2.57v-67.88l5.1,2.53v67.92ZM426.65,619.23l-5.16-2.53v-67.94l5.16,2.53v67.94h0ZM433.3101,622.53l-5.1-2.53v-67.92l5.1,2.57v67.88ZM440.03,625.89l-5.16-2.53v-67.94l5.16,2.53v67.94ZM446.69,629.19l-5.1-2.53v-67.93l5.1,2.53v67.93ZM446.4301,558.85l-4.63-2.34c-.06-.03-.12-.05-.19-.06l-6.53-3.24-.06-.03-.06-.03-4.11-2.04-6.47-3.21-2.68-1.35s-.04-.02-.07-.03l-.06-.03-6.54-3.24s-.07-.02-.1-.03l-9.05-4.49-4.22-2.13-.06-.03-.06-.03-6.51-3.2-8.6-4.27-4.86-2.43s-.04-.02-.06-.03-.04-.02-.06-.03l-6.54-3.24s-.04-.02-.06-.03-.04-.02-.06-.03l-2.3-1.13-4.28-2.13s-.08-.08-.14-.11l-6.54-3.24s-.04-.02-.06-.03-.04-.02-.06-.03l-6.54-3.24s-.1-.04-.15-.05l-6.5-3.23c-.05-.05-.11-.11-.18-.14l-6.54-3.24c-.06-.03-.12-.05-.19-.06l-3.24-1.62,1.9-1.28,111.36,55.29v2.23l-4.88-2.42h-.0201ZM453.35,632.49l-5.1-2.53v-67.92l3.45,1.75h.02c.09.04.19.07.3.07h0c.12,0,.23-.04.33-.09.03-.01.05-.03.08-.05.08-.06.15-.13.2-.22,0-.01.03-.02.03-.04v-.02c.02-.04.03-.09.04-.14.01-.05.03-.09.03-.13v-33.98s-.02-.07-.02-.1c0-.05-.01-.1-.03-.15-.02-.04-.04-.08-.07-.12-.02-.04-.05-.08-.08-.11-.03-.04-.08-.06-.12-.09-.03-.02-.05-.05-.08-.07l-4.1-2.08v-37.5l5.1,5.28v138.25l.02-.0101ZM460.07,635.85l-5.1-2.53v-137.4l5.1,5.28v134.66-.0099ZM466.73,639.15l-5.1-2.53v-133.81l5.1,5.28v131.07-.01ZM473.45,642.5l-5.1-2.57v-130.17l4.88,5.05s.05.03.08.05.04.05.07.07c.01,0,.03,0,.04.01.01,0,.02.01.03.02v127.54h0ZM473.61,513.13l-5.37-5.56c-.05-.08-.12-.15-.2-.21l-26.64-27.55s-.03-.03-.04-.05l-.09-.09s-.01-.01-.02-.02l-6.68-6.91s-.04-.05-.07-.07l-6.44-6.66c-.04-.05-.08-.1-.14-.14-.03-.04-.07-.08-.12-.12l-13.21-13.67c-.06-.09-.13-.17-.22-.23l-13.12-13.57s-.03-.03-.04-.04l-.09-.09s-.01-.01-.02-.02l-6.49-6.71s-.06-.07-.09-.1l-.1-.1-.06-.06-2.06-2.13c-.14-.15-.34-.23-.55-.22l-4.38.19h-.03c-.02,0-.03,0-.05.01h-.01s-.03-.01-.05-.01c-.03,0-.05.01-.08.02l-19.76.84s-.05-.02-.08-.02-.06.01-.09.02c-.03,0-.06-.02-.09-.02-.06,0-.12.02-.17.03l-6.35.27h-.13c-.02,0-.04.01-.07.01l-13.05.55s-.09-.03-.14-.03c-.08,0-.14.02-.21.04l-6.38.27s-.04-.01-.07-.01c-.02,0-.04.01-.06.01s-.04-.01-.06-.01c-.05,0-.09.02-.14.03l-6.45.27h-.18l-13.09.56s-.08-.03-.13-.03c-.02,0-.04.01-.06.01s-.04-.01-.06-.01c-.08,0-.15.02-.23.05l-6.26.27s-.04-.01-.06-.01-.04.01-.06.01-.04-.01-.06-.01c-.04,0-.08.02-.12.02l-1.29.05s-.06-.02-.09-.02c-.04,0-.08.02-.12.02s-.08-.02-.12-.02h-.06c-.08,0-.15.02-.22.05l-1.26.05-1.34-3.64,82.16-3.46,83.42,86.27-1,1.69-.0099.0101ZM475.13,643.33l-.12-.06v-128.95l.12-.08v129.09ZM481.67,640.59l-4.2,2.86v-130.01l4.2-2.82v129.97h0ZM487.4301,636.75l-4.2,2.81v-129.97l4.2-2.81v129.97ZM486.82,502.88l-10.11,6.83-82.99-85.89,13.05-8.74h0c.01,0,.03-.01.04-.02.09-.06.16-.14.22-.23h0c.02-.02.03-.04.04-.06.02-.02.04-.05.06-.08s.04-.05.06-.08h0c.07-.07.12-.15.15-.23l82.98,85.83-.13.22-.25.37-3.14,2.12.0201-.04ZM493.13,632.91l-4.14,2.8v-129.96l4.14-2.8v129.96ZM498.89,629.01l-4.2,2.81v-129.97l4.2-2.81v129.97ZM491.77,499.57l-82.99-85.84,12.85-8.66c.09-.02.17-.05.25-.1.13-.09.21-.21.28-.34,0,0,0-.02.01-.03,0,0,0-.02.01-.02.01-.02.03-.02.04-.04l.14-.22s.02-.03.03-.04l.02-.02,82.95,85.85-.28.5-.06.09-13.25,8.89v-.02ZM504.65,625.17l-4.2,2.82v-129.97l4.2-2.82v10.03l-2.02,1.35s-.02.02-.03.03c-.02.02-.04.03-.06.05s-.04.05-.06.08-.05.06-.07.09c0,.01-.02.02-.03.04v.02l-.03.09c-.01.04-.02.08-.03.12v7.17s.02.07.02.1c0,.05.01.11.03.15s.04.08.07.12c.02.04.05.08.08.12s.08.06.12.09c.03.02.05.05.09.07l1.94.96v109.31l-.02-.0199ZM510.41,621.33l-4.2,2.81v-107.51l4.2,2.08v102.62ZM513.69,520.45s-.04.08-.05.12c-.02.05-.02.09-.03.14,0,.02-.01.05-.01.07v98.37l-1.62,1.08v-100.77l1.77.88s-.04.06-.06.09v.0199ZM511.73,517.75c-.07-.07-.15-.12-.25-.16-.08-.04-.16-.07-.25-.09l-5.42-2.68s-.05-.03-.08-.04c-.03-.02-.06-.03-.08-.04l-1.89-.94v-5.47l28.5,14.11v5.47l-20.52-10.15-.0099-.01ZM580.55,573.39l-65.52,43.97v-2.95l65.52-43.97v2.95h0ZM585.17,571.11l-2.52,1.72v-76.26l2.52-1.69v76.24-.01ZM590.9301,567.27l-4.2,2.82v-76.26l4.2-2.82v76.26ZM596.69,563.37l-4.2,2.81v-76.23l4.2-2.82v76.24ZM602.45,559.53l-4.2,2.81v-76.26l4.2-2.82v76.27ZM608.21,555.69l-4.2,2.82v-76.29l4.2-2.82v76.29ZM613.97,551.79l-4.2,2.82v-76.26l4.2-2.82v76.26ZM619.73,547.95l-4.2,2.81v-76.29l4.2-2.82v76.3ZM620.19,469.61c-.1.04-.18.1-.25.17l-11.28,7.58c-.09.04-.17.09-.24.16l-5.39,3.62c-.09.04-.16.09-.22.15l-5.68,3.82c-.09.04-.16.09-.22.15l-5.39,3.62s-.08.03-.11.05c-.14.05-.26.14-.35.26l-5.24,3.52c-.15.04-.28.12-.37.24-.01,0-.02.02-.03.03l-3.69,2.48c-.15.04-.27.13-.36.24l-.36.24c-.14.04-.26.12-.36.24l-46.96,31.55v-5.35l88.68-59.57v5.35l-2.18,1.46v-.0099ZM625.4901,544.11l-4.2,2.82v-76.31l2.2-1.48c.2-.13.32-.36.32-.6v-7.13c0-.02-.02-.04-.02-.06-.01-.09-.04-.17-.08-.24-.02-.03-.03-.06-.06-.08-.05-.07-.12-.13-.2-.17-.02,0-.02-.03-.04-.04l-2.12-1.05v-42.86l4.2-2.82v130.03-.01ZM631.19,540.21l-4.2,2.82v-129.97l4.2-2.82v129.97ZM636.95,536.37l-4.2,2.81v-129.97l4.2-2.82v129.98ZM642.71,532.53l-4.2,2.82v-130.03l4.2-2.81v130.03-.01ZM648.47,528.63l-4.2,2.82v-129.97l4.2-2.82v129.97ZM654.23,524.79l-4.2,2.82v-129.97l4.2-2.82v129.97ZM659.9901,520.89l-4.2,2.86v-130.01l4.2-2.82v129.97h0ZM665.75,517.05l-4.2,2.82v-129.97l4.2-2.82v129.97ZM671.51,513.21l-4.2,2.82v-129.97l4.2-2.82v129.97ZM677.21,509.31l-4.2,2.81v-129.97l4.2-2.82v129.98ZM682.97,505.47l-4.2,2.82v-129.97l4.2-2.82v129.97ZM688.73,501.63l-4.2,2.82v-129.97l4.2-2.82v129.97ZM694.4901,497.73l-4.2,2.82v-129.97l4.2-2.82v129.97ZM700.25,493.89l-4.2,2.82v-129.97l4.2-2.82v129.97ZM706.01,490.05l-4.2,2.82v-129.97l4.2-2.86v130.01h0ZM711.77,486.15l-4.2,2.81v-129.97l4.2-2.82v129.98ZM702.07,358.33l-82.96-85.86,12.82-8.64c.09-.02.17-.05.25-.1.13-.09.21-.21.28-.35,0-.01.01-.02.02-.03v-.01c.01-.02.03-.02.04-.04l.14-.23s.02-.02.02-.04l.02-.03,82.95,85.85-.37.61h0l-13.2,8.86-.0101.01ZM717.53,482.31l-4.2,2.81v-129.97l4.2-2.82v129.98ZM723.23,478.47l-4.2,2.82v-130.03l4.2-2.82v130.03ZM728.9901,474.57l-4.2,2.81v-129.97l4.2-2.81v129.97ZM717.07,348.25l-82.97-85.87,12.99-8.74.08-.04c.13-.07.24-.18.31-.31.12-.08.21-.19.26-.32l82.93,85.77-.3.53-13.3,8.99v-.01ZM734.75,470.73l-4.2,2.82v-129.97l4.2-2.82v129.97ZM740.51,466.89l-4.2,2.82v-130.03l4.2-2.82v130.03ZM745.39,329.21s-.05.05-.08.08l-13.21,8.86-83.01-85.85,13.09-8.77h0c.01,0,.03-.01.04-.02.12-.09.21-.21.28-.34v-.02s0-.02.01-.03c.02-.03.05-.06.07-.1.01-.01.02-.03.03-.04h0c.04-.05.08-.1.1-.16l82.97,85.87-.32.52h.03Z"/>
  </g>
</svg>