<?xml version="1.0" encoding="UTF-8"?>
<svg xmlns="http://www.w3.org/2000/svg" viewBox="0 0 1000 1000">
  <g id="Layer_2" data-name="Layer 2">
    <path d="M322.894,558.408c-.5228,0-.9191.3035-.9191.7083s.3963.7083.9191.7083.9191-.3035.9191-.7083-.3963-.7083-.9191-.7083ZM322.894,570.0526c-.5228,0-.9191.3035-.9191.7083s.3963.7083.9191.7083.9191-.3035.9191-.7083-.3963-.7083-.9191-.7083ZM322.894,566.1739c-.5228,0-.9191.3035-.9191.7083s.3963.7083.9191.7083.9191-.3035.9191-.7083-.3963-.7083-.9191-.7083ZM322.894,550.6505c-.5228,0-.9191.3035-.9191.7083s.3963.7083.9191.7083.9191-.3035.9191-.7083-.3963-.7083-.9191-.7083ZM326.2584,564.2345c-.5228,0-.9191.3035-.9191.7083s.3963.7083.9191.7083.9191-.3035.9191-.7083-.3963-.7083-.9191-.7083ZM326.2584,568.1132c-.5228,0-.9191.3035-.9191.7083s.3963.7083.9191.7083.9191-.3035.9191-.7083-.3963-.7083-.9191-.7083ZM322.894,554.5292c-.5228,0-.9191.3035-.9191.7083s.3963.7083.9191.7083.9191-.3035.9191-.7083-.3963-.7083-.9191-.7083ZM316.1737,554.5292c-.5228,0-.9191.3035-.9191.7083s.3963.7083.9191.7083.9191-.3035.9191-.7083-.3963-.7083-.9191-.7083ZM319.5381,548.7111c-.5228,0-.9191.3035-.9191.7083s.3963.7083.9191.7083.9191-.3035.9191-.7083-.3963-.7083-.9191-.7083ZM319.5381,556.4686c-.5228,0-.9191.3035-.9191.7083s.3963.7083.9191.7083.9191-.3035.9191-.7083-.3963-.7083-.9191-.7083ZM319.5381,571.992c-.5228,0-.9191.3035-.9191.7083s.3963.7083.9191.7083.9191-.3035.9191-.7083-.3963-.7083-.9191-.7083ZM319.5381,568.1132c-.5228,0-.9191.3035-.9191.7083s.3963.7083.9191.7083.9191-.3035.9191-.7083-.3963-.7083-.9191-.7083ZM316.1737,546.7717c-.5228,0-.9191.3035-.9191.7083s.3963.7083.9191.7083.9191-.3035.9191-.7083-.3963-.7083-.9191-.7083ZM319.5381,552.5899c-.5228,0-.9191.3035-.9191.7083s.3963.7083.9191.7083.9191-.3035.9191-.7083-.3963-.7083-.9191-.7083ZM316.1737,550.6505c-.5228,0-.9191.3035-.9191.7083s.3963.7083.9191.7083.9191-.3035.9191-.7083-.3963-.7083-.9191-.7083ZM326.2584,560.3558c-.5228,0-.9191.3035-.9191.7083s.3963.7083.9191.7083.9191-.3035.9191-.7083-.3963-.7083-.9191-.7083ZM319.5381,560.3558c-.5228,0-.9191.3035-.9191.7083s.3963.7083.9191.7083.9191-.3035.9191-.7083-.3963-.7083-.9191-.7083ZM319.5381,564.2345c-.5228,0-.9191.3035-.9191.7083s.3963.7083.9191.7083.9191-.3035.9191-.7083-.3963-.7083-.9191-.7083ZM322.894,562.2951c-.5228,0-.9191.3035-.9191.7083s.3963.7083.9191.7083.9191-.3035.9191-.7083-.3963-.7083-.9191-.7083ZM469.35,550.7685s-.0084-.0337-.0169-.059c0-.0169-.0084-.0337-.0169-.0506v-.0253l-.0169-.0169c-.0084-.0169-.0169-.0253-.0337-.0421l-.0421-.0421c-.0169-.0084-.0253-.0253-.0421-.0337l-.0169-.0169-3.1114-1.796s-.0337-.0084-.0506-.0169c-.0253-.0084-.0506-.0253-.0843-.0253h-.1518c-.0337,0-.059.0169-.0843.0253-.0169,0-.0337,0-.0506.0169l-43.5683,25.1527-.0169.0169c-.0169.0084-.0337.0253-.0421.0337l-.0421.0421c-.0084.0169-.0253.0253-.0337.0421l-.0169.0169v.0253c0,.0169-.0169.0337-.0169.0506s-.0084.0337-.0169.059v29.3435s0,.0337.0084.0506c0,.0253,0,.059.0169.0843.0084.0253.0253.0506.0337.0674.0169.0253.0253.0421.0421.0674s.0421.0421.0674.059c.0169.0084.0253.0253.0337.0337l3.1114,1.796h.0169c.059.0253.1181.0506.1855.0506h0c.0674,0,.1265-.0169.1855-.0506h.0169l43.5683-25.1527.0337-.0337c.0253-.0169.0506-.0337.0674-.059.0169-.0169.0337-.0421.0421-.0674.0169-.0253.0253-.0421.0337-.0674s.0169-.059.0169-.0843c0-.0169.0084-.0337.0084-.0506v-29.3435h-.0169ZM424.9554,604.5312l-2.2682-1.307v-28.2895l2.2682,1.307v28.2895ZM425.377,575.5165l-2.2682-1.307,42.7251-24.6637,2.2682,1.307-42.7251,24.6637h0ZM468.5237,579.8675l-42.7251,24.6637v-28.2895l42.7251-24.6637v28.2895h0ZM336.3431,562.2951c-.5228,0-.9191.3035-.9191.7083s.3963.7083.9191.7083.9191-.3035.9191-.7083-.3963-.7083-.9191-.7083ZM342.8021,589.5306l-1.4503.8348s-.0084.0084-.0169.0169c-.0169.0084-.0337.0253-.0506.0337-.0169.0169-.0253.0253-.0422.0421-.0084.0169-.0253.0253-.0337.0421,0,0-.0084.0084-.0169.0169v.0253c0,.0169-.0169.0337-.0169.0506s-.0084.0337-.0169.059v.2192s0,.0337.0084.0506c0,.0253,0,.059.0169.0843.0084.0253.0253.0506.0337.0674.0169.0253.0253.0421.0422.0674s.0422.0421.0675.059c.0169.0084.0253.0253.0337.0337l1.6527.9528h0c.0506.0337.1265.0506.2024.059h.0759c.059,0,.1265-.0169.1855-.0506h.0253l1.5515-.8938h0c.0337-.0169.059-.0506.0928-.0759.0169-.0169.0253-.0337.0422-.0506l.118-.0674s.0253-.0253.0337-.0337c.0253-.0169.0506-.0337.0675-.059.0169-.0169.0337-.0421.0422-.0674.0169-.0253.0253-.0421.0337-.0674s.0169-.059.0169-.0843c0-.0169.0084-.0337.0084-.0506v-29.588c0-.0169-.0084-.0337-.0169-.059,0-.0169-.0084-.0337-.0169-.0506v-.0253c0-.0084-.0084-.0084-.0169-.0169-.0084-.0169-.0169-.0253-.0337-.0421-.0169-.0169-.0253-.0253-.0422-.0421-.0169-.0084-.0253-.0253-.0422-.0337,0,0-.0084-.0084-.0169-.0169l-42.6829-24.6384s-.0337-.0084-.0506-.0169c-.0253-.0084-.059-.0253-.0843-.0253h-.1518c-.0337,0-.059.0169-.0843.0253-.0169,0-.0337,0-.0422.0169l-32.008,18.483s-.0084.0084-.0169.0169c-.0169.0084-.0337.0253-.0422.0337-.0169.0169-.0253.0253-.0422.0421-.0084.0169-.0253.0253-.0337.0421,0,0-.0084.0084-.0169.0169v.0253c0,.0169-.0169.0337-.0169.0506s-.0084.0337-.0169.059v29.588c0,.1939.1349.3457.312.3963.0253.1012.0928.1939.1939.2445l1.5599.9022c.0675.0421.1349.059.2108.059.0422,0,.0759-.0169.118-.0337.0169,0,.0337.0169.0506.0169.0675,0,.1433-.0169.2108-.059l1.3238-.7673c.1433-.0843.2108-.2361.2024-.3879h.0084c.059-.0337.1012-.0843.1433-.1434,0,0,.0084,0,.0169-.0169.0084-.0169.0084-.0337.0169-.0506.0084-.0253.0253-.0506.0253-.0843v-.1518c0-.0253-.0169-.0506-.0253-.0843,0-.0169,0-.0337-.0169-.0506,0,0-.0084-.0084-.0169-.0169-.0169-.0253-.0337-.0421-.059-.059-.0169-.0169-.0422-.0421-.059-.059,0,0-.0084-.0084-.0169-.0169l-1.4503-.8348v-.9444l38.1634,22.0329v3.727s0,.0337.0084.0506c0,.0253,0,.059.0169.0843,0,.0169.0169.0337.0253.0506.0253.1012.0928.1939.1939.253l1.5599.9022c.0675.0337.1349.0506.2024.059.059.0337.1265.0506.1939.0506h.0337c.0422.0084.0759.0337.118.0337.0675,0,.1433-.0169.2108-.059l1.5599-.9022c.1012-.059.1686-.1602.1939-.2698.0084-.0084.0084-.0253.0169-.0421.0169-.0253.0253-.0421.0337-.0674s.0169-.059.0169-.0843c0-.0169.0084-.0337.0084-.0506v-3.727l27.4884-15.8691v.9444l-.0253-.0338ZM342.4057,590.7364l.2277-.1349c-.0253.0927-.0253.1771,0,.2614l-.2277-.1349v.0084ZM342.8021,585.5591l-1.8129,1.0456s0-.0337-.0084-.0506l1.3407-.7758h0l.4806-.2782v.059ZM315.3136,600.4079v-18.7866l9.6884-5.5904,16.2738,9.3933-25.9622,14.9837h0ZM340.0363,587.1612l-7.0492,4.0727s0-.0337-.0084-.0506l7.0239-4.0558s.0253.0253.0337.0337ZM332.0343,591.7819l-7.0492,4.0727s0-.0337-.0084-.0506l7.0239-4.0558s.0253.0253.0337.0337ZM324.0323,596.3943l-7.0492,4.0727s0-.0337-.0084-.0506l7.0239-4.0558s.0253.0253.0337.0337ZM316.3929,600.8042l-.1096.0674s-.0253-.0169-.0337-.0337l.1265-.0759.0253.0421h-.0084ZM316.0556,601.0066l-.742.43v-.0506l.6999-.4047s.0253.0253.0337.0337l.0084-.0084ZM331.7308,578.8894v.0506l-5.894-3.3981.0422-.0253,5.8434,3.3728h.0084ZM326.8318,574.9685l.0506-.0253,4.5111,2.6055s-.0253.0169-.0337.0337l-4.5196-2.6055-.0084-.0084ZM340.0195,582.5826l-7.7153-4.4521s0-.0337.0084-.0506l7.7406,4.469s-.0253.0169-.0337.0337h0ZM340.3989,583.8896v.0506l-7.884-4.5533s.0253-.0253.0337-.0337l7.8502,4.528v.0084ZM341.1831,584.3955s.0253-.0253.0337-.0337l.936.5397-.0422.0253-.9275-.5397v.0084ZM342.8021,584.1847l-1.8297-1.054s0-.0337.0084-.0506l1.8129,1.0456v.0506l.0084.0084ZM342.8021,583.156l-15.0765-8.7103,15.0765-8.7103v17.4206ZM342.8021,564.7741l-1.307.7505c.0169-.1855-.059-.371-.2277-.4638-.0928-.059-.253-.0759-.3626-.0506-.0337.0084-.0675.0337-.1012.0506-.0169,0-.0337.0169-.0506.0253-.0253.0169-.0422.0253-.0675.0506s-.0506.0506-.0759.0843c-.0169.0169-.0337.0337-.0506.059s-.0169.0506-.0253.0759c-.0169.0337-.0253.0674-.0337.1012,0,.0253,0,.0506-.0084.0759v.059c0,.1602.0759.3035.2108.3879l-7.2178,4.1654c.0169-.1855-.059-.371-.2277-.4638-.1433-.0843-.3204-.0759-.4638,0-.0169,0-.0337.0169-.0506.0253-.0169.0169-.0337.0253-.0506.0421-.0253.0253-.0506.0506-.0759.0843-.0169.0253-.0337.0337-.0506.059s-.0169.0506-.0253.0759c-.0169.0337-.0253.059-.0337.0927,0,.0253,0,.0506-.0084.0759v.0506c0,.1602.0759.3035.2024.3879l-7.2178,4.1654c.0169-.1855-.0675-.371-.2361-.4722-.1518-.0843-.3204-.0674-.4638.0169-.0169,0-.0253.0169-.0337.0169-.0253.0169-.0506.0337-.0675.0506-.0253.0253-.0422.0506-.059.0759s-.0422.0421-.059.0674-.0169.0506-.0253.0759c-.0169.0337-.0337.0674-.0337.1096,0,.0253,0,.0506-.0084.0759v.1687c.0253.1012.1096.2024.2024.2614l-7.2178,4.1654c.0169-.1855-.059-.371-.2277-.4638-.1012-.059-.253-.0759-.3626-.0506-.0422.0084-.0759.0337-.1096.059-.0169,0-.0253.0169-.0422.0169-.0253.0169-.0422.0253-.0675.0506s-.0506.0506-.0759.0843c-.0169.0169-.0337.0337-.0506.059s-.0169.0506-.0253.0759c-.0169.0337-.0253.059-.0337.0927,0,.0253,0,.0506-.0084.0843v.0506c0,.1602.0759.3035.2108.3879l-1.3997.8095v-.9444l27.4884-15.8691v.9444l.0252.0338ZM344.4969,563.5515l.2024-.1181v3.4403s-.0253-.0337-.0506-.0421l-.1518-.0927c-.2024-.1181-.4638-.0421-.5734.1518-.118.2024-.0506.4638.1518.5734l.1518.0927c.0675.0337.1349.059.2108.059.0928,0,.1855-.0421.2614-.1012v17.7663c-.059-.0337-.1265-.0506-.1939-.0506-.0928,0-.1771.0337-.2445.0927-.1265.0506-.2192.1518-.2614.2867-.1012.1012-.1433.2361-.118.371-.0084.0843,0,.1771.0422.2614.0759.1349.2192.2108.3626.2108.0675,0,.1433-.0169.2108-.059l.2024-.1181v4.216h-.0084l-.9275.5397v-3.4403s.0422.0169.0675.0169h0c.0675,0,.1349-.0169.1855-.0506.0169,0,.0253-.0169.0422-.0253.0422-.0253.0759-.0674.1096-.1096,0-.0084.0169-.0169.0253-.0253v-.0253c.0169-.0253.0169-.0506.0253-.0843,0-.0253.0169-.0506.0169-.0843v-.2782c0-.2361-.1855-.4216-.4216-.4216-.0253,0-.0506.0084-.0759.0169v-21.6787s.0422,0,.0675-.0169l.2108-.1265h0s.0253-.0253.0422-.0337c.0253-.0169.0506-.0337.0675-.059.0169-.0169.0253-.0337.0337-.0506,0,0,.0084,0,.0169-.0169v-.0253c0-.0169.0169-.0337.0169-.0506s.0084-.0337.0169-.059v-.3288c0-.2361-.1855-.4216-.4216-.4216-.0253,0-.0506.0084-.0759.0169v-.4132l.1096-.059c0,.059.0169.1265.0506.1771.0759.1349.2192.2108.3626.2108.0675,0,.1433-.0169.2108-.059l.0506.0253ZM270.8515,556.5698l.4891.2782c-.0253.059-.0422.1181-.0422.1771v.1771c-.0675-.0506-.1518-.0843-.2445-.0843-.0759,0-.1349.0253-.1939.0506v-.6071l-.0084.0085ZM271.7875,584.8761l-.9275-.5312h-.0084v-3.3222l.2024.1181c.0675.0337.1349.059.2108.059.1433,0,.2867-.0759.3626-.2108.0506-.0843.059-.1687.0422-.2614v-.1265l.0422.0253s.0422.0084.0675.0169v4.2413l.0084-.0084ZM271.7875,579.4712s-.0506-.0169-.0759-.0169c-.2361,0-.4216.1855-.4216.4216v.1771c-.0675-.0506-.1518-.0843-.2445-.0843-.0759,0-.1349.0253-.1939.0506v-21.8558l.2024.1181c.0675.0337.1349.059.2108.059.1433,0,.2867-.0759.3626-.2108.0506-.0843.059-.1687.0422-.2614v-.1265l.0422.0253s.0422.0084.0675.0169v21.6787l.0084.0084ZM273.145,584.5726l-.3963.2277v-.4553l.3963.2277h0ZM310.9121,603.4856l-1.3997-.8095c.1349-.0843.2024-.2361.2108-.3879v-.0506c0-.0253,0-.0506-.0084-.0759,0-.0337-.0169-.0674-.0337-.0927-.0084-.0253-.0169-.0506-.0253-.0759-.0169-.0253-.0337-.0421-.0506-.059-.0253-.0337-.0422-.059-.0759-.0927-.0169-.0169-.0422-.0337-.059-.0421-.0169-.0084-.0337-.0169-.0506-.0253-.0337-.0169-.0675-.0421-.1012-.0506-.1096-.0253-.2614-.0084-.3626.0506-.1602.0927-.2361.2782-.2277.4638l-7.884-4.5533c.1349-.0843.2024-.2361.2108-.3879v-.0506c0-.0253,0-.0506-.0084-.0843,0-.0337-.0169-.0674-.0337-.0927-.0084-.0253-.0169-.0506-.0253-.0759s-.0337-.0337-.0506-.059c-.0253-.0337-.0506-.0674-.0759-.0927-.0169-.0169-.0422-.0337-.059-.0421-.0169,0-.0253-.0169-.0422-.0253-.0337-.0169-.0675-.0421-.1096-.059-.1096-.0337-.2614-.0084-.3626.0506-.1602.0927-.2445.2782-.2277.4638l-7.884-4.5533c.1349-.0843.2024-.2277.2024-.3879v-.1265c0-.0337-.0169-.0759-.0422-.1096-.0084-.0253-.0169-.0506-.0253-.0759-.0169-.0253-.0337-.0337-.0506-.059-.0253-.0337-.0422-.059-.0759-.0843-.0169-.0169-.0422-.0337-.059-.0421-.0169-.0084-.0337-.0169-.0422-.0253-.0337-.0169-.0675-.0421-.1096-.0506-.1012-.0253-.253-.0084-.3541.0421h0c-.0928.059-.1855.1771-.2192.2782-.0169.059-.0169.1181-.0084.1855l-7.8839-4.5533c.1349-.0843.2024-.2361.2108-.3879v-.0506c0-.0253,0-.0506-.0084-.0759,0-.0337-.0169-.0674-.0337-.0927-.0084-.0253-.0169-.0506-.0253-.0759-.0169-.0253-.0337-.0421-.0506-.059-.0169-.0253-.0422-.0506-.0675-.0759-.0169-.0169-.0422-.0337-.0675-.0506-.0169,0-.0253-.0169-.0422-.0253-.1433-.0759-.312-.0927-.4638-.0169h0c-.1602.0927-.2361.2782-.2277.4638l-7.8839-4.5533c.1349-.0843.2024-.2361.2108-.3963v-.0421c0-.0253,0-.059-.0084-.0843,0-.0337-.0169-.059-.0337-.0927-.0084-.0253-.0169-.0506-.0253-.0843-.0169-.0253-.0337-.0421-.0506-.059-.0253-.0337-.0422-.059-.0759-.0843-.0169-.0169-.0422-.0337-.0675-.0506-.0169,0-.0253-.0169-.0422-.0169-.0337-.0169-.0675-.0421-.1096-.059-.1096-.0253-.2614-.0084-.3626.0506-.1602.0927-.2445.2782-.2277.4638l-1.307-.7505v-1.0793l38.1634,22.0329v1.0793-.0085ZM283.5333,571.798s-.0253-.0253-.0337-.0337l5.1773-2.9849.0506.0253-5.1857,2.9934h-.0084ZM289.6634,569.3527l.0422.0253-6.5601,3.786v-.0506l6.5095-3.7607h.0084ZM272.7487,577.0006v-17.4121l15.0765,8.7103-15.0765,8.7103v-.0084ZM282.9599,572.1269l-.1096.0674v-.0506h0l.0928-.059.0253.0421h-.0084ZM275.5313,576.4188s-.0253-.0253-.0337-.0337l7.0745-4.0811s0,.0337.0084.0506l-7.0492,4.0727v-.0084ZM282.3697,573.6193l-7.2178,4.1654v-.0506l7.1841-4.1486s.0253.0253.0337.0337ZM274.9579,576.7476l-.1096.0674v-.0506h0l.0928-.059.0253.0421h-.0084ZM274.5616,576.9247s0,.0337.0084.0506l-1.8297,1.054v-.0506l1.8129-1.0456.0084-.0084ZM274.3677,578.2401l-.9275.5397-.0422-.0253.936-.5397s.0253.0253.0337.0337v-.0084ZM273.2293,579.623h0l1.3407.7758s0,.0337-.0084.0421l-1.8129-1.0456v-.0506s.4806.2782.4806.2782ZM275.4891,580.9889s.0253-.0169.0337-.0337l7.7153,4.4521s0,.0337-.0084.0506l-7.7406-4.469ZM283.508,585.6097s0-.0337.0084-.0421l.1349.0759.0422.0759-.1855-.1096h0ZM284.1573,585.9891s.0253-.0169.0337-.0337l7.7153,4.4521s0,.0337-.0084.0506c0,0-7.7406-4.469-7.7406-4.469ZM292.8338,590.9978s.0253-.0169.0337-.0337l7.7153,4.4521s0,.0337-.0084.0506l-7.7406-4.469h0ZM301.502,595.998s.0253-.0169.0337-.0337l7.7153,4.4521s0,.0337-.0084.0506l-7.7406-4.469ZM309.5208,600.6271s0-.0337.0084-.0421l.1349.0759.0422.0759-.1855-.1096h0ZM310.9121,601.4366l-.742-.43s.0253-.0169.0337-.0337l.6999.4047v.0506l.0084.0084ZM310.9121,600.4079l-36.6288-21.1475,16.2738-9.3933,20.3549,11.7543v18.7866ZM310.9121,580.6432l-1.3997-.8095c.1349-.0843.2024-.2361.2108-.3879v-.0506c0-.0253,0-.0506-.0084-.0759,0-.0337-.0169-.0674-.0337-.0927-.0084-.0253-.0169-.0506-.0253-.0759s-.0337-.0337-.0506-.059c-.0253-.0337-.0506-.0674-.0759-.0927-.0169-.0169-.0337-.0253-.059-.0421-.0169-.0084-.0337-.0169-.0506-.0253-.0337-.0169-.0675-.0421-.1096-.0506-.1096-.0253-.2614-.0084-.3626.0506-.1602.0927-.2361.2782-.2277.4638l-7.884-4.5533c.1349-.0843.2024-.2361.2108-.3963v-.0506c0-.0253,0-.0506-.0084-.0759,0-.0337-.0169-.0674-.0337-.1012-.0084-.0253-.0169-.0506-.0253-.0759-.0169-.0253-.0337-.0337-.0506-.059-.0253-.0337-.0506-.0674-.0759-.0927-.0169-.0169-.0422-.0337-.059-.0421-.0169-.0084-.0337-.0169-.0506-.0253-.0337-.0169-.0675-.0421-.1012-.0506-.1096-.0337-.2614-.0084-.3626.0506-.1602.0927-.2445.2782-.2277.4638l-7.884-4.5533c.0928-.059.1686-.1687.2024-.2698.0084-.0337,0-.0759,0-.1181v-.1265c0-.0421-.0253-.0759-.0422-.1096-.0084-.0253-.0084-.0506-.0253-.0674-.0169-.0253-.0337-.0337-.0506-.059-.0253-.0337-.0422-.059-.0759-.0843-.0169-.0169-.0422-.0337-.059-.0421-.0169-.0084-.0337-.0169-.0422-.0253-.0337-.0169-.0675-.0421-.1096-.0506-.1012-.0253-.253-.0084-.3541.0421h0c-.0928.059-.1855.1771-.2192.2782-.0169.059-.0169.1181-.0084.1855l-7.8839-4.5533c.0928-.059.1771-.1687.2024-.2698.0084-.0337,0-.0759,0-.1096v-.059c0-.0253,0-.0506-.0084-.0759,0-.0337-.0169-.0674-.0337-.1012-.0084-.0253-.0169-.0506-.0253-.0759s-.0337-.0337-.0422-.0506c-.0253-.0337-.0506-.0674-.0843-.0927-.0169-.0169-.0337-.0253-.0506-.0421-.0169-.0084-.0337-.0169-.059-.0253-.0337-.0169-.0675-.0421-.1012-.0506-.1096-.0337-.2614-.0084-.3626.0506-.1602.0927-.2361.2782-.2277.4638l-7.8839-4.5533c.1349-.0843.2024-.2361.2108-.3879v-.0421c0-.0253,0-.059-.0084-.0843,0-.0337-.0169-.059-.0337-.0927-.0084-.0253-.0169-.0506-.0253-.0843-.0169-.0253-.0337-.0421-.0506-.059-.0253-.0337-.0422-.059-.0759-.0843-.0169-.0169-.0422-.0337-.0675-.0506-.0169,0-.0253-.0169-.0422-.0169-.0337-.0169-.0675-.0421-.1096-.059-.1096-.0253-.2614-.0084-.3626.0506-.1602.0927-.2361.2782-.2277.4638l-1.307-.7505v-.9444l38.1634,22.0329v.9444l.0253-.0338ZM312.6913,608.4858l-.936-.5397v-3.4065s.059-.0084.0928-.0169c.0337,0,.0675.0253.1012.0253.1433,0,.2867-.0759.3626-.2108.0506-.0843.059-.1771.0422-.2614l.0422.0253c.0675.0337.1349.059.2108.059.0253,0,.0506-.0169.0759-.0169v4.3509l.0084-.0084ZM312.6913,603.0556s-.0337-.0169-.0422-.0169c-.0675-.0506-.1518-.0927-.2445-.0927-.2361,0-.4216.1855-.4216.4216v.1771c-.059-.0421-.1349-.0759-.2192-.0843v-21.6787c.059.0337.1265.0506.1855.0506.1433,0,.2867-.0759.3626-.2108.0506-.0843.059-.1771.0506-.2614v-.1265l.0422.0253c.0675.0337.1349.059.2108.059.0253,0,.0506-.0169.0759-.0169v21.7546h0ZM311.7553,580.6179v-.43l.2614.1518c-.0253.059-.0422.1181-.0422.1771v.1771c-.059-.0421-.1349-.0759-.2192-.0843v.0085ZM314.4704,602.5581c-.0843,0-.1602.0337-.2192.0843-.1265.0506-.2192.1518-.2614.2867-.1012.1012-.1433.2361-.118.371-.0084.0843,0,.1771.0506.2614.0759.1349.2192.2108.3626.2108.0675,0,.1265-.0169.1855-.0506v4.2245l-.936.5397v-3.4487s.0506.0169.0759.0169c.0675,0,.1433-.0169.2108-.059l.2192-.1265s.0253-.0253.0422-.0337c.0253-.0169.0422-.0337.0675-.059.0169-.0169.0253-.0337.0337-.0506,0,0,.0084,0,.0169-.0169v-.0253l.0253-.0506c0-.0169.0084-.0337.0169-.059v-.3288c0-.2361-.1855-.4216-.4216-.4216-.0928,0-.1771.0337-.2445.0927-.0169,0-.0337.0169-.0506.0253v-21.7546s.0506.0169.0759.0169c.0675,0,.1433-.0169.2108-.059l.2192-.1265s.0253-.0253.0422-.0337c.0253-.0169.0422-.0337.0675-.059.0169-.0169.0253-.0337.0337-.0506,0,0,.0084,0,.0169-.0169v-.0253l.0253-.0506c0-.0169.0084-.0337.0169-.059v-.3288c0-.2361-.1855-.4216-.4216-.4216-.0928,0-.1771.0337-.2445.0927-.0169,0-.0337.0169-.0506.0253v-.3795l.3288-.1939c0,.059.0169.1265.0506.1855.0759.1349.2192.2108.3626.2108.0675,0,.1265-.0169.1855-.0506v21.6787l.0253.0169ZM313.1129,579.2267l-41.8397-24.1578,31.1648-17.994,41.8397,24.1578-31.1648,17.994ZM341.4951,588.367c.0169-.1855-.059-.371-.2277-.4638-.0928-.059-.253-.0759-.3626-.0506-.0337.0084-.0675.0337-.1012.0506-.0169,0-.0337.0169-.0422.0253-.0253.0169-.0422.0253-.0675.0506s-.0506.0506-.0759.0843c-.0169.0169-.0337.0337-.0506.059s-.0169.0506-.0253.0759c-.0169.0337-.0253.0674-.0337.1012,0,.0253,0,.0506-.0084.0759v.059c0,.1602.0759.3035.2108.3879l-7.2178,4.1654c.0169-.1855-.059-.371-.2277-.4638-.0928-.059-.2445-.0759-.3541-.0506-.0422.0084-.0675.0337-.1096.0506-.0169,0-.0337.0169-.0506.0253-.0169.0169-.0422.0253-.059.0421-.0337.0253-.0506.059-.0759.0927-.0169.0169-.0337.0337-.0506.059s-.0169.0506-.0253.0759c-.0169.0337-.0253.059-.0337.0927,0,.0253,0,.0506-.0084.0759v.0506c0,.1602.0759.3035.2024.3963l-7.2178,4.1654c0-.059,0-.1265-.0084-.1855-.0337-.1096-.118-.2277-.2192-.2782-.1518-.0843-.3204-.0674-.4638.0084-.0169,0-.0337.0169-.0422.0253-.0253.0169-.0422.0253-.059.0506-.0253.0253-.0506.0506-.0675.0759s-.0422.0421-.0506.0674c-.0169.0253-.0169.0506-.0253.0759-.0169.0337-.0337.0674-.0337.1096,0,.0253,0,.0506-.0084.0759v.1687c.0253.1012.1096.2024.2024.2614l-7.2178,4.1654c.0169-.1855-.059-.371-.2277-.4638-.1012-.059-.253-.0759-.3626-.0506-.0422.0084-.0759.0337-.1096.059-.0169,0-.0253.0084-.0422.0169-.0253.0169-.0422.0337-.0675.0506-.0253.0253-.0506.0506-.0675.0843-.0169.0253-.0422.0337-.0506.059-.0169.0253-.0169.0506-.0253.0759-.0169.0337-.0253.059-.0337.0927,0,.0253,0,.0506-.0084.0759v.0506c0,.1602.0759.3035.2108.3879l-1.3997.8095v-1.0793l27.4884-15.8691v1.0793l-1.307.7505.0084.0169ZM336.3431,558.408c-.5228,0-.9191.3035-.9191.7083s.3963.7083.9191.7083.9191-.3035.9191-.7083-.3963-.7083-.9191-.7083ZM339.6991,560.3558c-.5228,0-.9191.3035-.9191.7083s.3963.7083.9191.7083.9191-.3035.9191-.7083-.3963-.7083-.9191-.7083ZM754.4033,492.4104s.0253.0506.0337.0674c.0169.0253.0253.0421.0421.0674.0169.0253.0421.0421.0675.059.0169.0084.0253.0253.0421.0337l56.9078,32.8512h.0169c.059.0337.1181.0506.1939.0506s.1349-.0169.1855-.0506c.0169,0,.0253-.0169.0421-.0253.0421-.0337.0759-.0674.1096-.1096,0-.0084.0169-.0169.0253-.0253v-.0253c.0169-.0253.0169-.0506.0253-.0843,0-.0253.0169-.0506.0169-.0843v-55.4659s0-.0337-.0084-.0506c0-.0253,0-.059-.0169-.0843-.0084-.0253-.0253-.0506-.0337-.0675-.0169-.0253-.0253-.0422-.0421-.0675-.0169-.0253-.0421-.0422-.0675-.059-.0169-.0084-.0253-.0253-.0421-.0337l-56.9078-32.8512h-.0253c-.0253-.0169-.0506-.0169-.0843-.0253-.0253,0-.0506-.0169-.0843-.0169h-.0253c-.0169,0-.0337,0-.0506.0084-.0253,0-.059,0-.0843.0169-.0253.0084-.0506.0253-.0759.0337-.0253.0169-.0421.0253-.0675.0422s-.0421.0422-.059.0675c-.0084.0169-.0253.0253-.0337.0337v.0253c-.0169.0253-.0169.0506-.0253.0843,0,.0253-.0169.0506-.0169.0843v55.4659s0,.0337.0084.0506c0,.0253,0,.059.0169.0843h.0169ZM760.5502,440.6462l50.7271,29.2844v42.1433l-50.7271-29.2845v-42.1433h0ZM811.2774,513.0521v11.3495l-55.9044-32.2778,4.9159-8.5079,50.9969,29.4447-.0084-.0084ZM755.2128,437.5601l4.4943,2.5971v42.7673l-4.4943,7.7828v-53.1471ZM820.1226,456.8273v-.0506c0-.0169-.0084-.0422-.0169-.059,0-.0169-.0169-.0337-.0253-.0506v-.0253s-.0084-.0084-.0169-.0169c-.0084-.0169-.0253-.0337-.0337-.0422-.0169-.0169-.0253-.0253-.0421-.0422-.0169-.0169-.0253-.0253-.0421-.0337,0,0-.0084-.0084-.0169-.0169l-344.1112-198.6671s-.0337-.0084-.0506-.0169c-.0253-.0084-.0506-.0253-.0843-.0253h-.1518c-.0253,0-.059.0169-.0843.0253-.0169,0-.0337,0-.0506.0169l-5.3375,3.0777s-.0084.0084-.0169.0169c-.0169.0084-.0253.0253-.0421.0337-.0169.0169-.0253.0253-.0421.0422-.0084.0169-.0253.0253-.0337.0422,0,0-.0084.0084-.0169.0169s0,.0169,0,.0253c0,.0169-.0169.0337-.0169.0506s-.0084.0337-.0169.059v57.6245l-13.0949-7.5635s-.0337-.0084-.0506-.0169c-.0253-.0084-.0506-.0253-.0843-.0253h-.1602c-.0253,0-.0506.0169-.0759.0253-.0169,0-.0337,0-.0506.0169l-138.9346,80.2139-36.5276-21.0885s-.0337-.0084-.0506-.0169c-.0253-.0084-.0506-.0253-.0843-.0253h-.1518c-.0253,0-.059.0169-.0843.0253-.0169,0-.0337,0-.0506.0169l-4.4437,2.5633s-.0084.0084-.0169.0169c-.0169.0084-.0253.0253-.0422.0337-.0169.0169-.0253.0253-.0422.0422-.0084.0169-.0253.0253-.0337.0422,0,0-.0084.0084-.0169.0169s0,.0169,0,.0253c0,.0169-.0169.0337-.0169.0506s-.0084.0337-.0169.059v123.4197l-24.124-13.9297s-.0337-.0084-.0506-.0169c-.0253-.0084-.0506-.0253-.0843-.0253h-.1602c-.0253,0-.0506.0169-.0843.0253-.0169,0-.0337,0-.0506.0169l-16.004,9.2415s-.0084.0084-.0169.0169c-.0169.0084-.0337.0253-.0422.0337-.0169.0169-.0253.0253-.0422.0421-.0084.0169-.0253.0253-.0337.0421,0,0-.0084.0084-.0169.0169v.0253c0,.0169-.0169.0337-.0169.0506s-.0084.0337-.0169.059v23.9976l-20.7091-11.9566s-.0337-.0084-.0506-.0169c-.0253-.0084-.0506-.0253-.0843-.0253h-.1518c-.0253,0-.059.0169-.0843.0253-.0169,0-.0337,0-.0506.0169l-32.0755,18.4746s-.0084.0084-.0169.0169c-.0169.0084-.0337.0253-.0422.0337-.0169.0169-.0253.0253-.0422.0421-.0084.0169-.0253.0253-.0337.0421,0,0-.0084.0084-.0169.0169v.0253c0,.0169-.0169.0337-.0169.0506s-.0084.0337-.0169.059v36.8058s-.0084.0084-.0169.0169c-.0253.0169-.0422.0337-.0675.059-.0169.0169-.0337.0421-.0422.0674-.0169.0253-.0253.0421-.0337.0674s-.0169.059-.0169.0843c0,.0169-.0084.0337-.0084.0506v31.5189s0,.0337.0084.0506c0,.0253,0,.059.0169.0843.0084.0253.0253.0506.0337.0674.0169.0253.0253.0421.0422.0674s.0422.0421.0675.059c.0169.0084.0253.0253.0337.0337l175.8753,101.5385h0l2.538,1.4672,139.2803,80.4163h.0169c.059.0253.1181.0506.1855.0506h0c.0674,0,.1265-.0169.1855-.0506h.0169l320.0884-184.8048s.0253-.0253.0337-.0337c.0253-.0169.0506-.0337.0675-.059.0169-.0169.0337-.0421.0421-.0674.0169-.0253.0253-.0421.0337-.0759.0084-.0253.0169-.059.0169-.0843,0-.0169.0084-.0337.0084-.0506v-133.4959h.0085ZM475.6066,258.6745l343.2512,198.1781-4.4943,2.5971-343.2512-198.1781s4.4943-2.5971,4.4943-2.5971ZM470.6907,261.9967l343.2512,198.1781v131.4723l-33.2896-19.2166v-40.4991c0-.0169-.0084-.0421-.0169-.059,0-.0169-.0169-.0337-.0253-.0506v-.0253s-.0084-.0084-.0169-.0169c-.0084-.0169-.0253-.0337-.0337-.0421-.0169-.0169-.0253-.0253-.0421-.0421-.0169-.0084-.0253-.0253-.0421-.0337,0,0-.0084-.0084-.0169-.0169l-21.3415-12.3192s-.0337-.0084-.0421-.0169c-.0253-.0169-.059-.0253-.0843-.0337h-.1602c-.0253,0-.0506.0169-.0759.0253-.0169,0-.0337,0-.0506.0169l-2.0321,1.1721v-2.4284c0-.0169-.0084-.0421-.0169-.059,0-.0169-.0169-.0337-.0253-.0506v-.0253s-.0084-.0084-.0169-.0169c-.0084-.0169-.0253-.0253-.0337-.0421-.0169-.0169-.0253-.0253-.0421-.0421-.0169-.0169-.0337-.0253-.0421-.0337,0,0-.0084-.0084-.0169-.0169l-21.3415-12.3192s-.0337-.0084-.0506-.0169c-.0253-.0084-.059-.0253-.0843-.0253h-.1518c-.0253,0-.0506.0169-.0759.0253-.0169,0-.0337,0-.0506.0169l-27.4716,15.8607v-56.0309l40.2714,23.2471h.0169c.059.0337.1181.0506.1939.0506s.1349-.0169.1855-.0506c.0169,0,.0253-.0169.0421-.0253.0421-.0337.0759-.0674.1096-.1096,0-.0084.0169-.0169.0253-.0253v-.0253c.0169-.0253.0169-.0506.0253-.0843,0-.0253.0169-.0506.0169-.0843v-55.4659s0-.0337-.0084-.0506c0-.0253,0-.059-.0169-.0843-.0084-.0253-.0253-.0506-.0337-.0675-.0169-.0253-.0253-.0422-.0421-.0675-.0169-.0253-.0421-.0422-.0675-.059-.0169-.0084-.0253-.0253-.0421-.0337l-56.9078-32.8512h-.0253c-.0253-.0169-.0506-.0169-.0843-.0253-.0253,0-.0506-.0169-.0759-.0169h-.0253c-.0169,0-.0337.0084-.059.0084s-.0506,0-.0759.0169c-.0253.0084-.0506.0253-.0759.0337s-.0421.0253-.059.0422c-.0253.0169-.0421.0422-.059.0675-.0084.0169-.0253.0253-.0337.0337v.0253c-.0169.0253-.0169.0506-.0253.0843,0,.0253-.0169.0506-.0169.0843v39.5631l-34.4786,19.908-63.1559-36.4601v-23.6687l10.7087,6.1807h.0169c.059.0337.1181.0506.1939.0506s.1349-.0169.1855-.0506c.0169,0,.0253-.0169.0421-.0253.0421-.0337.0759-.0675.1096-.1096,0-.0084.0169-.0169.0253-.0253v-.0253c.0169-.0253.0169-.0506.0253-.0843,0-.0253.0169-.0506.0169-.0843v-55.4659s0-.0337-.0084-.0506c0-.0253,0-.059-.0169-.0843-.0084-.0253-.0253-.0506-.0337-.0675-.0169-.0253-.0253-.0422-.0421-.0675s-.0421-.0422-.0674-.059c-.0169-.0084-.0253-.0253-.0421-.0337l-56.9078-32.8512h-.0253c-.0253-.0169-.0506-.0169-.0843-.0253-.0253,0-.0506-.0169-.0759-.0169h-.0253c-.0169,0-.0337.0084-.059.0084s-.0506,0-.0759.0169c-.0253.0084-.0506.0253-.0759.0337s-.0421.0253-.059.0422c-.0253.0169-.0421.0422-.059.0675-.0084.0169-.0253.0253-.0337.0337v.0253c-.0169.0253-.0169.0506-.0253.0843,0,.0253-.0169.0506-.0169.0843v55.4659s0,.0337.0084.0506c0,.0253,0,.059.0169.0843.0084.0253.0253.0506.0337.0675.0169.0253.0253.0422.0421.0675s.0421.0422.0674.059c.0169.0084.0253.0253.0421.0337l15.4222,8.9042s-.0169.0337-.0253.0506c-.0169.0253-.0253.059-.0337.0928v.0169l-4.2245,26.055h0v17.1845l-54.6311-31.5442s-.0337-.0084-.0506-.0169c-.0253-.0084-.0506-.0253-.0843-.0253h-.1602c-.0253,0-.0506.0169-.0759.0253-.0169,0-.0337,0-.0506.0169l-16.1136,9.3005-8.1791-4.7219v-74.0164c0-.0169-.0084-.0337-.0169-.059,0-.0169-.0084-.0337-.0169-.0506v-.0253s-.0084-.0084-.0169-.0169c-.0084-.0169-.0253-.0253-.0337-.0422-.0169-.0169-.0253-.0253-.0421-.0422-.0169-.0084-.0253-.0253-.0421-.0337,0,0-.0084-.0084-.0169-.0169l-7.4033-4.275v-57.2872h-.0842ZM682.3853,536.6196l52.5063-30.3132,20.4983,11.8301-52.5063,30.3132-20.4983-11.8301ZM702.4536,549.1833v44.2007l-20.4983-11.8301v-44.2007l20.4983,11.8301ZM502.8083,394.1351l54.8419,31.6623v9.621l-28.6774,16.5605-63.1728-36.477,37.0082-21.3668h0ZM478.3048,407.3144v-8.4742l7.3359,4.2413-7.3359,4.2413v-.0084ZM641.8694,524.1064v-11.3242l.1602-.0927v11.6193l-.1602-.2024h0ZM642.0296,527.5973v1.3407l-.1602-.0927v-1.2648s.0759.0253.1265.0253h.0337v-.0084ZM628.7323,519.3929v-.0506l15.1608-8.7525v.0506l-15.1608,8.7525ZM641.5743,525.1099v.8263l-6.8384-9.0307.4385-.253,6.4083,8.4573h-.0084ZM635.9079,516.2309l5.1267-2.9597v9.7221l-5.1267-6.7625ZM628.3107,518.6088l-105.8557-61.1154,35.1869-20.3128v22.8845s0,.0337.0084.0506c0,.0253,0,.059.0169.0843.0084.0253.0253.0506.0337.0675.0169.0253.0253.0422.0421.0675s.0421.0422.0674.059c.0169.0084.0253.0253.0421.0337l85.6189,49.4286-15.1608,8.7525ZM527.1094,453.4629l-.9359.9191-4.7641,2.7488s-.0084.0084-.0169.0169c-.0169.0084-.0253.0169-.0421.0337-.0169.0169-.0253.0253-.0421.0422-.0084.0169-.0253.0253-.0337.0422,0,0-.0084.0084-.0169.0169v.0253c-.0084.0169-.0169.0337-.0253.0506,0,.0169-.0084.0337-.0169.059v.9107l-62.6669-36.1819,5.3122-5.2194,63.2571,36.5191-.0085.0169ZM464.5016,416.3451c.1518-.1265.312-.2361.4722-.3373l63.2065,36.4938c-.1434.1096-.2867.2361-.43.3626l-63.2487-36.5191h0ZM477.4616,407.795l-12.7155,7.3443h0c-.0084,0-.0253.0169-.0337.0253h-.0084c-.4047.2361-.7926.5396-1.1721.9022h0c-.0169.0169-.0253.0253-.0421.0337l-5.9362,5.8265c-1.484,1.4587-2.4875,3.6595-2.5043,5.4977h0v1.5937l-36.283,20.9452-79.1768-45.7185,137.8806-79.6068v83.1314l-.0084.0253ZM455.884,428.2258l63.1728,36.477v27.5559l-63.1728-36.477v-27.5559h0ZM455.8925,427.2561c.0759-1.5009.8601-3.2295,2.0237-4.4858l63.274,36.5276c-1.113,1.2564-1.8972,2.9259-2.0912,4.4437l-63.2065-36.4938v.0084ZM519.9,464.4498c0-1.6358.9106-3.6258,2.2514-4.9496l.1181-.118,27.2776,15.751-29.647,17.117v-27.8004h0ZM522.0418,458.2776v-.0506l105.8557,61.1154v.0506l-105.8557-61.1154h0ZM620.6881,516.2056v.4132l-.1602-.0927v-.4132l.1602.0927ZM599.3551,503.8864v.4132l-.1602-.0927v-.4132l.1602.0927ZM578.0136,491.5672v.4132l-.1602-.0927v-.4132l.1602.0927ZM558.4934,480.302l18.5167,10.6918v1.1467s0,.0337.0084.0506c0,.0253,0,.059.0169.0843.0084.0253.0253.0506.0337.0674.0169.0253.0253.0421.0421.0674s.0421.0421.0674.059c.0169.0084.0253.0253.0421.0337l1.0034.5818h.0169c.059.0253.1181.0506.1855.0506s.1349-.0169.1855-.0506h.0253l.0843-.0506.0337-.0337c.0253-.0169.0506-.0337.0674-.059.0169-.0169.0337-.0421.0421-.0674.0169-.0253.0253-.0506.0337-.0759s.0169-.059.0169-.0843c0-.0169.0084-.0337.0084-.0506v-.5565l19.4105,11.2062v1.1467s0,.0337.0084.0506c0,.0253,0,.059.0169.0843.0084.0253.0253.0506.0337.0674.0169.0253.0253.0421.0421.0674s.0421.0421.0674.059c.0169.0084.0253.0253.0421.0337l1.0034.5818h.0169c.059.0253.1181.0506.1855.0506s.1349-.0169.1855-.0506h.0169l.0927-.0506.0337-.0337c.0253-.0169.0506-.0337.0674-.059.0169-.0169.0337-.0421.0421-.0674.0169-.0253.0253-.0506.0337-.0759s.0169-.059.0169-.0843c0-.0169.0084-.0337.0084-.0506v-.5565l19.4106,11.2062v1.1467s0,.0337.0084.0506c0,.0253,0,.059.0169.0843.0084.0253.0253.0506.0337.0759.0169.0253.0253.0421.0421.0674.0169.0253.0421.0421.0675.059.0169.0084.0253.0253.0337.0337l1.0034.5818h.0169c.059.0253.1181.0506.1855.0506s.1349-.0169.1855-.0506h.0169l.0927-.0506s.0253-.0253.0337-.0337c.0253-.0169.0506-.0337.0675-.059.0169-.0169.0337-.0421.0421-.0674.0169-.0253.0253-.0506.0337-.0759.0084-.0253.0169-.059.0169-.0843,0-.0169.0084-.0337.0084-.0506v-.5565l6.4842,3.7438h.0169c.059.0253.1181.0506.1855.0506s.1349-.0169.1855-.0506h.0169l5.4387-3.1367,7.066,9.3258v2.42s0,.0337.0084.0506c0,.0253,0,.059.0169.0843.0084.0253.0253.0506.0337.0759.0169.0253.0253.0421.0421.0674.0169.0253.0421.0421.0675.059.0169.0084.0253.0253.0337.0337l1.0034.5818h.0169c.059.0253.1181.0506.1855.0506s.1349-.0169.1855-.0506h.0169l.0927-.0506s.0253-.0253.0337-.0337c.0253-.0169.0506-.0337.0675-.059.0169-.0169.0337-.0421.0421-.0674.0169-.0253.0253-.0506.0337-.0759.0084-.0253.0169-.059.0169-.0843,0-.0169.0084-.0337.0084-.0506v-17.4627l1.5683-.9022s.0253-.0253.0421-.0337c.0253-.0169.0421-.0337.0675-.059.0169-.0169.0337-.0421.0421-.0674.0169-.0253.0253-.0421.0337-.0674.0084-.0253.0169-.059.0169-.0843,0-.0169.0084-.0337.0084-.0506v-1.1046c0-.0169-.0084-.0421-.0169-.059,0-.0169-.0169-.0337-.0253-.0506v-.0253s-.0084-.0084-.0169-.0169c-.0084-.0169-.0253-.0337-.0337-.0421-.0169-.0169-.0253-.0253-.0421-.0421-.0169-.0084-.0253-.0253-.0421-.0337,0,0-.0084-.0084-.0169-.0169l-86.0405-49.6731v-51.3848l96.96,55.9803v94.5062l-96.9599-55.9803v-22.64l.0845-.0253ZM558.5356,407.483l4.1486-25.5659.2698-.1518h0l10.6665-6.1554h0l14.9078-8.6091,2.9344,1.6948-24.2337,13.9887s-.0084.0084-.0169.0169c-.0169.0084-.0253.0169-.0421.0337-.0169.0169-.0337.0253-.0506.0422-.0084.0084-.0169.0253-.0337.0337-.0084.0169-.0169.0253-.0253.0422s-.0169.0422-.0253.059c0,.0169-.0084.0337-.0169.0506v.0169l-3.8113,23.5001h0v.1687c0,.0253.0253.0506.0337.0759s.0169.0506.0337.0675c.0169.0169.0337.0337.0506.0422.0253.0253.0421.0506.0759.0675h0l92.2549,53.2651h0c.0675.0337.1349.059.2108.059s.1433-.0169.2108-.059h0l46.9158-27.0837,2.9343,1.6948-50.061,28.905-97.3394-56.1995h.0084ZM552.2285,363.4847l20.3381,11.7458-9.8233,5.6748-15.4306-8.9042,4.9159-8.5079v-.0084ZM547.1608,370.576v-53.1387l4.4943,2.5971v42.7673l-4.4943,7.7828v-.0084ZM592.7275,385.897v-17.2857c0-.0169-.0084-.0422-.0169-.059,0-.0169-.0169-.0337-.0253-.0506v-.0253s-.0084-.0084-.0169-.0169c-.0084-.0169-.0253-.0337-.0337-.0422-.0169-.0169-.0253-.0253-.0421-.0422-.0169-.0084-.0253-.0253-.0421-.0337,0,0-.0084-.0084-.0169-.0169l-3.7776-2.1839s-.0337-.0084-.0506-.0169c-.0253-.0084-.059-.0253-.0843-.0253h-.1602c-.0253,0-.0506.0169-.0759.0253-.0169,0-.0337,0-.0506.0169l-14.9078,8.6091-20.9199-12.0747v-42.1433l50.7271,29.2844v42.1433l-10.4979-6.0542-.0085-.0084ZM603.217,392.9293v11.3495l-10.4979-6.0542v-11.3495l10.4979,6.0542ZM591.8843,369.4124v52.9532l-24.0229-13.8707v-25.2118l24.0229-13.8707h0ZM567.0182,388.2748v19.7394l-2.9259-1.6864,2.9259-18.0445v-.0084ZM691.1968,438.9261v-38.3236l4.4943,2.5971v33.1379l-4.4943,2.5971v-.0084ZM707.2008,451.9873v-17.2857c0-.0169-.0084-.0422-.0169-.059,0-.0169-.0169-.0337-.0253-.0506v-.0253s-.0084-.0084-.0169-.0169c-.0084-.0169-.0253-.0337-.0337-.0422-.0169-.0169-.0253-.0253-.0421-.0422-.0169-.0084-.0253-.0253-.0421-.0337,0,0-.0084-.0084-.0169-.0169l-3.7775-2.1839s-.0337-.0084-.0506-.0169c-.0253-.0084-.059-.0253-.0843-.0253h-.1602c-.0253,0-.0506.0169-.0759.0253-.0169,0-.0337,0-.0506.0169l-6.2566,3.6089v-32.1598l50.7271,29.2844v42.1433l-40.0606-23.1291-.0168.0084ZM747.2613,476.0945v11.3495l-40.0606-23.1291v-11.3495l40.0606,23.1291ZM656.2966,464.4077l50.061-28.905v86.2934l-7.1588,4.1317v-75.298c0-.0169-.0084-.0337-.0169-.0506h0c0-.0253-.0084-.0506-.0253-.0759,0,0,0-.0169-.0084-.0253h0c-.0084-.0169-.0253-.0253-.0337-.0337-.0169-.0169-.0337-.0422-.0506-.059l-.0169-.0169c-.0169-.0169-.0337-.0253-.059-.0337-.0169-.0084-.0421-.0253-.0675-.0337,0,0-.0084,0-.0169-.0084h-.0675c-.0169,0-.0337-.0084-.0506-.0084h-.0675c-.0169,0-.0337.0084-.059.0169-.0169,0-.0421.0084-.059.0169-.0084,0-.0253,0-.0337.0169h0l-3.8619,2.2261h0l-22.8086,13.1708s-.0253.0253-.0421.0337c-.0253.0169-.0421.0337-.0675.059-.0169.0169-.0337.0422-.0421.0675-.0169.0253-.0253.0422-.0337.0675-.0084.0253-.0169.059-.0169.0843,0,.0169-.0084.0337-.0084.0506v83.9493l-15.38,8.8789v-94.5062l-.0083-.0085ZM689.6874,471.4568l5.5736-18.2469,2.8079-1.6189-6.1385,20.0935-2.2429-.2277ZM691.8039,472.5193v57.6835l-2.2513,1.2985v-59.2182l2.2513.2277v.0084ZM693.4144,456.3466l-1.796-1.0371,2.5718-1.484-.7673,2.5212h-.0084ZM692.6471,472.2073l5.7085-18.6854v72.9033l-5.7085,3.2969v-57.5149ZM672.5283,466.3386l18.2469-10.54,2.3863,1.3829-4.4353,14.5284v.0422c0,.0169-.0084.0253-.0084.0337v47.5567l-16.1811-9.3427v-43.6611h-.0084ZM703.2968,549.1833l52.5063-30.3132v2.108l-50.4741,29.1411s-.0084.0084-.0169.0169c-.0169.0084-.0253.0169-.0421.0337-.0169.0169-.0337.0253-.0421.0421s-.0253.0253-.0337.0421c0,0-.0084.0084-.0169.0169v.0253c-.0084.0169-.0169.0337-.0253.0506,0,.0169-.0084.0337-.0169.059v41.9241l-1.8213,1.054v-44.2007h-.0169ZM705.9697,551.2154l20.4983,11.8301v44.2007l-20.4983-11.8301v-44.2007ZM706.3913,550.4819l52.5063-30.3132,20.4983,11.8301-52.5063,30.3132-20.4983-11.8301ZM727.3112,563.0456l52.5063-30.3132v44.2007l-52.5063,30.3132v-44.2007h0ZM456.5417,312.0999l20.4983,11.8301-138.3022,79.8514-20.4983-11.8301s138.3022-79.8513,138.3022-79.8514ZM276.6359,374.0331l196.5676,113.4867-87.2041,50.3477v-55.2214s0-.0337-.0084-.0506c0-.0337,0-.059-.0169-.0843-.0084-.0253-.0253-.0506-.0337-.0674-.0169-.0253-.0253-.0421-.0422-.0674s-.0422-.0421-.0675-.059c-.0169-.0084-.0253-.0253-.0422-.0337l-54.2348-31.3166h-.0253c-.0253-.0084-.0506-.0169-.0759-.0253-.0253,0-.059-.0169-.0843-.0169h-.0253c-.0169,0-.0337,0-.0506.0084-.0337,0-.059,0-.0928.0169-.0253.0084-.0506.0169-.0675.0337-.0253.0169-.0422.0253-.0675.0422s-.0422.0422-.059.0675c-.0084.0169-.0253.0253-.0337.0422v.0253c-.0084.0253-.0169.0506-.0253.0759,0,.0253-.0169.059-.0169.0843v85.5345l-47.0254-27.1512v-8.2212c0-.0169-.0084-.0337-.0169-.059,0-.0169-.0084-.0337-.0169-.0506v-.0253c0-.0084-.0084-.0084-.0169-.0169-.0084-.0169-.0253-.0253-.0337-.0421-.0169-.0169-.0253-.0253-.0422-.0421-.0169-.0084-.0253-.0253-.0422-.0337,0,0-.0084-.0084-.0169-.0169l-7.0407-4.0642v-123.0908l-.0422-.0085ZM373.4525,476.1366l-33.4752,19.3262v-38.6524l33.4752,19.3262h0ZM339.1341,456.3213v78.2661h-2.9259v-79.961l2.9259,1.6948ZM335.365,454.1459v80.6187l-3.6005,2.0827v-84.7841l3.6005,2.0827ZM251.4578,483.5652l31.1648,17.994-15.1608,8.7525-31.1648-17.994,15.1608-8.7525ZM283.0442,502.2928v35.9879l-15.1608,8.7525v-35.9879s15.1608-8.7525,15.1608-8.7525ZM235.8754,493.0513l31.1648,17.994v35.9879l-20.4983-11.8301v-12.159c0-.0169-.0084-.0337-.0169-.059,0-.0169-.0084-.0337-.0169-.0506v-.0253c0-.0084-.0084-.0084-.0169-.0169-.0084-.0169-.0169-.0253-.0337-.0421-.0169-.0169-.0253-.0253-.0422-.0421-.0169-.0084-.0253-.0253-.0422-.0337,0,0-.0084-.0084-.0169-.0169l-10.4557-6.0373v-23.6687h-.0253ZM214.1124,505.1259l31.1648,17.994-31.1648,17.994-31.1648-17.994,31.1648-17.994ZM245.6988,523.8535v35.9879l-31.1648,17.994v-35.9879l31.1648-17.994ZM182.526,523.8535l31.1648,17.994v35.9879l-31.1648-17.994v-35.9879ZM182.3405,560.7015l31.5611,18.2216h.0169c.059.0253.118.0506.1855.0506h0c.0675,0,.1265-.0169.1855-.0506h.0169l32.008-18.483s.0253-.0253.0337-.0337c.0253-.0169.0506-.0337.0675-.059.0169-.0169.0337-.0421.0422-.0674.0169-.0253.0253-.0421.0337-.0674s.0169-.059.0169-.0843c0-.0169.0084-.0337.0084-.0506v-23.9133l20.7091,11.9566h.0169c.059.0253.118.0506.1855.0506h0c.0675,0,.1265-.0169.1855-.0506h.0169l16.004-9.2415s.0253-.0253.0337-.0337c.0253-.0169.0506-.0337.0675-.059.0169-.0169.0337-.0421.0422-.0674.0169-.0253.0253-.0421.0337-.0674s.0169-.059.0169-.0843c0-.0169.0084-.0337.0084-.0506v-27.851l47.2363,27.2692h.0169c.059.0253.118.0506.1855.0506h0c.0675,0,.1265-.0169.1855-.0506h.0169l4.3509-2.5128h3.6595c.2361,0,.4216-.1855.4216-.4216v-38.5681l34.3184-19.8153,10.8605,6.265v55.4659l-32.0249,18.4914s-.0084.0084-.0169.0169c-.0169.0084-.0337.0253-.0422.0337-.0169.0169-.0253.0253-.0422.0421-.0084.0169-.0253.0253-.0337.0421,0,0-.0084.0084-.0169.0169v.0253c0,.0169-.0169.0337-.0169.0506s-.0084.0337-.0169.059v70.0955l-21.6366,12.4963s-.0084.0084-.0169.0169c-.0169.0084-.0337.0253-.0506.0337-.0169.0169-.0253.0253-.0422.0421-.0084.0169-.0253.0253-.0337.0421,0,0-.0084.0084-.0169.0169v.0253c0,.0169-.0169.0337-.0169.0506s-.0084.0337-.0169.059v36.3168l-148.7073-85.8802v-29.7398ZM332.3379,640.0806l20.5826-11.8892v23.6687l-.0928.0506-20.4983-11.8301h.0084ZM352.4146,652.6443v35.9879l-20.4983-11.8301v-35.9879l20.4983,11.8301ZM357.3726,692.5195l-175.0321-101.0579v-.0506l170.2849,98.3175h0l.5059.2951h0l4.2329,2.4453v.0506h.0084ZM357.3726,691.4907l-3.6005-2.0827v-131.4723l3.6005,2.0827v131.4723ZM354.1853,557.2106l120.0722-69.3197c.059-.0337.1012-.0843.1434-.1434,0,0,.0084,0,.0169-.0169.0084-.0169.0084-.0337.0169-.0506.0084-.0253.0253-.0506.0253-.0843v-.1518c0-.0253-.0169-.059-.0253-.0843,0-.0169,0-.0337-.0169-.0506l-.0169-.0169c-.0169-.0253-.0337-.0421-.059-.059-.0169-.0169-.0421-.0421-.0674-.059l-.0169-.0169-197.2-113.8493,3.6005-2.0827,36.5276,21.0885h0l21.3415,12.3192h0l80.02,46.1991h0l32.008,18.483h0l31.5358,18.2048-124.305,71.765-3.6005-2.0827v.0084ZM483.364,498.9284v-11.4844c0-.0169-.0084-.0337-.0169-.059,0-.0169-.0084-.0337-.0169-.0506v-.0253c0-.0084-.0084-.0084-.0169-.0169-.0084-.0169-.0253-.0253-.0337-.0421l-.0421-.0421c-.0169-.0084-.0253-.0253-.0421-.0337l-.0169-.0169-31.5442-18.2132,3.6089-2.0827,41.8397,24.1578-13.6936,7.9093h-.0253ZM497.4792,491.7527v35.9879l-14.1152,8.1453v-35.9879l14.1152-8.1453ZM524.9761,592.212s.0084.0506.0169.0843c0,.0253.0169.059.0253.0843v.0253c0,.0084.0169.0169.0253.0253.0337.0421.0674.0759.1096.1096.0084,0,.0169.0169.0337.0253v6.7709h-.0084s-.0084.0169-.0169.0253c-.0169.0084-.0253.0169-.0421.0337-.0169.0169-.0337.0253-.0421.0421-.0084.0169-.0253.0253-.0337.0421l-.0169.0169v.0253c-.0084.0169-.0169.0337-.0253.0506,0,.0169-.0084.0337-.0169.059v.3541c0,.0253.0084.0506.0169.0843,0,.0253.0169.0506.0253.0759v.0253c0,.0084.0169.0169.0253.0253.0337.0421.0674.0759.1096.1096.0084,0,.0169.0169.0337.0253v6.7709h-.0084s-.0084.0169-.0169.0253c-.0169.0084-.0253.0169-.0421.0337-.0169.0169-.0337.0253-.0421.0421-.0084.0169-.0253.0253-.0337.0421l-.0169.0169v.0253c-.0084.0169-.0169.0337-.0253.0506,0,.0169-.0084.0337-.0169.059v.3541c0,.0253.0084.0506.0169.0843,0,.0253.0169.059.0253.0843v.0253c0,.0084.0169.0169.0253.0253.0337.0421.0674.0759.1096.1096.0084,0,.0169.0169.0337.0253v7.0239l-2.4537,1.4166-.0337.0337c-.0253.0169-.0506.0337-.0674.059-.0169.0169-.0337.0421-.0421.0674-.0169.0253-.0253.0421-.0337.0759-.0084.0253-.0169.059-.0169.0843,0,.0169-.0084.0337-.0084.0506v4.3762l-17.8253,10.2955v-34.9592l20.4983-11.8301v6.7962h-.0084s-.0084.0169-.0169.0253c-.0169.0084-.0337.0253-.0421.0337l-.0421.0421c-.0084.0169-.0253.0253-.0337.0421l-.0169.0169v.0253c0,.0169-.0169.0337-.0169.0506s-.0084.0337-.0169.059v.3541l-.0507-.0336ZM504.6971,595.6269v-.0506l20.4983-11.8301v.0506l-20.4983,11.8301ZM504.2755,594.8428l-20.9199-12.0747v-23.6687l41.4181,23.9132-20.4983,11.8301h0ZM450.7236,626.7918l-15.8944,9.1741h0l-.2192.1265h0l-15.262,8.8115v-.0506l84.5143-48.7962v.0506l-53.1387,30.6757v.0084ZM503.8539,597.0857v34.4786l-20.4983-11.8301v-10.8099l20.4983-11.8301v-.0084ZM451.3476,634.7685v-.059c0-.0169,0-.0337-.0084-.0506,0-.0253.0084-.0506.0169-.0759,0-.0169.0084-.0337.0084-.0506v-7.1335l31.1648-17.994v10.3208l-31.1648,17.994v-2.9512h-.0169ZM398.0066,633.0736v-.0506l20.4983,11.8301v.0506l-20.4983-11.8301ZM418.4964,645.8819v3.6426l-19.4274-11.2146s-.0337-.0084-.0506-.0169c-.0253-.0084-.0506-.0253-.0843-.0253h-.1518c-.0337,0-.059.0169-.0843.0253-.0169,0-.0337,0-.0506.0169l-.6408.371v-4.6292l20.4983,11.8301h-.0084ZM397.3742,631.9269s-.0084.0084-.0169.0169c-.0169.0084-.0337.0253-.0422.0337-.0169.0169-.0253.0253-.0422.0421-.0084.0169-.0253.0253-.0337.0421,0,0-.0084.0084-.0169.0169v.0253c0,.0169-.0169.0337-.0169.0506s-.0084.0337-.0169.059v6.9564l-14.2754,8.2381v-85.5261c0-.0169-.0084-.0337-.0169-.059,0-.0169-.0084-.0337-.0169-.0506v-.0253s-.0084-.0084-.0169-.0169c-.0084-.0169-.0169-.0253-.0337-.0421-.0169-.0169-.0253-.0253-.0422-.0421-.0169-.0084-.0253-.0253-.0422-.0337,0,0-.0084-.0084-.0169-.0169l-13.5924-7.8502,100.9567-58.2906v94.5062l-72.6757,41.9578-.0421.0085ZM382.8879,650.1653l18.2132,10.5147v33.804l-18.2132-10.5147v-33.804ZM382.8879,649.1872v-.8095l15.9703-9.2246,19.3431,11.164-16.6701,9.6294-18.6348-10.7593h-.0084ZM401.9443,660.6801l16.6701-9.6294v33.804l-16.6701,9.6294v-33.804ZM398.4282,632.2894l71.6723-41.3844c.0674.1265.2024.2192.3626.2192.2361,0,.4216-.1855.4216-.4216v-94.7929h.1012v94.7929c0,.2361.1855.4216.4216.4216s.4216-.1855.4216-.4216v-.8011l11.1134-6.4168,20.4983,11.8301-84.5143,48.7962-20.4983-11.8301v.0084ZM471.7868,495.0412c-.059-.1687-.1771-.2951-.3542-.3879l11.0881-6.3999v94.5062l-10.6918,6.1723v-93.7136c0-.0674-.0169-.1265-.0421-.1855v.0084ZM419.3396,645.8819l15.0512-8.6934v30.3385l-14.9331,8.6175v-25.9116c0-.0169-.0084-.0337-.0169-.059,0-.0169-.0084-.0337-.0169-.0506v-.0253l-.0169-.0169c-.0084-.0169-.0169-.0253-.0337-.0421,0,0-.0084-.0169-.0169-.0253v-4.1486l-.0169.0169ZM419.4661,677.1225l15.5655-8.9885.0337-.0337c.0253-.0169.0421-.0337.0674-.059.0337,0,.0674-.0169.1012-.0337h.0169l12.5975-7.2684v.565l-28.3738,16.3834v-.565h-.0084ZM435.4617,666.9198v-6.9227l15.0512-8.6934v6.9227l-15.0512,8.6934ZM435.4617,658.766v-6.6613l15.0512-8.6934v6.6613l-15.0512,8.6934ZM435.4617,650.8736v-6.6613l15.0512-8.685v6.6613l-15.0512,8.6934v-.0084ZM435.4617,642.9812v-6.4083l15.0512-8.685v6.4083l-15.0512,8.6934v-.0084ZM371.5974,700.7323l-11.0544-6.3831-2.3272-1.3407v-.0506l13.3816,7.7237v.0506h0ZM371.5974,699.7035l-13.3816-7.7237v-131.4722l13.3816,7.7237v131.4723h0ZM358.6374,559.7824l9.6041-5.5483,13.3816,7.7237-9.6041,5.5483-13.3816-7.7237ZM499.1909,774.3945l-126.7503-73.1816v-.0506l126.7503,73.1816v.0506ZM499.6126,773.6187l-127.1719-73.4262v-131.9613l9.6041-5.5483v131.7168c0,.2361.1855.4216.4216.4216s.4216-.1855.4216-.4216v-9.4607l18.424,10.6412h.0169c.059.0253.1181.0506.1855.0506h0c.0674,0,.1265-.0169.1855-.0506h.0169l17.5133-10.11.0337-.0337c.0253-.0169.0506-.0337.0674-.059.0169-.0169.0337-.0421.0421-.0674.0169-.0253.0253-.0421.0337-.0674s.0169-.059.0169-.0843c0-.0169.0084-.0337.0084-.0506v-6.4421l29.0062-16.746.0337-.0337c.0253-.0169.0506-.0337.0674-.059.0169-.0169.0337-.0421.0421-.0674.0169-.0253.0253-.0421.0337-.0674s.0169-.059.0169-.0843c0-.0169.0084-.0337.0084-.0506v-1.2985l2.4537-1.4166.0337-.0337c.0253-.0169.0506-.0337.0674-.059.0169-.0169.0337-.0421.0421-.0674.0169-.0253.0253-.0421.0337-.0674s.0169-.059.0169-.0843c0-.0169.0084-.0337.0084-.0506v-7.9767c0-.0169,0-.0337-.0084-.0506,0-.0253.0084-.0506.0169-.0759,0-.0169.0084-.0337.0084-.0506v-7.7237c0-.0169,0-.0337-.0084-.0506,0-.0253.0084-.0506.0169-.0759,0-.0169.0084-.0337.0084-.0506v-3.7354l31.5864-18.2385,21.1307,12.2012h.0169c.059.0253.1181.0506.1855.0506s.1349-.0169.1855-.0506h.0169l18.6685-10.7846.0337-.0337c.0253-.0169.0506-.0337.0674-.059.0169-.0169.0337-.0421.0421-.0674.0169-.0253.0253-.0421.0337-.0759.0084-.0253.0169-.059.0169-.0843,0-.0169.0084-.0337.0084-.0506v-4.3762l2.4537-1.4166.0337-.0337c.0253-.0169.0506-.0337.0674-.059.0169-.0169.0337-.0421.0421-.0674.0169-.0253.0253-.0421.0337-.0759.0084-.0253.0169-.059.0169-.0843,0-.0169.0084-.0337.0084-.0506v-7.8418c0-.0169,0-.0337-.0084-.0506,0-.0253.0084-.0506.0169-.0759,0-.0169.0084-.0337.0084-.0506v-7.5888c0-.0169,0-.0337-.0084-.0506,0-.0253.0084-.0506.0169-.0759,0-.0169.0084-.0337.0084-.0506v-7.5804c0-.0169,0-.0337-.0084-.0506,0-.0253.0084-.0506.0169-.0759,0-.0169.0084-.0337.0084-.0506v-8.8705c0-.0169-.0084-.0421-.0169-.059,0-.0169-.0169-.0337-.0253-.0506v-.0253l-.0169-.0169c-.0084-.0169-.0253-.0253-.0337-.0421l-.0421-.0421c-.0169-.0169-.0253-.0253-.0421-.0337l-.0169-.0169-42.4721-24.5203v-21.2656l14.7476-8.5164.0337-.0337c.0253-.0169.0506-.0337.0674-.059.0169-.0169.0337-.0421.0421-.0674.0169-.0253.0253-.0421.0337-.0674s.0169-.059.0169-.0843c0-.0169.0084-.0337.0084-.0506v-37.0419c0-.0169-.0084-.0337-.0169-.059,0-.0169-.0084-.0337-.0169-.0506v-.0253l-.0169-.0169c-.0084-.0169-.0253-.0253-.0337-.0421l-.0421-.0421c-.0169-.0084-.0253-.0253-.0421-.0337l-.0169-.0169-42.6829-24.6384s-.0337-.0084-.0506-.0169c-.0253-.0084-.0506-.0253-.0843-.0253h-.1602c-.0253,0-.059.0169-.0843.0253-.0169,0-.0337,0-.0506.0169l-4.2413,2.4453-12.277-7.0913v-.6746c0-.0675-.0169-.1265-.0421-.1855-.1012-.2951-.4216-.5144-.8516-.5144-.3626,0-.6577.1602-.8011.3879l-17.1929-9.9245,35.4398-20.4561v26.0128s0,.0337.0084.0506c0,.0337,0,.059.0169.0843.0084.0253.0253.0506.0337.0675.0169.0253.0253.0422.0421.0675s.0421.0422.0674.059c.0169.0084.0253.0253.0421.0337l64.016,36.9576h.0169c.059.0253.1181.0506.1855.0506s.1349-.0169.1855-.0506h.0169l30.701-17.7241,7.26,4.1907v23.3736s0,.0337.0084.0506c0,.0253,0,.059.0169.0843.0084.0253.0253.0506.0337.0674.0169.0253.0253.0421.0421.0674s.0421.0421.0674.059c.0169.0084.0253.0253.0421.0337l97.8031,56.4693h.0169c.059.0253.1181.0506.1855.0506s.1349-.0169.1855-.0506h.0169l16.2232-9.368s.0253-.0253.0337-.0337c.0253-.0169.0506-.0337.0675-.059.0169-.0169.0337-.0421.0421-.0674.0169-.0253.0253-.0421.0337-.0759.0084-.0253.0169-.059.0169-.0843,0-.0169.0084-.0337.0084-.0506v-39.3101l16.1811,9.3427v11.6784l-7.378,4.2582s-.0084.0084-.0169.0169c-.0169.0084-.0253.0169-.0421.0337-.0169.0169-.0253.0253-.0421.0421-.0084.0169-.0253.0253-.0337.0421,0,0-.0084.0084-.0169.0169v.0253c-.0084.0169-.0169.0337-.0253.0506,0,.0169-.0084.0337-.0169.059v45.2547s0,.0337.0084.0506c0,.0253,0,.059.0169.0843.0084.0253.0253.0506.0337.0759.0169.0253.0253.0421.0421.0674.0169.0253.0421.0421.0675.059.0169.0084.0253.0253.0337.0337l21.3415,12.3192h.0169c.059.0253.1181.0506.1855.0506s.1349-.0169.1855-.0506h.0169l2.0321-1.1721v2.3525s0,.0337.0084.0506c0,.0253,0,.059.0169.0843.0084.0253.0253.0506.0337.0759.0169.0253.0253.0421.0421.0674.0169.0253.0421.0421.0675.059.0169.0084.0253.0253.0337.0337l21.3415,12.3192h.0169c.059.0253.1181.0506.1855.0506s.1349-.0169.1855-.0506h.0169l53.3495-30.8022s.0253-.0253.0337-.0337c.0253-.0169.0506-.0337.0675-.059.0169-.0169.0337-.0421.0421-.0674.0169-.0253.0253-.0421.0337-.0759.0084-.0253.0169-.059.0169-.0843,0-.0169.0084-.0337.0084-.0506v-3.7776l32.868,18.9805-313.9162,181.2381.0847.0252ZM819.2794,590.0787l-319.2452,184.3158v-.0506l314.5401-181.6007h0s.0253-.0253.0337-.0337c.0253-.0169.0506-.0337.0675-.059.0169-.0169.0253-.0337.0337-.0506,0,0,.0084,0,.0169-.0169v-.0253c.0084-.0169.0169-.0337.0253-.0506,0-.0169.0084-.0337.0169-.059v-132.2733l4.4943-2.5971v132.4925l.0168.0084ZM482.3269,335.3217s.0253.0506.0337.0675c.0169.0253.0253.0422.0421.0675s.0421.0422.0674.059c.0169.0084.0253.0253.0421.0337l56.9078,32.8512h.0169c.059.0337.1181.0506.1939.0506s.1349-.0169.1855-.0506c.0169,0,.0253-.0169.0421-.0253.0421-.0337.0759-.0675.1096-.1096,0-.0084.0169-.0169.0253-.0253v-.0253c.0169-.0253.0169-.0506.0253-.0843,0-.0253.0169-.0506.0169-.0843v-55.4659s0-.0337-.0084-.0506c0-.0253,0-.059-.0169-.0843-.0084-.0253-.0253-.0506-.0337-.0675-.0169-.0253-.0253-.0422-.0421-.0675s-.0421-.0422-.0674-.059c-.0169-.0084-.0253-.0253-.0421-.0337l-56.9078-32.8512h-.0253l-.0759-.0253c-.0253,0-.059-.0169-.0843-.0169h-.0253c-.0169,0-.0337,0-.0506.0084-.0337,0-.059,0-.0843.0169-.0253.0084-.0506.0253-.0674.0337-.0253.0169-.0421.0253-.0674.0422-.0253.0169-.0421.0422-.059.0675-.0084.0169-.0253.0253-.0337.0422v.0253c-.0084.0253-.0169.0506-.0253.0759,0,.0253-.0169.059-.0169.0843v55.4659s0,.0337.0084.0506c0,.0337,0,.059.0169.0843ZM488.4738,283.5574l50.7271,29.2844v42.1433l-50.7271-29.2844v-42.1433ZM539.201,355.9633v11.3495l-55.9044-32.2778,4.9159-8.5079,50.9969,29.4447-.0084-.0084ZM483.1364,280.4797l4.4943,2.5971v42.7673l-4.4943,7.7828v-53.1471ZM610.3589,409.2453s.0253.0506.0337.0675c.0169.0253.0253.0422.0421.0675s.0421.0422.0674.059c.0169.0084.0253.0253.0421.0337l56.9078,32.8512h.0169c.059.0337.1181.0506.1939.0506s.1349-.0169.1855-.0506c.0169,0,.0253-.0169.0421-.0253.0421-.0337.0759-.0675.1096-.1096,0-.0084.0169-.0169.0253-.0253v-.0253c.0169-.0253.0169-.0506.0253-.0843,0-.0253.0169-.0506.0169-.0843v-55.4659s0-.0337-.0084-.0506c0-.0253,0-.059-.0169-.0843-.0084-.0253-.0253-.0506-.0337-.0675-.0169-.0253-.0253-.0422-.0421-.0675-.0169-.0253-.0421-.0422-.0675-.059-.0169-.0084-.0253-.0253-.0421-.0337l-56.9078-32.8512h-.0253c-.0253-.0169-.0506-.0169-.0759-.0253-.0253,0-.0506-.0169-.0843-.0169h-.0253c-.0169,0-.0337.0084-.0506.0084-.0253,0-.0506,0-.0759.0169-.0253.0084-.0506.0253-.0759.0337s-.0421.0253-.059.0422c-.0253.0169-.0421.0422-.059.0675-.0084.0169-.0253.0253-.0337.0337v.0253c-.0169.0253-.0169.0506-.0253.0843,0,.0253-.0169.0506-.0169.0843v55.4659s0,.0337.0084.0506c0,.0253,0,.059.0169.0843h-.0084ZM616.5142,357.4811l50.7271,29.2844v42.1433l-50.7271-29.2844v-42.1433ZM667.2329,429.8869v11.3495l-55.9044-32.2778,4.9159-8.5079,50.9969,29.4447-.0084-.0084ZM611.1768,354.4034l4.4943,2.5971v42.7673l-4.4943,7.7828v-53.1471ZM332.9787,556.4686c-.5228,0-.9191.3035-.9191.7083s.3963.7083.9191.7083.9191-.3035.9191-.7083-.3963-.7083-.9191-.7083ZM329.6228,566.1739c-.5228,0-.9191.3035-.9191.7083s.3963.7083.9191.7083.9191-.3035.9191-.7083-.3963-.7083-.9191-.7083ZM329.6228,562.2951c-.5228,0-.9191.3035-.9191.7083s.3963.7083.9191.7083.9191-.3035.9191-.7083-.3963-.7083-.9191-.7083ZM329.6228,558.408c-.5228,0-.9191.3035-.9191.7083s.3963.7083.9191.7083.9191-.3035.9191-.7083-.3963-.7083-.9191-.7083ZM326.2584,552.5899c-.5228,0-.9191.3035-.9191.7083s.3963.7083.9191.7083.9191-.3035.9191-.7083-.3963-.7083-.9191-.7083ZM332.9787,564.2345c-.5228,0-.9191.3035-.9191.7083s.3963.7083.9191.7083.9191-.3035.9191-.7083-.3963-.7083-.9191-.7083ZM329.6228,554.5292c-.5228,0-.9191.3035-.9191.7083s.3963.7083.9191.7083.9191-.3035.9191-.7083-.3963-.7083-.9191-.7083ZM332.9787,560.3558c-.5228,0-.9191.3035-.9191.7083s.3963.7083.9191.7083.9191-.3035.9191-.7083-.3963-.7083-.9191-.7083ZM326.2584,556.4686c-.5228,0-.9191.3035-.9191.7083s.3963.7083.9191.7083.9191-.3035.9191-.7083-.3963-.7083-.9191-.7083ZM292.6568,564.2345c-.5228,0-.9191.3035-.9191.7083s.3963.7083.9191.7083.9191-.3035.9191-.7083-.3963-.7083-.9191-.7083ZM302.733,550.6505c-.5228,0-.9191.3035-.9191.7083s.3963.7083.9191.7083.9191-.3035.9191-.7083-.3963-.7083-.9191-.7083ZM292.6568,560.3558c-.5228,0-.9191.3035-.9191.7083s.3963.7083.9191.7083.9191-.3035.9191-.7083-.3963-.7083-.9191-.7083ZM289.2924,550.6505c-.5228,0-.9191.3035-.9191.7083s.3963.7083.9191.7083.9191-.3035.9191-.7083-.3963-.7083-.9191-.7083ZM296.0127,562.2951c-.5228,0-.9191.3035-.9191.7083s.3963.7083.9191.7083.9191-.3035.9191-.7083-.3963-.7083-.9191-.7083ZM292.6568,556.4686c-.5228,0-.9191.3035-.9191.7083s.3963.7083.9191.7083.9191-.3035.9191-.7083-.3963-.7083-.9191-.7083ZM292.6568,544.8324c-.5228,0-.9191.3035-.9191.7083s.3963.7083.9191.7083.9191-.3035.9191-.7083-.3963-.7083-.9191-.7083ZM296.0127,566.1739c-.5228,0-.9191.3035-.9191.7083s.3963.7083.9191.7083.9191-.3035.9191-.7083-.3963-.7083-.9191-.7083ZM292.6568,548.7111c-.5228,0-.9191.3035-.9191.7083s.3963.7083.9191.7083.9191-.3035.9191-.7083-.3963-.7083-.9191-.7083ZM292.6568,552.5899c-.5228,0-.9191.3035-.9191.7083s.3963.7083.9191.7083.9191-.3035.9191-.7083-.3963-.7083-.9191-.7083ZM289.2924,546.7717c-.5228,0-.9191.3035-.9191.7083s.3963.7083.9191.7083.9191-.3035.9191-.7083-.3963-.7083-.9191-.7083ZM282.572,550.6505c-.5228,0-.9191.3035-.9191.7083s.3963.7083.9191.7083.9191-.3035.9191-.7083-.3963-.7083-.9191-.7083ZM285.928,560.3558c-.5228,0-.9191.3035-.9191.7083s.3963.7083.9191.7083.9191-.3035.9191-.7083-.3963-.7083-.9191-.7083ZM282.572,554.5292c-.5228,0-.9191.3035-.9191.7083s.3963.7083.9191.7083.9191-.3035.9191-.7083-.3963-.7083-.9191-.7083ZM285.928,556.4686c-.5228,0-.9191.3035-.9191.7083s.3963.7083.9191.7083.9191-.3035.9191-.7083-.3963-.7083-.9191-.7083ZM289.2924,554.5292c-.5228,0-.9191.3035-.9191.7083s.3963.7083.9191.7083.9191-.3035.9191-.7083-.3963-.7083-.9191-.7083ZM282.572,558.408c-.5228,0-.9191.3035-.9191.7083s.3963.7083.9191.7083.9191-.3035.9191-.7083-.3963-.7083-.9191-.7083ZM289.2924,558.408c-.5228,0-.9191.3035-.9191.7083s.3963.7083.9191.7083.9191-.3035.9191-.7083-.3963-.7083-.9191-.7083ZM285.928,548.7111c-.5228,0-.9191.3035-.9191.7083s.3963.7083.9191.7083.9191-.3035.9191-.7083-.3963-.7083-.9191-.7083ZM285.928,552.5899c-.5228,0-.9191.3035-.9191.7083s.3963.7083.9191.7083.9191-.3035.9191-.7083-.3963-.7083-.9191-.7083ZM289.2924,562.2951c-.5228,0-.9191.3035-.9191.7083s.3963.7083.9191.7083.9191-.3035.9191-.7083-.3963-.7083-.9191-.7083ZM299.3771,552.5899c-.5228,0-.9191.3035-.9191.7083s.3963.7083.9191.7083.9191-.3035.9191-.7083-.3963-.7083-.9191-.7083ZM302.733,570.0526c-.5228,0-.9191.3035-.9191.7083s.3963.7083.9191.7083.9191-.3035.9191-.7083-.3963-.7083-.9191-.7083ZM299.3771,540.9536c-.5228,0-.9191.3035-.9191.7083s.3963.7083.9191.7083.9191-.3035.9191-.7083-.3963-.7083-.9191-.7083ZM299.3771,548.7111c-.5228,0-.9191.3035-.9191.7083s.3963.7083.9191.7083.9191-.3035.9191-.7083-.3963-.7083-.9191-.7083ZM299.3771,544.8324c-.5228,0-.9191.3035-.9191.7083s.3963.7083.9191.7083.9191-.3035.9191-.7083-.3963-.7083-.9191-.7083ZM302.733,554.5292c-.5228,0-.9191.3035-.9191.7083s.3963.7083.9191.7083.9191-.3035.9191-.7083-.3963-.7083-.9191-.7083ZM302.733,566.1739c-.5228,0-.9191.3035-.9191.7083s.3963.7083.9191.7083.9191-.3035.9191-.7083-.3963-.7083-.9191-.7083ZM302.733,558.408c-.5228,0-.9191.3035-.9191.7083s.3963.7083.9191.7083.9191-.3035.9191-.7083-.3963-.7083-.9191-.7083ZM302.733,562.2951c-.5228,0-.9191.3035-.9191.7083s.3963.7083.9191.7083.9191-.3035.9191-.7083-.3963-.7083-.9191-.7083ZM299.3771,564.2345c-.5228,0-.9191.3035-.9191.7083s.3963.7083.9191.7083.9191-.3035.9191-.7083-.3963-.7083-.9191-.7083ZM296.0127,542.893c-.5228,0-.9191.3035-.9191.7083s.3963.7083.9191.7083.9191-.3035.9191-.7083-.3963-.7083-.9191-.7083ZM296.0127,550.6505c-.5228,0-.9191.3035-.9191.7083s.3963.7083.9191.7083.9191-.3035.9191-.7083-.3963-.7083-.9191-.7083ZM296.0127,546.7717c-.5228,0-.9191.3035-.9191.7083s.3963.7083.9191.7083.9191-.3035.9191-.7083-.3963-.7083-.9191-.7083ZM299.3771,556.4686c-.5228,0-.9191.3035-.9191.7083s.3963.7083.9191.7083.9191-.3035.9191-.7083-.3963-.7083-.9191-.7083ZM316.1737,558.408c-.5228,0-.9191.3035-.9191.7083s.3963.7083.9191.7083.9191-.3035.9191-.7083-.3963-.7083-.9191-.7083ZM299.3771,568.1132c-.5228,0-.9191.3035-.9191.7083s.3963.7083.9191.7083.9191-.3035.9191-.7083-.3963-.7083-.9191-.7083ZM299.3771,560.3558c-.5228,0-.9191.3035-.9191.7083s.3963.7083.9191.7083.9191-.3035.9191-.7083-.3963-.7083-.9191-.7083ZM296.0127,558.408c-.5228,0-.9191.3035-.9191.7083s.3963.7083.9191.7083.9191-.3035.9191-.7083-.3963-.7083-.9191-.7083ZM296.0127,554.5292c-.5228,0-.9191.3035-.9191.7083s.3963.7083.9191.7083.9191-.3035.9191-.7083-.3963-.7083-.9191-.7083ZM309.4534,558.408c-.5228,0-.9191.3035-.9191.7083s.3963.7083.9191.7083.9191-.3035.9191-.7083-.3963-.7083-.9191-.7083ZM312.8177,571.992c-.5228,0-.9191.3035-.9191.7083s.3963.7083.9191.7083.9191-.3035.9191-.7083-.3963-.7083-.9191-.7083ZM312.8177,568.1132c-.5228,0-.9191.3035-.9191.7083s.3963.7083.9191.7083.9191-.3035.9191-.7083-.3963-.7083-.9191-.7083ZM312.8177,564.2345c-.5228,0-.9191.3035-.9191.7083s.3963.7083.9191.7083.9191-.3035.9191-.7083-.3963-.7083-.9191-.7083ZM312.8177,560.3558c-.5228,0-.9191.3035-.9191.7083s.3963.7083.9191.7083.9191-.3035.9191-.7083-.3963-.7083-.9191-.7083ZM309.4534,550.6505c-.5228,0-.9191.3035-.9191.7083s.3963.7083.9191.7083.9191-.3035.9191-.7083-.3963-.7083-.9191-.7083ZM309.4534,554.5292c-.5228,0-.9191.3035-.9191.7083s.3963.7083.9191.7083.9191-.3035.9191-.7083-.3963-.7083-.9191-.7083ZM309.4534,542.893c-.5228,0-.9191.3035-.9191.7083s.3963.7083.9191.7083.9191-.3035.9191-.7083-.3963-.7083-.9191-.7083ZM309.4534,546.7717c-.5228,0-.9191.3035-.9191.7083s.3963.7083.9191.7083.9191-.3035.9191-.7083-.3963-.7083-.9191-.7083ZM279.2077,552.5899c-.5228,0-.9191.3035-.9191.7083s.3963.7083.9191.7083.9191-.3035.9191-.7083-.3963-.7083-.9191-.7083ZM312.8177,556.4686c-.5228,0-.9191.3035-.9191.7083s.3963.7083.9191.7083.9191-.3035.9191-.7083-.3963-.7083-.9191-.7083ZM316.1737,566.1739c-.5228,0-.9191.3035-.9191.7083s.3963.7083.9191.7083.9191-.3035.9191-.7083-.3963-.7083-.9191-.7083ZM316.1737,570.0526c-.5228,0-.9191.3035-.9191.7083s.3963.7083.9191.7083.9191-.3035.9191-.7083-.3963-.7083-.9191-.7083ZM316.1737,562.2951c-.5228,0-.9191.3035-.9191.7083s.3963.7083.9191.7083.9191-.3035.9191-.7083-.3963-.7083-.9191-.7083ZM316.1737,573.9313c-.5228,0-.9191.3035-.9191.7083s.3963.7083.9191.7083.9191-.3035.9191-.7083-.3963-.7083-.9191-.7083ZM312.8177,544.8324c-.5228,0-.9191.3035-.9191.7083s.3963.7083.9191.7083.9191-.3035.9191-.7083-.3963-.7083-.9191-.7083ZM312.8177,552.5899c-.5228,0-.9191.3035-.9191.7083s.3963.7083.9191.7083.9191-.3035.9191-.7083-.3963-.7083-.9191-.7083ZM312.8177,548.7111c-.5228,0-.9191.3035-.9191.7083s.3963.7083.9191.7083.9191-.3035.9191-.7083-.3963-.7083-.9191-.7083ZM312.8177,575.8707c-.5228,0-.9191.3035-.9191.7083s.3963.7083.9191.7083.9191-.3035.9191-.7083-.3963-.7083-.9191-.7083ZM302.733,539.0143c-.5228,0-.9191.3035-.9191.7083s.3963.7083.9191.7083.9191-.3035.9191-.7083-.3963-.7083-.9191-.7083ZM306.0974,568.1132c-.5228,0-.9191.3035-.9191.7083s.3963.7083.9191.7083.9191-.3035.9191-.7083-.3963-.7083-.9191-.7083ZM306.0974,571.992c-.5228,0-.9191.3035-.9191.7083s.3963.7083.9191.7083.9191-.3035.9191-.7083-.3963-.7083-.9191-.7083ZM306.0974,564.2345c-.5228,0-.9191.3035-.9191.7083s.3963.7083.9191.7083.9191-.3035.9191-.7083-.3963-.7083-.9191-.7083ZM302.733,542.893c-.5228,0-.9191.3035-.9191.7083s.3963.7083.9191.7083.9191-.3035.9191-.7083-.3963-.7083-.9191-.7083ZM309.4534,562.2951c-.5228,0-.9191.3035-.9191.7083s.3963.7083.9191.7083.9191-.3035.9191-.7083-.3963-.7083-.9191-.7083ZM279.2077,556.4686c-.5228,0-.9191.3035-.9191.7083s.3963.7083.9191.7083.9191-.3035.9191-.7083-.3963-.7083-.9191-.7083ZM306.0974,560.3558c-.5228,0-.9191.3035-.9191.7083s.3963.7083.9191.7083.9191-.3035.9191-.7083-.3963-.7083-.9191-.7083ZM302.733,546.7717c-.5228,0-.9191.3035-.9191.7083s.3963.7083.9191.7083.9191-.3035.9191-.7083-.3963-.7083-.9191-.7083ZM275.8517,554.5292c-.5228,0-.9191.3035-.9191.7083s.3963.7083.9191.7083.9191-.3035.9191-.7083-.3963-.7083-.9191-.7083ZM309.4534,573.9313c-.5228,0-.9191.3035-.9191.7083s.3963.7083.9191.7083.9191-.3035.9191-.7083-.3963-.7083-.9191-.7083ZM309.4534,570.0526c-.5228,0-.9191.3035-.9191.7083s.3963.7083.9191.7083.9191-.3035.9191-.7083-.3963-.7083-.9191-.7083ZM306.0974,556.4686c-.5228,0-.9191.3035-.9191.7083s.3963.7083.9191.7083.9191-.3035.9191-.7083-.3963-.7083-.9191-.7083ZM309.4534,566.1739c-.5228,0-.9191.3035-.9191.7083s.3963.7083.9191.7083.9191-.3035.9191-.7083-.3963-.7083-.9191-.7083ZM306.0974,540.9536c-.5228,0-.9191.3035-.9191.7083s.3963.7083.9191.7083.9191-.3035.9191-.7083-.3963-.7083-.9191-.7083ZM306.0974,552.5899c-.5228,0-.9191.3035-.9191.7083s.3963.7083.9191.7083.9191-.3035.9191-.7083-.3963-.7083-.9191-.7083ZM306.0974,548.7111c-.5228,0-.9191.3035-.9191.7083s.3963.7083.9191.7083.9191-.3035.9191-.7083-.3963-.7083-.9191-.7083ZM306.0974,544.8324c-.5228,0-.9191.3035-.9191.7083s.3963.7083.9191.7083.9191-.3035.9191-.7083-.3963-.7083-.9191-.7083Z"/>
  </g>
  <g id="Layer_3" data-name="Layer 3">
    <polygon points="342.21 584.22 325.84 574.77 342.21 565.32 342.21 584.22"/>
    <polygon points="271.22 578.05 271.22 559.15 287.59 568.6 271.22 578.05"/>
    <path d="M436.23,461.24l-18.39-10.61,36.75-21.22v26.78l64.1,37,31-17.87,7.69,4.44v23.64l97.89,56.6,16.25-9.38v-40.14l17.05,9.84v12.18l-7.57,4.39v45.24l21.37,12.33,2.67-1.54v3.08l21.37,12.34,53.42-30.84v-4.5l34.17,19.72-315.16,182-126.97-73.33,9.63-6.51v-10.21l19.09,11,17.54-10.12v-6.7l29.25-16.85v-1.53h0l2.68-1.54v-7.93l-.23-.13.23-.13v-7.65l-.22-.12.22-.13v-4l32.05-18.5,21.36,12.33,18.7-10.79v-4.63l2.67-1.54v-7.71l-.22-.13.22-.13v-7.52l-.22-.13.22-.12v-7.5699l-.22-.13.22-.13v-8.8l-42.73-24.67v-21.78l15-8.65v-37l-42.73-24.67-4.46,2.57-12.72-7.34h0v-.9c0-.16-.21-.28-.47-.28s-.47.12-.47.28l-.0299.34Z"/>
    <path d="M269.32,556.14v28.77l.22.13c-.0024.0584.0237.1144.07.15l1.56.9c.0531.0284.1169.0284.17,0l1.32-.76v-.14l.22-.13v-.13l-1.66-1v-1.9301l39.06,22.55v4.08l1.54.89h.09l.1.06c.0512.0352.1188.0352.17,0h0l1.53-.88c.0478-.0345.0742-.0912.07-.15v-4l28.37-16.38v1.92c.0089.0327.0089.0673,0,.1h-.08l-1.55.9v.13l1.66,1c.0247.0143.0552.0143.08,0h0l1.54-.89v-.08l.23-.12v-29.59l-42.74-24.68-32.05,18.51.0799.77ZM180.88,560.38l32.05,18.51,32-18.51v-24.67l21.37,12.34,16-9.26v-28.62l47.93,27.68,4.45-2.57h3.78v-38.87l34.78-20.08,11.3,6.52v56l-32.27,18.63v70.34l-21.88,12.63v37l-149.69-86.45v-30.51l.18-.11Z"/>
  </g>
</svg>