<svg width="1000" height="1000" viewBox="0 0 1000 1000" fill="none" xmlns="http://www.w3.org/2000/svg">
<path d="M461.398 776.2L264.398 678.4" stroke="#333333" stroke-width="0.6011" stroke-miterlimit="10" stroke-linecap="round" stroke-linejoin="round"/>
<path d="M461.404 776.2V770.5" stroke="#333333" stroke-width="0.6011" stroke-miterlimit="10" stroke-linecap="round" stroke-linejoin="round"/>
<path d="M264.398 672.8L461.398 770.5" stroke="#333333" stroke-width="0.6011" stroke-miterlimit="10" stroke-linecap="round" stroke-linejoin="round"/>
<path d="M264.398 678.4V672.8" stroke="#333333" stroke-width="0.6011" stroke-miterlimit="10" stroke-linecap="round" stroke-linejoin="round"/>
<path d="M779.602 562.4V556.8" stroke="#333333" stroke-width="0.6011" stroke-miterlimit="10" stroke-linecap="round" stroke-linejoin="round"/>
<path d="M779.604 562.4L461.404 776.2" stroke="#333333" stroke-width="0.6011" stroke-miterlimit="10" stroke-linecap="round" stroke-linejoin="round"/>
<path d="M461.404 770.5L779.604 556.8" stroke="#333333" stroke-width="0.6011" stroke-miterlimit="10" stroke-linecap="round" stroke-linejoin="round"/>
<path d="M492.395 619.6V611.1" stroke="#333333" stroke-width="0.6011" stroke-miterlimit="10" stroke-linecap="round" stroke-linejoin="round"/>
<path d="M492.395 619.601L529.095 637.901" stroke="#333333" stroke-width="0.6011" stroke-miterlimit="10" stroke-linecap="round" stroke-linejoin="round"/>
<path d="M529.102 629.4V637.9" stroke="#333333" stroke-width="0.6011" stroke-miterlimit="10" stroke-linecap="round" stroke-linejoin="round"/>
<path d="M492.395 611.1L529.095 629.4" stroke="#333333" stroke-width="0.6011" stroke-miterlimit="10" stroke-linecap="round" stroke-linejoin="round"/>
<path d="M492.395 611.1L600.695 538.4" stroke="#333333" stroke-width="0.6011" stroke-miterlimit="10" stroke-linecap="round" stroke-linejoin="round"/>
<path d="M637.502 556.6L529.102 629.4" stroke="#333333" stroke-width="0.6011" stroke-miterlimit="10" stroke-linecap="round" stroke-linejoin="round"/>
<path d="M600.695 538.4L637.495 556.6" stroke="#333333" stroke-width="0.6011" stroke-miterlimit="10" stroke-linecap="round" stroke-linejoin="round"/>
<path d="M637.5 565.1V556.6" stroke="#333333" stroke-width="0.6011" stroke-miterlimit="10" stroke-linecap="round" stroke-linejoin="round"/>
<path d="M529.102 637.9L637.502 565.1" stroke="#333333" stroke-width="0.6011" stroke-miterlimit="10" stroke-linecap="round" stroke-linejoin="round"/>
<path d="M683.398 307.5V318.3" stroke="#333333" stroke-width="0.6011" stroke-miterlimit="10" stroke-linecap="round" stroke-linejoin="round"/>
<path d="M681.695 319.5V305.8" stroke="#333333" stroke-width="0.6011" stroke-miterlimit="10" stroke-linecap="round" stroke-linejoin="round"/>
<path d="M683.395 318.3L681.695 319.5" stroke="#333333" stroke-width="0.6011" stroke-miterlimit="10" stroke-linecap="round" stroke-linejoin="round"/>
<path d="M683.398 318.3L743.598 369.8" stroke="#333333" stroke-width="0.6011" stroke-miterlimit="10" stroke-linecap="round" stroke-linejoin="round"/>
<path d="M757.995 384.7L681.695 319.5" stroke="#333333" stroke-width="0.6011" stroke-miterlimit="10" stroke-linecap="round" stroke-linejoin="round"/>
<path d="M681.695 305.8L757.995 384.7" stroke="#333333" stroke-width="0.6011" stroke-miterlimit="10" stroke-linecap="round" stroke-linejoin="round"/>
<path d="M608.496 306.401L651.896 312.301" stroke="#333333" stroke-width="0.6011" stroke-miterlimit="10" stroke-linecap="round" stroke-linejoin="round"/>
<path d="M659.494 313.4L677.094 315.8" stroke="#333333" stroke-width="0.6011" stroke-miterlimit="10" stroke-linecap="round" stroke-linejoin="round"/>
<path d="M677.1 317.2L661.1 315" stroke="#333333" stroke-width="0.6011" stroke-miterlimit="10" stroke-linecap="round" stroke-linejoin="round"/>
<path d="M644.303 312.7L600.803 306.7" stroke="#333333" stroke-width="0.6011" stroke-miterlimit="10" stroke-linecap="round" stroke-linejoin="round"/>
<path d="M677.094 303.5V317.2" stroke="#333333" stroke-width="0.6011" stroke-miterlimit="10" stroke-linecap="round" stroke-linejoin="round"/>
<path d="M600.803 306.7L677.103 303.5" stroke="#333333" stroke-width="0.6011" stroke-miterlimit="10" stroke-linecap="round" stroke-linejoin="round"/>
<path d="M585.602 309.8L615.202 313.9" stroke="#333333" stroke-width="0.6011" stroke-miterlimit="10" stroke-linecap="round" stroke-linejoin="round"/>
<path d="M651.996 318.901L654.296 319.301" stroke="#333333" stroke-width="0.6011" stroke-miterlimit="10" stroke-linecap="round" stroke-linejoin="round"/>
<path d="M666.895 321L679.395 322.7" stroke="#333333" stroke-width="0.6011" stroke-miterlimit="10" stroke-linecap="round" stroke-linejoin="round"/>
<path d="M581 307.5L585.6 309.8" stroke="#333333" stroke-width="0.6011" stroke-miterlimit="10" stroke-linecap="round" stroke-linejoin="round"/>
<path d="M581 302V307.5" stroke="#333333" stroke-width="0.6011" stroke-miterlimit="10" stroke-linecap="round" stroke-linejoin="round"/>
<path d="M582.7 300.9L581 302" stroke="#333333" stroke-width="0.6011" stroke-miterlimit="10" stroke-linecap="round" stroke-linejoin="round"/>
<path d="M681.093 296.7L582.693 300.9" stroke="#333333" stroke-width="0.6011" stroke-miterlimit="10" stroke-linecap="round" stroke-linejoin="round"/>
<path d="M679.4 297.9L581 302" stroke="#333333" stroke-width="0.6011" stroke-miterlimit="10" stroke-linecap="round" stroke-linejoin="round"/>
<path d="M681.094 296.7L679.395 297.9" stroke="#333333" stroke-width="0.6011" stroke-miterlimit="10" stroke-linecap="round" stroke-linejoin="round"/>
<path d="M779.598 398.6L681.098 296.7" stroke="#333333" stroke-width="0.6011" stroke-miterlimit="10" stroke-linecap="round" stroke-linejoin="round"/>
<path d="M777.895 399.7L679.395 297.9" stroke="#333333" stroke-width="0.6011" stroke-miterlimit="10" stroke-linecap="round" stroke-linejoin="round"/>
<path d="M779.596 398.6L777.896 399.7" stroke="#333333" stroke-width="0.6011" stroke-miterlimit="10" stroke-linecap="round" stroke-linejoin="round"/>
<path d="M779.602 404.1V398.6" stroke="#333333" stroke-width="0.6011" stroke-miterlimit="10" stroke-linecap="round" stroke-linejoin="round"/>
<path d="M777.896 405.3V399.7" stroke="#333333" stroke-width="0.6011" stroke-miterlimit="10" stroke-linecap="round" stroke-linejoin="round"/>
<path d="M779.596 404.1L777.896 405.3" stroke="#333333" stroke-width="0.6011" stroke-miterlimit="10" stroke-linecap="round" stroke-linejoin="round"/>
<path d="M773.297 403L777.897 405.3" stroke="#333333" stroke-width="0.6011" stroke-miterlimit="10" stroke-linecap="round" stroke-linejoin="round"/>
<path d="M679.395 322.7L773.294 403" stroke="#333333" stroke-width="0.6011" stroke-miterlimit="10" stroke-linecap="round" stroke-linejoin="round"/>
<path d="M660.602 322.9V333.7" stroke="#333333" stroke-width="0.6011" stroke-miterlimit="10" stroke-linecap="round" stroke-linejoin="round"/>
<path d="M658.898 334.801V321.101" stroke="#333333" stroke-width="0.6011" stroke-miterlimit="10" stroke-linecap="round" stroke-linejoin="round"/>
<path d="M660.598 333.7L658.898 334.8" stroke="#333333" stroke-width="0.6011" stroke-miterlimit="10" stroke-linecap="round" stroke-linejoin="round"/>
<path d="M660.602 333.7L720.802 385.2" stroke="#333333" stroke-width="0.6011" stroke-miterlimit="10" stroke-linecap="round" stroke-linejoin="round"/>
<path d="M735.198 400.1L658.898 334.8" stroke="#333333" stroke-width="0.6011" stroke-miterlimit="10" stroke-linecap="round" stroke-linejoin="round"/>
<path d="M658.898 321.101L735.198 400.101" stroke="#333333" stroke-width="0.6011" stroke-miterlimit="10" stroke-linecap="round" stroke-linejoin="round"/>
<path d="M585.602 321.7L654.302 331.2" stroke="#333333" stroke-width="0.6011" stroke-miterlimit="10" stroke-linecap="round" stroke-linejoin="round"/>
<path d="M654.294 332.5L577.994 322.1" stroke="#333333" stroke-width="0.6011" stroke-miterlimit="10" stroke-linecap="round" stroke-linejoin="round"/>
<path d="M654.297 318.8V332.5" stroke="#333333" stroke-width="0.6011" stroke-miterlimit="10" stroke-linecap="round" stroke-linejoin="round"/>
<path d="M577.994 322.1L654.294 318.8" stroke="#333333" stroke-width="0.6011" stroke-miterlimit="10" stroke-linecap="round" stroke-linejoin="round"/>
<path d="M562.695 325.2L607.195 331.3" stroke="#333333" stroke-width="0.6011" stroke-miterlimit="10" stroke-linecap="round" stroke-linejoin="round"/>
<path d="M636.002 335.2L656.602 338.1" stroke="#333333" stroke-width="0.6011" stroke-miterlimit="10" stroke-linecap="round" stroke-linejoin="round"/>
<path d="M558.094 322.9L562.694 325.2" stroke="#333333" stroke-width="0.6011" stroke-miterlimit="10" stroke-linecap="round" stroke-linejoin="round"/>
<path d="M558.094 317.4V322.9" stroke="#333333" stroke-width="0.6011" stroke-miterlimit="10" stroke-linecap="round" stroke-linejoin="round"/>
<path d="M559.794 316.2L558.094 317.4" stroke="#333333" stroke-width="0.6011" stroke-miterlimit="10" stroke-linecap="round" stroke-linejoin="round"/>
<path d="M658.299 312.1L559.799 316.2" stroke="#333333" stroke-width="0.6011" stroke-miterlimit="10" stroke-linecap="round" stroke-linejoin="round"/>
<path d="M656.594 313.201L558.094 317.401" stroke="#333333" stroke-width="0.6011" stroke-miterlimit="10" stroke-linecap="round" stroke-linejoin="round"/>
<path d="M658.298 312.1L656.598 313.2" stroke="#333333" stroke-width="0.6011" stroke-miterlimit="10" stroke-linecap="round" stroke-linejoin="round"/>
<path d="M756.701 413.9L658.301 312.1" stroke="#333333" stroke-width="0.6011" stroke-miterlimit="10" stroke-linecap="round" stroke-linejoin="round"/>
<path d="M754.998 415.101L656.598 313.201" stroke="#333333" stroke-width="0.6011" stroke-miterlimit="10" stroke-linecap="round" stroke-linejoin="round"/>
<path d="M756.702 413.9L755.002 415.1" stroke="#333333" stroke-width="0.6011" stroke-miterlimit="10" stroke-linecap="round" stroke-linejoin="round"/>
<path d="M756.695 419.5V413.9" stroke="#333333" stroke-width="0.6011" stroke-miterlimit="10" stroke-linecap="round" stroke-linejoin="round"/>
<path d="M755.002 420.6V415.1" stroke="#333333" stroke-width="0.6011" stroke-miterlimit="10" stroke-linecap="round" stroke-linejoin="round"/>
<path d="M756.702 419.5L755.002 420.6" stroke="#333333" stroke-width="0.6011" stroke-miterlimit="10" stroke-linecap="round" stroke-linejoin="round"/>
<path d="M750.402 418.3L755.002 420.6" stroke="#333333" stroke-width="0.6011" stroke-miterlimit="10" stroke-linecap="round" stroke-linejoin="round"/>
<path d="M656.598 338.1L750.398 418.3" stroke="#333333" stroke-width="0.6011" stroke-miterlimit="10" stroke-linecap="round" stroke-linejoin="round"/>
<path d="M633.496 341.1V351.9" stroke="#333333" stroke-width="0.6011" stroke-miterlimit="10" stroke-linecap="round" stroke-linejoin="round"/>
<path d="M631.793 353.001V339.301" stroke="#333333" stroke-width="0.6011" stroke-miterlimit="10" stroke-linecap="round" stroke-linejoin="round"/>
<path d="M633.493 351.9L631.793 353" stroke="#333333" stroke-width="0.6011" stroke-miterlimit="10" stroke-linecap="round" stroke-linejoin="round"/>
<path d="M633.496 351.9L693.696 403.3" stroke="#333333" stroke-width="0.6011" stroke-miterlimit="10" stroke-linecap="round" stroke-linejoin="round"/>
<path d="M708.093 418.2L631.793 353" stroke="#333333" stroke-width="0.6011" stroke-miterlimit="10" stroke-linecap="round" stroke-linejoin="round"/>
<path d="M631.793 339.301L708.093 418.201" stroke="#333333" stroke-width="0.6011" stroke-miterlimit="10" stroke-linecap="round" stroke-linejoin="round"/>
<path d="M558.496 339.9L627.196 349.4" stroke="#333333" stroke-width="0.6011" stroke-miterlimit="10" stroke-linecap="round" stroke-linejoin="round"/>
<path d="M627.2 350.7L550.9 340.2" stroke="#333333" stroke-width="0.6011" stroke-miterlimit="10" stroke-linecap="round" stroke-linejoin="round"/>
<path d="M627.203 337V350.7" stroke="#333333" stroke-width="0.6011" stroke-miterlimit="10" stroke-linecap="round" stroke-linejoin="round"/>
<path d="M550.9 340.2L627.2 337" stroke="#333333" stroke-width="0.6011" stroke-miterlimit="10" stroke-linecap="round" stroke-linejoin="round"/>
<path d="M535.602 343.4L580.102 349.5" stroke="#333333" stroke-width="0.6011" stroke-miterlimit="10" stroke-linecap="round" stroke-linejoin="round"/>
<path d="M608.898 353.4L629.498 356.3" stroke="#333333" stroke-width="0.6011" stroke-miterlimit="10" stroke-linecap="round" stroke-linejoin="round"/>
<path d="M531 341.1L535.6 343.4" stroke="#333333" stroke-width="0.6011" stroke-miterlimit="10" stroke-linecap="round" stroke-linejoin="round"/>
<path d="M531 335.5V341.1" stroke="#333333" stroke-width="0.6011" stroke-miterlimit="10" stroke-linecap="round" stroke-linejoin="round"/>
<path d="M532.7 334.4L531 335.5" stroke="#333333" stroke-width="0.6011" stroke-miterlimit="10" stroke-linecap="round" stroke-linejoin="round"/>
<path d="M631.203 330.301L532.703 334.401" stroke="#333333" stroke-width="0.6011" stroke-miterlimit="10" stroke-linecap="round" stroke-linejoin="round"/>
<path d="M629.5 331.401L531 335.501" stroke="#333333" stroke-width="0.6011" stroke-miterlimit="10" stroke-linecap="round" stroke-linejoin="round"/>
<path d="M631.204 330.3L629.504 331.4" stroke="#333333" stroke-width="0.6011" stroke-miterlimit="10" stroke-linecap="round" stroke-linejoin="round"/>
<path d="M729.595 432.1L631.195 330.3" stroke="#333333" stroke-width="0.6011" stroke-miterlimit="10" stroke-linecap="round" stroke-linejoin="round"/>
<path d="M727.904 433.301L629.504 331.401" stroke="#333333" stroke-width="0.6011" stroke-miterlimit="10" stroke-linecap="round" stroke-linejoin="round"/>
<path d="M729.596 432.1L727.896 433.3" stroke="#333333" stroke-width="0.6011" stroke-miterlimit="10" stroke-linecap="round" stroke-linejoin="round"/>
<path d="M729.602 437.7V432.1" stroke="#333333" stroke-width="0.6011" stroke-miterlimit="10" stroke-linecap="round" stroke-linejoin="round"/>
<path d="M727.896 438.8V433.3" stroke="#333333" stroke-width="0.6011" stroke-miterlimit="10" stroke-linecap="round" stroke-linejoin="round"/>
<path d="M729.596 437.7L727.896 438.8" stroke="#333333" stroke-width="0.6011" stroke-miterlimit="10" stroke-linecap="round" stroke-linejoin="round"/>
<path d="M723.395 436.5L727.895 438.8" stroke="#333333" stroke-width="0.6011" stroke-miterlimit="10" stroke-linecap="round" stroke-linejoin="round"/>
<path d="M629.504 356.3L723.404 436.5" stroke="#333333" stroke-width="0.6011" stroke-miterlimit="10" stroke-linecap="round" stroke-linejoin="round"/>
<path d="M606.402 359.3V370.1" stroke="#333333" stroke-width="0.6011" stroke-miterlimit="10" stroke-linecap="round" stroke-linejoin="round"/>
<path d="M604.699 371.201V357.5" stroke="#333333" stroke-width="0.6011" stroke-miterlimit="10" stroke-linecap="round" stroke-linejoin="round"/>
<path d="M606.399 370.1L604.699 371.2" stroke="#333333" stroke-width="0.6011" stroke-miterlimit="10" stroke-linecap="round" stroke-linejoin="round"/>
<path d="M606.402 370.1L666.602 421.5" stroke="#333333" stroke-width="0.6011" stroke-miterlimit="10" stroke-linecap="round" stroke-linejoin="round"/>
<path d="M680.999 436.4L604.699 371.2" stroke="#333333" stroke-width="0.6011" stroke-miterlimit="10" stroke-linecap="round" stroke-linejoin="round"/>
<path d="M604.699 357.5L680.999 436.4" stroke="#333333" stroke-width="0.6011" stroke-miterlimit="10" stroke-linecap="round" stroke-linejoin="round"/>
<path d="M531.5 358.1L600.1 367.5" stroke="#333333" stroke-width="0.6011" stroke-miterlimit="10" stroke-linecap="round" stroke-linejoin="round"/>
<path d="M600.095 368.901L523.795 358.401" stroke="#333333" stroke-width="0.6011" stroke-miterlimit="10" stroke-linecap="round" stroke-linejoin="round"/>
<path d="M600.098 355.2V368.9" stroke="#333333" stroke-width="0.6011" stroke-miterlimit="10" stroke-linecap="round" stroke-linejoin="round"/>
<path d="M523.795 358.4L600.095 355.2" stroke="#333333" stroke-width="0.6011" stroke-miterlimit="10" stroke-linecap="round" stroke-linejoin="round"/>
<path d="M508.594 361.5L552.994 367.7" stroke="#333333" stroke-width="0.6011" stroke-miterlimit="10" stroke-linecap="round" stroke-linejoin="round"/>
<path d="M581.793 371.6L602.393 374.4" stroke="#333333" stroke-width="0.6011" stroke-miterlimit="10" stroke-linecap="round" stroke-linejoin="round"/>
<path d="M504.004 359.3L508.604 361.5" stroke="#333333" stroke-width="0.6011" stroke-miterlimit="10" stroke-linecap="round" stroke-linejoin="round"/>
<path d="M504.004 353.7V359.3" stroke="#333333" stroke-width="0.6011" stroke-miterlimit="10" stroke-linecap="round" stroke-linejoin="round"/>
<path d="M505.704 352.6L504.004 353.7" stroke="#333333" stroke-width="0.6011" stroke-miterlimit="10" stroke-linecap="round" stroke-linejoin="round"/>
<path d="M604.097 348.5L505.697 352.6" stroke="#333333" stroke-width="0.6011" stroke-miterlimit="10" stroke-linecap="round" stroke-linejoin="round"/>
<path d="M602.404 349.6L504.004 353.7" stroke="#333333" stroke-width="0.6011" stroke-miterlimit="10" stroke-linecap="round" stroke-linejoin="round"/>
<path d="M604.098 348.5L602.398 349.6" stroke="#333333" stroke-width="0.6011" stroke-miterlimit="10" stroke-linecap="round" stroke-linejoin="round"/>
<path d="M702.602 450.3L604.102 348.5" stroke="#333333" stroke-width="0.6011" stroke-miterlimit="10" stroke-linecap="round" stroke-linejoin="round"/>
<path d="M700.898 451.5L602.398 349.6" stroke="#333333" stroke-width="0.6011" stroke-miterlimit="10" stroke-linecap="round" stroke-linejoin="round"/>
<path d="M702.6 450.3L700.9 451.5" stroke="#333333" stroke-width="0.6011" stroke-miterlimit="10" stroke-linecap="round" stroke-linejoin="round"/>
<path d="M702.594 455.9V450.3" stroke="#333333" stroke-width="0.6011" stroke-miterlimit="10" stroke-linecap="round" stroke-linejoin="round"/>
<path d="M700.9 457V451.5" stroke="#333333" stroke-width="0.6011" stroke-miterlimit="10" stroke-linecap="round" stroke-linejoin="round"/>
<path d="M702.6 455.9L700.9 457" stroke="#333333" stroke-width="0.6011" stroke-miterlimit="10" stroke-linecap="round" stroke-linejoin="round"/>
<path d="M696.301 454.7L700.901 457" stroke="#333333" stroke-width="0.6011" stroke-miterlimit="10" stroke-linecap="round" stroke-linejoin="round"/>
<path d="M602.398 374.401L696.298 454.701" stroke="#333333" stroke-width="0.6011" stroke-miterlimit="10" stroke-linecap="round" stroke-linejoin="round"/>
<path d="M579.297 377.4V388.2" stroke="#333333" stroke-width="0.6011" stroke-miterlimit="10" stroke-linecap="round" stroke-linejoin="round"/>
<path d="M577.594 389.4V375.7" stroke="#333333" stroke-width="0.6011" stroke-miterlimit="10" stroke-linecap="round" stroke-linejoin="round"/>
<path d="M579.294 388.2L577.594 389.4" stroke="#333333" stroke-width="0.6011" stroke-miterlimit="10" stroke-linecap="round" stroke-linejoin="round"/>
<path d="M579.297 388.2L639.497 439.7" stroke="#333333" stroke-width="0.6011" stroke-miterlimit="10" stroke-linecap="round" stroke-linejoin="round"/>
<path d="M653.894 454.6L577.594 389.4" stroke="#333333" stroke-width="0.6011" stroke-miterlimit="10" stroke-linecap="round" stroke-linejoin="round"/>
<path d="M577.594 375.7L653.894 454.6" stroke="#333333" stroke-width="0.6011" stroke-miterlimit="10" stroke-linecap="round" stroke-linejoin="round"/>
<path d="M504.395 376.3L572.995 385.7" stroke="#333333" stroke-width="0.6011" stroke-miterlimit="10" stroke-linecap="round" stroke-linejoin="round"/>
<path d="M573.001 387.1L496.701 376.6" stroke="#333333" stroke-width="0.6011" stroke-miterlimit="10" stroke-linecap="round" stroke-linejoin="round"/>
<path d="M573.004 373.4V387.1" stroke="#333333" stroke-width="0.6011" stroke-miterlimit="10" stroke-linecap="round" stroke-linejoin="round"/>
<path d="M496.701 376.6L573.001 373.4" stroke="#333333" stroke-width="0.6011" stroke-miterlimit="10" stroke-linecap="round" stroke-linejoin="round"/>
<path d="M481.5 379.7L525.9 385.8" stroke="#333333" stroke-width="0.6011" stroke-miterlimit="10" stroke-linecap="round" stroke-linejoin="round"/>
<path d="M554.699 389.8L575.299 392.6" stroke="#333333" stroke-width="0.6011" stroke-miterlimit="10" stroke-linecap="round" stroke-linejoin="round"/>
<path d="M476.898 377.5L481.498 379.7" stroke="#333333" stroke-width="0.6011" stroke-miterlimit="10" stroke-linecap="round" stroke-linejoin="round"/>
<path d="M476.898 371.9V377.5" stroke="#333333" stroke-width="0.6011" stroke-miterlimit="10" stroke-linecap="round" stroke-linejoin="round"/>
<path d="M478.598 370.8L476.898 371.9" stroke="#333333" stroke-width="0.6011" stroke-miterlimit="10" stroke-linecap="round" stroke-linejoin="round"/>
<path d="M577.002 366.6L478.602 370.8" stroke="#333333" stroke-width="0.6011" stroke-miterlimit="10" stroke-linecap="round" stroke-linejoin="round"/>
<path d="M575.298 367.801L476.898 371.901" stroke="#333333" stroke-width="0.6011" stroke-miterlimit="10" stroke-linecap="round" stroke-linejoin="round"/>
<path d="M577.005 366.6L575.305 367.8" stroke="#333333" stroke-width="0.6011" stroke-miterlimit="10" stroke-linecap="round" stroke-linejoin="round"/>
<path d="M675.496 468.5L576.996 366.6" stroke="#333333" stroke-width="0.6011" stroke-miterlimit="10" stroke-linecap="round" stroke-linejoin="round"/>
<path d="M673.805 469.701L575.305 367.801" stroke="#333333" stroke-width="0.6011" stroke-miterlimit="10" stroke-linecap="round" stroke-linejoin="round"/>
<path d="M675.495 468.5L673.795 469.701" stroke="#333333" stroke-width="0.6011" stroke-miterlimit="10" stroke-linecap="round" stroke-linejoin="round"/>
<path d="M675.5 474V468.5" stroke="#333333" stroke-width="0.6011" stroke-miterlimit="10" stroke-linecap="round" stroke-linejoin="round"/>
<path d="M673.795 475.2V469.7" stroke="#333333" stroke-width="0.6011" stroke-miterlimit="10" stroke-linecap="round" stroke-linejoin="round"/>
<path d="M675.495 474L673.795 475.2" stroke="#333333" stroke-width="0.6011" stroke-miterlimit="10" stroke-linecap="round" stroke-linejoin="round"/>
<path d="M669.195 472.9L673.795 475.2" stroke="#333333" stroke-width="0.6011" stroke-miterlimit="10" stroke-linecap="round" stroke-linejoin="round"/>
<path d="M575.305 392.6L669.205 472.9" stroke="#333333" stroke-width="0.6011" stroke-miterlimit="10" stroke-linecap="round" stroke-linejoin="round"/>
<path d="M552.203 395.6V406.4" stroke="#333333" stroke-width="0.6011" stroke-miterlimit="10" stroke-linecap="round" stroke-linejoin="round"/>
<path d="M550.5 407.601V393.901" stroke="#333333" stroke-width="0.6011" stroke-miterlimit="10" stroke-linecap="round" stroke-linejoin="round"/>
<path d="M552.2 406.401L550.5 407.601" stroke="#333333" stroke-width="0.6011" stroke-miterlimit="10" stroke-linecap="round" stroke-linejoin="round"/>
<path d="M552.203 406.401L612.403 457.901" stroke="#333333" stroke-width="0.6011" stroke-miterlimit="10" stroke-linecap="round" stroke-linejoin="round"/>
<path d="M626.8 472.8L550.5 407.6" stroke="#333333" stroke-width="0.6011" stroke-miterlimit="10" stroke-linecap="round" stroke-linejoin="round"/>
<path d="M550.5 393.901L626.8 472.801" stroke="#333333" stroke-width="0.6011" stroke-miterlimit="10" stroke-linecap="round" stroke-linejoin="round"/>
<path d="M477.301 394.5L545.901 403.9" stroke="#333333" stroke-width="0.6011" stroke-miterlimit="10" stroke-linecap="round" stroke-linejoin="round"/>
<path d="M545.893 405.301L469.693 394.801" stroke="#333333" stroke-width="0.6011" stroke-miterlimit="10" stroke-linecap="round" stroke-linejoin="round"/>
<path d="M545.898 391.6V405.3" stroke="#333333" stroke-width="0.6011" stroke-miterlimit="10" stroke-linecap="round" stroke-linejoin="round"/>
<path d="M469.693 394.8L545.893 391.6" stroke="#333333" stroke-width="0.6011" stroke-miterlimit="10" stroke-linecap="round" stroke-linejoin="round"/>
<path d="M454.395 397.9L548.195 410.8" stroke="#333333" stroke-width="0.6011" stroke-miterlimit="10" stroke-linecap="round" stroke-linejoin="round"/>
<path d="M449.793 395.6L454.393 397.9" stroke="#333333" stroke-width="0.6011" stroke-miterlimit="10" stroke-linecap="round" stroke-linejoin="round"/>
<path d="M449.793 390.1V395.6" stroke="#333333" stroke-width="0.6011" stroke-miterlimit="10" stroke-linecap="round" stroke-linejoin="round"/>
<path d="M451.493 389L449.793 390.1" stroke="#333333" stroke-width="0.6011" stroke-miterlimit="10" stroke-linecap="round" stroke-linejoin="round"/>
<path d="M549.898 384.8L451.498 389" stroke="#333333" stroke-width="0.6011" stroke-miterlimit="10" stroke-linecap="round" stroke-linejoin="round"/>
<path d="M548.193 386L449.793 390.1" stroke="#333333" stroke-width="0.6011" stroke-miterlimit="10" stroke-linecap="round" stroke-linejoin="round"/>
<path d="M549.899 384.8L548.199 386" stroke="#333333" stroke-width="0.6011" stroke-miterlimit="10" stroke-linecap="round" stroke-linejoin="round"/>
<path d="M648.402 486.7L549.902 384.8" stroke="#333333" stroke-width="0.6011" stroke-miterlimit="10" stroke-linecap="round" stroke-linejoin="round"/>
<path d="M646.699 487.8L548.199 386" stroke="#333333" stroke-width="0.6011" stroke-miterlimit="10" stroke-linecap="round" stroke-linejoin="round"/>
<path d="M648.401 486.7L646.701 487.8" stroke="#333333" stroke-width="0.6011" stroke-miterlimit="10" stroke-linecap="round" stroke-linejoin="round"/>
<path d="M648.395 492.2V486.7" stroke="#333333" stroke-width="0.6011" stroke-miterlimit="10" stroke-linecap="round" stroke-linejoin="round"/>
<path d="M646.701 493.4V487.8" stroke="#333333" stroke-width="0.6011" stroke-miterlimit="10" stroke-linecap="round" stroke-linejoin="round"/>
<path d="M648.401 492.2L646.701 493.4" stroke="#333333" stroke-width="0.6011" stroke-miterlimit="10" stroke-linecap="round" stroke-linejoin="round"/>
<path d="M642.102 491.1L646.702 493.4" stroke="#333333" stroke-width="0.6011" stroke-miterlimit="10" stroke-linecap="round" stroke-linejoin="round"/>
<path d="M548.199 410.801L642.099 491.101" stroke="#333333" stroke-width="0.6011" stroke-miterlimit="10" stroke-linecap="round" stroke-linejoin="round"/>
<path d="M339.703 627.6L370.703 606.8" stroke="#333333" stroke-width="0.6011" stroke-miterlimit="10" stroke-linecap="round" stroke-linejoin="round"/>
<path d="M417.102 575.6L564.102 476.9" stroke="#333333" stroke-width="0.6011" stroke-miterlimit="10" stroke-linecap="round" stroke-linejoin="round"/>
<path d="M583.301 315.2V311.3" stroke="#333333" stroke-width="0.6011" stroke-miterlimit="10" stroke-linecap="round" stroke-linejoin="round"/>
<path d="M273.004 519.8L454.404 397.9" stroke="#333333" stroke-width="0.6011" stroke-miterlimit="10" stroke-linecap="round" stroke-linejoin="round"/>
<path d="M468.793 388.3L481.493 379.7" stroke="#333333" stroke-width="0.6011" stroke-miterlimit="10" stroke-linecap="round" stroke-linejoin="round"/>
<path d="M495.898 370.1L508.598 361.5" stroke="#333333" stroke-width="0.6011" stroke-miterlimit="10" stroke-linecap="round" stroke-linejoin="round"/>
<path d="M523.004 351.9L535.604 343.4" stroke="#333333" stroke-width="0.6011" stroke-miterlimit="10" stroke-linecap="round" stroke-linejoin="round"/>
<path d="M550 333.7L562.7 325.2" stroke="#333333" stroke-width="0.6011" stroke-miterlimit="10" stroke-linecap="round" stroke-linejoin="round"/>
<path d="M577.094 315.5L583.294 311.3" stroke="#333333" stroke-width="0.6011" stroke-miterlimit="10" stroke-linecap="round" stroke-linejoin="round"/>
<path d="M770.995 404.5L756.695 414.1" stroke="#333333" stroke-width="0.6011" stroke-miterlimit="10" stroke-linecap="round" stroke-linejoin="round"/>
<path d="M750.402 418.3L729.602 432.3" stroke="#333333" stroke-width="0.6011" stroke-miterlimit="10" stroke-linecap="round" stroke-linejoin="round"/>
<path d="M723.394 436.5L702.594 450.5" stroke="#333333" stroke-width="0.6011" stroke-miterlimit="10" stroke-linecap="round" stroke-linejoin="round"/>
<path d="M696.3 454.7L675.5 468.7" stroke="#333333" stroke-width="0.6011" stroke-miterlimit="10" stroke-linecap="round" stroke-linejoin="round"/>
<path d="M669.195 472.9L648.395 486.9" stroke="#333333" stroke-width="0.6011" stroke-miterlimit="10" stroke-linecap="round" stroke-linejoin="round"/>
<path d="M642.099 491.1L460.699 612.9" stroke="#333333" stroke-width="0.6011" stroke-miterlimit="10" stroke-linecap="round" stroke-linejoin="round"/>
<path d="M582.596 683.7V602" stroke="#333333" stroke-width="0.6011" stroke-miterlimit="10" stroke-linecap="round" stroke-linejoin="round"/>
<path d="M505.902 627.501L506.902 626.801" stroke="#333333" stroke-width="0.6011" stroke-miterlimit="10" stroke-linecap="round" stroke-linejoin="round"/>
<path d="M505.902 740.6V627.5" stroke="#333333" stroke-width="0.6011" stroke-miterlimit="10" stroke-linecap="round" stroke-linejoin="round"/>
<path d="M587.196 686L582.596 683.7" stroke="#333333" stroke-width="0.6011" stroke-miterlimit="10" stroke-linecap="round" stroke-linejoin="round"/>
<path d="M587.195 598.9V686" stroke="#333333" stroke-width="0.6011" stroke-miterlimit="10" stroke-linecap="round" stroke-linejoin="round"/>
<path d="M461.404 770.501L505.904 740.601" stroke="#333333" stroke-width="0.6011" stroke-miterlimit="10" stroke-linecap="round" stroke-linejoin="round"/>
<path d="M264.398 672.8L461.398 770.5" stroke="#333333" stroke-width="0.6011" stroke-miterlimit="10" stroke-linecap="round" stroke-linejoin="round"/>
<path d="M587.195 686L779.595 556.8" stroke="#333333" stroke-width="0.6011" stroke-miterlimit="10" stroke-linecap="round" stroke-linejoin="round"/>
<path d="M297.104 570.3V606.5" stroke="#333333" stroke-width="0.6011" stroke-miterlimit="10" stroke-linecap="round" stroke-linejoin="round"/>
<path d="M297.104 606.5L432.604 673.7" stroke="#333333" stroke-width="0.6011" stroke-miterlimit="10" stroke-linecap="round" stroke-linejoin="round"/>
<path d="M273.004 519.801L366.804 532.701" stroke="#333333" stroke-width="0.6011" stroke-miterlimit="10" stroke-linecap="round" stroke-linejoin="round"/>
<path d="M366.797 532.7L460.697 612.9" stroke="#333333" stroke-width="0.6011" stroke-miterlimit="10" stroke-linecap="round" stroke-linejoin="round"/>
<path d="M583.301 311.3L585.601 309.8" stroke="#333333" stroke-width="0.6011" stroke-miterlimit="10" stroke-linecap="round" stroke-linejoin="round"/>
<path d="M677.202 324.2L668.902 323.1" stroke="#333333" stroke-width="0.6011" stroke-miterlimit="10" stroke-linecap="round" stroke-linejoin="round"/>
<path d="M654.297 321.1L641.797 319.4" stroke="#333333" stroke-width="0.6011" stroke-miterlimit="10" stroke-linecap="round" stroke-linejoin="round"/>
<path d="M605.001 314.3L583.301 311.3" stroke="#333333" stroke-width="0.6011" stroke-miterlimit="10" stroke-linecap="round" stroke-linejoin="round"/>
<path d="M679.403 322.7L677.203 324.2" stroke="#333333" stroke-width="0.6011" stroke-miterlimit="10" stroke-linecap="round" stroke-linejoin="round"/>
<path d="M771.003 404.5L677.203 324.2" stroke="#333333" stroke-width="0.6011" stroke-miterlimit="10" stroke-linecap="round" stroke-linejoin="round"/>
<path d="M773.296 403L770.996 404.5" stroke="#333333" stroke-width="0.6011" stroke-miterlimit="10" stroke-linecap="round" stroke-linejoin="round"/>
<path d="M460.693 612.9L456.793 615.6" stroke="#333333" stroke-width="0.6011" stroke-miterlimit="10" stroke-linecap="round" stroke-linejoin="round"/>
<path d="M456.793 615.6L461.393 617.9" stroke="#333333" stroke-width="0.6011" stroke-miterlimit="10" stroke-linecap="round" stroke-linejoin="round"/>
<path d="M461.404 617.9L779.604 404.1" stroke="#333333" stroke-width="0.6011" stroke-miterlimit="10" stroke-linecap="round" stroke-linejoin="round"/>
<path d="M580.998 307.5L568.598 315.9" stroke="#333333" stroke-width="0.6011" stroke-miterlimit="10" stroke-linecap="round" stroke-linejoin="round"/>
<path d="M558.092 322.9L541.492 334" stroke="#333333" stroke-width="0.6011" stroke-miterlimit="10" stroke-linecap="round" stroke-linejoin="round"/>
<path d="M530.998 341.1L514.398 352.2" stroke="#333333" stroke-width="0.6011" stroke-miterlimit="10" stroke-linecap="round" stroke-linejoin="round"/>
<path d="M504.002 359.3L487.402 370.4" stroke="#333333" stroke-width="0.6011" stroke-miterlimit="10" stroke-linecap="round" stroke-linejoin="round"/>
<path d="M476.897 377.5L460.297 388.6" stroke="#333333" stroke-width="0.6011" stroke-miterlimit="10" stroke-linecap="round" stroke-linejoin="round"/>
<path d="M449.798 395.6L264.398 520.1" stroke="#333333" stroke-width="0.6011" stroke-miterlimit="10" stroke-linecap="round" stroke-linejoin="round"/>
<path d="M264.398 520.1L268.998 522.4" stroke="#333333" stroke-width="0.6011" stroke-miterlimit="10" stroke-linecap="round" stroke-linejoin="round"/>
<path d="M269 522.401L273 519.801" stroke="#333333" stroke-width="0.6011" stroke-miterlimit="10" stroke-linecap="round" stroke-linejoin="round"/>
<path d="M362.902 535.3L456.802 615.6" stroke="#333333" stroke-width="0.6011" stroke-miterlimit="10" stroke-linecap="round" stroke-linejoin="round"/>
<path d="M362.902 535.3L366.802 532.7" stroke="#333333" stroke-width="0.6011" stroke-miterlimit="10" stroke-linecap="round" stroke-linejoin="round"/>
<path d="M269 522.4L362.9 535.3" stroke="#333333" stroke-width="0.6011" stroke-miterlimit="10" stroke-linecap="round" stroke-linejoin="round"/>
<path d="M293.197 609.101V568.301" stroke="#333333" stroke-width="0.6011" stroke-miterlimit="10" stroke-linecap="round" stroke-linejoin="round"/>
<path d="M293.197 609.1L297.097 606.5" stroke="#333333" stroke-width="0.6011" stroke-miterlimit="10" stroke-linecap="round" stroke-linejoin="round"/>
<path d="M432.596 637.5V678.3" stroke="#333333" stroke-width="0.6011" stroke-miterlimit="10" stroke-linecap="round" stroke-linejoin="round"/>
<path d="M432.597 678.3L293.197 609.1" stroke="#333333" stroke-width="0.6011" stroke-miterlimit="10" stroke-linecap="round" stroke-linejoin="round"/>
<path d="M293.197 568.301L432.597 637.501" stroke="#333333" stroke-width="0.6011" stroke-miterlimit="10" stroke-linecap="round" stroke-linejoin="round"/>
<path d="M264.398 672.8V520.1" stroke="#333333" stroke-width="0.6011" stroke-miterlimit="10" stroke-linecap="round" stroke-linejoin="round"/>
<path d="M779.602 556.8V404.1" stroke="#333333" stroke-width="0.6011" stroke-miterlimit="10" stroke-linecap="round" stroke-linejoin="round"/>
<path d="M461.404 770.5V617.9" stroke="#333333" stroke-width="0.6011" stroke-miterlimit="10" stroke-linecap="round" stroke-linejoin="round"/>
<path d="M585.699 321.7L585.799 321.8" stroke="#333333" stroke-width="0.6011" stroke-miterlimit="10" stroke-linecap="round" stroke-linejoin="round"/>
<path d="M604.102 330.9L605.202 331.4" stroke="#333333" stroke-width="0.6011" stroke-miterlimit="10" stroke-linecap="round" stroke-linejoin="round"/>
<path d="M617.395 337.4L627.195 342.3" stroke="#333333" stroke-width="0.6011" stroke-miterlimit="10" stroke-linecap="round" stroke-linejoin="round"/>
<path d="M633.496 345.4L641.596 349.4" stroke="#333333" stroke-width="0.6011" stroke-miterlimit="10" stroke-linecap="round" stroke-linejoin="round"/>
<path d="M657.193 357.2L708.993 382.9" stroke="#333333" stroke-width="0.6011" stroke-miterlimit="10" stroke-linecap="round" stroke-linejoin="round"/>
<path d="M743.1 399.8L763.2 409.8" stroke="#333333" stroke-width="0.6011" stroke-miterlimit="10" stroke-linecap="round" stroke-linejoin="round"/>
<path d="M574.094 326.7L564.594 333.1" stroke="#333333" stroke-width="0.6011" stroke-miterlimit="10" stroke-linecap="round" stroke-linejoin="round"/>
<path d="M546.998 344.9L537.598 351.3" stroke="#333333" stroke-width="0.6011" stroke-miterlimit="10" stroke-linecap="round" stroke-linejoin="round"/>
<path d="M519.904 363.1L510.504 369.4" stroke="#333333" stroke-width="0.6011" stroke-miterlimit="10" stroke-linecap="round" stroke-linejoin="round"/>
<path d="M492.798 381.3L483.398 387.6" stroke="#333333" stroke-width="0.6011" stroke-miterlimit="10" stroke-linecap="round" stroke-linejoin="round"/>
<path d="M465.695 399.5L447.895 411.5" stroke="#333333" stroke-width="0.6011" stroke-miterlimit="10" stroke-linecap="round" stroke-linejoin="round"/>
<path d="M627.695 500.7L447.895 411.5" stroke="#333333" stroke-width="0.6011" stroke-miterlimit="10" stroke-linecap="round" stroke-linejoin="round"/>
<path d="M447.895 419.2L621.095 505.2" stroke="#333333" stroke-width="0.6011" stroke-miterlimit="10" stroke-linecap="round" stroke-linejoin="round"/>
<path d="M447.895 411.5V419.2" stroke="#333333" stroke-width="0.6011" stroke-miterlimit="10" stroke-linecap="round" stroke-linejoin="round"/>
</svg>
