<?xml version="1.0" encoding="UTF-8"?>
<svg xmlns="http://www.w3.org/2000/svg" viewBox="0 0 1000 1000">
  <g id="Layer_2" data-name="Layer 2">
    <path d="M461.46,478.07v9.08h0c-.0816,2.3558.4894,4.6883,1.65,6.74v59c.0658,7.2037,1.006,14.3729,2.8,21.35,1.7288,6.8631,4.0716,13.5568,7,20,0,16.54-17.8,50.12-49.63,119.2-25.7,55.79-49.8,54.17-49.8,30.39s.44-57,0-110.73,33.91-78.91,33.91-36.47v57.31c0,57.21,39.92-43.77,39.92-77.45,0-17.73-.28-34.19.16-49.88.37-13.33-.89-38.2,14-61.35h0l-.01,12.81Z"/>
  </g>
  <g id="Layer_3" data-name="Layer 3">
    <path d="M865.9469,838.6025c1.3766.8058,2.8876,1.1751,4.5328,1.1751,2.2496,0,4.7008-.7386,7.2191-2.1826,8.327-4.8017,15.0759-16.5199,15.0759-26.1228v-111.8445c0-5.0365-1.7797-8.7971-5.0029-10.6776-3.2234-1.8469-7.3869-1.5108-11.7519,1.0075-8.327,4.8017-15.0759,16.5199-15.0759,26.1228v111.8445c0,5.0029,1.7797,8.7971,5.0029,10.6776ZM864.268,716.0804c0-8.5286,6.0102-18.9374,13.3971-23.2353,3.2569-1.8805,6.2452-2.2498,8.3942-1.0075s3.3241,3.9954,3.3241,7.7564v111.8445c0,8.5286-6.0102,18.9374-13.3971,23.2353-3.2569,1.8805-6.2452,2.2498-8.3942,1.0075s-3.3241-3.9954-3.3241-7.7564v-111.8445ZM865.9469,265.4464c1.3766.7722,2.8876,1.1751,4.5328,1.1751,2.2496,0,4.7008-.7386,7.2191-2.1826,8.327-4.8017,15.0759-16.5199,15.0759-26.1228v-111.8445h0c0-5.0029-1.7797-8.7971-5.0029-10.6776-3.2234-1.8469-7.3869-1.5108-11.7519,1.0075-8.327,4.8017-15.0759,16.5199-15.0759,26.1228v111.8445c0,5.0029,1.7797,8.7971,5.0029,10.6776ZM864.268,142.8911c0-8.5286,6.0102-18.9374,13.3971-23.2353,3.2569-1.8805,6.2452-2.2498,8.3942-1.0075s3.3241,3.9954,3.3241,7.7564v111.8445c0,8.5286-6.0102,18.9374-13.3971,23.2353-3.2569,1.8805-6.2452,2.2498-8.3942,1.0075s-3.3241-3.9954-3.3241-7.7564v-111.8445ZM460.1378,552.5616c0,6.8498.9401,14.1357,2.854,21.6569,1.8803,7.4539,4.6,14.9751,8.1256,22.3623,3.492,7.3531,7.7226,14.371,12.5242,20.8847,4.8015,6.5473,10.1066,12.4232,15.7139,17.4598,5.6745,5.1037,11.5504,9.2336,17.4935,12.2892,6.0774,3.1228,12.0541,5.0365,17.7957,5.7079,1.511.168,2.9884.2685,4.4322.2685,4.13,0,8.0249-.705,11.6175-2.1154,1.3431-.5373,2.6526-1.1751,3.8949-1.8805l23.7052-13.6992c2.2497-1.2759,4.2978-2.8876,6.1445-4.7681,1.8467-1.8469,3.4584-3.9954,4.8687-6.3461,1.3767-2.3166,2.5519-4.9021,3.4584-7.6556.9065-2.7199,1.6117-5.6411,2.0817-8.7299.4365-3.022.6716-6.2452.6716-9.5693v-131.5873c0-.9402-.0336-1.8805-.1343-2.8539-.2686-2.5183-.8394-5.1037-1.746-7.7228-.873-2.5519-2.0481-5.0701-3.4584-7.5212-1.4103-2.4174-3.0555-4.7008-4.8687-6.7154-1.8467-2.0817-3.8613-3.8614-5.9095-5.305-2.1154-1.4772-4.2307-2.5519-6.3796-3.2232-2.0481-.6378-4.0293-.873-5.9431-.7386-1.8467.1344-3.6599.705-5.2044,1.578l-23.7052,13.6992c-.9065.5373-1.7796,1.1751-2.5183,1.9473-.7387.7386-1.3767,1.578-1.9474,2.5519-.5372.9066-.9738,1.8805-1.3431,2.9212-.3358,1.0075-.6044,2.0817-.7723,3.2232-.1678,1.1079-.2351,2.2498-.2351,3.3913v115.3698s-.0671-.1008-.1007-.1344c-1.4438-2.149-2.7197-4.3988-3.7942-6.749-1.0409-2.3166-1.8132-4.6672-2.3839-6.9502-.5036-2.2162-.7723-4.3315-.7723-6.3125v-65.8104c0-2.3502-.1343-4.8349-.3693-7.2863-.6716-6.7154-2.1825-13.6992-4.5664-20.7838-2.3504-7.051-5.473-14.0017-9.2336-20.717-3.7942-6.7154-8.1591-12.9942-13.0278-18.6689-2.1825-2.5519-4.4657-4.9693-6.7825-7.2191v-58.0544c0-5.0029-1.7796-8.7971-5.0029-10.6776-3.2233-1.8469-7.4204-1.5108-11.7519,1.0075-8.3271,4.8017-15.0759,16.5199-15.0759,26.1228v111.8445c0,2.7531.5709,5.171,1.6452,7.0847v58.3565l-.0002.068ZM461.8502,375.2428c0-8.5286,6.0103-18.9374,13.3971-23.2353,3.257-1.8805,6.2452-2.2498,8.3942-1.0075s3.3241,3.9954,3.3241,7.7564v54.9652c-1.8132-1.578-3.6262-3.1228-5.473-4.5328-5.5402-4.1635-11.1475-7.3199-16.6877-9.3681-1.0073-.3693-1.981-.6714-2.9884-.9739v-23.6382l.0337.034ZM461.8502,450.2868c3.0555,3.4585,5.8759,7.2191,8.3271,11.2145.1007.168.2015.3357.3022.4701,6.9839,11.4498,11.2146,24.444,11.2146,35.7594v65.8104c0,21.2876,15.0088,47.3096,33.4761,57.9536,5.4058,3.1228,10.6439,4.7008,15.4117,4.7008,3.3913,0,6.5475-.8058,9.3343-2.4174h0c1.2087-.705,2.3168-1.5444,3.3241-2.5855,1.0073-1.0075,1.9139-2.1826,2.6861-3.5257s1.4438-2.7867,1.981-4.3988c.5372-1.6116.9401-3.3577,1.2423-5.171.2686-1.8469.4029-3.7942.4029-5.8423v-131.8893c0-.1008.0336-.2349.1007-.3693.0336-.1344.1007-.2349.1343-.3357.0671-.1008.1343-.2017.2351-.3021.0671-.0672.1678-.1344.2686-.2017,0,0,.2015,0,.4701.168,1.108.6378,2.149,2.4174,2.149,3.727v131.5873c0,11.2818-3.727,19.6423-10.4759,23.5374h0c-.7051.4029-1.4438.7722-2.1825,1.0743-3.0891,1.2759-6.581,1.7124-10.3081,1.3432-3.8278-.4029-7.8906-1.6452-12.0204-3.6934-4.0964-2.0481-8.1591-4.8685-12.1212-8.3942-3.9285-3.4921-7.6219-7.5548-11.0132-12.1212-3.3577-4.5328-6.3461-9.4685-8.7971-14.6058-2.4846-5.171-4.3986-10.4087-5.7081-15.6469-1.3095-5.2382-1.981-10.3079-1.981-15.0423v-65.8104c0-1.2759-.0671-2.5855-.1678-3.9286-.3358-3.8614-1.1752-7.9241-2.4846-12.054-1.3095-4.1635-3.0555-8.2934-5.238-12.2892-.638-1.1751-1.3431-2.2834-2.0146-3.3913-.1007-.168-.2015-.3357-.3022-.4701-1.5781-2.5519-3.257-5.0701-5.1036-7.3867-.3693-.4701-.7387-.9066-1.108-1.3432v-4.1635l-.0338.0336ZM461.8502,460.0574c7.6219,10.1403,12.4235,22.7988,12.4235,33.4087v65.8104c0,13.5315,4.9694,28.6075,12.9271,41.8029v.0336c7.3197,12.1548,17.1242,22.7316,27.9359,28.9768,6.581,3.7942,12.9606,5.7079,18.7358,5.7079,4.0964,0,7.8906-.9739,11.2482-2.8876h0c1.4774-.8394,2.854-1.9137,4.0628-3.156,1.2423-1.2423,2.3504-2.6863,3.2906-4.2979s1.7796-3.4249,2.4175-5.3722c.6716-1.9809,1.1752-4.0963,1.511-6.3461s.5036-4.6672.5036-7.1183v-131.5873h0c0-.571-.0671-1.1751-.2015-1.8133-.1343-.6714-.3358-1.3768-.638-2.0817-.2686-.705-.638-1.4104-1.0409-2.0481-.4029-.6714-.8394-1.2759-1.3095-1.8133-.4701-.571-.9738-1.0411-1.4438-1.444-.4701-.3693-.9401-.705-1.4438-.9739-.4701-.2349-.9401-.4029-1.3767-.5037-.4701-.1008-.8394-.0672-1.2087,0-.2351,0-.4365.1008-.638.2017-1.3431.7722-2.149,2.3502-2.149,4.2979v131.5873c0,8.8643-3.0219,15.6805-8.2935,18.7357-.5036.3021-1.0409.571-1.5781.7722-2.4846,1.0743-5.238,1.444-8.2264,1.2087-3.0891-.2685-6.3461-1.2423-9.6701-2.8876-3.2906-1.6452-6.581-3.895-9.7709-6.6817-3.1562-2.7867-6.1445-6.044-8.8643-9.7037-2.7197-3.6598-5.1036-7.5884-7.1183-11.7183-2.0146-4.1635-3.5591-8.3942-4.6336-12.5913-1.0745-4.2307-1.6117-8.2934-1.6117-12.1212v-65.8104c0-1.6116-.0671-3.2905-.2351-4.9693-.4365-4.8349-1.511-9.905-3.1226-15.0423-1.6452-5.171-3.8613-10.3415-6.5475-15.3112-2.6861-4.9693-5.8423-9.7037-9.3007-14.0017-1.4774-1.8133-3.0219-3.5593-4.6336-5.2382v-4.0627c16.184,16.3519,27.2307,40.8967,27.2307,61.0092h0v65.7768h0c0,16.5867,11.6848,36.8336,26.0556,45.127,4.1971,2.4174,8.3606,3.6261,12.1548,3.6261,2.6861,0,5.2044-.6046,7.3533-1.8805.9401-.5373,1.7796-1.2087,2.5854-1.9809.7723-.8058,1.4774-1.7124,2.0817-2.7199s1.108-2.149,1.5445-3.4249c.4029-1.2423.7387-2.6191.9401-4.0291.2015-1.4104.3358-2.9548.3358-4.5664v-131.5873c0-.5373.0336-1.1079.1007-1.6116s.2015-1.0075.3358-1.4772c.1678-.4701.3693-.9066.6044-1.3095s.5372-.7722.8394-1.1079c.3358-.3357.6716-.6046,1.0745-.8394h0c1.4103-.8058,3.4584-.5373,5.6745.7386,2.5183,1.444,4.8351,3.9954,6.5475,6.917.0671.1008.1343.2349.2015.3357,1.7124,2.9884,2.7868,6.3461,2.7868,9.3344v131.5873c0,13.3635-4.6,23.7054-12.6249,28.3386-.9065.5373-1.8467.9739-2.8204,1.3768-3.727,1.4772-7.8906,1.9809-12.3898,1.5108-4.6-.5037-9.4015-2.0481-14.3373-4.5328-4.8687-2.4846-9.7372-5.8759-14.4716-10.1066-4.6672-4.1971-9.0993-9.0656-13.1285-14.5386-4.0293-5.4394-7.5548-11.3154-10.5096-17.4934-2.9548-6.178-5.238-12.4569-6.8161-18.6689-1.5781-6.2452-2.3504-12.2892-2.3504-17.9299v-65.8104c0-.9402-.0336-1.8805-.1343-2.8876-.2686-2.9212-.873-5.9432-1.8467-9.0656-.9738-3.1228-2.2832-6.2452-3.8949-9.2672-.9738-1.8133-2.0481-3.5593-3.1898-5.2714v-4.5328l.0674.0004ZM461.8502,471.2051c3.1898,5.9768,5.0029,12.3896,5.0029,17.9635v65.8104c0,14.2365,4.7007,29.9506,12.3562,44.2208.1678.3021.3358.6046.5036.9402.7051,1.3095,1.4438,2.6191,2.2161,3.895.1343.2349.2686.4365.4029.6714,8.6293,14.2365,20.1461,26.593,32.8045,33.9125,7.7226,4.4656,15.2439,6.7154,22.0264,6.7154,4.8015,0,9.2672-1.1415,13.1957-3.3913,1.746-1.0075,3.3577-2.2498,4.8351-3.727,1.4438-1.4772,2.7533-3.1896,3.8949-5.1037,1.1416-1.9137,2.0817-4.0627,2.8876-6.3797.7723-2.3166,1.3767-4.8349,1.7796-7.4876s.6044-5.5066.6044-8.4278v-131.5873c0-.4029,0-.8394-.0336-1.2759-.1007-1.578-.4029-3.2232-.9065-4.9357s-1.1752-3.4585-2.0481-5.1373c-.873-1.7124-1.8467-3.3241-2.9548-4.8017-1.108-1.4772-2.3168-2.8203-3.5591-3.9622-1.2423-1.1415-2.5183-2.0817-3.7942-2.7867-1.3095-.7386-2.619-1.2423-3.8278-1.4772-1.8467-.3693-3.4584-.168-4.8015.6046-2.7197,1.578-4.2978,4.9021-4.2978,9.0992v131.5873c0,6.6145-2.2497,11.6847-6.1445,13.9345h0c-.3022.168-.638.3357-.9738.5037-1.8132.8394-3.9285,1.1751-6.1445,1.0411-2.3504-.1344-4.8351-.8394-7.3533-2.0481s-5.0029-2.8876-7.4541-4.9693c-2.3839-2.0817-4.6672-4.5328-6.749-7.2863-2.0817-2.7531-3.8949-5.7079-5.4058-8.8307-1.5445-3.156-2.7197-6.3461-3.5255-9.5357s-1.2423-6.3125-1.2423-9.2v-65.8104c0-1.9473-.1007-3.9622-.2686-5.9768-.5372-5.8087-1.8132-11.8527-3.7942-18.0307-1.981-6.2116-4.6336-12.3564-7.8906-18.3328-3.2233-5.9768-6.9839-11.5838-11.181-16.7548-2.5854-3.1896-5.3387-6.1444-8.1256-8.8307v-33.5096c.6044.2017,1.2087.3693,1.8132.571,5.238,1.9473,10.5767,4.9693,15.8483,8.9315s10.3416,8.7971,15.0759,14.3374c4.7007,5.5403,8.965,11.6174,12.6584,18.1652,3.6935,6.5137,6.7154,13.2627,8.9986,20.1125,2.2832,6.8498,3.7606,13.5988,4.3986,20.0452.2351,2.3838.3693,4.7344.3693,6.9838v65.8104c0,2.2162.3022,4.6.873,7.0847.5709,2.5183,1.4438,5.0365,2.5854,7.5548s2.5183,4.9693,4.0628,7.2863c.9065,1.3095,1.8803,2.5183,2.8876,3.727v10.7444c0,.9739-.0671,1.9137-.2015,2.7867-.1343.8394-.3022,1.6116-.5372,2.3166-.2351.6714-.5036,1.2759-.8058,1.8133-.2686.4701-.6044.9066-.9738,1.2759-.3358.3357-.7051.6378-1.108.873-.8058.4701-1.0745,1.5108-.6044,2.2834.3022.5373.873.8394,1.4438.8394.3022,0,.5709-.0672.8394-.2349.638-.3693,1.2423-.8394,1.8132-1.4104s1.0409-1.2087,1.4774-1.9137c.4365-.7386.8058-1.5444,1.108-2.4174s.5372-1.8469.6716-2.8876c.1678-1.0411.2351-2.1154.2351-3.2905v-131.5873c0-1.0075.0671-1.9809.2015-2.9212s.3358-1.8133.638-2.6191c.2686-.8394.638-1.6116,1.0409-2.2834.4365-.705.9065-1.3432,1.4438-1.8805.5372-.571,1.1752-1.0411,1.8132-1.4104l23.7052-13.6992c1.108-.6378,2.4175-1.0411,3.7942-1.1415,1.4774-.1344,3.0555.0672,4.6672.6046,1.8132.571,3.6262,1.4772,5.473,2.7531,1.8467,1.2759,3.6262,2.8876,5.3387,4.8017,1.6788,1.8805,3.1562,3.9622,4.4657,6.178,1.3095,2.2498,2.3839,4.5664,3.1898,6.917.8058,2.3838,1.3431,4.7344,1.5781,6.9838.1007.8394.1343,1.6788.1343,2.4846v131.5873c0,3.156-.2015,6.2116-.638,9.0992s-1.0745,5.6411-1.9139,8.1593c-.8394,2.5519-1.9139,4.9021-3.1898,7.0174-1.2423,2.1154-2.7197,4.0291-4.3649,5.7079-1.6452,1.6452-3.4584,3.0892-5.4394,4.2307l-23.7052,13.6992c-1.0745.6378-2.2497,1.1751-3.4248,1.6452-4.3649,1.7124-9.2336,2.2498-14.4716,1.6452-5.3051-.6046-10.9125-2.4174-16.6541-5.3722-5.6745-2.9212-11.349-6.917-16.7884-11.8191s-10.5767-10.5768-15.2439-16.9564c-4.6672-6.3461-8.7635-13.1959-12.1884-20.3477-3.4248-7.1855-6.0774-14.4718-7.8906-21.7241-1.8132-7.2527-2.7533-14.2701-2.7533-20.8511v-65.8104c0-.571,0-1.1415-.0671-1.7461-.1343-1.9473-.5372-3.9622-1.1752-6.044-.1343-.4029-.2686-.8058-.4029-1.2087v-6.5473l-.1342-.2353ZM61.0776,730.1157c1.3767.8058,2.8876,1.1751,4.5329,1.1751,2.2497,0,4.7007-.7386,7.219-2.1826,8.3271-4.8017,15.0759-16.5199,15.0759-26.1228v-111.8445c0-5.0029-1.7796-8.7971-5.0029-10.6776s-7.4204-1.5108-11.7519,1.0075c-8.3271,4.8017-15.0759,16.5199-15.0759,26.1228v111.8445c0,5.0029,1.7796,8.7971,5.0029,10.6776ZM59.4324,607.594c0-8.5286,6.0103-18.9374,13.3971-23.2353,3.257-1.8805,6.2452-2.2498,8.3942-1.0075s3.3241,3.9954,3.3241,7.7564v111.8445c0,8.5286-6.0103,18.9374-13.3971,23.2353-3.257,1.8805-6.2452,2.2498-8.3942,1.0075s-3.3241-3.9954-3.3241-7.7564v-111.8445ZM61.0776,156.96c1.3767.7722,2.8876,1.1751,4.5329,1.1751,2.2497,0,4.7007-.7386,7.219-2.1826,8.3271-4.8017,15.0759-16.5199,15.0759-26.1228V17.9852c0-5.0029-1.7796-8.7971-5.0029-10.6776s-7.4204-1.5108-11.7519,1.0075c-8.3271,4.8017-15.0759,16.5199-15.0759,26.1228v111.8445c0,5.0365,1.7796,8.7971,5.0029,10.6776ZM59.4324,34.4047c0-8.5286,6.0103-18.9374,13.3971-23.2353,3.257-1.8805,6.2452-2.2498,8.3942-1.0075s3.3241,3.9954,3.3241,7.7564v111.8445c0,8.5286-6.0103,18.9374-13.3971,23.2353-3.257,1.8805-6.2452,2.2498-8.3942,1.0075s-3.3241-3.9954-3.3241-7.7564V34.4047ZM490.3233,1000v-68.021h0c0-5.0029-1.7796-8.7971-5.0029-10.6776s-7.3869-1.5108-11.7519,1.0075c-8.3271,4.8017-15.0759,16.5199-15.0759,26.1228v51.5683M486.9656,1000h-25.1154v-51.5679c0-8.5286,6.0103-18.9374,13.3971-23.2353,3.257-1.8805,6.2452-2.2498,8.3942-1.0075s3.3241,3.9954,3.3241,7.7564h0M486.9656,1000h-25.1154"/>
  </g>
</svg>