<?xml version="1.0" encoding="UTF-8"?>
<svg xmlns="http://www.w3.org/2000/svg" viewBox="0 0 1000 1000">
  <g id="Layer_2" data-name="Layer 2">
    <path d="M605.6451,444.3456c-11.1947-.9712-20.815,4.0587-21.4284,11.2152s7.9948,13.7608,19.1895,14.7218c.9303.0818,1.8402.1227,2.7501.1227,9.9781,0,18.116-4.7744,18.6885-11.3378.6134-7.1564-7.9948-13.7608-19.1895-14.7218h-.0102ZM622.248,459.9978c-.1022,1.1655-.5418,2.2901-1.3188,3.3431-.7361,1.0121-1.7584,1.922-3.0261,2.7195-1.2473.7872-2.7092,1.4313-4.3347,1.9322-1.646.501-3.4249.8281-5.2958.9712-1.8914.1431-3.8134.1022-5.7252-.1227-1.922-.2249-3.7827-.6441-5.5411-1.2268-1.738-.5725-3.3226-1.3086-4.7335-2.1674-1.3699-.8383-2.5252-1.7789-3.4351-2.8115-.8792-.9917-1.5233-2.0242-1.8914-3.0773-.3067-.8792-.4294-1.7687-.3578-2.6377.2556-2.9035,2.3105-5.49,5.7967-7.2893,3.568-1.8402,8.1686-2.6172,12.9736-2.2083,9.8248.8486,17.4004,6.4919,16.8687,12.5749h.0204ZM623.8122,458.9754c-.1124,1.2779-.5521,2.4741-1.2473,3.5782.3783-.7974.6236-1.6255.7054-2.4741.5725-6.6453-7.412-12.7794-17.7991-13.679-4.9891-.4294-9.7941.3885-13.5359,2.3105-3.8134,1.9629-6.0728,4.8459-6.3488,8.1072-.0716.8281.0204,1.6767.2454,2.515-.4907-1.1961-.7054-2.4332-.5929-3.6907.5725-6.5941,9.6816-11.2049,20.3243-10.2848,10.6324.9201,18.8317,7.0338,18.2592,13.6177h-.0103ZM580.5566,471.8366c-3.6089-2.7297-8.5673-4.4983-13.955-4.9584-11.1947-.9712-20.815,4.0587-21.4284,11.2152-.3067,3.5066,1.554,6.9826,5.2344,9.7634,3.6089,2.7297,8.5673,4.4983,13.955,4.9584.9406.0818,1.8709.1227,2.791.1227,4.3654,0,8.4855-.8997,11.8081-2.6172,4.1098-2.1163,6.5328-5.214,6.8395-8.7206s-1.554-6.9826-5.2344-9.7634h-.0102ZM583.2147,482.5303c-.1022,1.1655-.5418,2.2901-1.3188,3.3431-.7361,1.0121-1.7584,1.922-3.0261,2.7195-1.2473.7872-2.7092,1.4313-4.3245,1.9322-1.646.501-3.4249.8281-5.2958.9712-1.8914.1533-3.8134.1022-5.7354-.1227-1.922-.2249-3.7827-.6441-5.5411-1.2268-1.738-.5725-3.3226-1.3086-4.7335-2.1674-1.3699-.8383-2.5252-1.7891-3.4351-2.8115-.8792-.9917-1.5131-2.0242-1.8914-3.0773-.3067-.8792-.4294-1.7687-.3476-2.6377h0c.5316-6.083,8.9558-10.3359,18.7805-9.4874s17.4004,6.4919,16.8687,12.5749v-.0102ZM584.7789,481.5182c-.1124,1.2473-.5316,2.4332-1.2268,3.5373.368-.7872.6134-1.6051.685-2.4434.5725-6.6453-7.412-12.7794-17.7991-13.679-10.3973-.8997-19.3121,3.7725-19.8847,10.4177h0c-.0716.8179.0102,1.6358.2249,2.4639-.4805-1.1961-.685-2.423-.5827-3.6498.5214-6.0318,8.189-10.3973,17.6355-10.3973.8792,0,1.7789.0409,2.6888.1125,5.1935.4498,9.9577,2.1367,13.4234,4.7539,3.3942,2.5661,5.1117,5.7149,4.8357,8.8638v.0205ZM525.5032,466.1216c.9303.0818,1.8402.1227,2.7501.1227,9.9781,0,18.116-4.7744,18.6885-11.3378.6134-7.1564-7.9948-13.7608-19.1895-14.7218-11.1947-.9712-20.815,4.0587-21.4284,11.2152-.6134,7.1564,7.9948,13.7608,19.1895,14.7218h-.0102ZM507.336,451.4816c.5725-6.5941,9.6816-11.2049,20.3243-10.2848,10.6324.9201,18.8317,7.0235,18.2592,13.6177-.1124,1.2779-.5521,2.4741-1.2473,3.5782.3783-.7974.6236-1.6255.7054-2.4741.5725-6.6453-7.412-12.7794-17.7991-13.679-4.9993-.4294-9.7941.3885-13.5359,2.3105-3.8134,1.9629-6.0728,4.8459-6.3488,8.1072-.0716.8281.0204,1.6767.2454,2.515-.4907-1.1961-.7054-2.4332-.5929-3.6907h-.0103ZM508.706,452.7493c.2556-2.9035,2.3105-5.49,5.7967-7.2893,3.568-1.8402,8.1788-2.6172,12.9736-2.2083,9.8248.8486,17.4004,6.4919,16.8687,12.5749-.1022,1.1655-.5418,2.2901-1.3188,3.3431-.7361,1.0121-1.7584,1.922-3.0261,2.7195-1.2473.7872-2.7092,1.4313-4.3347,1.9322-1.646.501-3.4249.8281-5.2958.9712-1.8811.1533-3.8134.1022-5.7252-.1227-1.922-.2249-3.7827-.6441-5.5411-1.2268-1.738-.5725-3.3226-1.3086-4.7335-2.1674-1.3699-.8383-2.5252-1.7891-3.4351-2.8115-.8792-.9917-1.5233-2.0242-1.8914-3.0773-.3067-.8792-.4294-1.7687-.3578-2.6377h.0204ZM502.6639,467.6756c-3.6089-2.7297-8.5673-4.4983-13.955-4.9584-11.2049-.9712-20.815,4.0587-21.4284,11.2152-.3067,3.5066,1.554,6.9826,5.2344,9.7634,3.6089,2.7297,8.5673,4.4983,13.955,4.9584.9406.0818,1.8709.1227,2.791.1227,4.3654,0,8.4855-.8997,11.8081-2.6172,4.1098-2.1163,6.5328-5.214,6.8395-8.7206s-1.554-6.9826-5.2344-9.7634h-.0102ZM505.3118,478.3694c-.1022,1.1655-.5418,2.2901-1.3188,3.3431-.7361,1.0121-1.7584,1.922-3.0261,2.7195-1.2473.7872-2.7092,1.4313-4.3245,1.9322-1.646.501-3.4249.8281-5.2958.9712-1.8811.1533-3.8134.1022-5.7354-.1227s-3.7827-.6441-5.5411-1.2268c-1.738-.5725-3.3226-1.3086-4.7335-2.1674-1.3597-.8383-2.5252-1.7891-3.4351-2.8115-.8792-.9917-1.5131-2.0242-1.8914-3.0773-.3067-.8792-.4294-1.7687-.3476-2.6377h0c.5316-6.083,8.9455-10.3359,18.7805-9.4874,9.8248.8486,17.4004,6.4919,16.8687,12.5749v-.0102ZM506.876,477.3573c-.1124,1.2473-.5316,2.4332-1.2268,3.5373.368-.7872.6134-1.6051.685-2.4434.5725-6.6453-7.412-12.7794-17.7991-13.679-10.3973-.8997-19.3121,3.7725-19.8847,10.4177h0c-.0716.8179.0102,1.6358.2249,2.4639-.4805-1.1961-.685-2.423-.5827-3.6498.5214-6.0318,8.189-10.3973,17.6355-10.3973.8792,0,1.7789.0409,2.6888.1125,5.1935.4498,9.9577,2.1367,13.4234,4.7539,3.3942,2.5661,5.1117,5.7149,4.8357,8.8638v.0205ZM642.4394,447.75c.9303.0818,1.8402.1227,2.7501.1227,9.9781,0,18.116-4.7744,18.6783-11.3378.6134-7.1564-7.9948-13.7608-19.1895-14.7218-11.2049-.9712-20.815,4.0587-21.4284,11.2152s7.9948,13.7608,19.1895,14.7218ZM661.2915,437.455c-.1022,1.1655-.5418,2.2901-1.3188,3.3431-.7361,1.0121-1.7584,1.922-3.0261,2.7195-1.2473.7872-2.7092,1.4313-4.3245,1.9322-1.646.5009-3.4249.8281-5.2958.9712-1.8914.1534-3.8134.1022-5.7252-.1227-1.922-.2249-3.7827-.6441-5.5411-1.2268-1.738-.5725-3.3226-1.3086-4.7335-2.1674-1.3699-.8383-2.5252-1.7789-3.4351-2.8115-.8792-.9917-1.5233-2.0243-1.8914-3.0773-.3067-.8792-.4294-1.7687-.3578-2.6377.2556-2.9035,2.3105-5.49,5.7967-7.2893,3.568-1.8402,8.1686-2.6172,12.9736-2.2083,4.8051.4192,9.2114,1.9731,12.4113,4.3961,3.1284,2.3718,4.713,5.2753,4.4677,8.1686v.0102ZM624.2723,433.11c.5725-6.5941,9.6816-11.2049,20.3243-10.2848,10.6324.9201,18.8317,7.0338,18.2592,13.6177-.1124,1.2779-.5521,2.4741-1.2473,3.5782.3783-.7974.6236-1.6255.6952-2.4741.2863-3.2613-1.4415-6.4817-4.8664-9.0785-3.3533-2.5354-7.9436-4.1712-12.9327-4.6006s-9.7941.3885-13.5359,2.3105c-3.8134,1.9629-6.0728,4.8459-6.3488,8.1072-.0716.8281.0204,1.6767.2454,2.515-.4907-1.1961-.7054-2.4332-.5929-3.6907h0ZM545.531,379.6207c-.3067,3.5067,1.554,6.9826,5.2344,9.7634,3.6089,2.7297,8.5673,4.4983,13.955,4.9584.9303.0818,1.8402.1227,2.7501.1227,9.9781,0,18.116-4.7744,18.6885-11.3378.3067-3.5067-1.554-6.9826-5.2344-9.7634-3.6089-2.7297-8.5673-4.4983-13.955-4.9584-5.3878-.4703-10.5711.4192-14.5991,2.4945-4.1098,2.1163-6.5328,5.214-6.8395,8.7206ZM583.5623,384.0475c-.1022,1.1655-.5418,2.2901-1.3188,3.3431-.7361,1.0121-1.7584,1.922-3.0261,2.7195-1.2473.7872-2.7092,1.4313-4.3245,1.9322-1.6562.5009-3.4351.8281-5.2958.9712-1.8811.1431-3.8134.1022-5.7252-.1227-1.922-.2249-3.7827-.6441-5.5411-1.2268-1.738-.5725-3.3226-1.3086-4.7335-2.1674-1.3597-.8383-2.5252-1.7891-3.4351-2.8115-.8792-.9917-1.5233-2.0243-1.8914-3.0773-.3067-.8792-.4294-1.7687-.3578-2.6377.5214-6.083,8.9455-10.3359,18.7805-9.4874,4.8051.4192,9.2114,1.9731,12.4113,4.3961,3.1284,2.3718,4.713,5.2753,4.4677,8.1686h-.0102ZM564.1684,369.3052c.8894,0,1.7993.0409,2.699.1125,5.1935.4498,9.9577,2.1367,13.4234,4.7539,3.3942,2.5661,5.1117,5.7149,4.8357,8.8638-.1124,1.2779-.5521,2.4741-1.2473,3.5782.3783-.7974.6236-1.6255.6952-2.4741.2863-3.2613-1.4415-6.4817-4.8664-9.0785-3.3533-2.5354-7.9436-4.1712-12.9327-4.6006-10.3973-.8997-19.3121,3.7725-19.8847,10.4177-.0716.8179.0102,1.646.2249,2.4639-.4805-1.1961-.685-2.423-.5827-3.6498.276-3.1488,2.5048-5.9501,6.2874-7.9028,3.1795-1.6358,7.136-2.5048,11.3378-2.5048l.0102.0204ZM326.8609,447.8012c.3374.3169.7156.6134,1.1348.8792l25.3747,16.5416s.0205.0102.0307.0205h0c1.9731,1.2779,4.5392,1.9322,7.0338,1.9322,2.0754,0,4.1098-.4601,5.7252-1.3802h.0307l85.2434-49.2159c1.7687-1.0223,2.7808-2.4843,2.8524-4.0996.0716-1.7073-.9201-3.3533-2.7604-4.6312h0l-.0102-.0102-28.4111-19.5166h-.0205c-.4192-.2965-.8792-.5623-1.3597-.7974-1.5437-.7463-3.4146-1.1961-5.2753-1.2779-1.4722-.0716-2.9239.1022-4.2223.4703-.8179.2351-1.5642.5521-2.2287.9406-14.3844,8.5162-28.6462,17.3493-42.407,26.2744-13.7608,8.9251-27.3683,18.1774-40.4646,27.4909h0c-.9201.6645-1.5233,1.4824-1.738,2.3923-.184.7463-.092,1.554.2658,2.3105.276.593.6952,1.1553,1.2575,1.6767h-.0511ZM329.2634,447.7296c-.2351-.1533-.4396-.3067-.6236-.4703l.2863-3.3635c13.0145-9.2523,26.5299-18.4329,40.1987-27.2967,13.4541-8.7309,27.3989-17.3697,41.4767-25.7223l-2.2594,26.1006c-21.96,13.0043-43.4703,26.6731-63.9479,40.6179l-15.1308-9.8657h0ZM417.0729,416.1901c-.9201-.2965-1.9016-.4703-2.9137-.5316-1.0019-.0613-1.9936,0-2.9239.1942-.501.1022-.9712.2351-1.4211.3987-.1431.0511-.276.1125-.4089.1738l2.2594-26.1619c.4294-.2249.8894-.4294,1.4108-.5827.9815-.2863,2.0958-.3987,3.2204-.3578,1.4211.0613,2.8626.4089,4.0281.9712.276.1329.5214.2863.7668.4396l-2.2696,26.2335c-.5418-.2965-1.1246-.5725-1.7584-.777h.0102ZM418.7393,418.0815l-.1533,1.7278c-.2454-.1329-.501-.2658-.777-.3783-.0613-.0511-.1431-.0818-.2249-.092-.2454-.1022-.4907-.2147-.7463-.2965-.9201-.2965-1.9016-.4703-2.9035-.5316s-1.9834,0-2.9137.1942c-.501.1022-.9815.2351-1.4313.3987-.1431.0511-.276.1125-.4192.1738l.1431-1.6664c.2658-.1431.5521-.276.8588-.3885.3987-.1431.8179-.2658,1.2677-.3578.8486-.1738,1.7482-.2249,2.6581-.1738.9201.0511,1.8096.2147,2.6581.4805.7361.2351,1.3904.5521,1.9731.9201l.0102-.0102ZM345.3245,458.1984c20.1505-13.7199,41.3029-27.1638,62.9051-39.9636l-.1329,1.5949c-14.2924,8.465-28.4724,17.247-42.1412,26.121-6.5635,4.2632-13.1372,8.6184-19.5473,12.9634l-1.0837-.7054v-.0102ZM364.8513,464.7619h0c-.1022.0613-.1942.1125-.3067.1636-.5112.2556-1.0939.4601-1.738.6134-.6645.1533-1.3802.2454-2.1163.2658-.7463.0205-1.5029-.0307-2.2492-.1431-.7361-.1227-1.4313-.2965-2.0958-.5418-.6339-.2351-1.2064-.5214-1.7073-.8486l-7.2996-4.7539c6.2874-4.2632,12.7385-8.5366,19.169-12.7078,13.7199-8.9047,27.9612-17.7275,42.3252-26.2335.3272-.1942.7054-.368,1.0939-.5112.3987-.1431.8281-.2658,1.2779-.3578.8486-.1636,1.738-.2249,2.6581-.1738.9201.0511,1.8096.2147,2.6479.4907.184.0613.3374.1329.5112.2045l1.4517,13.5768-53.6426,30.9669.0205-.0102ZM419.455,433.2327l-1.3393-12.5135c.2147.1125.4294.2249.6236.3578l9.9372,6.8293-9.2216,5.3264ZM451.2091,408.8804c1.3699,1.0326,2.0958,2.2798,2.0447,3.5373-.0204.6441-.2556,1.2575-.6748,1.83.0613-.1942.1022-.3783.1227-.5827h0c.1227-1.4006-.6339-2.8012-2.0651-3.8849.1022-.3169.3067-.6543.5725-.8894v-.0102ZM451.6896,413.5729c-.0102.1227-.0307.2351-.0716.3578-.0409.1227-.1022.2454-.1738.3783-.0818.1329-.1738.2658-.2965.4089s-.276.2863-.4498.4192c-.1738.1431-.368.276-.5929.3987l.3885-4.5494c.8383.7872,1.2677,1.6971,1.1962,2.5865ZM422.7878,389.3433l27.5727,18.9441c-.2454.2556-.4396.5623-.5827.8792l-27.5727-18.9441c.1022-.3169.3169-.6543.5827-.8894v.0102ZM449.5324,410.2401l-.5112,5.9194-19.3633,11.1743-10.1008-6.9417.2249-2.5559,2.2901-26.4788,27.4603,18.8726v.0102ZM412.4928,387.6871c1.1859-.3476,2.5354-.4907,3.8951-.4396,1.7278.0716,3.4555.4907,4.8766,1.1757.2249.1125.4294.2454.6441.368-.2351.2658-.4396.5725-.5725.8894-.184-.1022-.3476-.2249-.5521-.3169-1.2984-.6236-2.8728-1.0019-4.437-1.0735-1.2268-.0511-2.4536.0818-3.5476.3987-.4294.1227-.8383.2863-1.2166.4601-.1022-.3374-.2658-.6543-.4805-.9406.4294-.2045.8894-.3987,1.3904-.5418v.0204ZM368.1331,414.7793c13.6381-8.8535,27.7874-17.6151,42.0492-26.0597.2454.2658.4294.6134.4805.9406-14.2822,8.4548-28.4417,17.2368-42.0901,26.0903-13.5154,8.7718-26.8878,17.8502-39.7694,27.0002-.1227-.3169-.3169-.6236-.5521-.8792,12.9123-9.1705,26.3255-18.2898,39.892-27.082l-.0102-.0102ZM327.7196,446.0223s-.0307-.0716-.0409-.1125c-.0205-.092-.0205-.184-.0205-.2658s.0205-.1636.0409-.2454c.0205-.092.0613-.1738.092-.2556l-.0716.8792h0ZM326.3497,444.0491c.1329-.5623.5112-1.1041,1.0632-1.5744.2658.2556.4498.6032.4907.9201-.6236.5112-1.0428,1.1144-1.2064,1.7687-.0307.1329-.0511.2658-.0613.3987,0,.1125.0102.2249.0205.3374-.0409-.0716-.092-.1329-.1227-.2045-.2556-.5623-.3272-1.1144-.1942-1.646h.0102ZM564.5466,443.5789c.9303.0818,1.8402.1227,2.7501.1227,9.9781,0,18.116-4.7744,18.6885-11.3378.6134-7.1564-7.9948-13.7608-19.1895-14.7218-11.2049-.9712-20.815,4.0587-21.4284,11.2152-.6134,7.1564,7.9948,13.7608,19.1895,14.7218h-.0102ZM546.3693,428.9491c.5725-6.5941,9.6816-11.2049,20.3243-10.2848,10.6324.9201,18.8317,7.0338,18.2592,13.6177-.1124,1.2779-.5521,2.4741-1.2473,3.5782.3783-.7974.6236-1.6255.6952-2.4741.2863-3.2613-1.4415-6.4817-4.8664-9.0785-3.3533-2.5354-7.9436-4.1712-12.9327-4.6006-4.9993-.4294-9.7941.3885-13.5359,2.3105-3.8134,1.9629-6.0728,4.8459-6.3488,8.1072-.0716.8281.0204,1.6767.2454,2.515-.4907-1.1961-.7054-2.4332-.5929-3.6907h0ZM547.7392,430.2065c.2556-2.9035,2.3105-5.49,5.7967-7.2893,3.568-1.8402,8.1788-2.6172,12.9736-2.2083,4.8051.4192,9.2114,1.9731,12.4113,4.3961,3.1284,2.3718,4.713,5.2753,4.4677,8.1686-.1022,1.1655-.5418,2.2901-1.3188,3.3431-.7361,1.0121-1.7584,1.922-3.0261,2.7195-1.2473.7872-2.7092,1.4313-4.3245,1.9322-1.646.5009-3.4249.8281-5.2958.9712-1.8811.1534-3.8134.1022-5.7252-.1227-1.922-.2249-3.7827-.6441-5.5411-1.2268-1.738-.5725-3.3226-1.3086-4.7335-2.1674-1.3699-.8383-2.5252-1.7891-3.4351-2.8115-.8792-.9917-1.5233-2.0243-1.8914-3.0773-.3067-.8792-.4294-1.7687-.3578-2.6377v.0102ZM702.3592,590.9095c-2.4536-4.2632-6.1239-8.1788-10.8982-11.6446l-35.4857-25.7121,1.7584-20.3447c4.8459-3.6498,9.5999-7.3507,14.2311-11.1129h0c3.5782-2.9137,6.083-6.1545,7.4427-9.6305.3578-.9099.6339-1.8402.8179-2.7603h0c4.5188-22.0214,9.0273-44.053,13.5257-66.0948.184-.8997.3067-1.8096.3578-2.7195.0511-.9099.0511-1.8402-.0204-2.7501-.0716-.9099-.2045-1.83-.3987-2.7501-.1942-.9099-.4498-1.8198-.7668-2.7195-.3169-.8894-.6952-1.7789-1.1348-2.6581-.4396-.869-.9303-1.7482-1.4722-2.5865s-1.1553-1.6767-1.8095-2.4843c-.6441-.8077-1.3597-1.6051-2.1163-2.3718-.7565-.7668-1.5642-1.5233-2.4127-2.2492-.8383-.7156-1.738-1.4313-2.6785-2.106h0l-132.7929-96.2439h0c-.8485-.6134-1.7687-1.1961-2.7297-1.7278s-1.9834-1.0223-3.0364-1.4722c-1.053-.4396-2.1571-.8383-3.2817-1.1757s-2.2901-.6339-3.4658-.869c-1.1757-.2351-2.3821-.4192-3.5885-.5316-1.2064-.1227-2.4332-.184-3.6293-.1942-1.2166,0-2.4127.0511-3.5987.1636-1.1757.1125-2.3514.2863-3.4862.5112-1.1246.2249-2.2389.5214-3.292.8588-1.053.3374-2.0856.7463-3.0466,1.1859h0c-7.2893,3.4044-14.6094,6.9009-21.7351,10.3768-7.1564,3.4862-14.3538,7.0747-21.3875,10.6529s-14.1084,7.2587-21.0297,10.9289c-6.9213,3.6702-13.8733,7.4427-20.6617,11.2049-6.7986,3.7622-13.6177,7.6267-20.2834,11.4708-6.6862,3.8543-13.3825,7.8107-19.9051,11.7366-6.5226,3.9258-13.0963,7.9641-19.5166,11.9921-6.4101,4.0281-12.8509,8.1481-19.1179,12.2477-6.2874,4.1098-12.5851,8.3117-18.709,12.5033-6.1443,4.1916-12.2989,8.4753-18.3,12.7487h0c-.8997.6339-1.7073,1.3291-2.423,2.0651-.7259.7565-1.3597,1.554-1.8709,2.3923-.5214.8588-.9406,1.7482-1.2268,2.6683-.2863.9303-.4601,1.8811-.5009,2.8421s.0511,1.922.2556,2.883h0c6.1443,27.8897,12.2989,55.7793,18.4636,83.6792.3783,1.7073,1.2575,3.3431,2.6172,4.8766,1.2575,1.4108,2.8932,2.6785,4.8562,3.7725l26.5095,14.8138-175.118,101.1205h0c-2.2901,1.3188-3.5475,4.0587-3.5475,7.7187v29.3107c0,7.32,5.1526,16.2451,11.4912,19.9051,1.8505,1.0735,3.6498,1.6051,5.2753,1.6051,1.1553,0,2.2287-.276,3.1795-.8179h0l103.891-59.9812c.9406,4.2632,1.8811,8.5366,2.8217,12.7998,17.1243,77.6371,34.3816,155.5094,51.3014,231.4597.4294,1.9425,1.0837,3.844,1.9322,5.6536.7565,1.6153,1.6767,3.1693,2.7399,4.621.9201,1.2677,1.9629,2.4638,3.0875,3.5578.9815.961,2.0447,1.8504,3.1591,2.6683.9815.7157,2.014,1.3801,3.0773,1.9731h0l88.3514,49.3794c3.3226,1.8504,6.9622,3.3942,10.8267,4.5699,3.5885,1.0939,7.3711,1.8811,11.2458,2.331,2.6376.3067,5.306.4601,7.9743.4601,1.1553,0,2.3003-.0307,3.4555-.0818,3.8542-.1942,7.6676-.7157,11.3378-1.5438,3.8645-.869,7.5654-2.0856,11.0107-3.6191,8.598-3.8236,17.1141-7.8108,25.3338-11.8695,8.2504-4.0792,16.4189-8.3322,24.3012-12.6464,7.8925-4.3245,15.6931-8.8331,23.2073-13.403,7.5245-4.5699,14.9467-9.3238,22.0521-14.1186,7.136-4.8153,14.1493-9.8043,20.8457-14.8241,1.3188-.9916,2.5763-2.0447,3.7316-3.1386,1.2575-1.1859,2.4434-2.4537,3.5169-3.752,1.1655-1.4211,2.2287-2.9137,3.1591-4.4574,1.0019-1.6664,1.8709-3.4044,2.5968-5.1833.7668-1.9016,1.3597-3.8645,1.7687-5.8376,2.515-12.0126,5.0197-24.0252,7.5245-36.0378,15.8566-76.0627,32.1426-155.2129,48.4286-235.2424v-.0409c.2045-1.0019.3374-2.0038.3987-3.0159.2454-4.4574-.8792-8.8944-3.3533-13.1985l-.0306.0102ZM651.5076,593.3529c-.2863,3.2817-2.515,6.2772-6.2874,8.4241-8.4241,4.8051-21.9703,4.069-30.374-1.5949l3.4555-39.9636c13.4337-8.373,26.213-17.1039,38.3278-26.1721l-5.122,59.2962v.0102ZM676.9232,630.7709c-36.9988,29.5868-80.377,55.2477-129.4907,76.5943.1636-16.194.3272-32.388.5009-48.582,1.329.2352,2.6683.3783,4.0178.3783,5.49,0,10.9902-1.9834,15.325-5.9909,4.1405-3.8236,6.6964-9.0273,7.1769-14.6502l.7259-8.3833c4.3654,4.2836,10.0701,6.4817,15.8157,6.4817s10.9902-1.9834,15.325-5.9909c4.1405-3.8236,6.6964-9.0273,7.1769-14.6502l.7259-8.3833c4.3654,4.2836,10.0701,6.4817,15.8157,6.4817s10.9902-1.9834,15.325-5.9909c4.1405-3.8236,6.6964-9.0273,7.1769-14.6502l2.9444-34.126,31.2839,22.6655c-3.2715,16.2758-6.5533,32.5311-9.835,48.7967h-.0101ZM687.6681,582.6591c2.607,1.9629,4.8562,4.0996,6.6453,6.3794,2.0549,2.5968,3.5169,5.3367,4.3552,8.1379,1.145,3.844,1.0939,7.6778-.1636,11.3992-1.2677,3.7418-3.6805,7.1871-7.1871,10.2235-4.2836,3.7214-8.6695,7.3711-13.1372,10.98,3.1693-15.7033,6.3386-31.4065,9.4976-47.1098l-.0102-.0102ZM308.8062,598.2295c19.0464-13.6177,39.0537-27.0104,59.4802-39.8l10.704,5.9807-5.3469,61.893c-.0205.276-.0307.5623-.0307.8383-.2863,5.7149,1.5437,11.2458,5.2447,15.6419,3.8849,4.621,9.334,7.4529,15.3454,7.9641.6441.0511,1.2779.0818,1.922.0818,6.6146,0,12.9736-2.9444,17.2572-7.9948l-.8792,10.1519c-.5214,6.0114,1.3291,11.8695,5.214,16.4905.9712,1.1553,2.0447,2.198,3.2,3.1284l2.1163,19.7415-109.1255-71.1146-5.1015-23.0131v.0102ZM312.6809,620.4451l-1.7993-1.1655c-2.4434-1.5949-4.3757-3.4146-5.7149-5.398-1.2984-1.922-1.9936-3.9156-2.0651-5.9194-.0613-1.9118.4498-3.7622,1.5233-5.49.7974-1.2984,1.922-2.4843,3.292-3.5578l4.7744,21.5409-.0102-.0102ZM464.561,552.7861c4.1303,1.8504,8.6184,3.292,13.3519,4.2836,4.8459,1.0121,9.9679,1.5335,14.9876,1.5335,1.1041,0,2.2083-.0205,3.292-.0716,6.6862-.3067,13.1781-1.5949,18.8419-3.6907.4396,18.6476.8588,37.2748,1.2677,55.902-3.4658,1.3904-7.2382,2.5048-11.2254,3.292-4.3654.8588-8.9149,1.329-13.5257,1.3904-5.9501.0716-11.8183-.5214-17.3799-1.7789-5.4593-1.237-10.3768-3.0568-14.6298-5.398-.2965-13.3314-.6032-26.6731-.9201-40.0147-.1431-6.2772-.2965-12.5544-.4498-18.8419,1.9834,1.237,4.1201,2.3821,6.3897,3.4044v-.0102ZM458.1917,548.1958c.0818-.3578.3169-.7463.6032-1.0223,2.0549,1.3086,4.2836,2.5252,6.6555,3.5884,3.9974,1.7993,8.3526,3.2,12.9327,4.161,4.7437,1.0019,9.7532,1.5131,14.6502,1.5131,1.0223,0,2.0447-.0205,3.0466-.0716,6.5942-.2965,12.994-1.554,18.5454-3.6293.2045.2965.3476.685.3885,1.0326-5.6434,2.1367-12.1455,3.4351-18.8623,3.7418-5.9603.276-12.1966-.2147-18.024-1.4415-4.6619-.9712-9.0887-2.3923-13.1474-4.2121-2.423-1.0837-4.6926-2.3207-6.7884-3.66h0ZM515.5966,552.367c66.0437-25.3849,122.7738-58.1512,168.6466-97.4094.3169.2556.5112.6134.5418.9099-22.5939,19.3428-48.2344,37.3771-76.2161,53.5915-28.4008,16.4496-59.5518,31.2327-92.5941,43.9405-.0716-.3476-.1942-.7054-.3783-1.0326ZM612.4743,615.8855c-.2863,3.2817-2.515,6.2772-6.2874,8.4241-8.4241,4.8051-21.9703,4.069-30.374-1.5949l3.4658-40.1476c13.1576-6.9315,25.8041-14.1595,37.9393-21.684l-4.7539,55.0023h.0102ZM614.7542,601.3272c4.7641,3.0466,11.0005,4.6415,17.0937,4.6415,5.0504,0,9.9986-1.0837,13.8835-3.3022,1.9016-1.0837,3.4249-2.3821,4.5597-3.8236-1.1655,3.2102-3.0773,6.1341-5.6331,8.4957-8.69,8.0254-22.2361,7.5245-30.3331-1.053l.4294-4.9584h0ZM611.2577,621.3857c-1.1655,3.2102-3.0773,6.1341-5.6331,8.4957-8.69,8.0254-22.2361,7.5245-30.3331-1.053l.4294-4.9584c4.7641,3.0466,11.0005,4.6415,17.0937,4.6415,5.0504,0,9.9986-1.0837,13.8835-3.3022,1.9016-1.0837,3.4249-2.3821,4.5597-3.8236h0ZM573.4411,638.4283c-.2863,3.2817-2.515,6.2772-6.2874,8.4241-8.4241,4.8051-21.9703,4.069-30.374-1.5949l3.7827-43.8281c12.9634-5.8376,25.5178-11.941,37.6429-18.3l-4.7744,55.2886.0102.0102ZM534.3976,660.971c-.2863,3.2817-2.515,6.2772-6.2874,8.4241-8.4241,4.8051-21.9703,4.0792-30.374-1.5949l4.5188-52.242c1.0121-.1533,2.0243-.3272,3.0159-.5214,4.1712-.8281,8.1277-1.9936,11.7366-3.476,7.6267-3.1284,15.1205-6.3386,22.4814-9.6407l-5.1015,59.0406.0102.0102ZM458.7847,609.0051c4.3961,2.4536,9.4976,4.3552,15.1614,5.6331,5.3264,1.2064,10.8982,1.8198,16.5927,1.8198h1.0326c3.2613-.0409,6.4919-.2965,9.651-.7361l-5.8581,67.7919c-.3067,3.5169-2.791,6.6555-7.0133,8.8229-4.2939,2.2185-9.8452,3.1488-15.6317,2.6581-11.849-1.0223-20.9786-7.8414-20.3345-15.1921l6.1341-70.9408.276.1533-.0102-.0102ZM494.1171,689.0652c-1.2779,3.4964-3.4351,6.635-6.359,9.0989-4.4063,3.7111-10.0088,5.4798-15.7442,4.9788-5.7456-.5009-10.9493-3.2-14.6502-7.6063-2.4741-2.9444-4.0587-6.4101-4.713-10.1008,2.975,5.4491,10.6733,9.7634,19.9869,10.5711,1.0428.092,2.0754.1329,3.0875.1329,4.8459,0,9.4056-1.0019,13.0963-2.9035,2.2389-1.1553,4.0178-2.5661,5.2958-4.1712ZM433.1544,676.4392c-5.7456-.5009-10.9494-3.2-14.6503-7.6063-2.4639-2.9239-4.0485-6.3794-4.7028-10.0497.9815,1.7993,2.4945,3.5066,4.5086,5.0197,4.0076,3.0364,9.4976,4.9891,15.4681,5.5002,1.0019.0818,2.014.1329,3.0057.1329,6.2057,0,11.9921-1.6869,15.8771-4.6108l-.2454,2.883c-4.4268,6.0318-11.7877,9.3749-19.2508,8.7309h-.0102ZM452.7631,663.4451c-4.2325,3.6293-11.4503,5.4798-18.9134,4.8357-5.7865-.5009-11.0925-2.3821-14.9467-5.2958-3.7827-2.8626-5.7047-6.3794-5.398-9.8963l5.7149-66.1868,38.2972,21.3977-4.7641,55.1455h.0102ZM394.295,649.7354c-5.7456-.5009-10.9494-3.2-14.6503-7.6063-2.4741-2.9444-4.0587-6.4101-4.713-10.1008,2.975,5.4491,10.6733,9.7634,19.9869,10.5711,1.0019.0818,2.0038.1329,2.9955.1329,6.2057,0,12.0024-1.6869,15.8771-4.6108l-.2454,2.883c-4.4268,6.0318-11.7979,9.3749-19.2508,8.7309h0ZM413.9036,636.7414c-4.2325,3.6293-11.4401,5.49-18.9134,4.8357-11.8388-1.0223-20.9581-7.8312-20.3345-15.1819v-.0102h0l5.306-61.4329,38.2972,21.3977-4.3552,50.3916ZM422.0313,673.4232c3.2306,2.2798,6.9929,3.6907,11.0311,4.0383.6441.0511,1.2779.0818,1.922.0818,6.6146,0,12.9736-2.9444,17.2572-7.9948l-.8792,10.1519c-1.0735,12.4113,8.1481,23.3811,20.5696,24.4546.6645.0613,1.329.0818,1.9834.0818,5.306,0,10.3973-1.8504,14.5071-5.306,4.621-3.8849,7.4529-9.334,7.9641-15.3455l.7259-8.373c4.0076,3.9462,9.2522,6.2465,14.9161,6.4715.184,0,.3783,0,.5623.0102-.1329,13.2496-.2658,26.5095-.3885,39.7693-4.3143,1.3393-8.966,2.2083-13.8733,2.5968-6.1034.4703-12.2989.1738-18.4023-.8997-4.4166-.777-8.6797-1.9527-12.6567-3.476-3.752-1.4415-7.2075-3.1897-10.2848-5.1935l-32.8378-21.408-2.106-19.6598h-.0102ZM512.0593,680.6615c-5.6843-.2249-10.9391-2.6274-14.8343-6.7679l.4294-4.9584c4.7641,3.0466,11.0005,4.6415,17.0937,4.6415,5.0504,0,9.9986-1.0837,13.8835-3.3022,1.9016-1.0837,3.4249-2.3821,4.5597-3.8236-1.1655,3.2102-3.0773,6.1341-5.6331,8.4957-4.2325,3.9156-9.743,5.9296-15.4886,5.7149h-.0102ZM513.603,681.6736c5.4491-.1636,10.6017-2.2389,14.64-5.9705,4.1405-3.8236,6.6964-9.0273,7.1769-14.6502l.7259-8.3833c3.0773,3.0159,6.8191,4.9993,10.7756,5.8989-.1738,16.4087-.3374,32.8276-.5009,49.2363-10.1212,4.3757-20.4776,8.5775-31.0692,12.5851-.6952.2658-1.4108.5112-2.1265.7463.1227-13.1576.2556-26.3152.3885-39.4729l-.0102.0102ZM536.2583,651.361l.4294-4.9584c4.7641,3.0466,11.0005,4.6415,17.0937,4.6415,5.0504,0,9.9986-1.0837,13.8835-3.3022,1.9016-1.0837,3.4249-2.3821,4.5597-3.8236-1.1655,3.2102-3.0773,6.1341-5.6331,8.4957-8.69,8.0254-22.2361,7.5245-30.3331-1.053h0ZM671.1776,521.4205c-42.4275,34.4736-94.189,64.3875-153.8634,88.9136-.4089-18.6068-.8281-37.2339-1.2677-55.8611,33.2059-12.7487,64.5102-27.5932,93.0439-44.1246,27.6545-16.0202,53.0088-33.8193,75.4186-52.8963-4.4268,21.3364-8.874,42.6626-13.3314,63.9786v-.0102ZM679.2337,509.4999h0c-.1738.8588-.4396,1.738-.7668,2.5968-1.145,2.9341-3.1693,5.7047-6.0114,8.2401,4.4574-21.316,8.9046-42.6421,13.3314-63.9786,1.7175-1.4824,3.2102-3.0875,4.4166-4.7744.4805-.6645.9099-1.3495,1.2984-2.0345-4.0792,19.9971-8.1686,39.9738-12.2682,59.9505h0ZM691.8699,432.7829c.0307.0818.0613.1534.092.2351.3067.8588.5521,1.7278.7361,2.5865.184.869.3169,1.7482.3783,2.607.0613.869.0716,1.7482.0204,2.607-.0511.8588-.1738,1.7278-.3476,2.5763h0c-.5418,2.6479-1.6767,5.1935-3.384,7.5756-1.0428,1.4517-2.3003,2.8319-3.7316,4.1303-.1431-.3067-.3476-.593-.6134-.8383,1.5131-1.3597,2.8524-2.8115,3.936-4.345,1.9527-2.7297,3.1693-5.6638,3.6293-8.7206.4089-2.7706.1636-5.6331-.7054-8.4344l-.0102.0205ZM313.8361,437.5981c.6748-.7565,1.4824-1.4722,2.4025-2.1265h0c29.9752-21.316,62.0565-41.8754,95.3544-61.0955,33.2979-19.2201,68.5894-37.5713,104.9134-54.5321.5929-.276,1.2268-.5418,1.8709-.777,2.8012-1.0223,6.0421-1.6153,9.3545-1.7073,3.1284-.092,6.3897.2556,9.4363,1.0121,2.331.5827,4.529,1.3802,6.5328,2.3923,1.2268.6236,2.3821,1.3188,3.4249,2.0754l132.8133,96.2337c4.3552,3.1591,7.7085,6.9009,9.6714,10.8164,1.8198,3.6293,2.4945,7.4836,1.9527,11.1538-.4294,2.8932-1.5949,5.6843-3.4453,8.281-1.1553,1.6255-2.5865,3.1693-4.2427,4.5904-45.975,39.4115-102.93,72.2903-169.26,97.7161h0c-5.5309,2.1163-11.9513,3.3942-18.5863,3.6907-5.7661.2556-11.7979-.2351-17.4413-1.4211-4.5086-.9508-8.7922-2.331-12.718-4.0894-2.4434-1.0939-4.7437-2.3412-6.8293-3.7111l-140.6854-91.6842c-.7974-.5214-1.554-1.0837-2.2389-1.6562-2.0447-1.738-3.5169-3.7213-4.2632-5.7456-.6748-1.83-.7565-3.7418-.2454-5.5105.3987-1.3904,1.1553-2.699,2.2389-3.9156l-.0103.0102ZM457.9157,546.6111c-.2658.2965-.4805.6441-.6236,1.0019l-139.7857-91.1015c.0818-.3578.3067-.7463.593-1.0223l139.8164,91.1219ZM309.941,447.2184h0c-.1942-.869-.2658-1.7482-.2351-2.6172.0409-.869.184-1.738.4498-2.5763s.6441-1.6562,1.1246-2.4434h0c-.2658.5418-.5009,1.0939-.6645,1.6664-.5725,1.9834-.4805,4.1098.276,6.1443.8077,2.1878,2.3821,4.3143,4.5597,6.1648.5521.4703,1.1655.9201,1.7891,1.3597-.2658.2965-.4805.6441-.6236,1.0019-.6134-.4192-1.2166-.8588-1.7584-1.3188-2.1674-1.8198-3.7316-3.9054-4.5188-6.0421-.1636-.4396-.2965-.8997-.3987-1.3393ZM330.7969,535.304c-1.2473-1.3904-2.0447-2.8728-2.3821-4.4063-5.8172-26.3357-11.6343-52.6612-17.431-78.9866.8588,1.2268,1.9322,2.4025,3.2204,3.476.7054.593,1.4824,1.1553,2.3003,1.6869,2.7603,12.534,5.5207,25.0782,8.281,37.6122,3.2,14.5276,6.3999,29.0449,9.6101,43.5725-1.4211-.8997-2.6274-1.8811-3.5884-2.9546h-.0102ZM335.5917,538.9844c-3.2715-14.8445-6.543-29.6788-9.8146-44.513-2.6888-12.1966-5.3673-24.3932-8.0561-36.5899l139.4177,90.8561c.1533,6.5021.3067,13.0145.4601,19.5166.3067,13.1474.6134,26.2846.8997,39.4218l-.1942-.1022h0l-122.7227-68.5791.0102-.0102ZM362.4386,555.158l.6441.3578c-20.3856,12.7896-40.3521,26.1619-59.3575,39.7693-2.5968,1.8607-4.5086,4.0178-5.6945,6.4306-1.1961,2.4332-1.5846,5.0095-1.1655,7.6369.0409.2352.092.4601.1329.685v.0307c.8486,3.8542,1.6971,7.6983,2.5456,11.5525l-93.3813,53.9084c-.3783-7.1462-5.3673-15.5295-11.4605-19.0464-1.7584-1.0121-3.4658-1.5335-5.03-1.5846l172.7564-99.7403h.0102ZM299.7789,622.6636c1.83,8.3219,3.66,16.6336,5.5002,24.9555l-99.0656,57.2004v-28.135l93.5756-54.0209h-.0102ZM202.1548,712.5383c-1.9629,1.1246-4.6006.8485-7.4325-.7872-6.0523-3.4964-10.98-12.033-10.98-19.0259v-29.3107c0-3.2715,1.0735-5.7047,3.0364-6.8293,1.9629-1.1246,4.6006-.8485,7.4325.7872,6.0523,3.4964,10.98,12.033,10.98,19.0259v29.3107c0,3.2715-1.0735,5.7047-3.0364,6.8293h0ZM205.0685,710.8514c.7054-1.3086,1.0939-2.9444,1.1246-4.8459l99.3109-57.3333c.276,1.237.5418,2.4843.8179,3.7214l-101.2636,58.4579h.0102ZM361.6821,897.4811v-.0102c-16.9199-75.94-34.1771-153.8123-51.3014-231.4495-3.7418-16.971-7.4836-33.942-11.2152-50.9129.3476.5316.7156,1.0633,1.1348,1.5846,1.5846,1.9936,3.6498,3.8338,6.1239,5.4696,4.7846,21.7862,9.5794,43.5725,14.3742,65.369,5.2242,23.7083,10.4484,47.4165,15.6931,71.135,5.3367,24.1683,10.6938,48.3366,16.0509,72.5152,5.3571,24.1786,10.7244,48.3468,16.102,72.5459l.4907,2.1981c-1.6664-.8588-3.1182-1.8607-4.2734-2.9852-1.6664-1.6153-2.7297-3.4555-3.1795-5.4491v-.0102ZM520.3812,826.98c.4805,21.4489.9508,42.8875,1.4006,64.3057.4498,21.4182.8792,42.8262,1.2779,64.2239l.0511,2.5252c-3.9258,1.9016-8.2401,3.4248-12.8509,4.529-7.4836,1.7789-15.6317,2.3923-23.5344,1.7789-7.1769-.5623-14.2004-2.1571-20.3141-4.6108-2.7399-1.1042-5.3264-2.3821-7.688-3.8031l-.0511-2.5866c-.3987-21.5102-.8179-43.0204-1.2473-64.5409-.4396-21.5204-.8894-43.0613-1.3597-64.6124-.4601-21.0297-.9406-42.0799-1.4313-63.13-.3374-14.3231-.6748-28.6564-1.0326-42.9897,4.8459,3.0466,10.4075,5.5002,16.5518,7.2996,6.4919,1.9016,13.311,2.975,20.263,3.2.8997.0307,1.7993.0409,2.699.0409,4.2325,0,8.4037-.3272,12.442-.9712,4.3654-.6952,8.5264-1.7687,12.3806-3.1795.3374,13.2292.6543,26.4481.9814,39.6671.5112,20.9581.9917,41.9163,1.4722,62.8438l-.0103.0102ZM518.9601,724.101c69.2641-26.2437,128.5296-60.3799,176.2018-101.4783-3.1182,15.0285-6.2465,30.0468-9.3749,45.0651-5.0402,24.1683-10.1008,48.3162-15.1819,72.4641-5.2037,24.7306-10.428,49.451-15.6624,74.1612-5.2856,24.9249-10.6017,49.8497-15.7953,74.0794l-.6645,3.1079c-33.0423,24.7612-71.5031,46.9872-114.3497,66.0846l-.0409-2.0856c-.4089-21.3977-.8383-42.8057-1.2779-64.2239-.4498-21.4182-.9099-42.8568-1.4006-64.3159-.4703-20.9377-.961-41.8856-1.4722-62.8438-.3169-13.3314-.6543-26.6628-.9814-40.0045v-.0102ZM453.6218,761.0896c.4907,21.0502.9712,42.1003,1.4313,63.13.4703,21.5511.9303,43.092,1.3597,64.6124.4294,21.5204.8485,43.0307,1.2473,64.592l.0307,1.9323-87.3801-48.8274-.6748-3.0262c-5.3775-24.1887-10.7449-48.3673-16.102-72.5458-5.3571-24.1785-10.704-48.3469-16.0509-72.5152-5.2447-23.7185-10.4689-47.4267-15.6931-71.135-4.7232-21.4489-9.4363-42.8875-14.1493-64.3364l144.9281,94.4548c.3578,14.5582.7054,29.1165,1.0428,43.6747l.0103-.0103ZM369.1452,910.8125c-1.0837-1.0632-2.0856-2.2185-2.975-3.4351-.9712-1.3393-1.83-2.7706-2.5354-4.2529.1636.184.3374.3578.5112.5316,1.4006,1.37,3.1795,2.5559,5.2549,3.5373.276,2.0345.8486,3.844,1.6869,5.3366-.6748-.5419-1.3291-1.1144-1.9527-1.7175h.0102ZM375.1668,915.2904c-2.3821-1.329-3.9872-3.9667-4.621-7.4734l87.2165,48.7456c.3272,2.4127,1.0735,4.4881,2.1878,6.1136l-84.7833-47.3858ZM518.449,966.7555c-3.3737,1.5028-7.0133,2.699-10.8164,3.5578-3.6089.8179-7.3609,1.329-11.1641,1.5131-3.752.184-7.5449.0613-11.2561-.368-3.8031-.4498-7.5347-1.2166-11.0618-2.2901-3.8031-1.1553-7.3711-2.6683-10.6324-4.4881-2.3719-1.329-3.9872-3.9565-4.621-7.4529,2.2185,1.2882,4.6006,2.4537,7.136,3.4658,6.2057,2.4843,13.3314,4.1099,20.6105,4.6824,2.0345.1635,4.0792.2351,6.1239.2351,6.0318,0,12.0637-.685,17.7378-2.0447,4.4677-1.0632,8.6491-2.5354,12.4931-4.345-.5827,3.8133-2.1674,6.4817-4.5392,7.5347h-.0102ZM633.9846,900.0063c-6.6759,5.0095-13.679,9.9884-20.7946,14.7934-7.0951,4.7846-14.5071,9.5283-22.0112,14.0982-7.4938,4.5597-15.2943,9.058-23.1664,13.3723-7.8619,4.3143-16.0304,8.5571-24.2603,12.626-7.136,3.5271-14.5071,6.9929-21.9498,10.3462,1.1859-1.6153,1.9731-3.8338,2.3003-6.5226,42.7239-19.0055,81.1029-41.1291,114.1248-65.7575-.6441,3.0159-2.0958,5.4389-4.2325,7.0338l-.0102.0103ZM644.1262,888.9445c-.8997,1.4927-1.9323,2.9546-3.067,4.3347-.9099,1.1042-1.9118,2.1674-2.9648,3.1897.6236-1.3086,1.0735-2.7808,1.3086-4.3859,2.4434-1.7073,4.4779-3.5987,6.0932-5.6331-.4192.8486-.8792,1.6767-1.3699,2.4945ZM655.8832,842.2028c-2.5048,12.0024-5.0095,24.0047-7.5245,36.0071,0,.0102-.0102.0205-.0102.0307-.4498,2.1367-1.329,4.2018-2.6172,6.1546-1.4926,2.2492-3.5066,4.3347-6.0216,6.2159l.4294-2.0038c5.1935-24.2399,10.4995-49.1648,15.7953-74.0794,5.2447-24.7102,10.4688-49.4306,15.6624-74.1612,5.0811-24.1376,10.1417-48.2957,15.1819-72.4641,3.2204-15.4477,6.4408-30.9056,9.651-46.3635,2.7297-2.3923,4.9073-5.03,6.4612-7.8516.0307-.0613.0613-.1124.092-.1738-15.8362,77.8109-31.6724,154.7222-47.0894,228.7096l-.0103-.0205ZM704.6902,604.0467c-.1738,3.1488-1.0837,6.2159-2.6888,9.1398-1.5233,2.7604-3.6702,5.3469-6.3692,7.6983-47.8459,41.5278-107.5306,75.9809-177.3673,102.3984-3.977,1.5029-8.3015,2.6376-12.8611,3.3635-4.8255.7668-9.8555,1.0735-14.9365.9099-6.8702-.2249-13.5972-1.2882-20.0074-3.1591-6.3897-1.8709-12.1455-4.4574-17.0937-7.6778l-146.1958-95.2829c-2.4639-1.6051-4.5086-3.4146-6.0625-5.3673-1.7584-2.2083-2.8421-4.5188-3.2204-6.8702-.3885-2.4127-.0307-4.7744,1.0735-7.0133,1.1041-2.2594,2.9137-4.2939,5.3673-6.0523,19.1384-13.6995,39.248-27.1638,59.7767-40.0249l3.1693,1.7687c-20.3652,12.7691-40.3316,26.1312-59.3269,39.7285h0c-1.7789,1.2779-3.1897,2.7297-4.1814,4.3347-1.1859,1.9118-1.7482,3.9462-1.6767,6.0625.0716,2.198.8281,4.3654,2.2389,6.451,1.4211,2.106,3.4453,4.0178,6.0012,5.6843l2.8012,1.83s.0204.0102.0307.0204l143.2617,93.3609c3.1284,2.0447,6.6555,3.8236,10.4791,5.2856,4.0485,1.554,8.373,2.7399,12.8509,3.5373,4.2939.7565,8.6389,1.1348,12.9634,1.1348,1.9016,0,3.8031-.0716,5.6945-.2249,6.2159-.4805,12.0433-1.738,17.2981-3.7316,69.4073-26.2641,128.7137-60.5026,176.2835-101.7748,3.6396-3.1591,6.1648-6.7475,7.4836-10.6733,1.329-3.9156,1.3802-7.9641.1738-12.0126-.869-2.9239-2.3923-5.7763-4.529-8.4753-2.0038-2.5354-4.5188-4.9175-7.4938-7.0644h-.0102l-32.0302-23.2073.2965-3.384,34.9848,25.344c4.6517,3.3737,8.2299,7.1871,10.612,11.3276,2.3719,4.1201,3.4555,8.373,3.2204,12.626l-.0103-.0102ZM589.6248,416.0879c3.6089,2.7297,8.5673,4.4983,13.955,4.9584.9303.0818,1.8402.1227,2.7501.1227,9.9781,0,18.116-4.7744,18.6783-11.3378.3067-3.5067-1.554-6.9826-5.2344-9.7634-3.6089-2.7297-8.5673-4.4983-13.955-4.9584-5.3878-.4703-10.5711.4192-14.5991,2.4945-4.1098,2.1163-6.5328,5.214-6.8395,8.7206s1.554,6.9826,5.2344,9.7634h.0102ZM622.4218,410.7513c-.1022,1.1655-.5418,2.2901-1.3188,3.3431-.7361,1.0121-1.7584,1.922-3.0261,2.7195-1.2473.7872-2.7092,1.4313-4.3245,1.9322-1.646.5009-3.4249.8281-5.2958.9712-1.8811.1534-3.8134.1022-5.7252-.1227-1.922-.2249-3.7827-.6441-5.5411-1.2268-1.738-.5725-3.3226-1.3086-4.7335-2.1674-1.3699-.8383-2.5252-1.7891-3.4351-2.8115-.8792-.9917-1.5233-2.0243-1.8914-3.0773-.3067-.8792-.4294-1.7687-.3578-2.6377.5214-6.083,8.9455-10.3359,18.7805-9.4874,4.8051.4192,9.2114,1.9731,12.4113,4.3961,3.1284,2.3718,4.713,5.2753,4.4677,8.1686h-.0102ZM585.4128,406.4063c.276-3.1488,2.5048-5.9501,6.2874-7.9028,3.1795-1.6358,7.136-2.5048,11.3378-2.5048.8894,0,1.7993.0409,2.699.1125,5.1935.4498,9.9577,2.1367,13.4234,4.7539,3.3942,2.5661,5.1117,5.7149,4.8357,8.8638-.1124,1.2779-.5521,2.4741-1.2473,3.5782.3783-.7974.6236-1.6255.6952-2.4741.2863-3.2613-1.4415-6.4817-4.8664-9.0785-3.3533-2.5354-7.9436-4.1712-12.9327-4.6006-10.3871-.8997-19.3122,3.7725-19.8847,10.4177-.0716.8179.0102,1.646.2352,2.4639-.4805-1.1961-.685-2.423-.5827-3.6498v.0204ZM488.8827,413.4809c-11.2049-.9712-20.815,4.0587-21.4284,11.2152-.6134,7.1564,7.9948,13.7608,19.1895,14.7218.9303.0818,1.8402.1227,2.7501.1227,9.9781,0,18.116-4.7744,18.6885-11.3378.6134-7.1564-7.9948-13.7608-19.1895-14.7218h-.0102ZM505.4856,429.1331c-.1022,1.1655-.5418,2.2901-1.3188,3.3431-.7361,1.0121-1.7584,1.922-3.0261,2.7195-1.2473.7872-2.7092,1.4313-4.3245,1.9322-1.6562.5009-3.4351.8281-5.2958.9712-1.8811.1431-3.8134.1022-5.7252-.1227s-3.7827-.6441-5.5411-1.2268c-1.738-.5725-3.3226-1.3086-4.7335-2.1674-1.3699-.8383-2.5252-1.7891-3.4351-2.8115-.8792-.9917-1.5233-2.0243-1.8914-3.0773-.3067-.8792-.4294-1.7687-.3578-2.6377.2556-2.9035,2.3105-5.49,5.7967-7.2893,3.568-1.8402,8.1788-2.6172,12.9736-2.2083,4.8051.4192,9.2114,1.9731,12.4113,4.3961,3.1284,2.3718,4.713,5.2753,4.4677,8.1686v.0102ZM507.0498,428.1107c-.1124,1.2779-.5521,2.4741-1.2473,3.5782.3783-.7974.6236-1.6255.6952-2.4741.2863-3.2613-1.4415-6.4817-4.8664-9.0785-3.3533-2.5354-7.9436-4.1712-12.9327-4.6006-4.9993-.4294-9.7941.3885-13.5359,2.3105-3.8134,1.9629-6.0728,4.8459-6.3488,8.1072-.0716.8281.0204,1.6767.2454,2.515-.4907-1.1961-.7054-2.4332-.5929-3.6907.5725-6.5941,9.6816-11.2049,20.3243-10.2848,10.6324.9201,18.8317,7.0338,18.2591,13.6177ZM541.871,395.8965c-3.6089-2.7297-8.5673-4.4983-13.955-4.9584-5.3776-.4601-10.5711.4192-14.5991,2.4945-4.1098,2.1163-6.5328,5.214-6.8395,8.7206s1.554,6.9826,5.2344,9.7634c3.6089,2.7297,8.5673,4.4983,13.955,4.9584.9303.0818,1.8402.1227,2.7501.1227,9.9781,0,18.116-4.7744,18.6885-11.3378.3067-3.5067-1.554-6.9826-5.2344-9.7634ZM544.5291,406.5903c-.1022,1.1655-.5418,2.2901-1.3188,3.3431-.7361,1.0121-1.7584,1.922-3.0261,2.7195-1.2473.7872-2.7092,1.4313-4.3245,1.9322-1.6562.5009-3.4351.8281-5.2958.9712-1.8811.1431-3.8134.1022-5.7252-.1227-1.922-.2249-3.7827-.6441-5.5411-1.2268-1.738-.5725-3.3226-1.3086-4.7335-2.1674-1.3699-.8383-2.5252-1.7891-3.4351-2.8115-.8792-.9917-1.5233-2.0243-1.8914-3.0773-.3067-.8792-.4294-1.7687-.3578-2.6377.5214-6.083,8.9558-10.3359,18.7805-9.4874,4.8051.4192,9.2114,1.9731,12.4113,4.3961,3.1284,2.3718,4.713,5.2753,4.4677,8.1686h-.0102ZM546.0933,405.5782c-.1124,1.2779-.5418,2.4741-1.2473,3.568.3783-.7974.6236-1.6255.6952-2.4741.2863-3.2613-1.4415-6.4817-4.8664-9.0785-3.3533-2.5354-7.9436-4.1712-12.9327-4.6006-10.3871-.8997-19.3122,3.7725-19.8847,10.4177-.0716.8179.0102,1.646.2249,2.4639-.4805-1.1961-.685-2.423-.5827-3.6498.276-3.1488,2.5048-5.9501,6.2874-7.9028,3.1795-1.6358,7.136-2.5048,11.3378-2.5048.8894,0,1.7891.0409,2.699.1125,5.1935.4498,9.9577,2.1367,13.4234,4.7539,3.3942,2.5661,5.1117,5.7149,4.8357,8.8638l.0102.0307ZM449.8494,436.0135c-11.2152-.9712-20.815,4.069-21.4284,11.2152-.3067,3.5066,1.554,6.9826,5.2344,9.7634,3.6089,2.7297,8.5673,4.4983,13.955,4.9584.9303.0818,1.8402.1227,2.7501.1227,9.9781,0,18.116-4.7744,18.6885-11.3378.6134-7.1564-7.9948-13.7608-19.1895-14.7218h-.0102ZM466.4523,451.6656c-.1022,1.1655-.5418,2.2901-1.3188,3.3431-.7361,1.0121-1.7584,1.922-3.0261,2.7195-1.2473.7872-2.7092,1.4313-4.3347,1.9322-1.6562.501-3.4351.8281-5.2958.9712-1.8811.1533-3.8134.1022-5.7252-.1227-1.922-.2249-3.7827-.6441-5.5411-1.2268-1.738-.5725-3.3226-1.3086-4.7335-2.1674-1.3699-.8383-2.5252-1.7891-3.4351-2.8115-.8792-.9917-1.5233-2.0242-1.8914-3.0773-.3067-.8792-.4294-1.7687-.3578-2.6377.2556-2.9035,2.3105-5.49,5.7967-7.2893,3.568-1.8402,8.1788-2.6172,12.9736-2.2083,9.8248.8486,17.4004,6.4919,16.8687,12.5749h.0205ZM468.0165,450.6535c-.1124,1.2779-.5521,2.4741-1.2473,3.5782.3783-.7974.6236-1.6255.7054-2.4741.5725-6.6453-7.412-12.7794-17.7991-13.679-4.9993-.4294-9.7941.3885-13.5359,2.3105-3.8134,1.9629-6.0728,4.8459-6.3488,8.1072-.0716.8179.0102,1.646.2351,2.4639-.4805-1.1961-.685-2.423-.5827-3.6498.5214-6.0319,8.189-10.4075,17.6355-10.4075.8792,0,1.7789.0409,2.6888.1125,10.6324.9201,18.8317,7.0338,18.2591,13.6177l-.0102.0205ZM463.6204,490.2184c-3.6089-2.7297-8.5673-4.4983-13.955-4.9584-5.3878-.4601-10.5711.4192-14.5991,2.4945-4.1098,2.1163-6.5328,5.214-6.8395,8.7206-.6134,7.1564,7.9948,13.7608,19.1895,14.7218.9406.0818,1.8709.1227,2.791.1227,4.3654,0,8.4855-.8997,11.8081-2.6172,4.1098-2.1163,6.5328-5.214,6.8395-8.7206s-1.554-6.9826-5.2344-9.7634h0ZM466.2785,500.9019c-.1022,1.1655-.5418,2.2901-1.3188,3.3431-.7361,1.0121-1.7584,1.922-3.0261,2.7195-1.2473.7872-2.7092,1.4313-4.3245,1.9322-1.646.501-3.4351.8281-5.2958.9712-1.8811.1533-3.8134.1022-5.7354-.1227-1.922-.2249-3.7827-.6441-5.5411-1.2268-1.738-.5725-3.3226-1.3086-4.7335-2.1674-1.3699-.8383-2.5252-1.7891-3.4351-2.8115-.8792-.9917-1.5233-2.0242-1.8914-3.0773-.3067-.8792-.4294-1.7687-.3578-2.6377.2556-2.9035,2.3105-5.49,5.7967-7.2893,3.568-1.8402,8.1788-2.6172,12.9736-2.2083,9.8248.8486,17.4004,6.4919,16.8687,12.5647l.0205.0102ZM467.8427,499.8898c-.1124,1.2473-.5316,2.4332-1.2268,3.5373.368-.7872.6134-1.6051.685-2.4434h0c.5725-6.6453-7.412-12.7794-17.7991-13.679-4.9993-.4294-9.7941.3885-13.5359,2.3105-3.8134,1.9629-6.0728,4.8459-6.3488,8.1072-.0716.8281.0102,1.6767.2454,2.515-.4907-1.1859-.7054-2.4332-.593-3.6907.276-3.1488,2.5048-5.9501,6.2874-7.9027,3.1795-1.6358,7.136-2.5048,11.3378-2.5048.8894,0,1.7993.0409,2.699.1125,5.1935.4498,9.9577,2.1367,13.4234,4.7539,3.3942,2.5661,5.1117,5.7149,4.8357,8.8638l-.0102.0205ZM410.8059,458.5563c-11.2049-.9712-20.815,4.0689-21.4284,11.2152-.6134,7.1564,7.9948,13.7608,19.1895,14.7218.9303.0818,1.8402.1227,2.7501.1227,9.9781,0,18.116-4.7744,18.6885-11.3378.6134-7.1564-7.9948-13.7608-19.1895-14.7218h-.0102ZM427.4191,474.2084c-.1022,1.1655-.5418,2.2901-1.3188,3.3431-.7361,1.0121-1.7584,1.922-3.0262,2.7195-1.2473.7872-2.7092,1.4313-4.3245,1.9322-1.6562.501-3.4351.8281-5.2958.9712-1.8811.1533-3.8134.1022-5.7252-.1227-1.922-.2249-3.7827-.6441-5.5411-1.2268-1.738-.5725-3.3226-1.3086-4.7335-2.1674-1.3597-.8383-2.5252-1.7891-3.4351-2.8115-.8792-.9917-1.5233-2.0242-1.8914-3.0773-.3067-.8792-.4294-1.7687-.3578-2.6377.2556-2.9035,2.3105-5.49,5.7967-7.2893,3.568-1.8402,8.1686-2.6172,12.9736-2.2083,9.8248.8486,17.4004,6.4919,16.8687,12.5749h.0102ZM428.9833,473.1963c-.1125,1.2779-.5521,2.4741-1.2473,3.5782.3783-.7974.6236-1.6255.6952-2.4741.5725-6.6453-7.412-12.7794-17.7991-13.679-4.9891-.4294-9.7941.3885-13.5359,2.3105-3.8134,1.9629-6.0728,4.8459-6.3488,8.1072-.0716.8281.0205,1.6767.2454,2.515-.4907-1.1961-.7054-2.4332-.593-3.6907.5214-6.0318,8.189-10.4075,17.6355-10.4075.8792,0,1.7789.0409,2.6888.1125,10.6324.9201,18.8317,7.0338,18.2591,13.6177v.0102ZM502.4799,516.9221c-3.6089-2.7297-8.5673-4.4983-13.955-4.9584-5.3878-.4703-10.5711.4192-14.5991,2.4945-4.1098,2.1163-6.5328,5.214-6.8395,8.7206s1.554,6.9826,5.2344,9.7634c3.6089,2.7297,8.5673,4.4983,13.955,4.9584.9303.0818,1.8402.1227,2.7501.1227,9.9781,0,18.116-4.7744,18.6783-11.3378.3067-3.5066-1.554-6.9826-5.2344-9.7634h.0102ZM505.138,527.6057c-.1022,1.1655-.5418,2.2901-1.3188,3.3431-.7361,1.0121-1.7584,1.922-3.0261,2.7195-1.2473.7872-2.7092,1.4313-4.3245,1.9322-1.646.501-3.4249.8281-5.2958.9712-1.8811.1533-3.8134.1022-5.7252-.1227-1.922-.2249-3.7827-.6441-5.5411-1.2268-1.738-.5725-3.3226-1.3086-4.7335-2.1674-1.3597-.8383-2.5252-1.7891-3.4351-2.8115-.8792-.9917-1.5233-2.0242-1.8914-3.0773-.3067-.8792-.4294-1.7687-.3578-2.6377.5214-6.083,8.9455-10.3359,18.7805-9.4874,4.8051.4192,9.2114,1.9731,12.4113,4.3961,3.1284,2.3719,4.713,5.2753,4.4677,8.1686h-.0102ZM506.7022,526.5936c-.1124,1.2779-.5521,2.4741-1.2473,3.568.3783-.7974.6236-1.6255.6952-2.4741.2863-3.2613-1.4415-6.4817-4.8664-9.0785-3.3533-2.5354-7.9436-4.1712-12.9327-4.6006-10.3871-.8997-19.3121,3.7827-19.8847,10.4177-.0716.8179.0102,1.646.2352,2.4639-.4805-1.1961-.685-2.423-.5827-3.6498.276-3.1488,2.5048-5.9501,6.2874-7.9027,3.1795-1.6358,7.136-2.5048,11.3378-2.5048.8894,0,1.7993.0409,2.699.1125,5.1935.4498,9.9577,2.1367,13.4234,4.7539,3.3942,2.5661,5.1117,5.7149,4.8357,8.8638v.0307ZM541.5234,494.3794c-3.6089-2.7297-8.5673-4.4983-13.955-4.9584-11.1947-.9712-20.815,4.0587-21.4284,11.2152-.3067,3.5066,1.554,6.9826,5.2344,9.7634,3.6089,2.7297,8.5673,4.4983,13.955,4.9584.9406.0818,1.8709.1227,2.791.1227,4.3654,0,8.4855-.8997,11.8081-2.6172,4.1098-2.1163,6.5328-5.214,6.8395-8.7206s-1.554-6.9826-5.2344-9.7634h-.0102ZM544.1815,505.0629h0c-.1022,1.1655-.5418,2.2901-1.3188,3.3431-.7361,1.0121-1.7584,1.922-3.0261,2.7195-1.2473.7872-2.7092,1.4313-4.3245,1.9322-1.646.501-3.4249.8281-5.2958.9712-1.8811.1533-3.8134.1022-5.7354-.1227-1.922-.2249-3.7827-.6441-5.5411-1.2268-1.738-.5725-3.3226-1.3086-4.7335-2.1674-1.3597-.8383-2.5252-1.7891-3.4351-2.8115-.8792-.9917-1.5131-2.0242-1.8914-3.0773-.3067-.8792-.4294-1.7687-.3578-2.6377h0c.5214-6.083,8.9558-10.3359,18.7805-9.4874s17.3902,6.4817,16.8687,12.5647h.0102ZM545.7457,504.061c-.1124,1.2473-.5316,2.4332-1.2268,3.5373.368-.7872.6134-1.5949.685-2.4332h0c.5725-6.6453-7.412-12.7794-17.7991-13.679-10.3973-.8997-19.3121,3.7725-19.8847,10.4177h0c-.0716.8179.0102,1.646.2352,2.4639-.4805-1.1961-.685-2.423-.5827-3.6498.5214-6.0318,8.189-10.3973,17.6355-10.3973.8792,0,1.7789.0409,2.6888.1125,5.1935.4498,9.9577,2.1367,13.4234,4.7539,3.3942,2.5661,5.1117,5.7149,4.8357,8.8638l-.0102.0102ZM433.4202,382.8207l28.4315,19.5371s.0204.0102.0409.0204h0c1.9834,1.3495,4.6415,2.0447,7.228,2.0447,2.0754,0,4.1098-.4498,5.7149-1.3597h.0307l85.2434-49.2159c1.7482-1.0121,2.7604-2.4536,2.8421-4.0485.0818-1.6562-.8281-3.2715-2.5763-4.5495h0s-.0102,0-.0204-.0102l-23.9536-17.3595c-.4396-.3272-.9406-.6134-1.462-.869-.8894-.4294-1.8402-.7361-2.8524-.9303-.9508-.1738-1.9016-.2454-2.8319-.184-.777.0409-1.5233.1738-2.2287.368-.4294.1227-.8485.276-1.237.4601h0c-15.8771,7.412-31.6826,15.1512-46.9871,23.0028-15.2943,7.8516-30.5171,16.0304-45.2389,24.3217h-.0205c-.4192.2351-.8076.501-1.145.7974-1.145.9815-1.7687,2.2185-1.7584,3.5067,0,1.0121.3885,2.0242,1.1246,2.9444.4396.5521,1.0019,1.0735,1.6664,1.5233h-.0103ZM433.8087,381.0929c-.1022-.1125-.2147-.2249-.2965-.3272-.1329-.1738-.2351-.3578-.3169-.5316-.0716-.1534-.1227-.3169-.1431-.4703-.0205-.1431-.0307-.276-.0205-.4089.0613-.7156.4498-1.3904,1.0939-1.9629l-.3169,3.7111v-.0102ZM434.7595,381.921l.4601-5.2753c14.6196-8.2299,29.7299-16.3576,44.9322-24.1479,15.0183-7.7085,30.5273-15.3046,46.1079-22.5837l-2.2594,26.1721c-24.9862,11.6752-49.6146,24.0661-73.2002,36.8454l-16.0202-11.0107h-.0205ZM527.3127,329.4337c.1942-.0818.3885-.1636.5929-.2147.4907-.1431,1.0121-.2249,1.554-.2556.6645-.0409,1.3393,0,2.0243.1329.7259.1329,1.4313.368,2.0754.6747.3067.1431.5725.3169.8281.4907l-2.515,29.0654c-.4805-.276-.9917-.5214-1.5438-.7054-.777-.2556-1.5744-.4192-2.3923-.4703-.7054-.0511-1.3802-.0204-2.0549.092-.3783.0613-.7361.1534-1.0837.2658l.1738-2.0345,2.331-27.0309.0102-.0102ZM516.4758,377.2182l-42.9591,24.8022c-.1431.0818-.2965.1636-.4498.2351-.5316.2556-1.1348.4498-1.7891.5827-.685.1431-1.4006.2249-2.1469.2249s-1.5029-.0511-2.2389-.184c-.7259-.1329-1.4211-.3272-2.0651-.5827-.6134-.2454-1.1757-.5316-1.6562-.869h0l-9.2114-6.3283c7.7494-4.1712,15.6726-8.3424,23.5856-12.4011,12.7589-6.5533,25.8756-13.0043,39.0844-19.2713l-.1431,13.7813-.0102.0102ZM516.8541,362.1897c-13.4439,6.3692-26.7957,12.9327-39.7796,19.5984-8.0765,4.1405-16.1736,8.4037-24.0661,12.6567l-1.2677-.869c23.2584-12.5851,47.529-24.8022,72.1471-36.3138l-.1431,1.6664c-2.2492,1.053-4.4881,2.1163-6.7373,3.1795-.0613.0204-.1022.0409-.1533.0716v.0102ZM517.4982,376.6253l.1431-13.679c2.2696-1.0735,4.529-2.1469,6.7986-3.2102h0c.4907-.2249,1.0326-.3885,1.6051-.4907.5929-.092,1.1962-.1227,1.8198-.0818.7259.0511,1.4517.1942,2.1367.4192.7463.2556,1.4313.593,2.014,1.0223l5.8581,4.2427-20.3754,11.7672v.0102ZM560.0381,346.2717c1.2779,1.0223,1.9527,2.2389,1.8914,3.4555-.0307.6339-.2658,1.237-.6748,1.7891h0c.0613-.1942.1022-.3885.1227-.5827h0c.1124-1.3495-.5827-2.7092-1.922-3.7725.1022-.3169.3169-.6441.5827-.8792v-.0102ZM560.355,350.8416h0c0,.1227-.0307.2351-.0716.3578s-.1022.2454-.1738.3783c-.0818.1329-.184.276-.2965.4089-.1227.1431-.276.2863-.4498.4192-.1227.1022-.276.1942-.4294.2863l.368-4.2939c.7463.7565,1.1246,1.6153,1.053,2.4536v-.0102ZM536.0947,328.902l23.1153,16.7461c-.2454.2556-.4498.5521-.6032.869l-23.1051-16.7461c.1022-.3169.3272-.6441.5929-.8792v.0102ZM558.3512,347.5906l-.5009,5.7354-19.0055,10.9698-6.0012-4.345,2.5048-29.0142,22.9926,16.6541h.0102ZM527.3025,327.2254c.6236-.184,1.2984-.2965,2.0038-.3374.8485-.0511,1.7175,0,2.5865.1738.9201.1738,1.7891.4601,2.5968.8485.2658.1227.5112.2658.7463.4089-.2454.2556-.4498.5623-.5929.8792-.2045-.1227-.4192-.2351-.6339-.3374-.7259-.3476-1.5131-.6032-2.331-.7668-.7668-.1431-1.5233-.1942-2.2696-.1534-.6236.0409-1.2268.1329-1.7789.2965-.1227.0307-.2352.092-.3578.1329-.0818-.3374-.2249-.6747-.4192-.9712.1533-.0511.2965-.1227.4601-.1738h-.0103ZM479.2624,350.6167c15.1819-7.7903,30.8647-15.4681,46.6191-22.829.2147.276.3783.6339.4192.9712-15.7544,7.3609-31.4372,15.0387-46.6293,22.829-15.0694,7.7392-30.057,15.7851-44.5642,23.9434-.1022-.3374-.2658-.6543-.4805-.9406,14.5276-8.1686,29.5357-16.2451,44.6255-23.9843l.0102.0102ZM433.0522,375.6234c.2045-.1738.4498-.3476.6952-.501.2454.2658.4089.6236.4601.9508-.2556.1636-.4907.3272-.7054.5112-.869.7463-1.3904,1.6971-1.4824,2.6786h0c-.0205.1942,0,.3885.0307.5827-.2454-.4907-.3885-.9917-.3885-1.4926,0-.9815.4907-1.9527,1.4006-2.7297h-.0102Z"/>
  </g>
  <g id="Layer_3" data-name="Layer 3">
    <path d="M310,449.33c6.06,27.4933,12.1267,54.99,18.2,82.49.4256,1.731,1.2861,3.3246,2.5,4.63,1.3625,1.47,2.9571,2.7064,4.72,3.66l27.23,15.22-47.86,27.67h0c-11.13-8.69-17.92-19.73-19.91-31-1.49-8.49-9.31-50.93-13-71.18-1.2237-6.5911,1.5121-13.2899,7-17.14,3.06-2.1267,6.1333-4.2433,9.22-6.35,3.9333-2.6667,7.8933-5.3333,11.88-8h.02Z"/>
    <path d="M345.46,825.62l-53.57-72.16-15-82.73,30.42-17.56h0c.98,4.48,1.98,8.96,3,13.44,5.87,26.93,22.8,103.29,35.15,159.01Z"/>
  </g>
</svg>