<?xml version="1.0" encoding="UTF-8"?>
<svg xmlns="http://www.w3.org/2000/svg" viewBox="0 0 1000 1000">
  <g id="Layer_2" data-name="Layer 2">
    <path d="M464.2907,464.0098s.0425.0566.0566.0708v.0283c.9064,1.3029,1.7986,2.5775,2.62,3.8238h0c.085.1133.1841.2408.3116.3682.3116.3116.8356.7081,1.5295,1.1471.4107.2691.8781.5523,1.4162.8639.524.2974,1.1047.6231,1.7278.963,1.0055.5382,2.1527,1.1188,3.3848,1.7136,1.6003.7789,3.3281,1.5579,4.9851,2.2518,1.7844.7506,3.4839,1.4304,4.9285,1.9402l1.2463.4249,8.5965,2.79v23.9201c0,.0425.0142.0991.0283.1416,0,.0425.0142.085.0425.1275.0142.0425.0425.0708.0708.1133s.0566.085.0991.1133c0,0,0,.0142.0283.0283.0283.0283.0708.0425.1133.0566.0283.0142.0566.0425.085.0425.085.0283.1699.0566.2549.0566.0991,0,.1983-.0283.2832-.0566.0283,0,.0425-.0283.0566-.0425.0566-.0425.1275-.085.1699-.1275,0,0,.0142,0,.0283-.0142l7.0103-8.554s0-.0283.0142-.0283c0,0,.0142,0,.0142-.0142l7.2228-10.6925,9.3188,3.0307c.5382.1699,1.1188.2691,1.7278.2691,1.3737,0,2.8891-.4532,4.3903-1.3171l1.1188-.6515s.0566-.0425.0708-.0708c.2124-.1275.4249-.2266.6231-.3682h.0142l.9772-.5665.0283-.0283h.0142c.524-.3541,1.0338-.7789,1.5295-1.2463.1699-.1699.2266-.3965.1983-.609.3116-.3541.6373-.7223.9347-1.1047.3399-.2691.6515-.524.9347-.7789.0283-.0283.0425-.0566.0708-.085.0425-.0425.0991-.0708.1275-.1133l1.4446-2.1385c.1416-.2124.1416-.4674.0425-.694l1.0197-1.5154.9772-.8639s.0425-.0566.0708-.085c.0142-.0142.0425-.0283.0425-.0425l1.4445-2.1385c.1416-.2124.1416-.4674.0425-.694l1.0197-1.5154.9772-.8639s.0425-.0566.0708-.085c.0142-.0142.0425-.0283.0425-.0425l1.4445-2.1385c.1416-.2124.1416-.4674.0425-.6798l1.0197-1.5154.9772-.8639s.0425-.0566.0708-.085c.0142-.0142.0425-.0283.0567-.0425l1.4445-2.1385c.1416-.2124.1416-.4674.0425-.694l1.0197-1.5154.9772-.8639s.0425-.0566.0708-.085c.0142-.0142.0425-.0283.0425-.0425l1.4445-2.1385c.1416-.2124.1416-.4674.0425-.6798l1.0197-1.5154.9772-.8639s.0425-.0566.0708-.085c.0142-.0142.0425-.0283.0567-.0425l1.4445-2.1385c.1416-.2124.1416-.4674.0425-.694l1.0197-1.5154.9772-.8639s.0425-.0566.0708-.085c.0142-.0142.0425-.0283.0567-.0425l1.4445-2.1385c.1416-.2124.1416-.4674.0425-.694l1.0197-1.5154.9772-.8639s.0425-.0566.0708-.085c.0142-.0142.0425-.0283.0425-.0425l1.4445-2.1385c.1416-.2124.1416-.4674.0425-.694l1.0197-1.5154.9772-.8639s.0425-.0566.0708-.085c.0142-.0142.0425-.0283.0567-.0425l2.9033-4.2912c.1416-.2124.1416-.4674.0425-.694l1.0055-1.4729.9772-.8639s.0425-.0566.0708-.085c.0142-.0142.0425-.0283.0425-.0425l1.4445-2.1385c.1416-.2124.1416-.4674.0425-.6798l1.0197-1.5154.9772-.8639s.0425-.0566.0708-.085c.0142-.0142.0425-.0283.0567-.0425l1.4445-2.1385c.1416-.2124.1416-.4674.0425-.694l1.0197-1.5154.9772-.8639s.0425-.0566.0708-.085c.0142-.0142.0425-.0283.0567-.0425l1.4445-2.1385c.2124-.3116.1416-.7223-.1558-.9489.2266,0,.439-.1133.5807-.3116.2124-.2974.4107-.609.6373-.963.3257-.2832.6373-.5665.963-.8356.0283-.0283.0567-.0708.085-.0991.0142-.0142.0425-.0283.0567-.0425,1.5862-2.3368,2.8041-4.8435,3.5123-7.2653.4957-1.7136.7506-3.3706.7506-4.9285h0v-169.1543c0-7.7893-1.2321-14.9412-3.668-21.2293-2.3509-6.0615-5.8915-11.3865-10.2818-15.4227-3.7389-3.4414-8.2708-6.1039-13.1001-7.6901-4.6735-1.5295-9.687-2.1385-14.9129-1.8128-5.6224.3682-11.429,1.8269-17.2496,4.3337-6.3022,2.7192-12.5478,6.6279-18.5668,11.6272-5.934,4.9285-11.4998,10.7917-16.5416,17.4338-4.9285,6.4722-9.2196,13.4967-12.7744,20.8752-3.5689,7.4352-6.3022,15.0262-8.1008,22.5747-1.657,6.9254-2.4926,13.6808-2.4926,20.0821v178.0907c0,.2549.085.5098.2549.7931l.0569.0142ZM486.1998,476.0194l-.4674-.1558c-1.4162-.5098-3.1015-1.1613-4.8577-1.9119-1.6428-.694-3.3423-1.4729-4.9285-2.2235-1.218-.5807-2.3368-1.1471-3.3281-1.6853-.609-.3257-1.1755-.6373-1.6853-.9347s-.9489-.5665-1.3454-.8214c-.7648-.4957-1.133-.8073-1.3029-.9772-.085-.085-.1133-.1275-.1275-.1416h0c-.0425-.0566-.085-.1275-.1275-.1841.1699.0991.3116.1983.4957.2974.8497.4815,1.7986.9914,2.8041,1.5012,1.5295.7648,3.2715,1.572,5.1834,2.3793,2.0677.8781,4.2912,1.7561,6.5996,2.62,1.6145.5948,3.1582,1.133,4.5461,1.5862l-1.4587.6515h0ZM486.9362,476.2602l-.2408-.085,1.1755-.524s-.0991.085-.1558.1275c-.0708.0708-.0708.1699,0,.2549.0283.0425.085.0566.1275.0566h0s.1275.0566.1841.085l-.5807.2408-.5098-.1699v.0142ZM502.104,495.4784l-5.5941,6.8262v-21.4558l5.5941,1.8128v12.8168ZM503.5202,493.4248v-10.2818l5.6932,1.8553-5.6932,8.4266ZM521.6055,486.8252s0,.0283-.0142.0425c0,0-.0283.0142-.0283.0425v.1275l-.5382.2266c-.2124-.0283-.439-.0425-.6515-.1133l-32.4175-10.5226.5665-.2408,1.4162.4532h.0566c.0425,0,.085-.0142.1133-.0425l.963-.8639,1.048.3399-.8214.7223s0,.0283-.0142.0425c0,0-.0283.0142-.0283.0425v.0991c0,.0283,0,.0425.0283.0566v.0283s.0283,0,.0425.0142c.0142,0,.0283.0283.0425.0283l2.1668.7081h.0566c.0425,0,.085-.0142.1133-.0425l.963-.8639,1.048.3399-.8214.7223s0,.0283-.0142.0425c0,0-.0283.0142-.0283.0425v.0991c0,.0283,0,.0425.0283.0566v.0283s.0283,0,.0425.0142c.0142,0,.0283.0283.0425.0283l2.1668.7081h.0566c.0425,0,.085-.0142.1133-.0425l.963-.8639,1.048.3399-.8214.7223s0,.0283-.0142.0425c0,0-.0283.0142-.0283.0425v.0991c0,.0283,0,.0425.0283.0566v.0283s.0283,0,.0425.0142c.0142,0,.0283.0283.0425.0283l1.5437.4957h.0566c.0283,0,.0425,0,.0708-.0142l1.5862-.7081,2.5492.8214-.8214.7223s0,.0283-.0142.0425c0,0-.0283.0142-.0283.0425v.0991c0,.0283,0,.0425.0283.0566v.0283s.0283,0,.0425.0142c.0142,0,.0283.0283.0425.0283l2.1668.7081h.0566c.0425,0,.085-.0142.1133-.0425l.963-.8639,1.048.3399-.8214.7223s0,.0283-.0142.0425c0,.0142-.0283.0283-.0283.0425v.0991c0,.0283,0,.0425.0283.0566v.0283s.0283,0,.0425.0142c.0142,0,.0283.0283.0425.0283l2.1668.7081h.0566c.0425,0,.085-.0142.1133-.0425l.963-.8639,1.048.3399-.8073.7223s0,.0283-.0142.0425c0,0-.0283.0142-.0283.0425v.0991c0,.0283,0,.0425.0283.0566v.0283s.0283,0,.0425.0142c.0142,0,.0283.0283.0425.0283l2.1668.7081h.0566c.0425,0,.085-.0142.1133-.0425l.963-.8639,1.048.3399-.8214.7223s0,.0283-.0142.0425c0,.0142-.0283.0283-.0283.0425v.0991c0,.0283,0,.0425.0283.0566v.0283s.0283,0,.0425.0142c.0142,0,.0283.0283.0425.0283l2.1668.7081h.0566c.0425,0,.085-.0142.1133-.0425l.963-.8639,1.048.3399-.8214.7223s0,.0283-.0142.0425c0,0-.0283.0142-.0283.0425v.0991c0,.0283,0,.0425.0283.0566v.0283s.0283,0,.0425.0142c.0142,0,.0283.0283.0425.0283l2.1668.7081h.0566c.0425,0,.085-.0142.1133-.0425l.963-.8639,1.048.3399-.8073.7223.0426-.0284ZM490.8733,289.7571v185.8799l-.694.609v-186.8854l.694.3965ZM490.1794,288.9498c.0283-12.8452,4.362-27.404,12.2221-41.0281,14.5588-25.223,37.2751-40.1076,53.5051-36.1988-6.8121-1.2746-14.7854.5382-23.127,5.3533-23.0279,13.2984-41.7646,45.6592-41.9062,72.2843l-.694-.3965v-.0142ZM494.4705,287.6752v189.1373l-.694.609v-190.1428l.694.3965ZM493.7907,286.868c.0283-11.7264,3.9796-25.0389,11.174-37.4734,7.2086-12.477,16.7823-22.5888,26.9508-28.4662,8.0442-4.6452,15.6918-6.1889,22.0932-4.5886-6.2456-1.1896-13.5674.4674-21.2151,4.886-21.031,12.1371-38.1532,41.7079-38.2948,66.0387l-.694-.3965h-.0142ZM498.0819,285.5934v192.3804l-.694.609v-193.3859l.694.3965ZM497.3879,284.7861c.0283-10.6217,3.6114-22.6596,10.1119-33.9187,12.1088-20.9743,31.0295-33.3097,44.4554-29.8966-5.6507-1.0622-12.2645.439-19.1899,4.4328-19.0483,10.9899-34.556,37.7566-34.6976,59.7932l-.694-.3965.0142-.0142ZM499.8663,478.5544v-.0283h0v-193.8675c0-2.0535.1416-4.1495.4107-6.2881-.1699,1.6287-.2832,3.229-.2832,4.7869v196.5441l-1.0055-.3257.8214-.7223h0c.0142-.0142.0142-.0425.0283-.0566,0,0,.0142,0,.0142-.0142v-.0283h.0142ZM501.665,283.5823v195.5386l-1.3029.5807v-196.3317l1.3029.1983v.0142ZM500.3762,283.0158c.0566-14.9695,8.1858-33.2672,20.2804-45.5884,9.5312-9.7153,20.2945-14.5163,28.7636-12.8452,3.838.7506,7.0103,2.8041,9.3612,5.9765-1.133-1.2746-2.4217-2.3509-3.8805-3.2007-5.9198-3.4131-13.7657-2.6483-22.1215,2.1668-17.0939,9.8711-31.0154,33.9187-31.1145,53.6892l-1.2888-.1983h0ZM506.7351,280.6083v200.1839l-.694.609v-201.2035l.694.3965v.0142ZM506.0411,279.801c.0283-7.945,2.705-16.9664,7.5768-25.393,9.1488-15.8334,23.4669-25.0956,33.5363-22.3481-4.2345-.7789-9.1913.3399-14.3747,3.3281-14.2756,8.2424-25.8886,28.2821-26.0303,44.8095l-.694-.4107-.0142.0142ZM510.3323,278.5264v203.4412l-.694.609v-204.4608l.694.3965v.0142ZM509.6525,277.7191c.0283-6.8404,2.3368-14.5871,6.5147-21.8382,4.2062-7.2794,9.8003-13.1851,15.7343-16.6265,4.7727-2.7475,9.2905-3.6114,13.0435-2.5917-3.6114-.5948-7.7893.3682-12.1796,2.8891-12.2928,7.0953-22.2914,24.3308-22.433,38.5639l-.694-.4107.0142.0142ZM513.9437,276.4445v206.6985l-.694.609v-207.7182l.694.3965v.0142ZM513.2497,275.6373c.0283-5.7216,1.9544-12.2221,5.4666-18.2835,6.6138-11.4431,16.9523-18.1136,24.2175-16.0742-3.0166-.4815-6.5005.3257-10.1544,2.4359-10.296,5.9482-18.6801,20.3937-18.8217,32.3183l-.694-.4107-.0142.0142ZM517.5409,274.3627v209.9417l-.694.609v-210.9613l.694.3965v.0142ZM516.8611,273.5554c.0283-4.6169,1.5862-9.8428,4.4045-14.7288,5.3817-9.3188,13.8366-14.7146,19.6856-12.916-2.4359-.3682-5.2401.2832-8.1716,1.9827-8.3133,4.801-15.0828,16.4424-15.2103,26.0869l-.694-.4107-.0142-.0142ZM521.1523,272.2808v213.199l-.694.609v-214.2186l.694.3965v.0142ZM520.4725,271.4736c.0283-3.4556,1.2321-7.5202,3.3565-11.1882,4.1495-7.1944,10.7067-11.3157,15.1395-9.772-1.8411-.2549-3.9654.2408-6.1889,1.5295-6.3305,3.6539-11.4715,12.4911-11.6131,19.8414l-.694-.4107h0ZM521.8037,487.2926l.1841-.0708s.1275.0283.1983.0425c-.1275,0-.2549.0283-.3682.0283h-.0142ZM524.7636,486.3862c-.1416.0991-.2974.1983-.439.2974-.085.0425-.1699.085-.2549.1133v-216.9945l.694.3965v216.2014-.0142ZM524.0697,269.3917c.0283-2.3651.8497-5.1267,2.2943-7.6335,1.487-2.5634,3.4556-4.6452,5.5375-5.849,1.8411-1.0622,3.5689-1.3313,4.9568-.7789-1.2321-.1133-2.6342.2408-4.0787,1.0763-4.3337,2.5067-7.8742,8.5399-8.0017,13.5958l-.694-.3965-.0142-.0142ZM528.3608,484.3751s-.1416.1133-.1983.1558l-.4815.2832v-217.0936l.694.3965v216.2722l-.0142-.0142ZM527.6811,267.3099c.0283-1.2604.4674-2.7475,1.2321-4.0787,1.6428-2.8325,4.277-4.3903,5.8774-3.4698h.0142c-.6231,0-1.3171.1841-2.0252.5948-2.3509,1.3596-4.2628,4.6027-4.3903,7.3502l-.7081-.4107v.0142ZM531.9722,480.3672l-.3682.5382h0c-.0991.085-.2124.1841-.3116.2691v-215.5358l.694.3965v214.332h-.0142ZM531.2925,265.228c.0142-.1699.0708-.3541.1699-.524.1133-.2124.2832-.3824.439-.4674.1275-.0708.2549-.0991.3399-.0567l.5807.3399h-.0425c-.3682.2124-.6656.6798-.7648,1.1188l-.7223-.4107h0ZM533.4168,477.6056l-.4107.609c-.1416.2124-.1416.4674-.0425.6798l-.6373.9347v-213.8929c0-.3965.2832-.8922.6373-1.0905.1275-.0708.2549-.0991.3399-.0567.085.0425.1275.1558.1275.3116v212.5192l-.0142-.0142ZM534.5215,476.1752l-.2974.2549s-.0425.0566-.0566.0708c-.0142.0283-.0425.0283-.0566.0566l-.3541.524v-211.981c0-.2832-.0991-.5098-.2974-.609h0l-1.048-.609c-.1983-.1133-.439-.0991-.694.0567-.2124.1275-.4249.3399-.5807.609-.1558.2549-.2408.5523-.2408.7931v216.1447c-.085.0708-.1699.1416-.2691.2266-.0283.0142-.0425.0425-.0566.0708-.0283.0283-.0425.0283-.0708.0566-.1133.1558-.2549.2974-.3824.4532v-215.1109c0-1.7844,1.2604-3.9513,2.79-4.8435.4532-.2549.8781-.3682,1.2604-.3541.1983.3257.3257.7506.3257,1.2604v212.9299h.0284ZM534.6347,262.0698s.1275.0425.1841.0708c.4249.2408.6656.7364.7223,1.3879l-.6798-.3965c0-.4107-.0991-.7648-.2408-1.0622h.0142ZM535.5694,475.0281l-.3541.524-.3399.2974v-212.2926l.6939.3965v211.0746h0ZM537.014,472.2806l-.4107.609c-.1416.2124-.1416.4674-.0425.694l-.6373.9347v-210.6639c0-.9489-.3257-1.6711-.9347-2.0252-.1841-.1133-.3965-.1558-.6231-.1841h-.085c-.4674-.0283-.9772.085-1.5154.3965-1.6428.9489-2.9741,3.2573-2.9741,5.1551v215.5074c-.1133.1275-.2266.2832-.3399.4107-.1416.1558-.1983.3399-.1841.5382-.1841.1699-.3682.3257-.5665.4815v-216.1305c0-2.6908,1.8977-5.9906,4.2345-7.3361,1.1047-.6373,2.1243-.7364,2.8891-.2974s1.1755,1.3737,1.1755,2.6483v209.2619h.0142ZM538.1328,470.836l-.2974.2549s-.0425.0566-.0567.0708c-.0142.0283-.0425.0283-.0567.0566l-.3541.524v-208.7237c0-1.4021-.4815-2.4501-1.3596-2.9458h0l-1.048-.609c-1.7703-1.0197-4.6169.5948-6.3589,3.5972-.8356,1.4446-1.2888,2.9882-1.2888,4.3478v217.6176l-.1841.0991-.0142.0142h-.0283c-.1841.1275-.3682.2124-.5382.3257v-216.2014c0-4.0787,2.8749-9.0497,6.4014-11.0891,1.4446-.8356,2.8041-1.0338,3.8946-.6373.8214.7648,1.2746,2.0535,1.2746,3.6397v209.6726l.0142-.0142ZM537.6797,257.9769c.8922.694,1.4021,1.8836,1.4729,3.4556l-.6656-.3824c-.0142-1.218-.2974-2.2801-.7931-3.0732h-.0142ZM539.1809,469.703l-.3541.524-.3399.2974v-209.0494l.6939.3965v207.8315ZM540.6254,466.9414l-.4107.609c-.1416.2124-.1416.4674-.0425.6798l-.6373.9347v-207.3924c0-2.0677-.7081-3.6114-1.9827-4.3478s-2.9741-.5807-4.7727.4532c-3.6255,2.096-6.5713,7.2086-6.5713,11.3865v216.428c-.3682.1983-.7364.3682-1.0905.4957v-216.0881h0c0-4.9993,3.5122-11.0891,7.8459-13.5816,2.0677-1.1896,3.9938-1.3879,5.4242-.5523s2.2376,2.6059,2.2376,4.9851v206.0045-.0142ZM541.7442,465.4968l-.2974.2549s-.0425.0566-.0567.0708c-.0142.0283-.0425.0283-.0567.0566l-.3541.524v-205.4663c0-2.5067-.8497-4.3903-2.4076-5.2825l-1.048-.609c-1.5579-.8922-3.6114-.694-5.7782.5523-2.1385,1.2321-4.1637,3.3706-5.6791,5.9906-1.5154,2.62-2.3509,5.4242-2.3509,7.9026v217.4335c-.1133.0425-.2408.0708-.3541.0991-.4532,0-.8781-.0425-1.2746-.1558l.8073-.7223h0c.0142-.0142.0142-.0425.0283-.0566,0,0,.0142,0,.0142-.0142v-.0567h0v-214.6719c0-6.373,4.4894-14.1481,10.0127-17.3346,2.4076-1.3879,4.6594-1.7136,6.4438-.9489,1.5154,1.1755,2.3368,3.314,2.3368,6.019v206.4152h.0142ZM540.5687,253.7707c1.3737,1.1471,2.1385,3.1015,2.1951,5.6083l-.6798-.3965c-.0142-2.1385-.5523-3.9371-1.5154-5.2117h0ZM542.778,464.3639l-.3541.5382-.3257.2974v-205.8063l.6939.3965v204.5741h-.0141ZM544.2226,461.6164l-.4107.609c-.1416.2124-.1416.4674-.0425.6798l-.6373.9347v-204.1493c0-3.1724-1.0763-5.5516-3.0449-6.6846-.1558-.0991-.3257-.1558-.4957-.2408,0,0-.0142,0-.0283-.0142h-.0425c-1.8836-.7931-4.2487-.4674-6.7412.9772-5.6083,3.2432-10.1827,11.1599-10.1827,17.632v214.4452l-1.0905-.3541v-213.2839c0-7.2936,5.1409-16.1875,11.4431-19.8272,3.0166-1.742,5.849-2.0252,7.9733-.8072h0c2.1243,1.218,3.2857,3.8238,3.2857,7.3077v202.7614l.0142.0142ZM545.3415,460.1718l-.2974.2549s-.0425.0566-.0567.0708c-.0142.0283-.0425.0283-.0567.0566l-.3541.524v-202.2232c0-3.6255-1.2321-6.3305-3.4698-7.6193h0l-1.0339-.5948h0c-4.5886-2.6483-12.0096,1.6145-16.5557,9.4887-2.1952,3.7955-3.3989,7.8742-3.3989,11.4573v214.6719l-1.6428-.5382.8214-.7223h0c.0142-.0142.0142-.0425.0283-.0566,0,0,.0142,0,.0142-.0142v-.0567h0v-211.4429c0-8.6673,6.1039-19.2465,13.61-23.5802,3.3848-1.9544,6.5571-2.3509,9.0355-1.1896,2.1668,1.5862,3.3565,4.5319,3.3565,8.3416v203.1721h0ZM543.6137,249.7486c1.742,1.6003,2.705,4.2062,2.7617,7.5343l-.6798-.3965c-.0142-2.9599-.7506-5.41-2.0819-7.1378ZM546.3894,459.0247l-.3541.524-.3399.2974v-202.5348l.6939.3965v201.3168h0ZM547.834,456.2772l-.4107.609c-.1416.2124-.1416.4674-.0425.6798l-.6373.9347v-200.8919c0-4.2912-1.4587-7.4918-4.1071-9.0214-.1416-.085-.3116-.1416-.4673-.2124-.0283-.0142-.0425-.0425-.0567-.0567-.0283-.0142-.0567-.0142-.0991-.0283-2.5634-1.1613-5.8065-.7364-9.248,1.2463-7.6051,4.3903-13.7941,15.097-13.7941,23.8776v211.1879l-1.0905-.3541v-209.9983c0-9.5879,6.7554-21.2859,15.0545-26.0728,3.9938-2.3085,7.7326-2.6767,10.5367-1.0622s4.3478,5.0418,4.3478,9.6445v199.5041l.0142.0142ZM548.9528,454.8326l-.2974.2549s-.0283.0566-.0567.0708c-.0142.0283-.0425.0283-.0567.0566l-.3541.524v-198.9659h0c0-4.7302-1.6003-8.2708-4.5178-9.9561l-1.048-.609c-5.9907-3.4556-15.706,2.1102-21.6541,12.4345-2.8749,4.9851-4.4611,10.3101-4.4611,15.012v211.4145l-1.6428-.5382.8214-.7223h0c.0142-.0142.0142-.0425.0283-.0566,0,0,.0142,0,.0142-.0142v-.0567h0v-208.1714c0-10.9616,7.7184-24.345,17.2213-29.8258,4.362-2.5209,8.4549-3.0024,11.6131-1.4162,2.8183,1.9827,4.3761,5.764,4.3761,10.65v199.9148h.0141ZM546.6444,245.7549c2.1102,2.0677,3.2715,5.325,3.3281,9.4604l-.6798-.3965c-.0142-3.7672-.9347-6.8829-2.6483-9.0639ZM549.9867,453.6996l-.3541.5382-.3257.2974v-199.3058l.6939.3965v198.0737h-.0141ZM551.4312,450.938l-.4107.609c-.1416.2124-.1416.4674-.0425.6798l-.6373.9347v-197.6346c0-5.41-1.8269-9.4321-5.1551-11.3582-.1416-.085-.2833-.1275-.4249-.1983-.0283-.0283-.0567-.0567-.085-.0708-.0283-.0283-.0708-.0283-.1133-.0283-3.2432-1.5295-7.3785-1.0197-11.7689,1.5154-9.5879,5.5375-17.3913,19.0483-17.3913,30.1232v207.9306l-1.0905-.3541v-206.7552c0-11.8822,8.3699-26.3702,18.6517-32.3183,4.9568-2.8608,9.602-3.3281,13.0859-1.3171,3.4839,2.011,5.3958,6.2739,5.3958,11.9813v196.2467l-.0141.0142ZM552.55,449.5076l-.2974.2549s-.0425.0566-.0567.0708c-.0142.0283-.0425.0283-.0567.0566l-.3541.524v-195.7227c0-5.849-1.9827-10.211-5.5799-12.2929h0l-1.048-.609c-7.3927-4.2628-19.4023,2.62-26.7525,15.3661-3.5547,6.1606-5.5091,12.7461-5.5091,18.5668v208.1714l-1.6428-.5382.8073-.7223h0c.0142-.0142.0142-.0425.0283-.0566,0,0,.0142,0,.0142-.0142v-.0567h0v-204.9141c0-13.2559,9.3471-29.4292,20.8185-36.0572,5.3392-3.0732,10.3385-3.6397,14.1764-1.6711,3.4839,2.3934,5.41,6.982,5.41,12.9868v196.6574h.0425ZM549.6609,241.7186c2.4926,2.5209,3.8663,6.4438,3.9229,11.4148l-.6798-.3965c-.0142-4.5886-1.1471-8.3841-3.2432-11.0183h0ZM553.598,448.3605l-.3541.5382-.3257.2974v-196.0485l.6939.3965v194.8163h-.0141ZM555.0426,445.613l-.4107.609c-.1416.2124-.1416.4674-.0425.6798l-.6373.9347v-194.3915c0-6.5146-2.2093-11.3723-6.2173-13.6949-.1275-.0708-.2833-.1275-.4107-.1983-.0425-.0283-.0708-.0567-.1133-.085s-.085-.0283-.1275-.0283c-3.9229-1.9119-8.9647-1.3171-14.3181,1.7703-11.5848,6.6846-21.0027,22.9995-21.0027,36.3687v204.6874l-1.0905-.3541v-203.4978c0-14.1764,9.9844-31.4686,22.2631-38.5639,5.9198-3.4131,11.4714-3.9654,15.6351-1.572,4.1637,2.4076,6.458,7.4918,6.458,14.3181v193.0036l.0142.0142ZM556.1614,444.1684l-.2974.2549s-.0425.0566-.0567.0708c-.0142.0283-.0425.0283-.0567.0566l-.3541.524v-192.4654c0-6.9537-2.3509-12.1512-6.6279-14.6296h0l-1.048-.609c-4.277-2.4642-9.9561-1.9119-15.9892,1.572-5.9906,3.4556-11.6272,9.4179-15.8759,16.754-4.2345,7.3361-6.5713,15.1961-6.5713,22.1215v204.9141l-1.6428-.5382.8214-.7223h0c.0142-.0142.0142-.0425.0283-.0566,0,0,.0142,0,.0142-.0142v-.0567h0v-201.6709c0-15.5502,10.9616-34.5276,24.4299-42.3027,6.3022-3.6397,12.2221-4.2912,16.754-1.9119,4.1637,2.79,6.458,8.2,6.458,15.3094v193.4143l.0142-.0142ZM552.6633,237.6824c2.8749,2.9741,4.4753,7.5768,4.5319,13.355l-.6798-.3965c-.0142-5.4242-1.3596-9.8853-3.838-12.9726l-.0142.0142ZM557.2094,443.0213l-.3541.524-.3399.2974v-192.777l.6939.3965v191.559ZM558.6398,440.2738l-.4107.609c-.1416.2124-.1416.4674-.0425.694l-.6373.9347v-191.1483c0-7.6335-2.5775-13.3125-7.2653-16.0175-.1275-.0708-.2691-.1133-.3965-.1841-.0425-.0283-.085-.0708-.1275-.0991s-.085-.0283-.1275-.0283c-4.6027-2.3085-10.5509-1.6145-16.8531,2.0252-13.5675,7.8317-24.5999,26.9508-24.5999,42.6143v201.4301l-1.0905-.3541v-200.2546c0-16.4707,11.5989-36.567,25.8745-44.8095,6.8687-3.9654,13.3267-4.6169,18.1702-1.8269h0c4.8435,2.8041,7.506,8.7098,7.506,16.6548v189.7604ZM559.7586,438.8292l-.2974.2549s-.0283.0566-.0567.0708c-.0142.0283-.0425.0283-.0567.0566l-.3541.524v-189.208c0-8.0725-2.7333-14.0915-7.6901-16.9523l-1.048-.609c-10.211-5.8915-26.7809,3.6539-36.9494,21.2576-4.9143,8.5257-7.6193,17.632-7.6193,25.6762v201.6567l-1.6428-.5382.8214-.7223h0c.0142-.0142.0142-.0425.0283-.0566,0,0,.0142,0,.0142-.0142v-.0567h0v-198.4136c0-17.8445,12.5761-39.6261,28.0271-48.5483,7.2228-4.1779,14.0206-4.9426,19.2324-2.2235,4.886,3.1582,7.5768,9.4462,7.5768,17.7029v190.157l.0142-.0142ZM555.6657,233.6461c3.2715,3.4273,5.0701,8.6956,5.1267,15.3236l-.6798-.3965c-.0142-6.2456-1.572-11.3865-4.447-14.927h0ZM560.8066,437.6963l-.3541.5382-.3257.2974v-189.548l.6939.3965v188.3159h-.0141ZM563.7099,432.782l-.4107.609c-.1416.2124-.1416.4674-.0425.694l-2.096,3.1015v-187.9052c0-8.7381-2.9599-15.2528-8.3274-18.3543-.1558-.085-.3116-.1699-.4673-.2408-.0142,0-.0283-.0283-.0567-.0425h-.0425c-5.2967-2.7475-12.1937-1.9544-19.5015,2.266-15.5502,8.9789-28.2113,30.9021-28.2113,48.8599v198.1728l-2.5492-.8214v-195.6944c0-19.6997,13.879-43.7331,30.9304-53.5759,8.2283-4.7585,15.9609-5.5233,21.7674-2.1668,2.8749,1.657,5.1126,4.2487,6.6421,7.5768l.3399.8214h0c1.3171,3.229,2.0111,7.1095,2.0111,11.5281v185.1718h.0142ZM564.8146,431.3657l-.2974.2549s-.0283.0425-.0567.0708c-.0142.0283-.0425.0283-.0567.0566l-.3399.4957v-184.6478c0-4.8577-.8356-9.0922-2.4076-12.5336l-.1275-.3257c-2.3651-5.8065-6.543-9.4321-12.0379-10.5226-6.3589-1.2463-13.964,1.0905-21.3992,6.3589,1.5862-1.1896,3.2148-2.2801,4.8718-3.229,8.5965-4.971,16.6832-5.849,22.8296-2.5492,5.8207,3.7247,9.0214,11.1599,9.0214,20.946v185.625ZM559.3904,227.4431c4.1354,4.0363,6.4013,10.4801,6.458,18.6092l-.6939-.3965c-.0142-7.7609-2.0394-14.0348-5.7641-18.2127ZM565.8626,430.2328l-.3541.524-.3399.2974v-184.9877l.6939.3965v183.7698ZM567.293,427.4711l-.4107.609c-.1416.2124-.1416.4674-.0425.6798l-.6373.9347v-183.3307c0-10.296-3.4839-17.9719-9.8003-21.6258-.1416-.085-.2974-.1558-.439-.2266-.0283-.0142-.0567-.0425-.085-.0567h-.0425c-6.2456-3.2856-14.4031-2.3793-23.0704,2.62-18.3401,10.5934-33.253,36.4254-33.253,57.598v193.6267l-1.0905-.3541v-192.4512c0-21.9799,15.4794-48.8032,34.5276-59.7932,9.1913-5.3109,17.8161-6.1606,24.3025-2.4217,6.4863,3.7388,10.0411,11.6414,10.0411,22.2489v181.9428h0ZM568.4118,426.0266l-.2974.2549s-.0425.0566-.0567.0708c-.0142.0283-.0425.0283-.0567.0566l-.3541.524v-181.4046c0-10.735-3.6255-18.7509-10.2252-22.5605l-1.048-.609c-13.5816-7.8317-35.6465,4.8718-49.1856,28.3246-6.5571,11.344-10.1544,23.4952-10.1544,34.2019v193.8533l-1.6428-.5382.8214-.7223h0c.0142-.0142.0142-.0425.0283-.0566,0,0,.0142,0,.0142-.0142v-.0567h0v-190.6101c0-23.3536,16.4566-51.8623,36.6803-63.532,9.5596-5.5233,18.5526-6.5005,25.393-2.8041,6.4863,4.1212,10.0694,12.3778,10.0694,23.2686v182.3535h.0142ZM562.3078,223.3077c4.5886,4.4753,7.0811,11.6414,7.1378,20.6628l-.6939-.3965c-.0142-8.6532-2.2801-15.6352-6.458-20.2662h.0141ZM569.4598,424.8936l-.3541.5382-.3257.2974v-181.7446l.6939.3965v180.5124h-.0141ZM570.9044,422.1461l-.4107.609c-.1416.2124-.1416.4674-.0425.6798l-.6373.9347v-180.0875c0-11.4148-3.8521-19.9122-10.8625-23.9626-.1416-.085-.2833-.1416-.4249-.2266-.0283-.0283-.0708-.0425-.0991-.0708h-.0425c-6.9395-3.6822-15.9892-2.6767-25.6054,2.8749-20.3229,11.7405-36.8644,40.3767-36.8644,63.8436v190.3694l-1.0905-.3541v-189.1798c0-24.2741,17.108-53.9016,38.1249-66.0387,10.1544-5.8632,19.6856-6.8121,26.8517-2.6767s11.1032,12.8594,11.1032,24.5857v178.6997ZM572.0232,420.7015l-.2974.2549s-.0425.0566-.0567.0708c-.0142.0283-.0425.0283-.0567.0566l-.3541.524v-178.1615c0-11.8538-4.0079-20.6911-11.2873-24.8973l-1.048-.609c-7.2794-4.192-16.9381-3.2573-27.2057,2.6767-10.2393,5.9057-19.8555,16.06-27.0925,28.5936s-11.2165,25.9311-11.2165,37.7566v190.596l-1.6428-.5382.8214-.7223h0c.0142-.0142.0142-.0425.0283-.0566,0,0,.0142,0,.0142-.0142v-.0567h0v-187.3528c0-25.6479,18.0711-56.9607,40.2917-69.7776,10.5367-6.0898,20.4362-7.152,27.9705-3.0449,7.1519,4.5178,11.1032,13.5958,11.1032,25.5912v179.0962l.0284.0142ZM565.2394,219.1864c5.0276,4.9285,7.7609,12.7885,7.8176,22.7021l-.6939-.3965c-.0142-9.5312-2.5209-17.2355-7.1378-22.3056h.0142ZM573.0712,419.5544l-.3541.5382-.3257.2974v-178.4872l.6939.3965v177.2551h-.0141ZM574.5157,416.8211c-.1275.2266-.1275.4957,0,.7081v.2266c-.1558.0425-.3116.1275-.4107.2832l-.6798,1.0055v-176.8444c0-12.5195-4.2345-21.8524-11.9105-26.2994-.1275-.0708-.2691-.1416-.4107-.2124-.0425-.0283-.085-.0567-.1133-.085h-.0567c-7.6193-4.0646-17.5754-2.9741-28.1546,3.1299-22.3056,12.8877-40.4616,44.3279-40.4616,70.0891v187.112l-1.0905-.3541v-185.9224c0-26.5684,18.7225-59.0001,41.7362-72.2843,11.1032-6.4155,21.5408-7.4494,29.3868-2.9316h0c7.8459,4.5319,12.1654,14.0915,12.1654,26.9225v175.4565h0ZM575.6204,415.3482c-.0991.085-.1983.1699-.2974.2549-.085.0708-.1416.1558-.1699.2549h-.0142c-.0991.1275-.1841.2691-.2833.4107v-174.9041c0-12.9585-4.3761-22.6313-12.3353-27.2199h0l-1.048-.609c-16.3858-9.4604-43.025,5.8915-59.3824,34.2161-7.9167,13.7091-12.2787,28.3812-12.2787,41.3114v187.3528l-1.2463-.4107h0c-.1416-.0425-.2691-.085-.3965-.1416.0708-.0566.1275-.1133.1983-.1699.0283-.0283.0566-.0425.0708-.0708.0708.0283.1558.0425.2266.0708s.1416.0283.2124.0283c.2974,0,.5807-.1983.6798-.4957.1133-.3682-.085-.7648-.4674-.8922h-.0425v-183.4298c0-27.9422,19.6856-62.0591,43.8889-76.0231,11.4998-6.6421,22.3056-7.7893,30.5197-3.2998,7.8317,4.9143,12.1512,14.8279,12.1512,27.928v175.8389h.0142ZM568.1569,215.0511c5.4808,5.3817,8.4549,13.9498,8.5115,24.7557l-.6939-.3965c-.0142-10.4234-2.7617-18.8358-7.8176-24.3591h0ZM576.6684,414.1869c-.1275.1983-.2408.3965-.3682.5807-.1133.0991-.2124.1841-.3257.2832v-175.2299l.6939.3965v173.9695ZM580.2798,403.4094h0c0,1.4304-.2408,2.9599-.6939,4.5461-.5523,1.8694-1.4304,3.7955-2.5634,5.6508v-173.3888c1.4729-.8639,2.5634-1.8836,3.2573-2.9882v166.1944-.0142ZM465.4378,285.126c0-6.3022.8214-12.9443,2.4501-19.7564,1.7703-7.4494,4.4611-14.9554,8.0017-22.2914,3.5122-7.3077,7.7609-14.2473,12.6186-20.6344,4.9851-6.5571,10.4801-12.3353,16.3291-17.193,5.9057-4.9143,12.0379-8.7523,18.2127-11.4148,5.6791-2.4501,11.3298-3.8663,16.7823-4.2204,5.0418-.3257,9.8853.2549,14.3747,1.742,4.6311,1.5295,8.9931,4.0787,12.5761,7.3927,4.2204,3.8805,7.6476,9.0355,9.9136,14.8987,2.3651,6.1323,3.5689,13.1001,3.5689,20.7194v2.1668c-.5948,1.218-1.7136,2.3368-3.2715,3.2856-.0708-13.4683-4.6594-23.5235-12.9585-28.3104-.1275-.0708-.2691-.1416-.4107-.2124-.0425-.0283-.0708-.0567-.1133-.085h-.0567c-8.2991-4.4611-19.1616-3.2856-30.7038,3.3848-24.2741,14.0065-44.0164,48.1801-44.073,76.2214-2.6059,1.4729-6.1748,2.3226-9.8286,2.3226-6.4014,0-11.783-2.4784-13.44-5.8349v-2.1527l.0283-.0283ZM465.4378,287.9868c2.011,3.2007,7.2653,5.4808,13.44,5.4808,3.6964,0,7.1661-.8072,9.8286-2.2801v183.0191c-1.5295-.4957-3.2715-1.0905-5.0984-1.7703-2.2943-.8497-4.4894-1.7136-6.543-2.5917-1.8836-.8073-3.5972-1.5862-5.0984-2.3509-.9914-.4957-1.9119-.9914-2.7333-1.4587-.8073-.4674-1.5154-.9205-2.096-1.3313-1.0055-.7081-1.4021-1.1471-1.6003-1.3879,0,0,0-.0142-.0142-.0283h0c-.0283-.0283-.0566-.0708-.0708-.0991h0v-175.2157l-.0142.0142ZM765.4233,402.8712c-4.3903-2.535-8.5399-2.9174-11.7122-1.0905l-202.8463,117.1079c-1.3454-.9064-2.6908-1.7136-4.0504-2.3793-2.9033-1.4304-5.7782-2.2801-8.5115-2.5209-2.4359-.2124-4.6877.085-6.7696.8214-.1841.0566-.3682.1275-.5382.1841-.0991.0425-.1983.0566-.2974.0991-.0991.0425-.1699.085-.2691.1275-.4249.1841-.8356.3824-1.2321.6231l-122.2913,70.599c-1.0905.6231-2.096,1.4021-2.9882,2.3085-.8781.8922-1.6711,1.926-2.3509,3.0732-.6656,1.1188-1.218,2.3509-1.657,3.668-.439,1.2888-.7648,2.6767-.9772,4.1354-.2124,1.4304-.3257,2.9457-.3257,4.5036v2.6483l-221.7106,128.027h0c-3.1724,1.8269-4.9143,5.6224-4.9143,10.6925h0v40.6033h0c0,10.1402,7.1378,22.5039,15.9184,27.574,2.5634,1.487,5.0559,2.2235,7.3077,2.2235,1.6003,0,3.0874-.3824,4.4045-1.133h0l240.6596-138.9462v117.2354c0,.9772.524,1.8836,1.3737,2.3793h0l17.887,10.3243c2.0677,1.1896,4.4186,2.181,6.9962,2.9457,2.5492.7506,5.2542,1.2605,8.0442,1.5154,1.4021.1275,2.8041.1841,4.2062.1841s2.8041-.0567,4.2062-.1841c2.8041-.2549,5.5091-.7648,8.0442-1.5154,2.5775-.7648,4.9285-1.742,6.9962-2.9457h0l86.5174-49.9503h0c1.048-.609,2.0252-1.2605,2.9033-1.9686.8922-.7081,1.7136-1.487,2.4217-2.2943.7223-.8214,1.3454-1.6995,1.8553-2.5917.524-.9205.9205-1.8836,1.1755-2.8466.2691-.9914.4107-1.9969.4107-3.0166v-121.5549c0-1.0055-.1416-2.0252-.4107-3.0166-.2691-.963-.6656-1.926-1.1755-2.8466-.5098-.8922-1.1188-1.7703-1.8553-2.5917-.7081-.8073-1.5295-1.572-2.4217-2.2801-.8781-.7081-1.8553-1.3596-2.9033-1.9686h0l-9.3612-5.41h0c-.0567-.0283-.1133-.0708-.1699-.1133-.0991-.085-.2124-.1841-.3257-.2974-.1275-.1275-.2408-.2833-.3541-.4532s-.2266-.3541-.3116-.524-.1558-.3541-.2124-.524c-.0425-.1416-.085-.2974-.0991-.4107-.0142-.1133-.0283-.1983-.0283-.2833v-2.0111l202.7472-117.0512c3.1723-1.8269,4.9143-5.6224,4.9143-10.6925v-40.6033c0-10.1402-7.1378-22.5039-15.9184-27.574v-.0141ZM754.405,403.0128c2.6767-1.5437,6.4297-1.1471,10.296,1.0905,8.2708,4.7727,15.012,16.3433,15.1961,25.9595l-207.7465,119.9404c-.8781-3.314-2.1102-6.6421-3.6822-9.9136-1.657-3.4414-3.6538-6.7271-5.9198-9.772-2.2801-3.0591-4.7727-5.7924-7.421-8.1292-.9914-.8639-1.9969-1.657-3.0024-2.3934l202.294-116.7963-.0142.0142ZM581.3136,621.5368c0-5.2542-7.1803-9.5312-16.0034-9.5312-2.0252,0-3.9938.2266-5.8349.6515.1841-.0991.3541-.2124.5382-.3116.8639-.4673,1.7136-.8781,2.5351-1.2179.4815-.1983.963-.3682,1.4162-.5098,4.9426-.2266,9.7578.7931,13.2417,2.8041,3.0449,1.7561,4.716,4.0504,4.716,6.458,0,.9489-.2691,1.8694-.7648,2.7475.085-.3682.1416-.7223.1416-1.0905h.0141ZM553.9521,614.8522s-.0283.0567-.0567.085c-.0142.0283-.0283.0425-.0425.0708,0,.0142-.0142.0425-.0283.0708,0,.0425-.0142.0708-.0283.1133,0,.0283,0,.0567-.0142.0991v23.9059l-64.1127,37.0202h0c-1.0338.5948-2.2376,1.1047-3.5547,1.5154-1.3737.4249-2.8608.7223-4.4045.8922-1.572.1699-3.1865.1983-4.7727.0991-1.5862-.1133-3.1157-.3541-4.5744-.7364-1.3454-.3541-2.5917-.8073-3.6822-1.3596v-11.3865c0-.0283,0-.0708-.0142-.0991v-.0567h0s0-.0283-.0142-.0425c0-.0142-.0142-.0425-.0283-.0567v-.0425c0-.0142-.0283-.0283-.0425-.0425,0-.0142-.0283-.0425-.0425-.0567,0,0-.0142-.0142-.0283-.0283-.0142-.0142-.0425-.0283-.0566-.0425-.0283-.0283-.0566-.0425-.085-.0567-.0142,0-.0283-.0283-.0566-.0425h-.0283c-.0283,0-.0425-.0142-.0708-.0283-.0283,0-.0708-.0142-.0991-.0283-.0283,0-.0425,0-.0708-.0142h0c-.8922-.0567-1.8128-.1133-2.7758-.0991-1.2321.0283-2.2943.1699-3.2998.4673-.7506.2266-1.4729.524-2.1385.9064h0c-.0283,0-.0566.0283-.0708.0425l-8.9222,5.1551v-38.3231l120.8751-69.7775v38.3231l-9.6303,5.5516h0c-.4815.2833-1.0055.6373-1.5295,1.048-.7364.5807-1.487,1.2605-2.2943,2.096-.6656.6798-1.3596,1.4445-2.1668,2.3934-.6939.8073-1.3737,1.6428-2.096,2.5209h0l-.0425-.0567ZM462.9311,672.606c-.609-1.0622-.8356-2.1951-.7223-3.2998.3116-.3257.6231-.6373.9772-.9205.2549-.2124.5382-.3965.8214-.5807-.7931,1.1471-1.218,2.3934-1.218,3.6963,0,.3682.0566.7364.1558,1.1047h-.0142ZM462.308,667.281c-.2974.2408-.5523.5098-.8214.7648-.2974-.3116-.524-.7506-.6373-1.1613.4815-.2408.9772-.4532,1.487-.609.6373-.1841,1.3313-.2833,2.0677-.3541-.7648.3965-1.4729.8356-2.1102,1.3454l.0142.0141ZM467.2648,666.5587v9.2338c-.524-.3399-.9914-.7081-1.3879-1.0763-.6373-.5948-1.1047-1.2463-1.3879-1.8694-.1983-.4532-.2974-.8922-.2974-1.3454,0-1.7703,1.1047-3.5123,3.0591-4.9426h.0142ZM460.3253,668.853l-8.724,5.0418c-.3541-.3257-.6231-.8073-.7364-1.2746l8.724-5.0418c.1699.4673.4249.8922.7364,1.2746ZM562.5344,609.6264c-.1699.0708-.3399.1133-.524.1841-.8639.3541-1.7703.7931-2.6767,1.2888-.1983.1133-.3965.2266-.5948.3399.1699-.1699.3399-.3541.4957-.524.7648-.7789,1.4729-1.4304,2.1527-1.9686.1841-.1416.3682-.2691.5382-.3965.1416.3824.3541.7364.5948,1.0622l.0142.0142ZM555.1984,615.7303c2.7192-1.4587,6.3589-2.3085,10.1119-2.3085,8.0442,0,14.5871,3.6397,14.5871,8.1291h0c0,.2833-.0425.5523-.1133.8356-.085.2974-.2124.609-.3824.9064-.1841.3257-.4249.6656-.7081.9772-.2974.3399-.6656.6798-1.0763,1.0055-.4249.3399-.9064.6656-1.4304.963h0l-20.9885,12.1229v-22.6313h0ZM563.894,609.0599c-.3541-.3257-.6231-.8073-.7364-1.2746l8.724-5.0418c.1699.4673.4107.8922.7364,1.2746l-8.724,5.0418ZM529.9046,517.0758c.5382-.3116,1.1188-.5807,1.6995-.7931.0566-.0142.1133-.0425.1558-.0566,4.2487-1.5295,9.5454-.6373,15.1678,2.6059,13.525,7.8034,24.5432,26.7667,24.7132,42.4444l-120.9034,69.8059c-.5382-15.9609-11.698-34.9667-25.393-42.8834-4.4753-2.5775-8.7948-3.753-12.6186-3.4839l117.1646-67.6532.0141.0141ZM448.6555,673.3c.2974,0,.609-.0425.8922-.0991.1841.5665.4957,1.1047.8922,1.5437-.3399.3682-.5948.8073-.7789,1.2746-.7506-.7223-1.3454-1.7703-1.6003-2.7758.1983.0283.3965.0708.5948.0708v-.0141ZM447.9191,671.7704v-38.5072c.2408.0425.4815.085.7364.085s.4957-.0425.7364-.085v38.5072c-.4532.1416-1.0055.1416-1.4729,0h0ZM404.9224,589.7708c.8073-.8214,1.7136-1.5154,2.6908-2.0819,4.5178-2.6059,10.5651-1.9827,17.0372,1.7561,13.5108,7.8034,24.5008,26.7101,24.7132,42.3736-.4674.1416-1.0197.1275-1.4729-.0142-.2266-15.1961-10.8908-33.5221-23.9768-41.0848-6.543-3.7813-12.7319-4.3761-17.4338-1.657-1.1188.6373-2.096,1.4729-2.9741,2.4217.439-.609.9064-1.2038,1.4162-1.7136h0ZM406.4661,603.8906h.0142l3.8238-2.2093h0l7.5343-4.3478c1.4304.1416,3.0166.6231,4.6169,1.4162,1.6287.8073,3.2857,1.9119,4.9002,3.2857,1.657,1.4162,3.2573,3.0732,4.7302,4.9426,1.5012,1.8977,2.8466,3.9654,3.9938,6.1464,1.1613,2.181,2.096,4.4186,2.8041,6.6704.6798,2.2093,1.1188,4.3478,1.3029,6.4013l-235.717,136.0854c-.524-9.8994-7.4352-21.5125-15.8759-26.3843-2.4359-1.4021-4.801-2.1243-6.9678-2.1951l224.8404-129.8115ZM412.9241,596.8803c-1.4446.8356-2.6059,2.0677-3.4839,3.668l-2.0394,1.1755c.9914-2.4076,2.5775-4.1212,4.6594-4.9993.8922-.3682,1.8553-.5665,2.8749-.6231-.7223.1699-1.4021.4107-2.011.7789h0ZM413.8446,597.9991l-.4532.2549c.085-.0567.1558-.1133.2266-.1558s.1558-.0708.2266-.0991ZM198.9037,813.5491c-2.7192,1.5579-6.373,1.1755-10.296-1.0905-8.3841-4.8435-15.2103-16.669-15.2103-26.356h0v-40.6033h0c0-4.5319,1.5012-7.9025,4.2062-9.4604,2.705-1.572,6.373-1.1755,10.296,1.0905,8.3841,4.8435,15.2103,16.669,15.2103,26.356v40.6033c0,4.5319-1.487,7.9025-4.2062,9.4604h0ZM440.2856,674.1922l-237.3457,137.0201c.9772-1.8128,1.5154-4.0787,1.5579-6.7129l235.7736-136.1278v5.8065l.0142.0141ZM440.2856,666.7428l-235.7595,136.1137v-38.9746l235.7453-136.0995c0,.1416.0142.2833.0142.4249v38.5356h0ZM458.7532,802.984l-16.4707-9.5029v-164.4382c0-11.6981-8.2425-25.9878-18.3826-31.8368-4.5178-2.6059-8.9081-3.2432-12.392-1.7845-2.9033,1.2179-4.971,3.7672-5.9906,7.3785l-4.9143,2.8325v-.6656c0-7.0245,2.3368-12.2504,6.5713-14.7005s9.9278-1.8553,16.0175,1.657c12.8452,7.421,23.2969,25.5204,23.2969,40.3483v39.966c0,2.096,1.4162,4.5603,3.2432,5.6083l9.0214,5.2117v119.9262h0ZM458.9798,681.5566l-8.115-4.6877c.1133-.4673.3824-.9489.7364-1.2746l8.115,4.6877c-.3116.3682-.5665.8073-.7364,1.2746ZM497.4021,803.7771c-10.3668,5.7782-26.8658,5.7782-37.2326,0v-119.9545c5.2825,2.7475,11.9388,4.1495,18.6092,4.1495s13.3409-1.3879,18.6092-4.1495v119.9545h.0142ZM460.2403,682.2647c.1133-.4673.3965-.9489.7506-1.2605,4.971,2.7475,11.3865,4.1354,17.802,4.1354s12.831-1.3879,17.802-4.1354c.3541.3257.6373.7931.7506,1.2605-10.3526,5.7357-26.7525,5.7216-37.1052,0ZM497.8695,680.282l85.2711-49.2281c.3541.3257.6231.8073.7364,1.2746l-85.2711,49.2281c-.1699-.4673-.4107-.8922-.7364-1.2746h0ZM583.9337,753.8551l-85.1011,49.1431v-119.9262l85.1011-49.1431v119.9262ZM591.9353,743.1059c0,3.5972-2.3934,7.1378-6.5855,9.8711v-119.8837c3.0449-1.8128,5.2684-3.9796,6.5855-6.3589v116.3714ZM590.8732,617.0899c.2833.5948.5382,1.2038.7081,1.8269.2408.8639.3541,1.7561.3541,2.6342,0,3.668-2.4926,7.2653-6.8262,10.0127-.1699-.4673-.4249-.8922-.7364-1.2605,4.4753-2.8325,6.9537-6.4863,6.9537-10.4234,0-.9489-.1558-1.8836-.439-2.79h-.0142ZM573.8218,604.967l9.0214,5.2117h0c4.5461,2.62,7.0528,6.0756,7.0528,9.7012s-2.5067,7.0811-7.0528,9.7153l-86.5174,49.9503c-9.6587,5.5799-25.393,5.5799-35.0516,0l-8.3133-4.801,7.8176-4.5036c.085,1.5012.694,2.9741,1.7986,4.3195,2.8041,3.4131,8.2991,5.6366,14.7146,5.9482.5098.0283,1.0055.0425,1.5154.0425,4.7019,0,9.2196-1.0763,12.6044-3.0166h0l86.5174-49.9503h0c3.4981-2.0252,5.4241-4.7585,5.4241-7.6901s-1.926-5.6649-5.4241-7.6901c-3.1015-1.7845-7.1661-2.8183-11.4431-2.9882l7.3502-4.2345-.0142-.0142ZM775.7193,480.523l-202.0391,116.6405v-5.8065l206.1886-119.0481c-.2691,3.8521-1.742,6.8121-4.1495,8.2141ZM779.9255,470.6519l-206.2453,119.0765v-28.8769c0-2.9882-.4107-6.1606-1.1755-9.4179l207.4208-119.7562v38.9746h0Z"/>
  </g>
  <g id="Layer_3" data-name="Layer 3">
    <path d="M491.54,218h0c-.78.93-1.53,1.88-2.26,2.84-4.9304,6.5013-9.1983,13.4794-12.74,20.83-3.4842,7.1944-6.1895,14.7406-8.07,22.51-1.6036,6.5472-2.4359,13.2595-2.48,20v178.6c.0104.1528.0661.299.16.42v.08c.0129.0342.0334.0649.06.09.89,1.29,1.77,2.54,2.57,3.77.0634.0946.1371.1819.22.26.442.3978.9209.7527,1.43,1.06.39.27.86.54,1.38.85s1.09.61,1.71.95c1,.53,2.14,1.1,3.37,1.69,1.57.76,3.29,1.54,5,2.25s3.46,1.41,4.92,1.93l-15.48,16.35-27.55,30.26v-22.45c-1.46-.51-6.34-2.13-8.09-2.85s-3.4-1.47-5-2.2c-1.23-.58-2.36-1.14-3.37-1.66-.63-.33-1.2-.63-1.71-.93s-1-.57-1.39-.82c-.5017-.2911-.9769-.6258-1.42-1-.0825-.072-.1533-.1563-.21-.25h0c-.84-1.22-1.73-2.48-2.64-3.76l-.21-.49v-174.49c.0478-6.5815.8769-13.134,2.47-19.52,1.8868-7.6049,4.5961-14.9817,8.08-22,3.564-7.1913,7.8529-13.9999,12.8-20.32,4.8318-6.2757,10.3643-11.9793,16.49-17,5.5817-4.5905,11.7827-8.371,18.42-11.23,4.3322-1.8343,8.8832-3.1015,13.54-3.77Z"/>
    <path d="M473.23,809.85l-10.72,5.85c-10.7,5.85-36.2,20.17-43.83,8.74l-12.88-18.53v-110.06l36.38-21v118.84c-.0138.7281.3693,1.4061,1,1.77l17.94,10.36c2.1723,1.2267,4.4816,2.1934,6.88,2.88,1.7163.4971,3.4634.8813,5.23,1.15Z"/>
    <path d="M383.17,605.13l18.88-10.52c-.15.37-.28.73-.41,1.11-.4441,1.3032-.7786,2.6412-1,4-.2069,1.4642-.3105,2.9412-.31,4.42v3.08l-25.16,14.52c-.0084-1.316.0919-2.6305.3-3.93.2195-1.3593.5541-2.6974,1-4,.4024-1.2349.939-2.422,1.6-3.54.6257-1.0692,1.3815-2.0566,2.25-2.94.8477-.8571,1.8062-1.5969,2.85-2.2Z"/>
  </g>
</svg>