<?xml version="1.0" encoding="UTF-8"?>
<svg xmlns="http://www.w3.org/2000/svg" viewBox="0 0 1000 1000">
  <g id="Layer_2" data-name="Layer 2">
    <path d="M697.889,419.9275v-4.7513c0-5.1028-3.5998-11.3328-8.0118-13.8903l-130.2853-75.221c-2.2181-1.2848-4.4362-1.4787-6.0603-.5454l-3.6362,2.0969c-1.6484.9575-2.5575,2.909-2.5575,5.5149v27.1746c-2.0726-.703-4.3028-.8-6.424-.2788v-27.417c0-2.6059-.9091-4.5695-2.5575-5.5149l-3.6362-2.0969c-1.6484-.9575-3.8059-.7636-6.0603.5454h0l-47.4283,27.3806h-.0727l-2.4847.1091-2.5817.3151-1.3939.2788c-.2545.0485-.5091.097-.7757.1576l-1.3818.2788-1.6363.4727c-.1576.0485-.3151.0848-.4606.1333l-1.4666.4242-1.8787.7151c-.0606.0242-.1333.0485-.1939.0727l-1.4545.5454-3.3696,1.5878-3.1393,1.806-2.1575,1.4666-1.9514,1.5393-1.7211,1.5999-1.4787,1.6484-1.2363,1.6727-.9818,1.6848-.7515,1.6727-.2424.7394-156.0539,90.0931c-4.4241,2.5575-8.0118,8.7754-8.0118,13.8903v111.3407c0,.1697,0,.3515.0121.5333.0485.9454.2061,1.9151.4848,2.8847.1212.4242.2667.8484.4363,1.2727v3.915c0,.9091.1091,1.7333.3394,2.4726.2667.8727.703,1.6121,1.2848,2.206.3151.3151.6666.5939,1.0666.8242h0l145.315,83.8994h.0364c.3636.2061.7515.3272,1.1393.3515h.097c.6545,0,1.2484-.2788,1.6969-.8.2545-.303.4242-.6666.5454-1.0788.7515.0849,1.503.1333,2.2666.1333h.4485c.5697-.0121,1.1393-.0727,1.6969-.1333.0485.3879.1454.8242.3879,1.2363.3757.6424.9575,1.0545,1.6363,1.1515.1091.0121.2182.0242.3151.0242.4121,0,.8363-.1212,1.2242-.3515h.0364l251.2983-145.0847h0c.2182-.1212.4242-.2667.6182-.4121.6909-.5454,1.2121-1.2484,1.5636-2.1211.2909-.7151.4606-1.5272.497-2.4363,0-.1697.0121-.3515.0121-.5212v-111.3407c0-1.5393-.3272-2.8484-.9212-3.8544v-.0121ZM696.6648,414.8247l-2.4605,1.4181c-.4-4.5453-3.3696-9.6966-7.1027-12.3146l2.4605-1.4181c3.8544,2.3999,6.9573,7.7694,7.1027,12.3146ZM696.6769,416.2186v2.3393c-.1333-.1091-.2788-.206-.4242-.2909l-1.5636-.8969,1.9878-1.1393v-.0121ZM688.3621,401.8071l-2.4241,1.406-129.0854-74.518,2.4241-1.406,129.0732,74.518h.0121ZM554.1376,326.574c1.0181-.5939,2.3878-.5576,3.8665.0606l-2.3635,1.3696c-.8363-.4485-1.6605-.7394-2.4484-.8727l.9575-.5454-.0121-.0121ZM548.5378,333.1434c0-2.1575.6909-3.7453,1.9514-4.4725,1.2605-.7272,2.9817-.5333,4.8483.5454l130.2853,75.221c3.8301,2.2181,6.9936,7.4179,7.3694,11.951l-.3879-.2182c-1.6605-.9575-3.8059-.7636-6.0603.5454l-20.5325,11.854-116.6132-67.3304c-.2788-.1576-.5818-.2909-.8727-.4242v-27.6715h.0122ZM447.7543,382.9473c-.0242.703-.0485,1.4545-.0849,2.2181l-.0606,1.0666-.4363,1.6848-1.1636,2.4363-2.412,3.5029-1.5151,2.1938-.8848,1.5272-.8484,2.0242-.3515,1.4908s-.0242.0485-.0364.0848c0,.0364-.0121.0848-.0242.1333h0v.0364c-.0485.3273-.097.6666-.1454,1.0181-.0485.3757-.097.7636-.1333,1.1393-.0727.703-.1454,1.3939-.2182,2.0605-.1212,1.2727-.2303,2.509-.3273,3.7089-.1939,2.3393-.3757,4.6059-.5454,6.8361-.0727.8727-.1333,1.7211-.1939,2.5817l-121.219,69.9849-19.5992-11.3207c-2.2181-1.2848-4.4362-1.4787-6.0603-.5454l-2.2787,1.309v-.206c0-4.7149,3.3211-10.4723,7.4057-12.8358l150.9511-87.1478.1939,4.5574v.4485l-.0121.0121ZM447.9118,389.4319c0,.1576-.0121.3273-.0242.4848-.0849,1.5151-.206,2.9696-.3273,4.4241-.4121,4.8119-.9333,9.4178-1.3454,12.8964-.3394,2.8605-.703,5.7573-1.0787,8.6542-.1091-.2667-.2182-.5454-.3394-.8l-.0485-.1212c-1.5878-3.7089-3.0786-7.2239-3.5029-10.1935-.3273-2.3029,0-4.3998,1.0181-6.4361.7151-1.4302,1.7333-2.8362,2.715-4.1816.5576-.7757,1.1151-1.5393,1.6242-2.3029.5333-.8121.9575-1.6121,1.309-2.412v-.0121ZM292.0882,477.8644c1.0181-.5818,2.3878-.5576,3.8665.0606l-2.3635,1.3696c-.8363-.4485-1.6605-.7394-2.4484-.8727l.9575-.5576h-.0121ZM297.2395,478.5796l129.0732,74.518-2.4241,1.406-129.0732-74.518s2.4241-1.406,2.4241-1.406ZM318.3659,489.3791l119.8979-69.2213c-.0606.8-.1212,1.5999-.1818,2.3999l-117.7283,67.9729-1.9878-1.1393v-.0121ZM438.591,432.0119l.2303-3.1756c.303-4.1453.6182-8.3269.9575-12.6298.1697-2.2302.3515-4.4847.5454-6.8239.0606-.6424.1212-1.3333.1818-1.9878v.0727l.3151.7636c.703,2.2787,1.7333,4.7028,2.812,7.2361l.0485.1212c.8848,2.0726,1.7696,4.218,2.6302,6.3391l1.8302,4.5574,1.406,3.1271.7515,1.4302.4363.6788c.2303.3757.4606.7394.703,1.0909l.2545.3879.3394.4s.0606.0727.0849.1091c.0485.0606.097.1091.1454.1576l.703.8242.3151.2667c.2545.2424.5333.4727.8.703l.7272.6303.2182.1333c.9091.6666,1.8908,1.2969,2.9817,1.9272,1.0545.606,2.1938,1.2606,3.4059,1.9393,1.4545.8242,3.0059,1.6969,4.6422,2.6544.9697.5697,1.9635,1.1515,2.9817,1.7454,1.8424,1.0787,3.818,2.2302,5.8179,3.3817l1.8181,1.0666,1.6727.8848c1.2969.7151,2.6059,1.406,3.8908,2.0605.0242,0,.0485.0242.0606.0364l1.0909.5818,1.2121.5576c2.0726,1.006,4.0847,1.9272,6.0725,2.8241l.9091.4242s.0364.0121.0485.0242l1.9635.9212,5.6482,2.6908,3.0181,1.6969,2.2787,1.5393,2.4363,2.0605,1.7817,1.9272,1.5514,2.1454,1.3333,2.3757,1.2848,3.1756.9454,3.5392v.0606l-.4242.2303-.3757.3515s-.1091.097-.1697.1576l-.606.5697-.4242.606c-.3515.4485-.7394.9939-1.1757,1.6727l-.6181.8727-.8121,1.5393c-.2788.5091-.5576,1.0181-.8242,1.5514l-.8727,1.6484-.9212,2.2544c-.1697.4-.3394.8-.497,1.2l-.7151,1.7454-.5212,1.6605c-.2182.6545-.4242,1.309-.606,1.9635l-.4485,1.4302-.5454,2.3878c-.0242.1212-.0485.2303-.0727.3515l-.4,1.7454-.2424,1.6242c-.0364.1939-.0606.4-.0849.5939l-.3515,2.412-.0606.8969c-.0242.2182-.0242.4363-.0485.6666l-.1697,2.5454c-1.7333.1454-3.4786.2667-5.2361.3394-6.9936.303-14.0115-.0121-20.8476-.9333-6.7512-.9091-13.1752-2.3757-19.1022-4.3756-1.9514-.6545-3.8059-1.3818-5.6119-2.1454v-.7515c.0121-.6666.0121-1.309.0121-2.1332v-.1212c0-.3394-.2667-.5818-.606-.5818s-.606.2909-.606.6303v2.4363c-2.9938-1.3212-5.8058-2.7635-8.339-4.3513-3.6968-2.3151-6.8846-4.9331-9.2845-7.6239.4121-1.8181.8-3.8301,1.2121-6.3149.6303-3.818,1.1393-7.6724,1.5757-11.5389v-.0242h0c.5454-4.824.9697-9.6481,1.3696-14.4236h0c.1212-1.503.2424-3.0059.3636-4.4968l.0606-.7394c.5939-7.3451,1.1393-14.7024,1.6969-22.1566l.0485-.0242ZM547.4591,476.6039c.8848.5212,1.7817,1.0181,2.6787,1.5151l.1697.097c.0242.0606.0485.1212.0727.1818.3273.7515.6666,1.4666,1.0181,2.1211.4606.8606.9697,1.6848,1.5393,2.4847.3757.5333.7636,1.0303,1.1272,1.4787l.7636.9212c.0485.0606.097.1091.1454.1697-.9333,2.0484-2.3151,4.1089-4.0847,6.1088l-26.4595,15.2721c-2.4484.7636-4.9574,1.4545-7.5754,2.0484-4.4119.9939-8.9936,1.709-13.66,2.1575.0242-.6909.0727-1.3818.1212-2.0726l.097-1.2605c.097-1.006.2182-2.0242.3757-3.0302l.0849-.5333c.3757-2.3272.8848-4.6543,1.5272-6.8967,1.5151-5.2846,3.8908-10.7026,6.3634-14.4964,1.8666-2.8726,2.6787-3.1271,2.7514-3.1514h.1091c.0606,0,.1212-.0242.1818-.0485.0121,0,.0242,0,.0364-.0242.0606-.0364.1212-.0727.1576-.1091.0606-.0606.1212-.1455.1454-.2182.0242-.0485.0606-.1818.0606-.2303,0-.0606.0121-.1212.0242-.206v-.1939c0-.0727,0-.1455-.0242-.1939,0-.0242-.0121-.1212-.0242-.1697h0c-1.2121-5.7452-3.5877-10.2541-7.2724-13.7933-3.212-3.0908-7.2967-5.2846-12.4358-7.636-.2303-.1091-.4727-.2182-.703-.3151,3.9513.097,7.5633.4121,10.7147.9818,1.6605.303,3.2847.6909,4.8119,1.0666l1.0666.2667c2.1938.5454,4.4725,1.103,6.8118,1.5393.8848.1576,1.7817.303,2.7029.4485.3757.0606.7394.1212,1.103.1818.2545.0485.5091.097.7272.1576.1454.0364.2909.0727.4121.1091.206.0606.3515.1333.4727.1939s.206.1212.3151.1939l.606.4727c.1576.1212.3394.2667.5333.4.4606.3151.9575.5939,1.4545.8.8121.3394,1.7211.5697,2.7999.703.9212.1091,1.8424.1455,2.6908.1697l.7757.0242c.1333.2909.2788.5818.4363.8363.3151.5454.6666.9818,1.0545,1.3575.2909.2788.5939.5091.9333.703.2788.1576.5697.2909.8848.3879.2545.0848.5333.1576.8363.2182.1939.0364.3879.0727.5939.097l.1818.0242c.1212.1939.2424.3879.3757.5818.303.4.6181.7636.9575,1.0909.4121.4.8848.7515,1.3939,1.0666.3636.2303.7878.4485,1.2363.6424.4727.206,1.006.4121,1.6242.6182.6303.206,1.2484.3879,1.8545.5576l.2545.0727c.4727.1333.9333.2667,1.3454.4.4606.1455.8606.2909,1.1515.4242.2303.097.4.1939.5212.2667.097.0606.1576.097.2182.1455l.097.2545c.0485.1333.1091.303.1939.5333l.1818.5333c.1333.3879.303.8727.4848,1.3696-.5091-.2909-1.0181-.5697-1.5151-.8606-.2909-.1697-.6545-.0727-.8242.2182s-.0727.6545.2182.8242v-.0485ZM556.186,485.8399c.0485-.1212.0849-.2424.1333-.3636h0c0-.0121.0121-.0364.0242-.0606.0121-.0242.0242-.0485.0364-.0727,0-.0242.0121-.0364.0242-.0606,0-.0364.0242-.0727.0364-.1091.1697-.4363.3394-.8848.4727-1.3212.0242-.0485.0364-.097.0364-.1576.0242-.0727.0364-.1576.0606-.2303.0364-.0727.0485-.1333.0606-.2182.3636-1.3454.5576-2.6908.5576-4.0604,0-2.4847-.4242-4.9695-1.2363-7.3936l.0364-.4242.9818-6.8482,1.7575-8.9087.9333-3.7938c10.0965,12.3267,9.5632,26.7382-1.5878,38.8105l-13.0055,7.5027c.7151-.5212,1.4181-1.0545,2.0726-1.5999,1.4908-1.2363,2.8484-2.5211,4.0362-3.8301l.0242-.0242c.0364-.0364.0606-.0727.0849-.1091l.0606-.0606c1.9272-2.1696,3.418-4.4119,4.3998-6.6543v-.0121ZM555.9436,479.4401l.0727-3.1393.0727-.8606c.2182,1.2484.3394,2.4969.3394,3.7453,0,.4727-.0242.9333-.0727,1.3939-.1333-.3879-.2667-.7757-.4121-1.1515v.0121ZM585.5544,398.4254v-.2788c0-.0485-.0364-.0848-.0606-.1333v-.0242s0-.0121-.0121-.0242c-.0242-.0606-.0364-.1091-.0727-.1697-.0242-.0364-.0727-.0727-.097-.1212v-.0121h-.0121c-.0364-.0364-.0606-.0848-.1091-.1212-.0364-.0242-.0849-.0485-.1212-.0727h-.0121c-.0364-.0242-.0727-.0485-.1212-.0727-.0727-.0364-.1576-.0485-.2424-.0606h-.0849l-5.7452-.4242-5.8301-.7515-5.9028-1.0787-4.4362-1.0424-4.3998-1.2363-4.315-1.4545-2.7878-1.0909-2.6908-1.2-3.7695-2.0242-2.8362-1.8908-2.4969-2.0726-1.7333-1.7939-1.4787-1.8908-1.2242-1.9878-1.2-2.5938-1.1393-3.7211-.3151-1.503,11.3571-6.5573,117.9586,68.1062-99.9715,57.7187c9.5753-12.2298,9.2117-26.3868-1.1757-38.4832l.9939-4.0241,2.7272-9.3329,2.5454-7.5269,2.7393-7.1027,2.3151-5.2361,2.3999-4.7513,1.8545-3.1999,1.8908-2.8484,1.903-2.4484s.0606-.0727.097-.1091l1.0545-1.1515c.1454-.1455.2788-.2909.4242-.4242l.7636-.7272c.1576-.1454.3151-.2909.4727-.4242l.7878-.6424c.1333-.1091.2667-.2182.4121-.3151l1.2363-.8121s.0121-.0242.0242-.0242c.0606-.0485.1333-.0848.1818-.1454.0242-.0242.1091-.1333.1333-.1697s.0242-.0727.0485-.1212c0-.0121.0121-.0242.0242-.0364v-.0485c.0121-.0485.0485-.097.0606-.1454v-.1333l-.0121-.0364ZM534.0415,503.3542c-.9697.4363-1.9757.8484-2.9817,1.2484l16.0236-9.2481c-.097.0727-.1818.1576-.2667.2303-3.4665,2.8605-7.8785,5.5392-12.7752,7.7694ZM430.3732,489.3185c-1.3454-1.8787-2.3151-3.7695-2.9211-5.6604.606-1.9272,1.6121-3.8665,2.9938-5.7695,0,0,.0121,0,.0242-.0121l.2545-.2545c.1455-.1576.3151-.3636.5091-.6182.2909-.3757.5939-.8363.8969-1.3333.5212-.8606,1.0545-1.8908,1.5878-3.0423.1212-.2788.2545-.5697.3757-.8606-.0727.6424-.1333,1.2848-.206,1.9272-.1576.8848-.3151,1.7696-.4727,2.6544-.7272,3.915-1.6605,8.4724-3.0302,12.9813l-.0121-.0121ZM431.4519,489.9488c-.0485.206-.0848.4121-.1333.6181-.0121-.0121-.0242-.0364-.0485-.0485.0606-.1818.1091-.3757.1697-.5576l.0121-.0121ZM426.8218,480.5552c-.0485-.4485-.0848-.8969-.0848-1.3575,0-6.3997,2.8847-12.6782,8.3754-18.2416-.1818,2.0726-.3636,4.1574-.5576,6.2422-.303.8606-.5939,1.6727-.8969,2.4363-3.2362,3.4302-5.5149,7.1027-6.8239,10.9329l-.0121-.0121ZM431.864,473.6464c-.2545.497-.5212.9697-.7757,1.3818-.0606.097-.1212.1939-.1818.2909l-.0848.097c-.2909.3515-.5454.703-.8242,1.0545.5576-.9575,1.1757-1.9029,1.8666-2.8362v.0121ZM435.6821,454.0715l-.0606.7394c-.1212,1.4302-.2303,2.8605-.3515,4.3028-6.3755,6.0361-9.745,12.9813-9.745,20.084,0,1.3212.1697,2.6059.5091,3.9392.0121.0606.0364.1091.0485.1697,0,.0121,0,.0242.0121.0485.7878,2.8726,2.3635,5.7331,4.7149,8.5208.097.1212.206.2303.303.3515h0c2.509,2.8847,5.8907,5.6846,9.8178,8.1451,2.7878,1.7454,5.8907,3.3089,9.2117,4.7392.0727.0606.1697.097.2788.1212,1.903.8121,3.8665,1.5757,5.927,2.2787,5.9997,2.0242,12.5086,3.515,19.3325,4.424,5.224.703,10.5329,1.0545,15.8781,1.0545,1.7333,0,3.4665-.0364,5.1877-.1091,1.9272-.0849,3.8301-.2182,5.721-.3879h.0364s.0606-.0121.0849-.0121c4.9574-.4606,9.8178-1.2,14.4964-2.2544,2.5696-.5818,5.0422-1.2605,7.4542-2.012.097,0,.206-.0242.2909-.0849l.0364-.0242h.0242c.0727,0,.1454-.0242.2182-.0606h.0242c3.2847-1.0545,6.4361-2.2302,9.3693-3.5635h0l-7.1633,4.1332c-29.6351,9.139-65.5366,6.0967-89.3416-7.5754-14.2903-8.2057-22.1809-19.1022-22.2051-30.6775-.0242-11.248,7.4057-21.8657,20.9203-30.0108-.3515,4.5937-.6909,9.1754-1.0666,13.7327l.0364-.0121ZM663.1269,431.624h0l3.1877-1.8423h0l20.5325-11.854,2.4241,1.406-235.0566,135.7033-2.4241-1.406,211.3243-122.0069h.0121ZM688.144,417.2731c1.4666-.606,2.8484-.6424,3.8665-.0606l.9575.5576c-.7878.1333-1.612.4242-2.4484.8727l-2.3635-1.3696h-.0121ZM548.8045,362.2815l116.0071,66.9789-1.9878,1.1393-117.8859-68.0577c1.4666-.606,2.8362-.6424,3.8665-.0606h0ZM545.0471,360.9967c-.4606.1576-.9212.3636-1.3939.606-.4606-.2545-.9212-.4606-1.3818-.6182.9212-.1212,1.8545-.1212,2.7635,0l.0121.0121ZM542.3684,362.3421l-10.3389,5.9634-.0849-.3879-.3757-1.6363,6.933-3.9998c1.0181-.5939,2.3878-.5576,3.8665.0606ZM537.7383,328.1375c1.2605.7272,1.9514,2.3151,1.9514,4.4725v27.8049c-.6181.2303-1.2242.4848-1.7939.8121l-6.6179,3.818-.206-.8727-.6424-1.5757-.6545-1.006-.5454-.5576-.6303-.4606-.703-.3636-1.2-.3394-1.3575-.1212-2.0363.1333-1.2242.2788c-1.503.2667-3.1514.6545-4.8362,1.0787l-.1576.0364c-.1454.0364-.2909.0727-.4363.1091l-3.9635.8969-3.7938.6666-2.3272.1697-1.5999-.0606-1.4787-.2303-1.3696-.3879-1.6848-.7636-6.1088-4.5816-2.4484-1.5999-2.2544-1.0909-.8363-.2909,44.0951-25.4292h0c1.8666-1.0787,3.5877-1.2727,4.8483-.5454h.0121ZM534.09,326.0406l.9575.5576c-.7878.1333-1.6121.4242-2.4484.8727l-2.3635-1.3696c1.4787-.606,2.8484-.6424,3.8665-.0606h-.0121ZM528.9387,326.7558l2.4241,1.406-44.1436,25.4898-1.5151-.3515-2.2181-.2909h-.0121l45.4647-26.2534ZM448.7603,394.4498c.1212-1.4545.2424-2.9332.3273-4.4483.0485-.703.0849-1.4302.1091-2.1696.0242-.4848.0364-.9697.0364-1.4545v-1.7696c0-.4-.0242-.7878-.0364-1.1272-.0242-.5454-.0485-1.0181-.0849-1.5393l-.0485-1.0181h-.097v-.0485h.097-.097c-.0727-1.1151-.1454-2.2666-.1333-3.4665.0121-3.1393.703-5.7573,2.1454-8.2178.3879-.6545.8363-1.3212,1.3333-1.9636,2.2302-2.8484,5.7452-5.6604,9.9147-7.8906,1.6242-.8727,3.3453-1.6605,5.0786-2.3272l.1576-.0606c1.0909-.4242,2.1938-.8,3.2968-1.1272l.3879-.1091c1.006-.2909,2.012-.5454,3.0181-.7515l.6666-.1333c.4727-.097.9454-.1818,1.406-.2545,3.8423-.5939,7.4664-.5212,10.4602.2303,2.7756.6909,4.8968,1.9393,6.5452,3.1271l1.5514,1.1878c.303.2424.606.4848.9091.7272,1.503,1.2242,2.9211,2.3878,4.5695,3.212,1.9635.9818,4.2786,1.4302,6.824,1.3333,3.1635-.1212,6.7755-1.0424,10.2662-1.9272l.1576-.0364c2.8847-.7272,5.6361-1.3818,7.6482-1.3818h.0364c1.8302,0,2.9938.5333,3.7695,1.6969.3515.5212.6181,1.1636.8484,1.9029l.7878,3.3453c.0242.1212.0485.2424.0727.3636.2788,1.4181.5697,2.8968,1.006,4.4119.9454,3.3211,2.4363,6.2664,4.4483,8.7269,2.6423,3.2362,6.4603,6.0846,11.3692,8.4966,4.7392,2.3151,10.4602,4.2665,16.9932,5.7937,6.4482,1.503,12.9934,2.412,19.4658,2.7272l-.2667.1697-.1576.1212c-.3151.2182-.6424.4485-.9575.703l-.2788.206-.0849.0727c-.4121.3394-.8363.703-1.2484,1.103l-.0485.0364-.2545.2545c-.3273.3273-.6545.6545-.9818,1.006l-.1212.1212-.1454.1697c-1.3575,1.5151-2.7029,3.2847-4.0241,5.3573-3.6241,5.6482-7.2967,13.7206-10.642,23.3202-2.8241,8.0966-5.2846,16.872-7.127,25.3565-2.2423,10.3511-3.2605,18.9689-2.9696,24.9201.0364.7515.097,1.4545.1697,2.1211-.3151-.3879-.6303-.8-.9454-1.2363-.5333-.7515-1.0181-1.5393-1.4545-2.3514-.3394-.6303-.6666-1.309-.9697-2.0242-.2182-.5212-.4363-1.0424-.6181-1.5514-.2303-.6182-.4485-1.2242-.6181-1.709l-.1818-.5333c-.0849-.2424-.1454-.4242-.206-.5576-.0606-.1697-.097-.2667-.1333-.3394-.0727-.1697-.097-.206-.097-.206h-.0121s-.0364-.0485-.0606-.0848c-.0121-.0121-.1091-.1091-.1333-.1212-.0727-.0606-.1939-.1576-.4-.2788-.1576-.0848-.3636-.206-.6424-.3273-.3273-.1455-.7636-.3151-1.2727-.4727-.4242-.1333-.8969-.2788-1.3818-.4121l-.2545-.0727c-.5939-.1697-1.2-.3394-1.806-.5454-.5818-.1939-1.0666-.3757-1.503-.5697-.4-.1818-.7636-.3636-1.0909-.5697-.4242-.2667-.8363-.5697-1.1878-.9091-.303-.2788-.5697-.5939-.8242-.9333-.1939-.2667-.3757-.5333-.5333-.8242-.1212-.2182-.2424-.4363-.3636-.6788l-.2182-.4485-.5576.2424.4727-.4121c-.1091-.3151-.4485-.4848-.7636-.3879-.3151.1091-.4848.4485-.3879.7636,0,.0242.0606.1333.0606.1576,0,0,.0485.1212.0606.1212l.1212.2545c-.1697-.0364-.3394-.0727-.4848-.1212-.2424-.0848-.4606-.1818-.6666-.2909-.2545-.1455-.4848-.3151-.703-.5333-.3151-.303-.5818-.6424-.8484-1.0909-.4121-.703-.7515-1.5272-1.0424-2.5938-.6424-2.2908-.8969-4.824-1.0303-6.7755-.0485-.6303-.0849-1.2727-.1212-1.9514l-.0727-1.7333v-.0485c-.0121-.3273-.2788-.5697-.606-.5697s-.606.2788-.606.606v.0727h0v.0848l.0727,1.6363c.0364.6788.0727,1.3333.1212,1.9757.1454,2.012.4,4.618,1.0787,7.0179.0849.2909.1697.5576.2545.8121h-.2667c-.8242-.0242-1.709-.0606-2.5817-.1697-.9697-.1212-1.7817-.3151-2.4726-.6182-.4121-.1818-.8484-.4121-1.2363-.6788-.1697-.1212-.3394-.2424-.4727-.3515l-.3757-.2909c-.097-.0848-.1939-.1455-.2667-.206-.1576-.1091-.2909-.1939-.4606-.2909-.1697-.0848-.3757-.1818-.6545-.2667-.1454-.0485-.3151-.097-.497-.1333-.2424-.0606-.5212-.1212-.8-.1697-.3636-.0727-.7515-.1333-1.1636-.1939-.8727-.1455-1.7696-.2788-2.6423-.4485-2.3029-.4242-4.5574-.9818-6.7391-1.5151l-1.0787-.2667c-1.5514-.3757-3.1999-.7757-4.8846-1.0787-3.9513-.7151-8.5936-1.0666-13.6964-1.0303-.8-.3636-1.6121-.7272-2.4241-1.103l-5.8058-2.7635c-.3273-.1576-.6545-.3151-.9818-.4848-.7272-.3636-1.4545-.7636-2.1817-1.1515l-2.412-1.309c-2.9332-1.6242-5.8543-3.3332-8.533-4.9089-1.0181-.5939-2.0242-1.1878-2.9938-1.7454-1.6363-.9575-3.1999-1.8302-4.6665-2.6544-.2303-.1333-.4606-.2545-.6909-.3879l-3.6968-2.1454c-.2424-.1455-.497-.303-.7272-.4485l-1.6242-1.1757c-.2909-.2303-.5697-.4606-.8363-.703l-.5818-.5818c-.2667-.2788-.5454-.5454-.7878-.8484,0,0,0-.0121-.0121-.0121l-.7878-1.0909c-.2545-.3879-.5091-.7878-.7515-1.2121l-.9333-1.7696c-.3879-.7878-.7515-1.6121-1.103-2.4363l-.5454-1.309c-.0606-.1333-.1091-.2667-.1697-.4l-.4242-1.0303c-.7394-1.806-1.503-3.6604-2.2666-5.5149.4727-3.612.9212-7.2118,1.3454-10.7632.4121-3.4908.9333-8.1087,1.3454-12.9328l.0242.0122ZM447.9724,373.5053l-.2667,1.4181-.097,1.5999-151.2905,87.3417-2.4241-1.406,154.0904-88.9659-.0121.0121ZM292.6942,463.1742l2.4605,1.4181c-3.7332,2.6181-6.7027,7.7694-7.1027,12.3146l-2.4605-1.4181c.1454-4.5331,3.2483-9.9147,7.1027-12.3146ZM285.5673,482.143v-5.2725l2.4241,1.406v.5576l-.1576.0848c-1.1272.6424-1.8908,1.7696-2.2787,3.2241h.0121ZM286.4885,484.4338c0-2.1575.6909-3.7453,1.9514-4.4725,1.2606-.7272,2.9817-.5333,4.8483.5454h0l130.2732,75.221h0c4.0847,2.3635,7.4057,8.1209,7.4057,12.8358v110.2862l-144.4787-83.4267v-110.9892h0ZM288.5853,600.2107h0c-.303-.1697-.5818-.3879-.8121-.6181-.4485-.4485-.7757-1.006-.9818-1.709-.097-.3151-.1697-.6545-.2182-1.0181l144.4544,83.4025c.0242.7515.1212,1.4545.303,2.0969.0364.1212.0727.2303.1212.3394l-142.8666-82.4934ZM425.0522,555.2308l2.4605-1.4181c3.8544,2.3999,6.9573,7.7694,7.1027,12.3146l-2.4605,1.4181c-.4-4.5453-3.3696-9.6966-7.1027-12.3146ZM432.2034,568.9151l2.4241-1.406v38.6165h0v4.9089h0v2.4484h0v1.6848h0v5.5392h0v4.424h0v8.7511h0v5.6361c-.0364.1212-.0364.2424,0,.3636v1.9635h0v4.9695h0v2.7878h0v14.7872h0v13.0055l-2.4241,1.406v-109.9347.0485ZM435.7184,682.6435c0,.5454-.1455.9818-.4,1.2848-.2182.2545-.497.4-.8121.3757-.3879-.0121-.8-.2545-1.1636-.6545-.3636-.4121-.6666-.9818-.8606-1.6363-.1576-.5333-.2424-1.1393-.2667-1.7817l2.509-1.4424s.0121.1091.0242.1576c.0848.3515.1939.6788.3394.9575.1576.303.3273.5212.5091.6545.0364.0242.0727.0364.1212.0606v2.0242h0ZM435.8396,674.0015v-.4848l.4606.5939c-.1576-.0364-.303-.0727-.4606-.1091ZM441.1727,678.9588v2.1211c-1.3939.1454-2.8484.1454-4.2422,0v-3.115c.6788.1576,1.3939.2667,2.1211.2667s1.4302-.1091,2.1211-.2667v.9939ZM441.1727,676.7286c-1.3454.3636-2.8968.3636-4.2422,0v-1.2727c.1455.0242.2909.0485.4363.0606l.3636.4727s.0848.0849.0848.0969c0,0,.1576.1576.1576.1697,0,0,.0848.0849.097.0849,0,0,.1455.1333.1576.1333,0,0,.1212.0969.1333.0969.0242.0121.097.0606.1212.0727.0242,0,.1212.0606.1455.0606.0485.0121.1212.0364.1697.0364h.0606c.0606,0,.1212,0,.1576-.0121.0606,0,.1091-.0364.1697-.0606h0l1.9757-1.1393v1.1878l.0121.0121ZM442.2636,673.5167l-1.4302.8242h0l-1.5757.9091v-.0121s-.0242-.0364-.0364-.0727c.0364,0,.097-.0242.1333-.0242.0485,0,.1333-.0485.1697-.0727h0l2.7635-1.5999v.0485h-.0242ZM442.2636,672.0743l-2.4969,1.4424v-.0242s-.0485-.1091-.0485-.1212c0,0-.0485-.1091-.0606-.1212s-.0606-.1091-.0606-.1212c0,0-.0606-.1091-.0727-.1091l-.0727-.1091s-.0727-.1091-.0848-.1091c0,0-.0727-.0969-.0848-.1091,0,0-.0848-.0969-.0848-.1091,0,0-.0848-.0969-.097-.0969,0,0-.0848-.0969-.097-.0969,0,0-.0848-.0849-.097-.0969,0,0-.097-.0849-.097-.0969,0,0-.097-.0849-.097-.0969l-.097-.0849s-.097-.0849-.1091-.0849c0,0-.097-.0727-.1091-.0849l-.097-.0727-.1091-.0727-.097-.0727s-.097-.0727-.1091-.0727l-.206-.1333-.1091-.0606-.206-.1212-.206-.1212-.0242.0485s-.1212-.0727-.1818-.1091v-.0606l-.0242.0485c-.0606-.0364-.1212-.0727-.1818-.1091v-.0606l-.0242.0485c-.0606-.0364-.1212-.0727-.1818-.1091v-.0606l-.0242.0485c-.0606-.0364-.1212-.0849-.1697-.1212v-.0606l-.1818-.1333-.4485-.3151v-.0969l.3394-.1939c1.3575.8242,2.606,1.5636,3.3696,1.8666.1818.0727.4242.1697.6788.1697.1454,0,.2788-.0242.4121-.1091,0,0,0-.0121.0121-.0121l1.6121-.9333v1.2121l.0242-.0003ZM436.1426,610.3557h.1212l.0242.0727v-.0727h.1091l.0242.0727v-.0727h.1091l.0242.0727v-.0727h.1212l.0242.0727v-.0606c.0606,0,.1091,0,.1576.0242v.0606l.0242-.0606c.0485,0,.0848.0242.1333.0364v.0606l.0242-.0485c.0485.0242.097.0485.1333.0849v.0485l.0242-.0364s.0242,0,.0364.0242c.0364.0242.0606.0727.097.1091v.0364l.0121-.0242c.0364.0485.0848.0849.1212.1333l-.0242.0242.0242-.0242s.0606.0606.0727.097l-.0242.0364h.0364l.0727.1454-.0242.0242h.0364l.0485.097h-.0606l-.0242-.0606v.0606h-.1091l-.0242-.0727v.0606s-.097,0-.1455-.0121v-.0606l-.0242.0606c-.0364,0-.097-.0242-.1455-.0364v-.0606l-.0242.0606c-.0485-.0121-.097-.0242-.1697-.0364v-.0727l-.0242.0606c-.0485-.0121-.1091-.0364-.1697-.0485v-.0727l-.0242.0606c-.0606-.0242-.1091-.0364-.1818-.0606v-.0727l-.0242.0606c-.0606-.0242-.1212-.0485-.1818-.0727v-.0606l-.097-.0485-.4-.1576v-.1454l.1455-.0242.1576-.0242v-.0849h-.0121ZM437.0032,613.9313s.0727.0364.1091.0606v.0485-.0485c.0364.0242.0606.0364.097.0606v.0485l.0121-.0364.1455.1091-.0242.0364.0242-.0364s.0606.0485.0848.0727l-.0242.0364.0242-.0364s.0606.0606.097.0849l-.0242.0485.0364-.0364s.0606.0727.0848.1091l-.0242.0364.0364-.0242s.0485.0727.0848.1091l-.0242.0364.0364-.0242s.0606.0727.0848.1091l-.0364.0364.0364-.0242h0c.0242.0485.0364.0727.0606.1091l-.0242.0364.0364-.0242s.0364.0849.0606.1212l-.0242.0242h.0242s.0485.0606.0606.097l-.0242.0242h.0364s.0121.0121.0242.0242v.0364s-.0848-.0364-.1333-.0485v-.0606l-.0121.0485c-.0485-.0242-.0848-.0364-.1333-.0606v-.0606l-.0121.0485c-.0485-.0242-.097-.0485-.1455-.0606v-.0606l-.5939-.3151s-.1697-.0849-.1697-.097l-.1576-.0849-.1576-.0849s-.1576-.0727-.1576-.0849c0,0-.1455-.0606-.1455-.0727l-.1333-.0606h0c.0364-.0121.1091-.0364.1212-.0364l.1939-.0727-.0242-.0849s.0848-.0364.1333-.0485l.0364.0727v-.0849s.0606-.0242.0848-.0364l.0242.0727v-.0727h.1091l.0242.0727v-.0727h.0242c.0242,0,.0727.0242.1091.0364v.0606l.0242-.0485.0242.0728ZM438.2395,618.6705h.4363v-.0485s.097.0121.1455.0364v.0485l.0242-.0364c.0485.0121.0848.0242.1333.0485v.0485-.0485c.0364.0121.0606.0485.097.0727v.0364l.0121-.0242c.0364.0242.0727.0485.097.0727l-.0242.0364.0242-.0242s.0727.0485.1091.0849l-.0242.0364.0485-.0364h0c.0364.0364.0606.0727.097.1091l-.0242.0364.0364-.0242s.0606.0727.097.1091l-.0364.0364.0485-.0242s.0606.0727.0849.1091l-.0364.0364.0364-.0242s.0606.097.0849.1333h0s-.097-.0242-.1333-.0242v-.0606l-.0242.0606c-.0485-.0121-.097-.0242-.1455-.0485v-.0727l-.0242.0606c-.0485-.0121-.1091-.0364-.1697-.0606v-.0606l-.0242.0606c-.0485-.0242-.1091-.0485-.1697-.0727v-.0606l-.9091-.4848-.0242.0364s-.0606-.0364-.097-.0606h.2424l.0121-.0121ZM438.1062,615.204v-.0364s.0242.0364.0242.0485h-.0242v-.0121ZM438.4213,624.246s.0606.0727.0848.1091h0l-.0364.0364.0364-.0242s.0364.0849.0606.1333l-.0242.0242h.0364s.0485.0849.0727.1212l-.0242.0242h.0364s.0364.0364.0364.0727l-1.006-.497s.1091.0242.1576.0242c.1455,0,.2909-.0485.4242-.1091.0121,0,.0364,0,.0485-.0121h.0242s.0485.0485.0727.0727l-.0242.0364.0364-.0242-.0121.0121ZM438.8092,628.6337v.0485l.0242-.0364c.0485.0121.097.0242.1333.0485v.0485-.0485c.0364.0121.0606.0485.097.0727v.0364l.0121-.0242c.0364.0242.0606.0485.097.0727l-.0242.0364.0242-.0242s.0727.0485.1091.0727l-.0242.0364.0364-.0242h0c.0364.0364.0606.0727.097.1091l-.0242.0364.0364-.0242s.0727.0727.097.1091l-.0364.0364.0485-.0242s.0485.0727.0849.1091l-.0364.0364.0364-.0242s.0485.0727.0727.1091l-.0242.0242s-.0727-.0242-.097-.0242v-.0606l-.0242.0606c-.0485-.0121-.097-.0242-.1576-.0485v-.0606l-.0242.0606c-.0485-.0121-.1091-.0364-.1697-.0606v-.0606l-.0242.0606c-.0485-.0242-.1091-.0485-.1697-.0727v-.0606l-.9091-.4848-.0242.0364s-.0606-.0364-.097-.0606h.6788v-.0485s.097.0121.1455.0364l.0364-.0242ZM438.7122,624.8278v-.0364h0c0,.0121.0242.0364.0242.0485,0,0-.0242,0-.0364-.0121h.0121ZM439.694,629.4337h-.0242.0242ZM438.6274,631.07c-.0485-.1212-.0848-.2424-.1455-.3515-.1576-.2788-.3636-.5333-.5939-.7394.1212.0727.2303.1454.3636.2182.3394.1697.7515.3394,1.1636.4242l-.7757.4485h-.0121ZM438.6637,632.5002h0ZM437.8395,627.1065s-.0606,0-.1091-.0242h-.0242v-.0606l-.0242.0606c-.0364-.0121-.097-.0485-.1333-.0727v-.0485l-.0121.0364c-.0485-.0242-.097-.0485-.1576-.0727v-.0485l-.0121.0364c-.0606-.0242-.1091-.0485-.1697-.0849v-.0485l-.0121.0364c-.0606-.0364-.1091-.0485-.1697-.097l.0242-.0606-.0364.0485s-.1091-.0727-.1576-.1091l.0242-.0485-.0364.0364s-.1091-.0849-.1697-.1212l.0242-.0364-.0364.0364s-.1091-.0727-.1697-.1212l.0242-.0364-.0364.0364s-.0727-.0485-.1091-.0727h.0121v-.0727l.1455.0121h0v.0727l.0242-.0727c.0485,0,.0848.0121.1333.0242v.0727l.0121-.0606c.0364,0,.0727,0,.1212.0121v.0606l.0121-.0606c.0364,0,.0727,0,.1091.0121v.0606l.0121-.0606c.0485,0,.097.0242.1455.0364v.0606l.0242-.0485c.0485.0121.0848.0364.1333.0606v.0364l.0121-.0364c.0485.0242.097.0364.1455.0606v.0485l.0242-.0364c.0121,0,.0242,0,.0364.0121.0242.0121.0364.0364.0485.0485l-.0242.0485.0364-.0364s.0485.0485.0848.0727l-.0242.0242.0242-.0242s.0606.0606.097.0849l-.0242.0242.0242-.0242s.0606.0485.0848.0849l-.0242.0242.0364-.0242s.0606.097.097.1454l-.0242.0242h.0242s.0606.0727.0727.1212l-.0242.0242h.0364s.0364.0485.0485.0727h-.0485v-.0606l-.0242.0606c-.0364,0-.0727-.0121-.1091-.0242v-.0606l-.0121.0606v-.0242ZM437.4153,635.991s-.0727-.0606-.1212-.0849l.0242-.0485-.0364.0364s-.0727-.0606-.1212-.0969l.0242-.0485-.0485.0364h0l-.1212-.0969.0242-.0485-.0485.0364-.1333-.1212.0242-.0485-.0485.0364-.1455-.1212.0242-.0485-.1576-.1454s-.0242-.0242-.0606-.0485h.0485v-.0727s.0848,0,.1212.0121v.0727l.0242-.0727h.0485c.0121,0,.0485.0364.0727.0485v.0485l.0242-.0364c.0364.0121.0727.0364.1091.0606v.0364l.0121-.0242c.0364.0242.0606.0364.1091.0606l-.0242.0364.0364-.0242s.0606.0849.097.1212v.0242-.0121c.0364.0364.0727.0849.1091.1333v.0242h0c.0242.0364.0485.0606.0727.0969l-.0242.0242h.0364s.0364.0121.0485.0364c.0242.0364.0242.0606.0364.0969l-.0364.0242h.0364s.0364.0606.0485.0969h-.0364.0364c0,.0242.0242.0364.0242.0606l-.0242.0242s-.0727-.0485-.1091-.0727l.0242-.0485-.0364.0364.0364.0002ZM436.8456,630.7427s.0727.0364.1091.0606v.0364l.0121-.0242c.0364.0242.0606.0364.1091.0606l-.0242.0364.0364-.0242s.0606.0849.097.1212v.0242-.0121c.0364.0364.0727.0849.1091.1333v.0242-.0121c.0242.0364.0485.0606.0727.097l-.0242.0242h.0364s.0242.0121.0485.0364c0,.0121,0,.0364.0242.0485l-.0364.0242h.0364s.0485.0849.0606.1333l-.0364.0242h.0364s.0242.0364.0242.0606l-.0242.0242s-.0727-.0485-.1091-.0727l.0242-.0485-.0364.0364s-.0727-.0606-.1212-.0849l.0242-.0485-.0364.0364s-.0848-.0606-.1212-.097l.0242-.0485-.0364.0364h0l-.1212-.097.0242-.0485-.1576-.1333-.0485.0364-.1455-.1212.0242-.0485-.0485.0364-.1333-.1091h0l.0364-.0485s-.097-.0849-.1455-.1212v-.0242s.0727.0121.1091.0121v.0727l.1333.0121.0242-.0727h.0606c.0121,0,.0485.0364.0727.0485v.0485l.0242-.0364.0122-.0122ZM437.5486,631.6154s0,.0242.0121.0364c0,0-.0121,0-.0242-.0121v-.0242h.0121ZM437.5486,636.0758s0,.0242.0121.0364c0,0-.0121,0-.0242-.0121v-.0242h.0121ZM437.0153,616.7312s-.1091-.0849-.1697-.1091v-.0485l-.0121.0364c-.0485-.0364-.1091-.0727-.1697-.1091v-.0364l-.0121.0364c-.0606-.0364-.1091-.0727-.1697-.1212l.0242-.0364-.0364.0364s-.0727-.0485-.1091-.0727h0l.1697.0242v-.0727c.0606,0,.097.0121.1455.0242v.0727l.0121-.0606c.0364,0,.0727,0,.1212.0121v.0606l.0121-.0606c.0485,0,.1091.0121.1576.0242v.0606l.0242-.0606c.0485,0,.097.0364.1333.0485v.0485l.0121-.0485c.0485.0121.097.0364.1455.0606v.0485l.0121-.0364c.0485.0242.097.0242.1333.0606l-.0242.0606.0364-.0485s.0848.0849.1212.1212v.0364-.0242c.0364.0242.0606.0606.097.0849l-.0242.0242.0242-.0242s.0606.0485.0848.0849l-.0242.0242.0364-.0242s.0485.0606.0727.097l-.0242.0242h.0364s.0485.0727.0727.1212l-.0242.0242h.0242s.0242.0364.0364.0485l-.0242.0606s-.0727-.0121-.1091-.0242v-.0606l-.0121.0606c-.0364,0-.0606,0-.1091-.0242h-.0242v-.0606l-.0242.0606c-.0364-.0121-.097-.0485-.1333-.0727v-.0485l-.0121.0485c-.0485-.0242-.097-.0485-.1576-.0727v-.0485l-.0121.0364c-.0606-.0242-.1091-.0485-.1697-.0849v-.0485l-.0121.0364c-.0606-.0364-.1091-.0606-.1697-.097l.0242-.0485-.0364.0364.0363-.0607ZM437.9971,617.107s.0364.0485.0364.0727h-.0364v-.0727ZM436.6517,620.4886c.1333.0849.2788.1939.4242.303-.206-.0606-.3757-.0727-.5454-.097-.1455-.0121-.2182-.0242-.2788-.0485-.097-.0485-.2545-.1576-.4121-.2788v-.3636c.2424.1333.5091.2909.8121.4848ZM435.9972,623.2279l.3636.303c.0727.0606.1576.1333.2667.206-.0485-.0242-.1212-.0485-.1212-.0485,0,0-.1576-.0485-.1697-.0485,0,0-.1576-.0485-.1697-.0485l-.2788-.0727v.0727h-.0364v-.0485l.1576-.303-.0121-.0122ZM436.0578,628.7792l.1333.097c.2909.2182.5939.4363.9333.6666-.0121,0-.0242-.0121-.0364-.0121-.206-.0606-.3879-.0727-.5454-.097-.1455-.0121-.2182-.0242-.2788-.0485-.097-.0485-.2545-.1576-.4121-.2788v-.4606c.0727.0485.1455.097.2182.1454l-.0121-.0121ZM436.3366,638.4636l-.497.2909v-.5818c.1697.0969.3394.1939.497.2909h0ZM437.5123,642.4028h.1212v.0606l.0364-.0606c.0606,0,.1091.0242.1576.0364v.0606l.0242-.0485c.0485.0121.097.0364.1455.0606v.0606l.0242-.0485c.0485.0242.0848.0485.1333.0849l.0121.0121-.0242.0485.0364-.0364s.0727.0849.1212.1333v.0242-.0242c.0242.0364.0606.0606.0727.0849l-.0242.0242.0242-.0242s.0485.0727.0727.1091l-.0242.0364h.0364s.0485.0969.0727.1454l-.0242.0242h.0364s0,.0121.0121.0242h0v.0606h-.1818v-.0606l-.0121.0606c-.0364,0-.0848,0-.1333-.0121v-.0606l-.0242.0606c-.0485,0-.097-.0242-.1576-.0364v-.0606l-.0242.0606c-.0485,0-.1091-.0242-.1697-.0364v-.0727l-.0242.0606c-.0485-.0121-.1212-.0364-.1697-.0485v-.0727l-1.1636-.4363h0s.1818-.0242.1939-.0242c0,0,.1697-.0242.1818-.0242v-.0849s.097,0,.1455-.0121l.0242.0849v-.0849h.1333l.0242.0727v-.0849h.1212v.0727l.0242-.0727h.1697l.0242.0727v-.0727l-.0242-.0362ZM438.0092,646.0269s.0727.0485.1091.0727v.0485l.0242-.0364c.0364.0242.0606.0364.097.0606l-.0242.0364.0364-.0364s.0727.0606.097.0969l-.0242.0364.0364-.0242s.0727.0606.1091.1091l-.0242.0364.0364-.0242s.0727.0727.1091.1212l-.0242.0364.0364-.0242s.0727.0849.1091.1333l-.0242.0242.0364-.0242s.0606.0727.097.1212h0l-.0364.0364h.0485s.0485.0849.0727.1333l-.0242.0242h.0364s.0485.0849.0727.1333l-.0242.0242h.0364s.0242.0364.0364.0606v.0485c-.0606-.0242-.1091-.0364-.1697-.0606v-.0606l-.0242.0485c-.0606-.0242-.1091-.0485-.1697-.0727v-.0606l-.0242.0485c-.0606-.0242-.1091-.0485-.1697-.0849v-.0606l-.206-.1091-.0242.0485c-.0727-.0364-.1212-.0606-.1818-.0969v-.0606l-.0242.0485c-.0485-.0242-.097-.0485-.1333-.0727l-.0485-.0242v-.0606l-.0242.0606-.1818-.0969v-.0727l-.1818-.0969-.1697-.0849-.1697-.0727s-.0242,0-.0485-.0242c.0242,0,.0485-.0121.0606-.0121,0,0,.1212-.0485.1333-.0485l.206-.0849v-.0849s.1212-.0485.1818-.0606l.0364.0727v-.0727h.1091s.0242,0,.0364.0121v.0727l.0364-.0606c.0364.0121.0727.0242.1212.0485v.0606l.0121-.0485h-.0121ZM439.0516,650.7419h.3151v-.0849h.0848s.0485.0121.0727.0242l.0242.0606v-.0606c.0606,0,.1091.0242.1576.0364v.0485l.0242-.0364c.0485.0121.097.0121.1454.0364v.0606l.0121-.0485c.0364.0121.0727.0485.097.0727v.0364l.0121-.0242c.0364.0242.0727.0485.1212.0849l-.0242.0364.0364-.0242s.0727.0485.1091.0849l.0121.0121-.0364.0485.0485-.0242s.0727.0849.1091.1212l-.0242.0364.0364-.0242s.0606.0606.0849.0969l-.0364.0364.0485-.0242s.0485.0727.0727.1091l-.0364.0364.0364-.0242s.0606.0849.0727.1212h0s-.0727-.0121-.1091-.0242v-.0606l-1.4908-.703h.0485l-.0242-.0365ZM439.0274,647.2632v-.0485s.0242.0485.0364.0606c0,0-.0242,0-.0364-.0121h0ZM439.3061,656.281s.0485.0606.0727.0849l-.0364.0242.0364-.0242s.0242.0364.0364.0485c0,.0121.0121.0242.0242.0485l-.0364.0242.0364-.0242s.0485.1091.0848.1576l-.0242.0242h.0242s.0485.0727.0606.1091l-.0242.0242h.0364s.0242.0364.0364.0606v.0242c-.0606-.0242-.1212-.0364-.1697-.0606v-.0606l-.8848-.4485c.0606,0,.1212.0364.1697.0364.1455,0,.2788-.0485.4242-.1091.0121,0,.0364,0,.0485-.0121h0s.0364.0364.0485.0485l-.0242.0242h.0606ZM439.7788,660.7051v.0485l.0242-.0364c.0606.0242.1091.0606.1697.0969v.0364-.0364c.0364.0242.0606.0485.097.0727v.0364-.0242c.0364.0242.0727.0485.1091.0849l-.0242.0485.0364-.0364s.0242.0121.0364.0242c.0242.0242.0485.0606.0727.0849l-.0242.0485.0364-.0364s.0727.0849.1091.1212l-.0242.0485.0364-.0364s.0485.0606.0727.0969l-.0242.0364.0364-.0242s.0485.0727.0727.1091l-.0242.0364s-.0485-.0121-.0727-.0242v-.0606l-1.4908-.703h.6182l.0121-.0364c.0485,0,.097.0121.1454.0364v-.0122ZM439.6698,656.8992h0ZM440.6152,661.4808v.0242h-.0242.0242v-.0242ZM438.5789,659.1051s-.097-.0485-.1455-.0727v-.0485l-.0121.0485c-.0485-.0242-.097-.0485-.1576-.0727v-.0485l-.8848-.5697h.0364v-.0727h.0242c.0485,0,.0848.0121.1333.0242v.0727l.0242-.0727c.0485,0,.097.0121.1333.0242v.0606l.0121-.0606c.0364,0,.0848,0,.1333.0242v.0606l.0121-.0606c.0485,0,.097.0242.1333.0364v.0606l.0242-.0485c.0606.0121.1212.0485.1697.0727v.0485-.0364c.0364.0121.0727.0242.1091.0485v.0485l.0121-.0485c.0121,0,.0364,0,.0485.0242.0242.0121.0364.0364.0485.0485v.0485-.0364c.0364.0242.0606.0606.097.0849v.0364-.0242c.0364.0364.0727.0606.097.0969v.0242-.0242c.0242.0364.0606.0606.0848.0849l-.0242.0364.0364-.0242s.0364.0727.0727.1091l-.0242.0242.0242-.0242s.0485.0849.0727.1212l-.0242.0242h.0364s.0485.0606.0606.0849c-.0242,0-.0606-.0121-.0848-.0242v-.0606l-.0121.0606c-.0364,0-.0727-.0121-.1212-.0242v-.0606l-.0242.0606c-.0242,0-.0364,0-.0727-.0121-.0242,0-.0485-.0242-.0606-.0364v-.0606l-.0242.0485.0364-.0243ZM438.3971,668.0987s-.0727-.0485-.1212-.0849l.0242-.0485-.0364.0364s-.0848-.0727-.1333-.1091l.0242-.0485-.0364.0364s-.0364-.0242-.0485-.0364l-.0848-.0727.0242-.0485-.0485.0364-.1455-.1212.0242-.0485-.0485.0364-.1455-.1212.0242-.0485-.1697-.1454-.0485.0364s-.0727-.0606-.1212-.0969h.0848v-.0727s.097.0121.1455.0242v.0727l.0242-.0727c.0364,0,.0606,0,.0848.0121,0,0,.0364.0242.0485.0242v.0606l.0242-.0485c.0364.0121.0727.0364.1091.0606v.0364l.0121-.0242c.0485.0242.0848.0364.1333.0849l-.0242.0364.0242-.0364s.0606.0727.097.1091v.0242-.0121c.0242.0242.0485.0606.0727.0969h-.0121.0242c.0242.0364.0606.0606.0848.1091l-.0242.0242h.0364s.0485.0364.0727.0727v.0121l-.0364.0242h.0485s.0364.0606.0485.0969l-.0364.0242h.0364s.0364.0606.0485.0969h-.0364.0364c0,.0242.0242.0485.0242.0727-.0242-.0121-.0606-.0364-.0848-.0606l.0242-.0485-.0364.0364.0122.0123ZM438.4092,663.6625h.0242-.0242ZM438.1547,648.451s.1091.0364.1697.0727v.0485l.0121-.0485c.0121,0,.0364,0,.0485.0242.0242.0121.0364.0364.0485.0485v.0485-.0364c.0364.0242.0606.0606.0848.0849v.0364-.0242c.0364.0364.0727.0606.097.0969v.0242-.0242c.0242.0364.0606.0606.0848.0849l-.0242.0364.0364-.0242s.0364.0727.0727.1091l-.0242.0242.0242-.0242s.0485.0849.0727.1212l-.0242.0242h.0364s.0485.0606.0606.0849c-.0242,0-.0606-.0121-.0848-.0242v-.0606l-.0121.0606c-.0364,0-.0727-.0121-.1212-.0242v-.0606l-.0242.0606c-.0242,0-.0364,0-.0727-.0121-.0242,0-.0485-.0242-.0606-.0364v-.0606l-.0242.0485c-.0485-.0242-.097-.0485-.1455-.0727v-.0485l-.0121.0485c-.0485-.0242-.097-.0485-.1576-.0727v-.0485l-.8848-.5697h.0364v-.0727h.0121c.0485,0,.0848.0121.1333.0242v.0727l.0242-.0727c.0485,0,.0848.0121.1333.0242v.0606l.0121-.0606c.0364,0,.0848,0,.1212.0242v.0606l.0121-.0606c.0485,0,.097.0242.1455.0364v.0606l.0242-.0485c.0364,0,.0727.0364.1091.0485v.0364-.0364l.0606-.0121ZM439.1728,662.2565c.3394.1697.7515.3394,1.1636.4242l-.7757.4485c-.0485-.1212-.0848-.2424-.1455-.3515-.1576-.2788-.3636-.5333-.5939-.7272.1212.0727.2303.1454.3636.2182l-.0121-.0121ZM437.5729,652.56c.1333.0849.2788.1939.4242.2909-.206-.0606-.3757-.0727-.5454-.0969-.1455-.0121-.2182-.0242-.2788-.0485-.1455-.0727-.3879-.2545-.6424-.4606-.206-.1576-.4485-.3394-.6909-.5212v-.1333s.0848.0364.1212.0606c.5333.2545.9818.4848,1.6121.8969v.0121ZM436.9911,660.8384l.1212.0969c.2909.2182.606.4485.9333.6666-.0121,0-.0242-.0121-.0364-.0121-.206-.0606-.3879-.0727-.5454-.0969-.1455-.0121-.2182-.0242-.2788-.0485-.1455-.0727-.3879-.2545-.6545-.4606-.206-.1576-.4363-.3394-.6909-.5212v-.3879c.4.2424.7757.497,1.1393.7757l.0121-.0121ZM442.2636,669.4562l-1.6242.9333c-.0727-.0849-.1454-.1697-.2303-.2424-.3515-.3515-.7394-.606-1.0666-.8121l2.9211-1.6848v1.806ZM442.2636,666.2563l-2.6302,1.5151s-.0485-.1091-.0727-.1697h.0606c.0364,0,.0606-.0242.0849-.0242.0485,0,.097-.0121.1333-.0364.0242,0,.0606,0,.0849-.0242l2.3393-1.3454v.0849h0ZM442.2636,664.7776l-2.2787,1.3212c-.0727-.1091-.1454-.2182-.2303-.3272.1576,0,.303-.0485.4363-.1091.0364-.0121.0849,0,.1212-.0364l1.9635-1.1393v.2788l-.0121.0121ZM442.2636,663.105l-1.5999.9212-.0485-.0969,1.6484-.9575v.1333ZM440.6273,661.5051v.0121h0v-.0121ZM442.2636,660.7536l-.5212.303c-.2303-.4727-.5939-.8363-.6545-.9091-.1576-.1576-.3273-.2788-.497-.3757l1.6727-.9696v1.9514h0ZM442.2636,657.3961l-2.2302,1.2848c-.0849-.1939-.1939-.3757-.3273-.5454.0849.0121.1818.0364.2667.0364.1697,0,.3151-.0485.4485-.1091.0121,0,.0364,0,.0485-.0121l1.7817-1.0303v.3757h.0121ZM442.2636,655.6265l-1.4666.8485c-.097-.2424-.2182-.497-.3636-.7151-.0364-.0606-.0849-.1091-.1212-.1697l1.9514-1.1272v1.1636ZM442.2636,653.0812l-2.6302,1.5151c-.0606-.1818-.1333-.3757-.2303-.5454-.097-.1576-.206-.3151-.3273-.4485.3394.2303.6182.3879.8485.4485.0727.0242.1576.0364.2303.0364.0242,0,.0485,0,.0727-.0121h.0121c.0242,0,.0606-.0242.0849-.0242.0485,0,.097-.0121.1333-.0364.0242,0,.0485,0,.0849-.0242l1.7211-.9939v.0849h0ZM442.2636,650.7782l-.5212.303c-.2303-.4727-.5939-.8485-.6545-.9091-.1576-.1576-.3273-.2788-.497-.3757l1.6727-.9696v1.9514h0ZM442.2636,647.4208l-2.2302,1.2848c-.0485-.0969-.0849-.1939-.1454-.2909l2.3757-1.3696v.3757h0ZM442.2636,645.6512l-2.0848,1.1999c-.097-.2424-.2182-.4848-.3636-.7151-.4848-.7393-1.1999-1.2848-1.8302-1.3939-.0848-.0121-.1576-.0121-.2303-.0121l.5091-.2909c.0848,0,.1818.0242.2545.0242.2909,0,.497-.0606.6788-.1454.0242,0,.0485,0,.0727-.0242l2.9938-1.7333v3.0908ZM442.2636,641.1786l-2.6059,1.503c-.1576-.4-.4485-.7757-.7636-1.0303-.6545-.5212-1.3818-.5091-1.9999-.4242-.3151.0364-.6545.0727-1.0181.0849l2.7999-1.612c.1818.0727.4.1454.6303.1454.1455,0,.2788-.0364.4121-.1091l.0121-.0121,2.5454-1.4666v2.9211h-.0121ZM442.2636,636.8637l-2.5454,1.4666c-.0727-.0849-.1454-.1697-.2303-.2424-.2788-.2788-.6424-.5454-1.0787-.8l3.8544-2.2181v1.7939h0ZM442.2636,633.6638l-3.5514,2.0484s-.0485-.1091-.0727-.1697h.0606c.0364,0,.0606-.0242.097-.0242s.0848-.0121.1212-.0364c.0242,0,.0606,0,.0848-.0242l3.2605-1.8787v.0849h0ZM442.2636,632.173l-3.212,1.8545c-.0727-.1091-.1455-.2182-.2303-.3273.1576,0,.303-.0485.4363-.1091.0364-.0121.0848,0,.1212-.0364l2.8847-1.6727v.2909ZM442.2636,630.5003l-2.5211,1.4545s-.0364-.0727-.0485-.1091l2.5696-1.4908v.1454ZM442.2636,628.1489l-1.4424.8363c-.2303-.4727-.5939-.8363-.6545-.9091-.1576-.1576-.3273-.2788-.497-.3757l2.5938-1.503v1.9514ZM442.2636,624.8036l-3.1514,1.8181c-.0848-.1939-.1939-.3757-.3273-.5454.097.0121.1818.0364.2667.0364.1576,0,.3151-.0485.4485-.1091.0242,0,.0364,0,.0606-.0121l2.7029-1.5636v.3757h0ZM442.2636,623.034l-2.3878,1.3818c-.097-.2424-.2182-.497-.3636-.7151-.0364-.0606-.0848-.1091-.1212-.1697l2.8726-1.6605v1.1636ZM442.2636,620.4765l-3.5514,2.0484c-.0606-.1818-.1333-.3757-.2303-.5454-.097-.1576-.206-.3151-.3273-.4485.3394.2303.6182.3879.8484.4485.0727.0242.1576.0364.2303.0364.0242,0,.0485,0,.0727-.0121h.0121c.0364,0,.0606-.0242.0848-.0242.0485,0,.0848-.0121.1333-.0364.0242,0,.0606,0,.0849-.0242l2.6423-1.5272v.0849h0ZM442.2636,618.1736l-1.4424.8363c-.2303-.4727-.5939-.8363-.6545-.9091-.1576-.1576-.3273-.2788-.497-.3757l2.5938-1.503v1.9514ZM442.2636,614.8283l-3.1514,1.8181c-.0485-.097-.0848-.1939-.1455-.2909l3.2968-1.903v.3757h0ZM442.2636,613.0586l-3.0059,1.7333c-.097-.2424-.2182-.497-.3636-.7151-.4848-.7394-1.2121-1.2848-1.8302-1.3939-.0848-.0121-.1576-.0121-.2303-.0121l.497-.2909c.0848,0,.1818.0242.2545.0242.2909,0,.5091-.0606.6788-.1454.0242,0,.0485,0,.0727-.0242l3.9271-2.2666v3.0908ZM442.2636,608.5861l-3.5271,2.0363c-.1576-.4-.4485-.7636-.7636-1.0303-.6545-.5212-1.3818-.497-1.9757-.4363-.0485,0-.1091,0-.1576.0121v-.4363l2.1454-1.2363c.5091.0727,1.0181.1212,1.5272.1212.9212,0,1.8424-.1091,2.7514-.3394v1.309h0ZM442.2636,606.0165c-2.1211.5818-4.3634.4848-6.424-.303v-3.1029c1.1878.2424,2.4241.3879,3.6726.3879.9212,0,1.8424-.0849,2.7514-.2182v3.2362h0ZM442.2636,601.5561c-2.1211.3273-4.3634.2667-6.424-.1697v-7.6845c1.1878.2424,2.4241.3879,3.6726.3879.9212,0,1.8424-.0849,2.7514-.2182v7.6845h0ZM442.2636,592.6474c-2.1211.3273-4.3634.2788-6.424-.1697v-10.0117c1.1151-1.4666,2.3757-2.6423,3.6847-3.4665.9454.5939,1.8787,1.3939,2.7393,2.3393v11.3086h0ZM435.8396,580.5631v-3.6968l2.5211,1.4545c-.8727.6181-1.7333,1.3575-2.5211,2.2423ZM442.2636,579.6177c-.5212-.4848-1.0424-.9333-1.5878-1.309l1.5878-.9212v2.2302ZM442.2636,575.9936l-2.7514,1.5878-3.6726-2.1211v-9.0057c0-5.1028-3.5998-11.3329-8.0118-13.8903l-106.2742-61.3549,116.4071-67.2092c-.1212,1.5878-.2424,3.1635-.3515,4.7392l-.2303,3.1756c-.1697,2.3272-.3515,4.618-.5212,6.933-14.363,8.4239-22.2657,19.5992-22.2415,31.5017.0242,12.0237,8.133,23.296,22.8233,31.7199,14.8357,8.5208,34.2894,12.957,54.0341,12.957,10.6905,0,21.4536-1.309,31.6229-3.9635l-72.8211,42.0467c-4.424,2.5575-8.0118,8.7754-8.0118,13.8903v9.0057-.0121ZM445.8998,680.886c-.0364.7515-.1697,1.4424-.4,2.0484-.2424.6303-.5818,1.1515-.9818,1.4909-.3636.303-.7515.4485-1.103.4-.3151-.0485-.5818-.2424-.7636-.5575-.1697-.2909-.2545-.6788-.2545-1.103v-2.0363c.0849-.0242.1697-.0727.2424-.1333.1939-.1576.3515-.4.5091-.8.0364-.0849.0606-.1697.097-.2788.0485-.1576.097-.3636.1454-.606l2.509,1.4545v.1212ZM445.9119,679.3831l-2.4241-1.406v-109.9347l2.4241,1.406v109.9347ZM443.4999,566.6485c.1454-4.5453,3.2483-9.9147,7.1027-12.3146l2.4605,1.4181c-3.7332,2.6181-6.7027,7.7694-7.1027,12.3146l-2.4605-1.4181ZM697.1739,537.6316c-.2667.6666-.6545,1.2-1.1878,1.6121-.1454.1091-.303.2182-.4727.3151h0l-248.8499,143.6666c.2424-.6909.4-1.4424.4485-2.2787v-.1697l250.4014-144.5635c-.0727.5091-.1697.9939-.3394,1.406v.0121ZM697.5981,534.7711l-250.4862,144.612v-110.2862c0-4.7149,3.3211-10.4723,7.4057-12.8358h0l236.2565-136.4063h0c1.8666-1.0787,3.5877-1.2727,4.8483-.5454,1.2606.7272,1.9514,2.3151,1.9514,4.4725v110.9892h.0243Z"/>
  </g>
  <g id="Layer_3" data-name="Layer 3">
    <path d="M433.59,684.32c.2955.2037.6416.3214,1,.34.5049.0305.9932-.1857,1.31-.58.3064-.3868.4877-.8576.52-1.35,1.0575.1386,2.1235.2021,3.19.19.7662-.0223,1.5306-.0858,2.29-.19v.19c-.0091.4894.1117.9725.35,1.4-4.4,4.15-8.16,5.63-16,5.63h-171.91l-138.2-80.43c-.989-.5844-1.3171-1.8598-.7328-2.8488.3637-.6156,1.0181-1.0012,1.7328-1.0212h35.39c4.8,0,6.31-1,6.31-4.37,0-3.07-1-3.52-4.46-3.52h-38.64c-1.4959-.048-2.6697-1.2996-2.6217-2.7955.0288-.8986.5015-1.7244,1.2617-2.2045l170.26-99.61v94.02c.0505.9375.2047,1.8665.46,2.77.13.44.28.88.45,1.34v4c-.0116.7785.0963,1.5542.32,2.3.3089,1.1371,1.0572,2.1049,2.08,2.69l145.63,84.07.01-.0201Z"/>
  </g>
</svg>