<?xml version="1.0" encoding="UTF-8"?>
<svg xmlns="http://www.w3.org/2000/svg" viewBox="0 0 1000 1000">
  <g id="Layer_2" data-name="Layer 2">
    <path d="M842.9507,487.7801c-.3295-1.1983-.8188-2.3865-1.4678-3.5249-.6291-1.1184-1.4179-2.2168-2.3266-3.2553-.8987-1.0185-1.9372-1.9971-3.0955-2.9158-1.1384-.8987-2.4065-1.7575-3.7545-2.5463h0l-185.7396-107.2339,32.283-18.6429c.3595-.2097.709-.4394,1.0185-.689.3495-.2696.679-.5792.9686-.8987.3295-.3595.6091-.7389.8587-1.1483.2696-.4493.4893-.9286.6491-1.4179.1697-.5292.2696-1.0784.3095-1.6276h0l5.1225-87.5126v-.0399c0-.0499.01-.1098.01-.1598,0-1.5677-1.0185-3.0256-2.8758-4.094l-58.8244-33.9606c-37.0061-21.3689-97.2285-21.3689-134.2446,0l-13.6801,7.8985c-1.8573,1.0684-2.8758,2.5263-2.8758,4.094,0,.0499.01.0999.01.1598v.0499l5.1225,87.5126c.03.5492.1398,1.0984.3095,1.6276.1598.4893.3795.9686.649,1.4179.2396.4094.5292.7889.8587,1.1483.2896.3195.6191.6191.9686.8987.3195.2496.659.4793,1.0285.689l32.4927,18.7627-349.0419,201.4967h0c-1.358.7789-2.6162,1.6376-3.7545,2.5363-1.1583.9187-2.1968,1.8972-3.0955,2.9158-.9187,1.0385-1.6975,2.1269-2.3266,3.2553-.6391,1.1384-1.1383,2.3266-1.4679,3.5249-.3295,1.2182-.4993,2.4564-.4993,3.6946v11.9726c0,5.7316,3.8244,11.0938,10.7743,15.108l46.0729,26.6013,4.813,56.0983h0v.0599c.2696,3.0555.9187,6.1111,1.9472,9.0868,1.0085,2.9257,2.3865,5.8115,4.104,8.5775,1.6676,2.6761,3.6647,5.2923,5.9613,7.7687,2.2268,2.4065,4.7631,4.7231,7.549,6.88,2.716,2.1169,5.7217,4.124,8.907,5.9713l131.8581,76.1292c6.7102,3.8744,14.3391,7.0797,22.697,9.5361,8.218,2.4165,16.9853,4.0641,26.0621,4.8929,4.5134.4094,9.0668.6191,13.6102.6191s9.0967-.2097,13.6102-.6191c9.0668-.8288,17.844-2.4764,26.0621-4.8929,8.3478-2.4564,15.9867-5.6617,22.697-9.5361l250.056-144.3698c3.1954-1.8373,6.191-3.8444,8.907-5.9713,2.776-2.1669,5.3123-4.4835,7.549-6.89,2.2866-2.4764,4.2937-5.0926,5.9613-7.7687,1.7175-2.766,3.0955-5.6518,4.104-8.5775,1.0285-2.9956,1.6875-6.0711,1.9572-9.1467l4.823-56.1982,46.0629-26.5913c6.9499-4.0141,10.7743-9.3764,10.7743-15.108v-11.9726c0-1.2382-.1697-2.4764-.4993-3.6946l-.01.0199ZM678.3404,348.8025l-67.4518,38.9433c.02-.1198.03-.2596.04-.3894l67.9311-39.2229c-.1198.2996-.2896.5292-.5193.669ZM785.774,512.0648c1.2282-15.0281-8.268-29.9065-26.3017-40.8106l.4294-7.2994c18.6728,11.014,28.6283,26.072,27.3102,41.4297-.1997,2.3665-.699,4.7531-1.4579,7.0996l.03-.3495v-.0599l-.0099-.01ZM723.6144,554.3333l-.9586-.5492.5293-.2996,1.4579.8388c.689.3994,1.2382.8587,1.6476,1.358l-.7988.4593c-.3695-.689-.9985-1.3081-1.8673-1.8074h-.0101ZM724.613,556.6399l-.7489.4294v-1.338c.3295.2796.5792.5891.7489.8987v.01ZM622.0423,612.9779l-51.7946-29.9065.5292-.2996,52.2939,30.1861c.5991.3495,1.2981.6191,2.047.8188.0499.02.0999.04.1598.04.0699.02.1398.04.2097.0499l-.3994.2297c-1.1384-.2496-2.1868-.6291-3.0456-1.1284v.01ZM623.8597,614.8152l-.9486.5492c-.1797-.2396-.3795-.4693-.6191-.699v-.4394c.4893.2297,1.0085.4194,1.5677.5891h0ZM619.3762,614.5157h0l-.9486-.5492.5292-.2996,1.4479.8388h0c.689.3994,1.2382.8587,1.6476,1.358l-.7988.4593c-.3695-.689-.9985-1.3081-1.8673-1.8074h-.01ZM620.3748,616.8223l-.7489.4294v-1.338c.3295.2796.5791.5891.7489.8987v.01ZM517.8041,673.1603l-51.7946-29.9065.5292-.2996,52.2939,30.1861c.5991.3495,1.2981.6191,2.047.8188.0499.02.0899.03.1398.04.0699.02.1498.04.2297.0599l-.3994.2297c-1.1384-.2496-2.1868-.6291-3.0456-1.1284h0ZM519.6114,674.9976l-.5093.2996c-.3595-.1598-.709-.2796-1.0485-.3695v-.5093c.4893.2297,1.0085.4194,1.5677.5891l-.01-.01ZM514.8983,675.2373l-1.5278.8787h-.01c-.4394.2596-.8388.6091-1.1583,1.0685h0l-2.027,2.8858c-1.4579.709-2.9557,1.388-4.4735,2.047-.1598-.0799-.3195-.1498-.4793-.2496h0l-37.1459-21.4488c-2.1669-1.2482-4.1939-3.7845-5.2923-6.5904l-3.475-8.947.6091-.8587c.2496-.3495.5392-.6191.8787-.8088h0c1.0185-.5692,2.4265-.4194,3.9542.4593h0l52.2839,30.1861v.8887c-.7889-.04-1.5178.1098-2.1569.4793l.02.0099ZM516.4361,676.815c-1.4279.8088-2.8858,1.5877-4.3836,2.3466l.9686-1.378h0c.7489-1.0585,1.9571-1.378,3.415-.9586v-.01ZM390.6492,608.6342h-.02c-.01,0-.03.01-.0499.02l-1.4579.8388-.5292-.2996.9586-.5492c3.3651-1.9472,8.8471-1.9472,12.2122,0l50.3767,29.0777-.5292.2996-50.8759-29.3673h0c-.01,0-.03-.01-.0399-.02h-.02c-2.7859-1.5677-7.2494-1.5677-10.0354,0h.01ZM399.9956,609.4031v80.6027c-2.8159-.659-5.5919-1.388-8.3179-2.1868-.1198-.03-.2297-.0699-.3495-.1098v-78.306c2.4564-1.2881,6.201-1.2881,8.6574,0h.01ZM315.2789,648.0169l-43.7563-25.2632c.4394-.4993.7689-1.1284.9286-1.7475l46.8618,27.0506-.5891.3395-.1797-.0999h0c-.9087-.5192-2.027-.6091-3.2453-.2796h-.02ZM317.0064,648.8457c-.0699.02-.1398.03-.2097.0499l-.1298-.0799c.1198,0,.2297.01.3395.03h0ZM543.4068,271.3952l-1.5078.8687c-.4593.2596-.8587.6191-1.1883,1.0984l-3.6647,5.2224c-.0499.0799-.1198.1298-.1797.1997-.9187.1598-2.0171-.0799-3.1454-.7389l-37.1459-21.4488c-.0999-.0599-.1997-.1298-.2996-.1997l-2.1469-36.6966c35.8278-20.5201,93.8234-20.5201,129.6513,0l-4.8829,83.3686-.8388-1.1883c-.3295-.4693-.7389-.8388-1.1983-1.0984l-1.4978-.8687h0c-1.358-.7889-3.1355-.6291-4.9927.4493h0l-1.5477.8987c-6.221-2.5862-13.0211-4.6732-20.2206-6.211l-40.2115-23.2162c-1.8573-1.0684-3.6247-1.2282-4.9927-.4493l.01.01ZM547.0915,272.3038l-.4793.2796c-.5592-.2996-1.1184-.5192-1.6576-.6491.649-.0699,1.378.0499,2.1369.3695ZM535.1788,279.6931c-.649.0799-1.388-.0399-2.1669-.3695l.4893-.2796c.5692.3095,1.1384.5192,1.6875.6491h-.01ZM532.4727,278.4749l-.5292.2996-36.1474-20.8696.5292-.2996,36.1474,20.8696ZM481.6367,234.4689c1.9771,1.2282,3.8045,3.4949,4.8829,6.0512l-.659.3794c-1.0784-2.5063-2.8459-4.7431-4.783-6.1111,0,0,.5592-.3195.5592-.3195ZM480.758,232.7914l-.2996-5.1924,12.7115-7.3393,2.067,35.3785c-1.6376-1.378-3.0755-3.405-3.9443-5.6318l-3.6647-9.4562c-1.1583-2.9956-3.3351-5.6917-5.6717-7.0697h0c-.02-.01-.03-.02-.0499-.03l-1.1483-.659h0ZM486.909,241.4488l3.3052,8.5176-.649.3794-3.3052-8.5176.649-.3794ZM490.5937,250.895c1.0784,2.5063,2.8359,4.7431,4.783,6.1111l-.5592.3195c-1.9771-1.2282-3.8045-3.4949-4.8829-6.0512,0,0,.659-.3794.659-.3794ZM643.1616,293.1735l3.3052-8.5176.649.3794-3.3052,8.5176-.649-.3794ZM643.4312,294.4815c-1.0784,2.5563-2.9058,4.823-4.8829,6.0512l-.5592-.3195c1.9472-1.368,3.7046-3.6048,4.783-6.1111,0,0,.659.3794.659.3795ZM646.8462,283.7272c1.0784-2.5563,2.9058-4.823,4.8829-6.0512l.5592.3195c-1.9472,1.368-3.7046,3.6048-4.783,6.1111,0,0-.659-.3794-.659-.3795ZM651.4595,276.6575c-2.3566,1.358-4.5434,4.0841-5.7217,7.0997h0l-3.6647,9.4562c-1.0884,2.8159-3.1155,5.3422-5.2923,6.5904l-11.7229,6.7701c-1.1284.6491-2.2367.8987-3.1454.7389-.0599-.0699-.1198-.1298-.1797-.1997h0l-1.9072-2.716,4.9228-84.1375,57.8557,33.4014-.3095,5.1924-30.8351,17.8041h0ZM637.5598,301.1119l-10.7244,6.191-.5292-.2996,10.7244-6.191.5292.2996ZM625.7769,307.8521c-.7889.3295-1.5278.4493-2.1768.3695.5492-.1298,1.1184-.3395,1.6875-.6491l.4893.2796ZM613.8343,300.4628c-.5292.1298-1.0884.3495-1.6476.6491l-.4793-.2796c.7589-.3195,1.4878-.4394,2.1369-.3695h-.01ZM607.5934,301.8508c-1.388.5192-3.0456.689-4.6233.5292-1.3081-.4693-2.6461-.9286-3.9942-1.348l-7.3493-4.2438c5.6218,1.358,10.984,3.0456,15.9767,5.0626h-.01ZM548.1499,272.8431l50.8759,29.3672c1.0585.6091,2.3665.9886,3.7346,1.1383.03,0,.0599.02.0999.02h.03c.3994.0399.8088.0699,1.2182.0699,1.8174,0,3.6347-.3994,5.0327-1.1883h.02s.02,0,.03-.01l1.4579-.8388.5292.2996-.9586.5492c-3.3651,1.9472-8.8371,1.9472-12.2122,0l-50.3767-29.0777.5292-.2996-.01-.0299ZM598.247,386.7372v-83.2888c1.7075.7988,3.7745,1.2282,5.8515,1.2282s4.144-.4194,5.8515-1.2282v83.2888c-3.2952,1.7674-8.4078,1.7674-11.713,0h.01ZM609.8301,387.8956c-.1098.3495-.2996.6291-.5492.7789-.6191.3595-1.2781.6391-2.0071.8488-.669.1997-1.378.3295-2.097.3994-.709.0599-1.4279.0599-2.1369,0-.7289-.0699-1.4279-.1997-2.097-.3994-.7289-.2197-1.388-.4893-2.0071-.8488-.2596-.1498-.4394-.4194-.5492-.7789,1.6776.7589,3.6946,1.1583,5.7217,1.1583s4.0441-.3994,5.7217-1.1583ZM598.4267,389.5432c.689.3994,1.4179.709,2.2268.9386.7289.2197,1.4978.3595,2.2867.4294.3795.0399.7689.0499,1.1583.0499s.7689-.02,1.1583-.0499c.7889-.0699,1.5577-.2197,2.2867-.4294.8088-.2397,1.5378-.5492,2.2268-.9386l10.2751-5.9314c2.4365,1.1483,4.803,2.3765,7.0298,3.6447l-5.0327,86.0048-10.315,5.9513c-.5192.2996-.9686.6291-1.348.9786-15.6073-6.3607-34.6895-9.6959-53.7717-9.3764l-6.87-3.9642c-2.1669-1.2482-4.1939-3.7845-5.2923-6.5904l-3.6647-9.4562c-1.1683-3.0156-3.3651-5.7416-5.7217-7.0997l-42.0787-24.2946-1.8773-32.1532c20.0109-11.4633,47.5608-17.2848,75.6898-15.9867l31.6439,18.2634-.01.01ZM634.8836,382.2038c-.0899.4893-.3894,1.0085-.7689,1.3281-2.3266-1.338-4.783-2.6162-7.3193-3.8145l1.6176-.9386c2.2268,1.0784,4.3936,2.2268,6.4706,3.415v.01ZM629.4416,378.1897l5.482-3.1654v6.0712c-1.7674-.9985-3.6047-1.9771-5.482-2.8958v-.01ZM633.9051,384.5704h0l127.8539,73.8125h0c20.1906,11.653,31.4043,27.7496,30.7852,44.1757-.8188,2.4764-1.8973,4.9428-3.2453,7.3393-.1797.3195-.3795.6291-.5692.9486,5.2524-18.2235-5.0626-37.1659-27.7596-50.2768h0l-131.858-76.1292c-1.7475-1.0085-3.5848-1.9771-5.462-2.9158l2.097-1.2082c2.8359,1.3281,5.5819,2.756,8.1681,4.2438l-.01.01ZM762.7375,456.0164c-.0899.4893-.3894,1.0185-.7689,1.338l-126.9452-73.2933c.3495-.3695.6191-.8488.7689-1.338l126.9452,73.2933h0ZM635.9221,381.6447v-7.1496l126.8553,73.2434v7.1496l-126.8553-73.2434h0ZM683.1234,524.257l5.0426-86.2245c2.4564-1.2981,6.201-1.2981,8.6674-.02l-5.0526,86.4042c-2.5463-1.1483-6.0911-1.2082-8.6574-.1498v-.01ZM691.6909,525.4653c-.1398.699-.5991,1.4379-1.1484,1.8573-1.4878-.7389-3.5448-.8887-5.3023-.3695l-2.037-1.1783c-.0499-.1498-.0799-.2896-.0998-.4294,2.4465-1.1983,6.1411-1.1384,8.5875.1198ZM682.0949,524.7464l-.3495.1997c-1.7575-.9486-3.4949-1.0884-4.783-.3395l-1.4978.8687c-.4594.2596-.8687.6291-1.1983,1.0984l-2.9557,4.2039-2.2966-5.9314c-1.1583-2.9956-3.3251-5.6917-5.6717-7.0597h0c-.02,0-.03-.02-.0499-.03l-42.2984-24.4244c-1.2182-2.8758-3.2752-5.3522-5.532-6.6603l-1.4579-.8388v-5.0027l31.1447-17.9838h0c1.5378-.8887,2.9357-1.0385,3.9542-.4693h0c.3395.1897.6391.4593.8787.8088l3.6647,5.2224c.0799.1198.1897.2097.2796.3095.04.0799.0999.1498.1797.1997.699.689,1.5877,1.0585,2.6062,1.0585.9586,0,2.0071-.3095,3.0955-.9386h0l11.7229-6.7701h0c2.3566-1.358,4.5434-4.0841,5.7217-7.0997h0l3.6646-9.4562c1.0884-2.8159,3.1155-5.3422,5.2923-6.5904l.8987-.5192-5.0426,86.1446h.0299ZM680.647,525.5252l-.4793.2796c-.5592-.2996-1.1184-.5192-1.6576-.649.6491-.0699,1.368.0599,2.1369.3695h0ZM670.9511,534.6419l-3.3052-8.5176.6491-.3795,3.3052,8.5176-.6491.3795ZM671.9896,535.1911c1.0784,2.5064,2.8359,4.7431,4.783,6.1111l-.5592.3195c-1.9771-1.2282-3.8045-3.4949-4.8829-6.0512l.659-.3795h0ZM667.2565,525.1957c-1.0784-2.5064-2.8359-4.7431-4.783-6.1111l.5592-.3195c1.9771,1.2282,3.8045,3.4949,4.8829,6.0512l-.659.3795ZM610.589,533.244l-.5692-2.9956,76.1292,43.956-5.1825-.3295-70.3776-40.6309ZM678.7198,573.735l-61.171-3.8544-6.7202-35.3386,67.8912,39.1929ZM616.4704,569.5311l-1.1384.0699-11.2936-59.3436,1.1384-.0699,11.2936,59.3436ZM622.252,611.3403l-3.5648-2.057-3.405-17.874v-8.1481h.04c.02,0,.03-.01.0499-.02.03,0,.0599-.02.0899-.04.03-.02.0499-.03.0799-.0499s.0499-.04.0699-.0699c.02-.02.04-.0499.0499-.0799.02-.03.03-.0599.04-.0899s.02-.0599.02-.0999c0-.02.01-.03.01-.0499v-5.7117l6.5205,34.2801v.0099ZM615.8314,572.2172l1.1384-.0699,7.6988,40.4411c-.3894-.1398-.7589-.2996-1.0984-.4893l-.1698-.0999-7.569-39.7721v-.01ZM617.5489,608.6242l-28.139-16.2463,25.1134,1.5877h.03c.0599,0,.1198-.01.1797-.03h.01l2.7959,14.6986.01-.01ZM614.733,581.963h-.1897c-.03,0-.0499.01-.0699.02-.03,0-.0699,0-.0999.02-.04.01-.0599.04-.0999.0599-.02.01-.04.02-.0599.04-.03.03-.0499.0599-.0699.0999-.01.02-.03.04-.04.0599-.02.03-.02.0699-.03.1098,0,.02-.02.0499-.02.0699v10.5147l-26.5913-1.6776-16.4361-9.4862c-1.8573-1.0784-3.6347-1.2282-4.9927-.4494h0l-1.5078.8687c-.2996.1698-.5592.3994-.8088.659-1.2082-2.087-2.8658-3.8544-4.6133-4.8729h0c-.01,0-.03-.02-.04-.03h0l-18.4332-10.6445,74.1121,4.6732v10.0054l-.01-.0399ZM614.2037,612.209l-1.4978.8587c-.4593.2596-.8687.6291-1.1983,1.0984l-3.6647,5.2224c-.0499.0799-.1198.1298-.1797.1997-.9087.1598-2.0171-.0799-3.1454-.7389h0l-30.7852-17.7741c-2.1669-1.2482-4.1939-3.7845-5.2923-6.5904l-3.6647-9.4562c-.1598-.4194-.3495-.8388-.5492-1.2482.9985-1.3281,2.776-1.4379,4.783-.2796h0l52.2839,30.1861v.1997c-.1298-.0899-.2596-.1797-.3994-.2596h0l-1.6975-.9786c-1.8273-1.0585-3.6547-1.2182-4.9927-.4494v.01ZM617.8884,613.1177l-.4793.2796c-.5592-.2996-1.1184-.5192-1.6476-.649.649-.0699,1.368.0599,2.1269.3695ZM605.9757,620.5069c-.649.0799-1.388-.04-2.1669-.3695l.4893-.2796c.5692.3095,1.1384.5192,1.6875.649h-.01ZM603.2697,619.2887l-.5292.2996-29.7966-17.205.5292-.2996,29.7966,17.205ZM564.0567,585.9273l3.3052,8.5176-.649.3795-3.3052-8.5176.649-.3795ZM563.0183,585.3781c-1.0784-2.5064-2.8459-4.7431-4.783-6.1111l.5592-.3195c1.9771,1.2282,3.8045,3.4949,4.8829,6.0512l-.659.3795ZM567.7414,595.3735c1.0784,2.5064,2.8359,4.7431,4.783,6.1111l-.5592.3195c-1.9771-1.2282-3.8045-3.4949-4.8829-6.0512l.659-.3795ZM569.2392,582.5122c-.5692-.2996-1.1184-.5192-1.6576-.649.649-.0699,1.378.0599,2.1369.3695l-.4793.2796ZM557.8058,578.3583l-.5292.3095-52.2939-30.1861s-.03-.01-.0499-.02h-.02c-2.786-1.5677-7.2495-1.5677-10.0354,0h-.02c-.01,0-.03.01-.0499.02l-1.4579.8388-.5292-.2996.9586-.5492h0c3.3651-1.9372,8.8471-1.9372,12.2122,0l9.5261,5.502h0l42.2585,24.3945.0299-.01ZM506.3408,593.4264l-.5692-2.9956,76.1292,43.946-5.1825-.3295-70.3776-40.6309v.01ZM574.4816,633.9174l-61.171-3.8544-6.7202-35.3385,67.8912,39.1929h0ZM512.2322,629.7135l-1.1384.0699-11.2936-59.3436,1.1384-.0699,11.2936,59.3436ZM390.9188,604.5402c0-.9586-.3894-1.8773-1.1084-2.6861v-1.5178c1.7075.7988,3.7745,1.2282,5.8515,1.2282s4.144-.4294,5.8515-1.2282v.4693c-.9586.8987-1.4878,1.9571-1.4878,3.0755v2.9757c-2.8558-.8787-6.3108-.8388-9.1167.1198v-2.4265h0l.01-.01ZM387.5437,607.7854l-31.1447,17.9838-.5292-.2996,30.6454-17.6942c1.4479-.8388,2.2467-1.9771,2.2467-3.2153s-.7988-2.3865-2.2467-3.2253l-.9586-.5492.5292-.2996,1.4579.8388c.5692.3295,1.0385.689,1.4179,1.0884,0,0,.01.01.02.02.6191.659.9486,1.388.9486,2.1369,0,1.1983-.8488,2.3466-2.3865,3.2353v-.02ZM389.9202,607.0964v.2796c-.1598.0699-.3195.1398-.4693.2197.1698-.1598.3295-.3295.4693-.4993ZM372.6853,631.9103l-11.7229,6.7701c-1.1284.649-2.2367.8987-3.1454.7389-.0599-.0699-.1198-.1298-.1797-.1997l-3.6647-5.2224c-.3295-.4793-.7389-.8388-1.1983-1.0984l-.9686-.5592c1.1583-2.4065,2.9357-4.4735,4.833-5.5719h0l28.9778-16.7257c-1.6576,1.4779-3.0955,3.5648-3.9742,5.8215l-3.6647,9.4562c-1.0884,2.8159-3.1155,5.3422-5.2823,6.5904h-.01ZM373.4642,633.2284l-10.7244,6.191-.5292-.2996,10.7244-6.191.5292.2996ZM361.6814,639.9586c-.7888.3295-1.5278.4494-2.1768.3695.5492-.1298,1.1084-.3395,1.6875-.649l.4893.2796h0ZM350.927,631.8704c-.2297-.0999-.4693-.1897-.719-.2396,1.0984-2.3566,2.8359-4.4335,4.6732-5.5819l.5592.3195c-1.7874,1.2482-3.415,3.2353-4.5134,5.502h0ZM378.6766,626.2086l.659.3795c-1.0784,2.5563-2.9058,4.823-4.8829,6.0512l-.5592-.3195c1.9472-1.368,3.7046-3.6047,4.783-6.1111ZM379.0561,625.28l3.3052-8.5176.649.3795-3.3052,8.5176-.649-.3795ZM382.7407,615.8337c1.0784-2.5563,2.9058-4.823,4.8829-6.0512l.5592.3195c-1.9472,1.368-3.7046,3.6047-4.783,6.1111l-.659-.3795ZM386.7649,606.3775v-3.6746c.649.5492.9985,1.1883.9985,1.8373s-.3495,1.2881-.9985,1.8373ZM381.3427,599.0082h0l-1.4978.8687c-.4593.2596-.8588.6191-1.1883,1.0984l-3.6647,5.2224c-.0499.0799-.1198.1298-.1797.1997-.9087.1598-2.0171-.0799-3.1454-.7389l-37.1459-21.4488c-2.1668-1.2482-4.1939-3.7845-5.2823-6.5904l-1.0385-2.6661,3.4849-4.9628c.2397-.3495.5392-.6191.8787-.8088h.01c1.0185-.5791,2.4165-.4294,3.9543.4593h0l52.2839,30.1861v1.1184c-.2397-.1797-.4993-.3495-.7789-.5093l-1.7075-.9786c-1.8273-1.0585-3.6447-1.2182-4.9927-.4494h.0099ZM385.0274,599.9269l-.4793.2796c-.5692-.2996-1.1184-.5192-1.6576-.649.649-.0699,1.378.0499,2.1469.3695h-.01ZM373.1147,607.3062c-.649.0799-1.378-.04-2.1668-.3695l.4893-.2796c.5692.3095,1.1383.5192,1.6875.649h-.01ZM370.4087,606.0979l-.5292.2996-36.1474-20.8696.5292-.2996,36.1474,20.8696ZM271.8022,529.8489h0v3.4849l-3.0755-1.7774c-3.6547-2.1069-9.586-2.1169-13.2208,0l-13.6801,7.8985c-.0999.0599-.1997.1198-.3095.1797l-.4693-7.9984,249.0874-143.8107,1.8174,31.0049-9.4263-5.4421c-3.6447-2.097-9.5661-2.1069-13.2108,0l-1.7075.9786c-2.3566,1.358-4.5434,4.0841-5.7217,7.0997l-3.6647,9.4562c-1.0884,2.8159-3.1155,5.3422-5.2823,6.5904l-24.4344,14.1095c-1.1284.649-2.2367.8987-3.1454.7389-.0599-.0699-.1198-.1298-.1797-.1997l-3.6647-5.2224c-.3295-.4693-.7389-.8388-1.1883-1.0984l-1.4978-.8687c-1.338-.7789-3.1654-.6091-4.9927.4493l-34.8992,20.1507c-1.8573,1.0685-2.8858,2.5263-2.8858,4.104v2.9757c-3.5348-1.0784-7.9984-.7889-10.974.9286l-1.7075.9786s-.03.02-.0499.03h0c-2.3366,1.368-4.5034,4.0741-5.6618,7.0597l-3.6647,9.4562c-1.0884,2.8159-3.1155,5.3422-5.2823,6.5904l-24.4344,14.1095c-1.1284.649-2.2367.8987-3.1454.7389-.0599-.0699-.1198-.1298-.1797-.1997h0l-3.6647-5.2124h0c-.3295-.4693-.7389-.8388-1.1983-1.0984l-1.4978-.8687c-1.338-.7789-3.1554-.6091-4.9927.4494l-34.8992,20.1507c-1.8573,1.0685-2.8858,2.5263-2.8858,4.104h0l-.01-.02ZM240.8672,530.5679c-.1598-.4593-.4194-.8987-.7489-1.2482l249.1473-143.8506c.3595.2996.6391.7689.7489,1.2382l-249.1573,143.8506.01.01ZM542.7078,460.5997l-3.3052-8.5176.649-.3795,3.3052,8.5176-.649.3795ZM543.7463,461.1489c1.0784,2.5064,2.8359,4.7431,4.783,6.1111l-.5592.3195c-1.9771-1.2282-3.8045-3.4949-4.8829-6.0512l.659-.3795ZM539.0232,451.1535c-1.0784-2.5063-2.8359-4.7431-4.783-6.1111l.5592-.3195c1.9771,1.2282,3.8045,3.4949,4.8829,6.0512l-.659.3795ZM538.3242,452.0422l3.6647,9.4562c1.1683,3.0156,3.3651,5.7416,5.7217,7.0996h0l30.7852,17.7741h0c1.0884.6291,2.1369.9386,3.0955.9386,1.0185,0,1.9072-.3695,2.6062-1.0585.0799-.0499.1398-.1198.1797-.1997.0899-.1098.1997-.1897.2796-.3095l3.6647-5.2224c.2496-.3495.5392-.6191.8787-.8088h.01c1.0185-.5791,2.4265-.4194,3.9542.4593h0l1.4479.8388v5.0027l-25.7126,14.8484-8.7672-.5492-78.6156-45.3839-.2896-1.5078v-37.8649l51.7946,29.8965c2.1669,1.2482,4.1939,3.7845,5.2923,6.5904h.01ZM599.7847,483.5164c0-1.5677-1.0185-3.0256-2.8858-4.104l-1.7075-.9786c-1.8273-1.0585-3.6547-1.2182-4.9927-.4494l-1.4978.8687c-.4593.2596-.8587.6191-1.1983,1.0984l-1.6176,2.3066c-4.3037-.9686-8.7672-1.7175-13.3006-2.2068l-14.2692-8.238c18.2434-.0899,36.387,3.1454,51.3453,9.1866-.5292.719-.8188,1.5078-.8188,2.3266v3.2652c-2.756-.9286-6.1411-.9686-8.967-.1298l-.0999-.04v-2.9058h.01ZM596.4096,486.7516l-34.6496,20.0009-.5292-.2996,34.1503-19.7213c1.4479-.8388,2.2467-1.9771,2.2467-3.2253s-.7988-2.3865-2.2467-3.2253l-.9586-.5492.5292-.2996,1.4579.8388c1.5378.8887,2.3865,2.037,2.3865,3.2353s-.8488,2.3466-2.3865,3.2353v.01ZM598.7862,486.0726v.7589c-.4294.1797-.8488.3595-1.2382.5791l-.3994.2297v-.1797c.669-.4194,1.2182-.8787,1.6376-1.388h0ZM581.1718,511.5456l-24.4344,14.1095h0c-1.1483.659-2.2268.9087-3.1454.7389-.0599-.0699-.1198-.1298-.1797-.1997l-.8687-1.2382c.1797-.3795.3595-.7589.5093-1.1284l3.6647-9.4562c1.0884-2.8159,3.1155-5.3422,5.2823-6.5904h0l34.1503-19.7213v.1698l-.3095.1797c-2.3566,1.358-4.5534,4.0841-5.7217,7.0996l-3.6647,9.4562c-1.0884,2.8159-3.1155,5.3422-5.2923,6.5904l.0099-.01ZM581.9507,512.8537l-23.4359,13.5303-.5292-.2996,23.4359-13.5303.5292.2996ZM557.4564,526.9331c-.7889.3295-1.5278.4494-2.1768.3695.5492-.1298,1.1184-.3395,1.6875-.649l.4893.2796ZM542.0588,519.444l-4.6632,2.6961-43.5965-2.746-4.0441-21.269,75.6499,4.7731-5.4121,3.1255c-2.3566,1.358-4.5434,4.0841-5.7217,7.0996l-3.5648,9.1966-.9486-1.348h0c-.3295-.4693-.7289-.8288-1.1783-1.0884l-1.5078-.8687h0c-1.338-.7689-3.1554-.6091-4.9827.4494l-.0299-.02ZM545.5038,519.5439c-.5292.1298-1.0884.3495-1.6476.649l-.4793-.2796c.7589-.3195,1.4878-.4394,2.1269-.3695ZM506.4306,543.6987c0,1.2382.7988,2.3865,2.2467,3.2153l.9586.5492-.5292.2996-1.4579-.8388c-1.5378-.8887-2.3865-2.037-2.3865-3.2353,0-.8887.4693-1.7575,1.338-2.5064h0c.2996-.2596.649-.4993,1.0385-.7289l4.2039-2.4265s.01,0,.02-.01l30.4257-17.5644.5292.2996-34.1503,19.7213c-1.4479.8388-2.2467,1.9771-2.2467,3.2253h.01ZM508.4377,541.8614v3.6746c-.649-.5492-.9985-1.1883-.9985-1.8373s.3495-1.2881.9985-1.8373ZM510.1053,549.6701l-2.1968-1.2681v-.1698l.9586.5492h0c.4194.2396.8388.5492,1.2382.8887h0ZM510.0554,548.3819l.5692-.3295c1.4779.9187,2.8658,2.4065,3.9343,4.1839l-1.4779-.8488c-.9087-1.2282-1.9372-2.2467-3.0256-3.0056ZM495.5465,543.6987c0-1.1184-.5292-2.1669-1.4878-3.0755v-.4693c1.7075.7988,3.7745,1.2282,5.8515,1.2282s4.144-.4294,5.8515-1.2282v.4693c-.9586.8987-1.4878,1.9472-1.4878,3.0655h0v2.9757c-2.726-.8388-6.0013-.8388-8.7373,0v-2.9757h0l.01.01ZM492.1614,546.934l-34.6496,20.0009-.5292-.2996,34.1503-19.7213c1.4479-.8388,2.2467-1.9771,2.2467-3.2153s-.7988-2.3865-2.2467-3.2253l-.9586-.5492.5292-.2996,1.4579.8388c1.5378.8887,2.3865,2.037,2.3865,3.2353s-.8488,2.3466-2.3865,3.2353ZM494.548,546.255v.7589c-.4294.1797-.8488.3595-1.2382.5791h0l-.3894.2297v-.1797c.669-.4194,1.2182-.8787,1.6376-1.388h-.01ZM476.9236,571.7279l-24.4344,14.1095c-1.1284.649-2.2268.8987-3.1454.7389-.0599-.0699-.1198-.1298-.1797-.1997l-.8687-1.2382c.1797-.3695.3595-.7489.5093-1.1284h0l3.6647-9.4562c1.0884-2.8159,3.1155-5.3422,5.2823-6.5904h0l34.1503-19.7213v.1698l-.3095.1797s-.03.02-.0499.03h0c-2.3366,1.368-4.5035,4.0641-5.6618,7.0597l-3.6647,9.4562c-1.0884,2.8159-3.1155,5.3422-5.2823,6.5904h-.01ZM477.7025,573.036l-23.4359,13.5303-.5292-.2996,23.4359-13.5303.5292.2996ZM453.2181,587.1155c-.7889.3295-1.5278.4494-2.1768.3695.5492-.1298,1.1184-.3395,1.6875-.649l.4893.2796ZM437.8205,579.6364l-4.6632,2.6961-43.5965-2.746-4.0441-21.269,75.6499,4.7731-5.4121,3.1255s-.03.02-.0499.03h0c-2.3366,1.368-4.5035,4.0641-5.6717,7.0597h0l-3.5648,9.1966-.9486-1.348h0c-.3295-.4693-.7389-.8388-1.1883-1.0984l-1.4978-.8687c-1.338-.7789-3.1654-.6091-4.9927.4494h-.0199ZM441.2555,579.7263c-.5292.1298-1.0884.3495-1.6476.649l-.4793-.2796c.7589-.3195,1.4878-.4394,2.1369-.3695h-.01ZM389.7705,597.4805l-3.5648-2.057-3.405-17.874v-8.1481h.0399c.02,0,.03-.01.0499-.02.03-.01.0599-.02.0899-.04.03-.02.0499-.03.0799-.0499s.0499-.04.0699-.0699c.02-.02.0399-.0499.0499-.0799.02-.03.03-.0599.0399-.0899s.02-.0599.02-.0999c0-.02.01-.03.01-.0499v-5.7117l6.5205,34.2801v.01ZM383.3498,558.3674l1.1383-.0699,7.6988,40.4511c-.3894-.1398-.7589-.3095-1.0984-.4993l-.1698-.0999-7.569-39.7721v-.01ZM385.0673,594.7644l-28.139-16.2463,25.1134,1.5877h.03c.0599,0,.1198-.01.1797-.03h.01l2.7959,14.6986.01-.01ZM390.5893,599.1081c.5991.3495,1.2781.5991,2.0071.7988.0599.04.1398.0599.2097.0599.9087.2297,1.8873.3495,2.8658.3495,1.8373,0,3.6746-.4094,5.0826-1.2182h0l1.4579-.8388.5292.2996-.9586.5492c-3.3651,1.9472-8.8471,1.9472-12.2122,0l-51.7946-29.9065.5292-.2996,52.2939,30.1861-.01.02ZM402.5219,599.837l1.4479-.8388h0c.4294-.2496.8388-.4194,1.2482-.5492l-2.2967,1.3281h0c-.1398.0799-.2696.1698-.3994.2496v-.1897ZM403.7501,598.0097l-.4893-.2796c.7689-.3195,1.4978-.4494,2.1469-.3695-.5392.1298-1.0984.3495-1.6676.649h.01ZM401.9527,597.2608l-1.6975.9786h0c-1.8873,1.0884-4.6532,1.368-6.9798.8288l-3.5149-18.4731,41.8491,2.6362-24.0949,13.9097-.5592-.3195c-1.338-.7789-3.1654-.6091-4.9927.4494l-.01-.01ZM456.5632,567.544c-1.9472,1.368-3.7046,3.6047-4.783,6.1111l-.659-.3795c1.0784-2.5563,2.9058-4.823,4.8829-6.0512l.5592.3195ZM447.4365,582.722l3.3052-8.5176.649.3795-3.3052,8.5176-.649-.3795ZM447.7061,584.03c-.02.0499-.0499.0999-.0699.1498l-.2297-.3195.2996.1698h0ZM482.9149,566.0263l.659.3795c-1.0784,2.5563-2.9058,4.823-4.8829,6.0512l-.5592-.3195c1.9472-1.368,3.7046-3.6047,4.783-6.1111ZM483.3043,565.0976l3.3052-8.5176.649.3795-3.3052,8.5176-.649-.3795ZM486.9889,555.6513c1.0784-2.5563,2.9058-4.823,4.8829-6.0512l.5592.3195c-1.9472,1.368-3.7046,3.6047-4.783,6.1111l-.659-.3795ZM415.8425,447.1593h0c1.5378-.8887,2.9357-1.0385,3.9542-.4693h.01c.3395.1997.6291.4693.8787.8088l3.6647,5.2224c.0799.1198.1897.2097.2796.3095.04.0799.0999.1498.1797.1997.699.689,1.5877,1.0585,2.6062,1.0585.9586,0,2.0071-.3095,3.0955-.9386h0l24.4344-14.1095h0c2.3566-1.358,4.5534-4.0841,5.7217-7.0997l3.6647-9.4562c1.0884-2.8159,3.1155-5.3422,5.2823-6.5904l.9586-.5492v39.2029l-62.3193,35.9776-.2696-.02-20.0408-11.5731c-1.2382-2.6461-3.2053-4.9328-5.3023-6.1411l-1.4579-.8388v-5.0027l34.6496-20.0009.01.01ZM415.1336,445.8811c.7589-.3195,1.4878-.4394,2.1369-.3695-.5392.1298-1.0884.3495-1.6476.649l-.4793-.2796h-.01ZM427.0462,453.2604c.5492-.1298,1.1084-.3395,1.6875-.649l.4893.2796c-.7889.3295-1.5178.4493-2.1768.3695ZM429.7423,452.0422l23.4359-13.5303.5292.2996-23.4359,13.5303-.5292-.2996ZM463.2635,422.7348l-3.3052,8.5176-.649-.3795,3.3052-8.5176.649.3795ZM462.9939,421.4267c1.0784-2.5563,2.9058-4.823,4.8829-6.0512l.5592.3195c-1.9472,1.368-3.7046,3.6048-4.783,6.1111l-.659-.3795ZM459.5788,432.1811c-1.0784,2.5563-2.9058,4.823-4.8829,6.0512l-.5592-.3195c1.9472-1.368,3.7046-3.6048,4.783-6.1111l.659.3795ZM485.9704,538.1668l-1.5078.8687c-.4593.2596-.8587.6191-1.1883,1.0984l-3.6647,5.2124h0c-.0499.0799-.1198.1298-.1797.1997-.9087.1598-2.0171-.0799-3.1454-.7389l-30.7952-17.7741c-2.1669-1.2582-4.1939-3.7845-5.2823-6.5904l-3.6647-9.4562c-.1598-.4194-.3495-.8388-.5592-1.2482.2297-.3095.4993-.5592.8188-.7389h.01c1.0185-.5791,2.4165-.4294,3.9542.4593h0l52.2839,30.1861v.1897c-.1298-.0799-.2596-.1698-.3994-.2496l-1.7075-.9786c-1.8273-1.0585-3.6547-1.2182-4.9927-.4494l.02.01ZM489.6451,539.0855l-.4793.2796c-.5592-.2996-1.1184-.5192-1.6576-.649.649-.0699,1.378.0599,2.1369.3695ZM477.7324,546.4647c-.649.0799-1.388-.04-2.1669-.3695l.4893-.2796c.5692.3095,1.1384.5192,1.6875.649h-.01ZM475.0363,545.2465l-.5292.2996-29.7966-17.205.5292-.2996,29.7966,17.205ZM489.3155,534.582l-28.139-16.2463,25.1134,1.5877h.03c.0599,0,.1198-.01.1797-.03h.01l2.7959,14.6986.01-.01ZM487.0489,517.3671v-8.1481h.04c.02,0,.03-.01.0499-.02.03-.01.0599-.02.0899-.04.03-.02.0499-.03.0799-.0499s.0499-.04.0699-.0699c.02-.02.04-.0499.0499-.0799.02-.03.03-.0599.04-.0899s.02-.0599.02-.0999c0-.02.01-.03.01-.0499v-5.7117l6.5205,34.2801-3.5648-2.057-3.405-17.874v.01ZM486.4997,507.9208h-.1897c-.03,0-.0499.01-.0799.02-.03,0-.0699,0-.0999.02-.04.01-.0699.04-.0999.0599-.02.01-.04.02-.0599.04-.03.03-.0499.0599-.0699.0999-.01.02-.03.04-.04.0599-.02.03-.02.0699-.03.1098,0,.03-.02.0499-.02.0699v10.5147l-26.5913-1.6776-16.4361-9.4862c-1.8273-1.0585-3.6547-1.2182-4.9927-.4494l-1.4978.8587c-.2996.1698-.5692.3994-.8188.659-1.2082-2.087-2.8658-3.8544-4.6133-4.8729h0c-.02-.01-.03-.02-.0499-.03l-18.4332-10.6445,74.1121,4.6732v10.0054l.0099-.0299ZM441.4752,508.1904l-.4793.2796c-.5592-.2996-1.1184-.5192-1.6476-.649.6391-.0699,1.368.0599,2.1269.3695ZM430.5511,504.9052c1.9771,1.2282,3.8045,3.4949,4.8829,6.0512l-.659.3795c-1.0784-2.5064-2.8459-4.7431-4.783-6.1111l.5592-.3195ZM435.8134,511.895l3.3052,8.5176-.649.3795-3.3052-8.5176.649-.3795ZM439.5081,521.3413c1.0784,2.5064,2.8459,4.7431,4.783,6.1111l-.5592.3195c-1.9771-1.2382-3.8045-3.4949-4.8829-6.0512l.659-.3795ZM442.0144,509.0392l.5292-.2996,52.2939,30.1861c.5991.3495,1.2881.5991,2.0071.7988.0599.04.1298.0599.2097.0599.9087.2297,1.8873.3495,2.8658.3495,1.8373,0,3.6746-.4094,5.0826-1.2082l1.4579-.8388.5292.2996-.9586.5492c-3.3651,1.9472-8.8371,1.9472-12.2122,0h0l-51.7946-29.9065-.01.01ZM506.7701,539.6546l1.4479-.8388h0c.4294-.2496.8388-.4194,1.2382-.5492l-2.2966,1.3281c-.1398.0799-.2696.1698-.3994.2496v-.1897h.01ZM507.9884,537.8273l-.4893-.2796c.7689-.3195,1.5078-.4494,2.1569-.3695-.5392.1298-1.0984.3495-1.6676.649ZM506.191,537.0784l-1.7075.9786c-1.8873,1.0884-4.6532,1.358-6.9898.8288l-3.5149-18.4731,41.8491,2.6362-24.0949,13.9097-.5592-.3195c-1.338-.7789-3.1654-.6091-4.9927.4494l.01-.01ZM496.4252,538.5562c-.3894-.1398-.7589-.3095-1.0984-.4993l-.1698-.0999-7.569-39.7721,1.1384-.0699,7.6988,40.4511v-.01ZM410.4304,492.1238l-.4893-.2796,157.4108,9.9256-.3894.2297-156.5221-9.8656-.0099-.01ZM474.567,456.7653c-.659.1098-1.2681.2996-1.7874.5592-.5891-.4394-1.0585-1.2582-1.1683-1.9871.8088-.4194,1.7874-.709,2.8558-.8488v.1498c0,.649.04,1.4379.1098,2.1169l-.0099.01ZM472.9893,458.333c.4793-.2796,1.0585-.4693,1.7075-.5791,0,.04.01.0799.02.1098h0l7.1396,37.5054-65.8242-4.154,56.9571-32.8821ZM475.4657,454.6484v-14.8883l10.6345,55.8786-3.2153-.1997-7.1796-37.755h0c-.1298-.689-.2396-2.047-.2396-3.0256v-.01ZM489.3155,495.8484l-6.7202-35.3386,67.8912,39.1929-61.171-3.8544h0ZM552.7232,499.8426l-70.3776-40.6309-.5692-2.9956,76.1292,43.956-5.1725-.3295h-.01ZM488.2371,495.4989l-1.1384.0699-11.2936-59.3436,1.1384-.0699,11.2936,59.3436ZM480.2488,448.1678l-2.4065-12.6416c-.03-.1698-.0899-.3994-.2197-.5792-.03-.0499-.0699-.0899-.1098-.1298-.02-.02-.0499-.03-.0799-.0399-.0799-.0399-.1598-.0599-.2496-.0599h0l-2.1469.1398h-.02c-.0899.01-.1797.0499-.2396.1098-.04.03-.0799.0799-.1098.1298-.02.03-.04.0599-.0499.0999-.1098.2696-.1298.659-.1298,1.0984v17.185c-1.0485.1298-2.027.3795-2.8758.7489v-39.2429c2.4564-1.2881,6.201-1.2881,8.6574,0v33.1717l-.0201.01ZM471.851,457.8437l-57.6261,33.2716-4.154-.2596,60.6317-35.009c.1897.7389.6091,1.4679,1.1483,1.9971ZM381.822,474.3397l.5692-.3295c1.4778.9187,2.8658,2.4065,3.9343,4.1839l-1.4778-.8488c-.9087-1.2282-1.9372-2.2467-3.0256-3.0056h0ZM381.872,475.6279l-2.1968-1.2681v-.1698l.9586.5492c.4194.2396.8388.5492,1.2482.8887h-.01ZM380.4441,466.4412c-1.4479.8388-2.2467,1.9771-2.2467,3.2253,0,1.2382.7988,2.3865,2.2467,3.2253l.9586.5492-.5292.2996-1.4579-.8388c-1.5378-.8887-2.3865-2.037-2.3865-3.2353s.8488-2.3466,2.3865-3.2353l34.6496-20.0009.5292.2996-34.1503,19.7213v-.01ZM380.1944,467.8292v3.6746c-.649-.5492-.9985-1.1883-.9985-1.8373s.3495-1.2881.9985-1.8373ZM378.6766,473.6008v.1797l-.3994-.2297c-.3894-.2197-.8088-.4094-1.2382-.5791v-.7589c.4194.5093.9686.9686,1.6376,1.388ZM377.7779,474.4196l51.7946,29.9065-.5292.2996-52.2939-30.1861s-.03-.01-.0499-.02h-.01c-2.7859-1.5777-7.2494-1.5777-10.0354,0h-.01c-.01,0-.03.01-.0499.02l-1.4579.8388-.5292-.2996.9586-.5492c3.3651-1.9472,8.8471-1.9472,12.2122,0v-.01ZM370.3288,516.9477c-.659.1098-1.2582.2996-1.7874.5592-.5891-.4394-1.0585-1.2582-1.1683-1.9871.8088-.4094,1.7874-.709,2.8558-.8488v.1498c0,.649.0399,1.4379.1098,2.1169l-.01.01ZM370.2189,496.4875v17.185c-1.0485.1298-2.027.3795-2.8758.7489v-39.2429c2.4564-1.2881,6.201-1.2881,8.6574,0v33.1717l-2.4065-12.6416h0c-.0499-.2396-.1298-.6391-.4294-.7589-.0699-.03-.1498-.0499-.2297-.0499h0l-2.1469.1398h-.02c-.0899.01-.1797.0499-.2397.1098-.0399.03-.0799.0799-.1098.1298-.02.03-.0399.0599-.0499.0999-.1098.2696-.1298.659-.1298,1.0984l-.02.01ZM367.6127,518.0261l-57.6261,33.2716-4.1639-.2596,60.6317-35.009c.1897.7389.6091,1.4679,1.1483,1.9971h.01ZM368.7411,518.5254h0c.4793-.2796,1.0585-.4693,1.7075-.5891,0,.04.01.0799.02.1098l7.1396,37.5054-65.8242-4.154,56.9571-32.8821v.01ZM371.4571,517.8664c-.1298-.689-.2397-2.047-.2397-3.0356v-14.8783l10.6345,55.8786-3.2053-.1997-7.1895-37.755v-.01ZM371.557,496.4076l1.1383-.0699,11.2936,59.3436-1.1383.0699-11.2936-59.3436ZM378.3471,520.6823l67.8912,39.2029-61.1709-3.8544-6.7202-35.3386v-.01ZM378.1074,519.3941l-.5692-2.9956,76.1292,43.956-5.1825-.3295-70.3776-40.6309h0ZM377.2886,515.1004l-.2896-1.5078v-37.8649l51.7946,29.8965h0c2.1669,1.2582,4.1939,3.7745,5.2823,6.5904l3.6647,9.4562c1.1683,3.0156,3.3651,5.7416,5.7217,7.0996h0l30.7852,17.7741h0c1.0884.6291,2.1369.9386,3.0955.9386,1.0185,0,1.9072-.3695,2.6062-1.0585.0799-.0499.1398-.1198.1797-.1997.0899-.0999.1897-.1897.2796-.3095h0l3.6647-5.2224c.2496-.3495.5392-.6191.8787-.8088h0c1.0185-.5692,2.4265-.4194,3.9542.4593h0l1.4479.8388v5.0027l-25.7126,14.8484-8.7672-.5492-78.6156-45.3839h.0299ZM491.3825,545.5361v-3.6746c.649.5492.9985,1.1883.9985,1.8373s-.3495,1.2881-.9985,1.8373ZM505.2723,546.255c.4194.5093.9686.9686,1.6376,1.388v.1797l-.3994-.2297c-.3894-.2197-.8088-.4094-1.2382-.5891v-.7589.01ZM560.8015,507.3617c-1.9472,1.368-3.7046,3.6047-4.783,6.1111l-.659-.3795c1.0784-2.5563,2.9058-4.823,4.8829-6.0512l.5592.3195ZM551.6748,522.5395l3.3052-8.5176.649.3795-3.3052,8.5176-.649-.3795ZM551.9444,523.8377c-.02.0499-.0499.0999-.0699.1498l-.2297-.3295.2996.1698v.01ZM587.1631,505.8438l.659.3795c-1.0784,2.5563-2.9058,4.823-4.8829,6.0512l-.5592-.3195c1.9472-1.368,3.7046-3.6047,4.783-6.1111ZM587.5426,504.9052l3.3052-8.5176.649.3795-3.3052,8.5176-.649-.3795ZM591.2272,495.459c1.0784-2.5563,2.9058-4.823,4.8829-6.0512l.5592.3195c-1.9472,1.368-3.7046,3.6047-4.783,6.1111l-.659-.3795ZM595.6308,485.3537v-3.6746c.649.5492.9985,1.1883.9985,1.8373s-.3495,1.2881-.9985,1.8373ZM593.8933,478.9031l-.4793.2796c-.5592-.2996-1.1184-.5192-1.6476-.649.649-.0699,1.368.0599,2.1369.3695h-.01ZM580.5228,484.6347l-4.1739-2.4065c2.8758.4194,5.7017.9386,8.4577,1.5677l-.9686,1.378c-.0499.0799-.1198.1298-.1797.1997-.9087.1598-2.0171-.0799-3.1454-.7389h.01ZM581.9807,486.2823c-.649.0799-1.388-.04-2.1768-.3695l.4893-.2796c.5791.3095,1.1384.5192,1.6875.649ZM579.2746,485.0641l-.5292.2996-29.7866-17.205.5292-.2996,29.7866,17.205ZM533.2815,444.4432l-52.2939-30.1861s-.03-.01-.0499-.02h-.01c-2.786-1.5777-7.2495-1.5777-10.0354,0h-.01c-.01,0-.03.01-.0499.02l-1.4579.8388-.5292-.2996.9486-.5492c3.3651-1.9472,8.8471-1.9472,12.2122,0l51.7946,29.9065-.5292.2996.0099-.01ZM355.061,491.0554l3.3052-8.5176.649.3795-3.3052,8.5176-.649-.3795ZM355.3306,492.3635c-1.0784,2.5563-2.9058,4.823-4.8829,6.0512l-.5592-.3195c1.9472-1.368,3.7046-3.6047,4.783-6.1111l.659.3795ZM358.7456,481.6091c1.0784-2.5563,2.9058-4.823,4.8829-6.0512l.5592.3195c-1.9472,1.368-3.7046,3.6047-4.783,6.1111l-.659-.3795ZM349.4691,499.0038l-23.4359,13.5303-.5292-.2996,23.4359-13.5303.5292.2996ZM324.9748,513.0733c-.7888.3295-1.5178.4494-2.1768.3695.5492-.1298,1.1084-.3395,1.6875-.649l.4893.2796h0ZM313.0222,505.6941c-.5392.1298-1.0884.3495-1.6576.649l-.4793-.2796c.7589-.3195,1.4878-.4394,2.1369-.3695ZM272.8008,532.3952c.4194.5093.9686.9686,1.6376,1.388v1.0685l-1.6376-.9386v-1.5178ZM272.8008,529.8489c0-1.1983.8488-2.3466,2.3865-3.2353l34.6496-20.0009.5292.2996-34.1503,19.7213c-1.4479.8388-2.2467,1.9771-2.2467,3.2153s.7988,2.3865,2.2467,3.2253l.9586.5492-.5292.2996-1.4579-.8388c-1.5378-.8887-2.3865-2.037-2.3865-3.2353ZM275.9562,528.0116v3.6746c-.6491-.5492-.9985-1.1883-.9985-1.8373s.3495-1.2881.9985-1.8373ZM275.4269,534.3823l.9586.5492h0c1.1184.649,2.2168,1.6576,3.1654,2.8758l-4.124-2.3865v-1.0485.01ZM277.5938,534.5221l.5492-.3195c1.8273,1.1384,3.5249,3.1554,4.6333,5.462l-1.2382-.719c-1.0684-1.8473-2.4464-3.3851-3.9443-4.4335v.01ZM278.4525,533.214h0c-.02-.01-.03-.02-.0499-.03l-1.4579-.8388v-5.0027l34.6496-20.0009h0c1.5378-.8887,2.9357-1.0385,3.9642-.4693h0c.3395.1897.6391.4593.8787.8088h0l3.6647,5.2124h0c.0799.1198.1897.2097.2796.3095.0399.0799.0999.1498.1797.1997.699.689,1.5877,1.0585,2.6062,1.0585.9586,0,2.0071-.3095,3.0955-.9386h0l24.4344-14.1095h0c2.3566-1.358,4.5434-4.0841,5.7217-7.0996l3.6647-9.4562c1.0884-2.8159,3.1155-5.3422,5.2823-6.5904l.9586-.5492v39.2029l-62.3193,35.9776-1.9871-.1298-17.834-10.295-.0799-.2097c-1.1583-2.9956-3.3351-5.6917-5.6717-7.0597l.02.01ZM463.1137,561.9522l-.3894.2297-158.2396-9.9755-.4893-.2796,159.1184,10.0354v-.01ZM382.2514,558.1078v10.0054h-.1797c-.02,0-.03,0-.0499.01-.0499,0-.0899,0-.1398.03,0,0-.01,0-.02.01-.0499.02-.0999.0499-.1398.0899-.01.01-.02.03-.03.04-.03.03-.0599.0699-.0699.1098-.01.03-.02.0599-.02.0899s-.02.0499-.02.0899v10.5147l-26.5913-1.6776-16.4361-9.4862c-1.8273-1.0585-3.6447-1.2182-4.9828-.4494h0l-1.5078.8687c-.4493.2596-.8488.6191-1.1783,1.0884l-3.1055,4.4136-2.1968-5.6717c-1.1583-2.9956-3.3252-5.6917-5.6717-7.0597h0c-.02,0-.03-.02-.0499-.03l-13.4105-7.7487,75.8296,4.783-.0299-.0199ZM337.2369,568.3728l-.4793.2796c-.5592-.2996-1.1184-.5192-1.6476-.649.6391-.0699,1.368.0599,2.1269.3695h0ZM319.5727,562.082c1.9771,1.2382,3.8045,3.4949,4.8829,6.0512l-.659.3795c-1.0784-2.5064-2.8459-4.7431-4.783-6.1111l.5592-.3195ZM324.835,569.0718l3.3052,8.5176-.649.3795-3.3052-8.5176.649-.3795ZM328.5296,578.518c1.0784,2.5064,2.8459,4.7431,4.783,6.1111l-.5592.3195c-1.9771-1.2282-3.8045-3.4949-4.8829-6.0512l.659-.3795ZM401.0341,606.4374c.4194.5093.9686.9686,1.6376,1.388v.1797l-.3994-.2297c-.3894-.2197-.8088-.4094-1.2382-.5791v-.7589ZM401.0341,603.8811c0-1.1983.8488-2.3466,2.3865-3.2353h0l34.6496-20.0009.5292.2996-34.1503,19.7213h0c-1.4479.8388-2.2467,1.9771-2.2467,3.2153s.7988,2.3865,2.2467,3.2253h0l.9586.5492-.5292.2996-1.4579-.8388h0c-1.5378-.8887-2.3765-2.037-2.3765-3.2353h-.01ZM404.1895,602.0438v3.6746c-.649-.5492-.9985-1.1883-.9985-1.8373s.3495-1.2881.9985-1.8373ZM403.6702,608.4145l.9586.5492h0c.4194.2396.8388.5492,1.2482.8887l-2.1968-1.2681v-.1698h-.01ZM405.8171,608.5643l.5692-.3295c1.4778.9187,2.8658,2.4065,3.9343,4.1839l-1.4778-.8488c-.9087-1.2282-1.9372-2.2467-3.0256-3.0056h0ZM406.6459,607.2263l-1.4579-.8388v-5.0027l34.6496-20.0009h0c1.5378-.8887,2.9357-1.0385,3.9642-.4693h0c.3395.1897.6391.4593.8787.8088h0l3.6647,5.2224c.0799.1198.1897.2097.2796.3095.04.0799.0999.1498.1797.1997.699.689,1.5877,1.0585,2.5962,1.0585.9586,0,2.0071-.3095,3.0955-.9386h0l24.4344-14.0995h0c2.3566-1.358,4.5434-4.0841,5.7217-7.0996l3.6647-9.4562c1.0884-2.8159,3.1155-5.3422,5.2823-6.5904h0l.9586-.5492v39.2029l-62.3193,35.9776-.2696-.02-20.0408-11.5731c-1.2382-2.6461-3.2053-4.9328-5.3023-6.1411h.0199ZM494.6977,590.0612c.1897.7389.6091,1.4679,1.1583,1.9971l-57.6261,33.2716-4.164-.2596,60.6317-35.009ZM501.5577,569.0718l-.02-.02c-.04-.03-.0799-.0599-.1398-.0799h-.02c-.0599-.02-.1198-.03-.1997-.02h0l-2.1469.1398h-.02c-.0899.01-.1797.0499-.2396.1098-.04.04-.0799.0799-.1098.1298-.02.03-.04.0599-.0499.0999-.1098.2696-.1298.659-.1298,1.0984v17.185c-1.0485.1298-2.027.3795-2.8758.7489v-39.2429c2.4564-1.2881,6.201-1.2881,8.6574,0v33.1717l-2.4065-12.6416h0c-.04-.1897-.0999-.5093-.2796-.679h-.02ZM498.5621,590.9899c-.659.1098-1.2681.2996-1.7874.5592-.5891-.4394-1.0585-1.2582-1.1683-1.9871.8088-.4194,1.7874-.709,2.8558-.8488v.1498c0,.649.04,1.4379.1098,2.1169l-.0099.01ZM496.9744,592.5576h0c.4793-.2796,1.0585-.4693,1.7075-.5891,0,.04.01.0799.02.1098l7.1396,37.5054-65.8242-4.154,56.9571-32.8821v.01ZM499.6905,591.8986c-.1298-.689-.2396-2.047-.2396-3.0256v-14.8783l10.6345,55.8786-3.2053-.1997-7.1895-37.755v-.02ZM536.2373,564.7581l-20.0408-11.5731c-1.2282-2.6162-3.1754-4.8929-5.2524-6.1111h0c-.02,0-.03-.02-.0499-.03l-1.4579-.8388v-5.0027l34.6496-20.0009h0c1.5378-.8887,2.9357-1.0385,3.9642-.4693h0c.3395.1897.6391.4593.8887.8088h0l3.6647,5.2224c.0799.1198.1897.2097.2796.3095.04.0799.0999.1498.1797.1997.699.689,1.5877,1.0585,2.6062,1.0585.9586,0,2.0071-.3095,3.0955-.9386h0l24.4344-14.1095h0c2.3566-1.358,4.5534-4.0841,5.7217-7.0996l3.6647-9.4562h0c1.0884-2.8159,3.1155-5.3422,5.2923-6.5904l.9586-.5492v39.2029l-62.3193,35.9776-.2696-.02-.01.0099ZM598.936,529.8789c.1897.7389.6091,1.4679,1.1583,1.9971l-57.6261,33.2716-4.154-.2596,60.6317-35.009h-.01ZM602.8103,530.8075c-.659.1098-1.2582.2996-1.7874.5592-.5791-.4394-1.0585-1.2582-1.1683-1.9871.8088-.4194,1.7874-.709,2.8558-.8488v.1498c0,.649.04,1.4379.1098,2.1169l-.0099.01ZM602.7005,510.3373v17.185c-1.0485.1298-2.027.3795-2.8758.7489v-39.2429c2.4564-1.2881,6.201-1.2881,8.6574,0v33.1717l-2.4065-12.6416h0c-.03-.1698-.0899-.4094-.2197-.5891-.03-.0499-.0699-.0999-.1198-.1298-.01-.01-.03-.02-.0499-.03-.0799-.0499-.1698-.0799-.2796-.0699h0l-2.1369.1398h-.03c-.0899.01-.1698.0499-.2396.1098-.0499.04-.0799.0799-.1098.1298-.02.03-.04.0599-.0499.0999-.1098.2696-.1298.659-.1298,1.0984l-.01.02ZM601.2226,532.3752h0c.4793-.2796,1.0585-.4693,1.7075-.5891,0,.04.01.0799.02.1098l7.1396,37.5054-65.8242-4.154,56.9571-32.8821v.01ZM603.9387,531.7162c-.1298-.689-.2396-2.047-.2396-3.0356v-14.8883l10.6345,55.8786-3.2053-.1997-7.1895-37.755h0ZM609.231,488.2894s-.03-.01-.04-.02h-.02c-2.786-1.5777-7.2495-1.5677-10.0354,0h-.01c-.01,0-.03.01-.0499.02l-1.4579.8388-.5292-.2996.9486-.5492c3.3651-1.9472,8.8471-1.9472,12.2122,0h0l51.7946,29.8965-.5292.2996-52.2939-30.1861h.0099ZM611.0084,483.3266c0,1.2382.7988,2.3865,2.2467,3.2253l.9586.5492-.5292.2996-1.4579-.8388c-1.5378-.8887-2.3865-2.037-2.3865-3.2353s.8488-2.3466,2.3865-3.2353l31.1447-17.9838.5292.2996-30.6454,17.6942c-1.4479.8388-2.2467,1.9771-2.2467,3.2253ZM613.0055,481.4893v3.6746c-.649-.5492-.9985-1.1883-.9985-1.8373s.3495-1.2881.9985-1.8373ZM615.7415,490.2865l-3.2553-1.8773v-.5492l.9586.5492h0c.7988.4593,1.5777,1.1084,2.3066,1.8773h-.01ZM614.6231,488.0098l.5692-.3295c1.6276,1.0085,3.1554,2.746,4.2538,4.7531l-1.358-.7789c-.9886-1.4978-2.1968-2.746-3.475-3.6347l.01-.01ZM611.4877,487.2609v.5592l-.7289-.4194h0c-.2796-.1598-.5991-.2896-.9087-.4294v-1.1084c.4194.5093.9686.9686,1.6376,1.388v.01ZM644.4397,461.5683c.7589-.3195,1.4878-.4394,2.1369-.3695-.5392.1298-1.0884.3495-1.6476.649l-.4793-.2796h-.01ZM656.3524,468.9476c.5492-.1298,1.1084-.3395,1.6875-.649l.4893.2796c-.7889.3295-1.5178.4494-2.1669.3695h-.01ZM659.0585,467.7293l10.7244-6.191.5293.2996-10.7244,6.191-.5292-.2996h0ZM676.1736,455.2076c-1.0784,2.5563-2.9057,4.823-4.8829,6.0512l-.5592-.3195c1.9472-1.368,3.7046-3.6048,4.783-6.1111l.659.3795h0ZM675.9039,453.8995l3.3052-8.5176.6491.3795-3.3052,8.5176-.6491-.3795ZM680.2476,444.8227l-.659-.3795c1.0784-2.5563,2.9057-4.823,4.8829-6.0512l.5592.3195c-1.9472,1.368-3.7046,3.6048-4.783,6.1111h0ZM684.2118,437.3835c-2.3566,1.358-4.5534,4.0841-5.7217,7.0997l-3.6646,9.4562h0c-1.0884,2.8159-3.1155,5.3422-5.2823,6.5904l-11.7229,6.7701c-1.1284.649-2.2268.8987-3.1454.7389-.0599-.0699-.1198-.1298-.1797-.1997l-3.6647-5.2224c-.3295-.4693-.7389-.8388-1.1883-1.0984l-1.4978-.8687c-1.338-.7689-3.1654-.6091-4.9927.4494l-20.0508,11.5731,4.9628-84.8565,130.8895,75.57-.4294,7.2894c-.1897-.1098-.3695-.2197-.5492-.3295h0l-58.8243-33.9606c-3.6447-2.1069-9.5761-2.097-13.2207,0l-1.7075.9786-.0101.02ZM628.1534,386.7173c.1098-.4693.3994-.9386.7489-1.2382l130.9494,75.6c-.3195.3495-.5892.7889-.7489,1.2482l-130.9593-75.6099h.01ZM627.9837,384.9698c-.3195.3495-.5891.7888-.7389,1.2482-1.9571-1.1084-4.0241-2.1868-6.151-3.2053l1.5178-.8787c1.8473.8987,3.6447,1.8573,5.3722,2.8359h0ZM490.9332,386.218c-.1498-.4593-.4194-.8987-.7389-1.2482,19.1222-10.8442,45.354-16.7656,72.1849-16.2364l2.5862,1.4878c-27.5099-.9586-54.3309,4.823-74.0222,15.9967h-.01ZM489.0659,384.4506l-250.056,144.3698c-22.7968,13.1608-33.0818,32.1732-27.7097,50.4466-.2097-.3395-.4294-.689-.6191-1.0285-1.348-2.3965-2.4265-4.8629-3.2453-7.3393-.6191-16.4261,10.5946-32.5227,30.7752-44.1757h0l246.2116-142.1531h0c19.8811-11.4733,46.3126-17.8241,74.4416-17.864l1.7575,1.0185c-26.6612-.2397-52.6633,5.8115-71.5658,16.7257h.01ZM484.2329,383.5419c-.3795-.3195-.689-.8388-.7789-1.338,19.0622-10.9241,44.3155-17.2948,71.1764-17.9539l2.5563,1.4778c-27.5299.2896-53.3623,6.5804-72.9538,17.8041v.01ZM483.4141,381.0855v-7.1696c15.9168-9.1367,36.0276-15.0781,58.1853-17.195l11.4134,6.5904c-26.2218.8588-50.826,7.1396-69.5987,17.7741h0ZM483.2843,372.8475c-.1498-.4893-.4194-.9586-.7689-1.338,15.2478-8.6674,34.3699-14.5089,55.3794-16.9154l2.2268,1.2881c-21.5886,2.2268-41.19,8.0782-56.8372,16.9653h0ZM482.5454,382.7231c.1498.4893.4294.9586.7689,1.338l-245.3029,141.6238c-.3794-.3195-.689-.8488-.7689-1.338l245.3029-141.6238h0ZM482.4156,381.6447l-245.213,141.5739v-7.1496l245.213-141.5739v7.1496h0ZM237.0628,514.9905c-.1498-.4893-.4294-.9586-.7689-1.338l245.3029-141.6238c.3795.3195.689.8488.7689,1.338,0,0-245.3029,141.6238-245.3029,141.6238ZM236.3338,524.8861c.1498.4893.4294.9586.7689,1.3281-18.7227,10.994-29.6868,25.8224-30.6254,41.23-.2696-1.1883-.4693-2.3765-.6191-3.5748,1.7574-14.6587,12.5717-28.4785,30.4656-38.9833h.01ZM236.194,523.8077c-16.7456,9.7258-27.4301,22.3475-30.5855,35.9077.0399-16.2064,10.8941-31.4642,30.5855-43.0573v7.1496ZM204.61,559.8053c0,1.348.0999,2.6961.2496,4.0441v.02c0,.0799,0,.1498.03.2197.2197,1.7674.5492,3.5349,1.0285,5.2823.1598.5692.3495,1.1483.5292,1.7175,0,.0699.03.1298.0599.1897.8388,2.5263,1.9372,5.0227,3.3052,7.4591.7789,1.378,1.6576,2.746,2.6062,4.104-5.6418-7.6489-8.6075-15.9468-8.6075-24.4943,0-16.6458,11.2137-32.3129,31.574-44.1557.3794.3195.679.8488.7689,1.338-20.3404,11.8328-31.5441,27.5499-31.5441,44.2855v-.01ZM239.2196,529.8589c.3595.2996.6391.7689.7489,1.2382-19.2819,11.2336-29.557,26.7511-28.1989,42.608.2297,2.6761.8088,5.3722,1.7175,7.9984.2197.6191.4593,1.2482.709,1.8673-.1897-.2596-.3894-.5093-.5792-.7689-7.9484-18.8625,1.8573-39.123,25.6027-52.9529v.01ZM213.8965,579.6664c-.5692-1.9971-.9586-4.0241-1.1284-6.0412-1.3181-15.3477,8.6274-30.4157,27.3102-41.4297l.4693,7.9984c-17.7242,10.6245-27.2204,24.7739-26.6512,39.4725h0ZM242.3151,540.3037l13.6801-7.8985c3.3651-1.9472,8.8471-1.9372,12.2222,0l12.7015,7.3293h0l2.2367,1.2881h0l35.4284,20.4602-.5292.2996-50.8759-29.3673s-.03-.01-.0399-.02c-.02,0-.03-.02-.0499-.02-2.7959-1.5677-7.2694-1.5677-10.0354.02h-.0399l-13.6801,7.8985c-21.4388,12.382-31.0248,29.8266-26.0321,47.0515-.1098-.1198-.2197-.2297-.3295-.3495-.0499-.0499-.0899-.1098-.1398-.1598-.5792-1.0685-1.0884-2.1569-1.5577-3.2453-2.6761-16.0666,7.1696-31.8536,27.0207-43.3169l.02.03ZM243.1439,541.6018l3.9243,67.0324-10.4947-6.0612c-3.9443-2.2767-7.6089-4.7531-10.8941-7.3593-2.4564-1.9571-4.7231-4.0042-6.7701-6.1111-6.161-17.2149,2.8858-34.9092,24.2347-47.5009ZM244.1125,541.0326l12.7115-7.3393,4.8829,83.3886-13.6002-7.8486-3.9942-68.2007ZM257.7926,533.1641c2.4664-1.2781,6.211-1.2681,8.6674.02l5.0427,86.2045c-1.9072-.7789-4.3936-.9586-6.6503-.4893l-2.1169-1.2282-4.9428-84.5169v.01ZM271.5126,620.4969c-.0899.6091-.4294,1.2681-.8887,1.7375l-4.3836-2.5263c1.8873-.1897,3.8244.0899,5.2723.7889ZM267.4985,533.7632l50.3167,29.0477h0c2.1668,1.2582,4.1939,3.7845,5.2823,6.5904l3.6647,9.4562c1.1683,3.0156,3.3651,5.7416,5.7217,7.0996h0l37.1359,21.4388h0c1.0884.6291,2.1369.9386,3.0955.9386,1.0185,0,1.9072-.3695,2.5962-1.0585.0799-.0499.1398-.1198.1797-.1997.0899-.1098.1997-.1897.2796-.3095l3.6647-5.2224c.2397-.3495.5392-.6191.8787-.8088h0c1.0185-.5791,2.4165-.4294,3.9543.4593h0l1.4479.8388v5.0027l-31.1447,17.9838h0c-2.2268,1.2881-4.2538,3.7146-5.472,6.5305-.8987.0499-1.8673.3495-2.8558.9187h0l-25.9822,14.9982-47.7605-27.5798-5.0427-86.1446.04.02ZM349.7288,632.5794c-.5392.1298-1.0884.3495-1.6476.649l-.4793-.2796c.7589-.3195,1.4878-.4394,2.1369-.3695h-.01ZM318.5042,649.6745l.02-.01.4294-.2496h0l1.5877-.9187h0l25.9822-14.9982.5292.3095-28.2089,16.2863-.5292-.2996.1797-.0999.01-.02ZM348.3008,634.227h0c2.047-1.1783,3.8544-1.0485,4.843.3495l3.6647,5.2224c.0799.1198.1897.2097.2796.3095.0399.0799.0999.1498.1797.1997.699.689,1.5877,1.0585,2.6062,1.0585.9586,0,2.0071-.3095,3.0955-.9386h0l11.7229-6.7701h0c2.3566-1.358,4.5534-4.0841,5.7217-7.0996l3.6647-9.4562c1.0884-2.8159,3.1155-5.3422,5.2823-6.5904h0l.9586-.5492v77.4473c-9.5561-2.9058-18.2734-6.6104-25.9023-11.014h0l-44.5751-25.7325,28.4586-16.4261v-.01ZM518.0138,671.5227l-3.5648-2.057-3.405-17.874v-8.1481h.04c.02,0,.03-.01.0499-.02.03-.01.0599-.02.0899-.04.03-.02.0499-.03.0799-.0499s.0499-.04.0699-.0699c.02-.02.04-.0499.0499-.0799.02-.03.03-.0599.04-.0899s.02-.0599.02-.0999c0-.02.01-.03.01-.0499v-5.7117l6.5205,34.2801v.0099ZM511.5831,632.4096l1.1384-.0699,7.6888,40.4411c-.3894-.1398-.7589-.2996-1.0984-.4993l-.1698-.0999-7.569-39.7721h.01ZM513.3106,668.8066l-28.139-16.2463,25.1134,1.5877h.03c.0599,0,.1198-.01.1797-.03h.01l2.7959,14.6986.01-.01ZM510.4947,642.1454h-.1897c-.02,0-.04.01-.0599.01-.04,0-.0799,0-.1198.02-.03.01-.0499.03-.0699.04-.03.02-.0599.03-.0899.0599-.03.02-.04.0499-.0599.0799-.02.02-.04.04-.0499.0699-.02.03-.02.0699-.03.0999,0,.03-.02.0499-.02.0799v10.5147l-26.5913-1.6776-16.4361-9.4862c-1.8273-1.0585-3.6547-1.2182-4.9927-.4494l-1.4978.8687c-.4593.2596-.8587.6191-1.1883,1.0984l-.2396.3395c-1.2082-2.756-3.2353-5.2024-5.4121-6.4806h0c-.02,0-.03-.02-.0499-.03l-17.0152-9.8257,74.1121,4.6732v10.0054-.0099ZM465.4803,642.415l-.4793.2796c-.5592-.2996-1.1184-.5192-1.6476-.649.649-.0699,1.368.0599,2.1369.3695h-.01ZM461.0467,654.1879l-3.3052-8.5176.649-.3795,3.3052,8.5176-.649.3795ZM462.0852,654.7371c1.0884,2.5064,2.8459,4.7431,4.783,6.1111l-.5592.3195c-1.9771-1.2282-3.8045-3.4949-4.8829-6.0512l.659-.3795ZM457.3621,644.7416c-1.0884-2.5064-2.8459-4.7431-4.783-6.1111l.5592-.3195c1.9771,1.2282,3.8045,3.4949,4.8829,6.0512l-.659.3795ZM400.9941,609.9623l50.3767,29.0777h0c2.1669,1.2482,4.1939,3.7745,5.2823,6.5904l3.6647,9.4562c1.1683,3.0156,3.3651,5.7416,5.7217,7.0996h0l36.6866,21.1792c-4.0741,1.6476-8.3379,3.1355-12.8014,4.4435-10.1253,2.9757-20.9495,5.0127-32.1832,6.0312-11.2436,1.0285-22.647,1.0285-33.8807,0-7.8586-.719-15.5074-1.9372-22.8667-3.6247v-80.2831.03ZM467.2976,661.7569l.5292-.2996,36.1474,20.8696-.5292.2996-36.1474-20.8696ZM517.9838,675.9362l-.4094.2396c-.3795-.1698-.7389-.2896-1.0984-.3795.4693-.0499.9686-.02,1.5178.1398h-.01ZM517.9838,654.6273l33.2716,2.097-28.6783,16.5559c-.3695-.04-.7289-.1098-1.0784-.1897l-3.5149-18.4631h0ZM517.7941,653.6187l-4.0441-21.269,71.8853,4.5334-32.8122,18.9424-35.029-2.2068h0ZM434.4255,626.3484l-.4893-.2796,153.6463,9.6859-.3894.2297-152.7676-9.626v-.01ZM584.1375,634.5265l-78.6156-45.3839-.2896-1.5078v-37.8649l51.7946,29.9065h0c2.1669,1.2582,4.1939,3.7745,5.2823,6.5904l3.6647,9.4562c1.1683,3.0156,3.3651,5.7416,5.7217,7.0996h0l30.7852,17.7741h0c1.0884.6291,2.1369.9386,3.0955.9386,1.0185,0,1.9072-.3695,2.6062-1.0585.0799-.0499.1398-.1198.1797-.1997.0899-.1098.1997-.1897.2796-.3095l3.6647-5.2224c.2396-.3495.5392-.6191.8787-.8088h.02c1.0185-.5791,2.4165-.4294,3.9542.4593h0l1.4479.8388v2.5962l-29.4671,17.0152-5.0127-.3195h.01ZM622.2321,594.4449l33.2716,2.097-28.6783,16.5559c-.3695-.04-.7289-.1098-1.0784-.1897l-3.5149-18.4631h0ZM622.0323,593.4264l-4.0441-21.269,71.8853,4.5334-32.8122,18.9424-35.029-2.2068h0ZM538.6737,566.166l-.4893-.2796,153.6463,9.6859-.3894.2297-152.7676-9.626v-.01ZM688.3858,574.3441l-78.6156-45.3839-.2896-1.4978v-37.8749l51.7946,29.8965h0c2.1669,1.2582,4.1939,3.7745,5.2823,6.5904l3.6647,9.4562c1.1683,3.0156,3.3651,5.7416,5.7217,7.0996h0l30.7852,17.7741h0c1.0884.6291,2.1369.9386,3.0955.9386,1.0185,0,1.9072-.3695,2.6062-1.0585.0799-.0499.1398-.1198.1797-.1997.0899-.1098.1997-.1897.2796-.3095l3.6646-5.2224c.2496-.3495.5392-.6191.8787-.8088h0c1.0185-.5791,2.4265-.4194,3.9543.4593h0l1.4479.8388v2.5962l-29.4771,17.0152-5.0127-.3195.04.01ZM677.202,542.2109l.5293-.2996,29.7966,17.205-.5293.2996-29.7966-17.205ZM708.0471,559.9551l.4893-.2796c.5692.3095,1.1384.5192,1.6875.649-.6491.0799-1.388-.04-2.1768-.3695ZM719.9898,552.5658c.6491-.0699,1.378.0499,2.1369.3695l-.4793.2796c-.5692-.2996-1.1184-.5192-1.6576-.649h0ZM725.1423,553.4546l-1.7075-.9786c-1.8274-1.0585-3.6547-1.2182-4.9927-.4494l-1.4978.8687c-.4594.2596-.8587.6191-1.1883,1.0984l-3.6646,5.2224c-.0499.0799-.1198.1298-.1797.1997-.9186.1598-2.0171-.0899-3.1454-.7389l-30.7852-17.7741c-2.1668-1.2482-4.1939-3.7845-5.2923-6.5904l-.9386-2.4065,3.3352-4.7431c.2396-.3495.5392-.6091.8687-.7988h.02c1.0185-.5791,2.4165-.4294,3.9543.4593h0l48.1799,27.8195-.9586.5592c-.4893-.6391-1.1683-1.2282-2.0171-1.7175l.01-.03ZM681.1762,526.364l.5293-.2996,3.2353,1.8673h.01l44.6849,25.8024-.5293.2996-47.9302-27.6697ZM686.5385,527.702c1.358-.1698,2.7959.0499,3.8045.6391h0l41.6494,24.045-1.348.7789-44.1058-25.4629h0ZM691.4712,527.8319c.5093-.4993.9186-1.1783,1.1184-1.8773l42.578,24.5842-2.1868,1.2582-41.5096-23.9651ZM692.7494,524.8961l5.0526-86.3543,57.8558,33.4014-4.0441,69.1094-15.4375,8.917-43.4168-25.0635-.01-.01ZM756.6264,472.5124c22.1278,13.051,30.9549,31.3344,23.6256,49.0586-1.8274,1.8273-3.8145,3.6047-5.9613,5.3123-3.2753,2.6062-6.9399,5.0826-10.8941,7.3593l-10.7544,6.211,3.9742-67.9411h.01ZM756.4267,471.2243l-58.8243-33.9606s-.02,0-.02-.01h-.01c-2.776-1.5777-7.2495-1.5877-10.0454-.02h-.01c-.02.01-.0499.02-.0699.03l-1.4579.8388-.5293-.2996.9586-.5492c3.3751-1.9472,8.8571-1.9572,12.2222,0l58.8144,33.9606h0c20.7198,11.9626,30.6254,29.0577,26.5214,45.7434-.2296.4793-.4594.9486-.709,1.4179-.0899.1098-.1797.2197-.2696.3195-.3195.3695-.669.7289-1.0085,1.0884,5.9014-17.5145-3.6946-35.9277-25.5628-48.5493v-.01ZM786.4929,513.4628c.9087-2.6362,1.4878-5.3222,1.7175-7.9984,1.358-15.8669-8.917-31.3743-28.1989-42.608.1098-.4693.3894-.9386.7489-1.2382,24.005,13.9697,33.6011,33.671,25.6826,52.7532-.1797.2596-.3894.5093-.5792.7689.2197-.5592.4394-1.1084.6291-1.6676v-.01ZM790.1676,510.3972c1.368-2.4365,2.4764-4.9428,3.3052-7.4591.03-.0599.0499-.1198.0599-.1897.1897-.5692.3695-1.1384.5293-1.7075.4793-1.7475.8088-3.5149,1.0285-5.2823.02-.0699.0399-.1398.03-.2197v-.02c.1597-1.348.2496-2.6961.2496-4.0441,0-16.7356-11.2037-32.4528-31.5441-44.2855.0899-.4893.3894-1.0185.7689-1.338,20.3604,11.8428,31.574,27.5099,31.574,44.1557,0,8.5476-2.9657,16.8355-8.5975,24.4843.9486-1.348,1.8274-2.716,2.5962-4.094h0ZM794.3615,491.3749c-3.1554-13.5602-13.8398-26.1719-30.5855-35.9077v-7.1496c19.6913,11.5931,30.5456,26.8509,30.5855,43.0573ZM794.1119,495.5389c-.1398,1.1983-.3495,2.3865-.6091,3.5648-.9386-15.4076-11.9027-30.236-30.6254-41.23.3495-.3695.6191-.8488.7689-1.3281,17.8939,10.5047,28.7082,24.3246,30.4657,38.9832v.01ZM762.9073,446.66l-126.0265-72.7641,1.5477-.8887,125.2577,72.3147c-.3495.3695-.6191.8488-.7689,1.338h-.01ZM679.0394,346.8753l-68.0809,39.3128v-83.2288l1.4579-.8388c1.5378-.8887,2.9357-1.0385,3.9542-.4693h.02c.3395.1997.6291.4693.8787.8188l3.6647,5.2224h0c.0799.1198.1897.2097.2796.3095.04.0799.0999.1498.1797.1997.699.689,1.5877,1.0585,2.6062,1.0585.9586,0,2.0071-.3095,3.0955-.9386h0l11.7229-6.7701h0c2.3566-1.358,4.5534-4.0841,5.7217-7.0997h0l3.6647-9.4562h0c1.0984-2.8159,3.1155-5.3422,5.2923-6.5904l30.5955-17.6643-5.0426,86.1446-.01-.01ZM679.988,347.5044v-.03c.03-.02.0499-.03.0799-.0499-.03.03-.0599.0499-.0799.0799ZM681.6556,343.8197h0c-.0499.8787-.6091,1.7075-1.5777,2.4165l5.0426-86.1146c.5892-.3695,1.0984-.7689,1.5078-1.2082l-4.9727,84.9064ZM478.6611,226.86l13.6801-7.8985c36.7365-21.2091,96.5095-21.2091,133.246,0l58.8244,33.9606c1.5377.8887,2.3765,2.037,2.3765,3.2353s-.8487,2.3566-2.3965,3.2453l-31.1447,17.9838-.5292-.2996,30.6454-17.6942h0c1.4579-.8388,2.2567-1.9871,2.2567-3.2353s-.7988-2.3765-2.2467-3.2153l-58.8244-33.9606c-36.1674-20.8796-95.0117-20.8796-131.189,0l-13.6801,7.8985c-1.4479.8388-2.2467,1.9771-2.2467,3.2153s.7988,2.3865,2.2567,3.2253l.9486.5492-.5292.2996-1.4579-.8388c-1.5477-.8887-2.3965-2.047-2.3965-3.2453s.8488-2.3466,2.3765-3.2353l.03.01ZM683.3331,258.2143l.2296-3.9243c.679.5592,1.0485,1.2082,1.0485,1.8773,0,.7389-.4494,1.4579-1.2782,2.057v-.01ZM479.7195,232.1523c-.8288-.5991-1.2781-1.3181-1.2781-2.057,0-.669.3695-1.3181,1.0485-1.8773l.2297,3.9243v.01ZM481.4071,317.7577l-4.9728-84.9064c.3994.4394.9087.8488,1.5078,1.2182l5.0426,86.1146c-.9686-.699-1.5278-1.5378-1.5777-2.4165v-.01ZM482.9848,321.3624s.0499.03.0799.0499v.03c-.03-.03-.0599-.0499-.0799-.0799ZM478.9806,234.6686l.8987.5192c2.1669,1.2482,4.1939,3.7745,5.2923,6.5904l3.6647,9.4562h0c1.1683,3.0156,3.3651,5.7317,5.7217,7.0997h0l37.1459,21.4488h0c1.0884.6291,2.1369.9386,3.0955.9386,1.0185,0,1.9072-.3695,2.6062-1.0585.0799-.0499.1398-.1198.1797-.1997.0899-.1098.1997-.1897.2796-.3095l3.6647-5.2224c.2396-.3495.5392-.6191.8787-.8088h.01c1.0185-.5792,2.4265-.4294,3.9542.4593h0l50.866,29.3672v83.2288l-113.2252-65.3748-5.0426-86.1446.01.01ZM484.7223,322.7404c-.2297-.1298-.3994-.3695-.5192-.669l113.0754,65.285c0,.1298.02.2596.04.3894,0,0-112.5961-65.0054-112.5961-65.0054ZM169.0718,544.8271h0l349.1617-201.5865,18.2235,10.5247c-20.9096,2.5463-39.9319,8.4876-55.0698,17.2249l-246.2116,142.1531c-20.8696,12.0525-32.3629,28.0991-32.3629,45.1942s11.4933,33.1418,32.3629,45.1942h0l127.8539,73.8126h0c21.4388,12.382,49.6078,18.563,77.7768,18.563s56.328-6.191,77.7768-18.563h0l246.2116-142.1431h0c20.8696-12.0525,32.3629-28.0991,32.3629-45.1942s-11.4933-33.1418-32.3629-45.1942l-125.3775-72.3846,5.6118-3.2353,185.8694,107.3138c6.2908,3.6347,9.7558,8.4277,9.7558,13.5103s-3.4649,9.8756-9.7558,13.5103l-366.1869,211.4222c-13.1808,7.6089-34.6196,7.6089-47.8004,0l-247.8293-143.1017c-6.2908-3.6347-9.7558-8.4277-9.7558-13.5103s3.465-9.8756,9.7458-13.5103ZM831.8769,505.8838l-365.2782,210.893c-.1498-.4893-.4294-.9586-.7689-1.3381l365.2783-210.893c.3795.3195.689.8488.7689,1.338h0ZM440.8062,724.1261c8.9769,0,17.9439-1.9272,24.9237-5.7416v10.8542c-13.8199,7.8286-36.0176,7.8286-49.8375,0v-10.8542c6.9798,3.8145,15.9368,5.7416,24.9237,5.7416h-.01ZM415.9424,717.2861c.0899-.4893.3994-1.0185.7789-1.3281,6.6903,3.7745,15.3876,5.6617,24.0949,5.6617s17.4047-1.8973,24.0949-5.6617c.3795.3195.689.8388.7789,1.3281-13.7999,7.7986-35.9377,7.7986-49.7476,0ZM415.7926,715.4387c-.3495.3695-.6191.8487-.7689,1.3381l-246.9206-142.5625c.0899-.4893.3894-1.0185.7689-1.338l246.9206,142.5625ZM167.0547,585.5678c-6.151-3.7645-9.5261-8.6374-9.5261-13.7899v-6.9998c1.5278,3.7545,4.783,7.1895,9.5261,9.9855v10.8043ZM167.1945,573.6751c-6.2309-3.7845-9.6659-8.6874-9.6659-13.8698,0-1.1483.1598-2.2966.4693-3.425.3095-1.1184.7689-2.2268,1.368-3.3052.2097-.3695.4493-.7289.699-1.0884-1.1383,2.0171-1.7375,4.154-1.7375,6.3507,0,5.2823,3.425,10.2351,9.646,13.9996-.3495.3695-.6191.8488-.7789,1.338h0ZM168.0532,586.1669v-10.8242l246.8307,142.5126v10.8243l-246.8307-142.5126ZM219.1888,669.5555v-.0599l-4.7531-55.4093,25.423,14.6786,4.6532,74.202c-15.2278-9.0269-24.2147-20.8596-25.3231-33.4114h0ZM238.3709,701.1795c-2.736-2.1269-5.2324-4.4036-7.4292-6.7801-1.0485-1.1284-2.027-2.2966-2.9457-3.475,4.2738,4.8529,9.8457,9.3364,16.6058,13.2607.0499.5592.1598,1.0784.3295,1.5378-2.3266-1.4379-4.5234-2.9657-6.5604-4.5534v.01ZM240.8972,629.374l130.8196,75.53,4.6532,74.222-130.8196-75.5301-4.6532-74.222h0ZM247.1681,707.0709c-.719-.4194-1.2182-1.1983-1.4479-2.2268l130.7497,75.4901c.0599.5792.1698,1.1184.3495,1.5976l-129.6413-74.851-.01-.0099ZM502.756,783.2001c-6.6403,3.8344-14.1993,7.0098-22.4773,9.4463-8.1581,2.3965-16.8654,4.0341-25.8723,4.8629-8.9769.8188-18.0737.8188-27.0406,0-9.0069-.8288-17.7142-2.4564-25.8723-4.8629-8.2779-2.4365-15.8369-5.6118-22.4773-9.4463-.7289-.4194-1.2182-1.2083-1.4579-2.2567,17.5944,9.8856,40.4511,14.8484,63.3178,14.8484s45.7334-4.9528,63.3178-14.8484c-.2297,1.0485-.7289,1.8374-1.4579,2.2567h.02ZM377.4085,779.7151l-4.6532-74.212,42.3883,24.4744c7.0797,4.0841,16.3762,6.1311,25.6726,6.1311s18.5929-2.047,25.6726-6.1311l42.558-24.5642-4.6632,74.3118c-35.0789,20.1107-91.8862,20.1107-126.9552,0l-.0199-.01ZM752.812,638.8303l-247.8392,143.0917c.1797-.4793.2896-1.0185.3495-1.5976l248.9476-143.7308c-.2396,1.0385-.7289,1.8174-1.4479,2.2268l-.0099.01ZM505.4121,779.126l4.6632-74.3118,249.0175-143.7707-4.6632,74.3118-249.0175,143.7707h0ZM769.0384,626.1587c-2.1968,2.3665-4.6932,4.6432-7.4292,6.7801-2.037,1.5877-4.2438,3.1155-6.5605,4.5534.1697-.4693.2796-.9786.3295-1.5378,6.7602-3.9343,12.332-8.4078,16.6058-13.2607-.9186,1.1783-1.8973,2.3466-2.9457,3.475v-.01ZM780.7912,601.2649c-1.0784,12.5717-10.0754,24.4244-25.3231,33.4713l4.6632-74.2918,25.423-14.6786-4.7631,55.4992h0ZM831.9168,517.8364l-365.1884,210.8431v-10.8243l365.1884-210.8431v10.8242h0ZM842.4515,503.4473c0,5.1525-3.3851,10.0154-9.5261,13.7899v-10.8043c4.7531-2.7959,8.0084-6.2309,9.5261-9.9855v6.9998ZM832.7855,505.3446c-.1498-.4893-.4294-.9586-.7789-1.338,6.2209-3.7745,9.6459-8.7273,9.6459-13.9996,0-2.1968-.5991-4.3337-1.7375-6.3507.2396.3595.4893.719.699,1.0884.5991,1.0685,1.0685,2.1868,1.368,3.3052.3095,1.1284.4693,2.2867.4693,3.425,0,5.1825-3.435,10.0853-9.6659,13.8698h0Z"/>
  </g>
  <g id="Layer_3" data-name="Layer 3">
    <path d="M737.58,648.05c0,.47,1.35,14.09-14.05,23.22-18.09,10.73-336,194.48-364.35,211.22s-49.12,12.33-70.7,0-194.64-112.29-226.35-129.91-23.78-29.5-11.45-36.38c12.15-6.77,159.2-92.39,163.5-94.9l4.11,47.91c0,.4.08.81.13,1.21.3156,2.6706.9191,5.2993,1.8,7.84,1.0339,2.9688,2.3957,5.813,4.06,8.48,1.7216,2.7512,3.7005,5.3328,5.91,7.71,2.3125,2.4775,4.8206,4.7649,7.5,6.84,2.8189,2.1784,5.7823,4.163,8.87,5.94l132.05,76.24c7.141,4.0435,14.7333,7.2321,22.62,9.5,8.488,2.4655,17.1956,4.0999,26,4.88,9.0377.83,18.1324.83,27.17,0,8.8044-.7801,17.512-2.4145,26-4.88,7.8867-2.2679,15.479-5.4565,22.62-9.5l234.56-135.42Z"/>
  </g>
</svg>