<svg width="365" height="107" viewBox="0 0 365 107" fill="none" xmlns="http://www.w3.org/2000/svg">
<path d="M81.8764 26.764V61.122C81.8764 63.91 81.9584 66.3973 82.1224 68.584C82.2864 70.7707 82.7237 72.6567 83.4344 74.242C84.145 75.7727 85.2384 76.948 86.7144 77.768C88.245 78.588 90.3497 78.998 93.0284 78.998C95.707 78.998 97.7844 78.588 99.2604 77.768C100.791 76.948 101.912 75.7727 102.622 74.242C103.333 72.6567 103.77 70.7707 103.934 68.584C104.098 66.3973 104.18 63.91 104.18 61.122V26.764H111.068V59.482C111.068 63.746 110.85 67.4633 110.412 70.634C110.03 73.8047 109.182 76.456 107.87 78.588C106.613 80.72 104.782 82.3327 102.376 83.426C100.026 84.4647 96.9097 84.984 93.0284 84.984C89.147 84.984 86.0037 84.4647 83.5984 83.426C81.2477 82.3327 79.4164 80.72 78.1044 78.588C76.847 76.456 75.9997 73.8047 75.5624 70.634C75.1797 67.4633 74.9884 63.746 74.9884 59.482V26.764H81.8764ZM125.632 84V41.688H132.192V48.576H132.52C132.958 47.5373 133.504 46.5533 134.16 45.624C134.816 44.64 135.609 43.7927 136.538 43.082C137.522 42.3713 138.67 41.7973 139.982 41.36C141.294 40.9227 142.825 40.704 144.574 40.704C149.002 40.704 152.556 42.1253 155.234 44.968C157.913 47.756 159.252 51.7193 159.252 56.858V84H152.692V58.006C152.692 54.1247 151.845 51.2547 150.15 49.396C148.456 47.4827 145.968 46.526 142.688 46.526C141.376 46.526 140.092 46.69 138.834 47.018C137.577 47.346 136.456 47.838 135.472 48.494C134.488 49.15 133.696 49.9973 133.094 51.036C132.493 52.0747 132.192 53.2773 132.192 54.644V84H125.632ZM193.988 32.34C192.075 32.34 190.736 31.9573 189.97 31.192C189.205 30.372 188.822 29.3607 188.822 28.158V26.846C188.822 25.6433 189.205 24.6593 189.97 23.894C190.736 23.074 192.075 22.664 193.988 22.664C195.902 22.664 197.241 23.074 198.006 23.894C198.772 24.6593 199.154 25.6433 199.154 26.846V28.158C199.154 29.3607 198.772 30.372 198.006 31.192C197.241 31.9573 195.902 32.34 193.988 32.34ZM175.456 78.424H190.708V47.264H175.456V41.688H197.268V78.424H211.536V84H175.456V78.424ZM242.582 84C239.357 84 236.979 83.098 235.448 81.294C233.972 79.49 233.234 77.1667 233.234 74.324V47.264H219.13V41.688H229.626C231.048 41.688 232.032 41.4147 232.578 40.868C233.18 40.2667 233.48 39.2553 233.48 37.834V26.764H239.794V41.688H259.064V47.264H239.794V78.424H259.064V84H242.582ZM290.192 84.984C285.764 84.984 281.938 84.246 278.712 82.77C275.542 81.2393 272.836 79.2167 270.594 76.702L275.022 72.848C277.045 74.98 279.259 76.62 281.664 77.768C284.07 78.916 286.967 79.49 290.356 79.49C293.636 79.49 296.315 78.916 298.392 77.768C300.524 76.5653 301.59 74.7067 301.59 72.192C301.59 71.0987 301.372 70.1967 300.934 69.486C300.552 68.7207 300.005 68.1193 299.294 67.682C298.584 67.2447 297.791 66.9167 296.916 66.698C296.042 66.4247 295.112 66.206 294.128 66.042L287.486 65.058C286.01 64.8393 284.398 64.5387 282.648 64.156C280.954 63.7733 279.396 63.172 277.974 62.352C276.553 61.4773 275.35 60.3293 274.366 58.908C273.437 57.4867 272.972 55.628 272.972 53.332C272.972 51.2 273.382 49.3687 274.202 47.838C275.077 46.2527 276.28 44.9407 277.81 43.902C279.341 42.8087 281.145 42.016 283.222 41.524C285.3 40.9773 287.568 40.704 290.028 40.704C293.855 40.704 297.162 41.3053 299.95 42.508C302.793 43.7107 305.226 45.378 307.248 47.51L302.984 51.528C302.492 50.9267 301.864 50.3253 301.098 49.724C300.388 49.068 299.486 48.494 298.392 48.002C297.354 47.4553 296.124 47.018 294.702 46.69C293.281 46.362 291.641 46.198 289.782 46.198C286.448 46.198 283.878 46.772 282.074 47.92C280.325 49.068 279.45 50.7353 279.45 52.922C279.45 54.0153 279.642 54.9447 280.024 55.71C280.462 56.4207 281.036 56.9947 281.746 57.432C282.457 57.8693 283.25 58.2247 284.124 58.498C285.054 58.7167 285.983 58.908 286.912 59.072L293.554 60.056C295.085 60.2747 296.698 60.5753 298.392 60.958C300.087 61.3407 301.645 61.9693 303.066 62.844C304.488 63.664 305.663 64.7847 306.592 66.206C307.576 67.6273 308.068 69.486 308.068 71.782C308.068 75.9913 306.428 79.244 303.148 81.54C299.923 83.836 295.604 84.984 290.192 84.984ZM338.868 84.738C336.627 84.738 335.042 84.2733 334.112 83.344C333.238 82.4147 332.8 81.2393 332.8 79.818V78.342C332.8 76.9207 333.238 75.7453 334.112 74.816C335.042 73.8867 336.627 73.422 338.868 73.422C341.11 73.422 342.668 73.8867 343.542 74.816C344.472 75.7453 344.936 76.9207 344.936 78.342V79.818C344.936 81.2393 344.472 82.4147 343.542 83.344C342.668 84.2733 341.11 84.738 338.868 84.738Z" fill="black"/>
<path d="M3 80.9839L54.0841 80.9839" stroke="black" stroke-width="6" stroke-linecap="round"/>
<path d="M3 55.3906L22.1303 55.3906" stroke="black" stroke-width="6" stroke-linecap="round"/>
<path d="M3 68.1787L14.3903 68.1787" stroke="black" stroke-width="6" stroke-linecap="round"/>
<path d="M3 42.603L14.3903 42.603" stroke="black" stroke-width="6" stroke-linecap="round"/>
<path d="M3 29.7974L54.0841 29.7974" stroke="black" stroke-width="6" stroke-linecap="round"/>
<path d="M6 29.7974C6 28.1405 4.65686 26.7974 3 26.7974C1.34315 26.7974 2.30986e-06 28.1405 2.23743e-06 29.7974L3 29.7974L6 29.7974ZM3 80.9839L6 80.9839L6 29.7974L3 29.7974L2.23743e-06 29.7974L0 80.9839L3 80.9839Z" fill="black"/>
<path d="M57.0841 29.7974C57.0841 28.1405 55.7409 26.7974 54.0841 26.7974C52.4272 26.7974 51.0841 28.1405 51.0841 29.7974L54.0841 29.7974L57.0841 29.7974ZM54.0841 80.9839L57.0841 80.9839L57.0841 29.7974L54.0841 29.7974L51.0841 29.7974L51.0841 80.9839L54.0841 80.9839Z" fill="black"/>
</svg>
