<svg width="500" height="328" viewBox="0 0 500 328" fill="none" xmlns="http://www.w3.org/2000/svg">
<circle cx="115.594" cy="153" r="108.5" stroke="#333333" stroke-width="3"/>
<circle cx="259.594" cy="153" r="108.5" stroke="#333333" stroke-width="3"/>
<mask id="mask0_282_191" style="mask-type:alpha" maskUnits="userSpaceOnUse" x="149" y="69" width="77" height="168">
<path fill-rule="evenodd" clip-rule="evenodd" d="M187.594 236.329C210.87 216.16 225.594 186.382 225.594 153.165C225.594 119.947 210.87 90.1692 187.594 69.9998C164.317 90.1692 149.594 119.947 149.594 153.165C149.594 186.382 164.317 216.16 187.594 236.329Z" fill="#C4C4C4"/>
</mask>
<g mask="url(#mask0_282_191)">
<circle cx="148.53" cy="125.596" r="1.95745" fill="#333333"/>
<circle cx="156.36" cy="125.596" r="1.95745" fill="#333333"/>
<circle cx="164.19" cy="125.596" r="1.95745" fill="#333333"/>
<circle cx="172.02" cy="125.596" r="1.95745" fill="#333333"/>
<circle cx="179.848" cy="125.596" r="1.95745" fill="#333333"/>
<circle cx="187.68" cy="125.596" r="1.95745" fill="#333333"/>
<circle cx="148.53" cy="133.425" r="1.95745" fill="#333333"/>
<circle cx="156.36" cy="133.425" r="1.95745" fill="#333333"/>
<circle cx="164.19" cy="133.425" r="1.95745" fill="#333333"/>
<circle cx="172.02" cy="133.425" r="1.95745" fill="#333333"/>
<circle cx="179.848" cy="133.425" r="1.95745" fill="#333333"/>
<circle cx="187.68" cy="133.425" r="1.95745" fill="#333333"/>
<circle cx="148.53" cy="141.255" r="1.95745" fill="#333333"/>
<circle cx="156.36" cy="141.255" r="1.95745" fill="#333333"/>
<circle cx="164.19" cy="141.255" r="1.95745" fill="#333333"/>
<circle cx="172.02" cy="141.255" r="1.95745" fill="#333333"/>
<circle cx="179.848" cy="141.255" r="1.95745" fill="#333333"/>
<circle cx="187.68" cy="141.255" r="1.95745" fill="#333333"/>
<circle cx="148.53" cy="149.085" r="1.95745" fill="#333333"/>
<circle cx="156.36" cy="149.085" r="1.95745" fill="#333333"/>
<circle cx="164.19" cy="149.085" r="1.95745" fill="#333333"/>
<circle cx="172.02" cy="149.085" r="1.95745" fill="#333333"/>
<circle cx="179.848" cy="149.085" r="1.95745" fill="#333333"/>
<circle cx="187.68" cy="149.085" r="1.95745" fill="#333333"/>
<circle cx="148.53" cy="94.2768" r="1.95745" fill="#333333"/>
<circle cx="156.36" cy="94.2768" r="1.95745" fill="#333333"/>
<circle cx="164.19" cy="94.2768" r="1.95745" fill="#333333"/>
<circle cx="172.02" cy="94.2768" r="1.95745" fill="#333333"/>
<circle cx="179.848" cy="94.2768" r="1.95745" fill="#333333"/>
<circle cx="187.68" cy="94.2768" r="1.95745" fill="#333333"/>
<circle cx="148.53" cy="102.106" r="1.95745" fill="#333333"/>
<circle cx="156.36" cy="102.106" r="1.95745" fill="#333333"/>
<circle cx="164.19" cy="102.106" r="1.95745" fill="#333333"/>
<circle cx="172.02" cy="102.106" r="1.95745" fill="#333333"/>
<circle cx="179.848" cy="102.106" r="1.95745" fill="#333333"/>
<circle cx="187.68" cy="102.106" r="1.95745" fill="#333333"/>
<circle cx="148.53" cy="109.936" r="1.95745" fill="#333333"/>
<circle cx="156.36" cy="109.936" r="1.95745" fill="#333333"/>
<circle cx="164.19" cy="109.936" r="1.95745" fill="#333333"/>
<circle cx="172.02" cy="109.936" r="1.95745" fill="#333333"/>
<circle cx="179.848" cy="109.936" r="1.95745" fill="#333333"/>
<circle cx="187.68" cy="109.936" r="1.95745" fill="#333333"/>
<circle cx="148.53" cy="117.766" r="1.95745" fill="#333333"/>
<circle cx="156.36" cy="117.766" r="1.95745" fill="#333333"/>
<circle cx="164.19" cy="117.766" r="1.95745" fill="#333333"/>
<circle cx="172.02" cy="117.766" r="1.95745" fill="#333333"/>
<circle cx="179.848" cy="117.766" r="1.95745" fill="#333333"/>
<circle cx="187.68" cy="117.766" r="1.95745" fill="#333333"/>
<circle cx="148.53" cy="70.787" r="1.95745" fill="#333333"/>
<circle cx="156.36" cy="70.787" r="1.95745" fill="#333333"/>
<circle cx="164.19" cy="70.787" r="1.95745" fill="#333333"/>
<circle cx="172.02" cy="70.787" r="1.95745" fill="#333333"/>
<circle cx="179.848" cy="70.787" r="1.95745" fill="#333333"/>
<circle cx="187.68" cy="70.787" r="1.95745" fill="#333333"/>
<circle cx="148.53" cy="78.6171" r="1.95745" fill="#333333"/>
<circle cx="156.36" cy="78.6171" r="1.95745" fill="#333333"/>
<circle cx="164.19" cy="78.6171" r="1.95745" fill="#333333"/>
<circle cx="172.02" cy="78.6171" r="1.95745" fill="#333333"/>
<circle cx="179.848" cy="78.6171" r="1.95745" fill="#333333"/>
<circle cx="187.68" cy="78.6171" r="1.95745" fill="#333333"/>
<circle cx="148.53" cy="86.4467" r="1.95745" fill="#333333"/>
<circle cx="156.36" cy="86.4467" r="1.95745" fill="#333333"/>
<circle cx="164.19" cy="86.4467" r="1.95745" fill="#333333"/>
<circle cx="172.02" cy="86.4467" r="1.95745" fill="#333333"/>
<circle cx="179.848" cy="86.4467" r="1.95745" fill="#333333"/>
<circle cx="187.68" cy="86.4467" r="1.95745" fill="#333333"/>
<circle cx="148.53" cy="219.553" r="1.95745" fill="#333333"/>
<circle cx="156.36" cy="219.553" r="1.95745" fill="#333333"/>
<circle cx="164.19" cy="219.553" r="1.95745" fill="#333333"/>
<circle cx="172.02" cy="219.553" r="1.95745" fill="#333333"/>
<circle cx="179.848" cy="219.553" r="1.95745" fill="#333333"/>
<circle cx="187.68" cy="219.553" r="1.95745" fill="#333333"/>
<circle cx="148.53" cy="227.383" r="1.95745" fill="#333333"/>
<circle cx="156.36" cy="227.383" r="1.95745" fill="#333333"/>
<circle cx="164.19" cy="227.383" r="1.95745" fill="#333333"/>
<circle cx="172.02" cy="227.383" r="1.95745" fill="#333333"/>
<circle cx="179.848" cy="227.383" r="1.95745" fill="#333333"/>
<circle cx="187.68" cy="227.383" r="1.95745" fill="#333333"/>
<circle cx="148.53" cy="235.213" r="1.95745" fill="#333333"/>
<circle cx="156.36" cy="235.213" r="1.95745" fill="#333333"/>
<circle cx="164.19" cy="235.213" r="1.95745" fill="#333333"/>
<circle cx="172.02" cy="235.213" r="1.95745" fill="#333333"/>
<circle cx="179.848" cy="235.213" r="1.95745" fill="#333333"/>
<circle cx="187.68" cy="235.213" r="1.95745" fill="#333333"/>
<circle cx="148.53" cy="188.234" r="1.95745" fill="#333333"/>
<circle cx="156.36" cy="188.234" r="1.95745" fill="#333333"/>
<circle cx="164.19" cy="188.234" r="1.95745" fill="#333333"/>
<circle cx="172.02" cy="188.234" r="1.95745" fill="#333333"/>
<circle cx="179.848" cy="188.234" r="1.95745" fill="#333333"/>
<circle cx="187.68" cy="188.234" r="1.95745" fill="#333333"/>
<circle cx="148.53" cy="196.064" r="1.95745" fill="#333333"/>
<circle cx="156.36" cy="196.064" r="1.95745" fill="#333333"/>
<circle cx="164.19" cy="196.064" r="1.95745" fill="#333333"/>
<circle cx="172.02" cy="196.064" r="1.95745" fill="#333333"/>
<circle cx="179.848" cy="196.064" r="1.95745" fill="#333333"/>
<circle cx="187.68" cy="196.064" r="1.95745" fill="#333333"/>
<circle cx="148.53" cy="203.894" r="1.95745" fill="#333333"/>
<circle cx="156.36" cy="203.894" r="1.95745" fill="#333333"/>
<circle cx="164.19" cy="203.894" r="1.95745" fill="#333333"/>
<circle cx="172.02" cy="203.894" r="1.95745" fill="#333333"/>
<circle cx="179.848" cy="203.894" r="1.95745" fill="#333333"/>
<circle cx="187.68" cy="203.894" r="1.95745" fill="#333333"/>
<circle cx="148.53" cy="211.724" r="1.95745" fill="#333333"/>
<circle cx="156.36" cy="211.724" r="1.95745" fill="#333333"/>
<circle cx="164.19" cy="211.724" r="1.95745" fill="#333333"/>
<circle cx="172.02" cy="211.724" r="1.95745" fill="#333333"/>
<circle cx="179.848" cy="211.724" r="1.95745" fill="#333333"/>
<circle cx="187.68" cy="211.724" r="1.95745" fill="#333333"/>
<circle cx="148.53" cy="156.915" r="1.95745" fill="#333333"/>
<circle cx="156.36" cy="156.915" r="1.95745" fill="#333333"/>
<circle cx="164.19" cy="156.915" r="1.95745" fill="#333333"/>
<circle cx="172.02" cy="156.915" r="1.95745" fill="#333333"/>
<circle cx="179.848" cy="156.915" r="1.95745" fill="#333333"/>
<circle cx="187.68" cy="156.915" r="1.95745" fill="#333333"/>
<circle cx="148.53" cy="164.745" r="1.95745" fill="#333333"/>
<circle cx="156.36" cy="164.745" r="1.95745" fill="#333333"/>
<circle cx="164.19" cy="164.745" r="1.95745" fill="#333333"/>
<circle cx="172.02" cy="164.745" r="1.95745" fill="#333333"/>
<circle cx="179.848" cy="164.745" r="1.95745" fill="#333333"/>
<circle cx="187.68" cy="164.745" r="1.95745" fill="#333333"/>
<circle cx="148.53" cy="172.575" r="1.95745" fill="#333333"/>
<circle cx="156.36" cy="172.575" r="1.95745" fill="#333333"/>
<circle cx="164.19" cy="172.575" r="1.95745" fill="#333333"/>
<circle cx="172.02" cy="172.575" r="1.95745" fill="#333333"/>
<circle cx="179.848" cy="172.575" r="1.95745" fill="#333333"/>
<circle cx="187.68" cy="172.575" r="1.95745" fill="#333333"/>
<circle cx="148.53" cy="180.404" r="1.95745" fill="#333333"/>
<circle cx="156.36" cy="180.404" r="1.95745" fill="#333333"/>
<circle cx="164.19" cy="180.404" r="1.95745" fill="#333333"/>
<circle cx="172.02" cy="180.404" r="1.95745" fill="#333333"/>
<circle cx="179.848" cy="180.404" r="1.95745" fill="#333333"/>
<circle cx="187.68" cy="180.404" r="1.95745" fill="#333333"/>
<circle cx="195.508" cy="125.596" r="1.95745" fill="#333333"/>
<circle cx="203.338" cy="125.596" r="1.95745" fill="#333333"/>
<circle cx="211.168" cy="125.596" r="1.95745" fill="#333333"/>
<circle cx="218.998" cy="125.596" r="1.95745" fill="#333333"/>
<circle cx="226.827" cy="125.596" r="1.95745" fill="#333333"/>
<circle cx="195.508" cy="133.425" r="1.95745" fill="#333333"/>
<circle cx="203.338" cy="133.425" r="1.95745" fill="#333333"/>
<circle cx="211.168" cy="133.425" r="1.95745" fill="#333333"/>
<circle cx="218.998" cy="133.425" r="1.95745" fill="#333333"/>
<circle cx="226.827" cy="133.425" r="1.95745" fill="#333333"/>
<circle cx="195.508" cy="141.255" r="1.95745" fill="#333333"/>
<circle cx="203.338" cy="141.255" r="1.95745" fill="#333333"/>
<circle cx="211.168" cy="141.255" r="1.95745" fill="#333333"/>
<circle cx="218.998" cy="141.255" r="1.95745" fill="#333333"/>
<circle cx="226.827" cy="141.255" r="1.95745" fill="#333333"/>
<circle cx="195.508" cy="149.085" r="1.95745" fill="#333333"/>
<circle cx="203.338" cy="149.085" r="1.95745" fill="#333333"/>
<circle cx="211.168" cy="149.085" r="1.95745" fill="#333333"/>
<circle cx="218.998" cy="149.085" r="1.95745" fill="#333333"/>
<circle cx="226.827" cy="149.085" r="1.95745" fill="#333333"/>
<circle cx="195.508" cy="94.2768" r="1.95745" fill="#333333"/>
<circle cx="203.338" cy="94.2768" r="1.95745" fill="#333333"/>
<circle cx="211.168" cy="94.2768" r="1.95745" fill="#333333"/>
<circle cx="218.998" cy="94.2768" r="1.95745" fill="#333333"/>
<circle cx="226.827" cy="94.2768" r="1.95745" fill="#333333"/>
<circle cx="195.508" cy="102.106" r="1.95745" fill="#333333"/>
<circle cx="203.338" cy="102.106" r="1.95745" fill="#333333"/>
<circle cx="211.168" cy="102.106" r="1.95745" fill="#333333"/>
<circle cx="218.998" cy="102.106" r="1.95745" fill="#333333"/>
<circle cx="226.827" cy="102.106" r="1.95745" fill="#333333"/>
<circle cx="195.508" cy="109.936" r="1.95745" fill="#333333"/>
<circle cx="203.338" cy="109.936" r="1.95745" fill="#333333"/>
<circle cx="211.168" cy="109.936" r="1.95745" fill="#333333"/>
<circle cx="218.998" cy="109.936" r="1.95745" fill="#333333"/>
<circle cx="226.827" cy="109.936" r="1.95745" fill="#333333"/>
<circle cx="195.508" cy="117.766" r="1.95745" fill="#333333"/>
<circle cx="203.338" cy="117.766" r="1.95745" fill="#333333"/>
<circle cx="211.168" cy="117.766" r="1.95745" fill="#333333"/>
<circle cx="218.998" cy="117.766" r="1.95745" fill="#333333"/>
<circle cx="226.827" cy="117.766" r="1.95745" fill="#333333"/>
<circle cx="195.508" cy="70.787" r="1.95745" fill="#333333"/>
<circle cx="203.338" cy="70.787" r="1.95745" fill="#333333"/>
<circle cx="211.168" cy="70.787" r="1.95745" fill="#333333"/>
<circle cx="218.998" cy="70.787" r="1.95745" fill="#333333"/>
<circle cx="226.827" cy="70.787" r="1.95745" fill="#333333"/>
<circle cx="195.508" cy="78.6171" r="1.95745" fill="#333333"/>
<circle cx="203.338" cy="78.6171" r="1.95745" fill="#333333"/>
<circle cx="211.168" cy="78.6171" r="1.95745" fill="#333333"/>
<circle cx="218.998" cy="78.6171" r="1.95745" fill="#333333"/>
<circle cx="226.827" cy="78.6171" r="1.95745" fill="#333333"/>
<circle cx="195.508" cy="86.4467" r="1.95745" fill="#333333"/>
<circle cx="203.338" cy="86.4467" r="1.95745" fill="#333333"/>
<circle cx="211.168" cy="86.4467" r="1.95745" fill="#333333"/>
<circle cx="218.998" cy="86.4467" r="1.95745" fill="#333333"/>
<circle cx="226.827" cy="86.4467" r="1.95745" fill="#333333"/>
<circle cx="195.508" cy="219.553" r="1.95745" fill="#333333"/>
<circle cx="203.338" cy="219.553" r="1.95745" fill="#333333"/>
<circle cx="211.168" cy="219.553" r="1.95745" fill="#333333"/>
<circle cx="218.998" cy="219.553" r="1.95745" fill="#333333"/>
<circle cx="226.827" cy="219.553" r="1.95745" fill="#333333"/>
<circle cx="195.508" cy="227.383" r="1.95745" fill="#333333"/>
<circle cx="203.338" cy="227.383" r="1.95745" fill="#333333"/>
<circle cx="211.168" cy="227.383" r="1.95745" fill="#333333"/>
<circle cx="218.998" cy="227.383" r="1.95745" fill="#333333"/>
<circle cx="226.827" cy="227.383" r="1.95745" fill="#333333"/>
<circle cx="195.508" cy="235.213" r="1.95745" fill="#333333"/>
<circle cx="203.338" cy="235.213" r="1.95745" fill="#333333"/>
<circle cx="211.168" cy="235.213" r="1.95745" fill="#333333"/>
<circle cx="218.998" cy="235.213" r="1.95745" fill="#333333"/>
<circle cx="226.827" cy="235.213" r="1.95745" fill="#333333"/>
<circle cx="195.508" cy="188.234" r="1.95745" fill="#333333"/>
<circle cx="203.338" cy="188.234" r="1.95745" fill="#333333"/>
<circle cx="211.168" cy="188.234" r="1.95745" fill="#333333"/>
<circle cx="218.998" cy="188.234" r="1.95745" fill="#333333"/>
<circle cx="226.827" cy="188.234" r="1.95745" fill="#333333"/>
<circle cx="195.508" cy="196.064" r="1.95745" fill="#333333"/>
<circle cx="203.338" cy="196.064" r="1.95745" fill="#333333"/>
<circle cx="211.168" cy="196.064" r="1.95745" fill="#333333"/>
<circle cx="218.998" cy="196.064" r="1.95745" fill="#333333"/>
<circle cx="226.827" cy="196.064" r="1.95745" fill="#333333"/>
<circle cx="195.508" cy="203.894" r="1.95745" fill="#333333"/>
<circle cx="203.338" cy="203.894" r="1.95745" fill="#333333"/>
<circle cx="211.168" cy="203.894" r="1.95745" fill="#333333"/>
<circle cx="218.998" cy="203.894" r="1.95745" fill="#333333"/>
<circle cx="226.827" cy="203.894" r="1.95745" fill="#333333"/>
<circle cx="195.508" cy="211.724" r="1.95745" fill="#333333"/>
<circle cx="203.338" cy="211.724" r="1.95745" fill="#333333"/>
<circle cx="211.168" cy="211.724" r="1.95745" fill="#333333"/>
<circle cx="218.998" cy="211.724" r="1.95745" fill="#333333"/>
<circle cx="226.827" cy="211.724" r="1.95745" fill="#333333"/>
<circle cx="195.508" cy="156.915" r="1.95745" fill="#333333"/>
<circle cx="203.338" cy="156.915" r="1.95745" fill="#333333"/>
<circle cx="211.168" cy="156.915" r="1.95745" fill="#333333"/>
<circle cx="218.998" cy="156.915" r="1.95745" fill="#333333"/>
<circle cx="226.827" cy="156.915" r="1.95745" fill="#333333"/>
<circle cx="195.508" cy="164.745" r="1.95745" fill="#333333"/>
<circle cx="203.338" cy="164.745" r="1.95745" fill="#333333"/>
<circle cx="211.168" cy="164.745" r="1.95745" fill="#333333"/>
<circle cx="218.998" cy="164.745" r="1.95745" fill="#333333"/>
<circle cx="226.827" cy="164.745" r="1.95745" fill="#333333"/>
<circle cx="195.508" cy="172.575" r="1.95745" fill="#333333"/>
<circle cx="203.338" cy="172.575" r="1.95745" fill="#333333"/>
<circle cx="211.168" cy="172.575" r="1.95745" fill="#333333"/>
<circle cx="218.998" cy="172.575" r="1.95745" fill="#333333"/>
<circle cx="226.827" cy="172.575" r="1.95745" fill="#333333"/>
<circle cx="195.508" cy="180.404" r="1.95745" fill="#333333"/>
<circle cx="203.338" cy="180.404" r="1.95745" fill="#333333"/>
<circle cx="211.168" cy="180.404" r="1.95745" fill="#333333"/>
<circle cx="218.998" cy="180.404" r="1.95745" fill="#333333"/>
<circle cx="226.827" cy="180.404" r="1.95745" fill="#333333"/>
</g>
<path d="M266.594 155L370.094 51.5H397.594" stroke="black"/>
<path d="M408.352 46.8125H406.219C406.042 46.8125 405.914 46.7734 405.836 46.6953C405.763 46.6172 405.727 46.4792 405.727 46.2812C405.727 46.0833 405.763 45.9453 405.836 45.8672C405.914 45.7891 406.042 45.75 406.219 45.75H409.031C409.208 45.75 409.333 45.7891 409.406 45.8672C409.484 45.9453 409.523 46.0833 409.523 46.2812V54.9375H412.031C412.208 54.9375 412.333 54.9766 412.406 55.0547C412.484 55.1328 412.523 55.2708 412.523 55.4688C412.523 55.6667 412.484 55.8047 412.406 55.8828C412.333 55.9609 412.208 56 412.031 56H405.906C405.729 56 405.602 55.9609 405.523 55.8828C405.451 55.8047 405.414 55.6667 405.414 55.4688C405.414 55.2708 405.451 55.1328 405.523 55.0547C405.602 54.9766 405.729 54.9375 405.906 54.9375H408.352V46.8125ZM417.703 49.8438H415.727C415.55 49.8438 415.422 49.8047 415.344 49.7266C415.271 49.6484 415.235 49.5104 415.235 49.3125C415.235 49.1146 415.271 48.9766 415.344 48.8984C415.422 48.8203 415.55 48.7812 415.727 48.7812H418.383C418.56 48.7812 418.685 48.8203 418.758 48.8984C418.836 48.9766 418.875 49.1146 418.875 49.3125V54.9375H421.383C421.56 54.9375 421.685 54.9766 421.758 55.0547C421.836 55.1328 421.875 55.2708 421.875 55.4688C421.875 55.6667 421.836 55.8047 421.758 55.8828C421.685 55.9609 421.56 56 421.383 56H415.258C415.081 56 414.953 55.9609 414.875 55.8828C414.802 55.8047 414.766 55.6667 414.766 55.4688C414.766 55.2708 414.802 55.1328 414.875 55.0547C414.953 54.9766 415.081 54.9375 415.258 54.9375H417.703V49.8438ZM418.875 46.875C418.875 47.0573 418.826 47.1875 418.727 47.2656C418.628 47.3438 418.43 47.3828 418.133 47.3828C417.836 47.3828 417.638 47.3438 417.539 47.2656C417.44 47.1875 417.391 47.0573 417.391 46.875V45.8594C417.391 45.6771 417.44 45.5469 417.539 45.4688C417.638 45.3906 417.836 45.3516 418.133 45.3516C418.43 45.3516 418.628 45.3906 418.727 45.4688C418.826 45.5469 418.875 45.6771 418.875 45.8594V46.875ZM425.298 45.75C425.475 45.75 425.6 45.7891 425.673 45.8672C425.751 45.9453 425.79 46.0833 425.79 46.2812V52.4688L428.766 49.8438H428.212C428.034 49.8438 427.907 49.8047 427.829 49.7266C427.756 49.6484 427.719 49.5104 427.719 49.3125C427.719 49.1146 427.756 48.9766 427.829 48.8984C427.907 48.8203 428.034 48.7812 428.212 48.7812H430.821C430.998 48.7812 431.123 48.8203 431.196 48.8984C431.274 48.9766 431.313 49.1146 431.313 49.3125C431.313 49.5104 431.274 49.6484 431.196 49.7266C431.123 49.8047 430.998 49.8438 430.821 49.8438H430.36L428.063 51.8672L430.688 54.9375H431.141C431.318 54.9375 431.443 54.9766 431.516 55.0547C431.594 55.1328 431.633 55.2708 431.633 55.4688C431.633 55.6667 431.594 55.8047 431.516 55.8828C431.443 55.9609 431.318 56 431.141 56H428.532C428.355 56 428.227 55.9609 428.149 55.8828C428.076 55.8047 428.04 55.6667 428.04 55.4688C428.04 55.2708 428.076 55.1328 428.149 55.0547C428.227 54.9766 428.355 54.9375 428.532 54.9375H429.173L427.212 52.6094L425.79 53.8594V54.9375H426.282C426.459 54.9375 426.584 54.9766 426.657 55.0547C426.735 55.1328 426.774 55.2708 426.774 55.4688C426.774 55.6667 426.735 55.8047 426.657 55.8828C426.584 55.9609 426.459 56 426.282 56H423.751C423.574 56 423.446 55.9609 423.368 55.8828C423.295 55.8047 423.258 55.6667 423.258 55.4688C423.258 55.2708 423.295 55.1328 423.368 55.0547C423.446 54.9766 423.574 54.9375 423.751 54.9375H424.618V46.8125H423.594C423.417 46.8125 423.29 46.7734 423.212 46.6953C423.139 46.6172 423.102 46.4792 423.102 46.2812C423.102 46.0833 423.139 45.9453 423.212 45.8672C423.29 45.7891 423.417 45.75 423.594 45.75H425.298ZM434.228 52.6797C434.269 53.4661 434.485 54.0573 434.876 54.4531C435.272 54.8438 435.834 55.0391 436.563 55.0391C437.089 55.0391 437.6 54.9792 438.095 54.8594C438.589 54.7396 439.017 54.5755 439.376 54.3672C439.543 54.2734 439.681 54.2656 439.79 54.3438C439.905 54.4219 439.996 54.5443 440.063 54.7109C440.136 54.8776 440.152 55.0286 440.11 55.1641C440.069 55.2943 439.962 55.4036 439.79 55.4922C439.587 55.5911 439.36 55.6823 439.11 55.7656C438.866 55.849 438.603 55.9219 438.321 55.9844C438.045 56.0417 437.759 56.0859 437.462 56.1172C437.165 56.1536 436.866 56.1719 436.563 56.1719C435.991 56.1719 435.483 56.0859 435.04 55.9141C434.597 55.737 434.225 55.487 433.923 55.1641C433.621 54.8359 433.389 54.4401 433.228 53.9766C433.071 53.5078 432.993 52.9792 432.993 52.3906C432.993 51.8229 433.084 51.3073 433.267 50.8438C433.454 50.375 433.712 49.9766 434.04 49.6484C434.368 49.3151 434.759 49.0599 435.212 48.8828C435.67 48.7005 436.173 48.6094 436.72 48.6094C437.298 48.6094 437.808 48.7005 438.251 48.8828C438.694 49.0599 439.066 49.3073 439.368 49.625C439.675 49.9427 439.912 50.3203 440.079 50.7578C440.246 51.1953 440.345 51.6745 440.376 52.1953C440.376 52.3724 440.337 52.4974 440.259 52.5703C440.186 52.6432 440.061 52.6797 439.884 52.6797H434.228ZM436.72 49.7422C436.069 49.7422 435.535 49.9062 435.118 50.2344C434.707 50.5573 434.436 51.0078 434.306 51.5859H439.079C438.97 50.9974 438.722 50.5443 438.337 50.2266C437.951 49.9036 437.412 49.7422 436.72 49.7422ZM453.392 49.4062V47.0625C453.392 46.8802 453.434 46.75 453.517 46.6719C453.606 46.5938 453.759 46.5547 453.978 46.5547C454.197 46.5547 454.348 46.5938 454.431 46.6719C454.52 46.75 454.564 46.8802 454.564 47.0625V49.4062H457.775C457.952 49.4062 458.077 49.4453 458.15 49.5234C458.228 49.6016 458.267 49.7396 458.267 49.9375C458.267 50.1354 458.228 50.2734 458.15 50.3516C458.077 50.4297 457.952 50.4688 457.775 50.4688H454.564V53.3125C454.564 53.599 454.588 53.8516 454.634 54.0703C454.681 54.2839 454.757 54.4635 454.861 54.6094C454.97 54.75 455.114 54.8568 455.291 54.9297C455.468 54.9974 455.686 55.0312 455.947 55.0312C456.311 55.0312 456.686 54.9583 457.072 54.8125C457.457 54.6667 457.822 54.4818 458.166 54.2578C458.285 54.1797 458.405 54.1615 458.525 54.2031C458.65 54.2396 458.762 54.3516 458.861 54.5391C458.96 54.7266 458.991 54.8802 458.955 55C458.918 55.1146 458.835 55.2135 458.705 55.2969C458.507 55.4219 458.293 55.5391 458.064 55.6484C457.84 55.7526 457.608 55.8438 457.369 55.9219C457.129 56 456.887 56.0599 456.642 56.1016C456.403 56.1484 456.171 56.1719 455.947 56.1719C455.494 56.1719 455.106 56.112 454.783 55.9922C454.46 55.8724 454.194 55.6979 453.986 55.4688C453.783 55.2344 453.632 54.9453 453.533 54.6016C453.439 54.2578 453.392 53.862 453.392 53.4141V50.4688H451.806C451.629 50.4688 451.502 50.4297 451.423 50.3516C451.351 50.2734 451.314 50.1354 451.314 49.9375C451.314 49.7396 451.351 49.6016 451.423 49.5234C451.502 49.4453 451.629 49.4062 451.806 49.4062H453.392ZM460.611 52.3906C460.611 51.8385 460.708 51.3333 460.9 50.875C461.098 50.4115 461.369 50.013 461.713 49.6797C462.057 49.3411 462.463 49.0781 462.932 48.8906C463.406 48.7031 463.919 48.6094 464.471 48.6094C465.023 48.6094 465.533 48.7031 466.002 48.8906C466.476 49.0781 466.885 49.3411 467.228 49.6797C467.572 50.013 467.84 50.4115 468.033 50.875C468.231 51.3333 468.33 51.8385 468.33 52.3906C468.33 52.9427 468.231 53.4505 468.033 53.9141C467.84 54.3724 467.572 54.7708 467.228 55.1094C466.885 55.4427 466.476 55.7031 466.002 55.8906C465.533 56.0781 465.023 56.1719 464.471 56.1719C463.919 56.1719 463.406 56.0781 462.932 55.8906C462.463 55.7031 462.057 55.4427 461.713 55.1094C461.369 54.7708 461.098 54.3724 460.9 53.9141C460.708 53.4505 460.611 52.9427 460.611 52.3906ZM461.846 52.3906C461.846 52.7708 461.908 53.1224 462.033 53.4453C462.163 53.763 462.343 54.0391 462.572 54.2734C462.801 54.5078 463.077 54.6901 463.4 54.8203C463.723 54.9505 464.08 55.0156 464.471 55.0156C464.861 55.0156 465.218 54.9505 465.541 54.8203C465.864 54.6901 466.14 54.5078 466.369 54.2734C466.598 54.0391 466.775 53.763 466.9 53.4453C467.031 53.1224 467.096 52.7708 467.096 52.3906C467.096 52.0104 467.031 51.6615 466.9 51.3438C466.775 51.0208 466.598 50.7422 466.369 50.5078C466.14 50.2734 465.864 50.0911 465.541 49.9609C465.218 49.8307 464.861 49.7656 464.471 49.7656C464.08 49.7656 463.723 49.8307 463.4 49.9609C463.077 50.0911 462.801 50.2734 462.572 50.5078C462.343 50.7422 462.163 51.0208 462.033 51.3438C461.908 51.6615 461.846 52.0104 461.846 52.3906ZM486.878 54.9375C487.055 54.9375 487.18 54.9766 487.253 55.0547C487.331 55.1328 487.37 55.2708 487.37 55.4688C487.37 55.6667 487.331 55.8047 487.253 55.8828C487.18 55.9609 487.055 56 486.878 56H485.635C485.458 56 485.331 55.9609 485.253 55.8828C485.18 55.8047 485.143 55.6667 485.143 55.4688V54.8438C484.82 55.2656 484.443 55.5938 484.01 55.8281C483.583 56.0573 483.109 56.1719 482.588 56.1719C482.104 56.1719 481.656 56.0911 481.245 55.9297C480.833 55.763 480.476 55.526 480.174 55.2188C479.878 54.9115 479.643 54.5365 479.471 54.0938C479.299 53.651 479.213 53.1484 479.213 52.5859C479.213 52.0234 479.299 51.5208 479.471 51.0781C479.643 50.6354 479.878 50.2604 480.174 49.9531C480.476 49.6458 480.833 49.4115 481.245 49.25C481.656 49.0833 482.104 49 482.588 49C483.109 49 483.573 49.1068 483.979 49.3203C484.391 49.5286 484.753 49.8281 485.065 50.2188V46.8125H483.487C483.31 46.8125 483.182 46.7734 483.104 46.6953C483.031 46.6172 482.995 46.4792 482.995 46.2812C482.995 46.0833 483.031 45.9453 483.104 45.8672C483.182 45.7891 483.31 45.75 483.487 45.75H485.745C485.922 45.75 486.047 45.7891 486.12 45.8672C486.198 45.9453 486.237 46.0833 486.237 46.2812V54.9375H486.878ZM485.065 52.5859C485.065 52.2005 485.005 51.8568 484.885 51.5547C484.766 51.2526 484.599 51 484.385 50.7969C484.172 50.5885 483.917 50.4297 483.62 50.3203C483.328 50.2109 483.01 50.1562 482.667 50.1562C482.312 50.1562 481.997 50.2161 481.721 50.3359C481.445 50.4557 481.213 50.625 481.026 50.8438C480.838 51.0573 480.695 51.3125 480.596 51.6094C480.497 51.9062 480.448 52.2318 480.448 52.5859C480.448 52.9401 480.497 53.2656 480.596 53.5625C480.695 53.8594 480.838 54.1172 481.026 54.3359C481.213 54.5495 481.445 54.7161 481.721 54.8359C481.997 54.9557 482.312 55.0156 482.667 55.0156C483.01 55.0156 483.328 54.9609 483.62 54.8516C483.917 54.7422 484.172 54.5859 484.385 54.3828C484.599 54.1745 484.766 53.9193 484.885 53.6172C485.005 53.3151 485.065 52.9714 485.065 52.5859ZM488.433 52.3906C488.433 51.8385 488.529 51.3333 488.722 50.875C488.919 50.4115 489.19 50.013 489.534 49.6797C489.878 49.3411 490.284 49.0781 490.753 48.8906C491.227 48.7031 491.74 48.6094 492.292 48.6094C492.844 48.6094 493.354 48.7031 493.823 48.8906C494.297 49.0781 494.706 49.3411 495.05 49.6797C495.393 50.013 495.662 50.4115 495.854 50.875C496.052 51.3333 496.151 51.8385 496.151 52.3906C496.151 52.9427 496.052 53.4505 495.854 53.9141C495.662 54.3724 495.393 54.7708 495.05 55.1094C494.706 55.4427 494.297 55.7031 493.823 55.8906C493.354 56.0781 492.844 56.1719 492.292 56.1719C491.74 56.1719 491.227 56.0781 490.753 55.8906C490.284 55.7031 489.878 55.4427 489.534 55.1094C489.19 54.7708 488.919 54.3724 488.722 53.9141C488.529 53.4505 488.433 52.9427 488.433 52.3906ZM489.667 52.3906C489.667 52.7708 489.729 53.1224 489.854 53.4453C489.985 53.763 490.164 54.0391 490.393 54.2734C490.623 54.5078 490.899 54.6901 491.222 54.8203C491.544 54.9505 491.901 55.0156 492.292 55.0156C492.683 55.0156 493.039 54.9505 493.362 54.8203C493.685 54.6901 493.961 54.5078 494.19 54.2734C494.419 54.0391 494.597 53.763 494.722 53.4453C494.852 53.1224 494.917 52.7708 494.917 52.3906C494.917 52.0104 494.852 51.6615 494.722 51.3438C494.597 51.0208 494.419 50.7422 494.19 50.5078C493.961 50.2734 493.685 50.0911 493.362 49.9609C493.039 49.8307 492.683 49.7656 492.292 49.7656C491.901 49.7656 491.544 49.8307 491.222 49.9609C490.899 50.0911 490.623 50.2734 490.393 50.5078C490.164 50.7422 489.985 51.0208 489.854 51.3438C489.729 51.6615 489.667 52.0104 489.667 52.3906Z" fill="black"/>
<path d="M4.53906 9.66406C4.53906 9.84635 4.49479 9.97656 4.40625 10.0547C4.32292 10.1328 4.17188 10.1719 3.95312 10.1719C3.73438 10.1719 3.58073 10.1328 3.49219 10.0547C3.40885 9.97656 3.36719 9.84635 3.36719 9.66406V7.78906C3.36719 7.60677 3.40885 7.47656 3.49219 7.39844C3.58073 7.32031 3.73438 7.28125 3.95312 7.28125C4.06771 7.28125 4.15625 7.30729 4.21875 7.35938C4.28125 7.41146 4.33333 7.49219 4.375 7.60156C4.56771 8.10677 4.88281 8.47396 5.32031 8.70312C5.75781 8.92708 6.33854 9.03906 7.0625 9.03906C7.6875 9.03906 8.15625 8.92969 8.46875 8.71094C8.78125 8.48698 8.9375 8.19531 8.9375 7.83594C8.9375 7.64844 8.8776 7.5 8.75781 7.39062C8.63802 7.27604 8.47656 7.1849 8.27344 7.11719C8.04427 7.03906 7.77865 6.98177 7.47656 6.94531C7.17448 6.90885 6.85677 6.8724 6.52344 6.83594C6.1901 6.79948 5.85677 6.7526 5.52344 6.69531C5.19531 6.63802 4.89062 6.55469 4.60938 6.44531C4.43229 6.3776 4.27083 6.29427 4.125 6.19531C3.97917 6.09635 3.85156 5.97917 3.74219 5.84375C3.63802 5.70833 3.55469 5.55208 3.49219 5.375C3.4349 5.19792 3.40625 4.99479 3.40625 4.76562C3.40625 4.41667 3.47656 4.10938 3.61719 3.84375C3.75781 3.57292 3.95052 3.34635 4.19531 3.16406C4.44531 2.98177 4.73698 2.84375 5.07031 2.75C5.40885 2.65625 5.77604 2.60938 6.17188 2.60938C6.69271 2.60938 7.15885 2.6875 7.57031 2.84375C7.98698 2.99479 8.34375 3.20312 8.64062 3.46875V3.11719C8.64062 2.9349 8.68229 2.80469 8.76562 2.72656C8.85417 2.64844 9.00781 2.60938 9.22656 2.60938C9.44531 2.60938 9.59635 2.64844 9.67969 2.72656C9.76823 2.80469 9.8125 2.9349 9.8125 3.11719V4.60156C9.8125 4.78385 9.76823 4.91406 9.67969 4.99219C9.59635 5.07031 9.44531 5.10938 9.22656 5.10938C9.04948 5.10938 8.92448 5.04167 8.85156 4.90625C8.73177 4.68229 8.58594 4.49479 8.41406 4.34375C8.2474 4.19271 8.05208 4.07292 7.82812 3.98438C7.60938 3.89583 7.36719 3.83333 7.10156 3.79688C6.83594 3.76042 6.55208 3.74219 6.25 3.74219C5.74479 3.74219 5.34896 3.83073 5.0625 4.00781C4.78125 4.1849 4.64062 4.4375 4.64062 4.76562C4.64062 4.9375 4.69531 5.07552 4.80469 5.17969C4.91927 5.28385 5.07552 5.36719 5.27344 5.42969C5.49219 5.5026 5.7474 5.55729 6.03906 5.59375C6.33073 5.625 6.63802 5.65885 6.96094 5.69531C7.28385 5.72656 7.60938 5.76823 7.9375 5.82031C8.26562 5.86719 8.57031 5.94271 8.85156 6.04688C9.04427 6.11979 9.22135 6.20833 9.38281 6.3125C9.54427 6.41146 9.68229 6.53385 9.79688 6.67969C9.91667 6.82031 10.0078 6.98698 10.0703 7.17969C10.138 7.36719 10.1719 7.58594 10.1719 7.83594C10.1719 8.1849 10.1042 8.5026 9.96875 8.78906C9.83854 9.07552 9.64323 9.32292 9.38281 9.53125C9.1276 9.73438 8.8099 9.89062 8.42969 10C8.05469 10.1146 7.625 10.1719 7.14062 10.1719C6.57292 10.1719 6.07552 10.0938 5.64844 9.9375C5.22656 9.78125 4.85677 9.54427 4.53906 9.22656V9.66406ZM11.6566 3.84375C11.4795 3.84375 11.3519 3.80469 11.2738 3.72656C11.2008 3.64844 11.1644 3.51042 11.1644 3.3125C11.1644 3.11458 11.2008 2.97656 11.2738 2.89844C11.3519 2.82031 11.4795 2.78125 11.6566 2.78125H13.9534C14.1305 2.78125 14.2555 2.82031 14.3284 2.89844C14.4066 2.97656 14.4456 3.11458 14.4456 3.3125C14.4456 3.51042 14.4066 3.64844 14.3284 3.72656C14.2555 3.80469 14.1305 3.84375 13.9534 3.84375H12.9925L14.1175 8.39062L15.4222 4.76562C15.4586 4.66146 15.5238 4.57552 15.6175 4.50781C15.7113 4.4349 15.8441 4.39844 16.0159 4.39844C16.193 4.39844 16.3284 4.42448 16.4222 4.47656C16.5159 4.52865 16.581 4.60677 16.6175 4.71094L17.9144 8.39062L19.0706 3.84375H18.2816C18.1045 3.84375 17.9769 3.80469 17.8988 3.72656C17.8258 3.64844 17.7894 3.51042 17.7894 3.3125C17.7894 3.11458 17.8258 2.97656 17.8988 2.89844C17.9769 2.82031 18.1045 2.78125 18.2816 2.78125H20.4222C20.5993 2.78125 20.7243 2.82031 20.7972 2.89844C20.8753 2.97656 20.9144 3.11458 20.9144 3.3125C20.9144 3.51042 20.8753 3.64844 20.7972 3.72656C20.7243 3.80469 20.5993 3.84375 20.4222 3.84375H20.2347L18.6956 9.66406C18.6435 9.85156 18.5654 9.98177 18.4613 10.0547C18.3623 10.1328 18.2139 10.1719 18.0159 10.1719C17.792 10.1719 17.6149 10.1302 17.4847 10.0469C17.3597 9.96875 17.2659 9.84115 17.2034 9.66406L16.0081 6.27344L14.7972 9.66406C14.7347 9.84635 14.6357 9.97656 14.5003 10.0547C14.3701 10.1328 14.193 10.1719 13.9691 10.1719C13.7711 10.1719 13.6227 10.1328 13.5238 10.0547C13.4248 9.97656 13.3519 9.84635 13.305 9.66406L11.7972 3.84375H11.6566ZM22.8913 6.67969C22.9329 7.46615 23.1491 8.05729 23.5397 8.45312C23.9355 8.84375 24.498 9.03906 25.2272 9.03906C25.7532 9.03906 26.2636 8.97917 26.7584 8.85938C27.2532 8.73958 27.6803 8.57552 28.0397 8.36719C28.2064 8.27344 28.3444 8.26562 28.4538 8.34375C28.5683 8.42188 28.6595 8.54427 28.7272 8.71094C28.8001 8.8776 28.8157 9.02865 28.7741 9.16406C28.7324 9.29427 28.6256 9.40365 28.4538 9.49219C28.2506 9.59115 28.0241 9.68229 27.7741 9.76562C27.5293 9.84896 27.2663 9.92188 26.985 9.98438C26.709 10.0417 26.4225 10.0859 26.1256 10.1172C25.8288 10.1536 25.5293 10.1719 25.2272 10.1719C24.6543 10.1719 24.1465 10.0859 23.7038 9.91406C23.261 9.73698 22.8886 9.48698 22.5866 9.16406C22.2845 8.83594 22.0527 8.4401 21.8913 7.97656C21.735 7.50781 21.6569 6.97917 21.6569 6.39062C21.6569 5.82292 21.748 5.30729 21.9303 4.84375C22.1178 4.375 22.3756 3.97656 22.7038 3.64844C23.0319 3.3151 23.4225 3.0599 23.8756 2.88281C24.334 2.70052 24.8366 2.60938 25.3834 2.60938C25.9616 2.60938 26.472 2.70052 26.9147 2.88281C27.3574 3.0599 27.7298 3.30729 28.0319 3.625C28.3392 3.94271 28.5761 4.32031 28.7428 4.75781C28.9095 5.19531 29.0084 5.67448 29.0397 6.19531C29.0397 6.3724 29.0006 6.4974 28.9225 6.57031C28.8496 6.64323 28.7246 6.67969 28.5475 6.67969H22.8913ZM25.3834 3.74219C24.7324 3.74219 24.1985 3.90625 23.7819 4.23438C23.3704 4.55729 23.0996 5.00781 22.9694 5.58594H27.7428C27.6334 4.9974 27.386 4.54427 27.0006 4.22656C26.6152 3.90365 26.0761 3.74219 25.3834 3.74219ZM32.165 6.67969C32.2067 7.46615 32.4228 8.05729 32.8134 8.45312C33.2093 8.84375 33.7718 9.03906 34.5009 9.03906C35.027 9.03906 35.5374 8.97917 36.0322 8.85938C36.527 8.73958 36.9541 8.57552 37.3134 8.36719C37.4801 8.27344 37.6181 8.26562 37.7275 8.34375C37.8421 8.42188 37.9332 8.54427 38.0009 8.71094C38.0739 8.8776 38.0895 9.02865 38.0478 9.16406C38.0061 9.29427 37.8994 9.40365 37.7275 9.49219C37.5244 9.59115 37.2978 9.68229 37.0478 9.76562C36.803 9.84896 36.54 9.92188 36.2588 9.98438C35.9827 10.0417 35.6963 10.0859 35.3994 10.1172C35.1025 10.1536 34.803 10.1719 34.5009 10.1719C33.928 10.1719 33.4202 10.0859 32.9775 9.91406C32.5348 9.73698 32.1624 9.48698 31.8603 9.16406C31.5582 8.83594 31.3265 8.4401 31.165 7.97656C31.0088 7.50781 30.9306 6.97917 30.9306 6.39062C30.9306 5.82292 31.0218 5.30729 31.2041 4.84375C31.3916 4.375 31.6494 3.97656 31.9775 3.64844C32.3056 3.3151 32.6963 3.0599 33.1494 2.88281C33.6077 2.70052 34.1103 2.60938 34.6572 2.60938C35.2353 2.60938 35.7457 2.70052 36.1884 2.88281C36.6311 3.0599 37.0035 3.30729 37.3056 3.625C37.6129 3.94271 37.8499 4.32031 38.0166 4.75781C38.1832 5.19531 38.2822 5.67448 38.3134 6.19531C38.3134 6.3724 38.2744 6.4974 38.1963 6.57031C38.1233 6.64323 37.9983 6.67969 37.8213 6.67969H32.165ZM34.6572 3.74219C34.0061 3.74219 33.4723 3.90625 33.0556 4.23438C32.6442 4.55729 32.3733 5.00781 32.2431 5.58594H37.0166C36.9072 4.9974 36.6598 4.54427 36.2744 4.22656C35.889 3.90365 35.3499 3.74219 34.6572 3.74219ZM42.0559 3.40625V1.0625C42.0559 0.880208 42.0976 0.75 42.1809 0.671875C42.2695 0.59375 42.4231 0.554688 42.6419 0.554688C42.8606 0.554688 43.0117 0.59375 43.095 0.671875C43.1835 0.75 43.2278 0.880208 43.2278 1.0625V3.40625H46.4388C46.6158 3.40625 46.7408 3.44531 46.8138 3.52344C46.8919 3.60156 46.9309 3.73958 46.9309 3.9375C46.9309 4.13542 46.8919 4.27344 46.8138 4.35156C46.7408 4.42969 46.6158 4.46875 46.4388 4.46875H43.2278V7.3125C43.2278 7.59896 43.2513 7.85156 43.2981 8.07031C43.345 8.28385 43.4205 8.46354 43.5247 8.60938C43.6341 8.75 43.7773 8.85677 43.9544 8.92969C44.1315 8.9974 44.3502 9.03125 44.6106 9.03125C44.9752 9.03125 45.3502 8.95833 45.7356 8.8125C46.121 8.66667 46.4856 8.48177 46.8294 8.25781C46.9492 8.17969 47.069 8.16146 47.1888 8.20312C47.3138 8.23958 47.4257 8.35156 47.5247 8.53906C47.6236 8.72656 47.6549 8.88021 47.6184 9C47.582 9.11458 47.4986 9.21354 47.3684 9.29688C47.1705 9.42188 46.957 9.53906 46.7278 9.64844C46.5039 9.7526 46.2721 9.84375 46.0325 9.92188C45.7929 10 45.5507 10.0599 45.3059 10.1016C45.0664 10.1484 44.8346 10.1719 44.6106 10.1719C44.1575 10.1719 43.7695 10.112 43.4466 9.99219C43.1236 9.8724 42.858 9.69792 42.6497 9.46875C42.4466 9.23438 42.2955 8.94531 42.1966 8.60156C42.1028 8.25781 42.0559 7.86198 42.0559 7.41406V4.46875H40.47C40.2929 4.46875 40.1653 4.42969 40.0872 4.35156C40.0143 4.27344 39.9778 4.13542 39.9778 3.9375C39.9778 3.73958 40.0143 3.60156 40.0872 3.52344C40.1653 3.44531 40.2929 3.40625 40.47 3.40625H42.0559Z" fill="black"/>
<path d="M124.438 320.195C124.438 319.81 124.378 319.466 124.258 319.164C124.138 318.862 123.971 318.609 123.758 318.406C123.544 318.198 123.289 318.039 122.992 317.93C122.701 317.82 122.383 317.766 122.039 317.766C121.685 317.766 121.37 317.826 121.094 317.945C120.818 318.065 120.586 318.234 120.398 318.453C120.211 318.667 120.068 318.922 119.969 319.219C119.87 319.516 119.82 319.841 119.82 320.195C119.82 320.549 119.87 320.875 119.969 321.172C120.068 321.469 120.211 321.727 120.398 321.945C120.586 322.159 120.818 322.326 121.094 322.445C121.37 322.565 121.685 322.625 122.039 322.625C122.383 322.625 122.701 322.57 122.992 322.461C123.289 322.352 123.544 322.195 123.758 321.992C123.971 321.784 124.138 321.529 124.258 321.227C124.378 320.924 124.438 320.581 124.438 320.195ZM120.086 325.648C120.445 325.799 120.823 325.909 121.219 325.977C121.615 326.049 122.003 326.086 122.383 326.086C122.732 326.086 123.034 326.039 123.289 325.945C123.549 325.857 123.763 325.727 123.93 325.555C124.102 325.388 124.229 325.188 124.312 324.953C124.396 324.719 124.438 324.458 124.438 324.172V322.562C124.125 322.953 123.763 323.255 123.352 323.469C122.945 323.677 122.482 323.781 121.961 323.781C121.477 323.781 121.029 323.701 120.617 323.539C120.206 323.372 119.849 323.135 119.547 322.828C119.25 322.521 119.016 322.146 118.844 321.703C118.672 321.26 118.586 320.758 118.586 320.195C118.586 319.633 118.672 319.13 118.844 318.688C119.016 318.245 119.25 317.87 119.547 317.562C119.849 317.255 120.206 317.021 120.617 316.859C121.029 316.693 121.477 316.609 121.961 316.609C122.482 316.609 122.956 316.727 123.383 316.961C123.815 317.19 124.193 317.516 124.516 317.938V317.312C124.516 317.115 124.552 316.977 124.625 316.898C124.703 316.82 124.831 316.781 125.008 316.781H126.25C126.427 316.781 126.552 316.82 126.625 316.898C126.703 316.977 126.742 317.115 126.742 317.312C126.742 317.51 126.703 317.648 126.625 317.727C126.552 317.805 126.427 317.844 126.25 317.844H125.609V324.273C125.609 324.742 125.536 325.159 125.391 325.523C125.25 325.893 125.042 326.203 124.766 326.453C124.49 326.708 124.151 326.904 123.75 327.039C123.349 327.174 122.893 327.242 122.383 327.242C121.93 327.242 121.474 327.203 121.016 327.125C120.557 327.047 120.122 326.93 119.711 326.773C119.57 326.716 119.477 326.63 119.43 326.516C119.388 326.401 119.401 326.245 119.469 326.047C119.536 325.849 119.622 325.719 119.727 325.656C119.836 325.594 119.956 325.591 120.086 325.648ZM127.805 320.391C127.805 319.839 127.901 319.333 128.094 318.875C128.292 318.411 128.563 318.013 128.907 317.68C129.25 317.341 129.657 317.078 130.125 316.891C130.599 316.703 131.112 316.609 131.664 316.609C132.216 316.609 132.727 316.703 133.196 316.891C133.67 317.078 134.078 317.341 134.422 317.68C134.766 318.013 135.034 318.411 135.227 318.875C135.425 319.333 135.524 319.839 135.524 320.391C135.524 320.943 135.425 321.451 135.227 321.914C135.034 322.372 134.766 322.771 134.422 323.109C134.078 323.443 133.67 323.703 133.196 323.891C132.727 324.078 132.216 324.172 131.664 324.172C131.112 324.172 130.599 324.078 130.125 323.891C129.657 323.703 129.25 323.443 128.907 323.109C128.563 322.771 128.292 322.372 128.094 321.914C127.901 321.451 127.805 320.943 127.805 320.391ZM129.039 320.391C129.039 320.771 129.102 321.122 129.227 321.445C129.357 321.763 129.537 322.039 129.766 322.273C129.995 322.508 130.271 322.69 130.594 322.82C130.917 322.951 131.274 323.016 131.664 323.016C132.055 323.016 132.412 322.951 132.735 322.82C133.058 322.69 133.334 322.508 133.563 322.273C133.792 322.039 133.969 321.763 134.094 321.445C134.224 321.122 134.289 320.771 134.289 320.391C134.289 320.01 134.224 319.661 134.094 319.344C133.969 319.021 133.792 318.742 133.563 318.508C133.334 318.273 133.058 318.091 132.735 317.961C132.412 317.831 132.055 317.766 131.664 317.766C131.274 317.766 130.917 317.831 130.594 317.961C130.271 318.091 129.995 318.273 129.766 318.508C129.537 318.742 129.357 319.021 129.227 319.344C129.102 319.661 129.039 320.01 129.039 320.391ZM137.079 320.391C137.079 319.839 137.175 319.333 137.368 318.875C137.566 318.411 137.837 318.013 138.18 317.68C138.524 317.341 138.93 317.078 139.399 316.891C139.873 316.703 140.386 316.609 140.938 316.609C141.49 316.609 142.001 316.703 142.469 316.891C142.943 317.078 143.352 317.341 143.696 317.68C144.04 318.013 144.308 318.411 144.501 318.875C144.699 319.333 144.798 319.839 144.798 320.391C144.798 320.943 144.699 321.451 144.501 321.914C144.308 322.372 144.04 322.771 143.696 323.109C143.352 323.443 142.943 323.703 142.469 323.891C142.001 324.078 141.49 324.172 140.938 324.172C140.386 324.172 139.873 324.078 139.399 323.891C138.93 323.703 138.524 323.443 138.18 323.109C137.837 322.771 137.566 322.372 137.368 321.914C137.175 321.451 137.079 320.943 137.079 320.391ZM138.313 320.391C138.313 320.771 138.376 321.122 138.501 321.445C138.631 321.763 138.811 322.039 139.04 322.273C139.269 322.508 139.545 322.69 139.868 322.82C140.191 322.951 140.548 323.016 140.938 323.016C141.329 323.016 141.686 322.951 142.008 322.82C142.331 322.69 142.607 322.508 142.837 322.273C143.066 322.039 143.243 321.763 143.368 321.445C143.498 321.122 143.563 320.771 143.563 320.391C143.563 320.01 143.498 319.661 143.368 319.344C143.243 319.021 143.066 318.742 142.837 318.508C142.607 318.273 142.331 318.091 142.008 317.961C141.686 317.831 141.329 317.766 140.938 317.766C140.548 317.766 140.191 317.831 139.868 317.961C139.545 318.091 139.269 318.273 139.04 318.508C138.811 318.742 138.631 319.021 138.501 319.344C138.376 319.661 138.313 320.01 138.313 320.391ZM154.071 322.938C154.248 322.938 154.373 322.977 154.446 323.055C154.524 323.133 154.563 323.271 154.563 323.469C154.563 323.667 154.524 323.805 154.446 323.883C154.373 323.961 154.248 324 154.071 324H152.829C152.652 324 152.524 323.961 152.446 323.883C152.373 323.805 152.337 323.667 152.337 323.469V322.844C152.014 323.266 151.636 323.594 151.204 323.828C150.777 324.057 150.303 324.172 149.782 324.172C149.298 324.172 148.85 324.091 148.438 323.93C148.027 323.763 147.67 323.526 147.368 323.219C147.071 322.911 146.837 322.536 146.665 322.094C146.493 321.651 146.407 321.148 146.407 320.586C146.407 320.023 146.493 319.521 146.665 319.078C146.837 318.635 147.071 318.26 147.368 317.953C147.67 317.646 148.027 317.411 148.438 317.25C148.85 317.083 149.298 317 149.782 317C150.303 317 150.767 317.107 151.173 317.32C151.584 317.529 151.946 317.828 152.259 318.219V314.812H150.681C150.504 314.812 150.376 314.773 150.298 314.695C150.225 314.617 150.188 314.479 150.188 314.281C150.188 314.083 150.225 313.945 150.298 313.867C150.376 313.789 150.504 313.75 150.681 313.75H152.938C153.116 313.75 153.241 313.789 153.313 313.867C153.392 313.945 153.431 314.083 153.431 314.281V322.938H154.071ZM152.259 320.586C152.259 320.201 152.199 319.857 152.079 319.555C151.959 319.253 151.793 319 151.579 318.797C151.366 318.589 151.11 318.43 150.813 318.32C150.522 318.211 150.204 318.156 149.86 318.156C149.506 318.156 149.191 318.216 148.915 318.336C148.639 318.456 148.407 318.625 148.22 318.844C148.032 319.057 147.889 319.312 147.79 319.609C147.691 319.906 147.642 320.232 147.642 320.586C147.642 320.94 147.691 321.266 147.79 321.562C147.889 321.859 148.032 322.117 148.22 322.336C148.407 322.549 148.639 322.716 148.915 322.836C149.191 322.956 149.506 323.016 149.86 323.016C150.204 323.016 150.522 322.961 150.813 322.852C151.11 322.742 151.366 322.586 151.579 322.383C151.793 322.174 151.959 321.919 152.079 321.617C152.199 321.315 152.259 320.971 152.259 320.586ZM172.517 322.938C172.694 322.938 172.819 322.977 172.892 323.055C172.97 323.133 173.009 323.271 173.009 323.469C173.009 323.667 172.97 323.805 172.892 323.883C172.819 323.961 172.694 324 172.517 324H172.017C171.856 324 171.702 323.982 171.556 323.945C171.41 323.904 171.278 323.841 171.158 323.758C171.043 323.674 170.942 323.57 170.853 323.445C170.77 323.32 170.71 323.172 170.673 323C170.262 323.359 169.809 323.646 169.314 323.859C168.819 324.068 168.283 324.172 167.705 324.172C167.314 324.172 166.955 324.12 166.627 324.016C166.298 323.917 166.015 323.771 165.775 323.578C165.535 323.38 165.348 323.141 165.213 322.859C165.082 322.578 165.017 322.255 165.017 321.891C165.017 321.453 165.101 321.081 165.267 320.773C165.439 320.466 165.668 320.219 165.955 320.031C166.246 319.839 166.582 319.698 166.963 319.609C167.348 319.521 167.754 319.477 168.181 319.477C168.603 319.477 169.012 319.51 169.408 319.578C169.804 319.646 170.186 319.745 170.556 319.875V319.211C170.556 318.706 170.434 318.336 170.189 318.102C169.949 317.862 169.535 317.742 168.947 317.742C168.525 317.742 168.101 317.799 167.673 317.914C167.252 318.023 166.877 318.195 166.548 318.43C166.429 318.518 166.306 318.549 166.181 318.523C166.056 318.497 165.936 318.404 165.822 318.242C165.707 318.081 165.66 317.938 165.681 317.812C165.707 317.682 165.78 317.573 165.9 317.484C166.103 317.333 166.327 317.203 166.572 317.094C166.817 316.979 167.069 316.888 167.33 316.82C167.595 316.747 167.864 316.695 168.134 316.664C168.41 316.628 168.681 316.609 168.947 316.609C169.879 316.609 170.574 316.828 171.033 317.266C171.496 317.703 171.728 318.352 171.728 319.211V322.32C171.728 322.732 171.9 322.938 172.244 322.938H172.517ZM170.556 320.93C170.197 320.81 169.814 320.721 169.408 320.664C169.002 320.607 168.595 320.578 168.189 320.578C167.908 320.578 167.647 320.602 167.408 320.648C167.173 320.695 166.97 320.771 166.798 320.875C166.627 320.974 166.491 321.107 166.392 321.273C166.298 321.435 166.252 321.633 166.252 321.867C166.252 322.247 166.382 322.544 166.642 322.758C166.908 322.966 167.278 323.07 167.752 323.07C168.309 323.07 168.819 322.956 169.283 322.727C169.746 322.492 170.171 322.177 170.556 321.781V320.93ZM176.228 317.406V315.062C176.228 314.88 176.27 314.75 176.353 314.672C176.442 314.594 176.596 314.555 176.814 314.555C177.033 314.555 177.184 314.594 177.268 314.672C177.356 314.75 177.4 314.88 177.4 315.062V317.406H180.611C180.788 317.406 180.913 317.445 180.986 317.523C181.064 317.602 181.103 317.74 181.103 317.938C181.103 318.135 181.064 318.273 180.986 318.352C180.913 318.43 180.788 318.469 180.611 318.469H177.4V321.312C177.4 321.599 177.424 321.852 177.471 322.07C177.518 322.284 177.593 322.464 177.697 322.609C177.807 322.75 177.95 322.857 178.127 322.93C178.304 322.997 178.523 323.031 178.783 323.031C179.148 323.031 179.523 322.958 179.908 322.812C180.294 322.667 180.658 322.482 181.002 322.258C181.122 322.18 181.241 322.161 181.361 322.203C181.486 322.24 181.598 322.352 181.697 322.539C181.796 322.727 181.827 322.88 181.791 323C181.754 323.115 181.671 323.214 181.541 323.297C181.343 323.422 181.129 323.539 180.9 323.648C180.676 323.753 180.445 323.844 180.205 323.922C179.965 324 179.723 324.06 179.478 324.102C179.239 324.148 179.007 324.172 178.783 324.172C178.33 324.172 177.942 324.112 177.619 323.992C177.296 323.872 177.031 323.698 176.822 323.469C176.619 323.234 176.468 322.945 176.369 322.602C176.275 322.258 176.228 321.862 176.228 321.414V318.469H174.643C174.465 318.469 174.338 318.43 174.26 318.352C174.187 318.273 174.15 318.135 174.15 317.938C174.15 317.74 174.187 317.602 174.26 317.523C174.338 317.445 174.465 317.406 174.643 317.406H176.228Z" fill="black"/>
<path d="M188.094 110L84.0938 6H63.0938" stroke="black"/>
<path d="M85.5938 153V320.5H110.594" stroke="black"/>
</svg>
