<?xml version="1.0" encoding="UTF-8"?>
<svg xmlns="http://www.w3.org/2000/svg" viewBox="0 0 1000 1000">
  <g id="Layer_2" data-name="Layer 2">
    <path d="M433.0251,391.4067c3.3332,0,6.907-.6328,10.4719-1.8627,2.1389-.7397,4.3224-1.7112,6.5149-2.8787l19.7674,11.4166,8.0567,10.4006h0c.4545.5793.8912,1.2121,1.3101,1.8805.4991.7932.9714,1.6399,1.417,2.5222.4991,1.0071.9536,2.0676,1.3547,3.1549.4456,1.2032.8199,2.4598,1.1319,3.7342.3298,1.3636.5793,2.7717.7486,4.1798l4.5809,38.7772c.098.8288.3565,1.6755.7575,2.442.5526,1.0695,1.4081,2.0855,2.4776,2.9321.4456.3476.9358.6862,1.4527.9804h0c.1693.098.3476.1961.5258.2852,1.1497.5971,2.442,1.0695,3.8412,1.3992,1.3547.3208,2.8341.4991,4.2779.5347h.4278c1.3457,0,2.7271-.1337,4.0016-.3832,1.4705-.2852,2.8341-.7219,4.064-1.3012,1.1497-.5436,2.1657-1.2032,3.0034-1.9607.7665-.6862,1.3903-1.4527,1.8448-2.2726.4634-.8378.7665-1.7557.8734-2.6737l4.5809-38.7772c.1693-1.4081.4189-2.8163.7486-4.1798.3119-1.2744.6862-2.5311,1.1319-3.7342.401-1.0873.8556-2.1479,1.3547-3.1549.4367-.8823.9091-1.729,1.417-2.5222.4189-.6684.8645-1.2923,1.3101-1.8805l52.7605-68.1074c1.7824-2.2994,3.2797-4.7057,4.4561-7.1476,2.442-5.0711,3.5471-10.5521,3.1906-15.846-.3654-5.4632-2.2994-11.0334-5.6058-16.1133-3.2619-5.0176-8.0478-9.8391-13.8407-13.9655-5.7128-4.0551-12.7623-7.6824-20.3734-10.4719-7.5665-2.7717-16.149-4.8928-24.8384-6.1316-8.6805-1.2388-17.976-1.6755-26.8793-1.2566-8.9479.4189-18.0295,1.729-26.2822,3.7699-2.3796.5882-4.7324,1.2655-7.0318,1.9874-.1426-.205-.2941-.4189-.4456-.6239-2.2815-3.0836-5.0532-5.5791-8.2438-7.415l-2.6113-1.5062c-.5258-.303-1.0695-.5793-1.622-.8378-.0802-.0356-.1693-.0713-.2495-.1159-2.9767-1.3725-6.301-2.139-9.8837-2.2459-4.4027-.1248-9.0816.7397-13.9298,2.5846-4.9196,1.8627-9.8926,4.6878-14.7854,8.3953-4.8661,3.6808-9.545,8.1547-13.912,13.2882-4.3314,5.1067-8.2527,10.7393-11.6394,16.755-3.3867,6.0069-6.1673,12.2454-8.2617,18.5464-2.1033,6.3277-3.4669,12.5752-4.0551,18.5553-.5971,6.0514-.3743,11.7018.6506,16.7729,1.0427,5.1513,2.8876,9.6074,5.4899,13.2436,1.6844,2.3528,3.6629,4.3224,5.9088,5.891.0624.0446.1248.0891.1872.1337.4991.3387.9982.6684,1.524.9714l2.6113,1.5062c3.4401,1.9874,7.4596,3.2084,11.6216,3.5293.8021.0624,1.6042.0891,2.4152.0891,3.1104,0,6.3366-.4634,9.6252-1.3547,1.6399,2.1211,3.5827,3.8323,5.793,5.1067l3.5203,2.032c2.6826,1.5418,5.8108,2.5222,9.0638,2.8074.7308.0624,1.4705.098,2.2281.098v.0178ZM433.8985,376.3272c-2.8519-1.6488-5.0889-4.4383-6.4525-8.0567-1.5596-4.1353-2.0142-9.3489-1.3012-15.0617.3654-2.9054,1.0249-5.9088,1.9518-8.939l30.6492,39.5615c.3298.4723.6595.9447.9893,1.4081,1.2477,1.7468,2.6202,3.5916,4.1977,5.6504.7843,1.016,1.5329,1.9785,2.2013,2.8252l.8199,1.0427c.3476.4456.6595.8378.9358,1.1942l-33.9913-19.6248h0ZM420.9758,319.2531c.41,6.5772,3.2619,13.1723,8.2617,19.0811,3.9659,4.6789,9.2064,8.9212,15.5697,12.593h0c1.3814.7932,2.8252,1.5686,4.3046,2.3083-1.6488-.811-3.2708-1.6488-4.8126-2.54-3.048-1.7557-5.8643-3.6718-8.3864-5.6771-7.4863-5.9712-12.4861-12.9584-14.4646-20.2219-1.8894-6.9248-1.0071-14.1348,2.5311-20.8458,3.7342-7.0852,10.4362-13.6536,19.3663-18.9831,2.4954-1.4883,5.1869-2.8697,8.0032-4.162-1.524.7041-3.0213,1.4349-4.4472,2.2013-8.6181,4.6344-15.5251,10.4184-19.9724,16.7283-4.3135,6.1316-6.3812,12.8782-5.9712,19.5089l.0178.0089ZM446.7322,350.7401c2.2102,1.2745,4.572,2.4865,7.0318,3.5916,2.0231.918,4.1709,1.7735,6.3723,2.5756-2.8697-1.016-5.6415-2.1211-8.2706-3.3332-2.0053-.9269-3.9392-1.9161-5.7751-2.95.2139-.0267.4367,0,.6417.1069v.0089ZM445.0478,348.6903c-5.4365-3.4045-10.0174-7.4061-13.2436-11.5681h0c-3.9749-5.1335-6.2564-10.8106-6.604-16.4075-.3832-6.1584,1.5418-12.4326,5.5612-18.1543,4.1798-5.9445,10.6947-11.3988,18.8405-15.7747,8.1636-4.3848,18.0919-7.7537,28.7064-9.75,11.2829-2.1122,23.4392-2.7004,35.1766-1.7022,11.2294.9625,22.1559,3.3956,31.5939,7.0407,9.5807,3.6986,17.7265,8.6894,23.564,14.42,6.0425,5.9356,9.6341,12.7,10.3917,19.5535.7397,6.6931-1.2388,13.5021-5.7038,19.705-.2584.3565-.5258.713-.8021,1.0695h0c-2.4509,3.1639-5.5969,6.1673-9.34,8.9212-4.8661,3.5827-10.9264,6.8268-17.5304,9.3846-6.6842,2.5935-14.3309,4.6344-22.1024,5.9088-7.7893,1.2745-16.1846,1.8627-24.277,1.6933-8.0389-.1693-16.2827-1.0962-23.8314-2.6826-7.6021-1.5953-14.9726-3.957-21.3092-6.8179-2.433-1.0962-4.7681-2.2994-6.9516-3.556-.7219-.4189-1.4349-.8467-2.13-1.2834h-.0089ZM423.1949,303.5408c-3.6451,6.9159-4.5452,14.3487-2.6024,21.4963,2.0231,7.4417,7.1298,14.5983,14.7676,20.6853,2.3974,1.9072,5.0622,3.7164,7.9141,5.4008-.5971.5258-1.0427,1.2299-1.2032,1.9607-.0446.1961-.0624.3832-.0624.5615-2.7539-1.6399-5.3384-3.4045-7.6556-5.2582-3.3421-2.6648-6.2297-5.5523-8.5736-8.5825,0-.0089-.0178-.0178-.0267-.0267-3.761-4.8572-6.2118-10.2491-7.1031-15.5786-.8645-5.1602-.303-10.561,1.6131-15.6143,1.8894-4.973,5.0622-9.7233,9.4292-14.1081.6773-.6862,1.3992-1.3547,2.1479-2.0231-3.6718,3.458-6.5951,7.1922-8.6449,11.0779v.0089ZM426.6083,368.5913c1.4438,3.8144,3.8055,6.7555,6.8446,8.5112l4.1531,2.3974c-2.54-.0891-4.8483-.713-6.8803-1.8627-3.1104-1.7557-5.5345-4.7591-7.0229-8.6805-1.6666-4.4205-2.1479-9.9906-1.3903-16.1044.4902-3.9659,1.4973-8.0745,2.9589-12.2276l2.1479,2.7717c-1.0427,3.2886-1.7735,6.5505-2.1657,9.6965-.7308,5.8643-.2585,11.2205,1.3457,15.4895l.0089.0089ZM424.6387,339.7691c-1.6042,4.4027-2.6826,8.7697-3.2084,12.9851-.7754,6.2564-.2852,11.9692,1.4349,16.5233,1.5596,4.1175,4.1175,7.2813,7.415,9.144,2.3439,1.3279,5.0265,1.9963,7.9765,1.9963.2941,0,.5882-.0089.8823-.0267l9.0459,5.2226c-2.5667,1.2121-5.1156,2.1122-7.5754,2.6558-5.3473,1.1764-10.3204.7041-14.3755-1.3725-3.6184-1.8537-6.5683-5.0354-8.5379-9.1885-2.2637-4.777-3.2708-10.9086-2.9321-17.7354.2674-5.3384,1.3903-11.2294,3.2441-17.0402.909-2.843,2.0053-5.7038,3.2441-8.5023.9625,1.827,2.1033,3.6184,3.3956,5.3473l-.0089-.0089ZM505.9808,470.0484c-1.3547.2674-2.8252.3921-4.2422.3565-1.3903-.0267-2.8074-.205-4.0996-.508-.3832-.0891-.7486-.1961-1.114-.303,1.7735.4634,3.6897.713,5.6325.713.3387,0,.6684,0,1.0071-.0178,1.6488-.0713,3.2441-.3297,4.7324-.7308-.6239.1961-1.2655.3654-1.925.4902h.0089ZM515.0624,462.5888s0,.0178-.0089.0267c-.0802.713-.3476,1.4081-.7932,2.0587-.9001,1.3457-2.54,2.5489-4.6255,3.3867-1.9161.7754-4.162,1.2299-6.5059,1.3368-2.3172.1069-4.6433-.1604-6.7288-.7486-1.2923-.3654-2.4687-.8467-3.4847-1.4349-.4902-.2852-.9447-.5971-1.3547-.918-1.3279-1.0695-2.1479-2.3796-2.3083-3.6808v-.0178l-4.1798-35.3905c2.745,4.0105,9.4381,6.8001,17.0759,6.8001.41,0,.8288,0,1.2477-.0267,7.2902-.2852,13.2882-2.9589,15.8371-6.7377l-4.1798,35.3371.0089.0089ZM522.9676,412.4842c-.5169,1.0427-.9893,2.13-1.3992,3.253-.4545,1.2388-.8467,2.5222-1.1586,3.8323-.3387,1.3992-.5971,2.8341-.7665,4.2779-.5793,4.9285-7.5754,8.9033-16.2738,9.2509-9.6609.3743-18.0384-3.7699-18.689-9.2509-.1693-1.4438-.4278-2.8876-.7665-4.2779-.3208-1.3101-.7041-2.6024-1.1586-3.8323-.41-1.1229-.8823-2.2102-1.3992-3.253-.1872-.3743-.3832-.7397-.5793-1.0962,5.0889,3.957,13.1277,6.2386,21.4518,6.2386,3.6095,0,7.2724-.4278,10.766-1.3279,4.2333-1.0962,7.8428-2.8074,10.561-4.9374-.205.3743-.401.7397-.5971,1.1229h.0089ZM525.7928,407.93c-2.5845,3.3332-7.2011,5.989-13.0119,7.4952-13.0654,3.3688-28.4212.0089-34.2409-7.4952h0l-9.5361-12.3167h0l-2.2815-2.95h0l-35.3193-45.604c.7754.6952,1.5864,1.3725,2.4152,2.0409,2.6202,2.0855,5.5434,4.064,8.6984,5.891,6.6129,3.8144,14.2239,6.9516,22.6193,9.3222,10.4184,2.941,22.0578,4.6433,33.6437,4.9107,1.1051.0267,2.2102.0356,3.3243.0356,10.6591,0,21.4072-1.1853,31.2909-3.458,11.2027-2.5756,21.532-6.604,29.856-11.6483,3.6451-2.2102,6.8892-4.5987,9.75-7.1476l-47.1993,60.9331-.0089-.0089ZM580.5496,301.7405c3.2173,4.9463,5.1067,10.3739,5.4632,15.6856.3476,5.1424-.7308,10.4719-3.1015,15.4004-1.1497,2.3796-2.6113,4.7324-4.3492,6.9783l-.0089.0089c-3.9036,5.0265-9.2064,9.5896-15.7658,13.5644-8.2527,4.9998-18.484,8.9835-29.5976,11.5414-10.8373,2.4954-22.7351,3.6718-34.3924,3.3956-11.5146-.2674-23.0738-1.9518-33.4209-4.875-8.2884-2.335-15.7925-5.4276-22.3163-9.1796-.1515-.2585-.1872-.5971-.1069-.9893.1426-.6417.5971-1.2655,1.1675-1.6666,6.4079,3.6629,13.7516,6.6842,21.8528,8.9746,10.1867,2.8787,21.5498,4.5363,32.8773,4.7948,1.0784.0267,2.1657.0356,3.2441.0356,10.4184,0,20.926-1.1586,30.5779-3.3777,10.9442-2.5222,21.0329-6.4525,29.1787-11.3809,8.2795-5.0176,14.6874-11.1492,18.5286-17.7265,4.0283-6.8892,5.2939-14.3487,3.6718-21.5766-1.4616-6.5149-5.3117-12.896-11.1492-18.5197,3.0569,2.8163,5.6504,5.8286,7.6556,8.9033l-.0089.0089ZM571.0759,292.3559c6.3901,5.7751,10.5788,12.4148,12.1028,19.197,1.5686,6.9961.3387,14.2329-3.5738,20.9349-3.7699,6.4525-10.0708,12.4682-18.2255,17.4145-1.4794.8912-3.048,1.7379-4.6522,2.5667,8.7964-4.6255,15.8192-10.3739,20.3912-16.7283,4.7948-6.6575,6.907-13.9833,6.1138-21.1844-.811-7.3615-4.6522-14.5983-11.1047-20.9438-4.9998-4.9106-11.6038-9.3044-19.3039-12.8693,7.1387,3.2619,13.3595,7.2011,18.2434,11.6216l.0089-.0089ZM477.2745,273.6313c11.7642-2.2102,24.4552-2.8163,36.6917-1.7735,11.7196,1.0071,23.1184,3.5471,32.9575,7.3437,9.9995,3.859,18.5018,9.0638,24.58,15.0439,6.3099,6.194,10.053,13.2525,10.8462,20.4001.7665,6.9872-1.2923,14.0992-5.9534,20.5695-4.8304,6.702-12.4504,12.7356-22.04,17.4591-2.638,1.2923-5.4365,2.4776-8.3508,3.5738,6.6575-2.5846,12.7713-5.8643,17.6908-9.4826,3.8144-2.8074,7.0229-5.8643,9.5183-9.0994h0c.2763-.3565.5526-.7219.811-1.0873,4.5987-6.3812,6.6307-13.4129,5.8643-20.3288-.7754-7.0585-4.465-14.0011-10.6501-20.0882-5.9177-5.8108-14.1705-10.864-23.867-14.6161-9.5094-3.6718-20.5249-6.1316-31.8435-7.0942-11.8087-1.0071-24.0631-.4189-35.4173,1.7112-10.7036,2.0053-20.721,5.4097-28.9648,9.8391-8.2706,4.4383-14.8924,9.9906-19.1524,16.042-4.1442,5.8821-6.1227,12.3613-5.7306,18.7157.3565,5.7751,2.7093,11.6216,6.7911,16.8976h0c3.2886,4.2422,7.9497,8.324,13.4842,11.782.2495.1604.5169.3119.7754.4634-.098.0356-.1961.0891-.2941.1337-6.194-3.6005-11.2918-7.7269-15.1508-12.2811-4.875-5.7573-7.6556-12.1741-8.0567-18.5553-.4011-6.4257,1.6131-12.9762,5.8108-18.9474,4.367-6.2029,11.1581-11.8889,19.6604-16.4609,8.5201-4.572,18.8761-8.0923,29.9452-10.1689l.0445.0089ZM412.2329,292.9442c-3.8947,4.0462-7.6378,8.8053-10.8284,13.7873-3.1995,4.9909-6.0336,10.4986-8.1814,15.9084-2.1746,5.4721-3.7877,11.176-4.67,16.4966-.8912,5.383-1.0873,10.4897-.5793,15.1865.4902,4.5007,1.6131,8.5379,3.3421,11.9959,1.7379,3.4758,4.1531,6.4168,6.9961,8.5112h0c.1069.0802.2139.1426.3298.2139.0356.0267.0713.0535.1159.0713h0l4.3492,2.5133c-3.2173-.606-6.096-1.8983-8.5736-3.9036-14.2596-11.479-11.9068-42.351,5.2493-68.8115,11.0423-17.0224,26.2822-28.9381,39.7932-31.1038,6.3366-1.016,12.0048.1961,16.4609,3.4847-.401.1515-.8021.303-1.2032.4634-1.4794-.6773-3.048-1.1942-4.67-1.5329-3.7966-.7843-8.0923-.6149-12.4326.4902-4.2779,1.0873-8.6627,3.0658-13.0386,5.8643-4.2333,2.7093-8.5468,6.292-12.4593,10.356v.0089ZM424.0594,284.0765c-3.4758,2.4241-6.8981,5.3384-10.1421,8.6538-5.8732,5.9979-11.1849,13.3149-15.3647,21.1577-3.6897,6.9159-6.5238,14.322-8.1993,21.3983-.713,3.0034-1.2121,5.9445-1.5151,8.7875.1426-1.5864.3298-3.1906.5971-4.8037.8734-5.2582,2.4687-10.8997,4.6165-16.3094,2.13-5.3652,4.9374-10.8106,8.1012-15.7569,3.1549-4.9285,6.8624-9.6431,10.7214-13.6447,3.5293-3.654,7.3704-6.907,11.1849-9.4826ZM386.7527,303.318c16.0866-27.8686,41.3528-44.08,58.9189-38.8574-17.7532-2.9232-41.638,13.1723-57.083,39.918-8.6092,14.9102-13.3506,30.872-13.3506,44.9445,0,10.2669,2.5311,18.6266,7.2367,24.375-13.2169-12.6465-11.782-42.5649,4.2779-70.38ZM400.442,381.728c-4.0283-.3119-7.923-1.4973-11.2473-3.4134-8.4221-4.8661-13.0654-15.1597-13.0654-28.9915s4.6968-29.7224,13.2258-44.4989c17.575-30.4264,46.0852-46.9765,63.5622-36.8878,3.0836,1.7825,5.7573,4.1888,7.9676,7.1744.0891.1248.1782.2495.2674.3743-1.3992.4545-2.7895.9269-4.1442,1.426-4.7146-3.6986-10.7838-5.08-17.575-3.9927-13.7427,2.2013-29.2233,14.2685-40.3992,31.4959-17.4056,26.8348-19.6693,58.2326-5.0622,69.9879,3.1638,2.5489,6.9337,4.0194,11.1938,4.3937l1.1942.6862h.0267c.4456.2495.9625.3832,1.5151.3832.606,0,1.2655-.1604,1.934-.4634l1.9963,1.1586c-3.9303,1.0338-7.7626,1.426-11.3988,1.1408l.0089.0267ZM403.6682,375.8637l5.1869,2.9945c-.8734.2584-1.6399.1782-2.2281-.2495-1.0695-.7932-2.0498-1.7201-2.9678-2.745h.0089ZM412.5359,379.999h0c-.0178-.0267-.0446-.0446-.0624-.0624s-.0446-.0446-.0624-.0624h0l-10.3204-5.9623s-.0446-.0178-.0713-.0267c-.0267-.0089-.0535-.0267-.0891-.0267h-.1693c-.0356,0-.0713.0267-.098.0446-.0178.0089-.0356.0089-.0535.0267h0c-.0267.0178-.0446.0446-.0624.0624s-.0446.0446-.0535.0624h0c-.0089.0178-.0089.0446-.0178.0624-.0089.0356-.0267.0624-.0356.098v.1693c0,.0356.0267.0624.0446.0891.0089.0178.0089.0446.0267.0624v.0089h0c.4991.713,1.0427,1.3725,1.6131,2.0053l-4.0907-2.3617c-2.54-1.8805-4.6255-4.4294-6.2118-7.5932-1.8983-3.8055-3.0569-8.5736-3.3332-13.7873-.2852-5.3741.303-11.2027,1.7468-17.3432,1.6577-7.005,4.4561-14.3309,8.1191-21.1844,4.1442-7.7626,9.4024-15.0082,15.2132-20.9527,5.4365-5.5523,11.3631-9.9817,17.165-12.798,6.4525-3.1371,12.7267-4.3046,18.1275-3.3777,1.319.2228,2.5846.5882,3.7966,1.0606-2.6291,1.0784-5.1602,2.2281-7.5308,3.458-6.7555,3.5025-12.495,7.5932-17.0491,12.1652-4.4561,4.4739-7.6913,9.3311-9.6252,14.42-1.9696,5.2048-2.5489,10.7571-1.6577,16.0777.2317,1.4081.5793,2.8252,1.0249,4.2244-2.13,4.269-3.9303,8.6538-5.3295,13.0475-1.9696,6.1851-3.1638,12.4593-3.449,18.1453-.3654,7.3259.7308,13.9209,3.1728,19.0811,1.0071,2.1389,2.2281,4.0105,3.654,5.6147-1.622-1.221-3.0747-2.7182-4.3135-4.4829l-.0178.0357ZM422.1879,387.7259c-3.4847-2.0142-6.2386-5.1245-8.1814-9.2331-2.3796-5.0265-3.4401-11.479-3.0836-18.6533.2763-5.6147,1.4616-11.8087,3.4045-17.9225,1.3012-4.0729,2.95-8.1458,4.8928-12.1207.4278,1.2032.9358,2.4063,1.5151,3.5916-1.3814,3.048-2.5846,6.1673-3.5738,9.2777-1.8716,5.8821-3.0123,11.8533-3.2797,17.2719-.3476,6.9694.6952,13.2525,3.0213,18.1632,2.0498,4.3403,5.1424,7.6556,8.939,9.6074,2.7271,1.3992,5.8464,2.1033,9.2064,2.1033,1.8537,0,3.7877-.2139,5.7662-.6506,2.4776-.5436,5.0443-1.4527,7.6289-2.6648-1.7557.8823-3.5114,1.6309-5.2226,2.2192-4.2511,1.4705-8.5112,2.0587-12.3256,1.7201-3.1193-.2852-6.1316-1.2121-8.6984-2.6915h0l-.0089-.0178ZM647.1865,636.1549c-3.2173-1.8627-7.4685-1.4527-11.9603,1.1408-4.4116,2.5489-8.5647,6.9248-11.6751,12.3167-6.4703,11.2027-6.399,23.4036.1604,27.1913,1.3279.7664,2.8341,1.1497,4.465,1.1497,2.3083,0,4.8572-.7664,7.4952-2.2905,4.4116-2.5489,8.5647-6.9248,11.6751-12.3167,6.4703-11.2027,6.399-23.4036-.1604-27.1913ZM638.0871,637.6789c1.3279-.4545,2.5757-.6417,3.7075-.5704.2941.0178.5793.0624.8467.1159.7843.8645,1.3636,1.9785,1.7112,3.3154.8912,3.4669.205,8.3954-1.8448,13.1723-1.8537,4.3224-4.8483,8.6003-8.226,11.7374-.6239.3565-1.2477.713-1.8983,1.0427l-.9269.4634v.0178s-.0267.0089-.0446.0178h-.0446c-2.6559,1.3101-5.2761,1.6042-7.3883.8467-.2585-.2228-.4902-.4813-.713-.7575.8823-.0357,1.8003-.1783,2.7271-.4634,3.449-1.0427,7.21-3.8946,10.0708-7.62,2.7717-3.6184,4.6967-8.0388,5.1424-11.8355.4545-3.8234-.5793-6.8713-2.7717-8.1369-.3565-.205-.7575-.3476-1.1675-.4545-.0802-.0446-.1604-.0624-.2495-.0535-.2228-.0446-.4456-.0891-.6862-.1069.5882-.2941,1.1764-.5436,1.7557-.7397v.0089ZM642.5611,662.4549v-.0267c0-.0267-.0178-.0446-.0267-.0713,0-.0178,0-.0357-.0178-.0535l-.0089-.0089s-.0089-.0178-.0178-.0267l-.0535-.0535-.0535-.0535-.0089-.0089h-.0089l-1.3101-.7575h0s-.0178,0-.0267-.0089c-.0446-.0178-.0891-.0357-.1337-.0446h-.1693c-.0178,0-.0267.0178-.0446.0178-.0357.0178-.0713.0267-.1069.0535-.909.6684-1.8181,1.3012-2.7093,1.8894-.1961.1337-.4011.2495-.5971.3743,2.4865-2.843,4.6255-6.2029,6.0871-9.6074,2.1211-4.9552,2.8252-10.0976,1.8894-13.7516-.2495-.9625-.6239-1.8181-1.0873-2.5667.0624.0357.1248.0624.1871.098,5.5791,3.2262,5.5078,13.8318-.1604,23.6531-4.6255,8.0121-11.5681,13.0564-16.9957,12.896,5.0889-.5882,10.9621-4.8839,15.3469-11.6305v-.0089h0c.0089-.0178.0089-.0357.0178-.0535.0089-.0267.0267-.0535.0267-.0802v-.1604l-.0178-.0089ZM641.2331,662.5262l-8.6182,4.9819-.1159-.0713.2941-.1515c.6239-.3208,1.221-.6684,1.8181-.9982.0713-.0178.1337-.0446.1871-.098l.0089-.0089c1.1942-.6773,2.3617-1.3725,3.5203-2.1389.8199-.5436,1.6577-1.1318,2.5043-1.7468l.4011.2317h0ZM631.697,668.0073c-1.5953.8021-3.146,1.1853-4.5274,1.114,1.3992-.1069,2.8787-.4991,4.367-1.2032l.1604.098v-.0089ZM638.3277,640.0674c1.6042,1.2121,2.3707,3.8234,1.9874,7.005-.4367,3.6451-2.2905,7.9052-4.973,11.3988-2.745,3.5827-6.3455,6.3099-9.6163,7.3081-1.0516.3208-2.0676.4545-3.0391.4278-.0624-.1069-.1159-.2139-.1693-.3297v-.0178c-.0178-.0357-.0357-.0802-.0535-.1159,2.7093-.4813,5.6058-2.0053,8.2349-4.3848,3.2708-2.95,6.0514-7.1833,7.4595-11.3186.2585-.7575.4456-1.4973.6149-2.2281,0-.0267.0178-.0535.0267-.0802v-.0802c.6328-2.9767.4813-5.6771-.4634-7.5754l-.0089-.0089ZM635.3956,639.7465c-.0357-.1426-.0802-.2763-.1159-.4189.5615-.0624,1.0784-.0267,1.5596.0713.1961.2228.3832.4634.5347.7219,1.0071,1.7201,1.1675,4.465.5169,7.4595-.3654,1.1675-.811,2.3439-1.3368,3.4936-1.5418,3.4045-3.7164,6.6664-6.292,9.4381h0c-.0624.0535-.1159.1159-.1783.1693-2.54,2.2993-5.4365,3.8055-8.0121,4.2066-.1871-.4813-.3565-.9804-.4813-1.5151-.0357-.1515-.0535-.3119-.0802-.4634,1.0249-.41,2.0498-.9536,3.0569-1.622,3.4401-2.2905,6.702-6.1227,8.734-10.2402,1.9874-4.0372,2.7717-8.2616,2.0944-11.3096v.0089ZM625.3782,649.0153c.6239-.9982,1.3012-1.9518,2.0053-2.8608-1.0071,2.3439-2.4152,4.6433-4.0729,6.6396.6149-1.2923,1.3012-2.5578,2.0765-3.7788h-.0089ZM621.4301,657.5621c.2317-.7575.4991-1.5151.7932-2.2815.2941-.2941.5882-.5882.8823-.9001,2.6826-2.9143,4.8572-6.6485,5.989-10.2758.0802-.0891.1604-.1871.2406-.2674,1.0606-1.1497,2.1657-2.1746,3.2975-3.0658,0,.2852,0,.5704-.0178.8556-.0446.8288-.1783,1.6933-.3743,2.5845-.4456,1.4349-1.016,2.8787-1.6933,4.2779-1.5062,3.1371-3.5649,6.1584-5.9534,8.734-1.0695.9804-2.1835,1.827-3.3243,2.5222.0178-.713.0624-1.4438.1604-2.1924v.0089ZM628.9431,653.6229c2.0231-2.8697,3.4936-6.1406,4.1709-9.1707h0c.2139-.9536.3476-1.8894.4011-2.7717.0267-.5258.0178-1.0427-.0178-1.5418.0891-.0624.1783-.1337.2674-.1961.2139-.1515.4278-.2763.6417-.4189.0446.1426.0891.2763.1248.4189.6417,2.8519-.1159,6.8624-2.0231,10.7214-1.9607,3.9838-5.1156,7.6824-8.431,9.8926-.8912.5971-1.8003,1.0784-2.7182,1.4616-.0446-.3921-.0713-.8021-.0891-1.221,2.8074-1.6042,5.5256-4.1353,7.6645-7.1744h.0089ZM620.4587,661.84c.0267.2674.0624.5169.098.7754,0,.0624,0,.1248.0267.1871l.0089.0089c.0357.2139.0624.4367.1159.6417-.1159-.2585-.2317-.5258-.3297-.8199l-.0178-.0624c.0267-.2495.0624-.4902.098-.7397v.0089ZM620.227,664.4602c.4189.7486.9269,1.3814,1.524,1.8805.8199,1.7022,2.1122,2.8787,3.752,3.3866.6239.1961,1.2923.2941,1.9963.2941,1.6577,0,3.4936-.5436,5.3384-1.6131h0l7.7893-4.5007c-5.3295,7.2635-12.6019,11.1314-17.4948,9.1351-.7932-.6239-1.4527-1.4884-1.9429-2.5845-.5258-1.2032-.8645-2.6915-.9625-4.3135-.0357-.5436-.0267-1.1051-.0089-1.6844h.0089ZM646.5716,662.9006c-3.0391,5.2582-7.0674,9.5183-11.3453,11.987-4.2066,2.4241-8.1369,2.8341-11.069,1.1408-2.0409-1.1764-3.3778-3.2708-4.0462-5.9177.0891.2406.1693.4813.2674.7041.5436,1.221,1.2744,2.1835,2.1657,2.8965.0446.0535.098.0891.1604.1248,0,0,.0178,0,.0267.0089.1871.1426.3743.2852.5704.4011,1.221.7041,2.5845,1.0338,4.0462,1.0338,5.7395,0,12.8604-5.1602,17.575-13.3327,5.9177-10.2491,5.8464-21.4072-.1604-24.8741-.8556-.4991-1.8359-.7843-2.9143-.8556-.7397-.0446-1.524.0178-2.3439.1693,1.114-.3297,2.1924-.4991,3.2084-.4991,1.4705,0,2.8252.3387,4.0194,1.0249,6.1316,3.5382,6.0603,15.1954-.1604,25.9703v.0178ZM700.1877,604.1777c-.098-.606-.2495-1.2477-.4634-1.9429-.1961-.6239-.4367-1.2834-.7219-1.9696-.2674-.6417-.5704-1.3012-.9001-1.9696-.3208-.6506-.6684-1.3012-1.0338-1.934-2.3974-4.2066-4.8661-8.3062-7.3526-12.1831-2.5935-4.0551-5.285-8.021-8.0121-11.7909-2.7806-3.859-5.7038-7.6556-8.6805-11.3007-.2852-.3476-.5704-.6862-.8556-1.0338.7664-.6417,1.5329-1.2656,2.2993-1.8716,1.6844-1.3368,3.4045-2.6202,5.1067-3.8144h0c1.0427-.7308,1.9161-1.5864,2.5845-2.5222.6773-.9536,1.1586-2.032,1.4081-3.1282.205-.9358.2585-1.9161.1426-2.8965-.1069-.9447-.3743-1.8983-.7754-2.8341-.4189-.9714-.9982-1.934-1.7112-2.8608-.1248-.1604-.2674-.3119-.4011-.4634-.0535-.0624-.098-.1337-.1515-.1961-.0802-.0891-.1604-.1783-.2406-.2674-.1337-.1426-.2585-.2941-.4011-.4367-.3297-.3387-.6684-.6684-1.0338-.9892h0l-.4723-.41c-.1604-.1337-.3208-.2674-.4813-.4011-.1604-.1337-.3208-.2674-.4813-.4011l-.9714-.7754h0l-1.4527-1.0249h0c-.7308-.4723-1.4616-.9358-2.2013-1.3992-.7397-.4634-1.4705-.918-2.2102-1.3725-.7397-.4545-1.4794-.909-2.2281-1.3547-.7397-.4456-1.4884-.8912-2.237-1.3368s-1.4973-.8823-2.2548-1.3101l-3.1817-1.8359c-.7843-.4545-1.5596-.9001-2.3439-1.3368-.0357-.0178-.0802-.0446-.1159-.0624-1.0427-.5882-2.0944-1.1675-3.146-1.7557-.1159-.0624-.2317-.1248-.3476-.1871-1.0249-.5615-2.0676-1.123-3.1104-1.6755-.0535-.0267-.098-.0535-.1515-.0802-.5169-.2763-1.0338-.5526-1.5596-.8288-3.4936-1.8359-7.1922-3.6986-10.9977-5.5345-3.5382-1.7022-7.1922-3.4045-11.1581-5.1869-3.449-1.5507-7.1298-3.1549-11.2383-4.9196-3.7432-1.6042-7.4863-3.1728-11.2116-4.7235l-3.3599-1.3992c-1.5151-.6328-3.0034-1.2566-4.5007-1.8805-.8467-1.3903-1.7468-2.7361-2.6826-3.9927-.9536-1.2923-1.9785-2.54-3.0302-3.7075-1.0606-1.1675-2.1746-2.2905-3.3243-3.3243-1.1497-1.0427-2.3707-2.0231-3.6095-2.9321-1.2477-.9091-2.5489-1.7557-3.8679-2.5222l-1.8181-1.0516c-.6328-.3654-1.2655-.7041-1.9161-1.0338-.2406-.1248-.4723-.2317-.713-.3565-.3921-.1961-.7843-.3743-1.1853-.5615-.3297-.1515-.6595-.2941-.9893-.4367-.2317-.098-.4634-.1872-.6952-.2852-4.1442-1.6755-8.5825-2.7539-13.2792-3.1906-8.4488-.7932-17.5482.4367-27.0487,3.6451-9.4292,3.1817-19.0455,8.2438-28.5727,15.0528-9.4648,6.7644-18.6355,15.0884-27.2537,24.7404-8.5914,9.6341-16.4342,20.3645-23.2966,31.8969-6.8713,11.5325-12.6108,23.5996-17.0491,35.8629-4.4561,12.2989-7.5041,24.4998-9.0638,36.2729-1.5686,11.8087-1.5953,22.9045-.0802,32.9842,1.4973,10.0085,4.4829,18.787,8.8677,26.104,2.9054,4.8572,6.399,8.9746,10.4095,12.3435.2228.1871.4456.3743.6684.5526.3654.2941.7308.5971,1.114.8823.5704.4367,1.1586.8556,1.7557,1.2656.205.1426.41.2763.6149.41.7041.4634,1.417.918,2.1568,1.3368l1.8181,1.0516c1.622.9358,3.3332,1.7824,5.0711,2.5043,1.7468.7219,3.556,1.3458,5.4008,1.8537,1.8359.4991,3.7521.9001,5.686,1.1853,1.925.2852,3.9214.4545,5.9356.5169.5704.0178,1.1408.0267,1.7201.0267,1.4527,0,2.941-.0535,4.4294-.1693h0c.1604-.0089.3743-.0178.6149,0,.2763.0089.5971.0357.9447.0891.303.0446.6149.098.9358.1693.2584.0624.5258.1337.7754.205.205.0624.401.1337.5793.205.1515.0624.2941.1248.41.1783.098.0535.1782.098.2495.1337h0c2.6737,1.6577,5.2671,3.3421,7.7002,5.0087,2.3796,1.6309,4.7146,3.3064,6.9337,4.9909,2.0944,1.5864,4.162,3.2352,6.1316,4.8928,1.8003,1.5151,3.6005,3.0925,5.3384,4.6968,1.5151,1.3903,3.0213,2.8252,4.6076,4.3937,1.426,1.4082,2.7361,2.745,3.957,4.0105l1.3279,1.3725c.7308.7575,1.4349,1.4883,2.1122,2.1835,1.2566,1.2834,2.2102,2.2281,3.0836,3.0569,1.0516.9982,2.0053,1.827,2.8965,2.5311.9982.7843,1.9429,1.4349,2.8965,1.9874l3.1817,1.8359h0c.205.1159.41.2317.6149.3387s.4189.2139.6239.3119c.2139.098.4189.196.6328.2852.2139.0891.4278.1783.6417.2584.2139.0802.4367.1604.6506.2317h0c.4813.1604.9091.196,1.2923.196.1337,0,.2584,0,.3832-.0089.6952-.0356,1.4349-.1783,2.4063-.4635.8199-.2406,1.7201-.5526,2.6737-.9536.7665-.3119,1.5507-.6684,2.3172-1.0427.811-.3921,1.622-.8199,2.4063-1.2744.9358-.5347,1.8359-1.1051,2.6648-1.6755.2406-.1693.4723-.3297.7041-.4991,1.7735-1.3012,3.5738-2.6915,5.3384-4.1353,1.7735-1.4527,3.5471-2.9856,5.2671-4.572,1.7379-1.5953,3.4758-3.2619,5.1513-4.9731,1.6844-1.7111,3.3688-3.5025,4.9909-5.3295,1.6309-1.827,3.2352-3.7342,4.777-5.6504,1.5507-1.934,3.0836-3.9392,4.5542-5.9623.7754-1.0695,1.5418-2.1657,2.3083-3.2708.7041,1.8627,1.3725,3.761,1.9785,5.6949.8823,2.8252,1.6844,5.8019,2.3796,8.8499.6239,2.7271,1.1675,5.5256,1.6666,8.5469.41,2.5043.7843,5.1691,1.1497,8.128.3119,2.5311.5793,4.982.8288,7.3437l.0267.2852c.0178.1248.0267.2496.0446.3832.0713.4545.1604.8556.2941,1.2299.1693.4902.3832.9091.6684,1.2744.2941.3832.6684.713,1.0695.9447.4723.2674,1.0427.4278,1.6042.4456h.1069c.5258,0,1.0606-.1159,1.5864-.3387h0l.0446-.0178h.0089l2.8341-1.2299s.0802-.0446.1159-.0624c.1248-.0624.2495-.1337.3832-.2139.3208-.1872.6417-.4011.9714-.6773.4278-.3654.8556-.7843,1.2923-1.2923.3921-.4545.7843-.9715,1.1853-1.5507.3654-.5436.7308-1.123,1.0784-1.729.3297-.5793.6506-1.2031.9625-1.8448,1.0873-2.2637,2.1389-4.5809,3.1104-6.8714.9804-2.2994,1.9161-4.6433,2.7806-6.9694.8734-2.3439,1.6844-4.7057,2.4241-7.005.7486-2.335,1.426-4.6879,2.032-6.9783.606-2.3083,1.1497-4.6344,1.6131-6.8892.4634-2.2815.8645-4.5631,1.1764-6.7822.3208-2.2281.5704-4.4739.7486-6.6664.1693-2.0676.2674-4.1442.303-6.1762l29.1431-16.8263c.7754-.4456,1.5329-.9804,2.2726-1.5864.5347,2.1211,1.0606,4.3046,1.5507,6.4881.8645,3.8323,1.6755,7.8071,2.4865,12.1652.0713.3921.1426.7664.2139,1.1408.1248.6506.2585,1.2744.3921,1.8537s.2674,1.123.41,1.6042c.1515.5258.2941.9358.4991,1.3636.0802.1693.1871.3743.3743.6149.0891.1159.2139.2763.4189.4456.1783.1515.3565.2674.5704.3743.2317.1069.4723.1871.7219.2228.1159.0178.2317.0267.3565.0267.1604,0,.3297-.0178.4813-.0446.3832-.0713.6862-.2317.8645-.3476.2852-.1871.5169-.41.713-.6952h0l2.1657-3.1995h0c.1337-.205.2139-.3743.2674-.508.0891-.2317.1337-.4189.1693-.5882.0624-.3297.0802-.6239.098-.8912.0089-.2852.0089-.5882,0-.909s-.0357-.6595-.0624-1.016c-.0267-.3565-.0713-.7219-.1159-1.114v-.098l-.0267-.0891h0c-.1159-.9269-.2406-1.8359-.3832-2.745s-.303-1.8003-.4813-2.6826-.3654-1.7557-.5793-2.6202c-.205-.8645-.4367-1.7112-.6684-2.5578-.2406-.8378-.4991-1.6666-.7664-2.4776h0c-.6595-1.9607-1.3636-4.1709-2.1657-6.7109l-1.4616-4.6255c.4278-.8556.8199-1.729,1.1408-2.6113.606-1.6577,1.0071-3.3243,1.1853-4.9374.1871-1.7646.1069-3.4223-.2406-4.9374-.3208-1.3903-.8645-2.638-1.6131-3.7075l-9.3668-13.3327c-.098-1.1675-.2585-2.3083-.4813-3.4045-.4902-2.4152-1.2656-4.5809-2.2993-6.4881.205-.1337.4011-.2585.606-.3921,1.7201-1.0962,3.458-2.1211,5.1691-3.0569,1.7201-.9358,3.449-1.7914,5.1424-2.5489,1.6933-.7575,3.3956-1.4349,5.0533-2.0142,1.6399-.5704,3.2975-1.0695,4.9107-1.4616,1.5953-.3921,3.1995-.7041,4.7681-.918,1.5418-.2139,3.0836-.3476,4.5987-.3832,1.4884-.0446,2.9589,0,4.3937.1248,1.417.1248,2.8252.3387,4.1798.6239,1.3458.2852,2.6737.6595,3.9392,1.1051.4456.1604.8556.2674,1.2656.3387.3208.0535.6328.0802.9269.0802.1693,0,.3387,0,.508-.0267.5882-.0624,1.1497-.2585,1.622-.5615.4278-.2763.8199-.6684,1.1051-1.1051.2674-.4189.4545-.8912.5615-1.426.0267-.1515.0535-.303.0713-.4456l.3387-3.3421h0v-.0624l.0089-.0535c.0535-.5882.0178-1.221-.098-1.934h.0357ZM696.1415,596.834c.8199,1.426,1.4884,2.8074,1.9874,4.0907.6684,1.7201.9804,3.1728.8645,4.0907-.0802.6328-.3476.9892-.8199,1.0962-.4011.0891-.9536.0267-1.6488-.1871-5.8375-1.8181-12.2365-2.2102-19.0366-1.1764-.7486.1159-1.4973.2495-2.2548.4011-3.2441.6417-6.6129,1.6309-10.0085,2.9321-4.162,1.5953-8.4488,3.6986-12.7356,6.2475-1.5418.918-3.1104,1.9161-4.6789,2.9589-.8734-.8288-1.827-1.5596-2.8608-2.1568l-9.5005-5.4899s-.0178-.0267-.0178-.0357c-.0624-.1426-.098-.2941-.1159-.4456-.0178-.1515-.0178-.2941,0-.4456.0178-.1337.0535-.2585.1159-.3832h0v-.0178h0c1.0516-2.1924,2.1746-4.3937,3.3332-6.5505,1.1764-2.1835,2.4063-4.3492,3.654-6.4346,1.2744-2.1211,2.6024-4.2244,3.957-6.2475,1.3547-2.032,2.7717-4.0551,4.2155-5.998,1.4438-1.9429,2.9321-3.859,4.4294-5.686,1.5062-1.827,3.0658-3.6273,4.6433-5.3563,1.5596-1.7112,3.1817-3.3956,4.8126-5.0087,1.6131-1.5864,3.2708-3.146,4.9374-4.6255.6149-.5436,1.2388-1.0784,1.8627-1.6131,8.9925,10.8373,17.3522,22.949,24.8474,36.0233l.0178.0178ZM696.0256,607.5644c-5.5612-1.6399-11.8622-1.9607-18.2612-.9358-3.8857.6239-7.9141,1.7646-11.9781,3.3688-4.0462,1.6042-8.2082,3.7075-12.388,6.2653-1.3458.8288-2.7271,1.7201-4.0907,2.6469-.2763-.3387-.5526-.6684-.8556-.9804,1.5062-.9982,3.0123-1.9607,4.5007-2.843,4.2422-2.5222,8.4845-4.6076,12.593-6.1851,3.3421-1.2834,6.6664-2.2548,9.8659-2.8876.7397-.1515,1.4884-.2763,2.2191-.3921,6.5683-1.0071,12.7623-.6417,18.4038,1.0784.0624.2674.0624.5615-.0089.8556v.0089ZM598.4454,685.7337c-.2495-.9892-.3832-2.0587-.3832-3.1817s.1248-2.2548.3654-3.4223c.1782-.8645.4367-1.7379.7397-2.6113.1693.1426.3654.2852.606.4367-1.1764,3.1728-1.6042,6.2208-1.319,8.7786h-.0089ZM597.5453,678.9515c-.0891.4456-.1426.8823-.205,1.319l-11.9781-6.9159c.9536-.6595,1.9072-1.3368,2.8608-2.0409h0c.0802-.0624.1782-.1248.2852-.1871.1069-.0624.2228-.1248.3387-.1871.1248-.0624.2495-.1159.3832-.1693.1248-.0535.2584-.1069.401-.1515.1337-.0446.2674-.0802.3921-.1159h0c.2139-.0535.41-.1604.5882-.3208.2139-.1961.3565-.4456.4991-.6952h0c0-.0089.0178-.0267.0267-.0357h0s.0267-.0535.0356-.0802c0-.0267.0089-.0535.0178-.0891,0-.0178.0089-.0357.0089-.0535v-.0624c-.1248-.6595-.2317-1.3458-.3208-2.0409,0-.0178-.0089-.0267-.0178-.0446h0c0-.0178,0-.0357-.0089-.0535,0-.0267-.0178-.0446-.0267-.0624,0,0-.0089-.0089-.0178-.0178,0-.0089-.0178-.0267-.0267-.0357v-.0178s-.0089-.0089-.0178-.0178c-.0089-.0089-.0178-.0267-.0356-.0357-.0089-.0178-.0267-.0267-.0267-.0267-.3387-.3565-.6862-.7219-1.0516-1.0606-.3743-.3565-.7219-.6239-1.0427-.8288-.2763-.1783-.5436-.2941-.7843-.3654h-.0178c-.0178,0-.0446-.0178-.0624-.0267-12.0137-3.1371-23.1095-6.6931-38.2425-13.814-10.7303-5.0533-21.5409-10.9621-30.9344-16.2381,9.8213,1.4438,19.705,2.54,29.3748,3.6006,4.4116.4813,8.8855.9804,13.3773,1.5062,1.7646.4545,3.6095.9001,5.481,1.3279,8.1458,1.8716,16.6213,3.3688,24.5622,4.7057h.0624c.1337.0178.2674.0357.401.0357.2674,0,.5347-.0357.7932-.1159.4545-.1337.8912-.3743,1.2744-.713.2852-.2585.5436-.5615.7575-.909.1248-.1961.2317-.41.3208-.6328h0c0-.0178.0178-.0357.0267-.0535.4545-1.0784.9358-2.1657,1.4438-3.2262.0891-.1159.1069-.2674.0624-.4011,0-.0089-.0089-.0267-.0178-.0357-.0089-.0178-.0089-.0357-.0267-.0535-.2317-.41-.4723-.8378-.7665-1.2388s-.5971-.7041-.9358-.918c-.2674-.1783-.5526-.303-.8467-.3743h0l-1.426-.3654h0c-1.3012-.41-2.5667-.8912-3.7699-1.4527-1.221-.5615-2.3974-1.2121-3.5114-1.934-1.1229-.7219-2.2013-1.5418-3.2173-2.4241s-1.9963-1.8627-2.9054-2.9054c-.9001-1.0427-1.7646-2.1746-2.5578-3.3688-.7932-1.2032-1.5418-2.4954-2.2192-3.8412-.6773-1.3458-1.3012-2.7895-1.8627-4.2868-.5615-1.4973-1.0606-3.0747-1.4973-4.6967-.1961-.7397-.3832-1.4973-.5526-2.2637,7.6556,1.9874,15.0974,3.7432,22.2985,5.4276,5.3206,1.2477,10.8284,2.54,16.3985,3.9214h0c.2941.0713.6149.1069.9536.1069h.1159c.3832,0,.7932-.0624,1.2566-.1604.5258-.1069,1.0516-.2674,1.5596-.41l.0891-.0267h0s.0178,0,.0357-.0089c.0178,0,.0357-.0178.0535-.0267.0267-.0089.0446-.0178.0713-.0357.6328-.5169,1.2923-1.016,1.934-1.4884l.0178-.0178c.0267-.0178.0446-.0446.0713-.0713.0178-.0178.0357-.0357.0446-.0535.0178-.0267.0178-.0535.0267-.0802,0-.0267.0178-.0535.0178-.0802v-.0802c0-.0267,0-.0624-.0089-.0891-.0089-.0357-.0267-.0624-.0446-.0891h0c-.1515-.2941-.3387-.6595-.5971-.9982-.1159-.1515-.2585-.3119-.4278-.4723h0c-.098-.0891-.1961-.1871-.2763-.2763s-.1515-.1871-.2139-.2763c-.0535-.0802-.1069-.1604-.1426-.2406-.0357-.0624-.0535-.1159-.0891-.2406h0c-.2228-1.8359-.3743-3.7342-.4634-5.6236-.0891-1.9429-.1069-3.9392-.0624-5.9356,0-.1693.0178-.3476.0178-.5169,6.3099,2.7182,12.0405,5.3117,17.4948,7.8962h0c.303.1426.6239.2763.9536.41.3743.1515.7575.2852,1.123.41l1.4884.508h.0357s.0178,0,.0178.0089c.5347.098,1.0606.2317,1.5596.3921.0446.0178.0891.0178.1337.0178.0891,0,.1693-.0267.2495-.0802.0267-.0178.0357-.0446.0535-.0624l4.0996,2.3707c-.4189-.0713-.8467-.1337-1.2834-.1783l-.9536-.5526c-.9269-.5347-1.9963-.909-3.0926-1.0695-1.114-.1604-2.2726-.1159-3.458.1248-1.3012.2674-2.6113.7843-3.8946,1.5151-1.3725.7843-2.6915,1.8181-3.9303,3.0658-.8378.8378-1.6131,1.7735-2.335,2.7628-15.641,11.0155-26.9774,33.8576-25.284,50.9692.2763,2.7895.9001,5.3206,1.8359,7.5487-.1159.4367-.2406.8734-.3297,1.3101l.0357-.0178ZM597.7859,686.6606c-4.0462,7.9586-8.6627,15.4717-13.7249,22.3252-5.481,7.4239-11.577,14.1972-18.1097,20.1328-3.556,3.2262-7.2189,6.1762-10.8997,8.7964-.2852-.7487-.8645-1.4883-1.524-1.8805,3.5827-2.5578,7.1476-5.4276,10.6056-8.5557,3.859-3.5025,7.6111-7.3348,11.1403-11.3899,2.3528-2.7093,4.6522-5.5612,6.8357-8.4934,5.5256-7.415,10.6947-15.8905,14.9815-24.5265.0267.0178.0624.0357.0891.0535.0356,1.0427.1782,2.0409.4278,2.9678.0535.1961.1159.3832.1782.5704h0ZM439.54,677.4097c-.1426-.1069-.2941-.205-.4367-.3297-.3387-.2852-.6684-.5882-.9803-.9269-.3921-.41-.7397-.8378-1.0427-1.2656-.098-.1426-.1782-.2763-.2674-.4189h.0178c.6149,0,1.2477-.2228,1.7557-.6239.1515.1069.3208.2228.4991.3476.2674.1783.5526.3743.8467.5615.2317.1426.4634.2941.6773.4278.0267.0178.0446.0267.0713.0446-.5971.4902-1.0606,1.2834-1.1586,2.1033v.0713l.0178.0089ZM437.1604,604.6947c-.3208.1248-.5793.4011-.7575.8199-.1159.2763-.1961.6149-.2406.9892,0,.0802,0,.1783-.0089.2585-.5169.0178-1.1497-.1069-1.6844-.3387.0624-.1961.1069-.3921.1872-.5704.1961-.4634.4545-.8556.7397-1.1675.3832-.4011.8378-.6417,1.2655-.6684.1515-.0089.3119.0178.4634.0535-.0178.2228-.0178.4278.0267.6239h.0089ZM510.0894,531.2845c9.5628,2.1479,20.3645,3.5382,33.011,4.2511,7.9943.4456,16.149.5971,22.3698.6773,3.2352.0446,6.4881.0713,9.7411.1069,12.7445.1248,25.9347.2495,38.902,1.0695h0c1.6488.1069,3.146.4545,4.4472,1.0338,1.8003.8021,3.1995,2.0944,3.957,3.6362.6149,1.2477.8467,2.7717.6595,4.3046-.1426,1.1408-.4991,2.3172-1.0695,3.4936-4.3937,9.0816-8.0032,18.6444-10.4452,27.6547-.2763,1.0071-.5347,2.0142-.7843,3.0123h0c-1.0606,4.3135-1.8894,8.6182-2.4509,12.7712-.6952,5.1245-1.016,10.1511-.9536,14.9637.0357,2.8519.2139,5.6771.5169,8.3954h0v.0178c.0267.205.0713.41.1337.6149.0357.1159.0891.2406.1426.3565-5.2226-1.2923-10.3828-2.5043-15.3825-3.6718-7.3259-1.7201-14.9013-3.4936-22.6995-5.5345-.1248-.606-.2584-1.2121-.3654-1.8359-.3119-1.7468-.5615-3.5649-.7397-5.4008h0c-.0624-.6417-.1872-1.2744-.3565-1.8805-.1693-.5971-.3921-1.1764-.6684-1.7201-.5169-1.0427-1.2032-1.9874-2.0409-2.8074-.7397-.7219-1.5864-1.3368-2.5311-1.8359-.9001-.4813-1.8894-.8467-2.9321-1.0873-1.0873-.2585-2.2459-.3743-3.4401-.3743-1.3368.0089-2.7182.1871-4.0996.5347-.1872.0446-.3832.098-.5704.1515-4.2601,1.2032-8.5023,2.4509-12.4861,3.6184l-1.3547.4011c-1.2655.3743-2.5133.7397-3.761,1.1051-2.0498-.7843-4.0996-1.5953-6.1138-2.4152-6.0603-2.4776-12.1474-5.2226-18.0919-8.1547-2.9321-1.4438-5.8999-2.9678-8.832-4.5453-.6952-.3743-1.3992-.7486-2.0944-1.1318-4.4383-3.1015-8.1458-7.3081-11.0244-12.495-1.9785-3.556-3.556-7.5843-4.7146-11.9691-1.524-5.8197-2.2994-12.29-2.2994-19.2326,0-4.9552.41-10.16,1.1942-15.4806,8.324,4.0372,17.468,7.21,27.218,9.4024h.009ZM483.014,520.973c.0713-.2674.1872-.5347.3387-.7843,8.2884,4.0372,17.4324,7.1922,27.1913,9.3757,9.4737,2.1122,20.1952,3.4758,32.7971,4.1709,7.8517.4367,15.6677.5793,22.2806.6684,2.9589.0357,5.9266.0713,8.9122.098,12.8604.1337,26.1485.2674,39.2763,1.1318-.0178.2495-.0446.5347-.0713.8467-12.8515-.8021-25.899-.9269-38.5098-1.0427-3.2619-.0357-6.5059-.0624-9.7411-.1069-6.2118-.0802-14.3576-.2317-22.3252-.6773-12.6019-.7041-23.3501-2.0855-32.8684-4.2333-9.7767-2.2013-18.9474-5.383-27.2715-9.447h-.0089ZM613.3913,616.3608c.1337.0713.2763.1337.4189.1871.0267,0,.0446.0089.0713.0178-.3565.2674-.713.5347-1.0606.8199-.0446,0-.0891,0-.1248-.0178-.2139-.0357-.4189-.098-.6149-.1783-.1159-.0535-.2317-.1069-.3297-.1693-.1783-.1069-.3208-.2406-.4278-.3743-.0713-.0891-.1159-.1783-.1426-.2674.3921-.3208.7843-.6328,1.1853-.9447.1159.1783.2495.3565.4278.5169.1783.1515.3832.2941.606.41h-.0089ZM613.0437,614.8635s.0713-.0624.1069-.098c.0535.0713.1069.1426.1693.2139.1069.1159.2228.2317.3387.3476h0c.1069.098.1961.205.2763.303-.0446-.0178-.0891-.0357-.1337-.0624-.1604-.0891-.3119-.1871-.4367-.2941-.1426-.1248-.2495-.2585-.3119-.3921v-.0267l-.0089.0089ZM609.6036,607.9922c.0713,2.7093.2763,5.383.5971,7.9765-.3921.2139-.8912.303-1.3547.2495-.2763-2.5845-.4456-5.2582-.4813-7.9676-.0624-4.7591.2585-9.75.9447-14.83.5615-4.1264,1.3814-8.3954,2.4331-12.6821h0c.2495-.9982.508-1.9963.7754-2.9945,2.3974-8.832,5.9266-18.1899,10.2045-27.1022.2317.1069.4456.1961.6417.2763-4.1977,8.8231-7.6378,18.083-9.9461,26.808-1.3903,5.2671-2.4241,10.4986-3.0569,15.543-.6328,5.0265-.8912,9.9817-.7664,14.7319l.0089-.0089ZM609.0955,617.1361c.4456,0,.9001-.098,1.3012-.2674.0535.1159.1248.2317.205.3387.1693.2139.3921.41.6595.5793.0267.0178.0535.0267.0802.0446-.0357,0-.0713.0178-.1069.0267-.41.0891-.7664.1337-1.0962.1337-.2495,0-.4813-.0178-.6862-.0535-.0267-.0446-.0624-.0802-.0891-.1248-.1426-.2228-.2585-.4545-.3387-.6773h.0713ZM612.7228,590.0429c-1.3101,8.4577-1.5329,16.9155-.6506,24.482-.3476.2674-.6952.5526-1.0427.8288-.2852-2.4063-.4723-4.875-.5436-7.3793-.1248-4.6967.1248-9.6074.7575-14.5983.6328-5.0087,1.6488-10.1956,3.0391-15.4271,2.3172-8.7697,5.793-18.0919,10.0352-26.9506.4456-.2139.8912-.41,1.3279-.6149-2.2281,4.572-4.2511,9.2331-5.998,13.8853-3.3154,8.8231-5.6414,17.4948-6.9248,25.7742ZM624.79,549.7952c.3654-1.0784.5971-2.1568.6862-3.2173.1604-1.9518-.1871-3.8501-.9982-5.4989-.9892-2.0053-2.7361-3.7164-4.9196-4.8215-1.1497-.5793-2.4152-.9982-3.7788-1.2656.4634-.2228.9269-.4545,1.3903-.6684l.1961.0267c1.5151.2228,2.9232.6328,4.1709,1.2299,1.6666.7932,3.0569,1.925,4.0283,3.2708.5347.7397.9536,1.5596,1.2388,2.4241.3654,1.0962.5258,2.2726.4723,3.4847-.0624,1.4349-.4189,2.9054-1.0516,4.3581-.4813.2139-.9625.4367-1.4438.6684l.0089.0089ZM619.1575,537.0507c2.0142,1.016,3.6184,2.5845,4.5185,4.4205.7308,1.4794,1.0516,3.2708.909,5.0354-.098,1.1853-.3921,2.3885-.8645,3.5916-.1871-.0713-.4011-.1604-.6328-.2674.4991-1.123.8288-2.2548.9714-3.3599.2139-1.7201-.0446-3.3778-.7397-4.8037-.8467-1.729-2.4063-3.1728-4.3937-4.064-1.2744-.5704-2.7271-.918-4.3046-1.0606.0267-.303.0446-.5793.0624-.8199,1.6309.2228,3.1371.6595,4.4739,1.3368v-.0089ZM593.6774,637.8037h.0446v.0089c.1872.0446.3654.1248.5436.2406.2406.1604.4813.4011.713.713.1248.1693.2495.3565.3654.5526-.0535,0-.1069,0-.1693.0089-.3387.0178-.6862.0178-1.0071,0-.1604,0-.303-.0178-.4367-.0357.1337-.5169.1069-1.0427-.0535-1.4973v.0089ZM594.1319,640.2278c.1604,0,.3208.0089.4902.0089.1961,0,.401,0,.5971-.0178h.1337c-.3387.7308-.6684,1.4616-.9804,2.2013-.5436-.2674-1.1497-.508-1.6666-.6595.2317-.5347.4634-1.0695.7041-1.6042.205.0357.4545.0624.7219.0713h0ZM593.9893,643.2223c-.0356.0624-.0624.1337-.098.1961-.1693.2763-.3743.5169-.5971.713-.2852.2495-.606.4367-.9269.5258-.1604.0446-.3208.0624-.4902.0713-.0178-.4902-.1426-.9269-.3565-1.2566.1426-.0891.2852-.1871.41-.3208.1426-.1515.2763-.3297.3832-.5347,0,0,0-.0178.0089-.0267.4902.1248,1.114.3654,1.6577.6328h.0089ZM592.8753,639.0603c-5.3652-1.7557-10.1332-4.875-13.8051-9.0638-3.1193-3.5649-5.6058-8.021-7.4239-13.2436.5615,1.4973,1.1942,2.95,1.8716,4.2957.6952,1.3814,1.4527,2.7093,2.2726,3.9392s1.7022,2.3974,2.6291,3.458c.9358,1.0695,1.9429,2.0765,2.9856,2.9856,1.0427.909,2.1657,1.7468,3.3243,2.4954,1.1497.7397,2.3707,1.4081,3.6184,1.9963,1.2388.5704,2.54,1.0784,3.8768,1.4973.0624.0178.1159.0446.1693.0713.4545.2585.6328.918.4813,1.5596v.0089ZM578.4018,630.5937c3.761,4.2868,8.6449,7.4952,14.1437,9.3044-.2495.5436-.4813,1.0873-.713,1.6309-1.8359-.5704-3.6095-1.2834-5.2671-2.1211-2.9767-1.5151-5.686-3.4936-8.0478-5.8732-2.3707-2.3885-4.4561-5.2404-6.1762-8.4756-2.8876-5.4276-4.9017-12.2187-5.8286-19.6337.4189-.6417.8467-1.2834,1.2655-1.925.4367,3.8144,1.1408,7.4506,2.1122,10.8106,1.8983,6.5416,4.7591,12.0226,8.5023,16.2916l.0089-.0089ZM590.9502,642.7678c-.0891.0357-.1872.0446-.2763.0267-2.0498-.606-4.0105-1.3903-5.8375-2.335-2.9678-1.5418-5.6771-3.5471-8.0389-5.9801-1.934-1.9785-3.6629-4.2779-5.1602-6.8179-.3476-.5882-.6862-1.1942-1.0071-1.8181-2.843-5.4454-4.8304-12.2365-5.7573-19.6515.2941-.0357.5704-.1069.8288-.205.9625,7.3437,2.9767,14.0635,5.8554,19.4733,1.7646,3.3154,3.8946,6.2386,6.3277,8.6894,2.4241,2.4419,5.2137,4.4739,8.2795,6.0336,1.6577.8467,3.4401,1.5596,5.2761,2.1389-.0446.0713-.0891.1515-.1426.205-.1069.1159-.2228.1961-.3387.2406h-.0089ZM590.977,644.6215c-6.9694-1.1764-14.3042-2.4865-21.4696-4.0551,4.3314.5615,8.6627,1.1764,12.9584,1.8627h.0535c2.6291.4278,5.2761.8288,7.9586,1.2388.2317.0713.4456.4278.4991.9447v.0089ZM567.0387,598.4026c-.6239-.9536-1.4349-1.8537-2.3439-2.5845-.7397-.5971-1.5686-1.114-2.4687-1.5329-1.6131-.7575-3.4847-1.221-5.4008-1.3279-1.3457-.0802-2.7271.0089-4.1175.2585.0089-.0535.0178-.1159.0356-.1604.0178,0,.0267-.0178.0356-.0267.1515-.0446.303-.0802.4545-.1248,1.3101-.3297,2.6202-.4991,3.8946-.508,1.1229,0,2.2013.1069,3.2262.3476.9714.2317,1.8894.5704,2.7271,1.0071.8645.4545,1.6399,1.0249,2.3172,1.6844.7665.7486,1.3903,1.6131,1.8627,2.5667.2495.4991.4545,1.0249.606,1.5686.0891.3119.1604.6239.2139.9447-.2584-.7308-.606-1.4438-1.0427-2.1211v.0089ZM440.2262,595.5596c7.7982-25.1147,21.5053-50.1225,38.6703-70.6385-.508,4.269-.7754,8.4577-.7754,12.4771,0,7.1476.7932,13.8229,2.3617,19.8208,1.1853,4.5453,2.8252,8.7162,4.875,12.4059,2.7628,4.9819,6.2742,9.0905,10.4273,12.2454-3.2352,6.6575-5.3117,13.5555-6.0336,19.9991-4.8483,2.3707-9.6431,4.0818-14.2685,5.08-1.0606.2317-2.1389.4278-3.1995.5793-.1426-.0089-.2941-.0178-.4367-.0357-3.5293-.3208-7.0496-.8645-10.4808-1.622-3.449-.7575-6.907-1.7468-10.2937-2.941-2.0944-.7397-4.1977-1.5864-6.301-2.5043-1.6488-1.426-3.1728-3.0658-4.5542-4.8661h.0089ZM442.3028,599.3027c-.4278-.205-.8645-.4011-1.2923-.606,0,0-.0089-.0089-.0178-.0178h-.0267c-.0089-.0178-.0178-.0446-.0356-.0624-.0356-.0446-.0713-.098-.1069-.1515-.1159-.1783-.2317-.3921-.3208-.6328-.0891-.2317-.1337-.4813-.1872-.7397.6417.7754,1.3101,1.5151,1.9963,2.2191l-.0089-.0089ZM497.2914,580.8811c-.2139.0535-.4189.1159-.6149.1961-.098.0446-.1872.0891-.2852.1426-4.0818-3.0836-7.5398-7.1209-10.258-12.0226-2.0142-3.6273-3.6273-7.7269-4.7948-12.2009-1.5507-5.9266-2.335-12.5217-2.335-19.598,0-4.4205.3119-9.0548.9358-13.7694.1159-.1961.2317-.3921.3654-.5793.2406-.3387.4902-.6239.7575-.8645.3298-.303.6684-.4991.9358-.5615-.8021,5.4097-1.221,10.7125-1.221,15.739,0,7.0139.7843,13.5644,2.3261,19.4554,1.1675,4.4561,2.7806,8.5558,4.7948,12.1741,2.6469,4.7681,5.989,8.7251,9.9372,11.782-.1872.0178-.3654.0535-.5526.098l.0089.0089ZM498.2628,581.6476c.205,0,.3921.0089.5704.0446.0178,0,.0267.0089.0446.0178-3.6718,7.1744-5.9088,14.5626-6.5059,21.4696-.1159-.0713-.2228-.1426-.3387-.2139-.2228-.1426-.4456-.2941-.6417-.4278-.1872-.1337-.3654-.2585-.5169-.3743-.0891-.0624-.1604-.1248-.2317-.1871.713-6.399,2.7984-13.2792,6.0425-19.91.1069-.0624.2139-.1159.3297-.1604.1515-.0624.3208-.1159.4902-.1604.2584-.0624.5169-.098.7575-.1069v.0089ZM490.1081,602.6894c.0802.0624.1426.1159.2317.1783.1604.1248.3476.2495.5436.3921.205.1426.4367.2941.6684.4456.098.0624.1961.1248.2941.1871-3.146,1.5864-6.301,2.9232-9.3757,3.9481-2.2102.0535-4.3937.0178-6.5505-.0802,4.6076-1.016,9.3757-2.7182,14.1883-5.0711ZM492.755,604.4362c1.3101.7219,2.6291,1.426,3.9392,2.13-1.0962.1604-2.1924.3119-3.2619.4456-2.7271.3387-5.4008.5704-8.0032.7041,2.4241-.9269,4.8839-2.032,7.3348-3.2886l-.0089.0089ZM493.2096,603.6698c.5347-6.9248,2.7717-14.3755,6.4792-21.6033.5615.303,1.1319.6149,1.6933.918,2.941,1.5775,5.9266,3.1104,8.8588,4.5541,5.9623,2.941,12.0761,5.6949,18.1542,8.1814,1.6577.6773,3.351,1.3458,5.0443,2.0053-1.8805.5526-3.761,1.0962-5.6147,1.622-4.5363,1.2923-8.2795,2.3172-11.782,3.2084-4.162,1.0606-7.9141,1.925-11.4522,2.6291-2.2281.4456-4.3581.8288-6.4346,1.1586-1.6488-.8734-3.2975-1.7646-4.9374-2.6737h-.0089ZM482.1495,520.7234c-.098,0-.205,0-.3119.0178-.5526.1159-1.0516.4902-1.3725.7843-.3119.2763-.606.6149-.8823,1.0071-.0356.0535-.0713.1159-.1069.1693-.3476-.3832-.7932-.7843-1.2477-1.114.1248-.1337.2495-.2674.3832-.3832.4456-.3832.9269-.6952,1.426-.9358.6862-.3208,1.4081-.4902,2.0142-.4634.1604,0,.303.0267.4456.0624-.1515.2763-.2763.5615-.3565.8556h.0089ZM478.95,523.4684c-17.5571,20.7388-31.585,46.1833-39.5347,71.7258-.5169-.0267-1.1942-.205-1.7468-.4634,8.0389-25.8099,22.2093-51.5217,39.9447-72.4744.508.3476,1.016.811,1.3368,1.2121ZM439.2815,596.0765c0,.2852.0178.5793.0624.8645.0624.4189.1693.8199.3119,1.1942.0802.205.1693.3832.2585.5526-.5347.2139-1.0516.7219-1.3992,1.426-.0267.0535-.0356.1159-.0624.1693-.1782-.1604-.3476-.3476-.4991-.5793-.205-.3208-.3743-.6952-.4902-1.114-.1515-.5258-.2228-1.0873-.2139-1.6844,0-.4456.0713-.8823.1693-1.3101.5971.2585,1.2834.4278,1.8537.4723l.0089.0089ZM439.3261,600.5059c.3921-.811,1.0249-1.1408,1.2834-1.0249,1.2388.606,2.4776,1.1675,3.7253,1.7201.0356.0267.0802.0446.1248.0535,2.1122.918,4.2244,1.7735,6.3277,2.5133,3.4223,1.2121,6.9159,2.2102,10.4006,2.9767,3.458.7575,7.0229,1.3101,10.5878,1.6399.1426.0178.303.0178.4456.0267.0267,0,.0446.0089.0713.0089h.0535c2.5578.2139,5.178.3387,7.8339.3387.7843,0,1.5686-.0089,2.3617-.0267h0c3.5114-.0891,7.21-.3654,10.9888-.8288,1.4883-.1871,3.0034-.4011,4.5363-.6417h0c2.1568-.3387,4.367-.7308,6.6842-1.1942,3.556-.713,7.3259-1.5775,11.4968-2.6469,3.5114-.8912,7.2635-1.9161,11.8087-3.2173,3.5471-1.016,7.1476-2.0676,10.7838-3.146l1.3547-.4011c3.6986-1.0873,7.6289-2.237,11.577-3.3599v.1069c-4.5987,1.3368-9.1796,2.7182-13.609,4.064l-5.1602,1.5596c-8.4399,2.54-18.2255,5.4186-27.5478,7.4595-9.6787,2.1122-18.2255,3.1906-26.1307,3.2797-7.3437.0891-14.5359-.6952-21.3805-2.3172-6.2653-1.4794-12.5574-3.7432-18.7157-6.7109.0267-.0802.0446-.1604.0891-.2406l.0089.0089ZM552.5028,594.1426l.1159-.0267c1.3992-.2674,2.7984-.3654,4.1531-.2852,1.8092.1069,3.5649.5347,5.08,1.2477.8288.3921,1.6042.8734,2.2905,1.426.8467.6773,1.5864,1.4973,2.1568,2.3796.6595,1.016,1.0962,2.1122,1.319,3.2619-.4634.6952-.918,1.3903-1.3725,2.0855-.2406-.7754-.5793-1.524-1.0071-2.237-.8645-1.417-2.1568-2.7093-3.6451-3.6451-1.827-1.1497-4.1264-1.8805-6.4881-2.0587-1.3368-.098-2.7093-.0357-4.0907.1871.4991-.7754.9982-1.5596,1.5062-2.335h-.0178ZM555.016,597.1816c2.2192.1693,4.3759.8467,6.0782,1.925,1.3725.8645,2.5667,2.0498,3.3599,3.351.508.8378.8645,1.7201,1.0873,2.6469-.2406.1159-.5169.1961-.8021.2317-.1515-.9269-.4367-1.8092-.8645-2.6291-.6862-1.3101-1.7735-2.4776-3.0569-3.2797-1.5686-.9804-3.5916-1.5418-5.7038-1.5596-1.3725-.0178-2.7895.1871-4.2244.5882-.1426-.303-.2495-.6417-.3208-.9804,1.5062-.2941,3.0034-.3921,4.4561-.2852l-.0089-.0089ZM550.7738,599.3829c1.4705-.4367,2.8876-.6684,4.3135-.6417,1.9429.0178,3.8055.5258,5.2404,1.426,1.1497.7219,2.13,1.7646,2.745,2.941.4456.8378.7219,1.7557.8378,2.7271.918,7.7002,2.9589,14.7676,5.9177,20.4269.3297.6328.6773,1.2566,1.0338,1.8627,1.5329,2.6024,3.3154,4.9552,5.2939,6.9872,2.433,2.4954,5.2137,4.5631,8.2706,6.1494.5882.303,1.1853.5793,1.7914.8556-1.2032-.1871-2.4152-.3743-3.6095-.5615h-.0178c-7.005-1.123-14.0903-2.0409-21.1309-2.8697h-.0089c-4.5096-.5258-9.0014-1.0249-13.4218-1.5151-14.7319-1.622-29.9719-3.2975-44.686-6.2029-2.5756-.508-5.1245-1.0516-7.6378-1.622h0c-17.6284-4.0283-33.5814-9.6431-47.529-16.7194h0c-.5347-.2674-1.0606-.5526-1.5775-.8556-1.9963-1.1586-3.8947-2.54-5.6325-4.1175-.3832-.3476-.7575-.713-1.1319-1.0873,7.6734,3.5649,15.4984,6.0871,23.3144,7.4595,5.1424.909,10.3828,1.3547,15.8192,1.3547,3.9214,0,7.9408-.2317,12.1028-.7041,5.4276-.6149,11.1492-1.622,17.5126-3.0926,10.1778-2.3528,20.516-5.5345,31.4513-8.9033,3.556-1.0962,7.1387-2.2013,10.7749-3.2886l-.0356-.0089ZM457.0347,665.2177c4.1977-2.638,8.3953-5.7573,12.4771-9.2598,5.1869-4.4561,10.2045-9.5539,14.9191-15.1597,2.9767-3.5382,5.8375-7.2991,8.5379-11.1849.6328.1515,1.2744.303,1.9072.4545-2.8608,4.1709-5.9088,8.2082-9.0816,11.9959-4.777,5.6949-9.8659,10.873-15.1241,15.3914-4.1264,3.5471-8.3686,6.702-12.6197,9.3757-5.5078,3.4669-11.0245,6.1316-16.4164,7.9319l-.0713-.0357c-.1426-.0802-.303-.1783-.4634-.2763-.2139-.1337-.4456-.2763-.6684-.4189-.2941-.1871-.5704-.3743-.8288-.5436-.0089,0-.0178-.0089-.0267-.0178,5.7217-1.7824,11.5948-4.5453,17.468-8.2349l-.0089-.0178ZM438.8448,672.7397c-7.0585-16.9065-7.7626-39.8288-1.9963-64.694.3743.3654.7486.7397,1.1319,1.0962,1.8181,1.6488,3.8055,3.0926,5.891,4.3046,4.0729,2.3528,8.6271,3.8679,13.5466,4.5007,10.5967,4.5898,22.1737,8.4221,34.6063,11.4433-2.6202,3.761-5.4008,7.4061-8.2795,10.8373-4.6878,5.5702-9.6698,10.6412-14.8122,15.0617-4.0372,3.4758-8.1993,6.5594-12.3702,9.1796-5.9623,3.7432-11.9157,6.5238-17.7086,8.2795l-.0089-.0089ZM539.7404,601.8249c-10.9264,3.3599-21.2379,6.5416-31.3889,8.8855-6.3188,1.4616-12.0137,2.4687-17.4056,3.0747-9.848,1.1051-18.9029.9001-27.6725-.6417-8.431-1.4794-16.8887-4.2957-25.1415-8.3597-.0535-.0713-.0891-.1783-.1069-.3208,8.0834,3.9125,16.3718,6.6307,24.6513,8.0478,4.9463.8467,9.9817,1.2744,15.2132,1.2744,4.0551,0,8.2171-.2585,12.5395-.7664,5.3919-.6328,11.1047-1.6666,17.4591-3.1638,9.9728-2.3439,20.1328-5.4899,30.8809-8.8231,3.6005-1.114,7.2457-2.2459,10.9353-3.351.0713.3476.1782.6952.3119,1.0071-3.458,1.0427-6.8892,2.0944-10.2758,3.1371h0ZM440.351,608.3041c1.7824,1.6131,3.7342,3.0391,5.784,4.2244.5347.3119,1.0695.5971,1.622.8823h0c2.0587,1.0427,4.162,2.0587,6.3099,3.0391-3.4847-.7843-6.7555-2.0498-9.75-3.7788-2.032-1.1764-3.9659-2.5845-5.7395-4.1888-.5258-.4723-1.0427-.9804-1.5418-1.4884,0-.1337,0-.2763.0178-.4011.0267-.2852.0891-.5347.1693-.7308.098-.2317.2139-.3387.2852-.3565h.0802c.8823.9892,1.8092,1.925,2.7628,2.7895v.0089ZM436.0197,607.6624c-5.8643,25.1504-5.1424,48.3757,2.0409,65.505-.5169.4011-1.2388.5347-1.7557.3208-7.2813-17.2541-8.0032-40.729-2.0676-66.1824.5615.2228,1.2121.3476,1.7824.3565h0ZM440.4312,677.4454c.0891-.7219.5882-1.4527,1.1319-1.7201,6.0336,3.253,11.675,5.9445,16.755,8.0032,5.989,2.4241,11.372,4.0551,16.4609,4.9998,3.449.6328,6.7733.9447,10.0798.9447,1.2121,0,2.433-.0446,3.6451-.1248h.0356c2.0231-.1426,4.1175-.4189,6.2029-.8199,2.0231-.3921,4.0551-.8912,6.2207-1.5418,2.0142-.5971,4.0907-1.3101,6.3544-2.1835,2.0231-.7754,4.1798-1.6577,6.5951-2.7182,1.622-.713,3.3777-1.4973,5.5523-2.5043-.0089.0624-.0356.1248-.0356.1961-.0178.2941.0356.606.1248.909-3.7521,1.7914-7.7269,3.6629-11.6038,5.2671-6.4346,2.6648-11.8176,4.2779-16.9511,5.08-5.686.8912-11.3364.811-17.2719-.2495-5.0532-.9001-10.4095-2.5133-16.3807-4.9285-5.0978-2.0587-10.766-4.7681-16.8531-8.0388-.0535-.1515-.0802-.3476-.0535-.5704h-.0089ZM513.5562,681.4826c-2.4063,1.0516-4.5453,1.934-6.5505,2.7004-2.2459.8556-4.3046,1.5596-6.292,2.1568-2.13.6328-4.1442,1.1318-6.1316,1.5151-2.0498.3921-4.0996.6684-6.0871.811h0c-4.4561.3119-8.8855.0535-13.5377-.811-5.0354-.9269-10.3649-2.54-16.2916-4.9463-4.8572-1.9696-10.2224-4.5185-15.9618-7.5843,5.2137-1.8181,10.5254-4.4116,15.8282-7.7537,4.2868-2.7004,8.5647-5.8821,12.7267-9.4559,5.285-4.5453,10.4095-9.7589,15.2221-15.4895,3.2708-3.8946,6.4079-8.0478,9.34-12.3524,2.4241.5526,4.875,1.0695,7.3615,1.5596,4.269.8467,8.5736,1.5686,12.896,2.237,9.8659,5.5612,21.5053,11.9781,33.0466,17.4145,14.6874,6.9159,25.5871,10.4808,37.1997,13.5555-.2228.1248-.4367.2585-.6328.3921,0,0-.0089,0-.0178.0089,0,0-.0089,0-.0178.0089h0c-6.9605,4.973-14.117,8.8142-20.7121,11.1136-2.5667.8912-5.1156,1.5864-7.5843,2.0587-.5704.1069-1.1408.205-1.7022.2941h0c-1.2923.205-2.5935.3476-3.859.4278-1.2566.0802-2.5133.1069-3.7253.0713-1.2032-.0357-2.4063-.1248-3.5827-.2763-1.1586-.1515-2.3172-.3565-3.4312-.6239-1.1051-.2585-2.2013-.5793-3.2619-.9536-.8823-.3119-1.8537-.5704-2.8965-.7664-1.016-.1871-2.0676-.3208-3.1282-.3832-.9358-.0535-1.8805-.0624-2.8074-.0267-.9269.0446-1.8537.1337-2.7628.2763-.9893.1515-1.9607.3654-2.8787.6239-1.016.2941-1.9696.6417-2.8519,1.0516-2.8252,1.3101-4.9463,2.2726-6.8892,3.1193l-.0267.0267ZM589.2836,666.9913c-.1961.0713-.3921.1515-.5971.2495s-.3921.205-.5882.3119c-.2495-.6684-.7397-1.3279-1.3101-1.7557.0178,0,.0267-.0178.0446-.0267.2495-.1337.5169-.2495.7932-.3565.1515.0535.303.1248.4813.2406.2763.1783.5704.41.9091.7308.1782.1604.3387.3476.508.5169-.0891.0267-.1693.0535-.2584.0891h.0178ZM589.5866,667.829c.1069-.0357.205-.0713.303-.098.0535-.0178.1069-.0267.1604-.0357.0535.4011.1159.7932.1872,1.1764-.1159.0267-.2228.0357-.3476.0713-.1337.0357-.2674.0802-.41.1337-.2406.0802-.4813.1871-.7219.303-.0891.0446-.1604.0891-.2495.1248-.0713-.3476-.1337-.6952-.1961-1.0427.0356-.0267.0624-.0446.1069-.0624.1961-.1159.4189-.2406.6417-.3387.1782-.0802.3476-.1515.5258-.2228v-.0089ZM587.3229,668.0518c-6.9159,4.9998-14.0457,8.8588-20.6408,11.176-6.4525,2.2637-12.7089,3.2262-18.6177,2.8608-3.1995-.1961-6.2653-.8021-9.144-1.7735.1337-.4902.1248-.9892,0-1.426.6239.1871,1.2655.3654,1.8983.5169,1.1497.2674,2.335.4813,3.5203.6417,1.2032.1515,2.442.2495,3.6718.2852.3832.0089.7665.0178,1.1497.0178.8734,0,1.7646-.0267,2.6558-.0891,1.2923-.0802,2.6202-.2317,3.9392-.4367h0c.5704-.0891,1.1497-.1871,1.729-.303,2.5133-.4813,5.1067-1.1853,7.7091-2.0944,6.6129-2.2993,13.7783-6.1406,20.7388-11.0868.0446.0178.0802.0267.1159.0535.5615.3208,1.0784,1.0427,1.2477,1.6755l.0267-.0178ZM535.0793,682.8818c-1.1675-.1248-2.9856-.2674-5.0889-.2585-2.1835.0089-4.474.205-6.4346.5436-1.1497.1961-2.2192.4634-3.2262.7575.0535-.8199.1069-1.6309.1782-2.4598.9625-.303,2.0053-.5615,3.1193-.7664,1.5507-.2852,3.2797-.4634,4.9909-.5258.918-.0357,1.8716-.0267,2.8252,0,1.114.0446,2.2548.1337,3.3688.2674,1.0784.1337,2.0944.303,3.048.508-.0713.7664-.1337,1.524-.1961,2.2815-.8288-.1426-1.6933-.2674-2.5935-.3654l.0089.0178ZM537.2896,684.085c-.1515.1426-.3208.2406-.4991.2941-.7754-.2317-1.6131-.4278-2.5043-.5793-.4634-.0802-1.0606-.1604-1.7468-.2228.9714.0535,1.8092.1248,2.442.1961.8021.0891,1.5686.1961,2.3083.3208v-.0089ZM527.6465,683.6037c-1.1229.1159-2.237.2941-3.2441.5436-1.1408.2852-2.1924.6506-3.146,1.0784-.2495-.0624-.4902-.2139-.6862-.4367.9714-.2941,2.0142-.5436,3.146-.7397,1.221-.2139,2.5667-.3565,3.9392-.4456h-.0089ZM534.9189,679.5664c-1.1408-.1426-2.2994-.2317-3.4401-.2763-.9804-.0357-1.9518-.0357-2.8876,0-1.7557.0624-3.5203.2495-5.1156.5347-1.0962.205-2.13.4545-3.0926.7575-.0446-.1783-.0713-.3654-.0624-.5347.0267-.3921.2228-.7219.5258-.8645.0178-.0089.0356-.0267.0535-.0357.811-.3743,1.7022-.7041,2.6469-.9714.8912-.2495,1.8181-.4545,2.7717-.606.8734-.1337,1.7735-.2228,2.6648-.2674.9001-.0357,1.8092-.0357,2.7093.0267,1.0249.0624,2.0409.1871,3.0123.3743.9982.1871,1.925.4367,2.7628.7308.0446.0178.098.0357.1426.0624.4634.2674.6417.9536.4545,1.6131-.9804-.205-2.0231-.3921-3.1371-.5258l-.0089-.0179ZM520.2226,685.6892c-9.0548,4.2066-16.7283,7.2902-24.375,8.6182-1.5686.2763-3.1549.4723-4.7146.5971h0c-.5526.0446-1.1051.0713-1.6577.098,1.6666-.1426,3.3421-.3654,5.0443-.6862,7.816-1.4527,15.739-4.7413,25.1682-9.2242.1604.2228.3387.4278.5436.5882l-.0089.0089ZM521.4703,686.0991c.9447-.4367,1.9963-.811,3.146-1.0873,1.6309-.4011,3.5203-.6328,5.3206-.6506,1.7824-.0178,3.2708.1693,4.2155.3208.9091.1515,1.7557.3476,2.5311.5882h0c3.1371.9714,6.4346,1.524,9.8569,1.6577-2.5043.4189-5.0354.8556-7.6467,1.3012-12.0315,2.0587-24.375,4.162-37.0393,5.6147,6.1049-1.7022,12.4148-4.3759,19.6069-7.7447h.0089ZM537.9401,684.691c.1248-.1248.2406-.2585.3387-.41,3.449,1.0249,7.1833,1.5418,11.0512,1.5418,2.3885,0,4.8304-.1961,7.2902-.5971.6328-.098,1.2834-.2406,1.925-.3654-1.1051.2495-2.2013.4545-3.2797.6328-6.0514.9536-12.0137.6684-17.3254-.8021ZM556.4776,684.3523c-6.292,1.016-12.4771.6862-17.9225-.9269.0535-.7397.1159-1.4884.1872-2.237,2.9232.9714,6.0336,1.5864,9.2687,1.7824.8378.0535,1.6755.0802,2.5311.0802,5.2671,0,10.7838-.9982,16.4342-2.9856,6.5683-2.3083,13.6625-6.1316,20.5427-11.069.0535.3297.1159.6684.1782.9892-2.3974,1.7557-4.8126,3.3778-7.1833,4.8305-4.1353,2.5311-8.2527,4.6165-12.2543,6.2029-4.0105,1.5864-7.9765,2.7093-11.7909,3.3243l.0089.0089ZM634.1301,609.4181c.0535.1783.1248.3476.2139.5169-.0624-.0267-.1159-.0624-.1783-.098-.1783-.1069-.3297-.2406-.4634-.3921-.0802-.0891-.1426-.1871-.1961-.2852-.098-.1783-.1515-.3654-.1693-.5436-.0089-.1159,0-.2317.0357-.3387.2406.0446.4723.0891.713.1515,0,.0178-.0089.0267-.0089.0357-.0535.3119-.0357.6417.0535.9625v-.0089ZM632.8645,607.2079c-.3387-.1248-.7486-.3119-1.1675-.508,1.5151-3.0569,3.1282-6.1049,4.8037-9.0548,2.95-5.178,6.1584-10.1956,9.5539-14.9191,2.7628-3.8501,5.6949-7.5665,8.7073-11.0423.7041-.811,1.4081-1.6131,2.1211-2.3974,6.3634-7.0407,13.1723-13.2169,20.2219-18.3682.1515.2406.2674.4902.3297.7219-6.9337,5.0889-13.8585,11.4344-20.0615,18.3771-3.7164,4.1709-7.2813,8.6627-10.5878,13.3595-3.2975,4.6879-6.4168,9.6698-9.2687,14.8211-1.622,2.9321-3.1906,5.9712-4.6522,9.0281v-.0178ZM632.5169,608.0278c-.0535.2139-.0713.4367-.0535.6506.0178.2228.0891.4456.1693.6684-.2763-.098-.5436-.1961-.8199-.303-.2317-.0891-.4456-.1871-.6595-.2852v-.0802c0-.3387.0357-.6773.1248-.9982.0178-.0624.0446-.1159.0624-.1693.41.1961.8288.3832,1.1764.5169h0ZM603.4898,662.8025l-3.556,9.1707c-2.4152-13.5288,4.9552-32.503,17.3611-44.7484l-3.3866,8.7251c-6.2386,8.1369-10.1332,18.1632-10.4184,26.8526h0ZM611.9653,640.9408l-6.6129,17.0402c.0178-.1159.0267-.2317.0535-.3565.4634-2.7182,1.2566-5.5167,2.3528-8.3151,1.1051-2.8341,2.5043-5.6147,4.1442-8.2706.0178-.0357.0446-.0624.0624-.098h0ZM618.7743,625.8612c.1693.1426.3743.2941.6328.4545l-19.3218,49.7927c-.3743-.2495-.5436-.4278-.606-.508l19.295-49.7393ZM619.1307,624.9611c.5436-1.3814,1.2299-2.7361,2.0409-4.0194.918-1.4527,1.9607-2.7806,3.1193-3.9392,1.1853-1.1942,2.4419-2.1746,3.7432-2.9232.9358-.5347,1.8716-.9358,2.8074-1.2121-.4189.1871-.8467.4011-1.2744.6506-3.0926,1.7914-6.0068,4.8572-8.1814,8.6271-.6239,1.0784-1.1586,2.2013-1.622,3.3243-.3832-.2495-.5615-.4278-.6239-.5169l-.0089.0089ZM620.1824,626.7703l2.0587,1.1853-19.3218,49.8017-2.0587-1.1853,19.3218-49.8017ZM620.5211,625.9415c.4634-1.1318.9982-2.2548,1.622-3.3421,2.1033-3.6451,4.8928-6.5951,7.8606-8.3062,2.8876-1.6666,5.5702-1.9518,7.5754-.7932l.1337.0713c-4.4205,0-9.8837,3.9481-13.5021,10.2134-.6239,1.0784-1.1586,2.2013-1.622,3.3421l-2.0587-1.1942-.0089.0089ZM596.9214,670.0125c-1.5953-16.1133,8.5914-37.4136,22.9936-48.7144-.6417,1.114-1.2032,2.2637-1.6577,3.4401h0l-.205.5258c-13.8675,12.7534-22.0578,33.8844-18.7157,48.2331l-.7308,1.8716c-.1159.2941-.205.5971-.303.8912-.6862-1.8894-1.1586-3.9749-1.3814-6.2564v.0089ZM600.5487,677.4186l2.0498,1.1853c-1.8537,4.9819-1.8448,9.6609-.1604,12.6108l-.098-.0535h0s-.0089,0-.0178-.0089c-3.3332-1.934-4.0372-7.5309-1.7824-13.7249l.0089-.0089ZM603.3828,679.0406c1.3903.7308,3.1549,1.3547,4.4472,1.5864-1.3279,3.7253-1.319,7.2367.0624,9.4648.8199,1.3279,2.0676,2.0944,3.6095,2.237.1604.0178.3208.0178.4902.0178,1.016,0,2.1122-.2852,3.2352-.811-.1069.303-.2585.5347-.4813.6595-.5971.3476-1.2032.6417-1.8092.8734-.6328.2495-1.2744.4456-1.8983.5704-.6684.1337-1.3458.1961-1.9785.1961-.6862,0-1.3636-.098-2.0053-.2674-.6684-.1783-1.3012-.4367-1.8983-.7754-3.3421-1.934-4.0462-7.5398-1.7824-13.7516h.0089ZM603.7036,678.194l19.3218-49.8017c1.3814.7219,3.146,1.3547,4.4383,1.5864l-19.3129,49.7838c-1.2299-.1871-3.0658-.8378-4.4472-1.5686ZM623.3641,627.5635c.4634-1.1318.9982-2.2548,1.6131-3.3332,4.2957-7.4506,11.2205-11.5325,15.436-9.0994h0c.1961.1159.3921.2406.5793.3654.1871.1337.3654.2763.5436.4189.1783.1515.3387.303.4991.4634s.3119.3297.4545.4991.2852.3565.41.5347c.5615.7932.4991,1.925-.1069,2.941-.8556-.9536-2.0053-1.4705-3.351-1.5151-2.7361-.1248-5.9623,1.8181-8.5914,5.0978-1.2477,1.5507-2.2815,3.3332-3.0391,5.1869-1.2299-.1871-3.0658-.8288-4.4472-1.5686v.0089ZM667.8184,562.0852c-6.5772,5.9801-12.7089,12.7891-18.2256,20.2664-5.6236,7.62-10.873,16.3361-15.1776,25.2306-.2228-.0535-.4456-.098-.6773-.1426,1.4349-2.9945,2.9678-5.9623,4.5541-8.832,2.8341-5.1156,5.9356-10.0798,9.2242-14.7319,3.2886-4.67,6.8268-9.1351,10.5254-13.2792,6.1406-6.8803,13.003-13.1634,19.8743-18.2166.3208.2585.6328.5258.9447.7932-3.7342,2.6559-7.4506,5.6414-11.0423,8.9122h0ZM681.8819,544.3231c-.0624-.811-.2674-1.6488-.5704-2.4776.508.8556.9001,1.7201,1.123,2.5845.2139.8199.303,1.6488.2585,2.4509-.0535,1.0071-.3208,1.9874-.7932,2.9143-.5258,1.0338-1.319,1.9785-2.3261,2.8163-.3208-.2763-.6417-.5436-.9714-.811.9001-.7932,1.6309-1.6755,2.1746-2.6202.8556-1.4973,1.2299-3.1817,1.0962-4.8661l.0089.0089ZM680.8837,544.0111c-.0446-.5793-.1783-1.1764-.3743-1.7735.2585.7219.4278,1.4438.4813,2.1479.1248,1.5062-.2139,3.0123-.9804,4.3492-.4634.811-1.0873,1.5686-1.8537,2.2726-.0891-.2228-.205-.4367-.3476-.6506.8378-.6595,1.524-1.3903,2.0231-2.1924.7932-1.2656,1.1586-2.7004,1.0427-4.162l.0089.0089ZM677.8268,539.3233c1.2834,1.5062,2.0498,3.1995,2.1746,4.7591.098,1.2656-.2139,2.5133-.909,3.6184-.5169.8199-1.2388,1.5596-2.1479,2.2191-7.2367,5.2404-14.2061,11.5592-20.721,18.7603-.7219.7932-1.4349,1.5953-2.1389,2.4152-3.0302,3.5025-5.9801,7.2367-8.7518,11.1047-3.4134,4.7502-6.6396,9.7946-9.5985,14.9993-1.7557,3.0926-3.449,6.2831-5.0265,9.4826h0c-.1159.2406-.2139.4902-.2852.7486-.0802.2941-.1248.606-.1426.918-5.3563-2.54-10.9977-5.08-17.1917-7.7447.0624-1.5507.1604-3.1282.303-4.7146.1961-2.1033.4634-4.2422.7932-6.3723.3387-2.1389.7397-4.3313,1.221-6.5059.4723-2.1835,1.0249-4.4116,1.6399-6.6129.606-2.1924,1.2923-4.4383,2.0409-6.6842.7308-2.2102,1.5507-4.4561,2.4152-6.6931.8645-2.2191,1.7914-4.4739,2.7717-6.6842.9714-2.2013,2.0142-4.4294,3.1015-6.6129h0c.3387-.6862.6239-1.3814.8467-2.0765.2228-.713.3921-1.4438.4902-2.1568.1783-1.3368.1248-2.6469-.1604-3.8857-.2406-1.0427-.6684-2.0676-1.2299-2.9678-.5436-.8645-1.221-1.6577-2.0231-2.3439-.8378-.7219-1.8003-1.3368-2.8787-1.827-1.2121-.5526-2.5667-.9536-4.0016-1.1764-.41-.0624-.811-.1159-1.221-.1515-4.5096-.4011-9.1529-.7219-14.1883-.9892-4.269-.2317-8.8944-.4189-14.1437-.5882-4.6076-.1426-9.1974-.2585-13.7605-.3743h-.2763c-4.5185-.1159-9.1974-.2317-13.8496-.3921-5.1067-.1693-9.545-.3743-13.5823-.6239-4.7859-.2941-9.0994-.6506-13.208-1.0962-3.2173-.3476-6.3277-.7575-9.3133-1.2299,1.1408-3.7253,2.442-7.4863,3.8857-11.1938,3.0302-7.7626,6.7288-15.436,10.9888-22.8064,3.0836-5.3473,6.4792-10.5432,10.0887-15.4628,8.0478,4.3224,17.0402,8.6003,27.4676,13.0832,7.816,3.3599,15.7925,6.5594,24.2324,9.9461,2.7717,1.114,5.5523,2.2281,8.3419,3.351,5.8642,2.3707,13.5823,5.5256,21.3003,8.9301,16.4342,7.2457,30.5601,14.6517,43.1888,22.646,1.3814.8734,2.5578,1.8805,3.4936,2.9767l-.0356.009ZM487.176,514.467c-.205.3565-.3832.713-.5169,1.0784-.098.2852-.1782.5615-.2228.8288-.3208.0535-.6417.2406-.9536.5258-.0267-.0178-.0713-.0357-.098-.0624-.1604-.1426-.2941-.3119-.3832-.508-.1159-.2495-.1693-.5347-.1604-.8556.0089-.4011.1248-.8467.3387-1.2923.1782-.3743.4367-.7397.7308-1.0873.5169.3743,1.016.909,1.2655,1.3636v.0089ZM486.5165,512.4439c18.6266-19.1168,39.3387-31.8791,58.3841-35.9609.4367.3387.7041,1.0338.6506,1.6755-18.8762,4.0818-39.3654,16.7015-57.7781,35.5866-.3208-.4634-.7843-.9358-1.2655-1.3012h.0089ZM486.7482,517.2655c.0802.0357.1604.0802.2495.1159h.0178c3.3956,1.6488,6.9337,3.1638,10.5343,4.4918,3.6897,1.3636,7.5665,2.5757,11.5414,3.6273.8378.2228,1.6933.4367,2.5489.6417-1.8003-.4189-3.5649-.8645-5.3028-1.3458-7.0229-1.934-13.7427-4.4472-19.9813-7.4417.1782-.098.3208-.1248.3921-.0891ZM509.3051,524.6448c-3.9392-1.0427-7.7982-2.2459-11.4612-3.6006-3.449-1.2744-6.8535-2.7182-10.1154-4.2957.1159-.6862.2406-1.3725.3654-2.0676,18.1097-18.6712,38.2425-31.2285,56.8334-35.4797-2.9054,4.1531-5.6771,8.4755-8.226,12.8871-4.367,7.5665-8.1636,15.4271-11.274,23.3679-1.5329,3.9036-2.9054,7.8784-4.0907,11.7998-4.1798-.7397-8.226-1.622-12.0315-2.6202v.0089ZM526.2562,515.786c3.0926-7.8962,6.8624-15.7212,11.2116-23.2431,2.7093-4.6878,5.6682-9.2955,8.7786-13.6803.1604-.098.3208-.1872.4902-.2674.3297-.1515.6684-.2763,1.0071-.3654.4278-.1069.8378-.1515,1.1764-.1337-3.5649,4.875-6.9159,10.0174-9.9639,15.3023-4.2779,7.415-7.9943,15.133-11.0512,22.9312-1.4705,3.761-2.7984,7.5843-3.9481,11.372-.5882-.098-1.1675-.1961-1.7468-.2941,1.1764-3.8679,2.5311-7.7804,4.0372-11.6305l.0089.0089ZM545.9523,476.3315c.4456-.0267.9358-.0178,1.4349.0356.7397.0802,1.5151.2406,2.1835.4723.1069.0356.1961.0713.2941.1159-.1159.098-.2228.2139-.3297.3387-.1337-.0356-.2763-.0624-.4367-.0713-.4634-.0446-1.0071.0178-1.5686.1604-.3654.098-.7308.2228-1.0873.3832-.0356-.5169-.2139-1.016-.4902-1.426v-.0089ZM601.5023,500.0559c2.9767,1.2032,5.9801,2.4152,8.9746,3.6362,5.8019,2.3617,13.4397,5.5167,21.1577,8.9479,11.7642,5.2404,22.2004,10.5076,31.9237,16.1044.0089,0,.0267,0,.0446.0089.7397.4278,1.4794.8556,2.2102,1.2923.7486.4367,1.4884.8823,2.2281,1.3279s1.4794.9001,2.2191,1.3458c.7397.4545,1.4705.909,2.2102,1.3725.6417.41,1.2923.811,1.934,1.2299h0c-12.5574-7.9141-26.5941-15.2667-42.8857-22.45-7.7269-3.4045-15.4538-6.5683-21.327-8.939-2.7895-1.1318-5.5702-2.2459-8.3419-3.3599-8.431-3.3866-16.3985-6.5862-24.2057-9.9372-10.3471-4.4472-19.2594-8.6894-27.2537-12.9762.1426-.1426.2852-.2406.4278-.303,7.9943,4.2957,16.9422,8.5736,27.3695,13.0564,7.5308,3.2441,15.1954,6.3366,23.3234,9.6163l-.0089.0267ZM580.612,480.85c1.3012.7486,2.5756,1.5775,3.7966,2.4687,1.2121.8823,2.4063,1.8537,3.5382,2.8697s2.2281,2.1122,3.2619,3.2619,2.0409,2.3707,2.9767,3.6362c.6773.909,1.3279,1.8805,1.9607,2.8608-.1782-.0802-.3654-.1515-.5436-.2317-9.2509-13.3149-23.6888-20.0169-40.7022-18.894.0446-.5971-.098-1.1942-.3832-1.6755,9.7589-.5793,18.5375,1.3279,26.104,5.6949l-.0089.0089ZM593.9982,495.0472c-4.0551-1.7022-7.3793-3.1193-10.4095-4.4383-3.7699-1.6399-7.1744-3.1549-10.4184-4.6433-3.458-1.5953-6.8001-3.1817-9.9282-4.7324-2.3796-1.1764-4.7146-2.3796-6.9872-3.5738,15.8192-.6773,28.8044,5.3028,37.7434,17.3878h0ZM454.2809,551.8807c29.1252-50.4433,73.6687-81.351,107.455-77.5811-2.6648-.1961-5.4097-.1872-8.2349.0267-.508.0356-.918.1426-1.221.303-.4991.2674-.5971.6417-.6149.8467-.0178.1872.0267.4902.2941.8199.1426.1782.3387.3565.5882.5258.1426.1069.3119.205.4991.303h0c6.2118,3.351,13.1723,6.7822,20.7032,10.2045,5.6415,2.5667,11.5235,5.0978,17.1204,7.4506-4.1798-1.7112-8.2795-3.4134-12.3346-5.1602-10.4808-4.5096-19.4644-8.8053-27.4765-13.1188-.3476-.1872-.7575-.3654-1.2032-.508-.7397-.2495-1.5596-.4278-2.3707-.508-.5882-.0624-1.1497-.0713-1.6755-.0356-.3208.0267-.6328.0624-.9091.1248h-.0267c-19.3931,4.1085-40.4705,17.1115-59.3734,36.6293-.4813.4991-.8645,1.0427-1.1408,1.6131-.2674.5615-.41,1.114-.4189,1.6488-.0089.4545.0713.8823.2495,1.2566.1426.3119.3476.5793.6149.8021.1337.1159.2941.2139.4545.303h0c.0267.0178.0535.0357.0802.0535h0c6.4525,3.1549,13.4308,5.7751,20.7388,7.7893,7.5843,2.0944,15.739,3.6184,24.9365,4.6789,10.9531,1.2566,22.0935,1.6844,31.5405,1.934,4.1888.1069,8.4042.1961,12.6465.2763,6.5772.1337,13.3773.2674,20.0971.508,7.3704.2674,13.9655.6328,20.0971,1.123-.41.1961-.811.3832-1.221.5882-13.2614-.8823-26.6833-1.016-39.6684-1.1497-2.9767-.0267-5.9445-.0624-8.9033-.098-6.604-.0891-14.4111-.2317-22.245-.6684-12.5484-.6862-23.2253-2.0498-32.6456-4.1531-9.8213-2.1924-19.0187-5.3741-27.3339-9.4648h0c-.0178-.0089-.0446-.0089-.0624-.0178h-.0267c-.3565-.1604-.7754-.2674-1.221-.2852-.7754-.0267-1.6042.1604-2.433.5526-.5793.2674-1.1229.6239-1.6309,1.0606-.303.2585-.5882.5436-.8467.8467-18.0206,21.2022-32.396,47.2884-40.4884,73.4548-.205.6684-.3119,1.3636-.3208,2.0676-.0089.6773.0713,1.3279.2495,1.9429.1426.508.3476.9625.5971,1.3547.2139.3297.4545.606.7219.8288.1515.1248.3119.2228.4813.3119,0,0,.0178.0089.0267.0178.0178,0,.0356.0267.0535.0357h0c6.3277,3.0836,12.8069,5.4186,19.2505,6.9427,6.5772,1.5596,13.4753,2.3439,20.516,2.3439h1.0873c7.9676-.0891,16.5679-1.1764,26.309-3.3064,9.3579-2.0409,19.1613-4.9285,27.6191-7.4685l5.1691-1.5596c4.162-1.2566,8.4488-2.5578,12.7713-3.8144-.4813.7308-.9536,1.4705-1.426,2.2102-3.8055,1.1497-7.5665,2.3083-11.274,3.458-10.7393,3.3243-20.8814,6.4614-30.8275,8.8053-6.3188,1.4884-11.9959,2.5133-17.3611,3.146-9.8035,1.1497-18.7959.9892-27.4943-.4991-8.3953-1.4438-16.8085-4.2155-25.0078-8.2528h0c-.0267-.0178-.0624-.0178-.098-.0357h0c-.3476-.1515-.7308-.2317-1.1051-.205-.6684.0446-1.3101.3743-1.8537.9447-.3654.3832-.6773.8645-.918,1.426-.1426.3297-.2585.6862-.3476,1.0606-6.1405,25.9257-5.4097,49.864,2.0587,67.4301h0c.1872.4456.4634.9269.811,1.417.3208.4634.7041.918,1.1229,1.3636.3387.3565.6952.6862,1.0516.9892.2852.2406.5793.4545.8556.6417.1693.1159.3387.2139.4991.303h.0089c6.1673,3.3332,11.9246,6.0782,17.0937,8.1636,6.0336,2.4331,11.4522,4.064,16.559,4.973,3.2797.5882,6.4703.8734,9.6252.8734,2.6559,0,5.2939-.205,7.9408-.6239,5.2048-.811,10.6591-2.4509,17.1561-5.1335,3.7788-1.5596,7.6467-3.3688,11.3007-5.1156-.0624.7932-.1248,1.5864-.1693,2.3707-9.4292,4.4829-17.3165,7.7715-25.0791,9.2063-3.9214.7308-7.718.9892-11.6038.8021-6.0692-.2941-12.5574-1.7379-19.8298-4.3937-6.4703-2.3707-13.6357-5.7038-21.8885-10.1956h0c-.3387-.1871-.6417-.303-.909-.3654-.713-.1515-1.0873.1783-1.1942.5436-.0802.2674-.0446.5882.1069.9804.0802.1961.1872.41.3298.6417.4902.811.9982,1.5953,1.524,2.3617-20.2308-27.3428-15.7569-81.4312,13.404-131.928l.0178-.0356ZM554,476.4563s-.0802-.0446-.1159-.0624c-.0891-.0535-.1693-.098-.2228-.1337-.0267-.0178-.0446-.0356-.0356-.0267-.1248-.1426-.3297-.1782-.4991-.1069-.0178-.0178-.0446-.0267-.0624-.0356-.2228-.1515-.3387-.2763-.401-.3565-.0891-.1069-.1069-.1782-.1069-.205,0-.0178.0356-.0624.1515-.1248.1159-.0624.3387-.1426.713-.1782.3387.2584.5526.7308.5882,1.2299h-.0089ZM441.1175,680.8587c-.3743.1337-.7575.1426-1.0606,0-.0713-.1337-.1515-.2674-.1961-.3832-.0802-.205-.0891-.3297-.1248-.3387.0267,0,.0802,0,.1872.0178s.2852.0891.5347.205c.0535.1248.1515.2406.2763.2941.0356.0089.0802.0357.1782.0891h0c.0713.0357.1337.0713.205.1159ZM483.6646,702.6046h0c-2.0498.1515-4.0818.205-6.0514.1426-1.9785-.0624-3.9481-.2317-5.8375-.508-1.9072-.2763-3.7877-.6684-5.5791-1.1675-1.8003-.4902-3.5827-1.1051-5.2939-1.8181-1.7022-.7041-3.3777-1.5329-4.9641-2.4509-6.0782-3.5114-11.1938-8.5468-15.2578-14.9458.4723-.0267.9625-.1961,1.3992-.4902l.2941.1604c8.5736,13.6447,22.0756,20.9973,38.3494,20.9973,1.114,0,2.237-.0446,3.3777-.1159-.1337.1069-.2763.1871-.4278.1961h-.0089ZM444.0407,682.4184c.8734.4634,1.7379.909,2.5846,1.3458,1.8894.9625,3.761,1.8805,5.5612,2.7361,1.8448.8734,3.6629,1.6844,5.3919,2.4241,1.7735.7575,3.5382,1.4616,5.2226,2.0944,1.7379.6506,3.4312,1.2299,5.0622,1.7379,1.6666.5258,3.3154.9892,4.9017,1.3725,1.6042.3921,3.2084.7308,4.7681.9982s3.1282.4723,4.6522.606,3.0569.2139,4.5542.2228h.303c.5971,0,1.1853-.0178,1.7824-.0357-1.3368,1.8894-2.7182,3.761-4.1264,5.5612-17.1472,1.2388-31.4959-5.5256-40.6488-19.0633h-.0089ZM487.6216,703.2285c-.1159-.0446-.2317-.0891-.3565-.1248-.2763-.0891-.5615-.1604-.8378-.2228-.3476-.0802-.6862-.1426-1.0071-.1871-.1248-.0178-.2406-.0267-.3654-.0446.0713-.1159.1248-.2495.1872-.3832.2852-.1337.5704-.2495.8823-.3387.3476-.098.6862-.1604,1.016-.1961.2584-.0267.508-.0267.7219,0,.0535,0,.098.0267.1515.0357-.2674.4813-.401.9982-.3921,1.4616h0ZM487.9692,700.8489c-.2763-.0357-.5793-.0357-.9001,0-.2941.0267-.5882.0802-.8912.1604,1.2834-1.6755,2.5578-3.3956,3.7788-5.1424.4189-.0267.8378-.0446,1.2477-.0713h0c.3832-.0267.7575-.0713,1.1408-.1069-1.2299,1.7914-2.5043,3.5738-3.7966,5.2939-.1693-.0624-.3654-.1069-.5793-.1337h0ZM538.3947,744.0555c-.918-.2941-1.8092-.6863-2.6915-1.1943-.9091-.5258-1.827-1.1497-2.7895-1.9162-.8734-.6952-1.8003-1.5062-2.8341-2.4865-.8645-.8199-1.8092-1.7557-3.0569-3.0302-.6773-.6952-1.3814-1.4171-2.1122-2.1835l-1.3279-1.3725c-1.2299-1.2655-2.5489-2.6113-3.9749-4.0284-1.5953-1.5775-3.1104-3.0213-4.6255-4.4205-1.7468-1.6131-3.556-3.1995-5.3741-4.7235-1.9874-1.6666-4.064-3.3243-6.1673-4.9196-2.2281-1.6933-4.5809-3.3778-6.9694-5.0176-2.4509-1.6755-5.0532-3.3688-7.7358-5.0354h0c-.0267-.0178-.0535-.0357-.0713-.0624-.2228-.2585-.1782-.909.1693-1.5151,5.4097,3.3599,10.4719,6.8357,15.0617,10.3382,4.4294,3.3866,8.5914,6.9159,12.7267,10.7838,2.9321,2.7539,5.4454,5.2939,7.6645,7.5398.9625.9803,1.8805,1.8983,2.745,2.7539,2.4509,2.4241,5.0711,4.8839,7.6824,6.4346,1.3368.7932,2.6915,1.3636,4.1085,1.7468-.4991.6417-.6773,1.5329-.401,2.3083h-.0267ZM535.1417,739.234c-2.5311-1.5062-5.1067-3.9214-7.513-6.3099-.8645-.8556-1.7735-1.7735-2.7361-2.7539-2.2192-2.2459-4.7413-4.7948-7.6824-7.5576-4.1531-3.8946-8.333-7.4417-12.7891-10.8462-4.5898-3.5114-9.6698-6.9872-15.0884-10.356,1.426-1.8983,2.8252-3.859,4.1709-5.8375,15.6588-1.3725,30.8364-3.957,45.5416-6.4792,5.6593-.9714,10.9977-1.8805,16.354-2.7271,2.1122-.3297,4.269-.811,6.4257-1.426,2.1568-.6149,4.3581-1.3725,6.5594-2.2637,2.1835-.8823,4.4205-1.9161,6.6485-3.0747,2.1924-1.1408,4.4294-2.4241,6.6485-3.8234.9536-.5971,1.9161-1.2299,2.8697-1.8805l12.6197,7.2902c-.0535.0624-.1069.1248-.1515.1961-.1693.2406-.3297.508-.4723.7932h0c0,.0178-.0178.0267-.0267.0446-4.3046,8.7429-9.5272,17.3254-15.1152,24.8206-2.1657,2.9143-4.4561,5.7484-6.7911,8.4399-3.5114,4.0284-7.2367,7.8338-11.069,11.3186-3.6718,3.3243-7.4595,6.3634-11.2651,9.0281-.9893.6952-2.0944,1.3725-3.2797,2.0142-.8823.4812-1.8448.9536-2.7717,1.3636-.6952.3119-1.3903.5971-2.0498.8467-1.1586.4367-2.1924.7487-3.0034.918-.5704.1159-1.016.1515-1.3547.0891h0c-1.6309-.3476-3.1549-.9536-4.67-1.8538l-.0089.0267ZM539.7315,744.4209c-.2228-.1604-.401-.3921-.4991-.6506-.2317-.6239.0446-1.4259.5971-1.7914.1069.0089.2139.0268.3297.0268.3297,0,.7219-.0446,1.1853-.1337.8556-.1693,1.934-.4991,3.1371-.9536.6773-.2584,1.3903-.5526,2.1033-.8645.9447-.4278,1.925-.9091,2.8252-1.3992,1.1675-.6328,2.2637-1.3101,3.253-1.9963.0802,0,.2139.0268.3921.1248.5615.3297,1.0695,1.0606,1.2299,1.6933-1.0784.8288-2.2637,1.631-3.5382,2.3706-1.0338.5971-2.1568,1.1764-3.2352,1.6666-.8199.3743-1.6399.704-2.433.9892-1.3814.4991-2.6469.8288-3.6451.9536-.713.0891-1.2834.0802-1.7022-.0268v-.0089ZM552.886,742.0324c-1.4705.918-3.1371,1.7824-4.6789,2.4419-1.7914.7664-3.4847,1.2834-4.7591,1.4705-.8288.1159-1.4705.0891-1.9072-.0713-.205-.1515-.401-.3208-.5971-.4724.1872-.0089.3921-.0268.5971-.0535,1.0606-.1337,2.3885-.4812,3.8323-.9982.8199-.2941,1.6577-.6328,2.5043-1.016,1.1051-.4991,2.2548-1.0873,3.3154-1.7022,1.2834-.7397,2.4776-1.5507,3.5738-2.3885.3119.2763.6328.5436.9625.811-.8823.6952-1.827,1.3636-2.843,1.9963v-.0178ZM586.8595,707.9876c-3.2886,4.67-6.8357,9.1351-10.5254,13.2793-6.1405,6.8802-13.0119,13.1634-19.8743,18.2166-.3208-.2584-.6328-.5258-.9447-.7932,3.7342-2.6469,7.4417-5.6415,11.0423-8.9122,6.5772-5.9801,12.7089-12.798,18.2255-20.2664,4.9463-6.6931,9.4559-14.0011,13.4308-21.737.1159.2585.2495.5169.3832.7575-.8199,1.5953-1.6666,3.1817-2.5133,4.7235-2.8341,5.1245-5.9445,10.0798-9.2242,14.7319h0ZM596.5828,733.1826c-1.114-7.4863-2.5489-14.0636-4.3848-20.0971-.7397-2.4241-1.5686-4.8126-2.4509-7.112.3743-.5615.7575-1.114,1.1319-1.6844,1.3814-2.1122,2.745-4.2957,4.0462-6.5059,1.2834-2.1746,2.54-4.4205,3.7342-6.6753.2495-.4634.4902-.9358.7308-1.3992.6773.8734,1.5062,1.622,2.4954,2.2013h0l2.8341,1.6399c.6595.3832,1.3725.6684,2.1122.8645.713.1871,1.4527.2852,2.2191.2941h.1069c.6773,0,1.3636-.0713,2.0587-.2139.6773-.1337,1.3636-.3387,2.0498-.6149.6417-.2495,1.2923-.5704,1.925-.9358l3.4669-1.9963c-.1871,3.2797-.5347,6.6396-1.0695,9.9906-.508,3.2262-1.1853,6.5327-2.0142,9.8302-1.2388,4.973-2.8519,10.0976-4.7859,15.2221-1.8537,4.9017-4.0105,9.8391-6.4079,14.6517-.6328,1.2655-1.3368,2.433-2.0409,3.3866-.5436.7397-1.1051,1.3725-1.622,1.827-.3832.3387-.7575.5793-1.0784.7219-.6328.2763-.9091.0535-1.0695-.1248-.2228-.2584-.3832-.713-.4723-1.3368l-.0178-.1426h0l-.0713-.5882c-.4189-3.5827-.8556-7.2813-1.4349-11.2205l.009.0178ZM619.5853,690.4305l2.3172-1.3368c-.1069,4.1175-.4813,8.3508-1.1318,12.6019-1.2744,8.2171-3.5827,16.8263-6.8803,25.596-1.8359,4.875-3.966,9.7678-6.3277,14.5537-.1337-.0535-.2852-.1248-.4456-.196-.7041-.3208-1.3903-.6863-1.7735-.9269,2.3439-4.7324,4.4561-9.5717,6.2831-14.3933,1.9429-5.1602,3.5649-10.3115,4.8215-15.3202.8288-3.3332,1.5151-6.6664,2.032-9.9104.5704-3.5827.9358-7.1655,1.114-10.659l-.0089-.0089ZM603.3026,748.3512c-.4545.4011-.9001.704-1.319.8912l-.0357.0178h0c-.4545.1872-.918.2763-1.3368.2674-.41-.0089-.8467-.1337-1.1853-.3297-.303-.1693-.5793-.4188-.8021-.713s-.3921-.6239-.5347-1.0249c-.0356-.098-.0624-.205-.0891-.303.2228.2228.5793.4635,1.1051.4635.2584,0,.5526-.0535.8823-.196.41-.1783.8556-.4635,1.3101-.8734.5615-.4991,1.1764-1.1764,1.7557-1.9696.6506-.8823,1.2923-1.9339,1.8805-3.0658.4902.303,1.2121.6684,1.8092.9447.1515.0713.2941.1337.4367.1872-.6149,1.3101-1.3012,2.5311-2.0053,3.5381-.6149.8734-1.2566,1.622-1.8716,2.1657h0ZM608.1152,744.5902c-.8556,1.3368-1.7914,2.4063-2.6291,3.0123-.0891.0624-.1783.1248-.2674.1783-.0891.0535-.1871.1069-.2763.1515.3208-.3743.6506-.7932.9625-1.2388.8021-1.1408,1.5418-2.4776,2.2191-3.957.4545-.205.909-.4188,1.3725-.6328-.4278.8912-.8912,1.729-1.3725,2.4865h-.0089ZM623.1234,698.4961c-.6328,5.0087-1.6488,10.1956-3.0391,15.4271-2.3172,8.7697-5.793,18.0919-10.0352,26.9507-.4456.2139-.8912.41-1.3279.6149,2.2281-4.572,4.2511-9.2331,5.998-13.8853,3.3154-8.8231,5.6414-17.4948,6.9248-25.7742.6952-4.4739,1.0784-8.9301,1.1675-13.2614l1.0784-.6239c-.0624,3.4401-.3119,6.9783-.7664,10.5432v.0089ZM654.04,669.5045l-37.8592,21.8528c.0178-.1069.0267-.2317.0357-.3476l38.287-22.1024c-.1069.2674-.2585.4723-.4634.5971ZM655.4927,668.542c.0089-.0713.0178-.1515.0267-.2317.6506-.3921,1.2834-.8556,1.8894-1.3814-.6239.5971-1.2566,1.1318-1.9072,1.6131h-.0089ZM662.7116,691.6693c-.098-.303-.2139-.7219-.3565-1.2834-.1871-.7932-.4011-1.7914-.6417-3.048l-.0535-.2585h0c-.9892-5.285-2.0053-10.1243-3.0836-14.6874.4011.9714.7843,1.9785,1.1408,3.0123h0c.2406.7219.4723,1.4527.6952,2.2013,1.0427,3.5827,1.7735,7.4952,2.1835,11.6216.098.9625.1337,1.8181.1159,2.4509v-.0089ZM661.2768,677.3473c-.2228-.7575-.4545-1.5062-.7041-2.237h0c-.7843-2.2993-1.7022-4.4829-2.7361-6.4614l-.3208-.5882c.303-.2763.606-.5526.9001-.8556.1515-.1515.2941-.3119.4367-.4634,1.9607,3.2352,3.5649,6.9515,4.7681,11.0779,1.0427,3.5738,1.7735,7.4685,2.1924,11.5681-.1871.0891-.3921.1693-.6149.2139-.8378.1426-1.5864-.1515-1.7201-.5258-.41-4.162-1.1586-8.1012-2.2102-11.7285h.0089ZM666.0716,693.3894c-.0802.1159-.2228.2941-.4634.4545-.1604.1069-.3565.1871-.5526.2228-.1693.0357-.3654.0357-.5347.0178-.1604-.0267-.3119-.0713-.4634-.1426-.1337-.0624-.2585-.1426-.3743-.2406-.1337-.1159-.2228-.2228-.2852-.3119-.0713-.0891-.1248-.1783-.1693-.2495.0178-.0089.0267-.0178.0446-.0357.1337-.1426.2763-.4011.3208-1.2299.0267-.4278.0178-.9804-.0178-1.5864.3387.1515.7486.2406,1.1764.2406.1961,0,.3921-.0178.5971-.0535.2139-.0357.41-.098.5971-.1693.1337.9001.2139,1.7022.2139,2.2815,0,.606-.0802.7843-.0891.8021h0ZM668.0768,687.7301c.0891.5615.1515,1.0695.1783,1.4794.0535.7754-.0267.9892-.0267.9892v.0089l-1.1942,1.7735c-.0357-.6328-.1337-1.3992-.2763-2.2459.4456-.6595.8823-1.3368,1.319-2.0053h0ZM667.854,686.4467c-.4189.6506-.8467,1.2834-1.2656,1.925-.4367-3.8144-1.1408-7.4506-2.1122-10.8106-1.2477-4.2957-2.9321-8.1725-4.9998-11.5235.4189-.4902.8288-1.0071,1.2121-1.5329.4634.7486.918,1.5151,1.3368,2.3083,2.8876,5.4276,4.9017,12.2098,5.8286,19.6337ZM665.5814,672.6773h0c.0446.1248.0713.2495.1159.3654-.8288-2.3796-1.7914-4.6076-2.8787-6.6575-.4902-.9269-1.0249-1.827-1.5686-2.6915.0535-.0802.1159-.1693.1693-.2495.3476.5793.6862,1.1853,1.0071,1.7914,1.2032,2.2726,2.2637,4.7681,3.1549,7.4328v.0089ZM662.8632,664.2107c-.2317-.4189-.4634-.8467-.7041-1.2566h0c-.0713-.1159-.1426-.2317-.2139-.3476.0891-.1515.1783-.303.2674-.4545l.6506,2.0587h0ZM654.8778,667.6686l-39.2941,22.6906c-1.4081.811-2.7895,1.1853-3.9927,1.0784-1.2477-.1069-2.2548-.7397-2.9321-1.8181-1.3012-2.0944-1.2299-5.5345.1871-9.1974l19.6426-50.6394c.7308-1.8805,1.7824-3.7075,3.048-5.2761,2.4598-3.0658,5.3919-4.8393,7.8695-4.7681,1.2656.0446,2.3172.606,3.0391,1.6309l19.6515,27.9488c.6952.9892,1.0606,2.3707,1.0606,4.0016,0,5.2761-3.7164,11.7107-8.2884,14.3487h.0089ZM663.692,647.6517c.1248.3654.2406.7308.3297,1.123.3297,1.417.4011,2.9767.2228,4.6433-.0891.8378-.2495,1.6933-.4634,2.5489.1783-.9001.2763-1.7824.2763-2.6469,0-1.6755-.3743-3.1193-1.0606-4.2244.3297-.4634.5704-.9447.6952-1.4438ZM662.5423,645.3791c.5526.7843.4991,1.8983-.0891,2.9054l-19.0989-27.1734c.4278-.6149.6862-1.2744.7754-1.925l18.4038,26.1842.0089.0089ZM644.495,618.1432c3.5827,1.8983,6.1227,5.4989,7.3169,10.4095l-7.3169-10.4095ZM651.7852,625.4869c-1.6755-4.2868-4.5363-7.3348-8.324-8.7875-.098-.1248-.1871-.2495-.2852-.3743-.1604-.1961-.3297-.3743-.508-.5526-.1783-.1783-.3654-.3565-.5615-.5169s-.3921-.3208-.606-.4723c-.098-.0713-.205-.1248-.303-.1961,1.1675.303,2.2815.7308,3.3064,1.3279,1.8003,1.0427,3.3599,2.4598,4.6344,4.2333,1.114,1.5418,1.9874,3.3421,2.6469,5.3384ZM694.1808,611.8779c-1.3101-.4634-2.6737-.8467-4.0551-1.1408-1.3903-.2941-2.8341-.508-4.2868-.6417-1.4705-.1337-2.9856-.1783-4.4918-.1337-1.5418.0446-3.1193.1783-4.6967.3921-.6773.098-1.3636.2139-2.0498.3387,4.0194-.8378,7.9408-1.1586,11.7107-.918,3.146.1961,6.1762.7843,9.0103,1.729-.3297.3387-.7664.4991-1.1408.3654v.0089ZM695.6335,610.6748c-2.9232-.9714-6.0336-1.5864-9.2687-1.7824-6.0247-.3832-12.4059.5971-18.9653,2.9054-5.5078,1.934-11.2294,4.8393-17.0135,8.6449-.1783-.2674-.3297-.5615-.5169-.8199,1.3368-.909,2.6737-1.7824,3.9927-2.5845,4.1353-2.5311,8.2528-4.6165,12.2543-6.2029,4.0016-1.5864,7.9676-2.7004,11.7909-3.3243,6.292-1.016,12.4771-.6862,17.9225.9269-.0535.7397-.1159,1.4884-.1871,2.237h-.0089ZM696.4802,612.2255c-.2139.0267-.4278.0267-.6506.0089.1515-.1337.2852-.2941.41-.4813.3832.0713.7486.1159,1.0695.1159.1159,0,.2139-.0178.3208-.0267-.3387.1961-.7308.3297-1.1497.3832h0ZM699.0469,609.4716h0c-.0178.1693-.0535.3387-.098.4813-.1337.4189-.3743.7041-.7308.8556-.41.1871-.9892.205-1.7112.0891.0713-.7664.1337-1.524.1961-2.2815.2495.0267.4902.0535.713.0535.4545,0,.8645-.0624,1.221-.1961.1961-.0713.3743-.1693.5436-.2852l-.1337,1.2834h0ZM698.3428,607.6357c-.3832.1337-.8645.1693-1.4438.1069.0624-.2585.0802-.5258.0624-.7932.2941.0535.5615.098.811.098.2139,0,.4189-.0178.606-.0624.3832-.0891.7041-.2852.9447-.5615-.1426.606-.4634,1.0249-.9804,1.2121h0Z"/>
  </g>
  <g id="Layer_3" data-name="Layer 3">
    <path d="M496.61,709.67c2.45,1.68,4.78,3.36,7,5-7,23.64-26.55,91.73-39.48,93.91-6.27,1.06,4.82-15.66-6.71-13-15.87,3.65-23.08,30-34.76,49.62s-16.45,12.21-13,5,11.84-21.29,13-32.12c.8-7.42-8-12.74-23.09-2.65-17,11.38-31.65,32.72-35.36,27.78-5.15-6.86,23-22.64,22.89-46.89,0-8-2.39-11.41-10.35-6.64s-18.05,12-29.46,13.81c-21,3.41-.53-23.89,9.82-33.71s16.19-21,10.08-41.93,1.59-42.73,4-48.7,15.92-40.74,18-49.79,10.26-65.08,91.29-115c-.7467.8-1.4867,1.61-2.22,2.43-17.575,19.8789-31.2681,42.876-40.37,67.8-4.3243,11.7751-7.3653,23.9825-9.07,36.4101-1.5644,10.9423-1.5947,22.0493-.09,33,1.2285,9.1575,4.2275,17.9883,8.83,26,2.4427,4.128,5.4746,7.8775,9,11.13.0616.0654.1285.1257.2.18l.57.51,1,.81.88.71,1.31,1c.4.29.79.57,1.19.83l.08.06c.38.25.76.5,1.14.73s.82.51,1.24.75l1.83.99c1.6087.9388,3.2792,1.7673,5,2.48,1.7435.7324,3.5342,1.3471,5.36,1.84,1.8533.5117,3.737.9058,5.64,1.18,1.9552.2854,3.925.459,5.9.52,2.041.0576,4.0837.0109,6.12-.14h.67c.3347.0128.6684.0428,1,.09.31,0,.64.11,1,.18s.55.14.81.22l.62.21.44.2.29.16c2.7067,1.6733,5.2933,3.35,7.76,5.03Z"/>
    <path d="M418.63,385.74l3,1.75c-4.25,7-9.13,14.36-14.5,21.78-23.56,31.6-31.44,93-33.2,112.43-1.76,19.43-1.06,20-9.12,25.49-3.91,2.66-4.14-21.92-5.38-32.7-1.21-10.62-22.17-18-41.93-24.07-25.21-6.26,3.35-110,56.43-157.5-.47,2.46-.83,4.87-1.06,7.23-.6103,5.5645-.3946,11.1886.64,16.69.8656,4.7008,2.7162,9.1653,5.43,13.1,1.4251,2.0185,3.1519,3.806,5.12,5.3.1942.162.3979.3123.61.45.1068.0889.2205.1691.34.24l.54.36c.29.19.59.37.88.54l2.62,1.51c3.5122,2.0011,7.4281,3.1902,11.46,3.48,4.1225.2794,8.2621-.1674,12.23-1.32,1.5851,2.1304,3.5896,3.9137,5.89,5.24Z"/>
  </g>
</svg>