<?xml version="1.0" encoding="UTF-8"?>
<svg id="Layer_1" data-name="Layer 1" xmlns="http://www.w3.org/2000/svg" viewBox="0 0 1000 1000">
  <g id="Layer_2" data-name="Layer 2">
    <path d="M386.6321,668.2335c-.2636-.1483-.5438-.1648-.7662-.033-.1565.0906-.2719.2471-.3213.4366-.0741.2801-.0165.6261.173.9474.1318.2224.3048.4119.5026.519.1401.0824.2884.1236.4284.1236.1153,0,.2307-.033.3378-.0906.2224-.1318.3543-.379.3543-.6838,0-.2224-.0741-.4696-.1977-.7003-.1318-.2224-.3048-.4119-.5026-.519h-.0083ZM386.6568,658.1082c.1153,0,.2307-.033.3295-.0906h0c.4037-.2307.4696-.8239.1483-1.3759s-.8651-.7909-1.2688-.5602-.4696.8239-.1483,1.3759c.2389.4119.5932.6509.931.6509h.0083ZM678.8906,575.5815c-.173-1.3594-.9722-2.8588-2.0514-3.8145l-28.4811-25.1279c-2.1668-1.9114-3.7156-5.0586-3.7651-7.6619l-.0659-3.3202-4.8361-244.7131h0v-.0659c-.0247-.2389-.1648-.4696-.3543-.6097-.0082-.0082-.0247-.0165-.033-.0247,0,0-.0165-.0165-.0247-.0165h0l-14.393-8.3211s-.033-.0082-.0494-.0165c-.0247-.0082-.0577-.0247-.0824-.0247h-.0412c-.0659-.0165-.1318-.0247-.1977-.0165-.0659,0-.1318.0165-.1977.0494l-2.5046,1.45h-.0082c-.0577.0412-.0989.0906-.1401.1401-.0412.0494-.0659.0989-.0824.1565-.0247.0494-.0412.1071-.0494.1648h0l-.4202,10.562-234.5054,135.4025-8.9142-5.1492s-.033-.0082-.0494-.0165c-.0247-.0082-.0494-.0247-.0824-.0247h-.0494c-.0659-.0165-.1318-.0247-.1895-.0165-.0659,0-.1318.0165-.1977.0494l-2.5128,1.45c-.0577.0329-.1071.0824-.1401.1401-.0412.0494-.0577.0989-.0824.1565-.0247.0494-.0494.1071-.0494.173l-9.4168,236.4909-.2142,5.4705c-.0247.6097-.1401,1.1452-.3295,1.5983-.173-.0247-.3543-.0494-.5355-.0989h0l-12.9182-3.5179-.552-.3213c-.8239-.4778-1.9443-.725-3.0895-.6756l-4.7702-1.3017h0c-.552-.1483-1.0628-.0989-1.4912.1401h0l-2.5128,1.45s-.033.033-.0494.0494c-.0412.0247-.0906.0412-.1236.0741-.5108.3955-.7992,1.0793-.7992,1.9361v2.5046c-.692.4696-1.0875,1.0628-1.0875,1.7219v2.9082c0,.7168.4696,1.4006,1.2935,1.8702l85.6327,49.4402s.0247.0082.0412.0165h.0165c.7827.4367,1.7796.6591,2.7764.6591s1.9938-.2225,2.7764-.6591h.0165c.0082,0,.0247-.0082.0412-.0165l6.9864-4.037c.8239-.4779,1.2935-1.1534,1.2935-1.8702v-2.9083h0c0-.725-.4614-1.3923-1.2935-1.8702l-14.7555-8.5188-20.0859-17.7214c-2.1668-1.9114-3.7074-5.0586-3.7651-7.6619l-.2142-10.9821,207.6803-119.9055,61.2133,35.3356s.0247.0082.0412.0165h.0165c.7827.4366,1.7796.6591,2.7764.6591s1.9938-.2224,2.7764-.6591h.0165c.0082,0,.0247-.0082.0412-.0165l6.9946-4.0369c.8239-.4778,1.2935-1.1534,1.2935-1.8702v-2.9082c0-.6673-.4037-1.2852-1.1204-1.7466l-.0494.0083h0ZM678.0914,575.9028l-1.7383,1.0051c-.1813-1.1452-.7909-2.381-1.6313-3.2872l1.7796-1.0298c.8898.8898,1.5159,2.1832,1.5901,3.3119h-.0001ZM606.415,492.5934s-.0247-.0329-.0247-.0659h0c-.0906-.3378-.2719-.6756-.5025-.9639h0c-.0165-.0165-.0247-.0412-.033-.0577h0l-3.3202-3.9051,11.0645-6.385h0c.173-.0989.4531-.1565.5767-.1401h.0329l9.9029,1.5571-17.3506,10.0182-.3295-.0494-.0165-.0082h0ZM606.5303,493.6068c-.0906,0-.1813,0-.2636-.0412-.0824-.033-.1565-.0989-.2307-.1648.0494.033.0989.0659.1565.0906.0989.0412.2142.0577.3213.0659l.0165.0494h0ZM594.6172,483.9181c-.0247-.0659-.0577-.1236-.0989-.173-.033-.0577-.0824-.1071-.1401-.1401l-4.8773-2.8176s-.0247,0-.033-.0082c-.0247-.0082-.0412-.0247-.0659-.0329h0c-.0577-.0165-.1154-.0247-.1813-.0165-.0659,0-.1318.0247-.1895.0494-.0247.0082-.0412.0412-.0577.0577l-1.9691,1.1369v-3.4026c0-.6591.1977-1.1287.5602-1.3429.3625-.206.8733-.1401,1.4418.1813h0l5.0503,2.9165c.379.2142.758.5438,1.0957.9474l9.4415,11.1057h0c.0165.0247.033.0494.0494.0741l-9.9688-1.5653v-6.7804c0-.0741-.0247-.1318-.0494-.1895h-.0082.0003ZM395.5546,654.8704l.4943-.2884.5273,26.8828-1.7054.9804-.0494-2.381.9969-.5767s.0247-.0247.0412-.033c.0247-.0165.0494-.033.0659-.0577.0165-.0165.033-.0412.0412-.0659.0165-.0247.0247-.0412.033-.0741.0082-.0247.0082-.0577.0165-.0824,0-.0165.0082-.033.0082-.0494l-.4778-24.2546h.0082,0ZM394.9285,654.2772s-.0247.0247-.0412.033c-.0247.0165-.0494.033-.0659.0577-.0165.0165-.033.0412-.0412.0659-.0165.0247-.0247.0412-.033.0741-.0082.0247-.0082.0577-.0165.0824,0,.0165-.0082.033-.0082.0494l.4778,24.2546-.3872.2224-4.8196-243.7739,1.7054-.9804,4.3335,219.2721-1.104.6344v.0083h0ZM614.2582,479.5928v.0165h0c.0659.2389-.0247.4943-.1483.6261-.3048,0-.6673.0906-.9392.2472h0l-11.1963,6.4674-4.0617-4.7784,16.2796-9.4003v6.3603c0,.1483.0247.3048.0659.4614v-.0002ZM597.3689,481.5371l-.9722-1.1452c-.4037-.4696-.8568-.8651-1.3182-1.1287l-.865-.5026,15.4145-8.8978,3.9793,2.2986-16.2384,9.3756h0ZM606.5221,466.8229v3.8804l-13.1324,7.5796-3.3614-1.9361c-.8239-.4696-1.6477-.5438-2.2656-.1813l-.6179.3543c-.6261.3625-.9722,1.0957-.9722,2.0514v3.8804l-190.5274,110.0027-.3378-17.0623,219.6676-126.826-.7003,17.6555-.5273.3048-3.3614-1.9361c-.8239-.4696-1.6477-.5438-2.2656-.1813l-.6179.3543c-.6261.3625-.9722,1.0957-.9722,2.0514l-.0083.0082h.0002ZM395.291,574.4528l-2.7847-140.7988h0v-.0659c-.0247-.2389-.1648-.4696-.3543-.6097-.0082-.0082-.0247-.0165-.033-.0247l243.4278-140.5516v143.3363l-240.256,138.7144h.0002ZM395.6617,593.3935l193.6087-111.7822,3.9793,2.2986-197.5055,114.0314-.0906-4.5477h.0082,0ZM605.0639,493.3596s0,.0247.0082.033l-9.7381-1.5324h0c-.0494,0-.0989-.0329-.1483-.0577l9.8699,1.5489.0082.0082h.0002ZM614.9914,480.359c.0494-.1153.0741-.2389.0906-.3707l10.2489,1.6065c-.0165.1483-.0741.2719-.1483.3625l-10.1912-1.5983h0ZM615.0244,479.1479v-6.7804c0-.0741-.0247-.1318-.0494-.1895-.0247-.0659-.0577-.1236-.0989-.173-.033-.0577-.0741-.0989-.1318-.1401h0l-4.8773-2.8176s-.0247,0-.033-.0165c-.0165-.0082-.0412-.0247-.0577-.0247h-.0082c-.0577-.0165-.1154-.0247-.1813-.0165-.0659,0-.1401.0247-.1895.0577-.0247.0082-.0412.0329-.0577.0577l-1.9691,1.1369v-3.4026c0-.6591.1977-1.1287.5602-1.3429.3625-.206.8733-.1401,1.4418.1813l5.0503,2.9165c.379.2142.758.5438,1.0957.9474l9.4415,11.1057h0c.0165.0247.033.0494.0494.0741l-9.9688-1.5653-.0164-.0082h.0002ZM616.7463,468.6354c-.3872-.4531-.8239-.8321-1.2688-1.0957,0,0-.0082-.0082-.0165-.0165-.0082,0-.0165-.0165-.0247-.0165h0l-.865-.5026,16.6503-9.6145,3.9793,2.2986-17.4742,10.0924-.9722-1.1452h-.0082ZM631.4276,456.5575s-.033-.0082-.0412-.0165c-.0247-.0082-.0577-.0247-.0824-.0247h-.1565c-.0247,0-.0494.0165-.0741.0247-.0165,0-.033.0082-.0577.0165l-15.9006,9.1779.7003-17.6555,20.3495-11.7483s.0247-.0247.0412-.0329c.0247-.0165.0412-.0329.0659-.0577.0165-.0165.033-.0412.0412-.0659.0165-.0247.0247-.0412.033-.0659s.0165-.0577.0165-.0824c0-.0165.0082-.0329.0082-.0494v-142.8008l4.3253,218.7119-4.2594-2.4551v-49.8192c0-.0165-.0082-.0412-.0165-.0577,0-.0165-.0165-.0329-.0247-.0494v-.0247s-.0082-.0082-.0165-.0165c-.0082-.0165-.0247-.0329-.033-.0412-.0165-.0165-.0247-.0247-.0412-.0412s-.0247-.0247-.0412-.0329c0,0-.0082-.0082-.0165-.0165l-4.8031-2.7764h-.0165v-.0002ZM636.2719,532.6663s.0494-.033.0659-.0577c.0165-.0165.033-.0412.0412-.0659.0165-.0247.0247-.0412.033-.0741.0082-.0247.0165-.0577.0165-.0824,0-.0165.0082-.033.0082-.0494v-21.956l4.2759,2.4716.5438,27.5831v.0412h0c.0741,2.8506,1.6889,6.146,4.0369,8.2222l28.4728,25.1279h0c1.071.9392,1.8125,2.4798,1.8125,3.7404v2.002l-9.1037-5.2563c-.1648-.2307-.3625-.3955-.5767-.4696-.0577-.0247-.1154-.0412-.1813-.0412-.0741-.0082-.1401,0-.206.0082-.1401,0-.2554-.0412-.3048-.0659v-.0165c0-.0165-.0165-.033-.0165-.0577-.0082-.0247-.0247-.0577-.0412-.0824-.0082-.0165-.0247-.033-.0412-.0412-.0247-.0247-.0494-.0412-.0741-.0659-.0082,0-.0165-.0165-.0247-.0165l-5.5858-3.2213h-.0247c-.0247-.0165-.0494-.0165-.0824-.0247-.0247,0-.0494-.0165-.0741-.0165h-.0247c-.1401,0-.2389-.033-.2884-.0659-.0082-.0247-.0247-.0494-.0412-.0741-.0082-.033-.0247-.0577-.0412-.0824-.206-.3378-.5355-.6261-.9145-.6261h0s-.033.0082-.0494.0165l-22.8541-13.1901c-.1813-.2636-.4119-.4449-.6591-.5108h-.0824c-.0989-.0165-.1895-.0082-.2801.0082-.1236,0-.2307-.0412-.2719-.0659v-.0165c0-.0165-.0165-.0412-.0247-.0577-.0082-.0247-.0247-.0577-.0412-.0824-.0082-.0165-.0247-.033-.0412-.0494-.0247-.0247-.0412-.0412-.0741-.0659-.0082,0-.0165-.0165-.0247-.0165l-5.5858-3.2213h-.0247c-.0247-.0165-.0494-.0165-.0824-.0247-.0247,0-.0494-.0165-.0741-.0165h-.0247c-.1401,0-.2389-.033-.2884-.0659-.0082-.0247-.0247-.0494-.033-.0659-.0082-.033-.0247-.0659-.0494-.0989-.206-.3378-.5355-.6179-.9063-.6179h0s-.033.0082-.0494.0165l-11.1304-6.4261,20.9262-12.0779.033-.033.0328-.0248h0ZM648.0367,547.4547l27.822,24.5595-1.7631,1.0216-27.8302-24.5595,1.7631-1.0216h.0082ZM647.4188,546.8615l-1.7796,1.0298c-1.9938-1.8702-3.4026-4.7619-3.5344-7.2253l1.7301-.9969c.2554,2.521,1.623,5.281,3.5838,7.2006v-.0082h.0001ZM643.7691,538.7464l-1.7054.9804-.5273-26.8828.4943-.2884.4696,23.8015v.0247c0,.0247.0082.0494.0165.0741,0,.0247.0165.0577.0247.0824v.0165c0,.0082.0165.0165.0247.0247.033.0412.0659.0741.1071.1071.0165.0082.0247.0247.0412.033.0577.0247.1154.0494.1813.0494h0c.0659,0,.1236-.0247.1813-.0494h.0165l.6014-.346.0494,2.381.0247-.0082h0ZM643.7032,535.4262l-.3872.2224-.4696-23.8015v-.0165c0-.033-.0165-.0659-.0247-.0989,0-.0165-.0082-.033-.0165-.0494,0-.0082,0-.0165-.0082-.0247-.0165-.033-.0412-.0494-.0659-.0741l-.0247-.0247c-.0247-.0247-.0577-.0412-.0906-.0577-.0165-.0082-.0412-.0247-.0577-.033-.0247,0-.0494-.0082-.0741-.0082-.0165,0-.0412-.0082-.0577-.0082h-.0165c-.0247,0-.0577.0082-.0824.0165-.0247,0-.0494.0165-.0741.0247h-.0165l-.7085.4119-4.3335-219.2721,1.7054-.9804,4.8196,243.7739h-.0167ZM624.6801,282.7381l13.5608,7.835-1.6889.9804-.3872-.2224h0l-4.6796-2.7023h0l-8.5023-4.9102,1.6889-.9804h.0084ZM622.3403,284.2953l8.1233,4.6878-8.5023,4.9102.379-9.598h0ZM631.2875,289.4609l3.8557,2.2244-243.8563,140.7906-3.8557-2.2244,243.8563-140.7906h0ZM377.4872,425.4566l13.5691,7.835-1.6889.9804-13.5691-7.835,1.6889-.9804ZM375.1474,427.0137l13.9398,8.0492s.0494.0577.0824.0741l4.8196,243.9716-28.2257-16.2961,9.3838-235.7988h.0001ZM363.8934,670.8452c-.0989.1154-.1977.2307-.3131.3131-.2966.2142-.6426.346-1.0216.3955l1.2605-.725s.0577.0082.0824.0165h-.0082,0ZM342.4564,665.0205l4.6054,1.2523s.033.0082.0494.0165l15.5628,4.2347-1.5077.8733-20.2177-5.5034,1.5077-.8733h0ZM337.5214,675.6072c-.1648-.206-.2636-.4284-.2636-.6426v-1.3676c.0824.0659.173.1236.2636.1895v1.829-.0082h0ZM423.1541,725.2039l-84.8088-48.9624v-1.9526l84.8088,48.9624v1.9526ZM338.1393,673.2179c-.5685-.3295-.8815-.7415-.8815-1.1617,0-.3625.2554-.725.692-1.0298l9.4086,5.4293c.1071.1401.2719.1977.4366.1236.0165,0,.0247,0,.0412-.0082.0494.0165.1483.0989.2224.2307.033.0989.0906.1895.1648.2636.0247.0247.0412.0577.0659.0741.173.1401.4119.2307.692.2554l5.3881,3.1142c.1483.3213.5438.5355,1.0381.5355h0c.0494,0,.0989-.0082.1565-.0165.0494.033.1236.0906.1977.2142,0,0,.0082.0082.0165.0165.033.0577.0741.0989.1401.1401h0l22.8953,13.223c.1071.1483.2801.1977.4449.1236.0165,0,.0247,0,.0412-.0082.0494.0165.1483.0989.2224.2307.033.0989.0906.1813.1648.2636.0247.0247.0412.0577.0659.0741.173.1401.4119.2307.692.2554l5.3881,3.1142c.1483.3213.5438.5355,1.0381.5355h0c.0494,0,.0989-.0082.1565-.0165.0494.033.1236.0906.1977.2142,0,0,.0082.0082.0165.0165.033.0577.0741.0989.1401.1401h0l22.9035,13.223c.1071.1483.2801.1977.4449.1236.0165,0,.0247,0,.0412-.0082.0494.0165.1483.0989.2224.2307.033.0989.0906.1812.1648.2636.0247.0247.0412.0577.0659.0742.173.14.4119.2307.692.2554l5.3881,3.1142c.1483.3213.5438.5355,1.0381.5355h0c.0494,0,.0989-.0082.1565-.0165.0494.0329.1236.0906.1977.2142,0,0,.0082.0082.0165.0165.033.0577.0741.0989.1401.14h0l9.0625,5.2315c-1.3017.4284-3.0236.3296-4.1193-.3048l-85.6574-49.4403h.0002ZM428.4021,725.6571c-1.2605.6179-3.1636.6179-4.4159,0v-1.9937c.6756.2636,1.4418.3954,2.208.3954s1.5406-.1318,2.208-.3954v1.9937h-.0001ZM428.4021,722.3039l-9.0872-5.248c-.1813-.2636-.4119-.4449-.6591-.5108h-.0742c-.0989-.0165-.1895-.0165-.2719.0082-.1236,0-.2307-.0329-.2719-.0659v-.0165c0-.0165-.0165-.0412-.0247-.0577-.0082-.0247-.0247-.0577-.0412-.0824-.0082-.0165-.0247-.0329-.0412-.0412-.0247-.0247-.0412-.0412-.0741-.0659-.0082,0-.0165-.0165-.0247-.0165l-5.5858-3.2213s-.0165,0-.0247-.0082l-.0741-.0247c-.033-.0082-.0577-.0165-.0906-.0165h-.0165c-.1401,0-.2389-.0329-.2884-.0659-.0082-.0247-.0247-.0494-.033-.0742-.0082-.0329-.0247-.0577-.0412-.0906-.206-.3378-.5355-.6179-.9063-.6179-.0247,0-.0412,0-.0659.0082l-22.8458-13.1901c-.1813-.2636-.4119-.4449-.6591-.5108h-.033c-.1071-.0247-.2142-.0165-.3213,0-.1236,0-.2307-.033-.2719-.0659v-.0165c0-.0165-.0165-.0412-.0247-.0577-.0082-.0247-.0247-.0577-.0412-.0824-.0082-.0165-.0247-.033-.0412-.0412-.0247-.0247-.0494-.0412-.0741-.0659-.0082,0-.0165-.0165-.0247-.0165l-5.5776-3.2213h-.0247c-.0247-.0082-.0494-.0165-.0741-.0247-.0247,0-.0577-.0165-.0824-.0165h-.0247c-.1401,0-.2389-.033-.2884-.0659-.0082-.0247-.0247-.0494-.033-.0741-.0082-.033-.0247-.0577-.0412-.0906-.206-.3378-.5355-.6261-.9145-.6261h0s-.033.0082-.0494.0165l-22.8541-13.1901c-.1813-.2636-.4119-.4449-.6591-.5108h-.0741c-.0989-.0165-.1895-.0165-.2801,0-.1236,0-.2307-.033-.2719-.0659v-.0165c0-.0165-.0165-.0412-.0247-.0577-.0082-.0247-.0247-.0577-.0412-.0824-.0082-.0165-.0247-.033-.0412-.0412-.0247-.0247-.0412-.0412-.0741-.0659-.0082,0-.0165-.0165-.0247-.0165l-5.5858-3.2213h-.0247c-.0247-.0165-.0494-.0165-.0741-.0247-.0247,0-.0577-.0165-.0824-.0165h-.0247c-.1401,0-.2389-.033-.2884-.0659-.0082-.0247-.0247-.0494-.033-.0741-.0082-.033-.0247-.0577-.0412-.0906-.206-.3378-.5355-.6179-.9063-.6179h-.0741l-9.4333-5.4457v-2.4798c0-.5932.1648-1.0463.4696-1.277.3048-.2307.692-.1977.9557-.1236l21.3381,5.8082c.3872.1071.7662.1565,1.1205.1565.6838,0,1.3017-.1977,1.829-.5767.3707-.2719.6756-.6426.9145-1.0793.0165-.0247.0247-.0494.0412-.0741.3048-.5932.4861-1.3182.519-2.1421l.1895-4.7867,28.2833,16.329.0577,3.0895v.0412h0c.0741,2.8506,1.6889,6.146,4.0369,8.2222l28.4811,25.1279c1.071.9392,1.8125,2.4798,1.8125,3.7403v2.002l.0082-.0165-.0002.0002ZM427.5289,716.3309l1.7796-1.0298c.8898.8898,1.5159,2.1833,1.5901,3.312l-1.7384,1.0051c-.1813-1.1452-.7909-2.381-1.6313-3.2872v-.0002ZM430.9149,719.5604v1.7631l-1.6889.9804v-1.7631l1.6889-.9804ZM435.3885,721.6448l-6.1625,3.5591v-1.9526l6.1625-3.5591v1.9526ZM436.476,720.3678c0,.2142-.0989.4367-.2636.6426v-1.829c.0906-.0577.1813-.1236.2636-.1895v1.3758h0ZM435.5945,716.3061c.5685.3296.8815.7415.8815,1.1534s-.3131.8321-.8815,1.1616l-3.8557,2.2244v-2.0514h0c-.0165-1.4747-.8733-3.2378-2.0844-4.3088l-5.281-4.6549,11.2293,6.4838-.0082-.0082h0ZM400.8438,690.1649l27.8302,24.5595-1.7631,1.0216-27.8302-24.5595,1.7631-1.0216ZM400.2259,689.5799l-1.7796,1.0298c-1.9938-1.8702-3.4026-4.7537-3.5344-7.2253l1.7301-.9969c.2554,2.521,1.623,5.281,3.5838,7.2006v-.0082h0ZM397.1694,669.7659l-.3131-15.9006-1.0875-54.9931,198.074-114.3609v6.3603c0,.1483.0247.3048.0659.4614v.0165h0c.1895.7168.6838,1.2193,1.2935,1.3182h0l11.0563,1.7384h.0659c.0494,0,.0989.0165.1401.0165.2554,0,.5108-.0741.7497-.206l18.4876-10.6773s.0247-.0165.033-.0247c0,0,.0082,0,.0165-.0082.7992-.5026,1.2111-1.6477.9639-2.6776v-.0082c0-.0165,0-.0329-.0082-.0494-.0906-.346-.2719-.6838-.5025-.9639h0c-.0165-.0165-.0247-.0329-.033-.0494l-7.9256-9.3262,17.3506-10.0182v71.7011l-238.427,137.6516v-.0003ZM665.8734,585.0725l-60.1834-34.7424,1.6972-.9804,58.4863,33.7703v1.9526h-.0001ZM671.1215,585.5256c-1.2605.6179-3.1636.6179-4.4159,0v-1.9938c.6756.2636,1.4418.3955,2.208.3955s1.5406-.1318,2.208-.3955v1.9938h-.0001ZM671.3274,582.5267c-1.3099.758-3.5179.758-4.8278,0l-58.2803-33.6467,6.2696-3.625,11.5259,6.6486c.1071.1401.2719.1977.4366.1236.0165,0,.0247,0,.0412-.0082.0494.0165.1483.0989.2224.2307.033.0989.0906.1813.1648.2636.0247.0247.0412.0577.0659.0741.173.1401.4119.2307.692.2554l5.3881,3.1142c.1483.3213.5438.5355,1.0463.5355.0494,0,.0989-.0082.1565-.0165.0494.033.1236.0906.1977.2142,0,0,.0082,0,.0165.0165.033.0577.0741.0989.1401.1401h0l22.9035,13.223c.1071.1401.2719.1977.4366.1236.0165,0,.033,0,.0412-.0082.0494.0165.1483.0989.2224.2307.033.0989.0906.1895.1648.2636.0247.0247.0412.0577.0659.0741.173.1401.4119.2307.692.2554l5.3881,3.1142c.1483.3213.5438.5355,1.0463.5355.0494,0,.0989-.0082.1483-.0165.0494.033.1236.0906.1977.2142l.0165.0165c.033.0577.0741.0989.1401.1401h0l9.1614,5.2892-3.8557,2.2244h-.0246ZM678.1079,581.5133l-6.1708,3.5591v-1.9526l4.2676-2.4634h0l1.9031-1.0957v1.9526h.0001ZM678.1079,578.6051l-1.6889.9804v-1.7631l1.6889-.9804v1.7631ZM679.1954,580.2364c0,.2142-.0989.4366-.2636.6426v-1.829c.0906-.0577.1813-.1236.2636-.1895v1.3759ZM678.9317,577.979v-1.2935c.1648.206.2636.4284.2636.6509s-.0906.4449-.2636.6509v-.0082h0Z"/>
  </g>
  <g id="Layer_3" data-name="Layer 3">
    <path d="M468.5533,551.1075l-72.4021,41.7996c-.2747.1586-.6187-.0357-.6249-.3528l-.3315-17.0885c-.0029-.1517.0768-.293.2082-.3689l42.8003-24.7111c.0633-.0366.1352-.0558.2083-.0558h29.9334c.4263,0,.5775.5643.2083.7775Z"/>
    <path d="M605.69,550.33l28.55,16.49c-11.11-6.42-20.56-5.83-20.56-5.83h-11.78c-2.5048.0012-4.9659.6561-7.14,1.9l-197.58,113.11-.1-5.26,208.61-120.41h0Z"/>
    <path d="M607.15,493.87l-16.42,10c-.4634.3004-1.0826.1682-1.3831-.2953-.1827-.282-.2117-.6368-.077-.9447l5.73-15.31h0v3.41c.0012.1289.0214.257.06.38.1046.5026.4974.8954,1,1l11,1.73.09.03h.0001Z"/>
    <path d="M338.94,666.38c-.5997.3635-.9319,1.0436-.85,1.74v2.72c-.613.2704-1.0305.8527-1.09,1.52v2.92c.065.6628.4814,1.2396,1.09,1.51l82.32,47.53-43.21-16.8799c-3.1685-1.2386-6.5381-1.8827-9.94-1.9l-346.94-1.95c-.8534-.0027-1.69-.2378-2.42-.68l-7.59-4.6c-.5491-.3301-.7265-1.0428-.3964-1.5919.1919-.3192.5253-.5268.8964-.5582l14.91-1.36c.914-.0908,1.7993-.3701,2.6-.82l237.62-136c.2195-.1279.2937-.4096.1657-.6291-.0496-.0851-.1252-.152-.2157-.1909l-7.53-3.36c-.3258-.137-.479-.5121-.342-.838.0649-.1544.1877-.2771.342-.342l1.27-.5c.9531-.3865,1.9715-.5868,3-.59h107.37l-2.55,64.47-131.11,75.5h27.74l102.69-58.58-1.21,30.43-.22,5.48c-.0125.6948-.1799,1.3781-.49,2-.3009-.0139-.5994-.0609-.89-.14l-13-3.54h0l-.58-.34c-.9024-.4786-1.9212-.6934-2.94-.62h0l-4.83-1.32c-.3953-.125-.8243-.0854-1.19.11l-2.48,1.4001h0Z"/>
  </g>
</svg>