<?xml version="1.0" encoding="UTF-8"?>
<svg id="Layer_1" data-name="Layer 1" xmlns="http://www.w3.org/2000/svg" viewBox="0 0 1000 1000">
  <g id="Layer_2" data-name="Layer 2">
    <path d="M733.3498,502.9396l-56.2098-75.013c-.4289-.5786-.9476-1.0274-1.5262-1.3666l-.0199-.0199-152.3601-87.9706c-1.9352-1.1172-4.4689-.8878-7.1422.6584-2.5836,1.4963-5.0075,4.0499-6.823,7.1921-.6683,1.1471-1.2269,2.3442-1.6658,3.5611h0l-39.4616,107.6316-75.5516-43.6212c-3.9003-2.2544-10.1647,1.2668-13.9652,7.8504-.6683,1.1471-1.2269,2.3442-1.6658,3.5611l-49.7659,135.7016c-1.7357,4.7382-.1397,10.3243,3.5611,12.4589l139.6618,80.6289c.8778.5087,1.8255.7781,2.7831.8279.02,0,.0399.0199.0698.0199l2.6833.1097h.2593c2.9826,0,5.6958-2.1846,6.9626-5.6359l40.1998-109.6366,78.4444,45.2971s.0299,0,.0499.01c.5287.2993,1.1272.4688,1.7955.4788h.0499c2.1147,0,4.5487-1.4963,6.5138-4.01,1.0075-1.2768,1.8254-2.7631,2.3841-4.2793l41.0776-112.0207,73.3371,42.3444c1.8653,1.0773,2.9327,1.4065,3.5711,1.4065.4389,0,.6783-.1596.8279-.3292,0,0,0-.02.0199-.0299,0,0,.01,0,.0199-.01l2.6135-3.3217h0c.5287-.6783-.1496-1.7357-.7082-2.4838l-.0199.01h-.0002ZM508.5304,350.3302h0c.4289-1.1571.9576-2.3043,1.596-3.4015,1.7357-3.0025,4.0299-5.4265,6.4639-6.833,2.3442-1.3566,4.5287-1.586,6.1447-.6584l149.7366,86.4544c-2.9427.2195-6.2843,2.3043-9.0275,5.7955-1.4763,1.8753-2.6833,4.0399-3.4913,6.2644h0l-50.9629,138.9835c-.2594.7182-.6484,1.4165-1.1272,2.015-.8678,1.1072-1.9352,1.7955-2.793,1.7955h-.0199c-.389,0-.7082-.1596-.9277-.4589l-57.6463-76.9282c-.4289-.5786-.9476-1.0374-1.5362-1.3766,0,0,0-.01-.02-.01l-75.9307-43.8407,39.5413-107.8012v.0002ZM475.2833,653.7336c-1.4763.5287-2.9826.389-4.3691-.399l-139.6618-80.6389c-3.3018-1.9053-4.6983-6.9527-3.1222-11.2519l49.7559-135.6817h0c.4289-1.1571.9576-2.3043,1.596-3.4015,3.5212-6.1048,9.1771-9.4664,12.6086-7.4913l149.7267,86.4445c-2.9526.1995-6.2843,2.3142-9.0175,5.8055-1.4763,1.8753-2.6833,4.0399-3.4913,6.2644l-49.746,135.6916c-.8379,2.2843-2.394,3.9901-4.2694,4.6684l-.01-.01h.0001ZM523.7125,538.9399l9.207-25.1074h0c.5187-1.4165,1.2968-2.803,2.2344-4,1.7556-2.2444,3.9502-3.621,5.7357-3.621h.0399c.9077,0,1.626.3691,2.1546,1.0673l56.5789,75.5117-75.9406-43.8507h-.01.0001ZM727.5243,506.8399l-73.4868-42.4342,9.5362-26.0151c.5187-1.4165,1.2968-2.803,2.2344-4,1.7656-2.2544,4.01-3.621,5.7756-3.621.9077.01,1.626.3691,2.1546,1.0673l56.2098,75.013c.5586.7481.6683,1.1172.6983,1.2469-.2793.0299-1.187-.1496-3.1122-1.2668l-.01.01h.0002ZM731.3648,507.2289c-.1795-.3392-.409-.6783-.6284-.9676l-56.2098-75.013c-.7082-.9476-1.7257-1.4564-2.9427-1.4663-2.1147-.01-4.5786,1.4763-6.5636,4.01-1.0075,1.2768-1.8254,2.7631-2.3841,4.2793l-50.9629,138.9834c-.5187,1.4165-1.2968,2.803-2.2344,4-1.7556,2.2444-3.9501,3.621-5.7357,3.621h-.0399c-.9077,0-1.626-.3691-2.1546-1.0673l-57.6463-76.9282c-.7082-.9476-1.7257-1.4564-2.9427-1.4663h-.0499c-2.1147,0-4.5487,1.4963-6.5138,4.01-1.0075,1.2868-1.8354,2.7631-2.3841,4.2793h0l-49.746,135.6817c-1.0374,2.8329-3.1521,4.6983-5.4863,4.9377,1.6359-.9676,2.9626-2.6135,3.7307-4.7182l49.746-135.6916c.7781-2.1247,1.9352-4.1995,3.3417-5.995,2.6434-3.3716,5.9651-5.4564,8.6784-5.4564h.0598c1.3965.02,2.5636.5985,3.3716,1.6758l57.6463,76.9282c.419.5586,1.0075.8479,1.7157.8579h.0299c1.1771,0,2.5038-.808,3.5811-2.1746.5387-.6883.9776-1.4763,1.2768-2.2843l50.9629-138.9834h0c.7781-2.1247,1.9352-4.1896,3.3417-5.9951,2.6434-3.3716,5.9651-5.4564,8.6784-5.4564h.0598c1.3965.0199,2.5636.5985,3.3716,1.6758l56.2098,75.013c.6484.8678.6983,1.2269.6983,1.2968l-1.8853,2.394.01.02v-.0002Z"/>
  </g>
  <g id="Layer_3" data-name="Layer 3">
    <path d="M727.38,507.4c.29.17.56.32.82.45-.08,1.68-.59,4-3,5-2.41,1-104.71,41.36-104.71,41.36l32.094-87.552c.3843-1.0485,1.6211-1.4971,2.5882-.9388l72.2078,41.6809h0Z"/>
    <path d="M523.2261,540.6624c.2475-.6749,1.0436-.9636,1.6661-.6042l77.2578,44.6017-.2401.41-111.45,44.95,32.7661-89.3576Z"/>
    <path d="M474,655.05h.73v.07c-.8352,2.543-3.0714,4.3694-5.73,4.68-2,.38-56.41,9.77-72.15,12.49-2.7292.4677-5.536-.0384-7.93-1.43l-144.82-84.14c-1.4365-.8257-1.9316-2.6595-1.1059-4.0959.338-.5881.8653-1.0443,1.4959-1.2941l89.1-35.67-5.82,15.88c-1.66,4.53-.16,9.85,3.35,11.88l140,80.84c.799.4729,1.7024.7408,2.63.78l.25.0099h0Z"/>
  </g>
</svg>